<svg fill="none" height="141" viewBox="0 0 93 141" width="93" xmlns="http://www.w3.org/2000/svg"><path d="m.713437 5.10794c0-2.004 1.621103-3.62799 3.621543-3.62799h84.75552c2.0005 0 3.6229 1.62399 3.6229 3.62799v130.98906c0 2.003-1.6224 3.627-3.6229 3.627h-84.75552c-2.00044 0-3.621543-1.624-3.621543-3.627z" fill="#fff"/><path d="m57.6174 102.003c0-3.1244 2.804-4.8737 5.544-4.4644 1.4147.212 2.456 1.0787 3.3 2.1253.7974.9841.9974.3491.888-.2946-.508-2.98-1.8667-4.6707-4.3933-5.4627-.2534-.0814-1.3173-.3227-.3467-.3227h10.068c.9694 0-.0933.2413-.3426.3227-2.528.792-3.8854 2.4827-4.3934 5.4627-.1093.6437.0867 1.2787.8854.2946.8466-1.0466 1.8853-1.9133 3.3013-2.1253 2.736-.4053 5.5453 1.34 5.5453 4.4644v.002c0 2.243-1.8106 4.736-4.1693 4.564-.1627-.013-1.28-.253-1.6267.087-.504.491.2.853.2507 1.968v.003c.076 2.657-1.7493 4.077-3.788 4.334v-.002c0 .002-.4427.057-.6427.057-.3626.004-.6506-.051-.7493-.057v.002c-2.0373-.257-3.8653-1.68-3.7867-4.334v-.003c.052-1.115.752-1.477.2507-1.968-.3453-.34-1.4667-.097-1.6254-.087-2.36.172-4.1693-2.321-4.1693-4.564z" fill="#302f36"/><path d="m67.6668 113.016h.0306c.2 0 .6427-.055.6427-.057v.002c2.0387-.257 3.864-1.677 3.788-4.334v-.003c-.0507-1.115-.7547-1.477-.2507-1.968.3467-.34 1.464-.1 1.6267-.087 2.3587.172 4.1693-2.321 4.1693-4.564v-.002c0-3.1244-2.8093-4.8697-5.5453-4.4644-1.416.212-2.4547 1.0787-3.3013 2.1253-.7987.9841-.9947.3491-.8854-.2946.508-2.98 1.8654-4.6707 4.3934-5.4627.2493-.0814 1.312-.3227.3426-.3227h-5.0106z" fill="#46464e"/><path d="m15.6748 102.003c0-3.1244 2.8053-4.8737 5.5453-4.4644 1.4133.212 2.456 1.0787 3.2987 2.1253.7986.9841.9986.3491.888-.2946-.5067-2.98-1.8654-4.6707-4.392-5.4627-.2547-.0814-1.3174-.3227-.3467-.3227h10.0667c.9706 0-.0934.2413-.3427.3227-2.528.792-3.884 2.4827-4.3933 5.4627-.108.6437.0866 1.2787.8853.2946.848-1.0466 1.8853-1.9133 3.3027-2.1253 2.736-.4053 5.544 1.34 5.544 4.4644v.002c0 2.243-1.8107 4.736-4.1694 4.564-.1613-.013-1.2786-.253-1.6266.087-.5027.491.2013.853.252 1.968v.003c.0746 2.657-1.7494 4.077-3.7894 4.334v-.002c0 .002-.4426.057-.6413.057-.3627.004-.652-.051-.7507-.057v.002c-2.036-.257-3.8653-1.68-3.7853-4.334v-.003c.0507-1.115.752-1.477.2507-1.968-.3467-.34-1.468-.097-1.6254-.087-2.36.172-4.1706-2.321-4.1706-4.564z" fill="#302f36"/><path d="m25.7254 113.016h.0307c.1987 0 .6413-.055.6413-.057v.002c2.04-.257 3.864-1.677 3.7894-4.334v-.003c-.0507-1.115-.7547-1.477-.252-1.968.348-.34 1.4653-.1 1.6266-.087 2.3587.172 4.1694-2.321 4.1694-4.564v-.002c0-3.1244-2.808-4.8697-5.544-4.4644-1.4174.212-2.4547 1.0787-3.3027 2.1253-.7987.9841-.9933.3491-.8853-.2946.5093-2.98 1.8653-4.6707 4.3933-5.4627.2493-.0814 1.3133-.3227.3427-.3227h-5.0094z" fill="#46464e"/><path d="m57.6174 36.6066c0-3.124 2.804-4.8747 5.544-4.4653 1.4147.212 2.456 1.08 3.3 2.1253.7974.984.9974.3493.888-.2947-.508-2.9786-1.8667-4.6707-4.3933-5.4627-.2534-.0813-1.3173-.3226-.3467-.3226h10.068c.9694 0-.0933.2413-.3426.3226-2.528.792-3.8854 2.4841-4.3934 5.4627-.1093.644.0867 1.2787.8854.2947.8466-1.0453 1.8853-1.9133 3.3013-2.1253 2.736-.4054 5.5453 1.3413 5.5453 4.4653v.0026c0 2.2427-1.8106 4.7347-4.1693 4.5627-.1627-.012-1.28-.2533-1.6267.0867-.504.4907.2.8534.2507 1.968v.0027c.076 2.6587-1.7493 4.0773-3.788 4.3346v-.0026c0 .0026-.4427.0573-.6427.0573-.3626.004-.6506-.0507-.7493-.0573v.0026c-2.0373-.2573-3.8653-1.6786-3.7867-4.3346v-.0027c.052-1.1146.752-1.4773.2507-1.968-.3453-.34-1.4667-.096-1.6254-.0867-2.36.172-4.1693-2.32-4.1693-4.5627z" fill="#302f36"/><path d="m67.6668 47.6186h.0306c.2 0 .6427-.0547.6427-.0573v.0026c2.0387-.2573 3.864-1.6759 3.788-4.3346v-.0027c-.0507-1.1146-.7547-1.4773-.2507-1.968.3467-.34 1.464-.0987 1.6267-.0867 2.3587.172 4.1693-2.32 4.1693-4.5627v-.0026c0-3.124-2.8093-4.8707-5.5453-4.4653-1.416.212-2.4547 1.08-3.3013 2.1253-.7987.984-.9947.3493-.8854-.2947.508-2.9786 1.8654-4.6707 4.3934-5.4627.2493-.0813 1.312-.3226.3426-.3226h-5.0106z" fill="#46464e"/><path d="m15.6748 36.6066c0-3.124 2.8053-4.8747 5.5453-4.4653 1.4133.212 2.456 1.08 3.2987 2.1253.7986.984.9986.3493.888-.2947-.5067-2.9786-1.8654-4.6707-4.392-5.4627-.2547-.0813-1.3174-.3226-.3467-.3226h10.0667c.9706 0-.0934.2413-.3427.3226-2.528.792-3.884 2.4841-4.3933 5.4627-.108.644.0866 1.2787.8853.2947.848-1.0453 1.8853-1.9133 3.3027-2.1253 2.736-.4054 5.544 1.3413 5.544 4.4653v.0026c0 2.2427-1.8107 4.7347-4.1694 4.5627-.1613-.012-1.2786-.2533-1.6266.0867-.5027.4907.2013.8534.252 1.968v.0027c.0746 2.6587-1.7494 4.0773-3.7894 4.3346v-.0026c0 .0026-.4426.0573-.6413.0573-.3627.004-.652-.0507-.7507-.0573v.0026c-2.036-.2573-3.8653-1.6786-3.7853-4.3346v-.0027c.0507-1.1146.752-1.4773.2507-1.968-.3467-.34-1.468-.096-1.6254-.0867-2.36.172-4.1706-2.32-4.1706-4.5627z" fill="#302f36"/><path d="m25.7254 47.6186h.0307c.1987 0 .6413-.0547.6413-.0573v.0026c2.04-.2573 3.864-1.6759 3.7894-4.3346v-.0027c-.0507-1.1146-.7547-1.4773-.252-1.968.348-.34 1.4653-.0987 1.6266-.0867 2.3587.172 4.1694-2.32 4.1694-4.5627v-.0026c0-3.124-2.808-4.8707-5.544-4.4653-1.4174.212-2.4547 1.08-3.3027 2.1253-.7987.984-.9933.3493-.8853-.2947.5093-2.9786 1.8653-4.6707 4.3933-5.4627.2493-.0813 1.3133-.3226.3427-.3226h-5.0094z" fill="#46464e"/><path d="m15.6094 23.8279c0 1.616-1.4533 2.5226-2.872 2.312-.732-.1107-1.272-.56-1.7093-1.1013-.4133-.5094-.516-.1813-.46.152.2627 1.544.9667 2.42 2.276 2.8293.1307.0427.6813.1667.18.1667h-5.21599c-.50267 0 .04931-.124.17731-.1667 1.31066-.4093 2.01334-1.2853 2.27598-2.8293.056-.3333-.0453-.6614-.45863-.152-.44.5413-.97601.9906-1.71068 1.1013-1.41733.2093-2.872-.696-2.872-2.312v-.0027c0-1.1613.93869-2.452 2.16002-2.364.084.0067.66264.132.84264-.044.26-.2533-.10266-.4426-.13066-1.02v-.0026c-.03867-1.376.90666-2.1107 1.96271-2.244v.0026c0-.0026.2293-.0319.332-.0319.1893-.0014.3373.0279.3893.0319v-.0026c1.0547.1333 2.0013.8706 1.9613 2.244v.0026c-.0266.5774-.3893.7667-.1293 1.02.1787.176.7587.0494.8413.044 1.2227-.088 2.16 1.2027 2.16 2.364z" fill="#302f36"/><path d="m10.4041 18.1213c-.0053 0-.0107 0-.0174 0-.1026 0-.332.0293-.332.0319v-.0026c-1.05596.132-2.00129.868-1.96262 2.244v.0027c.028.5773.39066.7666.13066 1.0199-.18.176-.75864.0507-.84264.0441-1.22134-.088-2.16003 1.2026-2.16003 2.3639v.0027c0 1.616 1.45467 2.5213 2.87201 2.312.73466-.1107 1.27067-.56 1.71067-1.1013.41335-.5093.51465-.1813.45865.152-.26266 1.544-.96533 2.42-2.276 2.8293-.128.0427-.67998.1667-.17731.1667h2.59601z" fill="#46464e"/><path d="m77.6534 117.377c0-1.618 1.452-2.525 2.872-2.313.7307.109 1.2707.559 1.708 1.101.4134.51.516.182.4614-.153-.264-1.543-.9667-2.419-2.2774-2.829-.1307-.042-.6813-.167-.1786-.167h5.2146c.5027 0-.048.125-.1773.167-1.308.41-2.0133 1.286-2.276 2.829-.056.335.044.663.4587.153.4386-.542.976-.992 1.7106-1.101 1.416-.209 2.872.695 2.872 2.313v.002c0 1.161-.9373 2.453-2.16 2.362-.084-.006-.6626-.13-.8426.046-.26.254.104.441.1306 1.02v.001c.0387 1.376-.9066 2.112-1.9626 2.245v-.001c0 .001-.2307.029-.332.029-.188.002-.3387-.026-.3894-.029v.001c-1.0547-.133-2.0026-.87-1.96-2.245v-.001c.0267-.579.3893-.766.1293-1.02-.18-.176-.7599-.051-.8426-.046-1.2213.091-2.1587-1.201-2.1587-2.362z" fill="#302f36"/><path d="m82.8588 123.081h.016c.1013 0 .332-.028.332-.029v.001c1.056-.133 2.0013-.869 1.9626-2.245v-.001c-.0266-.579-.3906-.766-.1306-1.02.18-.176.7586-.052.8426-.046 1.2227.091 2.16-1.201 2.16-2.362v-.002c0-1.618-1.456-2.522-2.872-2.313-.7346.109-1.272.559-1.7106 1.101-.4147.51-.5147.182-.4587-.153.2627-1.543.968-2.419 2.276-2.829.1293-.042.68-.167.1773-.167h-2.5946z" fill="#46464e"/><g fill="#302f36"><path d="m80.165 130.438h-1.4316v-1.07h1.4316v-2.395h1.3181v2.395h4.6987v.773l-4.6207 7.15h-1.3961zm4.5285 0h-3.2104v5.06l.156-.283z"/><path d="m13.0979 10.7683h1.4315v1.0701h-1.4315v2.3954h-1.3182v-2.3954h-4.69868v-.7725l4.62068-7.15076h1.3962zm-4.52861 0h3.21041v-5.06015l-.1559.28348z"/></g></svg>