<svg fill="none" height="140" viewBox="0 0 93 140" width="93" xmlns="http://www.w3.org/2000/svg"><path d="m.416163 4.53993c0-2.004 1.622447-3.629301 3.622847-3.629301h84.75429c2.0004 0 3.6229 1.625301 3.6229 3.629301v130.98807c0 2.004-1.6225 3.629-3.6229 3.629h-84.75429c-2.0004 0-3.622847-1.625-3.622847-3.629z" fill="#fff"/><path d="m57.3188 101.435c0-3.1244 2.8067-4.8737 5.5453-4.4657 1.4134.212 2.4561 1.0813 3.2987 2.1267.8.984.9987.3493.888-.2961-.5067-2.9786-1.864-4.6693-4.392-5.4613-.2533-.0826-1.316-.3226-.3467-.3226h10.0667c.972 0-.0907.24-.3427.3226-2.5266.792-3.884 2.4827-4.3933 5.4613-.108.6454.088 1.2801.8853.2961.848-1.0454 1.888-1.9147 3.3027-2.1267 2.7373-.404 5.544 1.3413 5.544 4.4657v.004c0 2.241-1.8093 4.733-4.1693 4.562-.1614-.013-1.2787-.253-1.6253.087-.5027.489.1999.853.2506 1.968v.003c.076 2.658-1.748 4.077-3.7893 4.333v-.003c0 .003-.4427.059-.6401.059-.364.003-.6519-.052-.7519-.059v.003c-2.036-.256-3.864-1.679-3.7854-4.333v-.003c.052-1.115.752-1.479.2507-1.968-.3467-.34-1.468-.096-1.6253-.087-2.3587.171-4.1707-2.321-4.1707-4.562z" fill="#302f36"/><path d="m67.3695 112.448h.0319c.1974 0 .6401-.056.6401-.059v.003c2.0413-.256 3.8653-1.675 3.7893-4.333v-.003c-.0507-1.115-.7533-1.479-.2506-1.968.3466-.34 1.4639-.099 1.6253-.087 2.36.172 4.1693-2.321 4.1693-4.562v-.004c0-3.1244-2.8067-4.8697-5.544-4.4657-1.4147.2133-2.4547 1.0813-3.3027 2.1267-.7973.984-.9933.3493-.8853-.2961.5093-2.9786 1.8667-4.6693 4.3933-5.4613.252-.0826 1.3147-.3226.3427-.3226h-5.0093z" fill="#46464e"/><path d="m15.3775 101.435c0-3.1244 2.8054-4.8737 5.544-4.4657 1.4147.212 2.456 1.0813 3.3 2.1267.7987.984.9973.3493.888-.2961-.508-2.9786-1.8653-4.6693-4.3933-5.4613-.252-.0826-1.316-.3226-.3467-.3226h10.068c.9706 0-.092.24-.3427.3226-2.5266.792-3.8853 2.4827-4.3933 5.4613-.1094.6454.0867 1.2801.8853.2961.8467-1.0454 1.8854-1.9147 3.3027-2.1267 2.7373-.404 5.544 1.3413 5.544 4.4657v.004c0 2.241-1.8093 4.733-4.1693 4.562-.1627-.013-1.2787-.253-1.6254.087-.504.489.1987.853.2507 1.968v.003c.076 2.658-1.7507 4.077-3.7893 4.333v-.003c0 .003-.4427.059-.6414.059-.3626.003-.652-.052-.7506-.059v.003c-2.036-.256-3.864-1.679-3.7867-4.333v-.003c.052-1.115.752-1.479.2507-1.968-.3454-.34-1.4667-.096-1.6254-.087-2.3573.171-4.1693-2.321-4.1693-4.562z" fill="#302f36"/><path d="m25.4269 112.448h.0319c.1987 0 .6414-.056.6414-.059v.003c2.0386-.256 3.8653-1.675 3.7893-4.333v-.003c-.052-1.115-.7547-1.479-.2507-1.968.3467-.34 1.4627-.099 1.6254-.087 2.36.172 4.1693-2.321 4.1693-4.562v-.004c0-3.1244-2.8067-4.8697-5.544-4.4657-1.4173.2133-2.456 1.0813-3.3027 2.1267-.7986.984-.9947.3493-.8853-.2961.508-2.9786 1.8667-4.6693 4.3933-5.4613.2507-.0826 1.3133-.3226.3427-.3226h-5.0106z" fill="#46464e"/><path d="m57.3188 36.0373c0-3.124 2.8067-4.872 5.5453-4.4653 1.4134.2133 2.4561 1.0813 3.2987 2.1267.8.984.9987.3506.888-.2948-.5067-2.9786-1.864-4.6706-4.392-5.4613-.2533-.084-1.316-.3239-.3467-.3239h10.0667c.972 0-.0907.2399-.3427.3239-2.5266.7907-3.884 2.4827-4.3933 5.4613-.108.6454.088 1.2788.8853.2948.848-1.0454 1.888-1.9134 3.3027-2.1267 2.7373-.4054 5.544 1.3413 5.544 4.4653v.004c0 2.2413-1.8093 4.736-4.1693 4.564-.1614-.0133-1.2787-.2546-1.6253.0854-.5027.4906.1999.8533.2506 1.9693v.0027c.076 2.6573-1.748 4.076-3.7893 4.3333v-.0027c0 .0027-.4427.0587-.6401.0587-.364.004-.6519-.052-.7519-.0587v.0027c-2.036-.2573-3.864-1.68-3.7854-4.3333v-.0027c.052-1.116.752-1.4787.2507-1.9693-.3467-.34-1.468-.0961-1.6253-.0854-2.3587.172-4.1707-2.3227-4.1707-4.564z" fill="#302f36"/><path d="m67.3695 47.052h.0319c.1974 0 .6401-.056.6401-.0587v.0027c2.0413-.2573 3.8653-1.676 3.7893-4.3333v-.0027c-.0507-1.116-.7533-1.4787-.2506-1.9693.3466-.34 1.4639-.0987 1.6253-.0854 2.36.172 4.1693-2.3227 4.1693-4.564v-.004c0-3.124-2.8067-4.8707-5.544-4.4653-1.4147.2133-2.4547 1.0813-3.3027 2.1267-.7973.984-.9933.3506-.8853-.2948.5093-2.9786 1.8667-4.6706 4.3933-5.4613.252-.084 1.3147-.3239.3427-.3239h-5.0093z" fill="#46464e"/><path d="m15.3775 36.0373c0-3.124 2.8054-4.872 5.544-4.4653 1.4147.2133 2.456 1.0813 3.3 2.1267.7987.984.9973.3506.888-.2948-.508-2.9786-1.8653-4.6706-4.3933-5.4613-.252-.084-1.316-.3239-.3467-.3239h10.068c.9706 0-.092.2399-.3427.3239-2.5266.7907-3.8853 2.4827-4.3933 5.4613-.1094.6454.0867 1.2788.8853.2948.8467-1.0454 1.8854-1.9134 3.3027-2.1267 2.7373-.4054 5.544 1.3413 5.544 4.4653v.004c0 2.2413-1.8093 4.736-4.1693 4.564-.1627-.0133-1.2787-.2546-1.6254.0854-.504.4906.1987.8533.2507 1.9693v.0027c.076 2.6573-1.7507 4.076-3.7893 4.3333v-.0027c0 .0027-.4427.0587-.6414.0587-.3626.004-.652-.052-.7506-.0587v.0027c-2.036-.2573-3.864-1.68-3.7867-4.3333v-.0027c.052-1.116.752-1.4787.2507-1.9693-.3454-.34-1.4667-.0961-1.6254-.0854-2.3573.172-4.1693-2.3227-4.1693-4.564z" fill="#302f36"/><path d="m25.4269 47.052h.0319c.1987 0 .6414-.056.6414-.0587v.0027c2.0386-.2573 3.8653-1.676 3.7893-4.3333v-.0027c-.052-1.116-.7547-1.4787-.2507-1.9693.3467-.34 1.4627-.0987 1.6254-.0854 2.36.172 4.1693-2.3227 4.1693-4.564v-.004c0-3.124-2.8067-4.8707-5.544-4.4653-1.4173.2133-2.456 1.0813-3.3027 2.1267-.7986.984-.9947.3506-.8853-.2948.508-2.9786 1.8667-4.6706 4.3933-5.4613.2507-.084 1.3133-.3239.3427-.3239h-5.0106z" fill="#46464e"/><path d="m15.3108 23.2586c0 1.6186-1.452 2.524-2.8707 2.312-.732-.1094-1.2719-.5587-1.7079-1.1-.4147-.5107-.5188-.1814-.4614.152.2626 1.544.9667 2.42 2.2747 2.8293.132.044.6826.1667.18.1667h-5.21468c-.50133 0 .04798-.1227.17865-.1667 1.308-.4093 2.01067-1.2853 2.27467-2.8293.05736-.3334-.04532-.6627-.45866-.152-.43866.5413-.97597.9906-1.70931 1.1-1.41866.2106-2.87337-.6934-2.87337-2.312v-.0013c0-1.1614.93869-2.452 2.16003-2.364.084.0066.66397.1306.84264-.0454.26133-.2533-.10396-.4413-.1293-1.0173v-.0027c-.04-1.3773.90533-2.1106 1.96133-2.2453v.0013c0-.0013.2293-.0293.332-.0293.1893-.0013.3373.0266.3893.0293v-.0013c1.0547.1347 2.0013.8707 1.9613 2.2453v.0027c-.0266.576-.3893.764-.1306 1.0173.18.176.7613.0507.8413.0454 1.2227-.088 2.16 1.2026 2.16 2.364z" fill="#302f36"/><path d="m10.1055 17.5546c-.0053 0-.0107 0-.016 0-.10268 0-.33198.028-.33198.0293v-.0013c-1.056.1334-2.00133.868-1.96133 2.2453v.0027c.02533.576.39063.764.1293 1.0173-.17867.176-.75865.0521-.84265.0454-1.22133-.088-2.16002 1.2027-2.16002 2.364v.0013c0 1.6187 1.4547 2.5226 2.87337 2.312.73333-.1094 1.27064-.5587 1.70931-1.1.41333-.5107.516-.1813.45866.152-.264 1.544-.96668 2.42-2.27468 2.8294-.13066.044-.67998.1666-.17864.1666h2.59466z" fill="#46464e"/><path d="m77.3562 116.808c0-1.617 1.452-2.524 2.872-2.312.7306.111 1.2706.56 1.708 1.101.4146.51.5173.18.46-.153-.2627-1.544-.9667-2.419-2.2747-2.829-.132-.043-.6827-.167-.18-.167h5.2147c.5026 0-.048.124-.1787.167-1.308.41-2.0107 1.285-2.2747 2.829-.0573.333.0454.663.4587.153.4387-.541.9773-.99 1.7107-1.101 1.4173-.211 2.872.695 2.872 2.312v.003c0 1.161-.9387 2.452-2.1601 2.362-.084-.006-.6626-.13-.8413.046-.2627.253.1027.442.1294 1.018v.003c.04 1.376-.9054 2.111-1.9627 2.245v-.002c0 .002-.2293.03-.332.03-.188.002-.3373-.026-.388-.03v.002c-1.056-.134-2.0027-.872-1.9613-2.245v-.003c.0253-.576.388-.765.1293-1.018-.1786-.176-.7613-.051-.8413-.046-1.2227.09-2.16-1.201-2.16-2.362z" fill="#302f36"/><path d="m82.5615 122.513h.016c.1027 0 .332-.028.332-.03v.002c1.0573-.133 2.0027-.869 1.9627-2.245v-.003c-.0267-.576-.3921-.765-.1294-1.018.1787-.176.7573-.052.8413-.046 1.2214.09 2.1601-1.201 2.1601-2.362v-.003c0-1.617-1.4547-2.523-2.872-2.312-.7334.111-1.272.56-1.7107 1.101-.4133.51-.516.18-.4587-.153.264-1.544.9667-2.419 2.2747-2.829.1307-.043.6813-.167.1787-.167h-2.5947z" fill="#46464e"/><g fill="#302f36"><path d="m84.8003 131.577-.5245 5.145h-5.2868v-1.212h4.1742l.3118-2.813c-.5055.297-1.0796.446-1.7221.446-.9402 0-1.6867-.312-2.2395-.935-.5528-.619-.8292-1.458-.8292-2.516 0-1.063.2882-1.902.8646-2.516.5717-.61 1.3725-.914 2.4025-.914.9119 0 1.656.252 2.2324.758s.9048 1.205.9851 2.098h-1.2402c-.0803-.591-.2906-1.037-.6308-1.34-.3401-.297-.789-.446-1.3465-.446-.6095 0-1.0867.208-1.4316.623-.3496.416-.5244.99-.5244 1.723 0 .689.189 1.242.567 1.658.3732.42.8717.631 1.4953.631.5717 0 1.0205-.126 1.3465-.376l.3473-.283z"/><path d="m7.86675 8.48961.52443-5.14515h5.28692v1.21188h-4.17426l-.31183 2.81353c.50554-.29765 1.07959-.44648 1.72209-.44648.9403 0 1.6867.31183 2.2395.93548.5528.61893.8292 1.45756.8292 2.51583 0 1.0631-.2882 1.9017-.8646 2.5159-.5717.6095-1.3725.9142-2.4025.9142-.91184 0-1.65598-.2527-2.23239-.7583-.5764-.5055-.90477-1.2047-.98509-2.0977h1.24023c.08031.5906.29056 1.0371.63074 1.3394.34017.2977.78901.4465 1.34651.4465.6095 0 1.0867-.2079 1.4316-.6236.3496-.4158.5244-.9899.5244-1.7222 0-.68978-.189-1.24256-.5669-1.65833-.3733-.4205-.8717-.63074-1.4954-.63074-.5717 0-1.02052.1252-1.34652.37561l-.34726.28348z"/><path d="m36.2828 69.4426c0-3.124 2.8053-4.8733 5.5453-4.4653 1.4134.212 2.456 1.08 3.3 2.1266.7974.984.9974.3494.8881-.2946-.508-2.98-1.8667-4.6707-4.3934-5.4627-.2547-.0826-1.3173-.3226-.3467-.3226h10.0667c.9707 0-.092.24-.3414.3226-2.528.792-3.8852 2.4827-4.3932 5.4627-.1094.644.0866 1.2786.8839.2946.848-1.0466 1.8867-1.9146 3.3027-2.1266 2.736-.404 5.5453 1.3413 5.5453 4.4653v.0027c0 2.2426-1.8107 4.736-4.1693 4.564-.1627-.012-1.28-.2533-1.628.0867-.5027.4907.2013.852.252 1.968v.0026c.0747 2.6574-1.7493 4.0773-3.788 4.3347v-.004c0 .004-.444.0587-.6427.0587-.3626.0026-.6506-.0507-.7506-.0587v.004c-2.036-.2574-3.864-1.68-3.7854-4.3347v-.0026c.052-1.116.752-1.4773.2507-1.968-.3453-.34-1.468-.0961-1.6253-.0867-2.36.172-4.1707-2.3214-4.1707-4.564z"/></g><path d="m46.3335 80.456h.0306c.1987 0 .6427-.0547.6427-.0587v.004c2.0387-.2574 3.8627-1.6773 3.788-4.3347v-.0026c-.0507-1.116-.7547-1.4773-.252-1.968.348-.34 1.4653-.0987 1.628-.0867 2.3586.172 4.1693-2.3214 4.1693-4.564v-.0027c0-3.124-2.8093-4.8693-5.5453-4.4653-1.416.2133-2.4547 1.08-3.3027 2.1266-.7973.984-.9933.3494-.8839-.2946.508-2.98 1.8652-4.6707 4.3932-5.4627.2494-.0826 1.3121-.3226.3414-.3226h-5.0093z" fill="#46464e"/></svg>