<svg fill="none" height="139" viewBox="0 0 93 139" width="93" xmlns="http://www.w3.org/2000/svg"><path d="m.713437 3.97332c0-2.004 1.621103-3.629326 3.621543-3.629326h84.75552c2.0005 0 3.6229 1.625326 3.6229 3.629326v130.99068c0 2.003-1.6224 3.627-3.6229 3.627h-84.75552c-2.00044 0-3.621543-1.624-3.621543-3.627z" fill="#fff"/><path d="m57.6174 107.128c0-3.125 2.804-4.873 5.544-4.467 1.4147.214 2.456 1.082 3.3 2.126.7974.984.9974.352.888-.295-.508-2.979-1.8667-4.6694-4.3933-5.4614-.2534-.0826-1.3173-.3226-.3467-.3226h10.068c.9694 0-.0933.24-.3426.3226-2.528.792-3.8854 2.4824-4.3934 5.4614-.1093.647.0867 1.279.8854.295.8466-1.044 1.8853-1.912 3.3013-2.126 2.736-.404 5.5453 1.342 5.5453 4.467v.003c0 2.241-1.8106 4.733-4.1693 4.562-.1627-.013-1.28-.253-1.6267.086-.504.492.2.854.2507 1.969v.001c.076 2.66-1.7493 4.079-3.788 4.336v-.002c0 .002-.4427.057-.6427.057-.3626.003-.6506-.052-.7493-.057v.002c-2.0373-.257-3.8653-1.678-3.7867-4.336v-.001c.052-1.115.752-1.477.2507-1.969-.3453-.339-1.4667-.096-1.6254-.086-2.36.171-4.1693-2.321-4.1693-4.562z" fill="#302f36"/><path d="m67.6668 118.14h.0306c.2 0 .6427-.055.6427-.057v.002c2.0387-.257 3.864-1.676 3.788-4.336v-.001c-.0507-1.115-.7547-1.477-.2507-1.969.3467-.339 1.464-.099 1.6267-.086 2.3587.171 4.1693-2.321 4.1693-4.562v-.003c0-3.125-2.8093-4.871-5.5453-4.467-1.416.214-2.4547 1.082-3.3013 2.126-.7987.984-.9947.352-.8854-.295.508-2.979 1.8654-4.6694 4.3934-5.4614.2493-.0826 1.312-.3226.3426-.3226h-5.0106z" fill="#46464e"/><path d="m15.6748 107.128c0-3.125 2.8053-4.873 5.5453-4.467 1.4133.214 2.456 1.082 3.2987 2.126.7986.984.9986.352.888-.295-.5067-2.979-1.8654-4.6694-4.392-5.4614-.2547-.0826-1.3174-.3226-.3467-.3226h10.0667c.9706 0-.0934.24-.3427.3226-2.528.792-3.884 2.4824-4.3933 5.4614-.108.647.0866 1.279.8853.295.848-1.044 1.8853-1.912 3.3027-2.126 2.736-.404 5.544 1.342 5.544 4.467v.003c0 2.241-1.8107 4.733-4.1694 4.562-.1613-.013-1.2786-.253-1.6266.086-.5027.492.2013.854.252 1.969v.001c.0746 2.66-1.7494 4.079-3.7894 4.336v-.002c0 .002-.4426.057-.6413.057-.3627.003-.652-.052-.7507-.057v.002c-2.036-.257-3.8653-1.678-3.7853-4.336v-.001c.0507-1.115.752-1.477.2507-1.969-.3467-.339-1.468-.096-1.6254-.086-2.36.171-4.1706-2.321-4.1706-4.562z" fill="#302f36"/><path d="m25.7254 118.14h.0307c.1987 0 .6413-.055.6413-.057v.002c2.04-.257 3.864-1.676 3.7894-4.336v-.001c-.0507-1.115-.7547-1.477-.252-1.969.348-.339 1.4653-.099 1.6266-.086 2.3587.171 4.1694-2.321 4.1694-4.562v-.003c0-3.125-2.808-4.871-5.544-4.467-1.4174.214-2.4547 1.082-3.3027 2.126-.7987.984-.9933.352-.8853-.295.5093-2.979 1.8653-4.6694 4.3933-5.4614.2493-.0826 1.3133-.3226.3427-.3226h-5.0094z" fill="#46464e"/><path d="m15.6094 22.6933c0 1.616-1.4533 2.5227-2.872 2.312-.732-.1093-1.272-.56-1.7093-1.1013-.4133-.508-.516-.18-.46.1533.2627 1.544.9667 2.4187 2.276 2.828.1307.044.6813.1693.18.1693h-5.21599c-.50267 0 .04931-.1253.17731-.1693 1.31066-.4093 2.01334-1.284 2.27598-2.828.056-.3333-.0453-.6613-.45863-.1533-.44.5413-.97601.992-1.71068 1.1013-1.41733.2107-2.872-.696-2.872-2.312 0-1.1627.93869-2.4533 2.16002-2.3653.084.0053.66264.1306.84264-.044.26-.256-.10266-.4427-.13066-1.0214v-.0026c-.03867-1.3747.90666-2.1094 1.96271-2.2414 0 0 .2293-.032.332-.032.1893 0 .3373.0294.3893.032 1.0547.132 2.0013.8694 1.9613 2.2414v.0026c-.0266.5787-.3893.7654-.1293 1.0214.1787.1746.7587.0493.8413.044 1.2227-.088 2.16 1.2026 2.16 2.3653z" fill="#302f36"/><path d="m10.4041 16.9866c-.0053 0-.0107 0-.0174 0-.1026 0-.332.032-.332.032-1.05596.1294-2.00129.8667-1.96262 2.2414v.0026c.028.5787.39066.7654.13066 1.0214-.18.1746-.75864.0493-.84264.044-1.22134-.088-2.16003 1.2026-2.16003 2.3653 0 1.616 1.45467 2.5227 2.87201 2.312.73466-.1093 1.27067-.56 1.71067-1.1013.41335-.508.51465-.18.45865.1533-.26266 1.544-.96533 2.4187-2.276 2.828-.128.044-.67998.1693-.17731.1693h2.59601z" fill="#46464e"/><path d="m77.6534 116.243c0-1.618 1.452-2.524 2.872-2.314.7307.112 1.2707.56 1.708 1.102.4134.51.516.182.4614-.154-.264-1.541-.9667-2.418-2.2774-2.828-.1307-.044-.6813-.166-.1786-.166h5.2146c.5027 0-.048.122-.1773.166-1.308.41-2.0133 1.287-2.276 2.828-.056.336.044.664.4587.154.4386-.542.976-.99 1.7106-1.102 1.416-.21 2.872.696 2.872 2.314v.002c0 1.162-.9373 2.452-2.16 2.362-.084-.006-.6626-.131-.8426.046-.26.254.104.44.1306 1.019v.003c.0387 1.374-.9066 2.112-1.9626 2.244v-.003c0 .003-.2307.032-.332.032-.188.003-.3387-.029-.3894-.032v.003c-1.0547-.132-2.0026-.87-1.96-2.244v-.003c.0267-.579.3893-.765.1293-1.019-.18-.177-.7599-.049-.8426-.046-1.2213.09-2.1587-1.2-2.1587-2.362z" fill="#302f36"/><path d="m82.8588 121.948h.016c.1013 0 .332-.029.332-.032v.003c1.056-.132 2.0013-.87 1.9626-2.244v-.003c-.0266-.579-.3906-.765-.1306-1.019.18-.177.7586-.052.8426-.046 1.2227.09 2.16-1.2 2.16-2.362v-.002c0-1.618-1.456-2.524-2.872-2.314-.7346.112-1.272.56-1.7106 1.102-.4147.51-.5147.182-.4587-.154.2627-1.541.968-2.418 2.276-2.828.1293-.044.68-.166.1773-.166h-2.5946z" fill="#46464e"/><g fill="#302f36"><path d="m84.6015 127.558h1.0216v6.772l2.0486-.753v.923l-2.9109 1.093h-.1593zm-7.9915 3.411c0-1.19.2033-2.075.6097-2.653.4064-.579 1.0417-.868 1.9059-.868.8531 0 1.4847.282 1.8948.846.4101.567.6225 1.413.6371 2.537v1.357c0 1.175-.2032 2.049-.6096 2.62s-1.0436.857-1.9114.857c-.8604 0-1.4939-.277-1.9003-.83-.4065-.549-.6152-1.399-.6262-2.548zm1.0161 1.389c0 .861.1209 1.487.3625 1.879.2417.395.6243.593 1.1479.593.52 0 .899-.196 1.137-.588s.3606-.994.368-1.807v-1.626c0-.864-.1245-1.503-.3735-1.917-.2527-.41-.6335-.615-1.1424-.615-.5017 0-.8733.194-1.115.582-.2453.389-.3735 1-.3845 1.835z"/><path d="m8.66141 11.3796h-1.02158v-6.77215l-2.04867.75246v-.92273l2.91097-1.09298h.15928zm7.99139-3.41081c0 1.19002-.2032 2.07431-.6096 2.65281-.4064.5786-1.0417.8678-1.9059.8678-.8531 0-1.4847-.2819-1.8948-.8458-.4101-.5676-.6225-1.41339-.6372-2.5375v-1.35662c0-1.17537.2033-2.04866.6097-2.61987s1.0435-.85681 1.9113-.85681c.8605 0 1.494.27645 1.9004.82935.4065.54924.6152 1.39873.6261 2.54847zm-1.016-1.38957c0-.86048-.1209-1.48661-.3625-1.8784-.2417-.39545-.6243-.59318-1.148-.59318-.5199 0-.8989.1959-1.1369.58769s-.3606.99412-.368 1.80699v1.62575c0 .86414.1245 1.50309.3735 1.91683.2527.4101.6335.6152 1.1424.6152.5017 0 .8733-.1941 1.115-.5822.2453-.38816.3735-.99964.3845-1.83449z"/><path d="m36.6028 93.648c0-3.124 2.8053-4.872 5.5453-4.4653 1.4133.2133 2.4547 1.08 3.2987 2.1266.8.9854.9973.3494.888-.296-.508-2.98-1.864-4.6693-4.392-5.4613-.2534-.0827-1.3174-.3227-.3467-.3227h10.0667c.972 0-.092.24-.3427.3227-2.5267.792-3.8853 2.4813-4.3933 5.4613-.1094.6454.0866 1.2814.8853.296.8467-1.0466 1.8853-1.9133 3.3027-2.1266 2.736-.404 5.544 1.3413 5.544 4.4653v.0026c0 2.2427-1.8094 4.7347-4.1694 4.5654-.1613-.016-1.2786-.2547-1.6266.0866-.5014.4894.2.8507.252 1.9654v.005c.076 2.656-1.7507 4.076-3.7894 4.334v-.003c0 .003-.4427.057-.6413.057-.3627.003-.652-.052-.7507-.057v.003c-2.036-.258-3.864-1.68-3.7853-4.334v-.005c.0507-1.1147.7507-1.476.2507-1.9654-.3467-.3413-1.468-.0973-1.6254-.0866-2.3586.1693-4.1706-2.3227-4.1706-4.5654z"/></g><path d="m46.6534 104.661h.0307c.1986 0 .6413-.054.6413-.057v.003c2.0387-.258 3.8654-1.678 3.7894-4.334v-.005c-.052-1.1147-.7534-1.476-.252-1.9654.348-.3413 1.4653-.1026 1.6266-.0866 2.36.1693 4.1694-2.3227 4.1694-4.5654v-.0026c0-3.124-2.808-4.8693-5.544-4.4653-1.4174.2133-2.456 1.08-3.3027 2.1266-.7987.9854-.9947.3494-.8853-.296.508-2.98 1.8666-4.6693 4.3933-5.4613.2507-.0827 1.3147-.3227.3427-.3227h-5.0094z" fill="#46464e"/><path d="m57.6174 81.5266c0-3.1253 2.804-4.8733 5.544-4.464 1.4147.2107 2.456 1.0774 3.3 2.1254.7974.984.9974.348.888-.2947-.508-2.9787-1.8667-4.672-4.3933-5.464-.2534-.08-1.3173-.32-.3467-.32h10.068c.9694 0-.0933.24-.3426.32-2.528.792-3.8854 2.4853-4.3934 5.464-.1093.6427.0867 1.2787.8854.2947.8466-1.048 1.8853-1.9147 3.3013-2.1254 2.736-.4066 5.5453 1.3387 5.5453 4.464v.0014c0 2.2426-1.8106 4.7373-4.1693 4.5653-.1627-.012-1.28-.252-1.6267.0867-.504.4893.2.8533.2507 1.968v.0026c.076 2.656-1.7493 4.076-3.788 4.3334v-.0027c0 .0027-.4427.0573-.6427.0573-.3626.0054-.6506-.0493-.7493-.0573v.0027c-2.0373-.2574-3.8653-1.6787-3.7867-4.3334v-.0026c.052-1.1147.752-1.4787.2507-1.968-.3453-.3387-1.4667-.0974-1.6254-.0867-2.36.172-4.1693-2.3227-4.1693-4.5653z" fill="#302f36"/><path d="m67.6668 92.5386h.0306c.2 0 .6427-.0546.6427-.0573v.0027c2.0387-.2574 3.864-1.6747 3.788-4.3334v-.0026c-.0507-1.1147-.7547-1.4787-.2507-1.968.3467-.3387 1.464-.0987 1.6267-.0867 2.3587.172 4.1693-2.3227 4.1693-4.5653v-.0014c0-3.1253-2.8093-4.8706-5.5453-4.464-1.416.2107-2.4547 1.08-3.3013 2.1254-.7987.984-.9947.348-.8854-.2947.508-2.9787 1.8654-4.672 4.3934-5.464.2493-.08 1.312-.32.3426-.32h-5.0106z" fill="#46464e"/><path d="m15.6748 81.5266c0-3.1253 2.8053-4.8733 5.5453-4.464 1.4133.2107 2.456 1.0774 3.2987 2.1254.7986.984.9986.348.888-.2947-.5067-2.9787-1.8654-4.672-4.392-5.464-.2547-.08-1.3174-.32-.3467-.32h10.0667c.9706 0-.0934.24-.3427.32-2.528.792-3.884 2.4853-4.3933 5.464-.108.6427.0866 1.2787.8853.2947.848-1.048 1.8853-1.9147 3.3027-2.1254 2.736-.4066 5.544 1.3387 5.544 4.464v.0014c0 2.2426-1.8107 4.7373-4.1694 4.5653-.1613-.012-1.2786-.252-1.6266.0867-.5027.4893.2013.8533.252 1.968v.0026c.0746 2.656-1.7494 4.076-3.7894 4.3334v-.0027c0 .0027-.4426.0573-.6413.0573-.3627.0054-.652-.0493-.7507-.0573v.0027c-2.036-.2574-3.8653-1.6787-3.7853-4.3334v-.0026c.0507-1.1147.752-1.4787.2507-1.968-.3467-.3387-1.468-.0974-1.6254-.0867-2.36.172-4.1706-2.3227-4.1706-4.5653z" fill="#302f36"/><path d="m25.7254 92.5386h.0307c.1987 0 .6413-.0546.6413-.0573v.0027c2.04-.2574 3.864-1.6747 3.7894-4.3334v-.0026c-.0507-1.1147-.7547-1.4787-.252-1.968.348-.3387 1.4653-.0987 1.6266-.0867 2.3587.172 4.1694-2.3227 4.1694-4.5653v-.0014c0-3.1253-2.808-4.8706-5.544-4.464-1.4174.2107-2.4547 1.08-3.3027 2.1254-.7987.984-.9933.348-.8853-.2947.5093-2.9787 1.8653-4.672 4.3933-5.464.2493-.08 1.3133-.32.3427-.32h-5.0094z" fill="#46464e"/><path d="m57.6174 55.924c0-3.1214 2.804-4.872 5.544-4.4627 1.4147.2107 2.456 1.08 3.3 2.124.7974.9853.9974.352.888-.2933-.508-2.98-1.8667-4.6694-4.3933-5.4614-.2534-.0826-1.3173-.3226-.3467-.3226h10.068c.9694 0-.0933.24-.3426.3226-2.528.792-3.8854 2.4814-4.3934 5.4614-.1093.6453.0867 1.2786.8854.2933.8466-1.044 1.8853-1.9133 3.3013-2.124 2.736-.4067 5.5453 1.3413 5.5453 4.4627v.0053c0 2.2427-1.8106 4.7347-4.1693 4.5627-.1627-.0134-1.28-.252-1.6267.0867-.504.4893.2.8533.2507 1.968v.0026c.076 2.656-1.7493 4.0787-3.788 4.3334v-.0027c0 .0027-.4427.06-.6427.06-.3626.0027-.6506-.052-.7493-.06v.0027c-2.0373-.2547-3.8653-1.68-3.7867-4.3334v-.0026c.052-1.1147.752-1.4787.2507-1.968-.3453-.3387-1.4667-.0974-1.6254-.0867-2.36.172-4.1693-2.32-4.1693-4.5627z" fill="#302f36"/><path d="m67.6668 66.94h.0306c.2 0 .6427-.0573.6427-.06v.0027c2.0387-.2547 3.864-1.6747 3.788-4.3334v-.0026c-.0507-1.1147-.7547-1.4787-.2507-1.968.3467-.3387 1.464-.1001 1.6267-.0867 2.3587.172 4.1693-2.32 4.1693-4.5627v-.0053c0-3.1214-2.8093-4.8694-5.5453-4.4627-1.416.2107-2.4547 1.08-3.3013 2.124-.7987.9853-.9947.352-.8854-.2933.508-2.98 1.8654-4.6694 4.3934-5.4614.2493-.0826 1.312-.3226.3426-.3226h-5.0106z" fill="#46464e"/><path d="m15.6748 55.924c0-3.1214 2.8053-4.872 5.5453-4.4627 1.4133.2107 2.456 1.08 3.2987 2.124.7986.9853.9986.352.888-.2933-.5067-2.98-1.8654-4.6694-4.392-5.4614-.2547-.0826-1.3174-.3226-.3467-.3226h10.0667c.9706 0-.0934.24-.3427.3226-2.528.792-3.884 2.4814-4.3933 5.4614-.108.6453.0866 1.2786.8853.2933.848-1.044 1.8853-1.9133 3.3027-2.124 2.736-.4067 5.544 1.3413 5.544 4.4627v.0053c0 2.2427-1.8107 4.7347-4.1694 4.5627-.1613-.0134-1.2786-.252-1.6266.0867-.5027.4893.2013.8533.252 1.968v.0026c.0746 2.656-1.7494 4.0787-3.7894 4.3334v-.0027c0 .0027-.4426.06-.6413.06-.3627.0027-.652-.052-.7507-.06v.0027c-2.036-.2547-3.8653-1.68-3.7853-4.3334v-.0026c.0507-1.1147.752-1.4787.2507-1.968-.3467-.3387-1.468-.0974-1.6254-.0867-2.36.172-4.1706-2.32-4.1706-4.5627z" fill="#302f36"/><path d="m25.7254 66.94h.0307c.1987 0 .6413-.0573.6413-.06v.0027c2.04-.2547 3.864-1.6747 3.7894-4.3334v-.0026c-.0507-1.1147-.7547-1.4787-.252-1.968.348-.3387 1.4653-.1001 1.6266-.0867 2.3587.172 4.1694-2.32 4.1694-4.5627v-.0053c0-3.1214-2.808-4.8694-5.544-4.4627-1.4174.2107-2.4547 1.08-3.3027 2.124-.7987.9853-.9933.352-.8853-.2933.5093-2.98 1.8653-4.6694 4.3933-5.4614.2493-.0826 1.3133-.3226.3427-.3226h-5.0094z" fill="#46464e"/><path d="m57.6174 30.3253c0-3.1253 2.804-4.872 5.544-4.4653 1.4147.2133 2.456 1.08 3.3 2.1266.7974.9854.9974.3494.888-.296-.508-2.98-1.8667-4.6693-4.3933-5.4613-.2534-.084-1.3173-.3226-.3467-.3226h10.068c.9694 0-.0933.2386-.3426.3226-2.528.792-3.8854 2.4813-4.3934 5.4613-.1093.6454.0867 1.2814.8854.296.8466-1.0466 1.8853-1.9133 3.3013-2.1266 2.736-.404 5.5453 1.34 5.5453 4.4653v.0027c0 2.2426-1.8106 4.7373-4.1693 4.5653-.1627-.0133-1.28-.2546-1.6267.0854-.504.4906.2.852.2507 1.9666v.0053c.076 2.656-1.7493 4.076-3.788 4.3334v-.0027c0 .0027-.4427.0574-.6427.0574-.3626.0026-.6506-.052-.7493-.0574v.0027c-2.0373-.2574-3.8653-1.68-3.7867-4.3334v-.0053c.052-1.1146.752-1.476.2507-1.9666-.3453-.34-1.4667-.0961-1.6254-.0854-2.36.172-4.1693-2.3227-4.1693-4.5653z" fill="#302f36"/><path d="m67.6668 41.3387h.0306c.2 0 .6427-.0547.6427-.0574v.0027c2.0387-.2574 3.864-1.6774 3.788-4.3334v-.0053c-.0507-1.1146-.7547-1.476-.2507-1.9666.3467-.34 1.464-.0987 1.6267-.0854 2.3587.172 4.1693-2.3227 4.1693-4.5653v-.0027c0-3.1253-2.8093-4.8693-5.5453-4.4653-1.416.2133-2.4547 1.08-3.3013 2.1266-.7987.9854-.9947.3494-.8854-.296.508-2.98 1.8654-4.6693 4.3934-5.4613.2493-.084 1.312-.3226.3426-.3226h-5.0106z" fill="#46464e"/><path d="m15.6748 30.3253c0-3.1253 2.8053-4.872 5.5453-4.4653 1.4133.2133 2.456 1.08 3.2987 2.1266.7986.9854.9986.3494.888-.296-.5067-2.98-1.8654-4.6693-4.392-5.4613-.2547-.084-1.3174-.3226-.3467-.3226h10.0667c.9706 0-.0934.2386-.3427.3226-2.528.792-3.884 2.4813-4.3933 5.4613-.108.6454.0866 1.2814.8853.296.848-1.0466 1.8853-1.9133 3.3027-2.1266 2.736-.404 5.544 1.34 5.544 4.4653v.0027c0 2.2426-1.8107 4.7373-4.1694 4.5653-.1613-.0133-1.2786-.2546-1.6266.0854-.5027.4906.2013.852.252 1.9666v.0053c.0746 2.656-1.7494 4.076-3.7894 4.3334v-.0027c0 .0027-.4426.0574-.6413.0574-.3627.0026-.652-.052-.7507-.0574v.0027c-2.036-.2574-3.8653-1.68-3.7853-4.3334v-.0053c.0507-1.1146.752-1.476.2507-1.9666-.3467-.34-1.468-.0961-1.6254-.0854-2.36.172-4.1706-2.3227-4.1706-4.5653z" fill="#302f36"/><path d="m25.7254 41.3387h.0307c.1987 0 .6413-.0547.6413-.0574v.0027c2.04-.2574 3.864-1.6774 3.7894-4.3334v-.0053c-.0507-1.1146-.7547-1.476-.252-1.9666.348-.34 1.4653-.0987 1.6266-.0854 2.3587.172 4.1694-2.3227 4.1694-4.5653v-.0027c0-3.1253-2.808-4.8693-5.544-4.4653-1.4174.2133-2.4547 1.08-3.3027 2.1266-.7987.9854-.9933.3494-.8853-.296.5093-2.98 1.8653-4.6693 4.3933-5.4613.2493-.084 1.3133-.3226.3427-.3226h-5.0094z" fill="#46464e"/><path d="m36.6028 42.484c0-3.1227 2.8053-4.872 5.5453-4.4627 1.4133.2133 2.4547 1.08 3.2987 2.124.8.9854.9973.352.888-.2933-.508-2.98-1.864-4.6694-4.392-5.4614-.2534-.084-1.3174-.3226-.3467-.3226h10.0667c.972 0-.092.2386-.3427.3226-2.5267.792-3.8853 2.4814-4.3933 5.4614-.1094.6453.0866 1.2787.8853.2933.8467-1.044 1.8853-1.9107 3.3027-2.124 2.736-.404 5.544 1.34 5.544 4.4627v.0053c0 2.2427-1.8094 4.7347-4.1694 4.5627-.1613-.0134-1.2786-.252-1.6266.0866-.5014.492.2.8534.252 1.968v.0027c.076 2.6587-1.7507 4.0787-3.7894 4.3334v-.0027c0 .0026-.4427.06-.6413.06-.3627.0026-.652-.052-.7507-.06v.0027c-2.036-.2547-3.864-1.6774-3.7853-4.3334v-.0027c.0507-1.1146.7507-1.476.2507-1.968-.3467-.3386-1.468-.0973-1.6254-.0866-2.3586.172-4.1706-2.32-4.1706-4.5627z" fill="#302f36"/><path d="m46.6534 53.5h.0307c.1986 0 .6413-.0574.6413-.06v.0027c2.0387-.2547 3.8654-1.6747 3.7894-4.3334v-.0027c-.052-1.1146-.7534-1.476-.252-1.968.348-.3386 1.4653-.1 1.6266-.0866 2.36.172 4.1694-2.32 4.1694-4.5627v-.0053c0-3.1227-2.808-4.8667-5.544-4.4627-1.4174.2133-2.456 1.08-3.3027 2.124-.7987.9854-.9947.352-.8853-.2933.508-2.98 1.8666-4.6694 4.3933-5.4614.2507-.084 1.3147-.3226.3427-.3226h-5.0094z" fill="#46464e"/></svg>