<svg fill="none" height="140" viewBox="0 0 92 140" width="92" xmlns="http://www.w3.org/2000/svg"><path d="m-.00000524 3.67668c0-2.03075 1.62244524-3.67668 3.62285524-3.67668h84.75565c2.0004 0 3.6215 1.64593 3.6215 3.67668v132.64632c0 2.031-1.6211 3.677-3.6215 3.677h-84.75565c-2.00041 0-3.62285524-1.646-3.62285524-3.677z" fill="#fff"/><path d="m82.651 131.232 1.2615-1.311v-3.487h1.3607v10.319h-1.3607v-5.103l-4.5853 5.103h-1.6442l4.0608-4.557-4.3797-5.762h1.63z" fill="#302f36"/><path d="m10.016 8.89595-1.26146 1.31105v3.4868h-1.3607v-10.3186h1.3607v5.10262l4.58526-5.10262h1.6442l-4.0608 4.55692 4.3797 5.76168h-1.63z" fill="#302f36"/><path d="m15.3695 23.2893c0 1.62-1.4533 2.5227-2.872 2.312-.732-.1093-1.272-.56-1.708-1.1013-.4147-.508-.5173-.18-.4613.1533.2626 1.544.9679 2.42 2.2759 2.828.132.0453.6814.1667.1788.1667h-5.21339c-.50267 0 .04801-.1214.17734-.1667 1.30933-.408 2.01198-1.284 2.27595-2.828.056-.3333-.0466-.6613-.45993-.1533-.43867.5413-.97605.992-1.70938 1.1013-1.41866.2107-2.87331-.692-2.87331-2.312v-.0027c0-1.1613.93863-2.4506 2.15997-2.3626.084.008.66404.1306.8427-.044.26134-.2547-.10269-.4427-.12936-1.02-.04-1.3787.90533-2.112 1.96133-2.248v.0026c0-.0026.22938-.032.33208-.032.1893 0 .3373.0294.3893.032v-.0026c1.0546.136 2.0013.872 1.9613 2.248-.0267.5773-.3894.7653-.1294 1.02.1787.1746.76.0493.8414.044 1.2213-.088 2.16 1.2013 2.16 2.3626z" fill="#302f36"/><path d="m10.1642 17.5826c-.0067 0-.0107 0-.0174 0-.1026 0-.33199.0294-.33199.032v-.0026c-1.056.136-2.00133.8693-1.96133 2.248.02666.5773.39069.7653.12936 1.02-.17867.1746-.75871.052-.84271.044-1.22133-.088-2.15996 1.2013-2.15996 2.3626v.0027c0 1.62 1.45464 2.5227 2.87331 2.312.73333-.1093 1.27071-.56 1.70937-1.1013.41334-.508.51595-.18.45995.1533-.26399 1.544-.96663 2.42-2.27596 2.828-.12934.0453-.68001.1667-.17735.1667h2.59471z" fill="#46464e"/><path d="m77.4135 116.839c0-1.618 1.452-2.524 2.872-2.312.732.109 1.2707.558 1.708 1.101.4147.511.5173.179.46-.155-.2627-1.541-.9654-2.418-2.2747-2.828-.132-.041-.6826-.166-.18-.166h5.2147c.5027 0-.048.125-.1773.166-1.3094.41-2.012 1.287-2.276 2.828-.056.334.0453.666.4586.155.4387-.543.976-.992 1.7107-1.101 1.4173-.21 2.872.694 2.872 2.312v.002c0 1.162-.9387 2.454-2.16 2.364-.084-.008-.6627-.132-.8413.044-.2614.254.1026.444.1293 1.019v.003c.04 1.374-.9053 2.112-1.9627 2.245v-.003c0 .003-.2293.031-.3306.031-.1894 0-.3387-.025-.3894-.031v.003c-1.056-.133-2.0026-.871-1.9613-2.245v-.003c.0253-.575.3893-.765.1293-1.019-.1787-.176-.7613-.052-.8413-.044-1.2227.09-2.16-1.202-2.16-2.364z" fill="#302f36"/><path d="m82.6188 122.544h.0174c.1013 0 .3306-.028.3306-.031v.003c1.0574-.133 2.0027-.871 1.9627-2.245v-.003c-.0267-.575-.3907-.765-.1293-1.019.1786-.176.7573-.052.8413-.044 1.2213.09 2.16-1.202 2.16-2.364v-.002c0-1.618-1.4547-2.522-2.872-2.312-.7347.109-1.272.558-1.7107 1.101-.4133.511-.5146.179-.4586-.155.264-1.541.9666-2.418 2.276-2.828.1293-.041.68-.166.1773-.166h-2.5947z" fill="#46464e"/><path d="m23.7802 38.6426s-5.4054 1.956-10.436 7.4174v6.6893h10.436z" fill="#302f36"/><path d="m13.3442 56.076v37.5387s4.7187 6.0159 14.188 6.9063c0 0 .176-38.0237-14.188-44.445z" fill="#302f36"/><path d="m41.0481 98.4586h4.8294v-8.8653h-4.8294z" fill="#181419"/><path d="m31.3655 101.519h4.8293v-8.8657h-4.8293z" fill="#181419"/><path d="m45.9148 101.979h4.828v-8.8643h-4.828z" fill="#a22735"/><path d="m36.2188 99.088h4.8293v-8.864h-4.8293z" fill="#a22735"/><path d="m50.5895 104.651h4.8306v-8.8644h-4.8306z" fill="#181419"/><path d="m55.4561 104.828h4.8307v-5.5187h-4.8307z" fill="#a22735"/><path d="m26.2401 100.377s1.6894-24.833-12.896-44.301c.0174-1.716.0267-2.5867.0267-2.5867s8.5853 4.0374 13.4693 21.052c4.884 17.0134 2.6707 25.8357 2.6707 25.8357z" fill="#181419"/><path d="m28.4708 99.8226s.4467-16.3413-3.5853-26.1346c-4.0333-9.792-6.8413-16.4694-11.5413-20.1574v-7.4706s13.2506 12.812 17.5959 27.2453c4.3454 14.4347 3.5334 27.0557 3.5334 27.0557z" fill="#edebea"/><g fill="#a22735"><path d="m28.2255 100.255c0-.6124 1.244-1.1097 2.7773-1.1097 1.5347 0 2.7774.4973 2.7774 1.1097 0 .614-1.2427 1.112-2.7774 1.112-1.5333 0-2.7773-.498-2.7773-1.112z"/><path d="m28.4308 97.8147c-.0307-.6014 1.1573-1.1507 2.6586-1.2294 1.5-.08 2.7427.344 2.7734.9427.0333.6-1.1587 1.1493-2.66 1.2293-1.4987.0787-2.74-.3426-2.772-.9426z"/><path d="m28.4721 95.0053c-.0613-.5867 1.076-1.1907 2.5427-1.3467 1.4653-.1586 2.7066.188 2.7693.7734.064.5893-1.0746 1.1907-2.54 1.3493-1.4666.156-2.708-.1907-2.772-.776z"/><path d="m28.3455 91.888c-.096-.5734.9907-1.2294 2.424-1.4667 1.432-.236 2.6706.0347 2.7653.6067.096.5733-.9893 1.2293-2.424 1.4666-1.432.2374-2.6707-.0333-2.7653-.6066z"/><path d="m28.0402 88.5187c-.1254-.56.9066-1.2694 2.3053-1.584 1.4-.3147 2.636-.12 2.7613.44.1267.5573-.9053 1.268-2.3026 1.584-1.4014.3173-2.6387.12-2.764-.44z"/><path d="m27.5495 84.956c-.1587-.544.82-1.308 2.188-1.704 1.364-.392 2.6-.2733 2.7573.2747.1573.5466-.8213 1.3066-2.1866 1.7026-1.3654.396-2.6014.2734-2.7587-.2733z"/><path d="m26.8655 81.2573c-.1893-.5306.736-1.3453 2.068-1.82 1.332-.4733 2.5653-.4266 2.7547.104.1893.5347-.7361 1.3494-2.0681 1.8227-1.332.4747-2.5666.428-2.7546-.1067z"/><path d="m25.9788 77.484c-.22-.5173.6534-1.388 1.9507-1.94 1.2987-.5547 2.532-.5827 2.752-.0627.2213.5187-.6533 1.3854-1.9507 1.94-1.2986.552-2.532.5814-2.752.0627z"/><path d="m24.8855 73.688c-.2533-.5053.568-1.428 1.832-2.0574 1.2653-.6333 2.4947-.7373 2.748-.232.252.5054-.568 1.4267-1.8333 2.06-1.2654.632-2.4947.7347-2.7467.2294z"/><path d="m23.5748 69.932c-.284-.492.484-1.468 1.7147-2.18 1.232-.7107 2.46-.888 2.7427-.3947.284.4893-.484 1.4653-1.7133 2.176-1.232.712-2.4601.888-2.7441.3987z"/><path d="m22.0388 66.268c-.3147-.476.3987-1.5053 1.5973-2.296 1.1974-.7893 2.424-1.0427 2.7387-.5627.3173.476-.3986 1.5054-1.5946 2.296-1.1974.7894-2.4241 1.0427-2.7414.5627z"/><path d="m20.2722 62.76c-.3467-.4627.3146-1.5467 1.4786-2.4134 1.1654-.8706 2.3894-1.1986 2.7374-.7346.3467.4666-.3147 1.5493-1.4787 2.416-1.164.8706-2.3893 1.1986-2.7373.732z"/><path d="m18.2668 59.464c-.3773-.4507.2294-1.5867 1.3601-2.5347 1.1306-.948 2.3533-1.3507 2.7333-.8987.3787.4507-.2307 1.5867-1.3613 2.5347-1.1307.948-2.3534 1.3507-2.7321.8987z"/><path d="m16.0135 56.4373c-.4107-.4373.1453-1.628 1.2426-2.6533 1.096-1.0294 2.3187-1.5054 2.7267-1.068.412.4373-.144 1.628-1.24 2.6533-1.0987 1.0267-2.32 1.5053-2.7293 1.068z"/><path d="m13.5055 53.7373c-.4427-.4253.06-1.6666 1.124-2.7733 1.0627-1.1067 2.2827-1.6587 2.7253-1.2347.4414.424-.0626 1.6667-1.1253 2.7734-1.064 1.1066-2.2827 1.6586-2.724 1.2346z"/></g><path d="m41.3748 78.6453h7.676v8.4947h-7.676z" fill="#3e4ca8"/><path d="m48.7202 79.0053h-7.3454v-7.7026z" fill="#ae8f42"/><path d="m48.9855 79.6586h-7.7413v6.3054h7.7413z" fill="#ae8f42"/><path d="m48.9855 86.5187h-7.6107v2.06l7.6107 4.604z" fill="#ae8f42"/><path d="m39.8908 70.568.296 17.872-6.3 3.56s-1.2386-14.8027-2.7346-17.4587c-1.496-2.6613 8.7386-3.9733 8.7386-3.9733z" fill="#302f36"/><path d="m39.7815 70.5133 1.8707.9267v18.292h-1.8707z" fill="#dee4f5"/><path d="m39.1788 69.812 1.8693.9306v18.288h-1.8693z" fill="#181419"/><path d="m26.9401 63.612c.6347 1.5987 1.7094 3.0827 2.5041 4.612 1.2933 2.492 2.216 5.1307 2.6387 7.8773.0386 0 .0759.0027.1146.0027 3.872 0 7.1813-2.3987 8.5333-5.7867-.2866-.3253-.5667-.6586-.924-.96-.6427-.5426-1.4-.9693-2.0706-1.4826-1.628-1.2467-2.8747-2.968-4.6947-3.948-1.3733-.7387-2.8333-1.2494-4.2933-1.7814-.628-.2266-1.264-.4546-1.916-.6066-.1973.032-.3947.0573-.5921.0866.24.6694.448 1.3507.7 1.9867z" fill="#181419"/><path d="m26.9401 63.612c.6347 1.5987 1.7094 3.0827 2.5041 4.612 1.1786 2.2733 2.0493 4.6667 2.516 7.1533.0773.0027.1573.0054.2373.0054 3.6933 0 6.832-2.3667 7.9893-5.6667-.1187-.1227-.2427-.2427-.38-.3587-.6427-.5426-1.4-.9693-2.0707-1.4826-1.628-1.2467-2.8746-2.968-4.6946-3.948-1.3733-.7387-2.8334-1.2494-4.2934-1.7814-.628-.2266-1.2639-.4546-1.9159-.6066-.1974.032-.3961.0573-.5921.0866.24.6694.448 1.3507.7 1.9867z" fill="#ae8f42"/><path d="m29.4442 68.224c.5186 1 .9746 2.024 1.3653 3.0653.4386.14.904.216 1.388.216 2.4853 0 4.504-1.9787 4.5773-4.4453-1.2-1.1067-2.284-2.3547-3.7333-3.1334-.872-.468-1.7813-.8453-2.7027-1.1946-1.1666.5173-2.076 1.508-2.4853 2.7293.5267.9267 1.1107 1.8387 1.5907 2.7627z" fill="#3e4ca8"/><path d="m58.1002 85-7.5147-4.336-.3814 13.992 7.8961 4.3493z" fill="#302f36"/><path d="m48.7201 79.864h1.8694v14.1626h-1.8694z" fill="#dee4f5"/><path d="m65.2508 103.26s-3.2333 1.816-6.5679 2.284l-.4027-20.2893s5.1173 1.8986 7.416 1.8106z" fill="#bcc7ea"/><path d="m65.2508 103.26 1.1654-.443v-15.6117h-1.1654z" fill="#675155"/><path d="m66.4162 102.817s1.724-.718 2.472-1.29v-14.1084h-2.472z" fill="#181419"/><path d="m68.8882 101.527s5.4053-1.9563 10.436-7.4177v-6.6907h-10.436z" fill="#302f36"/><path d="m49.4148 80.4946h1.8707v14.1614h-1.8707z" fill="#181419"/><path d="m57.5188 105.544h1.164v-19.904h-1.164z" fill="#675155"/><path d="m27.7615 61.2893c.7026 0 1.6173.1373 2.7666.572 3.804 1.444 8.456 5.412 13.828 11.8 6.468 7.6907 12.8267 10.748 17.0214 11.9587 4.5387 1.3093 9.6959 1.0653 9.7266 1.06l.2214 1.252c-.132.024-5.4174.3026-10.216-1.068-4.3867-1.2494-11.0227-4.4134-17.728-12.3854-12.0654-14.3453-16.6653-11.7359-16.7093-11.7079l-.7187-1.0467c.092-.0653.668-.4347 1.808-.4347z" fill="#9c6c3e"/><path d="m57.5188 99.8093s-15.5494-10.14-17.0174-10.14-5.8733 3.0853-5.8733 3.0853v-1.7933s5.3121-3.5427 6.0041-3.5427c.6893 0 16.8866 10.4961 16.8866 10.4961z" fill="#dee4f5"/><path d="m55.7802 104.669s-13.1414-9.661-15.0054-9.661-7.2733 4.8307-7.2733 4.8307z" fill="#ae8f42"/><path d="m57.5188 101.041s-15.5494-10.3143-17.0174-10.3143-5.8733 3.476-5.8733 3.476v-1.736s5.3121-3.436 6.0041-3.436c.6893 0 16.8866 10.1746 16.8866 10.1746z" fill="#ae8f42"/><path d="m35.0522 99.1253s.0359-16.4067-3.8014-27.2293c-3.836-10.82-13.4973-26.0387-16.3373-27.4227l-1.5693 1.5867s6.7973 5.604 16.5253 26.6333c2.532 10.408 2.6186 5.908 3.8426 27.116 1.2227 21.2097 1.3401-.684 1.3401-.684z" fill="#9c6c3e"/><path d="m79.3242 84.0933v-37.5386s-4.72-6.0161-14.188-6.9067c0 0-.176 38.024 14.188 44.4453z" fill="#302f36"/><path d="m51.6201 41.7106h-4.8292v8.8654h4.8292z" fill="#181419"/><path d="m61.3028 38.6507h-4.8306v8.8653h4.8306z" fill="#181419"/><path d="m46.7535 38.1907h-4.8293v8.864h4.8293z" fill="#a22735"/><path d="m56.4495 41.0813h-4.8294v8.864h4.8294z" fill="#a22735"/><path d="m42.0788 35.5186h-4.8307v8.864h4.8307z" fill="#181419"/><path d="m37.2121 35.3413h-4.8306v5.52h4.8306z" fill="#a22735"/><path d="m66.4282 39.792s-1.6907 24.836 12.896 44.3013c-.0187 1.716-.0253 2.5867-.0253 2.5867s-8.5867-4.0373-13.4707-21.0493c-4.8854-17.016-2.6707-25.8387-2.6707-25.8387z" fill="#181419"/><path d="m64.1962 40.3467s-.4467 16.3413 3.5866 26.132c4.032 9.7946 6.8414 16.472 11.5414 20.16v7.4706s-7.252-1.4733-17.596-27.248c-4.3454-14.432-3.5334-27.0546-3.5334-27.0546z" fill="#edebea"/><path d="m64.4415 39.9147c0 .612-1.2426 1.1093-2.776 1.1093-1.5346 0-2.7787-.4973-2.7787-1.1093 0-.6147 1.2441-1.1094 2.7787-1.1094 1.5334 0 2.776.4947 2.776 1.1094z" fill="#a22735"/><path d="m64.2375 42.3547c.0306.6013-1.1587 1.1506-2.6587 1.228-1.5013.0786-2.7427-.3427-2.7747-.9427-.032-.5987 1.1601-1.148 2.66-1.2253 1.5-.0814 2.7414.34 2.7734.94z" fill="#a22735"/><path d="m64.1948 45.164c.064.5853-1.0747 1.188-2.5414 1.3466-1.4653.1587-2.7066-.188-2.7706-.7733-.0627-.5867 1.076-1.1907 2.5413-1.3493 1.468-.1587 2.708.1906 2.7707.776z" fill="#a22735"/><path d="m64.3228 48.2813c.0933.5734-.9906 1.2294-2.424 1.4667-1.432.236-2.672-.0347-2.7666-.608-.0934-.572.9906-1.228 2.4239-1.4653 1.4334-.2374 2.672.0333 2.7667.6066z" fill="#a22735"/><path d="m64.6281 51.6507c.124.56-.9066 1.268-2.3053 1.584-1.4.3173-2.636.1199-2.7613-.4401-.128-.56.904-1.268 2.3026-1.584 1.4-.3173 2.6374-.1199 2.764.4401z" fill="#a22735"/><path d="m65.1188 55.2133c.1574.544-.82 1.308-2.1866 1.7027-1.3654.3933-2.6028.272-2.7588-.2734-.1586-.5466.8214-1.3066 2.1868-1.7026 1.3653-.396 2.6-.2733 2.7586.2733z" fill="#a22735"/><path d="m65.8041 58.9093c.188.5333-.7373 1.348-2.0693 1.8227-1.332.4733-2.5653.4266-2.756-.104-.188-.5347.7374-1.3493 2.0681-1.8227 1.3333-.4746 2.5666-.428 2.7572.104z" fill="#a22735"/><path d="m66.6895 62.6853c.22.5174-.6534 1.388-1.952 1.9427-1.2974.552-2.5307.5773-2.7507.0627-.2213-.5214.652-1.388 1.9507-1.9427 1.2986-.5533 2.532-.5813 2.752-.0627z" fill="#a22735"/><path d="m67.7828 66.4787c.252.508-.568 1.4306-1.8333 2.0626-1.264.6307-2.4933.7347-2.7467.2294-.252-.5054.568-1.4294 1.8334-2.06 1.2653-.632 2.4933-.7347 2.7466-.232z" fill="#a22735"/><path d="m69.0935 70.24c.284.4893-.484 1.4653-1.716 2.176-1.2293.712-2.4587.8893-2.7413.396-.284-.492.4839-1.4653 1.7146-2.176 1.2307-.712 2.4574-.8907 2.7427-.396z" fill="#a22735"/><path d="m70.6295 73.8986c.3147.4787-.4 1.508-1.5987 2.2987-1.196.7893-2.4226 1.0427-2.7373.5627-.3173-.4787.3986-1.5054 1.596-2.296 1.196-.7894 2.4227-1.0427 2.74-.5654z" fill="#a22735"/><path d="m72.3948 77.4093c.348.4627-.3146 1.5467-1.4786 2.416-1.164.868-2.3881 1.196-2.7347.7294-.348-.464.3146-1.544 1.4773-2.4147 1.1627-.8693 2.3893-1.1974 2.736-.7307z" fill="#a22735"/><path d="m74.4014 80.7053c.3787.4507-.2306 1.5867-1.3599 2.5347-1.1307.948-2.3534 1.3507-2.7334.8987-.3786-.4507.2307-1.5867 1.3614-2.5347 1.1306-.948 2.3533-1.352 2.7319-.8987z" fill="#a22735"/><path d="m76.6548 83.732c.4107.44-.1453 1.628-1.2413 2.6533-1.0974 1.0294-2.3187 1.5053-2.7294 1.068-.4093-.44.1467-1.628 1.2414-2.6533 1.0973-1.0267 2.32-1.5054 2.7293-1.068z" fill="#a22735"/><path d="m79.1629 86.432c.4426.428-.0614 1.6667-1.1241 2.7733-1.0626 1.1067-2.2813 1.6587-2.7253 1.2347-.4413-.424.0627-1.6667 1.1253-2.7734 1.0627-1.104 2.2827-1.656 2.7241-1.2346z" fill="#a22735"/><path d="m51.2935 61.524h-7.676v-8.496h7.676z" fill="#3e4ca8"/><path d="m43.9481 61.164h7.3454v7.7027z" fill="#ae8f42"/><path d="m43.6829 60.5106h7.7413v-6.3053h-7.7413z" fill="#ae8f42"/><path d="m43.6828 53.6507h7.6107v-2.0574l-7.6107-4.6066z" fill="#ae8f42"/><path d="m52.7775 69.6013-.296-17.872 6.3-3.56s1.2373 14.8027 2.7347 17.4613c1.496 2.656-8.7387 3.9707-8.7387 3.9707z" fill="#302f36"/><path d="m52.8868 69.656-1.872-.9267v-18.292h1.872z" fill="#dee4f5"/><path d="m53.4908 70.3573-1.8707-.928v-18.2933h1.8707z" fill="#181419"/><path d="m65.7282 76.5573c-.636-1.5986-1.7093-3.084-2.504-4.6147-1.2933-2.4893-2.216-5.1279-2.6387-7.8746-.0386 0-.076-.0027-.1147-.0027-3.872 0-7.1813 2.396-8.5333 5.7867.2866.3253.5667.6587.924.96.6427.5427 1.4.9693 2.0707 1.4827 1.628 1.2466 2.8733 2.9679 4.6947 3.9479 1.372.736 2.8319 1.2494 4.2933 1.7814.628.2253 1.264.4547 1.916.6067.1973-.032.3946-.06.592-.0867-.24-.6693-.448-1.3507-.7-1.9867z" fill="#181419"/><path d="m65.7282 76.5573c-.636-1.5986-1.7093-3.084-2.504-4.6147-1.1787-2.2706-2.0494-4.664-2.516-7.1506-.0787-.0027-.1574-.0053-.2374-.0053-3.6947 0-6.8333 2.3666-7.9893 5.6666.12.1227.2427.2413.38.3587.6427.5426 1.4.9693 2.0707 1.4826 1.628 1.2467 2.8733 2.968 4.6947 3.948 1.372.736 2.8319 1.2494 4.2933 1.7814.628.2253 1.264.4546 1.916.6066.1973-.032.3946-.06.592-.0866-.24-.6694-.448-1.3507-.7-1.9867z" fill="#ae8f42"/><path d="m63.2242 71.9426c-.52-.9973-.9747-2.0213-1.3654-3.0626-.44-.1373-.904-.216-1.388-.216-2.4867 0-4.504 1.9787-4.5786 4.448 1.2013 1.104 2.2867 2.352 3.7347 3.1306.872.468 1.7813.8454 2.7013 1.1974 1.1666-.5213 2.076-1.5107 2.4853-2.732-.5253-.9267-1.1093-1.8387-1.5893-2.7654z" fill="#3e4ca8"/><path d="m34.5681 55.1693 7.5147 4.336.3801-13.992-7.8948-4.3493z" fill="#302f36"/><path d="m43.9482 60.3053h-1.8694v-14.1627h1.8694z" fill="#dee4f5"/><path d="m27.4162 36.9093s3.2333-1.816 6.5679-2.2813l.4041 20.2867s-5.1187-1.896-7.4174-1.8107z" fill="#bcc7ea"/><path d="m27.4162 36.9093-1.164.44v15.6173h1.164z" fill="#675155"/><path d="m26.2522 37.3493s-1.724.7187-2.472 1.2933v14.1067h2.472z" fill="#181419"/><path d="m43.2522 59.6746h-1.8694v-14.1613h1.8694z" fill="#181419"/><path d="m35.1495 34.628h-1.1654v19.9h1.1654z" fill="#675155"/><path d="m64.9055 78.88c-.7013 0-1.616-.1373-2.7654-.5733-3.8053-1.4427-8.4559-5.4107-13.8293-11.796-6.4666-7.6934-12.8253-10.7507-17.0199-11.9614-4.5387-1.3093-9.4707-.7053-9.5014-.6973l-.2227-1.2533c.1334-.0227 5.192-.6614 9.992.7066 4.3854 1.2494 11.0227 4.4107 17.7267 12.3854 12.0653 14.3453 16.6654 11.7333 16.7107 11.708l.7186 1.0466c-.092.0654-.668.4347-1.8093.4347z" fill="#9c6c3e"/><path d="m35.1495 40.36s15.548 10.14 17.016 10.14c1.4694 0 5.8746-3.0853 5.8746-3.0853v1.7933s-5.3119 3.5413-6.0039 3.5413c-.6907 0-16.8867-10.4946-16.8867-10.4946z" fill="#dee4f5"/><path d="m36.8868 35.5s13.1414 9.6587 15.0067 9.6587c1.864 0 7.272-4.828 7.272-4.828z" fill="#ae8f42"/><path d="m35.1495 39.128s15.548 10.312 17.016 10.312c1.4694 0 5.8746-3.4733 5.8746-3.4733v1.736s-5.3119 3.4333-6.0039 3.4333c-.6907 0-16.8867-10.172-16.8867-10.172z" fill="#ae8f42"/><path d="m57.6162 41.044s-.036 16.4067 3.8 27.2293c3.8386 10.82 12.6133 25.8773 16.5533 27.216l1.3547-1.38c-3.4027-1.7213-14.46-18.4533-16.5253-26.6333-2.532-10.408-2.6187-5.908-3.8414-27.116-1.2253-21.2094-1.3413.684-1.3413.684z" fill="#9c6c3e"/><path d="m33.1481 121.869s.836-7.778 0-9.374c-.8346-1.594-2.428-5.123-2.428-5.123s3.4547 1.253 3.5294-2.315c.076-3.568-2.8454-3.377-3.9094-3.377-1.0627 0-4.1373 1.249-2.1253 6.184 2.012 4.936 2.3693 2.961 2.6853 6.529.3134 3.568 0 7.25 0 7.25z" fill="#dfdcda"/><path d="m32.0481 124.156s.8347-7.781 0-9.375c-.8346-1.593-2.428-5.122-2.428-5.122s3.4534 1.25 3.5294-2.318-2.8454-3.377-3.9094-3.377c-1.0627 0-4.1373 1.252-2.1253 6.187 2.0107 4.934 2.3694 2.961 2.684 6.529.3147 3.568 0 7.249 0 7.249z" fill="#edebea"/><path d="m30.5895 112.959s-5.9654-22.719 7.5786-22.719 11.936 17.336 7.7027 23.44c-4.232 6.104-15.2813-.721-15.2813-.721z" fill="#dfdcda"/><path d="m30.8842 122.427s-.9974-3.782-.3947-4.99c.604-1.208-.0093-3.284.1-4.478.1107-1.196 1.7387-3.243 5.284-.826 0 0 9.14-4.885 9.2187 1.416.0786 6.306-.368 9.664-.368 9.664s-11.0294 1.235-13.84-.786z" fill="#dee4f5"/><path d="m55.6681 125.219s-.836-7.782 0-9.375c.8347-1.595 2.4281-5.123 2.4281-5.123s-3.4547 1.251-3.5294-2.317c-.0773-3.568 2.8467-3.377 3.9093-3.377 1.0627 0 4.1374 1.252 2.1254 6.186-2.012 4.935-2.3693 2.962-2.6853 6.53-.3134 3.566 0 7.249 0 7.249z" fill="#5c5e65"/><path d="m54.6041 124.156s-.8346-7.781 0-9.375c.8347-1.593 2.4294-5.122 2.4294-5.122s-3.4534 1.25-3.5294-2.318c-.0773-3.568 2.8467-3.377 3.9094-3.377s4.1373 1.252 2.1253 6.187c-2.0106 4.934-2.3706 2.961-2.684 6.529-.3146 3.568 0 7.249 0 7.249z" fill="#747b7e"/><path d="m53.0481 123.055s-.8347-7.779 0-9.375c.8347-1.595 2.4294-5.123 2.4294-5.123s-3.4534 1.252-3.5294-2.314c-.0773-3.568 2.8467-3.379 3.9094-3.379s4.1373 1.251 2.1239 6.185c-2.0106 4.935-2.3692 2.962-2.6826 6.53-.3146 3.566 0 7.249 0 7.249z" fill="#8c9294"/><path d="m50.7855 122.713s-.836-7.781 0-9.374c.8347-1.594 2.428-5.126 2.428-5.126s-3.4547 1.256-3.5293-2.314c-.076-3.568 2.8453-3.378 3.9093-3.378 1.0627 0 4.1374 1.252 2.1254 6.187s-2.3694 2.961-2.6841 6.529c-.3133 3.568 0 7.25 0 7.25z" fill="#a7aaa9"/><path d="m48.5828 123.055s-.8333-7.779 0-9.375c.8347-1.595 2.4293-5.123 2.4293-5.123s-3.4533 1.252-3.5293-2.314c-.076-3.568 2.8453-3.379 3.9093-3.379 1.0627 0 4.136 1.251 2.1253 6.185-2.0106 4.935-2.3706 2.962-2.6839 6.53-.3134 3.566 0 7.249 0 7.249z" fill="#c2c2bf"/><path d="m46.3442 123.36s-.8347-7.781 0-9.376c.8346-1.593 2.4293-5.124 2.4293-5.124s-3.4547 1.252-3.5307-2.316 2.8467-3.377 3.9094-3.377c1.064 0 4.1386 1.252 2.1253 6.188-2.0107 4.932-2.3693 2.96-2.684 6.528-.3133 3.568 0 7.248 0 7.248z" fill="#dfdcda"/><path d="m44.3322 123.776s-.8347-7.779 0-9.375c.8346-1.594 2.4293-5.122 2.4293-5.122s-3.4547 1.252-3.5293-2.315c-.0774-3.571 2.8466-3.381 3.9093-3.381 1.0626 0 4.136 1.253 2.1253 6.188-2.012 4.934-2.3693 2.961-2.684 6.529-.3146 3.567 0 7.249 0 7.249z" fill="#edebea"/><path d="m35.8735 112.133s-3.6547-.321-4.9733-2.548c0 0 1.9373-1.869 4.7613-.476 0 0 3.2-1.224 6.1267-.372 0 0-2.0267 3.08-5.9147 3.396z" fill="#edebea"/><path d="m59.9415 133.052-4.4507.927-.8987-4.328c-1.1213.264-2.3066.477-3.524.652l.5041 4.124-4.7187.578-.5173-4.218c-1.344.09-2.6827.145-3.9814.177v4.328h-4.8186v-4.323c-1.46-.029-2.7787-.081-3.8774-.136l-.7306 4.342-5.1814-.872 1.7507-10.415.964.161.0107-.464 25.9146-.997.0454.409 1.3613-.284z" fill="#ae8f42"/><path d="m29.7989 122.125s13.3386 2.036 27.9813-1.422l.136 2.352s-18.356 4.286-28.492 1.101z" fill="#181419"/><path d="m34.4082 118.888s-.8854.359-1.8667.368c-.2413.015-.4947-.02-.724-.059-.2294-.065-.4253-.186-.588-.277-.2773-.289-.384-.503-.384-.503l.0306-.028s.2547.087.5214.239c.164.037.344.08.5253.16.2067.017.4121.108.6374.128.448.051.9119.039 1.2573.004.348-.025.58-.073.58-.073z" fill="#747b7e"/><path d="m38.2895 118.847s.232.048.5786.073c.3467.035.8107.047 1.2601-.004.2253-.02.4293-.111.6347-.128.184-.08.364-.123.528-.16.2666-.152.5199-.239.5199-.239l.032.028s-.1066.214-.384.503c-.1626.091-.3613.212-.5907.277-.2293.039-.4813.074-.7239.059-.98-.009-1.8654-.368-1.8654-.368z" fill="#747b7e"/><path d="m37.0455 117.249s.2026-.229.5933-.477c.1973-.109.4347-.253.7134-.333.2786-.086.5786-.176.8933-.183.3133-.052.6266-.045.916.021.2973.023.556.114.76.231.42.212.6613.4.6613.4l-.0173.039s-.32-.02-.7467-.116c-.2093-.072-.46-.094-.7253-.136-.264-.047-.544-.112-.8333-.099-.2894-.025-.572.028-.8414.08-.2666.049-.504.151-.7106.228-.404.18-.6334.377-.6334.377z" fill="#333558"/><path d="m34.2615 117.281s-.1707-.133-.464-.253c-.2947-.115-.696-.247-1.1053-.233-.2067-.006-.4027.021-.5907.054-.184.034-.364.019-.516.064-.304.048-.5467.034-.5467.034l-.0173-.039s.1654-.156.4694-.32c.1493-.091.344-.147.5613-.16.2133-.051.4453-.016.6706.028.2294.015.4414.109.6414.171.1946.08.3679.176.5039.269.2774.187.4228.353.4228.353z" fill="#333558"/><path d="m35.0575 117.939s.0427-.624-.0373-1.55c-.0414-.464-.1227-.997-.2573-1.556-.068-.278-.1814-.552-.2734-.834-.144-.268-.2907-.54-.436-.812-.0813-.112-.132-.328-.1373-.536.0227-.203.1-.383.2253-.531.252-.279.58-.405.8867-.483.312-.06.6186-.096.9066-.041.284.045.5534.124.7734.26.2226.117.4053.291.5093.471.1333.164.1573.352.1973.488.0173.288.0027.442.0027.442h-.0414s-.0266-.158-.1039-.402c-.0707-.112-.116-.262-.2467-.38-.1053-.134-.2786-.236-.4706-.319-.1867-.093-.4214-.137-.6654-.153-.2453-.016-.5053-.008-.7653.046-.2573.063-.5054.176-.6841.339-.176.191-.2119.365-.0786.655.1347.284.2693.568.4.846.0827.304.1853.598.2426.888.112.584.156 1.134.164 1.603.0174.941-.0692 1.561-.0692 1.561z" fill="#333558"/><path d="m59.5189 18.2547s-.8347 7.7813 0 9.3786c.836 1.5934 2.4293 5.1214 2.4293 5.1214s-3.4547-1.252-3.5307 2.3186c-.0747 3.5654 2.8467 3.3774 3.9094 3.3774 1.064 0 4.1386-1.2534 2.1266-6.188-2.012-4.9347-2.3707-2.96-2.684-6.528-.3147-3.568 0-7.2507 0-7.2507z" fill="#dfdcda"/><path d="m60.6201 15.972s-.8346 7.78 0 9.3746c.8347 1.5934 2.428 5.1254 2.428 5.1254s-3.4546-1.2534-3.5293 2.3146c-.076 3.568 2.8454 3.3774 3.9094 3.3774 1.0626 0 4.1373-1.252 2.1253-6.188-2.012-4.9347-2.3694-2.96-2.6854-6.528-.3133-3.568 0-7.2507 0-7.2507z" fill="#edebea"/><path d="m62.0775 27.1693s5.9667 22.7187-7.5773 22.7187-11.936-17.336-7.704-23.44 15.2813.7213 15.2813.7213z" fill="#dfdcda"/><path d="m61.7841 17.7s.9974 3.784.3934 4.9907c-.604 1.208.0107 3.2826-.1 4.4786-.1093 1.192-1.7373 3.2427-5.2827.8253 0 0-9.14 4.8854-9.2187-1.4159-.0786-6.3027.3681-9.664.3681-9.664s11.0293-1.2347 13.8399.7853z" fill="#dee4f5"/><path d="m37.0015 14.9093s.8346 7.7813 0 9.3747c-.836 1.5933-2.4307 5.1226-2.4307 5.1226s3.4547-1.2533 3.5307 2.3174c.076 3.568-2.848 3.3773-3.9094 3.3773-1.0626 0-4.1373-1.252-2.1253-6.1867 2.012-4.936 2.3694-2.9613 2.6827-6.5293.3147-3.568 0-7.2493 0-7.2493z" fill="#5c5e65"/><path d="m38.0641 15.972s.8347 7.78 0 9.3746c-.836 1.5934-2.4293 5.1254-2.4293 5.1254s3.4533-1.2534 3.5293 2.3146-2.8466 3.3774-3.9106 3.3774c-1.0614 0-4.136-1.252-2.124-6.188 2.0107-4.9347 2.3706-2.96 2.684-6.528.3146-3.568 0-7.2507 0-7.2507z" fill="#747b7e"/><path d="m39.6201 17.0733s.8347 7.7814 0 9.3747c-.836 1.5933-2.4293 5.1227-2.4293 5.1227s3.4533-1.2534 3.5293 2.3146-2.8466 3.38-3.9093 3.38c-1.0613 0-4.1373-1.252-2.1253-6.1866 2.0107-4.936 2.3706-2.9614 2.684-6.5294.3146-3.568 0-7.2493 0-7.2493z" fill="#8c9294"/><path d="m41.8828 17.4146s.8347 7.78 0 9.3747c-.8347 1.5933-2.428 5.1253-2.428 5.1253s3.4533-1.256 3.5293 2.3147c.076 3.568-2.8453 3.3773-3.9093 3.3773-1.0627 0-4.1373-1.252-2.1253-6.188 2.012-4.9346 2.3693-2.9599 2.684-6.5279.3146-3.568 0-7.2507 0-7.2507z" fill="#a7aaa9"/><path d="m44.0841 17.0733s.8347 7.7814 0 9.3747c-.8346 1.5933-2.428 5.1227-2.428 5.1227s3.4534-1.2534 3.5294 2.3146-2.8467 3.38-3.9094 3.38c-1.064 0-4.1373-1.252-2.1253-6.1866 2.012-4.936 2.3706-2.9614 2.684-6.5294.3133-3.568 0-7.2493 0-7.2493z" fill="#c2c2bf"/><path d="m46.3242 16.768s.8347 7.7813 0 9.3746c-.836 1.5947-2.4294 5.1254-2.4294 5.1254s3.4547-1.252 3.5294 2.3146c.0773 3.568-2.8454 3.3787-3.9094 3.3787-1.0627 0-4.1373-1.2533-2.1253-6.188 2.012-4.932 2.3707-2.9613 2.6853-6.528.3134-3.568 0-7.248 0-7.248z" fill="#dfdcda"/><path d="m48.3361 16.352s.8347 7.7813 0 9.3746c-.8346 1.5934-2.4293 5.1227-2.4293 5.1227s3.4547-1.2506 3.5293 2.3147c.076 3.568-2.8466 3.3773-3.908 3.3773-1.064 0-4.1387-1.2493-2.1267-6.184 2.012-4.936 2.3708-2.9613 2.6841-6.5293.3147-3.568 0-7.2494 0-7.2494z" fill="#edebea"/><path d="m56.7948 27.9947s3.6547.32 4.9747 2.5466c0 0-1.9387 1.8707-4.7627.4774 0 0-3.2 1.224-6.1266.372 0 0 2.0266-3.0814 5.9146-3.396z" fill="#edebea"/><path d="m32.7268 7.07599 4.4493-.92533.9 4.32534c1.1214-.2627 2.3054-.47601 3.5241-.65068l-.5054-4.12532 4.72-.57733.5174 4.21867c1.344-.092 2.6826-.14668 3.9813-.17735v-4.32799h4.8187v4.32265c1.46.02934 2.7786.08134 3.8773.13601l.7293-4.34133 5.1827.87199-1.7507 10.41468-.964-.164-.012.4627-25.9133 1-.0453-.408-1.3614.284z" fill="#ae8f42"/><path d="m62.8681 18.0027s-13.336-2.036-27.9813 1.4186l-.1373-2.348s18.3587-4.2866 28.4947-1.1013z" fill="#181419"/><path d="m58.2588 21.24s.8854-.3587 1.8667-.3693c.2413-.0134.4947.0213.724.0586.2293.0667.4267.188.5893.2774.2774.2906.384.5026.384.5026l-.0306.0294s-.2547-.0881-.5214-.2387c-.164-.0374-.344-.0813-.5266-.16-.2054-.0173-.4107-.108-.636-.1294-.4494-.0493-.9134-.0373-1.2587-.0039-.348.0266-.58.0746-.58.0746z" fill="#747b7e"/><path d="m54.3788 21.2813s-.232-.048-.5787-.0746c-.3466-.0334-.8107-.0454-1.26.0039-.2253.0214-.4306.1121-.6346.1294-.184.0787-.364.1226-.528.16-.2667.1506-.52.2387-.52.2387l-.032-.0294s.1066-.212.384-.5026c.1626-.0894.3613-.2107.5906-.2774.228-.0373.4814-.072.7241-.0586.98.0106 1.8653.3693 1.8653.3693z" fill="#747b7e"/><path d="m55.6228 22.8773s-.2026.2307-.5933.4787c-.1973.1093-.4347.2533-.7133.3333-.2787.0854-.5787.1747-.8934.1814-.3133.052-.6267.0453-.916-.02-.2973-.0227-.556-.1134-.76-.2307-.42-.212-.6627-.4-.6627-.4l.0187-.0387s.32.0187.7467.1174c.2093.0693.46.092.7253.1333.264.048.544.1133.8334.0986.2893.0267.572-.0266.8413-.0786.2667-.0493.504-.1507.7107-.228.404-.1813.6333-.3774.6333-.3774z" fill="#333558"/><path d="m58.4055 22.8466s.1706.1321.464.2534c.2946.1147.6973.2467 1.1066.2333.2054.0067.4027-.0227.5894-.0547.184-.0333.3653-.0199.516-.0639.3053-.048.548-.0334.548-.0334l.0173.0387s-.1653.1547-.4707.3187c-.148.092-.3426.148-.5599.16-.2134.0506-.4454.0173-.672-.0267-.228-.0147-.4414-.1093-.6414-.1707-.1947-.0813-.368-.176-.504-.2693-.2773-.1867-.4227-.3547-.4227-.3547z" fill="#333558"/><path d="m57.6108 22.1893s-.0427.6227.0373 1.5493c.04.4627.1213.9974.256 1.556.068.2774.1814.5507.2734.8347.144.268.2907.54.436.812.0813.1107.132.3267.1373.5333-.0227.204-.0986.3854-.224.532-.252.28-.5813.4054-.888.4827-.3107.06-.6187.0947-.9053.04-.284-.0453-.5533-.1213-.7733-.2587-.2227-.1186-.4054-.292-.5094-.4693-.1333-.164-.1587-.352-.1973-.4893-.0187-.2867-.004-.4427-.004-.4427h.0413s.0267.1587.104.404c.0707.112.1173.26.248.3773.1053.1347.2787.2374.4707.32.1867.0947.4213.1387.6653.1534.2453.0146.5054.008.7654-.0454.2573-.0626.5053-.176.6839-.3386.1747-.1907.212-.3667.0774-.656-.1347-.2827-.2694-.5667-.4-.8467-.0827-.304-.1853-.5973-.2427-.888-.112-.584-.1546-1.1333-.164-1.6027-.0173-.9413.0707-1.56.0707-1.56z" fill="#333558"/></svg>