<svg fill="none" height="140" viewBox="0 0 93 140" width="93" xmlns="http://www.w3.org/2000/svg"><path d="m.713437 4.66528c0-2.004 1.621103-3.62806 3.621543-3.62806h84.75552c2.0005 0 3.6229 1.62406 3.6229 3.62806v130.98972c0 2.004-1.6224 3.626-3.6229 3.626h-84.75552c-2.00044 0-3.621543-1.622-3.621543-3.626z" fill="#fff"/><path d="m57.6174 101.56c0-3.1227 2.804-4.8721 5.544-4.4641 1.4147.212 2.456 1.0787 3.3 2.1254.7974.9837.9974.3493.888-.2947-.508-2.98-1.8667-4.6707-4.3933-5.4627-.2534-.0813-1.3173-.3214-.3467-.3214h10.068c.9694 0-.0933.2401-.3426.3214-2.528.792-3.8854 2.4827-4.3934 5.4627-.1093.644.0867 1.2784.8854.2947.8466-1.0467 1.8853-1.9134 3.3013-2.1254 2.736-.4053 5.5453 1.3414 5.5453 4.4641v.003c0 2.244-1.8106 4.736-4.1693 4.564-.1627-.014-1.28-.252-1.6267.086-.504.491.2.854.2507 1.968v.003c.076 2.657-1.7493 4.077-3.788 4.335v-.003c0 .003-.4427.057-.6427.057-.3626.004-.6506-.05-.7493-.057v.003c-2.0373-.258-3.8653-1.68-3.7867-4.335v-.003c.052-1.114.752-1.477.2507-1.968-.3453-.338-1.4667-.096-1.6254-.086-2.36.172-4.1693-2.32-4.1693-4.564z" fill="#302f36"/><path d="m67.6668 112.573h.0306c.2 0 .6427-.054.6427-.057v.003c2.0387-.258 3.864-1.678 3.788-4.335v-.003c-.0507-1.114-.7547-1.477-.2507-1.968.3467-.338 1.464-.1 1.6267-.086 2.3587.172 4.1693-2.32 4.1693-4.564v-.003c0-3.1227-2.8093-4.8694-5.5453-4.4641-1.416.212-2.4547 1.08-3.3013 2.1254-.7987.9837-.9947.3493-.8854-.2947.508-2.98 1.8654-4.6707 4.3934-5.4627.2493-.0813 1.312-.3214.3426-.3214h-5.0106z" fill="#46464e"/><path d="m15.6748 101.56c0-3.1227 2.8053-4.8721 5.5453-4.4641 1.4133.212 2.456 1.0787 3.2987 2.1254.7986.9837.9986.3493.888-.2947-.5067-2.98-1.8654-4.6707-4.392-5.4627-.2547-.0813-1.3174-.3214-.3467-.3214h10.0667c.9706 0-.0934.2401-.3427.3214-2.528.792-3.884 2.4827-4.3933 5.4627-.108.644.0866 1.2784.8853.2947.848-1.0467 1.8853-1.9134 3.3027-2.1254 2.736-.4053 5.544 1.3414 5.544 4.4641v.003c0 2.244-1.8107 4.736-4.1694 4.564-.1613-.014-1.2786-.252-1.6266.086-.5027.491.2013.854.252 1.968v.003c.0746 2.657-1.7494 4.077-3.7894 4.335v-.003c0 .003-.4426.057-.6413.057-.3627.004-.652-.05-.7507-.057v.003c-2.036-.258-3.8653-1.68-3.7853-4.335v-.003c.0507-1.114.752-1.477.2507-1.968-.3467-.338-1.468-.096-1.6254-.086-2.36.172-4.1706-2.32-4.1706-4.564z" fill="#302f36"/><path d="m25.7254 112.573h.0307c.1987 0 .6413-.054.6413-.057v.003c2.04-.258 3.864-1.678 3.7894-4.335v-.003c-.0507-1.114-.7547-1.477-.252-1.968.348-.338 1.4653-.1 1.6266-.086 2.3587.172 4.1694-2.32 4.1694-4.564v-.003c0-3.1227-2.808-4.8694-5.544-4.4641-1.4174.212-2.4547 1.08-3.3027 2.1254-.7987.9837-.9933.3493-.8853-.2947.5093-2.98 1.8653-4.6707 4.3933-5.4627.2493-.0813 1.3133-.3214.3427-.3214h-5.0094z" fill="#46464e"/><path d="m57.6174 68.8612c0-3.124 2.804-4.8719 5.544-4.4653 1.4147.2134 2.456 1.0813 3.3 2.1267.7974.984.9974.3507.888-.296-.508-2.9787-1.8667-4.6694-4.3933-5.46-.2534-.084-1.3173-.3227-.3467-.3227h10.068c.9694 0-.0933.2387-.3426.3227-2.528.7906-3.8854 2.4813-4.3934 5.46-.1093.6467.0867 1.28.8854.296.8466-1.0454 1.8853-1.9133 3.3013-2.1267 2.736-.4026 5.5453 1.3413 5.5453 4.4653v.0041c0 2.2426-1.8106 4.736-4.1693 4.564-.1627-.0134-1.28-.2547-1.6267.0853-.504.4893.2.8533.2507 1.968v.004c.076 2.6573-1.7493 4.076-3.788 4.3347v-.0041c0 .004-.4427.0587-.6427.0587-.3626.0027-.6506-.052-.7493-.0587v.0041c-2.0373-.2587-3.8653-1.6814-3.7867-4.3347v-.004c.052-1.1147.752-1.4787.2507-1.968-.3453-.34-1.4667-.096-1.6254-.0853-2.36.172-4.1693-2.3214-4.1693-4.564z" fill="#302f36"/><path d="m67.6668 79.8759h.0306c.2 0 .6427-.0547.6427-.0587v.0041c2.0387-.2587 3.864-1.6774 3.788-4.3347v-.004c-.0507-1.1147-.7547-1.4787-.2507-1.968.3467-.34 1.464-.0987 1.6267-.0853 2.3587.172 4.1693-2.3214 4.1693-4.564v-.0041c0-3.124-2.8093-4.8679-5.5453-4.4653-1.416.2147-2.4547 1.0813-3.3013 2.1267-.7987.984-.9947.3507-.8854-.296.508-2.9787 1.8654-4.6694 4.3934-5.46.2493-.084 1.312-.3227.3426-.3227h-5.0106z" fill="#46464e"/><path d="m15.6748 68.8612c0-3.124 2.8053-4.8719 5.5453-4.4653 1.4133.2134 2.456 1.0813 3.2987 2.1267.7986.984.9986.3507.888-.296-.5067-2.9787-1.8654-4.6694-4.392-5.46-.2547-.084-1.3174-.3227-.3467-.3227h10.0667c.9706 0-.0934.2387-.3427.3227-2.528.7906-3.884 2.4813-4.3933 5.46-.108.6467.0866 1.28.8853.296.848-1.0454 1.8853-1.9133 3.3027-2.1267 2.736-.4026 5.544 1.3413 5.544 4.4653v.0041c0 2.2426-1.8107 4.736-4.1694 4.564-.1613-.0134-1.2786-.2547-1.6266.0853-.5027.4893.2013.8533.252 1.968v.004c.0746 2.6573-1.7494 4.076-3.7894 4.3347v-.0041c0 .004-.4426.0587-.6413.0587-.3627.0027-.652-.052-.7507-.0587v.0041c-2.036-.2587-3.8653-1.6814-3.7853-4.3347v-.004c.0507-1.1147.752-1.4787.2507-1.968-.3467-.34-1.468-.096-1.6254-.0853-2.36.172-4.1706-2.3214-4.1706-4.564z" fill="#302f36"/><path d="m25.7254 79.8759h.0307c.1987 0 .6413-.0547.6413-.0587v.0041c2.04-.2587 3.864-1.6774 3.7894-4.3347v-.004c-.0507-1.1147-.7547-1.4787-.252-1.968.348-.34 1.4653-.0987 1.6266-.0853 2.3587.172 4.1694-2.3214 4.1694-4.564v-.0041c0-3.124-2.808-4.8679-5.544-4.4653-1.4174.2147-2.4547 1.0813-3.3027 2.1267-.7987.984-.9933.3507-.8853-.296.5093-2.9787 1.8653-4.6694 4.3933-5.46.2493-.084 1.3133-.3227.3427-.3227h-5.0094z" fill="#46464e"/><path d="m57.6174 36.1639c0-3.124 2.804-4.8733 5.544-4.4653 1.4147.212 2.456 1.0787 3.3 2.1253.7974.984.9974.3494.888-.2946-.508-2.9787-1.8667-4.6694-4.3933-5.4627-.2534-.0814-1.3173-.3214-.3467-.3214h10.068c.9694 0-.0933.24-.3426.3214-2.528.7933-3.8854 2.484-4.3934 5.4627-.1093.644.0867 1.2786.8854.2946.8466-1.0466 1.8853-1.9133 3.3013-2.1253 2.736-.4053 5.5453 1.3413 5.5453 4.4653v.0027c0 2.2426-1.8106 4.7347-4.1693 4.5627-.1627-.012-1.28-.252-1.6267.0866-.504.4907.2.8533.2507 1.968v.0027c.076 2.6573-1.7493 4.0773-3.788 4.3347v-.0027c0 .0027-.4427.0573-.6427.0573-.3626.004-.6506-.0506-.7493-.0573v.0027c-2.0373-.2574-3.8653-1.6787-3.7867-4.3347v-.0027c.052-1.1147.752-1.4773.2507-1.968-.3453-.3386-1.4667-.0946-1.6254-.0866-2.36.172-4.1693-2.3201-4.1693-4.5627z" fill="#302f36"/><path d="m67.6668 47.1759c.0106 0 .0226.0013.0306 0 .2 0 .6427-.0546.6427-.0573v.0027c2.0387-.2574 3.864-1.6761 3.788-4.3347v-.0027c-.0507-1.1147-.7547-1.4773-.2507-1.968.3467-.3386 1.464-.0986 1.6267-.0866 2.3587.172 4.1693-2.3201 4.1693-4.5627v-.0027c0-3.124-2.8093-4.8706-5.5453-4.4653-1.416.212-2.4547 1.08-3.3013 2.1253-.7987.984-.9947.3494-.8854-.2946.508-2.9787 1.8654-4.6694 4.3934-5.4627.2493-.0814 1.312-.3214.3426-.3214h-5.0106z" fill="#46464e"/><path d="m15.6748 36.1639c0-3.124 2.8053-4.8733 5.5453-4.4653 1.4133.212 2.456 1.0787 3.2987 2.1253.7986.984.9986.3494.888-.2946-.5067-2.9787-1.8654-4.6694-4.392-5.4627-.2547-.0814-1.3174-.3214-.3467-.3214h10.0667c.9706 0-.0934.24-.3427.3214-2.528.7933-3.884 2.484-4.3933 5.4627-.108.644.0866 1.2786.8853.2946.848-1.0466 1.8853-1.9133 3.3027-2.1253 2.736-.4053 5.544 1.3413 5.544 4.4653v.0027c0 2.2426-1.8107 4.7347-4.1694 4.5627-.1613-.012-1.2786-.252-1.6266.0866-.5027.4907.2013.8533.252 1.968v.0027c.0746 2.6573-1.7494 4.0773-3.7894 4.3347v-.0027c0 .0027-.4426.0573-.6413.0573-.3627.004-.652-.0506-.7507-.0573v.0027c-2.036-.2574-3.8653-1.6787-3.7853-4.3347v-.0027c.0507-1.1147.752-1.4773.2507-1.968-.3467-.3386-1.468-.0946-1.6254-.0866-2.36.172-4.1706-2.3201-4.1706-4.5627z" fill="#302f36"/><path d="m25.7254 47.1759c.0107 0 .0214.0013.0307 0 .1987 0 .6413-.0546.6413-.0573v.0027c2.04-.2574 3.864-1.6761 3.7894-4.3347v-.0027c-.0507-1.1147-.7547-1.4773-.252-1.968.348-.3386 1.4653-.0986 1.6266-.0866 2.3587.172 4.1694-2.3201 4.1694-4.5627v-.0027c0-3.124-2.808-4.8706-5.544-4.4653-1.4174.212-2.4547 1.08-3.3027 2.1253-.7987.984-.9933.3494-.8853-.2946.5093-2.9787 1.8653-4.6694 4.3933-5.4627.2493-.0814 1.3133-.3214.3427-.3214h-5.0094z" fill="#46464e"/><path d="m15.6094 23.3852c0 1.6174-1.4533 2.5227-2.872 2.312-.732-.1106-1.272-.5599-1.7093-1.1013-.4133-.5093-.516-.1814-.46.152.2627 1.544.9667 2.4187 2.276 2.8293.1307.0427.6813.168.18.168h-5.21599c-.50267 0 .04931-.1253.17731-.168 1.31066-.4106 2.01334-1.2853 2.27598-2.8293.056-.3334-.0453-.6613-.45863-.152-.44.5414-.97601.9907-1.71068 1.1013-1.41733.2094-2.872-.6946-2.872-2.312v-.0013c0-1.1614.93869-2.4533 2.16002-2.3653.084.008.66264.132.84264-.044.26-.2534-.10266-.4427-.13066-1.02v-.0014c-.03867-1.376.90666-2.112 1.96271-2.244v.0014c0-.0014.2293-.0307.332-.0307.1893-.0027.3373.0267.3893.0307v-.0014c1.0547.132 2.0013.8693 1.9613 2.244v.0014c-.0266.5773-.3893.7666-.1293 1.02.1787.176.7587.0493.8413.044 1.2227-.088 2.16 1.2039 2.16 2.3653z" fill="#302f36"/><path d="m10.4041 17.6799c-.0053 0-.0107 0-.0174 0-.1026 0-.332.0293-.332.0307v-.0014c-1.05596.132-2.00129.868-1.96262 2.244v.0014c.028.5773.39066.7666.13066 1.02-.18.176-.75864.052-.84264.044-1.22134-.088-2.16003 1.204-2.16003 2.3653v.0014c0 1.6173 1.45467 2.5213 2.87201 2.3119.73466-.1106 1.27067-.5599 1.71067-1.1013.41335-.5093.51465-.1813.45865.152-.26266 1.544-.96533 2.4187-2.276 2.8293-.128.0427-.67998.168-.17731.168h2.59601z" fill="#46464e"/><path d="m77.6534 116.935c0-1.619 1.452-2.524 2.872-2.314.7307.111 1.2707.56 1.708 1.102.4134.509.516.181.4614-.154-.264-1.542-.9667-2.417-2.2774-2.829-.1307-.041-.6813-.167-.1786-.167h5.2146c.5027 0-.048.126-.1773.167-1.308.412-2.0133 1.287-2.276 2.829-.056.335.044.663.4587.154.4386-.542.976-.991 1.7106-1.102 1.416-.209 2.872.695 2.872 2.314v.001c0 1.161-.9373 2.453-2.16 2.364-.084-.008-.6626-.132-.8426.044-.26.255.104.443.1306 1.02v.001c.0387 1.376-.9066 2.112-1.9626 2.246v-.002c0 .002-.2307.03-.332.03-.188.002-.3387-.027-.3894-.03v.002c-1.0547-.134-2.0026-.871-1.96-2.246v-.001c.0267-.577.3893-.765.1293-1.02-.18-.176-.7599-.049-.8426-.044-1.2213.089-2.1587-1.203-2.1587-2.364z" fill="#302f36"/><path d="m82.8588 122.639h.016c.1013 0 .332-.028.332-.03v.002c1.056-.134 2.0013-.87 1.9626-2.246v-.001c-.0266-.577-.3906-.765-.1306-1.02.18-.176.7586-.052.8426-.044 1.2227.089 2.16-1.203 2.16-2.364v-.001c0-1.619-1.456-2.523-2.872-2.314-.7346.111-1.272.56-1.7106 1.102-.4147.509-.5147.181-.4587-.154.2627-1.542.968-2.417 2.276-2.829.1293-.041.68-.167.1773-.167h-2.5946z" fill="#46464e"/><g fill="#302f36"><path d="m80.5547 136.856v-1.113h.241c1.0205-.019 1.8332-.321 2.4379-.907.6048-.586.9544-1.41 1.0489-2.473-.5433.623-1.2851.935-2.2253.935-.8977 0-1.6135-.317-2.1474-.95-.5386-.633-.8079-1.45-.8079-2.452 0-1.063.2906-1.913.8717-2.551.5764-.638 1.3513-.957 2.3245-.957.9875 0 1.7883.378 2.4025 1.134.6142.761.9213 1.739.9213 2.934v.503c0 1.9-.4039 3.35-1.2118 4.352-.8127 1.006-2.0198 1.521-3.6215 1.545zm1.7222-4.649c.4488 0 .8622-.135 1.2402-.404.378-.27.6402-.607.7867-1.014v-.482c0-.85-.1914-1.535-.5741-2.055s-.8599-.779-1.4316-.779c-.5905 0-1.0536.217-1.389.652-.3402.434-.5103 1.004-.5103 1.708 0 .708.1725 1.28.5174 1.715.3402.439.7937.659 1.3607.659z"/><path d="m12.7081 3.46403v1.11265h-.241c-1.0205.0189-1.8331.32128-2.4379.90713-.60475.58586-.95437 1.41031-1.04887 2.47336.54334-.62365 1.28507-.93548 2.22527-.93548.8977 0 1.6135.31655 2.1474.94965.5386.63311.8079 1.45047.8079 2.45206 0 1.0631-.2906 1.9135-.8717 2.5514-.5764.6378-1.3512.9567-2.3245.9567-.98747 0-1.78829-.378-2.4025-1.1339-.6142-.7607-.92131-1.7387-.92131-2.93403v-.50318c0-1.89931.40396-3.34978 1.21188-4.3514.81264-1.00635 2.01983-1.52134 3.62143-1.54496zm-1.7222 4.64905c-.4488 0-.8622.13466-1.24017.40396-.37798.26931-.64019.60712-.78666 1.01344v.48192c0 .8504.19135 1.5355.57405 2.0552.38269.5197.85988.7796 1.43158.7796.5906 0 1.0536-.2173 1.389-.652.3402-.4347.5103-1.004.5103-1.708 0-.70868-.1725-1.28036-.5174-1.71503-.3401-.43939-.7937-.65909-1.3607-.65909z"/></g></svg>