<svg fill="none" height="140" viewBox="0 0 93 140" width="93" xmlns="http://www.w3.org/2000/svg"><path d="m.713437 4.41327c0-2.004 1.621103-3.629365 3.621543-3.629365h84.75552c2.0005 0 3.6229 1.625365 3.6229 3.629365v130.98773c0 2.006-1.6224 3.63-3.6229 3.63h-84.75552c-2.00044 0-3.621543-1.624-3.621543-3.63z" fill="#fff"/><g fill="#302f36"><path d="m78.9389 126.278h6.761v.943l-3.5718 3.968c-.5292.6-.893 1.087-1.0914 1.46-.2032.378-.3048.768-.3048 1.17 0 .538.163.98.489 1.325s.7607.517 1.304.517c.652 0 1.1599-.186 1.5237-.56.3591-.368.5386-.883.5386-1.545h1.3111c0 .95-.3047 1.718-.9142 2.304-.6142.586-1.4339.878-2.4592.878-.9591 0-1.7174-.252-2.2749-.758-.5575-.501-.8363-1.169-.8363-2.005 0-1.016.6473-2.226 1.9419-3.629l2.7639-2.998h-5.1806z"/><path d="m14.3239 13.5365h-6.76096v-.9426l3.57186-3.96872c.5291-.60003.8929-1.08667 1.0914-1.45992.2031-.37797.3047-.76775.3047-1.16935 0-.53861-.163-.98036-.489-1.32526s-.7607-.51735-1.304-.51735c-.652 0-1.1599.18662-1.5237.55987-.35907.36852-.53861.88351-.53861 1.54496h-1.31109c0-.94965.30474-1.71741.91422-2.30327.61421-.58585 1.43393-.87878 2.45918-.87878.9591 0 1.7174.25277 2.2749.7583.5575.50082.8363 1.16936.8363 2.00562 0 1.0158-.6473 2.22531-1.9418 3.62853l-2.76397 2.99777h5.18057z"/><path d="m15.6654 23.1333c0 1.6186-1.452 2.5239-2.8706 2.3119-.732-.1106-1.272-.5586-1.7094-1.1013-.4133-.5093-.5173-.1799-.46.1547.2627 1.5427.9654 2.4173 2.276 2.8293.1294.0414.6814.1667.1787.1667h-5.21467c-.50267 0 .04934-.1253.17734-.1667 1.30934-.412 2.01193-1.2866 2.27463-2.8293.0573-.3346-.044-.664-.45731-.1547-.44.5427-.97598.9907-1.71064 1.1013-1.41734.2107-2.87201-.6933-2.87201-2.3119v-.0013c0-1.1614.93866-2.4534 2.16-2.3641.084.008.66267.1307.84267-.0453.26-.2534-.10266-.4427-.13066-1.0187v-.0013c-.03867-1.376.90666-2.112 1.96265-2.2453v.0013c0-.0013.2293-.0293.332-.0293.1893-.0027.3373.0253.3893.0293v-.0013c1.0547.1333 2.0014.8706 1.9614 2.2453v.0013c-.028.576-.3894.7653-.1307 1.0187.18.176.76.0506.8427.0453 1.2213-.0893 2.1586 1.2027 2.1586 2.3641z"/></g><path d="m10.4614 17.4293c-.0066 0-.0106 0-.0173 0-.1026 0-.332.028-.332.0293v-.0013c-1.05597.1333-2.0013.8693-1.96264 2.2453v.0013c.028.576.39067.7654.13067 1.0187-.18.176-.75868.0533-.84268.0453-1.22133-.0893-2.15999 1.2027-2.15999 2.3641v.0013c0 1.6186 1.45467 2.5226 2.872 2.3119.73467-.1106 1.27065-.5586 1.71065-1.1013.41329-.5093.51469-.1799.45729.1547-.2626 1.5427-.96528 2.4173-2.27461 2.8293-.128.0414-.68001.1667-.17734.1667h2.59595z" fill="#46464e"/><path d="m77.7094 116.683c0-1.619 1.4534-2.523 2.8734-2.312.7306.11 1.2706.56 1.708 1.101.4133.509.516.181.4586-.153-.2626-1.543-.9653-2.419-2.2746-2.83-.1307-.041-.6814-.166-.1787-.166h5.2147c.5026 0-.048.125-.1774.166-1.3093.411-2.0133 1.287-2.276 2.83-.0573.334.044.662.4587.153.4387-.541.976-.991 1.7107-1.101 1.416-.21 2.8706.693 2.8706 2.312v.001c0 1.161-.9373 2.453-2.1586 2.365-.084-.008-.6627-.132-.8427.044-.26.254.1027.443.1307 1.019v.003c.0386 1.376-.9067 2.112-1.964 2.244v-.002c0 .002-.2294.031-.3307.031-.188.003-.3387-.027-.3893-.031v.002c-1.056-.132-2.0027-.87-1.96-2.244v-.003c.0266-.576.3893-.765.128-1.019-.1787-.176-.76-.049-.8414-.044-1.2213.088-2.16-1.204-2.16-2.365z" fill="#302f36"/><path d="m82.9161 122.388h.016c.1013 0 .3307-.029.3307-.031v.002c1.0573-.132 2.0026-.868 1.964-2.244v-.003c-.028-.576-.3907-.765-.1307-1.019.18-.176.7587-.052.8427-.044 1.2213.088 2.1586-1.204 2.1586-2.365v-.001c0-1.619-1.4546-2.522-2.8706-2.312-.7347.11-1.272.56-1.7107 1.101-.4147.509-.516.181-.4587-.153.2627-1.543.9667-2.419 2.276-2.83.1294-.041.68-.166.1774-.166h-2.5947z" fill="#46464e"/><path d="m36.6028 93.1333c0-3.1254 2.8053-4.8734 5.5453-4.464 1.4133.212 2.4547 1.0786 3.2987 2.124.8.9853.9973.3506.888-.2934-.508-2.98-1.864-4.672-4.392-5.4627-.2534-.0826-1.3174-.3226-.3467-.3226h10.0667c.972 0-.092.24-.3427.3226-2.5267.7907-3.8853 2.4827-4.3933 5.4627-.1094.644.0866 1.2787.8853.2934.8467-1.0454 1.8853-1.912 3.3027-2.124 2.736-.4054 5.544 1.3386 5.544 4.464v.0026c0 2.2427-1.8094 4.736-4.1694 4.564-.1613-.0133-1.2786-.2546-1.6266.0854-.5014.4906.2.8546.252 1.9693v.0027c.076 2.6577-1.7507 4.0757-3.7894 4.3347v-.003c0 .003-.4427.058-.6413.058-.3627.004-.652-.051-.7507-.058v.003c-2.036-.259-3.864-1.68-3.7853-4.3347v-.0027c.0507-1.1147.7507-1.4787.2507-1.9693-.3467-.34-1.468-.096-1.6254-.0854-2.3586.172-4.1706-2.3213-4.1706-4.564z" fill="#302f36"/><path d="m46.6534 104.147h.0307c.1986 0 .6413-.055.6413-.058v.003c2.0387-.259 3.8654-1.677 3.7894-4.3347v-.0027c-.052-1.1147-.7534-1.4787-.252-1.9693.348-.34 1.4653-.0987 1.6266-.0854 2.36.172 4.1694-2.3213 4.1694-4.564v-.0026c0-3.1254-2.808-4.8694-5.544-4.464-1.4174.212-2.456 1.0786-3.3027 2.124-.7987.9853-.9947.3506-.8853-.2934.508-2.98 1.8666-4.672 4.3933-5.4627.2507-.0826 1.3147-.3226.3427-.3226h-5.0094z" fill="#46464e"/><path d="m36.6028 44.088c0-3.124 2.8053-4.8721 5.5453-4.4654 1.4133.212 2.4547 1.08 3.2987 2.1253.8.984.9973.3507.888-.2946-.508-2.9787-1.864-4.6707-4.392-5.4614-.2534-.0826-1.3174-.3226-.3467-.3226h10.0667c.972 0-.092.24-.3427.3226-2.5267.7907-3.8853 2.4827-4.3933 5.4614-.1094.6453.0866 1.2786.8853.2946.8467-1.0453 1.8853-1.9133 3.3027-2.1253 2.736-.404 5.544 1.3414 5.544 4.4654v.0026c0 2.2427-1.8094 4.736-4.1694 4.564-.1613-.0133-1.2786-.2533-1.6266.0853-.5014.4907.2.8547.252 1.9694v.0026c.076 2.6574-1.7507 4.0761-3.7894 4.3347v-.0026c0 .0026-.4427.0572-.6413.0572-.3627.004-.652-.0506-.7507-.0572v.0026c-2.036-.2586-3.864-1.68-3.7853-4.3347v-.0026c.0507-1.1147.7507-1.4787.2507-1.9694-.3467-.3386-1.468-.0959-1.6254-.0853-2.3586.172-4.1706-2.3213-4.1706-4.564z" fill="#302f36"/><path d="m46.6534 55.1012h.0307c.1986 0 .6413-.0546.6413-.0572v.0026c2.0387-.2586 3.8654-1.6773 3.7894-4.3347v-.0026c-.052-1.1147-.7534-1.4787-.252-1.9694.348-.3386 1.4653-.0986 1.6266-.0853 2.36.172 4.1694-2.3213 4.1694-4.564v-.0026c0-3.124-2.808-4.8694-5.544-4.4654-1.4174.212-2.456 1.0813-3.3027 2.1253-.7987.984-.9947.3507-.8853-.2946.508-2.9787 1.8666-4.6707 4.3933-5.4614.2507-.0826 1.3147-.3226.3427-.3226h-5.0094z" fill="#46464e"/></svg>