<svg fill="none" height="140" viewBox="0 0 92 140" width="92" xmlns="http://www.w3.org/2000/svg"><path d="m-.00000287 3.67681c0-2.03061 1.62107287-3.67681 3.62284287-3.67681h84.75566c2.0004 0 3.6215 1.6462 3.6215 3.67681v132.64619c0 2.031-1.6211 3.677-3.6215 3.677h-84.75566c-2.00177 0-3.62284287-1.646-3.62284287-3.677z" fill="#fff"/><path d="m19.3734 66.7401c0-8.1417 7.3094-12.6989 14.4467-11.636 3.6814.5547 6.3974 2.8147 8.596 5.5412 2.0814 2.5656 2.6014.912 2.3147-.7677-1.3227-7.7656-4.8614-12.1698-11.4467-14.235-.6613-.2134-3.4307-.8374-.9027-.8374h26.2334c2.528 0-.2413.624-.892.8374-6.5853 2.0652-10.124 6.4694-11.4467 14.235-.2853 1.6797.2227 3.3333 2.3053.7677 2.2067-2.7265 4.9121-4.9865 8.6054-5.5412 7.1293-1.052 14.448 3.4943 14.448 11.636v.0077c0 5.8428-4.7187 12.3376-10.8667 11.8923-.4213-.036-3.332-.6615-4.2373.2239-1.3107 1.2761.5213 2.224.656 5.1281v.0105c.1947 6.9239-4.56 10.6228-9.8747 11.2922v-.0079c0 .0079-1.1546.1505-1.6706.1505-.9467.0104-1.6973-.1322-1.956-.1505v.0079c-5.308-.6694-10.0707-4.3787-9.8654-11.2922v-.0105c.1347-2.9041 1.9574-3.852.652-5.1281-.9013-.8854-3.8226-.2495-4.2333-.2239-6.1493.4453-10.8654-6.0495-10.8654-11.8923z" fill="#302f36"/><path d="m45.5602 95.4374c.0266 0 .0546.0027.0813 0 .516 0 1.6706-.1426 1.6706-.1505v.0079c5.3147-.6694 10.0694-4.3683 9.8747-11.2922v-.0105c-.1347-2.9041-1.9667-3.852-.656-5.1281.9053-.8854 3.816-.2599 4.2373-.2239 6.148.4453 10.8667-6.0495 10.8667-11.8923v-.0077c0-8.1417-7.3187-12.688-14.448-11.6333-3.6933.5546-6.3987 2.8145-8.6054 5.5385-2.0826 2.5656-2.5906.912-2.3053-.7677 1.3227-7.7656 4.8614-12.1698 11.4467-14.235.6507-.2134 3.42-.8374.892-.8374h-13.0546z" fill="#46464e"/><g fill="#302f36"><path d="m79.2538 129.186h4.3231l.9709-2.693h1.4032l-3.9403 10.318h-1.1906l-3.9475-10.318h1.3962zm3.9121 1.12h-3.5081l1.7576 4.826z"/><path d="m11.7558 11.0579h-4.32306l-.97091 2.693h-1.40323l3.94036-10.31861h1.19064l3.9474 10.31861h-1.3961zm-3.91201-1.11976h3.50801l-1.75753-4.82623z"/><path d="m14.5374 23.3469c0 1.6171-1.4519 2.5224-2.8706 2.3119-.732-.1093-1.272-.5604-1.708-1.1015-.41467-.5078-.51733-.1797-.46133.1536.26267 1.5438.96663 2.4198 2.27593 2.8276.1307.0443.6814.1694.1788.1694h-5.21339c-.50266 0 .04801-.1251.17735-.1694 1.30933-.4078 2.01067-1.2838 2.27467-2.8276.05733-.3333-.04532-.6614-.45866-.1536-.43866.5411-.97604.9922-1.70937 1.1015-1.41867.2105-2.87331-.6948-2.87331-2.3119 0-1.1641.93863-2.4537 2.15996-2.3657.084.0084.66271.1308.84271-.0437.26133-.2547-.1027-.4427-.12936-1.0214-.04-1.3776.90533-2.1109 1.96133-2.2442 0 0 .22936-.0318.33203-.0318.18933 0 .33732.0292.38932.0318 1.05462.1333 2.00132.8693 1.96132 2.2442-.028.5787-.3893.7667-.1307 1.0214.18.1745.7614.0489.8427.0437 1.2213-.088 2.1586 1.2016 2.1586 2.3657z"/></g><path d="m9.33347 17.6401c-.00667 0-.01066 0-.01732 0-.10267 0-.33203.0318-.33203.0318-1.056.1333-2.00133.8666-1.96133 2.2442.02667.5787.39069.7667.12936 1.0214-.18.1745-.75871.0521-.84271.0437-1.22133-.088-2.15996 1.2016-2.15996 2.3657 0 1.6171 1.45464 2.5224 2.87331 2.3119.73333-.1093 1.27071-.5604 1.70937-1.1015.41334-.5078.516-.1797.45866.1536-.264 1.5438-.96534 2.4198-2.27467 2.8276-.12934.0443-.68001.1694-.17735.1694h2.59467z" fill="#46464e"/><path d="m76.5828 116.896c0-1.617 1.452-2.524 2.872-2.313.732.11 1.2707.56 1.708 1.102.4147.51.5173.182.46-.154-.2627-1.542-.9654-2.419-2.2747-2.828-.132-.042-.6827-.167-.18-.167h5.2147c.5027 0-.048.125-.1773.167-1.3094.409-2.012 1.286-2.276 2.828-.056.336.044.664.4586.154.4387-.542.9761-.992 1.7107-1.102 1.4174-.208 2.872.696 2.872 2.313v.003c0 1.161-.9387 2.453-2.16 2.364-.084-.008-.6627-.132-.8413.044-.2614.253.1027.441.1293 1.018v.003c.04 1.375-.9053 2.112-1.9627 2.245v-.002c0 .002-.2293.03-.3306.03-.1894.003-.3387-.025-.3894-.03v.002c-1.056-.133-2.0026-.87-1.9613-2.245v-.003c.0267-.577.3893-.765.128-1.018-.1773-.176-.76-.052-.84-.044-1.2214.089-2.16-1.203-2.16-2.364z" fill="#302f36"/><path d="m81.7881 122.601h.0174c.1013 0 .3306-.028.3306-.03v.002c1.0574-.133 2.0027-.87 1.9627-2.245v-.003c-.0266-.577-.3907-.765-.1293-1.018.1786-.176.7573-.052.8413-.044 1.2213.089 2.16-1.203 2.16-2.364v-.003c0-1.617-1.4546-2.521-2.872-2.313-.7346.11-1.272.56-1.7107 1.102-.4146.51-.5146.182-.4586-.154.264-1.542.9666-2.419 2.276-2.828.1293-.042.68-.167.1773-.167h-2.5947z" fill="#46464e"/></svg>