<svg fill="none" height="141" viewBox="0 0 93 141" width="93" xmlns="http://www.w3.org/2000/svg"><path d="m.416163 5.15599c0-2.00534 1.622447-3.62933 3.622847-3.62933h84.75429c2.0004 0 3.6229 1.62399 3.6229 3.62933v130.98701c0 2.005-1.6225 3.63-3.6229 3.63h-84.75429c-2.0004 0-3.622847-1.625-3.622847-3.63z" fill="#fff"/><path d="m79.7021 137.338h-1.3678v-7.307c0-.987.2976-1.76.8929-2.317.5906-.558 1.3796-.836 2.3671-.836 1.0252 0 1.8237.262 2.3954.786.5717.525.8575 1.259.8575 2.204h-1.3607c0-.59-.1606-1.051-.4819-1.382-.326-.33-.7961-.496-1.4103-.496-.5623 0-1.0158.178-1.3607.532-.3496.354-.5268.85-.5315 1.488z" fill="#302f36"/><path d="m12.9649 3.96055h1.3678v7.30665c0 .9875-.2977 1.76-.893 2.3175-.5905.5575-1.3796.8362-2.367.8362-1.0253 0-1.82373-.2622-2.39541-.7866-.57169-.5245-.85753-1.2591-.85753-2.2041h1.3607c0 .5906.16064 1.0513.48192 1.382.326.3307.79612.4961 1.41032.4961.5622 0 1.0158-.1772 1.3607-.5315.3496-.3544.5268-.8505.5315-1.4883z" fill="#302f36"/><path d="m15.3681 23.8747c0 1.6173-1.4519 2.5239-2.8706 2.3133-.732-.1094-1.272-.56-1.708-1.1027-.4147-.5093-.5187-.1786-.4613.1547.2626 1.544.9666 2.4187 2.2759 2.828.1307.044.6814.1693.1787.1693h-5.21467c-.50133 0 .04805-.1253.17871-.1693 1.30801-.4093 2.01068-1.284 2.27466-2.828.0574-.3333-.04531-.664-.45864-.1547-.43867.5427-.97604.9933-1.70937 1.1027-1.41867.2106-2.87331-.696-2.87331-2.3133v-.0027c0-1.1613.93729-2.4507 2.15996-2.3613.084.0053.66404.1293.84271-.0467.26133-.2533-.10403-.44-.12936-1.0187v-.0026c-.04-1.3747.90532-2.1094 1.96132-2.2454v.0027c0-.0027.22939-.0307.33199-.0307.1894 0 .3374.028.3894.0307v-.0027c1.0546.136 2.0013.8734 1.9613 2.2454v.0026c-.0267.5787-.3893.7654-.1307 1.0187.18.176.7614.052.8414.0467 1.2226-.0894 2.1599 1.2 2.1599 2.3613z" fill="#302f36"/><path d="m10.1642 18.1693c-.0067 0-.012 0-.0174 0-.1026 0-.33199.028-.33199.0307v-.0027c-1.056.1334-2.00133.8707-1.96133 2.2454v.0026c.02533.5787.39069.7654.12936 1.0187-.17867.176-.75871.052-.84271.0467-1.22267-.0894-2.15996 1.2-2.15996 2.3613v.0027c0 1.6173 1.45464 2.5239 2.87331 2.3133.73333-.1094 1.27071-.56 1.70937-1.1027.41334-.5093.51595-.1786.45865.1547-.26399 1.544-.96666 2.4187-2.27466 2.828-.13067.044-.68005.1693-.17871.1693h2.59607z" fill="#46464e"/><path d="m77.4135 117.424c0-1.617 1.452-2.523 2.8706-2.312.732.109 1.2721.56 1.7094 1.101.4147.511.516.183.46-.153-.2627-1.541-.9667-2.42-2.2747-2.828-.132-.044-.6826-.167-.18-.167h5.2147c.5027 0-.048.123-.1787.167-1.308.408-2.012 1.287-2.2746 2.828-.0574.336.0453.664.4586.153.4387-.541.976-.992 1.7107-1.101 1.4173-.211 2.872.695 2.872 2.312v.003c0 1.161-.9387 2.453-2.16 2.362-.084-.005-.6627-.13-.8427.047-.2613.252.104.44.1307 1.019v.002c.04 1.375-.9067 2.112-1.9627 2.244v-.002c0 .002-.2293.032-.332.032-.188.002-.3373-.03-.3893-.032v.002c-1.0547-.132-2.0014-.869-1.9614-2.244v-.002c.0267-.579.3894-.767.1307-1.019-.18-.177-.7613-.052-.8426-.047-1.2214.091-2.1587-1.201-2.1587-2.362z" fill="#302f36"/><path d="m82.6188 123.131h.016c.1027 0 .332-.03.332-.032v.002c1.056-.132 2.0027-.869 1.9627-2.244v-.002c-.0267-.579-.392-.767-.1307-1.019.18-.177.7587-.052.8427-.047 1.2213.091 2.16-1.201 2.16-2.362v-.003c0-1.617-1.4547-2.523-2.872-2.312-.7347.109-1.272.56-1.7107 1.101-.4133.511-.516.183-.4586-.153.2626-1.541.9666-2.42 2.2746-2.828.1307-.044.6814-.167.1787-.167h-2.5947z" fill="#46464e"/><path d="m67.0575 41.76s4.9653 1.7973 9.588 6.816v6.1453h-9.588z" fill="#302f36"/><path d="m63.1162 117.528 5.1426 6.675s-10.0333 6.661-12.0573 6.776c-2.0227.117-24.896-6.958-24.896-6.958l5.164-8.253z" fill="#302f36"/><path d="m36.4695 125.599s2.8347-9.071 3.5667-9.675c.7333-.601 4.4653 1.115 4.4653 1.115s-2.8773 2.846-4.2987 9.68z" fill="#a22735"/><path d="m76.6455 57.776v34.492s-4.336 5.5293-13.0373 6.3467c0 0-.1614-34.9374 13.0373-40.8387z" fill="#302f36"/><path d="m51.1909 96.7186h-4.4387v-8.1453h4.4387z" fill="#181419"/><path d="m60.0868 99.5307h-4.4373v-8.1427h4.4373z" fill="#181419"/><path d="m46.7202 99.956h-4.4374v-8.1467h4.4374z" fill="#a22735"/><path d="m55.6281 97.3h-4.4373v-8.1467h4.4373z" fill="#a22735"/><path d="m42.4228 102.409h-4.4387v-8.1437h4.4387z" fill="#181419"/><path d="m37.9522 102.573h-4.4374v-5.0703h4.4374z" fill="#a22735"/><path d="m60.0495 102.427-1.016-3.6297 3.412-.1826z" fill="#a05e33"/><path d="m64.7975 98.484s-1.5534-22.82 11.848-40.708c-.0147-1.576-.024-2.3747-.024-2.3747s-7.888 3.708-12.3747 19.3414c-4.4893 15.6346-2.4546 23.7413-2.4546 23.7413z" fill="#181419"/><path d="m62.7481 97.9733s-.4119-15.0146 3.2934-24.012c3.7067-8.9973 6.2853-15.1333 10.604-18.5213v-6.864s-12.1747 11.7733-16.168 25.0333c-3.992 13.2627-3.2453 24.8627-3.2453 24.8627z" fill="#35346f"/><g fill="#a22735"><path d="m62.9722 98.372c0-.5627-1.1427-1.02-2.5521-1.02-1.4093 0-2.552.4573-2.552 1.02s1.1427 1.0186 2.552 1.0186c1.4094 0 2.5521-.4559 2.5521-1.0186z"/><path d="m62.7841 96.128c.028-.5493-1.0653-1.0547-2.4426-1.128-1.38-.0733-2.5213.3147-2.5493.864-.0307.552 1.0653 1.0573 2.444 1.1307 1.3773.0733 2.5173-.3147 2.5479-.8667z"/><path d="m62.7455 93.5467c.0573-.536-.988-1.0907-2.336-1.2374-1.3467-.1453-2.4867.1747-2.5453.712-.0587.5387.9893 1.0933 2.3347 1.2387 1.348.1466 2.4879-.1747 2.5466-.7133z"/><path d="m62.8615 90.6827c.088-.5267-.9094-1.1281-2.2267-1.3467-1.316-.2187-2.4533.0306-2.5413.5573-.0867.5253.9106 1.1307 2.2266 1.3494 1.3174.216 2.4547-.0347 2.5414-.56z"/><path d="m63.1428 87.588c.1146-.5147-.8334-1.1667-2.1174-1.4574-1.2866-.2893-2.4226-.1093-2.5386.4054-.116.5133.832 1.164 2.1173 1.456 1.2867.2893 2.4227.1093 2.5387-.404z"/><path d="m63.5935 84.3147c.1454-.5027-.7533-1.2027-2.0106-1.5654-1.2534-.364-2.388-.252-2.5334.2507-.1453.5.756 1.2027 2.0093 1.5653 1.2547.364 2.3894.2494 2.5347-.2506z"/><path d="m64.2228 80.916c.1747-.4893-.6773-1.236-1.9013-1.6733-1.224-.436-2.356-.3907-2.5306.096-.1747.4893.6773 1.24 1.9013 1.6746 1.224.4374 2.356.3934 2.5306-.0973z"/><path d="m65.0362 77.448c.204-.476-.5987-1.276-1.792-1.784s-2.3253-.5333-2.528-.0573.5986 1.276 1.7933 1.784c1.192.508 2.324.5333 2.5267.0573z"/><path d="m66.0415 73.9613c.232-.464-.5213-1.3133-1.6826-1.8933-1.164-.5813-2.2934-.6747-2.5254-.2107-.232.4627.5227 1.312 1.6854 1.892 1.1613.5814 2.2906.6747 2.5226.212z"/><path d="m67.2468 70.508c.26-.4507-.4453-1.3493-1.576-2-1.132-.6533-2.26-.8173-2.5213-.3653-.2613.4507.444 1.3467 1.576 2 1.132.6547 2.2587.8186 2.5213.3653z"/><path d="m68.6562 67.1427c.2906-.44-.3654-1.3854-1.4667-2.1094-1.1013-.7267-2.2267-.9573-2.5173-.5173-.2907.44.3666 1.3826 1.4666 2.1093 1.1014.7267 2.2267.9574 2.5174.5174z"/><path d="m70.2802 63.9213c.3173-.4293-.2894-1.4213-1.36-2.2213-1.068-.7987-2.1934-1.0987-2.5134-.672-.32.428.2894 1.4227 1.3574 2.22 1.0706.7987 2.1973 1.1013 2.516.6733z"/><path d="m72.1228 60.8907c.348-.4147-.2107-1.456-1.2494-2.328-1.0386-.872-2.1626-1.2427-2.5119-.8254-.3467.4134.2133 1.456 1.2506 2.328 1.0387.872 2.1627 1.24 2.5107.8254z"/><path d="m74.1948 58.1093c.376-.404-.1346-1.4946-1.1426-2.4373-1.008-.9453-2.1307-1.3827-2.5067-.9814-.3774.4027.1346 1.4947 1.1413 2.4401 1.008.9426 2.1293 1.3826 2.508.9786z"/><path d="m76.4989 55.628c.4066-.3907-.0561-1.532-1.0321-2.5467-.9773-1.016-2.0986-1.524-2.5039-1.1333-.4067.388.0559 1.528 1.0319 2.5466.9774 1.016 2.0974 1.524 2.5041 1.1334z"/></g><path d="m50.8908 78.516h-7.0533v7.804h7.0533z" fill="#3e4ca8"/><path d="m44.1401 78.8467h6.7507v-7.0787z" fill="#ae8f42"/><path d="m43.8975 79.448h7.1133v5.792h-7.1133z" fill="#ae8f42"/><path d="m43.8975 85.7493h6.9933v1.8907l-6.9933 4.232z" fill="#ae8f42"/><path d="m52.2535 71.0933-.2707 16.4227 5.788 3.2706s1.1387-13.6013 2.512-16.0439c1.3747-2.44-8.0293-3.6494-8.0293-3.6494z" fill="#302f36"/><path d="m52.3548 71.044-1.7187.852v16.8067h1.7187z" fill="#dee4f5"/><path d="m52.9095 70.4013-1.7187.8507v16.808h1.7187z" fill="#181419"/><path d="m64.1535 64.7c-.5827 1.472-1.5707 2.836-2.3 4.24-1.1894 2.2893-2.0374 4.7133-2.4254 7.2373-.0346 0-.0693.0027-.1066.0027-3.556 0-6.5973-2.204-7.8387-5.316.264-.2987.52-.6067.848-.8827.5907-.4973 1.288-.8907 1.904-1.3613 1.496-1.148 2.6387-2.7293 4.312-3.628 1.2614-.68 2.6027-1.148 3.9467-1.6347.576-.212 1.16-.42 1.7587-.56.1813.028.3626.0547.5453.08-.2213.6147-.412 1.2427-.644 1.8227z" fill="#181419"/><path d="m64.1535 64.7c-.5827 1.472-1.5707 2.836-2.3 4.24-1.084 2.088-1.884 4.2893-2.312 6.5733-.072 0-.1453.0053-.22.0053-3.3933 0-6.2773-2.1746-7.3387-5.2066.1094-.1147.2214-.224.348-.3307.5907-.4973 1.288-.8907 1.904-1.3613 1.496-1.148 2.6387-2.7293 4.312-3.628 1.2614-.68 2.6027-1.148 3.9467-1.6347.576-.212 1.16-.42 1.7587-.56.1813.028.364.0547.5453.08-.2213.6147-.412 1.2427-.644 1.8227z" fill="#ae8f42"/><path d="m61.8535 68.94c-.4774.92-.896 1.86-1.256 2.8173-.4027.128-.8307.1987-1.276.1987-2.2827 0-4.1373-1.82-4.2053-4.0867 1.104-1.0146 2.1-2.1613 3.4306-2.8773.8027-.432 1.6374-.7787 2.4827-1.0987 1.0734.476 1.908 1.3854 2.284 2.508-.4827.8507-1.0187 1.6894-1.46 2.5387z" fill="#3e4ca8"/><path d="m35.5228 84.3546 6.904-3.9853.3507 12.8573-7.2547 3.9947z" fill="#302f36"/><path d="m44.1401 79.636h-1.7173v13.0093h1.7173z" fill="#dee4f5"/><path d="m28.9522 101.133s2.9693 1.67 6.0346 2.096l.3707-18.641s-4.7027 1.7426-6.816 1.664z" fill="#bcc7ea"/><path d="m28.9522 101.133-1.0707-.406v-14.347h1.0707z" fill="#675155"/><path d="m27.8815 100.727s-1.584-.659-2.2707-1.1883v-12.96h2.2707z" fill="#181419"/><path d="m25.6108 99.5387s-4.9666-1.7961-9.588-6.8147v-6.1453h9.588z" fill="#302f36"/><path d="m43.5041 80.216h-1.72v13.0106h1.72z" fill="#181419"/><path d="m36.0575 103.229h-1.0707v-18.2863h1.0707z" fill="#675155"/><path d="m63.3989 62.568c-.6467 0-1.4854.1267-2.5414.5253-3.496 1.3254-7.772 4.9747-12.7053 10.8414-5.944 7.068-11.7867 9.8746-15.6414 10.9866-4.1693 1.204-8.908.98-8.936.9774l-.2053 1.148c.1227.024 4.98.2786 9.388-.9787 4.0307-1.1493 10.1266-4.0547 16.288-11.38 11.0866-13.1827 15.3133-10.784 15.3547-10.7587l.66-.9626c-.0854-.06-.6133-.3987-1.6613-.3987z" fill="#9c6c3e"/><path d="m36.0575 97.9613s14.2867-9.3186 15.636-9.3186c1.348 0 5.396 2.836 5.396 2.836v-1.6454s-4.8814-3.2546-5.516-3.2546c-.6347 0-15.516 9.6426-15.516 9.6426z" fill="#dee4f5"/><path d="m37.6535 102.427s12.0747-8.875 13.788-8.875 6.684 4.4373 6.684 4.4373z" fill="#ae8f42"/><path d="m36.0575 99.0933s14.2867-9.476 15.636-9.476c1.348 0 5.396 3.1947 5.396 3.1947v-1.5987s-4.8814-3.1533-5.516-3.1533c-.6347 0-15.516 9.3467-15.516 9.3467z" fill="#ae8f42"/><path d="m56.7002 97.3333s-.0347-15.076 3.4933-25.0186c3.5254-9.9454 12.4013-23.9267 15.0106-25.1974l1.4414 1.4587s-6.2453 5.148-15.1826 24.4707c-2.3267 9.5653-2.4067 5.4266-3.5321 24.9146-1.124 19.4897-1.2306-.628-1.2306-.628z" fill="#9c6c3e"/><path d="m45.5909 99.0933s4.9386-3.632 5.9893-3.632c1.0493 0 3.2879 2.044 3.2879 2.044s-6.8359 4.5577-8.7146 3.9137c-1.8787-.643-.5626-2.3257-.5626-2.3257z" fill="#d1d7ec"/><path d="m59.3441 116.907s2.3307-2.326 1.736-8.366c-.596-6.038-1.0986-12.0877 3.32-10.241 4.4174 1.845.5987 6.552-2.0666 4.067 0 0 .0146 2.977.4 6.896.3866 3.92.104 7.672-3.3894 7.644z" fill="#c57135"/><path d="m61.6788 115.924s.648-3.629 0-4.372c-.6493-.74-.0453-1.888 0-2.773.0467-.886.9734-8.344-4.1226-11.031-5.096-2.688-4.68 1.0253-10.9334 3.385 0 0-.9733 14.544 3.2894 15.747 0 0 8.4773.732 11.7666-.956z" fill="#dee4f5"/><path d="m40.8629 114.992s-1.6534-1.353-1.6534-5.292c0-3.94-2.0413-8.057-4.7787-6.585-2.736 1.476.0307 4.27 1.5947 2.497 0 0 .1786 1.924.1786 4.481 0 2.555 1.4308 5.538 4.6588 4.899z" fill="#9b5b32"/><path d="m42.4335 115.909s-1.912-1.568-1.912-6.125-1.028-9.344-4.1946-7.639c-3.1667 1.707.0346 4.943 1.8439 2.888 0 0 .2094 2.23.2094 5.186 0 2.958 1.444 5.969 4.0533 5.69z" fill="#a05e33"/><path d="m44.5015 116.404s-1.8147-3.204-1.8147-8.107c0-4.904-1.3693-8.513-4.7747-6.68-3.4066 1.836.0361 5.318 1.9827 3.11 0 0 .2254 2.393.2254 5.576 0 3.181 1.5746 6.4 4.3813 6.101z" fill="#a66133"/><path d="m46.1535 116.648s-1.292-2.175-1.292-7.643c0-5.469-1.0867-10.6383-4.8854-8.59-3.7973 2.044.0427 5.924 2.2134 3.462 0 0 .2506 2.672.2506 6.219s.584 6.885 3.7134 6.552z" fill="#aa6534"/><path d="m48.3442 116.888s-2.4494-2.005-2.4494-7.839c0-5.836-.0893-11.669-4.1426-9.4864-4.0533 2.1824.0453 6.3254 2.3599 3.6944 0 0 .2681 2.852.2681 6.639 0 3.784.624 7.347 3.964 6.992z" fill="#af6734"/><path d="m49.9121 116.88s-2.5492-2.083-2.5492-8.153c0-6.068-.0907-12.139-4.3067-9.867-4.216 2.271.0453 6.577 2.4546 3.843 0 0 .2774 2.966.2774 6.904 0 3.937.6479 7.642 4.1239 7.273z" fill="#c57135"/><path d="m37.0681 113.369s9.5681 5.279 25.1267 1.918l.9214 2.241s-12.06 4.727-26.6467-1.76z" fill="#302f36"/><path d="m57.7948 112.04s.2534.052.6347.081c.1907.019.4133.027.6507.03.2346.017.4853-.018.7319-.035.2467-.025.4747-.119.6961-.152.204-.075.4013-.124.5813-.165.2933-.167.5707-.263.5707-.263l.036.032s-.1174.233-.4227.552c-.1787.099-.3946.229-.644.315-.256.028-.5306.072-.7973.053-1.0787-.011-2.0507-.404-2.0507-.404z" fill="#c57135"/><path d="m53.5308 112.084s-.972.393-2.0506.404c-.2667.019-.5414-.025-.7961-.053-.2506-.086-.4666-.216-.6453-.314-.304-.318-.4226-.553-.4226-.553l.036-.032s.2773.096.5706.263c.1813.041.3774.092.5827.165.2213.033.448.127.6947.152.248.017.496.052.7333.035.2373-.003.46-.011.6493-.03.3814-.03.636-.081.636-.081z" fill="#c57135"/><path d="m54.8535 110.319s-.2534-.216-.6974-.415c-.1053-.057-.2373-.085-.3653-.133-.132-.042-.2627-.102-.4147-.118-.2946-.056-.6053-.114-.9239-.085-.316-.015-.6254.052-.9134.119-.292.033-.568.06-.7973.138-.468.107-.82.128-.82.128l-.0201-.041s.2654-.207.7267-.44c.2254-.129.5094-.227.8334-.267.32-.056.664-.068 1.008-.01.344.006.6746.105.9813.198.304.088.5653.246.784.367.428.271.6493.525.6493.525z" fill="#333558"/><path d="m57.9108 110.285c0-.001.1587-.185.4627-.388.152-.102.3413-.206.5547-.296.22-.068.4533-.172.7053-.186.248-.051.5013-.082.7373-.042.2373.028.4507.087.6147.187.3347.181.516.352.5173.352l-.0213.041c.0013 0-.2653.016-.6013-.037-.164-.049-.3627-.036-.5681-.059-.2013-.052-.4199-.076-.6453-.07-.2266-.023-.444.041-.656.073-.204.055-.3986.112-.5573.18-.3227.133-.512.279-.512.279z" fill="#333558"/><path d="m57.0228 111.047s-.096-.683-.076-1.715c.0094-.517.0573-1.12.1813-1.761.0627-.32.1747-.642.2654-.975.144-.307.292-.62.4387-.931.148-.317.1066-.51-.0854-.72-.1946-.181-.472-.298-.7533-.361-.2827-.063-.5693-.08-.8387-.06-.2666.015-.5253.064-.7306.168-.2107.089-.4001.203-.5147.349-.1467.131-.196.295-.2733.416-.0854.27-.1134.444-.1134.444h-.048s-.0146-.17.0054-.485c.044-.152.0706-.357.216-.537.1146-.196.3159-.388.5599-.518.2414-.149.5374-.234.8494-.284.3147-.058.6533-.029.9973.032.3387.092.696.239.972.543.06.088.12.175.172.265l.0747.319c-.008.228-.0627.464-.1507.587-.16.298-.32.597-.4787.892-.1013.312-.2239.612-.3013.917-.1453.613-.2373 1.2-.2813 1.708-.0867 1.019-.04 1.701-.04 1.701z" fill="#333558"/><path d="m53.1549 102.404s1.3892-.103 2.7799-.164c.696-.06 1.3907-.079 1.912.003.52.06.868.161.868.161v.047s-.348.101-.868.161c-.5213.081-1.216.063-1.912.003-1.3907-.062-2.7799-.164-2.7799-.164z" fill="#333558"/><path d="m55.2401 101.109s.4974-.102.996-.164c.248-.06.4987-.078.684.003.1867.06.3121.161.3121.161v.047s-.1254.101-.3121.161c-.1853.082-.436.063-.684.003-.4986-.061-.996-.164-.996-.164z" fill="#333558"/><path d="m29.5522 23.768-5.144-6.6747s10.0333-6.6586 12.0573-6.776c2.024-.1173 24.896 6.9614 24.896 6.9614l-5.164 8.252z" fill="#302f36"/><path d="m56.1975 15.7s-2.8334 9.0707-3.5667 9.6747c-.7333.6013-4.4653-1.1147-4.4653-1.1147s2.8773-2.848 4.2986-9.6787z" fill="#a22735"/><path d="m16.0228 83.5213v-34.4933s4.336-5.5254 13.036-6.3427c0 0 .1613 34.9373-13.036 40.836z" fill="#302f36"/><path d="m41.4761 44.5813h4.4387v8.1427h-4.4387z" fill="#181419"/><path d="m32.5815 41.7653h4.4373v8.1467h-4.4373z" fill="#181419"/><path d="m45.9481 41.344h4.4374v8.1453h-4.4374z" fill="#a22735"/><path d="m37.0388 44h4.4373v8.1453h-4.4373z" fill="#a22735"/><path d="m50.2455 38.888h4.4373v8.1453h-4.4373z" fill="#181419"/><path d="m54.7148 38.7267h4.4374v5.0706h-4.4374z" fill="#a22735"/><path d="m32.6188 38.872 1.0147 3.628-3.4107.1853z" fill="#a05e33"/><path d="m27.8695 42.8147s1.5533 22.8213-11.8467 40.7066c.0146 1.5773.0226 2.3774.0226 2.3774s7.8881-3.7081 12.3761-19.3441c4.4893-15.6333 2.4546-23.7399 2.4546-23.7399z" fill="#181419"/><path d="m29.9188 43.3253s.4134 15.016-3.292 24.0134c-3.7066 8.9973-6.2867 15.1333-10.604 18.5213v6.864s6.6627-1.3547 16.1667-25.0334c3.9933-13.264 3.2453-24.8626 3.2453-24.8626z" fill="#35346f"/><path d="m29.6948 42.9266c0 .5627 1.1427 1.0214 2.5534 1.0214 1.408 0 2.552-.4587 2.552-1.0214 0-.5626-1.144-1.0199-2.552-1.0199-1.4107 0-2.5534.4573-2.5534 1.0199z" fill="#a22735"/><path d="m29.8842 45.172c-.0294.5493 1.064 1.0547 2.4427 1.128 1.3786.072 2.52-.316 2.548-.8653.0306-.552-1.0653-1.0574-2.4427-1.1294-1.3786-.0733-2.52.3147-2.548.8667z" fill="#a22735"/><path d="m29.9215 47.7493c-.0587.54.9893 1.0947 2.336 1.24 1.348.1467 2.488-.1746 2.5453-.7133.0587-.536-.988-1.0907-2.3347-1.2373-1.348-.1454-2.4879.1746-2.5466.7106z" fill="#a22735"/><path d="m29.8055 50.6147c-.0867.528.9093 1.1306 2.2253 1.3493 1.3187.2187 2.456-.0347 2.544-.56.0853-.5267-.9107-1.128-2.2267-1.3467-1.3187-.2186-2.456.0307-2.5426.5574z" fill="#a22735"/><path d="m29.5255 53.7107c-.116.516.832 1.1666 2.116 1.456 1.2867.292 2.424.1093 2.54-.404.116-.5134-.832-1.1667-2.1186-1.456-1.2867-.2907-2.4227-.1094-2.5374.404z" fill="#a22735"/><path d="m29.0734 56.984c-.1453.5026.7547 1.204 2.0094 1.5653 1.2547.3627 2.3893.2507 2.5346-.2493.1454-.5027-.7546-1.204-2.0093-1.5653-1.2546-.3654-2.3893-.2534-2.5347.2493z" fill="#a22735"/><path d="m28.4455 60.3827c-.1747.4893.676 1.2373 1.9 1.6746 1.224.4347 2.3573.3907 2.5307-.096.1746-.4893-.6774-1.24-1.9-1.6773-1.2254-.4347-2.3574-.3907-2.5307.0987z" fill="#a22735"/><path d="m27.6308 63.852c-.2027.476.6 1.2733 1.792 1.784 1.1933.5067 2.3266.5306 2.528.0573.2026-.48-.5987-1.2773-1.792-1.784-1.192-.508-2.3253-.5347-2.528-.0573z" fill="#a22735"/><path d="m26.6269 67.3387c-.2334.464.5199 1.312 1.6826 1.8906 1.1627.5827 2.292.6774 2.524.2107.232-.464-.5226-1.3093-1.684-1.8907-1.1613-.58-2.2906-.6746-2.5226-.2106z" fill="#a22735"/><path d="m25.4215 70.792c-.2613.4506.444 1.3466 1.576 2 1.1307.6533 2.2587.8173 2.52.364.2613-.4507-.444-1.3467-1.5747-2-1.132-.6534-2.2599-.8174-2.5213-.364z" fill="#a22735"/><path d="m24.0108 74.156c-.2906.44.3667 1.3827 1.4667 2.1093 1.1013.7267 2.2267.9587 2.5173.5187.2907-.44-.3653-1.3827-1.4666-2.1093-1.1-.7267-2.2267-.9587-2.5174-.5187z" fill="#a22735"/><path d="m22.3881 77.3773c-.3186.4294.2893 1.4227 1.36 2.2213 1.0667.8 2.1934 1.0987 2.512.672.32-.4266-.288-1.4213-1.3573-2.2213-1.0707-.7973-2.196-1.0986-2.5147-.672z" fill="#a22735"/><path d="m20.5442 80.4093c-.348.4134.2107 1.4547 1.2507 2.328 1.0373.8694 2.1626 1.2387 2.5106.8254.3467-.4147-.2133-1.4587-1.2506-2.328-1.0373-.8734-2.1627-1.2427-2.5107-.8254z" fill="#a22735"/><path d="m18.4734 83.1906c-.3773.4027.1347 1.4947 1.1427 2.4374 1.0067.9426 2.1293 1.3827 2.5067.9787.376-.4014-.1347-1.492-1.1427-2.4374-1.008-.9426-2.1293-1.3827-2.5067-.9787z" fill="#a22735"/><path d="m16.1695 85.672c-.4067.3907.056 1.5306 1.032 2.5466.9773 1.016 2.0973 1.524 2.504 1.1334.4067-.3907-.0574-1.532-1.032-2.5467-.9774-1.016-2.0973-1.524-2.504-1.1333z" fill="#a22735"/><path d="m41.7775 62.7813h7.052v-7.8026h-7.052z" fill="#3e4ca8"/><path d="m48.5269 62.4533h-6.7494v7.0774z" fill="#ae8f42"/><path d="m48.7695 61.852h-7.1133v-5.792h7.1133z" fill="#ae8f42"/><path d="m48.7695 55.5493h-6.992v-1.8907l6.992-4.2319z" fill="#ae8f42"/><path d="m40.4135 70.2053.272-16.4213-5.7893-3.2707s-1.1374 13.6013-2.5121 16.0413c-1.3746 2.4427 8.0294 3.6507 8.0294 3.6507z" fill="#302f36"/><path d="m40.3121 70.2546 1.7201-.8506v-16.808h-1.7201z" fill="#dee4f5"/><path d="m39.7575 70.8987 1.7186-.852v-16.8067h-1.7186z" fill="#181419"/><path d="m28.5148 76.596c.5813-1.468 1.5693-2.8333 2.3-4.2387 1.188-2.2893 2.036-4.7147 2.424-7.2347.0347 0 .0693-.0026.1067-.0026 3.5573 0 6.5973 2.2 7.84 5.3147-.2653.3-.5213.6066-.8493.8826-.5894.4973-1.2867.8907-1.9027 1.3627-1.496 1.1453-2.64 2.7267-4.3133 3.6267-1.2614.6773-2.6027 1.1493-3.9454 1.636-.5773.2106-1.1613.4186-1.76.56-.1813-.0294-.3626-.0547-.5453-.0814.2213-.6147.4133-1.2413.6453-1.8253z" fill="#181419"/><path d="m28.5148 76.596c.5813-1.468 1.5693-2.8333 2.3-4.2387 1.0827-2.0866 1.8827-4.2867 2.3107-6.5707.072-.0026.1453-.0053.22-.0053 3.3933 0 6.2773 2.1747 7.34 5.2053-.1093.1147-.2227.224-.3493.3307-.5894.4973-1.2867.8907-1.9027 1.3627-1.496 1.1453-2.64 2.7267-4.3133 3.6267-1.2614.6773-2.6027 1.1493-3.9454 1.636-.5773.2106-1.1613.4186-1.76.56-.1813-.0294-.3626-.0547-.5453-.0814.2213-.6147.4133-1.2413.6453-1.8253z" fill="#ae8f42"/><path d="m30.8148 72.3573c.476-.9173.896-1.8573 1.256-2.816.4013-.1266.8307-.1973 1.2747-.1973 2.284 0 4.1373 1.82 4.2053 4.0853-1.104 1.016-2.1 2.1614-3.4307 2.8774-.8026.4333-1.6373.7786-2.4826 1.1-1.072-.4774-1.908-1.3854-2.284-2.508.484-.8547 1.0186-1.6907 1.4613-2.5414z" fill="#3e4ca8"/><path d="m57.1442 56.9453-6.9027 3.984-.3507-12.856 7.2534-3.9946z" fill="#302f36"/><path d="m48.5268 61.664h1.7187v-13.0107h-1.7187z" fill="#dee4f5"/><path d="m63.7148 40.1667s-2.9693-1.6694-6.0346-2.096l-.3707 18.64s4.7027-1.744 6.816-1.664z" fill="#bcc7ea"/><path d="m63.7148 40.1667 1.0707.4066v14.3453h-1.0707z" fill="#675155"/><path d="m64.7855 40.5733s1.584.6587 2.272 1.1867v12.9613h-2.272z" fill="#181419"/><path d="m49.1642 61.0827h1.7186v-13.0094h-1.7186z" fill="#181419"/><path d="m56.6108 38.0707h1.0694v18.2839h-1.0694z" fill="#675155"/><path d="m29.2695 78.732c.644 0 1.484-.128 2.54-.5293 3.496-1.3227 7.772-4.9707 12.7067-10.8387 5.944-7.0667 11.7866-9.8773 15.64-10.9893 4.1693-1.2027 8.7026-.6454 8.7306-.64l.2041-1.152c-.1227-.0227-4.7721-.6094-9.1814.6493-4.0307 1.148-10.1267 4.0547-16.288 11.38-11.0866 13.1827-15.3134 10.7813-15.3534 10.7573l-.6613.964c.0867.06.6134.3987 1.6627.3987z" fill="#9c6c3e"/><path d="m56.6108 43.3387s-14.288 9.3173-15.636 9.3173-5.396-2.836-5.396-2.836v1.6493s4.8801 3.252 5.5147 3.252c.636 0 15.5173-9.6426 15.5173-9.6426z" fill="#dee4f5"/><path d="m55.0135 38.872s-12.0747 8.876-13.788 8.876c-1.7134 0-6.6827-4.4387-6.6827-4.4387z" fill="#ae8f42"/><path d="m56.6108 42.2053s-14.288 9.4774-15.636 9.4774-5.396-3.1961-5.396-3.1961v1.5987s4.8801 3.1547 5.5147 3.1547c.636 0 15.5173-9.3467 15.5173-9.3467z" fill="#ae8f42"/><path d="m35.9681 43.9667s.032 15.0746-3.4946 25.0173c-3.5254 9.9426-11.5866 23.776-15.208 25.0107l-1.2427-1.2707c3.124-1.5813 13.2827-16.956 15.1827-24.472 2.3267-9.564 2.4053-5.4267 3.5307-24.9133 1.124-19.4894 1.2319.628 1.2319.628z" fill="#9c6c3e"/><path d="m47.0761 42.2053s-4.9373 3.6334-5.9893 3.6334c-1.0493 0-3.2879-2.0441-3.2879-2.0441s6.8373-4.5573 8.7146-3.9146c1.8787.644.5626 2.3253.5626 2.3253z" fill="#d1d7ec"/><path d="m33.3242 24.3933s-2.332 2.3254-1.7374 8.364c.596 6.04 1.1 12.0894-3.32 10.2427-4.4173-1.8467-.5986-6.552 2.0667-4.068 0 0-.0147-2.976-.4-6.896-.3853-3.9187-.104-7.672 3.3907-7.6427z" fill="#c57135"/><path d="m30.9882 25.3747s-.648 3.6306 0 4.3706c.6493.7414.0467 1.8907 0 2.776-.0453.8853-.972 8.3427 4.1227 11.0307 5.0973 2.688 4.68-1.0253 10.9333-3.3853 0 0 .9747-14.5441-3.2893-15.7481 0 0-8.4774-.7306-11.7667.9561z" fill="#dee4f5"/><path d="m51.8041 26.3067s1.6534 1.352 1.6534 5.292 2.0426 8.0573 4.7799 6.584c2.7347-1.4747-.032-4.2707-1.5946-2.4947 0 0-.1813-1.9253-.1813-4.4827 0-2.5546-1.4294-5.536-4.6574-4.8986z" fill="#9b5b32"/><path d="m50.2335 25.3906s1.9133 1.5681 1.9133 6.1254 1.0267 9.3413 4.1947 7.6373c3.1653-1.7053-.036-4.9426-1.8453-2.888 0 0-.2094-2.2266-.2094-5.184 0-2.9586-1.4426-5.9693-4.0533-5.6907z" fill="#a05e33"/><path d="m48.1655 24.896s1.8147 3.2027 1.8147 8.1067 1.3693 8.5133 4.776 6.6773c3.4066-1.8333-.0374-5.316-1.984-3.1067 0 0-.224-2.3933-.224-5.576 0-3.1826-1.576-6.4013-4.3827-6.1013z" fill="#a66133"/><path d="m46.5135 24.648s1.292 2.1773 1.292 7.6467c0 5.468 1.0866 10.6373 4.8866 8.5906 3.796-2.044-.0426-5.9266-2.2146-3.464 0 0-.2494-2.672-.2494-6.2186 0-3.5467-.5853-6.888-3.7146-6.5547z" fill="#aa6534"/><path d="m44.3228 24.412s2.4493 2.004 2.4493 7.8373c0 5.836.0894 11.6694 4.144 9.488 4.052-2.1826-.0466-6.3253-2.3613-3.696 0 0-.2667-2.8506-.2667-6.6373 0-3.784-.624-7.3493-3.9653-6.992z" fill="#af6734"/><path d="m42.7549 24.4186s2.5492 2.0841 2.5492 8.1547c0 6.0667.0921 12.1374 4.3081 9.8667s-.0467-6.5787-2.456-3.8467c0 0-.2774-2.9627-.2774-6.9 0-3.9413-.6479-7.6467-4.1239-7.2747z" fill="#c57135"/><path d="m55.5988 27.9293s-9.5666-5.2786-25.1266-1.916l-.92-2.2453s12.0599-4.724 26.6453 1.7627z" fill="#302f36"/><path d="m34.8735 29.2587s-.2533-.0507-.6347-.08c-.1906-.02-.4133-.028-.6506-.0307-.236-.0173-.4854.0186-.7321.036-.248.0226-.4746.1173-.6973.1507-.2027.0733-.4013.124-.58.1653-.2947.1653-.572.26-.572.26l-.036-.0307s.1174-.2346.424-.552c.1787-.0973.3947-.2293.644-.3146.256-.0267.5307-.0694.7974-.0534 1.0786.012 2.0506.4054 2.0506.4054z" fill="#c57135"/><path d="m39.1362 29.2147s.972-.3934 2.0506-.4054c.2667-.016.5414.0267.796.0534.2507.0853.4667.2173.6454.3146.3053.3174.424.552.424.552l-.036.0307s-.2774-.0947-.5707-.26c-.1814-.0413-.3786-.092-.5826-.1653-.2227-.0334-.4481-.1281-.6961-.1507-.248-.0174-.496-.0533-.7333-.036-.2373.0027-.46.0107-.6493.0307-.3814.0293-.6361.08-.6361.08z" fill="#c57135"/><path d="m37.8135 30.98s.2533.2147.6973.4147c.1054.0573.2387.0853.3653.1333.132.0413.2627.1027.4161.116.2933.056.604.1147.9226.0867.316.0146.6254-.0507.9134-.1187.292-.032.568-.06.7973-.1387.468-.1066.82-.1266.82-.1266l.02.0413s-.2667.2053-.7267.4387c-.2253.1293-.5093.2266-.8333.2653-.32.056-.664.0707-1.008.012-.344-.008-.6747-.1053-.98-.1987-.3053-.088-.5666-.2466-.7853-.3666-.428-.2707-.6493-.524-.6493-.524z" fill="#333558"/><path d="m34.7561 31.0147c0 .0013-.1586.184-.4626.388-.1507.1026-.3414.208-.5547.2946-.22.068-.4533.172-.7053.188-.248.0507-.5013.0814-.7373.04-.2374-.0266-.4507-.0866-.6147-.1853-.3347-.1813-.516-.352-.5174-.352l.0214-.0413s.2653-.016.6013.036c.164.0493.3627.036.568.06.2014.052.42.076.6453.0706.2267.0214.444-.0413.656-.0733.204-.0547.3987-.1133.5574-.1813.3227-.132.512-.2787.512-.2787z" fill="#333558"/><path d="m35.6442 30.252s.096.6827.076 1.716c-.0094.516-.056 1.1187-.18 1.76-.0627.32-.176.6413-.2653.9747-.1454.308-.2934.6186-.4401.932-.1466.3173-.1066.508.0854.7186.196.18.4733.2974.7547.3614.2826.0626.5693.08.8386.0613.2667-.0173.5254-.0653.7307-.1693.2093-.088.4-.2014.5146-.3494.1467-.1293.1961-.2933.2734-.4146.0854-.2694.1133-.444.1133-.444h.048s.0147.1706-.0053.4853c-.044.1506-.0707.356-.216.536-.1147.1973-.316.3867-.56.5173-.2414.1494-.5373.2347-.8493.284-.3147.0587-.6533.028-.9973-.032-.3387-.092-.6961-.2386-.9721-.5426-.06-.0867-.1213-.1747-.1733-.2654l-.0747-.3186c.008-.2267.0627-.464.1507-.5867.16-.2987.3213-.5974.4787-.892.1013-.3107.2239-.612.3013-.916.1466-.6133.2373-1.2.2813-1.7093.088-1.0174.04-1.7014.04-1.7014z" fill="#333558"/><path d="m39.5135 38.896s-1.3907.1027-2.78.164c-.696.06-1.3893.0787-1.912-.0027-.52-.06-.868-.1613-.868-.1613v-.0467s.348-.1013.868-.1613c.5227-.0813 1.216-.0627 1.912-.0027 1.3893.0614 2.78.164 2.78.164z" fill="#333558"/><path d="m37.4268 40.1907s-.4973.1026-.996.164c-.248.06-.4986.0773-.684-.0027-.1866-.06-.312-.1613-.312-.1613v-.048s.1254-.1014.312-.1614c.1854-.08.436-.0626.684-.0026.4987.0613.996.164.996.164z" fill="#333558"/></svg>