<svg fill="none" height="140" viewBox="0 0 93 140" width="93" xmlns="http://www.w3.org/2000/svg"><path d="m.416163 4.66528c0-2.004 1.622447-3.62806 3.622847-3.62806h84.75429c2.0004 0 3.6229 1.62406 3.6229 3.62806v130.98972c0 2.004-1.6225 3.626-3.6229 3.626h-84.75429c-2.0004 0-3.622847-1.622-3.622847-3.626z" fill="#fff"/><path d="m57.3188 101.56c0-3.1227 2.8067-4.8721 5.5453-4.4641 1.4134.212 2.4561 1.0787 3.2987 2.1254.8.9837.9987.3493.888-.2947-.5067-2.98-1.864-4.6707-4.392-5.4627-.2533-.0813-1.316-.3214-.3467-.3214h10.0667c.972 0-.0907.2401-.3427.3214-2.5266.792-3.884 2.4827-4.3933 5.4627-.108.644.088 1.2784.8853.2947.848-1.0467 1.888-1.9134 3.3027-2.1254 2.7373-.4053 5.544 1.3414 5.544 4.4641v.003c0 2.244-1.8093 4.736-4.1693 4.564-.1614-.014-1.2787-.252-1.6253.086-.5027.491.1999.854.2506 1.968v.003c.076 2.657-1.748 4.077-3.7893 4.335v-.003c0 .003-.4427.057-.6401.057-.364.004-.6519-.05-.7519-.057v.003c-2.036-.258-3.864-1.68-3.7854-4.335v-.003c.052-1.114.752-1.477.2507-1.968-.3467-.338-1.468-.096-1.6253-.086-2.3587.172-4.1707-2.32-4.1707-4.564z" fill="#302f36"/><path d="m67.3695 112.573h.0319c.1974 0 .6401-.054.6401-.057v.003c2.0413-.258 3.8653-1.678 3.7893-4.335v-.003c-.0507-1.114-.7533-1.477-.2506-1.968.3466-.338 1.4639-.1 1.6253-.086 2.36.172 4.1693-2.32 4.1693-4.564v-.003c0-3.1227-2.8067-4.8694-5.544-4.4641-1.4147.212-2.4547 1.08-3.3027 2.1254-.7973.9837-.9933.3493-.8853-.2947.5093-2.98 1.8667-4.6707 4.3933-5.4627.252-.0813 1.3147-.3214.3427-.3214h-5.0093z" fill="#46464e"/><path d="m15.3775 101.56c0-3.1227 2.8054-4.8721 5.544-4.4641 1.4147.212 2.456 1.0787 3.3 2.1254.7987.9837.9973.3493.888-.2947-.508-2.98-1.8653-4.6707-4.3933-5.4627-.252-.0813-1.316-.3214-.3467-.3214h10.068c.9706 0-.092.2401-.3427.3214-2.5266.792-3.8853 2.4827-4.3933 5.4627-.1094.644.0867 1.2784.8853.2947.8467-1.0467 1.8854-1.9134 3.3027-2.1254 2.7373-.4053 5.544 1.3414 5.544 4.4641v.003c0 2.244-1.8093 4.736-4.1693 4.564-.1627-.014-1.2787-.252-1.6254.086-.504.491.1987.854.2507 1.968v.003c.076 2.657-1.7507 4.077-3.7893 4.335v-.003c0 .003-.4427.057-.6414.057-.3626.004-.652-.05-.7506-.057v.003c-2.036-.258-3.864-1.68-3.7867-4.335v-.003c.052-1.114.752-1.477.2507-1.968-.3454-.338-1.4667-.096-1.6254-.086-2.3573.172-4.1693-2.32-4.1693-4.564z" fill="#302f36"/><path d="m25.4269 112.573h.0319c.1987 0 .6414-.054.6414-.057v.003c2.0386-.258 3.8653-1.678 3.7893-4.335v-.003c-.052-1.114-.7547-1.477-.2507-1.968.3467-.338 1.4627-.1 1.6254-.086 2.36.172 4.1693-2.32 4.1693-4.564v-.003c0-3.1227-2.8067-4.8694-5.544-4.4641-1.4173.212-2.456 1.08-3.3027 2.1254-.7986.9837-.9947.3493-.8853-.2947.508-2.98 1.8667-4.6707 4.3933-5.4627.2507-.0813 1.3133-.3214.3427-.3214h-5.0106z" fill="#46464e"/><path d="m57.3188 68.8612c0-3.124 2.8067-4.8719 5.5453-4.4653 1.4134.2134 2.4561 1.0813 3.2987 2.1267.8.984.9987.3507.888-.296-.5067-2.9787-1.864-4.6694-4.392-5.46-.2533-.084-1.316-.3227-.3467-.3227h10.0667c.972 0-.0907.2387-.3427.3227-2.5266.7906-3.884 2.4813-4.3933 5.46-.108.6467.088 1.28.8853.296.848-1.0454 1.888-1.9133 3.3027-2.1267 2.7373-.4026 5.544 1.3413 5.544 4.4653v.0041c0 2.2426-1.8093 4.736-4.1693 4.564-.1614-.0134-1.2787-.2547-1.6253.0853-.5027.4893.1999.8533.2506 1.968v.004c.076 2.6573-1.748 4.076-3.7893 4.3347v-.0041c0 .004-.4427.0587-.6401.0587-.364.0027-.6519-.052-.7519-.0587v.0041c-2.036-.2587-3.864-1.6814-3.7854-4.3347v-.004c.052-1.1147.752-1.4787.2507-1.968-.3467-.34-1.468-.096-1.6253-.0853-2.3587.172-4.1707-2.3214-4.1707-4.564z" fill="#302f36"/><path d="m67.3695 79.8759h.0319c.1974 0 .6401-.0547.6401-.0587v.0041c2.0413-.2587 3.8653-1.6774 3.7893-4.3347v-.004c-.0507-1.1147-.7533-1.4787-.2506-1.968.3466-.34 1.4639-.0987 1.6253-.0853 2.36.172 4.1693-2.3214 4.1693-4.564v-.0041c0-3.124-2.8067-4.8679-5.544-4.4653-1.4147.2147-2.4547 1.0813-3.3027 2.1267-.7973.984-.9933.3507-.8853-.296.5093-2.9787 1.8667-4.6694 4.3933-5.46.252-.084 1.3147-.3227.3427-.3227h-5.0093z" fill="#46464e"/><path d="m15.3775 68.8612c0-3.124 2.8054-4.8719 5.544-4.4653 1.4147.2134 2.456 1.0813 3.3 2.1267.7987.984.9973.3507.888-.296-.508-2.9787-1.8653-4.6694-4.3933-5.46-.252-.084-1.316-.3227-.3467-.3227h10.068c.9706 0-.092.2387-.3427.3227-2.5266.7906-3.8853 2.4813-4.3933 5.46-.1094.6467.0867 1.28.8853.296.8467-1.0454 1.8854-1.9133 3.3027-2.1267 2.7373-.4026 5.544 1.3413 5.544 4.4653v.0041c0 2.2426-1.8093 4.736-4.1693 4.564-.1627-.0134-1.2787-.2547-1.6254.0853-.504.4893.1987.8533.2507 1.968v.004c.076 2.6573-1.7507 4.076-3.7893 4.3347v-.0041c0 .004-.4427.0587-.6414.0587-.3626.0027-.652-.052-.7506-.0587v.0041c-2.036-.2587-3.864-1.6814-3.7867-4.3347v-.004c.052-1.1147.752-1.4787.2507-1.968-.3454-.34-1.4667-.096-1.6254-.0853-2.3573.172-4.1693-2.3214-4.1693-4.564z" fill="#302f36"/><path d="m25.4269 79.8759h.0319c.1987 0 .6414-.0547.6414-.0587v.0041c2.0386-.2587 3.8653-1.6774 3.7893-4.3347v-.004c-.052-1.1147-.7547-1.4787-.2507-1.968.3467-.34 1.4627-.0987 1.6254-.0853 2.36.172 4.1693-2.3214 4.1693-4.564v-.0041c0-3.124-2.8067-4.8679-5.544-4.4653-1.4173.2147-2.456 1.0813-3.3027 2.1267-.7986.984-.9947.3507-.8853-.296.508-2.9787 1.8667-4.6694 4.3933-5.46.2507-.084 1.3133-.3227.3427-.3227h-5.0106z" fill="#46464e"/><path d="m57.3188 36.1639c0-3.124 2.8067-4.8733 5.5453-4.4653 1.4134.212 2.4561 1.0787 3.2987 2.1253.8.984.9987.3494.888-.2946-.5067-2.9787-1.864-4.6694-4.392-5.4627-.2533-.0814-1.316-.3214-.3467-.3214h10.0667c.972 0-.0907.24-.3427.3214-2.5266.7933-3.884 2.484-4.3933 5.4627-.108.644.088 1.2786.8853.2946.848-1.0466 1.888-1.9133 3.3027-2.1253 2.7373-.4053 5.544 1.3413 5.544 4.4653v.0027c0 2.2426-1.8093 4.7347-4.1693 4.5627-.1614-.012-1.2787-.252-1.6253.0866-.5027.4907.1999.8533.2506 1.968v.0027c.076 2.6573-1.748 4.0773-3.7893 4.3347v-.0027c0 .0027-.4427.0573-.6401.0573-.364.004-.6519-.0506-.7519-.0573v.0027c-2.036-.2574-3.864-1.6787-3.7854-4.3347v-.0027c.052-1.1147.752-1.4773.2507-1.968-.3467-.3386-1.468-.0946-1.6253-.0866-2.3587.172-4.1707-2.3201-4.1707-4.5627z" fill="#302f36"/><path d="m67.3695 47.1759c.0106 0 .0213.0013.0319 0 .1974 0 .6401-.0546.6401-.0573v.0027c2.0413-.2574 3.8653-1.6761 3.7893-4.3347v-.0027c-.0507-1.1147-.7533-1.4773-.2506-1.968.3466-.3386 1.4639-.0986 1.6253-.0866 2.36.172 4.1693-2.3201 4.1693-4.5627v-.0027c0-3.124-2.8067-4.8706-5.544-4.4653-1.4147.212-2.4547 1.08-3.3027 2.1253-.7973.984-.9933.3494-.8853-.2946.5093-2.9787 1.8667-4.6694 4.3933-5.4627.252-.0814 1.3147-.3214.3427-.3214h-5.0093z" fill="#46464e"/><path d="m15.3775 36.1639c0-3.124 2.8054-4.8733 5.544-4.4653 1.4147.212 2.456 1.0787 3.3 2.1253.7987.984.9973.3494.888-.2946-.508-2.9787-1.8653-4.6694-4.3933-5.4627-.252-.0814-1.316-.3214-.3467-.3214h10.068c.9706 0-.092.24-.3427.3214-2.5266.7933-3.8853 2.484-4.3933 5.4627-.1094.644.0867 1.2786.8853.2946.8467-1.0466 1.8854-1.9133 3.3027-2.1253 2.7373-.4053 5.544 1.3413 5.544 4.4653v.0027c0 2.2426-1.8093 4.7347-4.1693 4.5627-.1627-.012-1.2787-.252-1.6254.0866-.504.4907.1987.8533.2507 1.968v.0027c.076 2.6573-1.7507 4.0773-3.7893 4.3347v-.0027c0 .0027-.4427.0573-.6414.0573-.3626.004-.652-.0506-.7506-.0573v.0027c-2.036-.2574-3.864-1.6787-3.7867-4.3347v-.0027c.052-1.1147.752-1.4773.2507-1.968-.3454-.3386-1.4667-.0946-1.6254-.0866-2.3573.172-4.1693-2.3201-4.1693-4.5627z" fill="#302f36"/><path d="m25.4269 47.1759c.0106 0 .0226.0013.0319 0 .1987 0 .6414-.0546.6414-.0573v.0027c2.0386-.2574 3.8653-1.6761 3.7893-4.3347v-.0027c-.052-1.1147-.7547-1.4773-.2507-1.968.3467-.3386 1.4627-.0986 1.6254-.0866 2.36.172 4.1693-2.3201 4.1693-4.5627v-.0027c0-3.124-2.8067-4.8706-5.544-4.4653-1.4173.212-2.456 1.08-3.3027 2.1253-.7986.984-.9947.3494-.8853-.2946.508-2.9787 1.8667-4.6694 4.3933-5.4627.2507-.0814 1.3133-.3214.3427-.3214h-5.0106z" fill="#46464e"/><path d="m15.3108 23.3852c0 1.6174-1.452 2.5227-2.8707 2.312-.732-.1106-1.2719-.5599-1.7079-1.1013-.4147-.5093-.5188-.1814-.4614.152.2626 1.544.9667 2.4187 2.2747 2.8293.132.0427.6826.168.18.168h-5.21468c-.50133 0 .04798-.1253.17865-.168 1.308-.4106 2.01067-1.2853 2.27467-2.8293.05736-.3334-.04532-.6613-.45866-.152-.43866.5414-.97597.9907-1.70931 1.1013-1.41866.2094-2.87337-.6946-2.87337-2.312v-.0013c0-1.1614.93869-2.4533 2.16003-2.3653.084.008.66397.132.84264-.044.26133-.2534-.10396-.4427-.1293-1.02v-.0014c-.04-1.376.90533-2.112 1.96133-2.244v.0014c0-.0014.2293-.0307.332-.0307.1893-.0027.3373.0267.3893.0307v-.0014c1.0547.132 2.0013.8693 1.9613 2.244v.0014c-.0266.5773-.3893.7666-.1306 1.02.18.176.7613.0493.8413.044 1.2227-.088 2.16 1.2039 2.16 2.3653z" fill="#302f36"/><path d="m10.1055 17.6799c-.0053 0-.0107 0-.016 0-.10268 0-.33198.0293-.33198.0307v-.0014c-1.056.132-2.00133.868-1.96133 2.244v.0014c.02533.5773.39063.7666.1293 1.02-.17867.176-.75865.052-.84265.044-1.22133-.088-2.16002 1.204-2.16002 2.3653v.0014c0 1.6173 1.4547 2.5213 2.87337 2.3119.73333-.1106 1.27064-.5599 1.70931-1.1013.41333-.5093.516-.1813.45866.152-.264 1.544-.96668 2.4187-2.27468 2.8293-.13066.0427-.67998.168-.17864.168h2.59466z" fill="#46464e"/><path d="m77.3562 116.935c0-1.619 1.452-2.524 2.872-2.314.7306.111 1.2706.56 1.708 1.102.4146.509.5173.181.46-.154-.2627-1.542-.9667-2.417-2.2747-2.829-.132-.041-.6827-.167-.18-.167h5.2147c.5026 0-.048.126-.1787.167-1.308.412-2.0107 1.287-2.2747 2.829-.0573.335.0454.663.4587.154.4387-.542.9773-.991 1.7107-1.102 1.4173-.209 2.872.695 2.872 2.314v.001c0 1.161-.9387 2.453-2.1601 2.364-.084-.008-.6626-.132-.8413.044-.2627.255.1027.443.1294 1.02v.001c.04 1.376-.9054 2.112-1.9627 2.246v-.002c0 .002-.2293.03-.332.03-.188.002-.3373-.027-.388-.03v.002c-1.056-.134-2.0027-.871-1.9613-2.246v-.001c.0253-.577.388-.765.1293-1.02-.1786-.176-.7613-.049-.8413-.044-1.2227.089-2.16-1.203-2.16-2.364z" fill="#302f36"/><path d="m82.5615 122.639h.016c.1027 0 .332-.028.332-.03v.002c1.0573-.134 2.0027-.87 1.9627-2.246v-.001c-.0267-.577-.3921-.765-.1294-1.02.1787-.176.7573-.052.8413-.044 1.2214.089 2.1601-1.203 2.1601-2.364v-.001c0-1.619-1.4547-2.523-2.872-2.314-.7334.111-1.272.56-1.7107 1.102-.4133.509-.516.181-.4587-.154.264-1.542.9667-2.417 2.2747-2.829.1307-.041.6813-.167.1787-.167h-2.5947z" fill="#46464e"/><g fill="#302f36"><path d="m78.7409 136.112 4.2735-9.582h1.3748l-4.2592 9.241h5.5845v1.078h-6.9736z"/><path d="m13.9261 4.20816-4.27343 9.58164h-1.37488l4.25931-9.24147h-5.58457v-1.07722h6.97357z"/><path d="m36.3055 86.7705c0-3.124 2.8053-4.8733 5.5453-4.4653 1.412.212 2.4547 1.08 3.2987 2.1254.7987.984.9973.3493.8867-.2947-.5067-2.9787-1.864-4.6693-4.392-5.4627-.2534-.0813-1.316-.3213-.3453-.3213h10.0666c.9707 0-.092.24-.3413.3213-2.528.7934-3.8854 2.484-4.3934 5.4627-.1093.644.0853 1.2787.884.2947.8467-1.0454 1.8867-1.9134 3.3014-2.1254 2.7373-.4053 5.5453 1.3413 5.5453 4.4653v.0027c0 2.2427-1.8093 4.7347-4.168 4.5627-.164-.012-1.28-.252-1.6267.0867-.504.4906.1987.8547.2494 1.968v.0027c.0773 2.6586-1.7481 4.0773-3.7881 4.3346v-.0027c0 .0027-.444.0574-.6413.0574-.3627.004-.6506-.0507-.7506-.0574v.0027c-2.0374-.2573-3.8641-1.6786-3.7854-4.3346v-.0027c.052-1.1133.7507-1.4774.2494-1.968-.3454-.3387-1.4667-.0947-1.6254-.0867-2.3586.172-4.1693-2.32-4.1693-4.5627z"/></g><path d="m46.3561 97.7826c.0094 0 .02.0013.0307 0 .1973 0 .6413-.0547.6413-.0574v.0027c2.04-.2573 3.8654-1.6746 3.7881-4.3346v-.0027c-.0507-1.1133-.7534-1.4774-.2494-1.968.3467-.3387 1.4627-.0987 1.6267-.0867 2.3587.172 4.168-2.32 4.168-4.5627v-.0027c0-3.124-2.808-4.8706-5.5453-4.4653-1.4147.212-2.4547 1.0814-3.3014 2.1254-.7987.984-.9933.3493-.884-.2947.508-2.9787 1.8654-4.6693 4.3934-5.4627.2493-.0813 1.312-.3213.3413-.3213h-5.0094z" fill="#46464e"/></svg>