<svg fill="none" height="140" viewBox="0 0 92 140" width="92" xmlns="http://www.w3.org/2000/svg"><path d="m-.00000287 3.67668c0-2.03075 1.62110287-3.67668 3.62154287-3.67668h84.75556c2.0004 0 3.6229 1.64593 3.6229 3.67668v132.64632c0 2.031-1.6225 3.677-3.6229 3.677h-84.75556c-2.00044 0-3.62154287-1.646-3.62154287-3.677z" fill="#fff"/><g fill="#302f36"><path d="m77.7563 131.259c0-.997.1583-1.857.4749-2.58.3165-.718.7606-1.28 1.3323-1.686l-1.8426-1.446.9284-.858 2.1757 1.73c.3402-.085.6993-.128 1.0772-.128.8127 0 1.5332.198 2.1616.595.6283.402 1.1173.971 1.467 1.708.3449.742.522 1.6.5315 2.573v.744c0 .992-.1725 1.869-.5174 2.629-.3449.761-.8315 1.342-1.4599 1.744-.6331.406-1.356.609-2.1686.609-.8315 0-1.5615-.201-2.1899-.602-.6331-.402-1.1197-.981-1.4599-1.737-.3402-.751-.5103-1.63-.5103-2.636zm1.3607.666c0 1.214.2434 2.15.73 2.807.4819.661 1.1717.992 2.0694.992.8552 0 1.5308-.329 2.0269-.985.4913-.652.7441-1.559.7583-2.722v-.758c0-1.181-.2457-2.112-.7371-2.792-.4961-.681-1.1835-1.021-2.0623-1.021s-1.5591.319-2.041.957c-.4819.643-.73 1.561-.7442 2.757z"/><path d="m13.5052 8.86629c0 .9969-.1583 1.85681-.4748 2.57971-.3166.7181-.7607 1.2803-1.3324 1.6867l1.8426 1.4457-.9284.8575-2.1757-1.7292c-.3402.085-.69923.1276-1.0772.1276-.81264 0-1.53315-.1985-2.16153-.5953-.62838-.4016-1.11738-.971-1.467-1.708-.3449-.7418-.52208-1.5993-.53153-2.57258v-.74413c0-.99218.17245-1.8686.51735-2.62927s.83154-1.3418 1.45992-1.7434c.6331-.40632 1.35598-.60948 2.16862-.60948.83157 0 1.56147.2008 2.18987.6024.6331.40159 1.1197.98036 1.4599 1.73631.3402.75122.5103 1.63.5103 2.63635zm-1.3607-.66617c0-1.21424-.2433-2.14972-.73-2.80645-.4819-.66145-1.1717-.99217-2.06937-.99217-.85517 0-1.53079.32836-2.02688.98509-.49136.652-.74413 1.55913-.75831 2.7214v.7583c0 1.18121.24569 2.11191.73705 2.79231.49609.6803 1.18352 1.0205 2.06231 1.0205.8788 0 1.5591-.3189 2.041-.9568.482-.6425.73-1.5615.7442-2.75679z"/><path d="m14.6654 23.2893c0 1.62-1.452 2.5227-2.8706 2.312-.732-.1093-1.2721-.56-1.7094-1.1013-.41332-.508-.51731-.18-.45998.1533.26267 1.544.96538 2.42 2.27598 2.828.1294.0453.6814.1667.1787.1667h-5.21467c-.50267 0 .04934-.1214.17734-.1667 1.30933-.408 2.01198-1.284 2.27464-2.828.05734-.3333-.04399-.6613-.45732-.1533-.44.5413-.97598.992-1.71065 1.1013-1.41733.2107-2.872-.692-2.872-2.312v-.0027c0-1.1613.93866-2.4506 2.15999-2.3626.084.008.66268.1306.84268-.044.26-.2547-.10267-.4427-.13067-1.02-.03866-1.3787.90667-2.112 1.96267-2.248v.0026c0-.0026.22933-.032.33199-.032.18934 0 .33733.0294.38933.032v-.0026c1.05467.136 2.00137.872 1.96137 2.248-.028.5773-.3894.7653-.1307 1.02.18.1746.76.0493.8427.044 1.2213-.088 2.1586 1.2013 2.1586 2.3626z"/></g><path d="m9.46144 17.5826c-.00667 0-.01065 0-.01732 0-.10267 0-.332.0294-.332.032v-.0026c-1.056.136-2.00133.8693-1.96266 2.248.028.5773.39066.7653.13066 1.02-.18.1746-.75867.052-.84267.044-1.22133-.088-2.15999 1.2013-2.15999 2.3626v.0027c0 1.62 1.45467 2.5227 2.872 2.312.73467-.1093 1.27064-.56 1.71064-1.1013.41334-.508.51466-.18.45733.1533-.26267 1.544-.96531 2.42-2.27464 2.828-.128.0453-.68001.1667-.17735.1667h2.596z" fill="#46464e"/><path d="m76.7094 116.839c0-1.618 1.4534-2.524 2.8734-2.312.7306.109 1.2706.558 1.708 1.101.4133.511.516.179.4586-.155-.2626-1.541-.9653-2.418-2.2746-2.828-.1307-.041-.6814-.166-.1787-.166h5.2147c.5026 0-.048.125-.1774.166-1.3093.41-2.0133 1.287-2.276 2.828-.0573.334.044.666.4587.155.4387-.543.976-.992 1.7107-1.101 1.416-.21 2.8706.694 2.8706 2.312v.002c0 1.162-.9373 2.454-2.1586 2.364-.084-.008-.6627-.132-.8427.044-.26.254.1027.444.1307 1.019v.003c.0386 1.374-.9067 2.112-1.964 2.245v-.003c0 .003-.2294.031-.3307.031-.188 0-.3387-.025-.3893-.031v.003c-1.056-.133-2.0027-.871-1.96-2.245v-.003c.0266-.575.3893-.765.128-1.019-.1787-.176-.76-.052-.8414-.044-1.2213.09-2.16-1.202-2.16-2.364z" fill="#302f36"/><path d="m81.9161 122.544h.016c.1013 0 .3307-.028.3307-.031v.003c1.0573-.133 2.0026-.871 1.964-2.245v-.003c-.028-.575-.3907-.765-.1307-1.019.18-.176.7587-.052.8427-.044 1.2213.09 2.1586-1.202 2.1586-2.364v-.002c0-1.618-1.4546-2.522-2.8706-2.312-.7347.109-1.272.558-1.7107 1.101-.4147.511-.516.179-.4587-.155.2627-1.541.9667-2.418 2.276-2.828.1294-.041.68-.166.1774-.166h-2.5947z" fill="#46464e"/><path d="m44.8601 78.0466h-5.4173v1.836h5.4173z" fill="#35346f"/><path d="m45.3308 79.8826h-5.416v1.8334h5.416z" fill="#a22735"/><path d="m46.1321 81.716h-5.4173v1.8333h5.4173z" fill="#35346f"/><path d="m46.6028 83.5493h-5.4161v1.8333h5.4161z" fill="#a22735"/><path d="m47.4041 85.3826h-5.4187v1.836h5.4187z" fill="#35346f"/><path d="m47.8748 87.2186h-5.4174v1.8334h5.4174z" fill="#a22735"/><path d="m48.6748 89.052h-5.4174v1.8333h5.4174z" fill="#35346f"/><path d="m45.3308 77.972 3.964 10.2707 10.28.7239-5.8867-11.7666z" fill="#302f36"/><path d="m32.5414 78.628-1.4386 11.3586 10.4733-.4759.1707-4.1854-3.6054-7.4507z" fill="#302f36"/><path d="m44.4748 90.2026-4.648-12.0279-3.412.4533s4.7773 6.2866 4.0306 8.6746c-.748 2.388-6.2693.9401-6.2693.9401l-2.3693 4.2333z" fill="#181419"/><path d="m43.7281 77.8746 4.5427 12.2014 11.6013.8666-1.532-3.4693s-6.3147 1.1933-8.1493-.2987c-1.8334-1.492-3.5827-9.128-3.5827-9.128z" fill="#181419"/><path d="m54.9214 73.56c-9.4706-.412-23.1146.8227-23.1146.8227v4.2453s13.644-1.232 23.1146-.8213" fill="#181419"/><path d="m31.8068 78.628s13.644-1.232 23.1146-.8214" stroke="#9c6c3e" stroke-miterlimit="10" stroke-width="7.6771"/><path d="m31.8068 74.3827s13.644-1.2347 23.1146-.8227" stroke="#9c6c3e" stroke-miterlimit="10" stroke-width="7.6771"/><path d="m24.3001 87.1533 6.5227 5.9894s5.1493-2.6614 4.5306-7.952c-.62-5.2947-3.4746-7.1441-3.4746-7.1441z" fill="#d1d7ec"/><path d="m24.3001 87.148 5.8013 5.328s4.5787-2.3667 4.028-7.072c-.5493-4.7093-3.0893-6.3547-3.0893-6.3547z" fill="#181419"/><path d="m24.3001 87.14 4.8413 4.448s3.8227-1.976 3.3627-5.9027c-.46-3.9307-2.5787-5.3027-2.5787-5.3027z" fill="#35346f"/><path d="m46.4028 62.0813h5.4159v-1.8333h-5.4159z" fill="#35346f"/><path d="m45.9308 60.248h5.4186v-1.836h-5.4186z" fill="#a22735"/><path d="m45.1308 58.412h5.4173v-1.8334h-5.4173z" fill="#35346f"/><path d="m44.6601 56.5786h5.4173v-1.8333h-5.4173z" fill="#a22735"/><path d="m43.8601 54.7453h5.416v-1.8333h-5.416z" fill="#35346f"/><path d="m43.3881 52.912h5.4173v-1.8334h-5.4173z" fill="#a22735"/><path d="m42.5881 51.0786h5.416v-1.836h-5.416z" fill="#35346f"/><path d="m45.9308 62.156-3.9627-10.268-10.28-.7267 5.8867 11.7653z" fill="#302f36"/><path d="m58.7201 61.5 1.4387-11.36-10.4721.48-.1693 4.1826 3.6027 7.4494z" fill="#302f36"/><path d="m46.7867 49.924 4.6481 12.0293 3.4133-.4533s-4.7774-6.2867-4.0307-8.6747 6.2693-.9373 6.2693-.9373l2.3681-4.2347z" fill="#181419"/><path d="m47.5334 62.252-4.5426-12.1973-11.6014-.8694 1.532 3.468s6.316-1.192 8.1507.3 3.5813 9.128 3.5813 9.128z" fill="#181419"/><path d="m36.3414 66.568c9.4694.4106 23.1134-.8227 23.1134-.8227v-4.2453s-13.644 1.2346-23.1134.8226" fill="#181419"/><path d="m59.4548 61.5s-13.644 1.2346-23.1134.8226" stroke="#9c6c3e" stroke-miterlimit="10" stroke-width="7.6771"/><path d="m59.4548 65.7453s-13.644 1.2333-23.1134.8227" stroke="#9c6c3e" stroke-miterlimit="10" stroke-width="7.6771"/><path d="m11.9228 44.328c1.8733-.604 3.8533-.9293 5.904-.9293 11.5106 0 20.8413 10.2079 20.8413 22.7986 0 12.592-9.3307 22.8-20.8413 22.8-2.0507 0-4.0307-.3253-5.904-.9293z" fill="#dee4f5"/><path d="m11.9228 45.3227c1.8666-.6294 3.848-.9707 5.904-.9707 11.0306 0 19.9706 9.7813 19.9706 21.8453 0 12.0653-8.94 21.8467-19.9706 21.8467-2.056 0-4.0374-.3413-5.904-.9707z" fill="#d1d7ec"/><path d="m11.9228 50.068c1.8266-.8027 3.8173-1.2453 5.904-1.2453 8.772 0 15.8826 7.7786 15.8826 17.3746 0 9.5974-7.1106 17.376-15.8826 17.376-2.0867 0-4.0774-.4427-5.904-1.2453z" fill="#9c6c3e"/><path d="m11.9228 51.904c1.8013-.8933 3.7986-1.3933 5.904-1.3933 7.92 0 14.3386 7.0226 14.3386 15.6866s-6.4186 15.688-14.3386 15.688c-2.1054 0-4.1027-.5-5.904-1.3933z" fill="#ae8f42"/><path d="m11.9228 57.2266c1.6613-1.3106 3.7-2.0866 5.904-2.0866 5.5826 0 10.1066 4.9506 10.1066 11.0573 0 6.108-4.524 11.0573-10.1066 11.0573-2.204 0-4.2427-.776-5.904-2.0853z" fill="#dee4f5"/><path d="m11.9228 57.9293c1.628-1.3933 3.6773-2.2266 5.904-2.2266 5.2973 0 9.592 4.7013 9.592 10.4946 0 5.7947-4.2947 10.496-9.592 10.496-2.2267 0-4.276-.8333-5.904-2.2267z" fill="#302f36"/><path d="m11.9228 64.5986c.3346-.2186.6626-.4453.984-.6826.3266-.2414.6466-.492.9586-.7494l.0014-.0026c.3106-.2574.6133-.524.9093-.8.0013-.0027.004-.0027.0067-.004.292-.2747.576-.5534.852-.8414.0053-.0053.0119-.0133.0186-.0186.0373.2973.08.5933.1307.888.008.052.02.104.028.1533.0427.2373.0867.472.136.704.0013.0067.0026.0147.0053.02.0174.0867.0387.1693.0587.256.0413.1787.0827.3613.128.5387.0107.036.02.0706.0293.1066.0214.0827.0467.1667.0707.252.0467.1694.0946.3414.1453.5107.0107.0347.0214.068.0307.0987.028.0866.056.1693.084.256.056.172.112.344.172.5133.0387.1093.0813.2187.1227.328.0613.164.1213.3253.1866.4867.0467.112.0947.224.1414.3333.0666.156.132.312.2026.4667.0507.1146.1054.224.1574.336.072.148.144.2986.2173.4466.0573.112.116.2214.1747.332.0666.1267.1346.252.2026.3747.0134.0253.0267.052.0413.0747.0587.1066.1201.2093.1801.3133.0626.1093.1266.216.1906.3227.0374.06.0747.1226.112.18.0494.08.0987.1613.1493.2386.0747.1174.1507.2294.2254.344.0533.0814.1093.1614.164.2427.032.044.0613.0907.0947.1347.088.128.18.256.272.3813.0893.1213.18.2413.2706.3587.0854.1146.172.224.26.336.0427.052.0854.1013.128.156.0747.092.1507.1826.228.2733.0654.0787.1307.1573.1974.232.064.076.1306.1493.1959.224.1067.12.2161.2373.3241.3547.02.02.0386.0413.0573.0626.0867.0907.1733.1814.2613.2707.1347.1373.2694.2733.4094.408.072.068.1426.1413.216.2093.056.052.1133.1014.1693.156.124.1147.2493.2267.3773.3414.032.0253.0627.0546.0934.0826.0906.0787.184.156.2773.232.1427.1227.2853.24.4333.3574.1067.0853.216.172.3254.2546.104.0787.2066.1587.312.2347.128.0933.2586.1867.388.276.104.0747.2093.1507.3186.2213.132.0907.268.1774.4013.2654.108.068.2147.1386.3241.2026.1386.0867.2786.1694.4186.2507.1094.0653.2174.1307.328.1893.144.0814.2907.16.436.2374.1094.0573.2187.1146.328.172.1533.0786.3067.148.46.224.108.0493.2147.104.3227.1533.164.0733.328.144.4933.2133.1027.0454.204.0894.3067.1307.1827.076.368.144.5547.2107.0866.0346.1733.0706.26.1.2386.0853.4786.164.7213.2413.036.0107.0733.024.1093.0373.2814.0854.5654.1667.852.2414.0427.0106.0854.0213.128.032.2414.0626.4854.1186.7294.1733.0906.0187.18.0347.2706.0533.2.0387.4.08.6027.1134.1053.0186.2133.032.3187.0506.504.0747 1.0106.1374 1.524.176-3.792 5.672-9.9174 9.3547-16.832 9.3547-2.0427 0-4.0174-.3227-5.884-.924z" fill="#9c6c3e"/><path d="m11.9228 66.172c.2146-.6934.5066-1.2267.908-1.5214.7493-.8093 1.7626-1.4266 2.5386-2.236 1.1 8.8614 8.6294 17.3254 17.552 18.0094-4.996 7.4693-20.4093 13.224-20.9986 1.1253z" fill="#ae8f42"/><path d="m50.1521 24.3333s6.904 15.2574 5.8347 20.1747c-1.068 4.9133-10.896-9-10.896-9z" fill="#181419"/><path d="m44.2201 10.3613s10.9693 2.628 16.0013 17.8134c5.0334 15.1826 2.7307 21.0106 2.7307 21.0106l-7.6467-5.3493s.7014-7.1747-4.5453-19.5867c-5.2453-12.4106-6.54-11.2773-6.54-11.2773z" fill="#302f36"/><path d="m37.9347 11.6933s10.9694 2.6267 16.0014 17.812c5.0333 15.1827 2.6173 17.924 2.6173 17.924l-2.2173-.4893s2.7986-4.9373-2.4467-17.352c-5.2467-12.4107-13.9547-15.2853-13.9547-15.2853z" fill="#ae8f42"/><path d="m11.9228 65.4867v-14.8747l7.66-7.0907 7.7973 4.4507z" fill="#35346f"/><path d="m29.0548 48.3253s-16.724 19.256-17.132 19.4693v-2.98l14.008-16.8426z" fill="#181419"/><path d="m54.7614 42.552 6.8253 5.2026s-19.7893 7.204-42.9066-1.664l5.532-6.8226z" fill="#9c6c3e"/><path d="m53.3988 41.4787 6.8226 5.2066s-18.424 6.812-41.5413-2.052l5.532-6.8266z" fill="#ae8f42"/><path d="m48.5628 35.576c0 .1347 1.252 3.7733 4.836 5.9027 0 0-18.024 3.2506-29.1867-2.2134 0 0 1.7187-11.0653 7.0933-8.776 5.3734 2.2894 17.2574 5.0867 17.2574 5.0867z" fill="#d1d7ec"/><path d="m50.5641 21.4453s.4533 4.036 0 4.636c-.4547.596-.5387 1.064-.3693 2.0493.1706.9814.1706 5.7214-.5974 6.7467-.768 1.024-4.0146 7.216-6.236 7.2614-2.22.0413-11.5733-3.8027-11.7013-8.8 0 0-.684.8986-1.5786.3853-.8987-.5133-1.0267-4.2267-1.0267-4.2267s7.652-16.7 15.1653-15.9733c0 0 6.3693 4.5666 6.344 7.9213z" fill="#dee4f5"/><path d="m44.2201 10.3613s-7.9467-2.12933-14.136 4.464c-6.188 6.5933-12.9867 22.4227-18.1613 24.1467v6.536s12.5813-6.432 15.6253-16.3774c3.044-9.9426 16.672-18.7693 16.672-18.7693z" fill="#181419"/><path d="m44.2201 13.8547s-2.0347 8.952-10.76 9.2573c-2.4347-2.3333 5.5747-9.2573 5.5747-9.2573s1.6533-1.3134 5.1853-.8827z" fill="#c57135"/><path d="m44.2201 12.972s-8.44 2.1667-15.4387 19.388c-11.8853 19.2-16.8586 18.252-16.8586 18.252v-5.104s8.624-6.94 13.9-16.48c5.276-9.536 8.7906-18.6667 18.3973-18.6667z" fill="#302f36"/><path d="m44.2201 10.3613s10.9693 2.628 16.0013 17.8134c5.0334 15.1826 2.7307 21.0106 2.7307 21.0106l-2.0173-1.2133s2.4853-7.3-2.76-19.7147c-5.2467-12.4106-13.9547-15.2853-13.9547-15.2853z" fill="#ae8f42"/><path d="m44.2201 13.8547s1.348 5.7653 6.5547 7.6719c0 0 1.6266-9.3906-6.5547-8.5546z" fill="#af6734"/><path d="m66.9628 52.976-6.524-5.992s-5.148 2.6613-4.528 7.9533c.6173 5.2947 3.472 7.144 3.472 7.144z" fill="#d1d7ec"/><path d="m66.9628 52.9786-5.8027-5.3253s-4.5773 2.3653-4.0267 7.0733c.5507 4.7054 3.088 6.352 3.088 6.352z" fill="#181419"/><path d="m66.9628 52.9866-4.8427-4.4453s-3.8213 1.9747-3.3613 5.9013c.4586 3.9294 2.5786 5.3027 2.5786 5.3027z" fill="#35346f"/><path d="m50.5854 25.4786s-1.0253-.2707-2.052-.232c-.256.016-.5093.0267-.744.0653-.2333.0254-.4613-.0173-.6506.0081-.3827.012-.6694-.0427-.6694-.0427l-.0146-.0494c.0013 0 .228-.1599.6173-.3093.3867-.1533.9467-.18 1.4827-.0813.5373.064 1.0613.192 1.4373.3347.3773.1346.612.26.612.26z" fill="#c57135"/><path d="m37.9268 25.212s.316-.1307.812-.272c.4933-.148 1.1706-.28 1.8586-.348.3454-.032.692-.0867 1.0187-.064.3267.0253.6293.06.88.1453.504.16.8133.3347.8133.3347l-.012.0573s-.36.068-.86.068c-.248-.0227-.5426.0253-.8493.0013-.308-.0413-.6387-.0546-.972-.076-1.3347-.048-2.672.2094-2.672.2094z" fill="#c57135"/><path d="m42.5228 26.7653s-.2254.1507-.6067.2867c-.1933.056-.42.1347-.6707.168-.2506.0267-.52.0707-.7906.0613-.54-.0053-1.0774-.112-1.4547-.252-.3773-.1493-.6147-.264-.6147-.264s.2707.024.6574.084c.1893.0507.4213.0414.66.0694.24.0386.4973.04.7546.0333.5147.0267 1.0267-.0387 1.4147-.08.388-.0467.6507-.1067.6507-.1067z" fill="#333558"/><path d="m46.9174 26.7653s.2054.0654.5107.116c.3053.0467.708.116 1.1107.0894.2026.0066.4053.0013.592-.036.188-.028.372-.0241.5186-.0747.3027-.064.5187-.0947.5187-.0947s-.18.108-.472.252c-.2893.1334-.72.24-1.1547.244-.2173.012-.432-.0333-.6333-.0586-.2-.036-.3787-.1094-.528-.1654-.2973-.1306-.4627-.272-.4627-.272z" fill="#333558"/><path d="m44.5228 36.8253s-.8934.5547-2.1614 0z" fill="#dee4f5"/><path d="m44.5228 36.8253s-.1027.104-.3.204c-.1.0387-.2174.0987-.352.12-.136.0227-.2814.0494-.428.044-.2934-.0053-.5814-.0853-.772-.184-.1934-.1026-.3094-.184-.3094-.184s.148.012.352.0454c.2014.0306.4694.08.7334.0666.2653.024.5293-.0213.7333-.044.2027-.0293.3427-.068.3427-.068z" fill="#333558"/><path d="m46.0121 35.2786s-1.2853.1374-2.5693.128c-1.284.0094-2.5694-.128-2.5694-.128s1.2854-.1386 2.5694-.128c1.284-.0106 2.5693.128 2.5693.128z" fill="#333558"/><path d="m45.4108 32.3666s-.008.048-.0454.1254c-.0346.0786-.0933.1933-.2013.2973-.1067.1067-.244.2187-.416.2933-.164.1027-.3627.124-.5507.1907-.1933.0387-.3893.0333-.5706.052-.1827.024-.3507-.0267-.4947-.0373-.2867-.0467-.472-.0934-.472-.0934s.1947-.0293.476-.052c.1413-.008.3053-.0066.476-.0386.1707-.0267.3587-.0347.5347-.08.1706-.052.364-.06.5106-.1427.1587-.0587.304-.1213.4134-.2013.2306-.1467.34-.3134.34-.3134z" fill="#333558"/><path d="m79.3388 95.8c-1.872.604-3.8534.9293-5.9027.9293-11.5107 0-20.8413-10.208-20.8413-22.8 0-12.5907 9.3306-22.7987 20.8413-22.7987 2.0493 0 4.0307.3254 5.9027.9294z" fill="#dee4f5"/><path d="m79.3388 94.8053c-1.8667.632-3.848.9707-5.9027.9707-11.0293 0-19.9707-9.7814-19.9707-21.8467 0-12.0654 8.9414-21.8467 19.9707-21.8467 2.0547 0 4.036.3413 5.9027.972z" fill="#d1d7ec"/><path d="m79.3388 90.06c-1.8254.8013-3.816 1.2466-5.9027 1.2466-8.7733 0-15.884-7.78-15.884-17.3773 0-9.596 7.1107-17.3747 15.884-17.3747 2.0867 0 4.0773.4454 5.9027 1.2454z" fill="#9c6c3e"/><path d="m79.3388 88.224c-1.8014.8933-3.7974 1.3933-5.9027 1.3933-7.92 0-14.3413-7.024-14.3413-15.688s6.4213-15.6867 14.3413-15.6867c2.1053 0 4.1013.5027 5.9027 1.3934z" fill="#ae8f42"/><path d="m79.3388 82.9013c-1.6614 1.3093-3.6987 2.0853-5.9027 2.0853-5.5813 0-10.108-4.9506-10.108-11.0573s4.5267-11.0547 10.108-11.0547c2.204 0 4.2413.7734 5.9027 2.084z" fill="#dee4f5"/><path d="m79.3388 82.1973c-1.628 1.3933-3.676 2.2267-5.9027 2.2267-5.2987 0-9.592-4.6974-9.592-10.4947 0-5.7933 4.2933-10.492 9.592-10.492 2.2267 0 4.2747.8307 5.9027 2.224z" fill="#302f36"/><path d="m79.3388 75.528c-.3334.22-.6614.4453-.9827.6826-.328.2427-.648.492-.9587.7507l-.0026.0027c-.3107.2573-.6134.5226-.9081.7986-.0026.0027-.0053.0054-.0079.0081-.2907.2706-.5734.5519-.8507.8386-.0067.008-.012.0133-.0187.0187-.036-.2974-.0813-.5947-.1306-.888-.008-.052-.0187-.104-.0281-.1547-.0426-.2333-.0879-.4707-.1373-.7027-.0013-.008-.0026-.0133-.004-.0213-.0173-.0853-.04-.168-.06-.252-.0413-.1827-.0826-.3613-.128-.5413-.0093-.0374-.0186-.0707-.028-.1067-.0213-.084-.048-.1667-.0693-.2507-.0493-.172-.096-.344-.148-.5133-.0107-.0307-.02-.064-.0307-.0987-.028-.0853-.056-.1693-.084-.2546-.056-.172-.1106-.3414-.172-.5134-.0386-.1093-.08-.2186-.1213-.328-.0613-.1613-.1227-.3253-.188-.4866-.0453-.112-.092-.2214-.1413-.3334-.0654-.156-.132-.3133-.2014-.4666-.052-.112-.1053-.224-.1586-.3334-.072-.1506-.1427-.3013-.2174-.4506-.0573-.112-.116-.2214-.1746-.3307-.0667-.1253-.1334-.252-.2014-.3747-.0133-.0266-.028-.052-.0426-.076-.0587-.104-.1174-.2079-.1774-.3119-.064-.1094-.128-.2161-.1933-.3227-.036-.06-.0733-.12-.1107-.18-.0493-.0814-.1-.1587-.1506-.24-.0747-.1147-.1494-.2294-.224-.344-.0547-.08-.1107-.1614-.1654-.2387-.032-.0467-.0613-.092-.0933-.1386-.0893-.1267-.18-.2547-.2733-.3801-.088-.1226-.1787-.2426-.2707-.3586-.0854-.112-.172-.224-.26-.3334-.0413-.0546-.0853-.1053-.128-.1573-.0733-.0933-.1507-.184-.228-.276-.064-.0773-.1293-.156-.196-.2306-.0653-.076-.1307-.1494-.1973-.2227-.1067-.1187-.2147-.2387-.3241-.356-.0186-.0214-.0386-.0414-.0573-.0627-.0866-.0907-.1733-.1827-.26-.2707-.1346-.1386-.2706-.2733-.4093-.4066-.072-.0707-.144-.14-.2173-.2107-.0547-.052-.112-.1013-.168-.1533-.124-.1173-.2494-.2294-.3774-.3414-.0306-.0293-.0626-.0573-.0933-.084-.092-.08-.1853-.156-.276-.2333-.1453-.1227-.288-.24-.4333-.3573-.1094-.0853-.2187-.1694-.328-.2547-.104-.0787-.2067-.1573-.3107-.2347-.128-.0933-.2573-.1853-.388-.2759-.1053-.076-.2107-.148-.3173-.2214-.1347-.092-.268-.1773-.4054-.2626-.1066-.0707-.2133-.1414-.3213-.2067-.1387-.0854-.2787-.1667-.42-.2494-.1093-.0626-.2173-.128-.328-.1906-.144-.08-.2907-.1587-.4373-.2347-.108-.06-.2174-.116-.3267-.1733-.152-.076-.3053-.1494-.46-.2214-.108-.0533-.2147-.1079-.3227-.1573-.1626-.072-.328-.1427-.492-.2133-.104-.0414-.204-.088-.3066-.1294-.184-.0733-.3694-.1439-.5547-.2119-.088-.0334-.172-.0667-.2613-.0987-.2387-.0853-.4787-.164-.7214-.2427-.036-.0093-.0733-.0227-.1093-.036-.2813-.0853-.5653-.1667-.852-.2427-.0413-.0093-.0853-.0173-.1267-.0306-.2426-.06-.4866-.12-.7306-.1747-.0894-.0173-.18-.0333-.2694-.052-.2013-.0387-.4013-.08-.6026-.1147-.1054-.0173-.2134-.0306-.32-.0466-.5027-.0787-1.0094-.14-1.5227-.18 3.792-5.6694 9.9173-9.3534 16.8307-9.3534 2.0426 0 4.0173.3254 5.884.9241z" fill="#9c6c3e"/><path d="m79.3388 73.956c-.2134.692-.5067 1.2267-.908 1.52-.7467.8107-1.7627 1.428-2.5387 2.2373-1.0987-8.8613-8.6293-17.3253-17.552-18.008 4.9973-7.4706 20.4107-13.2266 20.9987-1.1266z" fill="#ae8f42"/><path d="m79.3388 74.64v14.8786l-7.6574 7.0907-7.8-4.4533z" fill="#35346f"/><path d="m62.2068 91.8026s16.724-19.2533 17.132-19.4693v2.9813l-14.008 16.8414z" fill="#181419"/><path d="m41.1094 115.797s-6.9026-15.261-5.8346-20.1744c1.0693-4.9173 10.896 8.9974 10.896 8.9974z" fill="#181419"/><path d="m47.0428 129.768s-10.9694-2.629-16.0027-17.812c-5.032-15.1854-2.7293-21.0133-2.7293-21.0133l7.6466 5.3493s-.7026 7.175 4.544 19.585c5.2467 12.415 6.5414 11.279 6.5414 11.279z" fill="#302f36"/><path d="m53.3281 128.437s-10.9693-2.63-16.0027-17.812c-5.032-15.185-2.6173-17.9277-2.6173-17.9277l2.2173.4907s-2.7973 4.94 2.448 17.351c5.2454 12.412 13.9547 15.286 13.9547 15.286z" fill="#ae8f42"/><path d="m36.5001 97.576-6.824-5.204s19.7893-7.2027 42.9067 1.664l-5.5334 6.824z" fill="#9c6c3e"/><path d="m37.8641 98.648-6.824-5.2027s18.4253-6.8146 41.5427 2.052l-5.5334 6.8227z" fill="#ae8f42"/><path d="m42.7001 104.552c0-.136-1.2533-3.771-4.836-5.904 0 0 18.0227-3.2494 29.1853 2.213 0 0-1.7186 11.066-7.092 8.778-5.3746-2.29-17.2573-5.087-17.2573-5.087z" fill="#d1d7ec"/><path d="m40.6988 118.685s-.4534-4.04 0-4.636c.4533-.598.5386-1.068.368-2.052-.1707-.981-.1707-5.721.5986-6.748.768-1.022 4.0147-7.2157 6.2347-7.2597 2.22-.0413 11.5733 3.8027 11.7013 8.7997 0 0 .684-.898 1.5814-.385.8973.512 1.024 4.229 1.024 4.229s-7.6507 16.698-15.164 15.971c0 0-6.3707-4.565-6.344-7.919z" fill="#dee4f5"/><path d="m47.0428 129.768s7.9453 2.131 14.136-4.465c6.188-6.595 12.9853-22.423 18.16-24.147v-6.536s-12.5814 6.435-15.624 16.377c-3.044 9.943-16.672 18.771-16.672 18.771z" fill="#181419"/><path d="m47.0428 126.273s2.0346-8.953 10.7613-9.257c2.4347 2.333-5.576 9.257-5.576 9.257s-1.6533 1.312-5.1853.883z" fill="#c57135"/><path d="m47.0428 127.156s8.44-2.167 15.4373-19.388c11.8853-19.2 16.8587-18.2494 16.8587-18.2494v5.1014s-8.624 6.943-13.9 16.479c-5.276 9.537-8.7907 18.669-18.396 18.669z" fill="#302f36"/><path d="m47.0428 129.768s-10.9694-2.629-16.0027-17.812c-5.032-15.1854-2.7293-21.0133-2.7293-21.0133l2.016 1.2133s-2.4854 7.3027 2.7599 19.713c5.2467 12.412 13.9561 15.287 13.9561 15.287z" fill="#ae8f42"/><path d="m47.0428 126.273s-1.3481-5.762-6.5561-7.669c0 0-1.6253 9.391 6.5561 8.552z" fill="#af6734"/><path d="m40.6761 114.648s1.0253.271 2.052.233c.2573-.017.5107-.026.744-.066.2347-.024.4627.018.6507-.008.3826-.011.6706.044.6706.044l.0134.049c-.0014 0-.228.16-.6174.308-.3853.153-.9466.181-1.4826.083-.5374-.064-1.0614-.194-1.436-.335-.3787-.136-.6134-.261-.6134-.261z" fill="#c57135"/><path d="m53.3361 114.916s-.316.131-.8107.272c-.4946.147-1.172.28-1.86.347-.3453.033-.6933.088-1.02.065-.3253-.025-.628-.061-.88-.145-.504-.16-.8133-.335-.8133-.335l.012-.057s.3613-.068.8613-.068c.2467.022.5414-.026.848-.002.308.04.6387.055.972.076 1.3347.048 2.6747-.209 2.6747-.208z" fill="#c57135"/><path d="m48.7414 113.361s.224-.149.6067-.285c.192-.056.4186-.135.6693-.168.252-.027.52-.071.7907-.061.5413.005 1.0787.112 1.4547.25.3773.151.6146.264.6146.264s-.2706-.022-.6573-.082c-.1893-.051-.42-.04-.66-.071-.24-.037-.4973-.039-.7547-.032-.5133-.029-1.0266.039-1.4146.079-.388.048-.6494.106-.6494.106z" fill="#333558"/><path d="m44.3441 113.361s-.2053-.064-.5107-.114c-.3053-.048-.7066-.116-1.1106-.09-.2014-.008-.404-.002-.592.036-.1867.028-.372.024-.5187.075-.3027.064-.5187.093-.5187.093s.18-.108.472-.25c.2907-.135.72-.242 1.1547-.246.2187-.01.4333.035.6347.059.2.037.3773.109.528.165.2973.132.4613.272.4613.272z" fill="#333558"/><path d="m46.7401 103.305s.8933-.557 2.16 0z" fill="#dee4f5"/><path d="m46.7401 103.305s.1013-.105.2973-.205c.1014-.039.2187-.099.3534-.121.136-.02.2813-.05.4279-.043.2934.005.5814.085.7734.184.192.104.308.185.308.185s-.148-.012-.3507-.048c-.2026-.029-.4693-.078-.7346-.065-.2654-.024-.5294.021-.732.045-.2027.028-.3427.068-.3427.068z" fill="#333558"/><path d="m45.2494 104.849s1.2853-.138 2.5693-.128c1.2854-.01 2.5694.128 2.5694.128s-1.284.138-2.5694.127c-1.284.011-2.5693-.127-2.5693-.127z" fill="#333558"/><path d="m45.8521 107.76s.008-.047.044-.124c.0347-.079.0947-.193.2027-.296.1066-.108.2426-.22.416-.296.1626-.101.3613-.124.5493-.189.1933-.04.3893-.035.572-.052.1827-.024.3493.026.4933.037.2867.047.472.092.472.092s-.1933.031-.476.052c-.14.009-.3053.008-.476.04-.1706.027-.3586.035-.5333.08-.172.051-.3653.06-.5107.143-.16.058-.304.12-.4146.202-.2294.144-.3387.311-.3387.311z" fill="#333558"/></svg>