<svg fill="none" height="140" viewBox="0 0 93 140" width="93" xmlns="http://www.w3.org/2000/svg"><path d="m.713437 4.21599c0-2.00533 1.621103-3.628025 3.621543-3.628025h84.75552c2.0005 0 3.6229 1.622695 3.6229 3.628025v130.98901c0 2.004-1.6224 3.628-3.6229 3.628h-84.75552c-2.00044 0-3.621543-1.624-3.621543-3.628z" fill="#fff"/><path d="m57.6174 101.111c0-3.1231 2.804-4.8724 5.544-4.4644 1.4147.212 2.456 1.08 3.3 2.1266.7974.984.9974.3494.888-.2959-.508-2.9787-1.8667-4.6693-4.3933-5.4613-.2534-.0827-1.3173-.3227-.3467-.3227h10.068c.9694 0-.0933.24-.3426.3227-2.528.792-3.8854 2.4826-4.3934 5.4613-.1093.6453.0867 1.2799.8854.2959.8466-1.0466 1.8853-1.9146 3.3013-2.1266 2.736-.4053 5.5453 1.3413 5.5453 4.4644v.004c0 2.242-1.8106 4.734-4.1693 4.564-.1627-.014-1.28-.254-1.6267.085-.504.491.2.853.2507 1.968v.004c.076 2.657-1.7493 4.077-3.788 4.333v-.002c0 .002-.4427.057-.6427.057-.3626.004-.6506-.051-.7493-.057v.002c-2.0373-.256-3.8653-1.68-3.7867-4.333v-.004c.052-1.115.752-1.477.2507-1.968-.3453-.339-1.4667-.096-1.6254-.085-2.36.17-4.1693-2.322-4.1693-4.564z" fill="#302f36"/><path d="m67.6668 112.124c.0106 0 .0226.001.0306 0 .2 0 .6427-.055.6427-.057v.002c2.0387-.256 3.864-1.676 3.788-4.333v-.004c-.0507-1.115-.7547-1.477-.2507-1.968.3467-.339 1.464-.097 1.6267-.085 2.3587.172 4.1693-2.322 4.1693-4.564v-.004c0-3.1231-2.8093-4.8697-5.5453-4.4644-1.416.212-2.4547 1.08-3.3013 2.1266-.7987.984-.9947.3494-.8854-.2959.508-2.9787 1.8654-4.6693 4.3934-5.4613.2493-.0827 1.312-.3227.3426-.3227h-5.0106z" fill="#46464e"/><path d="m15.6748 101.111c0-3.1231 2.8053-4.8724 5.5453-4.4644 1.4133.212 2.456 1.08 3.2987 2.1266.7986.984.9986.3494.888-.2959-.5067-2.9787-1.8654-4.6693-4.392-5.4613-.2547-.0827-1.3174-.3227-.3467-.3227h10.0667c.9706 0-.0934.24-.3427.3227-2.528.792-3.884 2.4826-4.3933 5.4613-.108.6453.0866 1.2799.8853.2959.848-1.0466 1.8853-1.9146 3.3027-2.1266 2.736-.4053 5.544 1.3413 5.544 4.4644v.004c0 2.242-1.8107 4.734-4.1694 4.564-.1613-.014-1.2786-.254-1.6266.085-.5027.491.2013.853.252 1.968v.004c.0746 2.657-1.7494 4.077-3.7894 4.333v-.002c0 .002-.4426.057-.6413.057-.3627.004-.652-.051-.7507-.057v.002c-2.036-.256-3.8653-1.68-3.7853-4.333v-.004c.0507-1.115.752-1.477.2507-1.968-.3467-.339-1.468-.096-1.6254-.085-2.36.17-4.1706-2.322-4.1706-4.564z" fill="#302f36"/><path d="m25.7254 112.124c.0107 0 .0214.001.0307 0 .1987 0 .6413-.055.6413-.057v.002c2.04-.256 3.864-1.676 3.7894-4.333v-.004c-.0507-1.115-.7547-1.477-.252-1.968.348-.339 1.4653-.097 1.6266-.085 2.3587.172 4.1694-2.322 4.1694-4.564v-.004c0-3.1231-2.808-4.8697-5.544-4.4644-1.4174.212-2.4547 1.08-3.3027 2.1266-.7987.984-.9933.3494-.8853-.2959.5093-2.9787 1.8653-4.6693 4.3933-5.4613.2493-.0827 1.3133-.3227.3427-.3227h-5.0094z" fill="#46464e"/><path d="m57.6174 68.412c0-3.124 2.804-4.872 5.544-4.464 1.4147.2133 2.456 1.08 3.3 2.1253.7974.984.9974.3507.888-.2946-.508-2.9787-1.8667-4.6694-4.3933-5.4614-.2534-.0827-1.3173-.3227-.3467-.3227h10.068c.9694 0-.0933.24-.3426.3227-2.528.792-3.8854 2.4827-4.3934 5.4614-.1093.6453.0867 1.2786.8854.2946.8466-1.0453 1.8853-1.912 3.3013-2.1253 2.736-.404 5.5453 1.34 5.5453 4.464v.004c0 2.2427-1.8106 4.736-4.1693 4.564-.1627-.0133-1.28-.2547-1.6267.0853-.504.4907.2.8547.2507 1.9693v.0027c.076 2.6573-1.7493 4.076-3.788 4.3347v-.0027c0 .0027-.4427.0574-.6427.0574-.3626.004-.6506-.0507-.7493-.0574v.0027c-2.0373-.2587-3.8653-1.68-3.7867-4.3347v-.0027c.052-1.1146.752-1.4786.2507-1.9693-.3453-.34-1.4667-.096-1.6254-.0853-2.36.172-4.1693-2.3213-4.1693-4.564z" fill="#302f36"/><path d="m67.6668 79.4267h.0306c.2 0 .6427-.0547.6427-.0574v.0027c2.0387-.2587 3.864-1.6774 3.788-4.3347v-.0027c-.0507-1.1146-.7547-1.4786-.2507-1.9693.3467-.34 1.464-.0986 1.6267-.0853 2.3587.172 4.1693-2.3213 4.1693-4.564v-.004c0-3.124-2.8093-4.868-5.5453-4.464-1.416.2133-2.4547 1.0813-3.3013 2.1253-.7987.984-.9947.3507-.8854-.2946.508-2.9787 1.8654-4.6694 4.3934-5.4614.2493-.0827 1.312-.3227.3426-.3227h-5.0106z" fill="#46464e"/><path d="m15.6748 68.412c0-3.124 2.8053-4.872 5.5453-4.464 1.4133.2133 2.456 1.08 3.2987 2.1253.7986.984.9986.3507.888-.2946-.5067-2.9787-1.8654-4.6694-4.392-5.4614-.2547-.0827-1.3174-.3227-.3467-.3227h10.0667c.9706 0-.0934.24-.3427.3227-2.528.792-3.884 2.4827-4.3933 5.4614-.108.6453.0866 1.2786.8853.2946.848-1.0453 1.8853-1.912 3.3027-2.1253 2.736-.404 5.544 1.34 5.544 4.464v.004c0 2.2427-1.8107 4.736-4.1694 4.564-.1613-.0133-1.2786-.2547-1.6266.0853-.5027.4907.2013.8547.252 1.9693v.0027c.0746 2.6573-1.7494 4.076-3.7894 4.3347v-.0027c0 .0027-.4426.0574-.6413.0574-.3627.004-.652-.0507-.7507-.0574v.0027c-2.036-.2587-3.8653-1.68-3.7853-4.3347v-.0027c.0507-1.1146.752-1.4786.2507-1.9693-.3467-.34-1.468-.096-1.6254-.0853-2.36.172-4.1706-2.3213-4.1706-4.564z" fill="#302f36"/><path d="m25.7254 79.4267h.0307c.1987 0 .6413-.0547.6413-.0574v.0027c2.04-.2587 3.864-1.6774 3.7894-4.3347v-.0027c-.0507-1.1146-.7547-1.4786-.252-1.9693.348-.34 1.4653-.0986 1.6266-.0853 2.3587.172 4.1694-2.3213 4.1694-4.564v-.004c0-3.124-2.808-4.868-5.544-4.464-1.4174.2133-2.4547 1.0813-3.3027 2.1253-.7987.984-.9933.3507-.8853-.2946.5093-2.9787 1.8653-4.6694 4.3933-5.4614.2493-.0827 1.3133-.3227.3427-.3227h-5.0094z" fill="#46464e"/><path d="m57.6174 35.7133c0-3.1226 2.804-4.872 5.544-4.464 1.4147.212 2.456 1.0787 3.3 2.1254.7974.9853.9974.352.888-.2934-.508-2.98-1.8667-4.6693-4.3933-5.4613-.2534-.084-1.3173-.3227-.3467-.3227h10.068c.9694 0-.0933.2387-.3426.3227-2.528.792-3.8854 2.4813-4.3934 5.4613-.1093.6454.0867 1.2787.8854.2934.8466-1.0467 1.8853-1.9134 3.3013-2.1254 2.736-.4053 5.5453 1.3414 5.5453 4.464v.0053c0 2.2427-1.8106 4.7347-4.1693 4.5627-.1627-.0133-1.28-.2533-1.6267.0853-.504.4907.2.8547.2507 1.9694v.0026c.076 2.656-1.7493 4.0774-3.788 4.3334v-.0027c0 .0027-.4427.06-.6427.06-.3626.0027-.6506-.052-.7493-.06v.0027c-2.0373-.256-3.8653-1.68-3.7867-4.3334v-.0026c.052-1.1147.752-1.4787.2507-1.9694-.3453-.3386-1.4667-.0959-1.6254-.0853-2.36.172-4.1693-2.32-4.1693-4.5627z" fill="#302f36"/><path d="m67.6668 46.7293h.0306c.2 0 .6427-.0573.6427-.06v.0027c2.0387-.256 3.864-1.6747 3.788-4.3334v-.0026c-.0507-1.1147-.7547-1.4787-.2507-1.9694.3467-.3386 1.464-.0986 1.6267-.0853 2.3587.172 4.1693-2.32 4.1693-4.5627v-.0053c0-3.1226-2.8093-4.8693-5.5453-4.464-1.416.212-2.4547 1.0813-3.3013 2.1254-.7987.9853-.9947.352-.8854-.2934.508-2.98 1.8654-4.6693 4.3934-5.4613.2493-.084 1.312-.3227.3426-.3227h-5.0106z" fill="#46464e"/><path d="m15.6748 35.7133c0-3.1226 2.8053-4.872 5.5453-4.464 1.4133.212 2.456 1.0787 3.2987 2.1254.7986.9853.9986.352.888-.2934-.5067-2.98-1.8654-4.6693-4.392-5.4613-.2547-.084-1.3174-.3227-.3467-.3227h10.0667c.9706 0-.0934.2387-.3427.3227-2.528.792-3.884 2.4813-4.3933 5.4613-.108.6454.0866 1.2787.8853.2934.848-1.0467 1.8853-1.9134 3.3027-2.1254 2.736-.4053 5.544 1.3414 5.544 4.464v.0053c0 2.2427-1.8107 4.7347-4.1694 4.5627-.1613-.0133-1.2786-.2533-1.6266.0853-.5027.4907.2013.8547.252 1.9694v.0026c.0746 2.656-1.7494 4.0774-3.7894 4.3334v-.0027c0 .0027-.4426.06-.6413.06-.3627.0027-.652-.052-.7507-.06v.0027c-2.036-.256-3.8653-1.68-3.7853-4.3334v-.0026c.0507-1.1147.752-1.4787.2507-1.9694-.3467-.3386-1.468-.0959-1.6254-.0853-2.36.172-4.1706-2.32-4.1706-4.5627z" fill="#302f36"/><path d="m25.7254 46.7293h.0307c.1987 0 .6413-.0573.6413-.06v.0027c2.04-.256 3.864-1.6747 3.7894-4.3334v-.0026c-.0507-1.1147-.7547-1.4787-.252-1.9694.348-.3386 1.4653-.0986 1.6266-.0853 2.3587.172 4.1694-2.32 4.1694-4.5627v-.0053c0-3.1226-2.808-4.8693-5.544-4.464-1.4174.212-2.4547 1.0813-3.3027 2.1254-.7987.9853-.9933.352-.8853-.2934.5093-2.98 1.8653-4.6693 4.3933-5.4613.2493-.084 1.3133-.3227.3427-.3227h-5.0094z" fill="#46464e"/><path d="m15.6094 22.9347c0 1.62-1.4533 2.524-2.872 2.3133-.732-.1093-1.272-.5573-1.7093-1.1027-.4133-.5066-.516-.1786-.46.1547.2627 1.544.9667 2.4187 2.276 2.8307.1307.0413.6813.1666.18.1666h-5.21599c-.50267 0 .04931-.1253.17731-.1666 1.31066-.412 2.01334-1.2867 2.27598-2.8307.056-.3333-.0453-.6613-.45863-.1547-.44.5454-.97601.9934-1.71068 1.1027-1.41733.2107-2.872-.6933-2.872-2.3133 0-1.1614.93869-2.4534 2.16002-2.364.084.008.66264.1293.84264-.044.26-.256-.10266-.444-.13066-1.0214-.03867-1.3773.90666-2.112 1.96271-2.2453 0 0 .2293-.028.332-.028.1893-.0027.3373.0253.3893.028 1.0547.1333 2.0013.8707 1.9613 2.2453-.0266.5774-.3893.7654-.1293 1.0214.1787.1733.7587.0493.8413.044 1.2227-.0894 2.16 1.2026 2.16 2.364z" fill="#302f36"/><path d="m10.4041 17.232c-.0053 0-.0107 0-.0174 0-.1026 0-.332.028-.332.028-1.05596.1333-2.00129.868-1.96262 2.2453.028.5773.39066.7653.13066 1.0213-.18.1734-.75864.052-.84264.044-1.22134-.0893-2.16003 1.2027-2.16003 2.364 0 1.62 1.45467 2.5241 2.87201 2.3134.73466-.1093 1.27067-.5573 1.71067-1.1027.41335-.5066.51465-.1787.45865.1547-.26266 1.544-.96533 2.4186-2.276 2.8306-.128.0414-.67998.1667-.17731.1667h2.59601z" fill="#46464e"/><path d="m77.6534 116.485c0-1.617 1.452-2.524 2.872-2.313.7307.111 1.2707.56 1.708 1.103.4134.508.516.18.4614-.154-.264-1.544-.9667-2.418-2.2774-2.829-.1307-.043-.6813-.168-.1786-.168h5.2146c.5027 0-.048.125-.1773.168-1.308.411-2.0133 1.285-2.276 2.829-.056.334.044.662.4587.154.4386-.543.976-.992 1.7106-1.103 1.416-.209 2.872.696 2.872 2.313v.002c0 1.162-.9373 2.453-2.16 2.364-.084-.008-.6626-.131-.8426.044-.26.254.104.442.1306 1.02v.002c.0387 1.375-.9066 2.111-1.9626 2.246v-.003c0 .003-.2307.031-.332.031-.188.001-.3387-.027-.3894-.031v.003c-1.0547-.135-2.0026-.872-1.96-2.246v-.002c.0267-.578.3893-.766.1293-1.02-.18-.175-.7599-.05-.8426-.044-1.2213.089-2.1587-1.202-2.1587-2.364z" fill="#302f36"/><path d="m82.8588 122.191h.016c.1013 0 .332-.028.332-.031v.003c1.056-.135 2.0013-.871 1.9626-2.246v-.002c-.0266-.578-.3906-.766-.1306-1.02.18-.175.7586-.052.8426-.044 1.2227.089 2.16-1.202 2.16-2.364v-.002c0-1.617-1.456-2.522-2.872-2.313-.7346.111-1.272.56-1.7106 1.103-.4147.508-.5147.18-.4587-.154.2627-1.544.968-2.418 2.276-2.829.1293-.043.68-.168.1773-.168h-2.5946z" fill="#46464e"/><g fill="#302f36"><path d="m79.4421 133.706c0-.515.137-.973.411-1.375.2693-.401.6355-.715 1.0985-.942-.5386-.232-.9638-.569-1.2756-1.014-.3166-.444-.4749-.947-.4749-1.509 0-.893.3024-1.604.9072-2.133.6-.529 1.3914-.794 2.3741-.794.9922 0 1.7883.265 2.3883.794.5953.534.893 1.245.893 2.133 0 .557-.1512 1.061-.4536 1.509-.3071.449-.7299.789-1.2686 1.021.4583.227.8198.541 1.0843.943.2646.401.3969.857.3969 1.367 0 .87-.2787 1.559-.8362 2.07-.5576.51-1.2922.765-2.2041.765-.9071 0-1.6394-.255-2.197-.765-.5622-.511-.8433-1.2-.8433-2.07zm1.0701-4.812c0 .577.1843 1.047.5528 1.411.3638.363.841.545 1.4316.545s1.0654-.179 1.4245-.538c.3543-.359.5315-.832.5315-1.418s-.1725-1.046-.5174-1.382c-.3496-.335-.8339-.503-1.4528-.503-.6142 0-1.0961.168-1.4457.503-.3497.341-.5245.801-.5245 1.382zm1.9702 6.57c.515 0 .9331-.161 1.2544-.482.3166-.317.4748-.749.4748-1.297 0-.524-.1559-.95-.4677-1.276-.3166-.321-.7371-.481-1.2615-.481s-.9426.16-1.2544.481c-.3165.326-.4748.752-.4748 1.276 0 .525.163.952.489 1.283s.7394.496 1.2402.496z"/><path d="m13.8207 5.71491c0 .51499-.137.97328-.411 1.37488-.2693.40159-.6355.71578-1.0985.94257.5386.23151.9638.56932 1.2757 1.01344.3165.44411.4748.94729.4748 1.5095 0 .893-.3024 1.604-.9071 2.1332-.6001.5292-1.3914.7937-2.3742.7937-.99215 0-1.78826-.2645-2.38829-.7937-.5953-.5339-.89296-1.2449-.89296-2.1332 0-.55749.15119-1.06066.45357-1.5095.3071-.44885.72996-.78902 1.26857-1.02053-.45829-.22678-.81973-.54097-1.08431-.94257-.26458-.40159-.39687-.85752-.39687-1.36779 0-.86933.27876-1.55913.83627-2.06939.5575-.51027 1.29219-.7654 2.20402-.7654.9072 0 1.6395.25513 2.197.7654.5622.51026.8433 1.20006.8433 2.06939zm-1.0701 4.81209c0-.57643-.1843-1.04654-.5528-1.41034-.3638-.36379-.841-.54569-1.4315-.54569-.5906 0-1.06546.17953-1.42453.53861-.35435.35907-.53152.83154-.53152 1.41742 0 .5858.17245 1.0465.51735 1.3819.34962.3355.8339.5032 1.4528.5032.6142 0 1.0961-.1677 1.4458-.5032.3496-.3401.5244-.8008.5244-1.3819zm-1.9702-6.56966c-.515 0-.93309.16064-1.25437.48192-.31655.31655-.47483.74886-.47483 1.29692 0 .52443.15592.94965.46774 1.27565.31656.32128.73706.48192 1.26146.48192.5245 0 .9426-.16064 1.2544-.48192.3166-.326.4748-.75122.4748-1.27565 0-.52444-.163-.95202-.489-1.28275-.326-.33072-.7394-.49609-1.2402-.49609z"/><path d="m36.6028 86.3213c0-3.124 2.8053-4.8733 5.5453-4.4653 1.4133.212 2.4547 1.08 3.2987 2.1267.8.984.9973.3506.888-.2961-.508-2.9786-1.864-4.6693-4.392-5.4613-.2534-.0827-1.3174-.3227-.3467-.3227h10.0667c.972 0-.092.24-.3427.3227-2.5267.792-3.8853 2.4827-4.3933 5.4613-.1094.6467.0866 1.2801.8853.2961.8467-1.0467 1.8853-1.9147 3.3027-2.1267 2.736-.4054 5.544 1.3413 5.544 4.4653v.004c0 2.2413-1.8094 4.7347-4.1694 4.564-.1613-.0133-1.2786-.2547-1.6266.0853-.5014.4894.2.8533.252 1.968v.0027c.076 2.6573-1.7507 4.0773-3.7894 4.3333v-.0013c0 .0013-.4427.0573-.6413.0573-.3627.0027-.652-.052-.7507-.0573v.0013c-2.036-.256-3.864-1.6786-3.7853-4.3333v-.0027c.0507-1.1147.7507-1.4786.2507-1.968-.3467-.34-1.468-.096-1.6254-.0853-2.3586.1707-4.1706-2.3227-4.1706-4.564z"/></g><path d="m46.6534 97.3346h.0307c.1986 0 .6413-.056.6413-.0573v.0013c2.0387-.256 3.8654-1.6746 3.7894-4.3333v-.0027c-.052-1.1147-.7534-1.4786-.252-1.968.348-.34 1.4653-.0986 1.6266-.0853 2.36.1707 4.1694-2.3227 4.1694-4.564v-.004c0-3.124-2.808-4.8707-5.544-4.4653-1.4174.212-2.456 1.0813-3.3027 2.1267-.7987.984-.9947.3506-.8853-.2961.508-2.9786 1.8666-4.6693 4.3933-5.4613.2507-.0827 1.3147-.3227.3427-.3227h-5.0094z" fill="#46464e"/><path d="m36.6028 51.612c0-3.1253 2.8053-4.872 5.5453-4.4667 1.4133.2147 2.4547 1.0813 3.2987 2.128.8.984.9973.3494.888-.2946-.508-2.9787-1.864-4.672-4.392-5.4627-.2534-.084-1.3174-.3227-.3467-.3227h10.0667c.972 0-.092.2387-.3427.3227-2.5267.7907-3.8853 2.484-4.3933 5.4627-.1094.644.0866 1.2786.8853.2946.8467-1.0467 1.8853-1.9133 3.3027-2.128 2.736-.4026 5.544 1.3414 5.544 4.4667v.0027c0 2.2426-1.8094 4.7373-4.1694 4.5653-.1613-.0133-1.2786-.256-1.6266.0853-.5014.4893.2.852.252 1.9667v.0053c.076 2.656-1.7507 4.0747-3.7894 4.3333v-.0026c0 .0026-.4427.0573-.6413.0573-.3627.0053-.652-.0493-.7507-.0573v.0026c-2.036-.2586-3.864-1.68-3.7853-4.3333v-.0053c.0507-1.1147.7507-1.4774.2507-1.9667-.3467-.3413-1.468-.096-1.6254-.0853-2.3586.172-4.1706-2.3227-4.1706-4.5653z" fill="#302f36"/><path d="m46.6534 62.6253h.0307c.1986 0 .6413-.0547.6413-.0573v.0026c2.0387-.2586 3.8654-1.6773 3.7894-4.3333v-.0053c-.052-1.1147-.7534-1.4774-.252-1.9667.348-.3413 1.4653-.0986 1.6266-.0853 2.36.172 4.1694-2.3227 4.1694-4.5653v-.0027c0-3.1253-2.808-4.8693-5.544-4.4667-1.4174.2147-2.456 1.0813-3.3027 2.128-.7987.984-.9947.3494-.8853-.2946.508-2.9787 1.8666-4.672 4.3933-5.4627.2507-.084 1.3147-.3227.3427-.3227h-5.0094z" fill="#46464e"/></svg>