<svg fill="none" height="140" viewBox="0 0 93 140" width="93" xmlns="http://www.w3.org/2000/svg"><path d="m.416163 4.41327c0-2.004 1.622447-3.629365 3.622847-3.629365h84.75429c2.0004 0 3.6229 1.625365 3.6229 3.629365v130.98773c0 2.006-1.6225 3.63-3.6229 3.63h-84.75429c-2.0004 0-3.622847-1.624-3.622847-3.63z" fill="#fff"/><path d="m15.3108 23.1333c0 1.6186-1.452 2.5239-2.8707 2.3119-.732-.1106-1.2719-.5586-1.7079-1.1013-.4147-.5093-.5188-.1799-.4614.1547.2626 1.5427.9667 2.4173 2.2747 2.8293.132.0414.6826.1667.18.1667h-5.21468c-.50133 0 .04798-.1253.17865-.1667 1.308-.412 2.01067-1.2866 2.27467-2.8293.05736-.3346-.04532-.664-.45866-.1547-.43866.5427-.97597.9907-1.70931 1.1013-1.41866.2107-2.87337-.6933-2.87337-2.3119v-.0013c0-1.1614.93869-2.4534 2.16003-2.3641.084.008.66397.1307.84264-.0453.26133-.2534-.10396-.4427-.1293-1.0187v-.0013c-.04-1.376.90533-2.112 1.96133-2.2453v.0013c0-.0013.2293-.0293.332-.0293.1893-.0027.3373.0253.3893.0293v-.0013c1.0547.1333 2.0013.8706 1.9613 2.2453v.0013c-.0266.576-.3893.7653-.1306 1.0187.18.176.7613.0506.8413.0453 1.2227-.0893 2.16 1.2027 2.16 2.3641z" fill="#302f36"/><path d="m10.1055 17.4293c-.0053 0-.0107 0-.016 0-.10268 0-.33198.028-.33198.0293v-.0013c-1.056.1333-2.00133.8693-1.96133 2.2453v.0013c.02533.576.39063.7654.1293 1.0187-.17867.176-.75865.0533-.84265.0453-1.22133-.0893-2.16002 1.2027-2.16002 2.3641v.0013c0 1.6186 1.4547 2.5226 2.87337 2.3119.73333-.1106 1.27064-.5586 1.70931-1.1013.41333-.5093.516-.1799.45866.1547-.264 1.5427-.96668 2.4173-2.27468 2.8293-.13066.0414-.67998.1667-.17864.1667h2.59466z" fill="#46464e"/><path d="m77.3562 116.683c0-1.619 1.452-2.523 2.872-2.312.7306.11 1.2706.56 1.708 1.101.4146.509.5173.181.46-.153-.2627-1.543-.9667-2.419-2.2747-2.83-.132-.041-.6827-.166-.18-.166h5.2147c.5026 0-.048.125-.1787.166-1.308.411-2.0107 1.287-2.2747 2.83-.0573.334.0454.662.4587.153.4387-.541.9773-.991 1.7107-1.101 1.4173-.21 2.872.693 2.872 2.312v.001c0 1.161-.9387 2.453-2.1601 2.365-.084-.008-.6626-.132-.8413.044-.2627.254.1027.443.1294 1.019v.003c.04 1.376-.9054 2.112-1.9627 2.244v-.002c0 .002-.2293.031-.332.031-.188.003-.3373-.027-.388-.031v.002c-1.056-.132-2.0027-.87-1.9613-2.244v-.003c.0253-.576.388-.765.1293-1.019-.1786-.176-.7613-.049-.8413-.044-1.2227.088-2.16-1.204-2.16-2.365z" fill="#302f36"/><path d="m82.5615 122.388h.016c.1027 0 .332-.029.332-.031v.002c1.0573-.132 2.0027-.868 1.9627-2.244v-.003c-.0267-.576-.3921-.765-.1294-1.019.1787-.176.7573-.052.8413-.044 1.2214.088 2.1601-1.204 2.1601-2.365v-.001c0-1.619-1.4547-2.522-2.872-2.312-.7334.11-1.272.56-1.7107 1.101-.4133.509-.516.181-.4587-.153.264-1.543.9667-2.419 2.2747-2.83.1307-.041.6813-.166.1787-.166h-2.5947z" fill="#46464e"/><g fill="#302f36"><path d="m83.4976 132.074h-.9851c-.619.009-1.1056.172-1.46.489-.3543.316-.5315.744-.5315 1.283 0 1.209.6024 1.814 1.8072 1.814.567 0 1.0205-.163 1.3607-.489.3355-.321.5032-.749.5032-1.283h1.3111c0 .817-.2977 1.495-.893 2.034-.6.543-1.3607.815-2.282.815-.9733 0-1.7363-.257-2.2891-.772s-.8292-1.231-.8292-2.148c0-.449.1465-.883.4394-1.304.2882-.42.6827-.734 1.1835-.942-.5669-.18-1.0039-.478-1.311-.893-.3119-.416-.4678-.924-.4678-1.524 0-.926.3024-1.661.9072-2.204.6047-.543 1.3914-.815 2.3599-.815.9686 0 1.7576.262 2.3671.787.6047.524.9071 1.216.9071 2.076h-1.3182c0-.543-.1772-.978-.5315-1.304-.3544-.326-.8292-.489-1.4245-.489-.6331 0-1.1174.165-1.4528.496-.3355.331-.5032.806-.5032 1.425 0 .6.1843 1.06.5528 1.382.3685.321.9.486 1.5946.496h.9851z"/><path d="m9.17075 7.73931h.98505c.619-.00945 1.1056-.17245 1.46-.489.3543-.31655.5315-.74414.5315-1.28275 0-1.20951-.6024-1.81426-1.8072-1.81426-.56696 0-1.02052.163-1.3607.489-.33545.32128-.50317.74886-.50317 1.28274h-1.31109c0-.81736.29765-1.49535.89296-2.03396.60003-.54334 1.3607-.815 2.282-.815.9733 0 1.7363.25749 2.2891.77248.5528.51498.8292 1.23077.8292 2.14735 0 .44884-.1465.88351-.4394 1.30401-.2882.42049-.6827.73468-1.1835.94256.5669.17954 1.0039.47719 1.311.89296.3119.41577.4678.92366.4678 1.52366 0 .9261-.3024 1.6608-.9071 2.2041-.6048.5433-1.3915.815-2.36.815-.96856 0-1.75758-.2622-2.36706-.7867-.60476-.5244-.90713-1.2166-.90713-2.0764h1.31817c0 .5433.17718.978.53153 1.304s.82917.489 1.42449.489c.6331 0 1.1174-.1654 1.4528-.4961.3355-.3308.5032-.8056.5032-1.4245 0-.6-.1843-1.06069-.5528-1.38197s-.9-.48664-1.5946-.49609h-.98505z"/><path d="m15.3121 101.309c0-3.1238 2.8067-4.8731 5.5467-4.4651 1.4107.2134 2.4547 1.08 3.2974 2.1254.8.984.9986.3506.888-.2947-.508-2.9787-1.864-4.6693-4.392-5.4613-.2547-.0827-1.316-.3227-.3467-.3227h10.0667c.972 0-.092.24-.3427.3227-2.5266.792-3.8854 2.4826-4.392 5.4613-.1094.6453.0853 1.2787.8853.2947.8467-1.0454 1.8854-1.912 3.3014-2.1254 2.736-.404 5.5439 1.3413 5.5439 4.4651v.003c0 2.243-1.8092 4.736-4.1692 4.564-.1614-.013-1.2788-.255-1.6254.085-.5027.491.1987.855.2507 1.97v.002c.076 2.658-1.7481 4.076-3.7894 4.335v-.003c0 .003-.4426.058-.64.058-.3653.004-.6507-.051-.752-.058v.003c-2.0373-.259-3.864-1.68-3.784-4.335v-.002c.0507-1.115.7507-1.479.2494-1.97-.3467-.34-1.468-.096-1.6254-.085-2.3586.172-4.1707-2.321-4.1707-4.564z"/></g><path d="m25.3629 112.323h.0319c.1974 0 .64-.055.64-.058v.003c2.0413-.259 3.8654-1.677 3.7894-4.335v-.002c-.052-1.115-.7534-1.479-.2507-1.97.3466-.34 1.464-.098 1.6254-.085 2.36.172 4.1692-2.321 4.1692-4.564v-.003c0-3.1238-2.8079-4.8691-5.5439-4.4651-1.416.2134-2.4547 1.08-3.3014 2.1254-.8.984-.9947.3506-.8853-.2947.5066-2.9787 1.8654-4.6693 4.392-5.4613.2507-.0827 1.3147-.3227.3427-.3227h-5.0093z" fill="#46464e"/><path d="m36.2828 68.6092c0-3.1226 2.8053-4.8719 5.5453-4.4626 1.4134.2107 2.456 1.08 3.3 2.1253.7974.984.9974.3494.8881-.2946-.508-2.98-1.8667-4.6707-4.3934-5.4627-.2547-.0827-1.3173-.3227-.3467-.3227h10.0667c.9707 0-.092.24-.3414.3227-2.528.792-3.8852 2.4827-4.3932 5.4627-.1094.644.0866 1.2786.8839.2946.848-1.0453 1.8867-1.9146 3.3027-2.1253 2.736-.4053 5.5453 1.34 5.5453 4.4626v.0054c0 2.2413-1.8107 4.7347-4.1693 4.5627-.1627-.0134-1.28-.2534-1.628.0866-.5027.4894.2013.8534.252 1.9681v.0026c.0747 2.6586-1.7493 4.0773-3.788 4.3347v-.004c0 .004-.444.0587-.6427.0587-.3626.004-.6506-.0507-.7506-.0587v.004c-2.036-.2574-3.864-1.6814-3.7854-4.3347v-.0026c.052-1.1147.752-1.4787.2507-1.9681-.3453-.34-1.468-.0973-1.6253-.0866-2.36.172-4.1707-2.3214-4.1707-4.5627z" fill="#302f36"/><path d="m46.3335 79.624h.0306c.1987 0 .6427-.0547.6427-.0587v.004c2.0387-.2574 3.8627-1.6761 3.788-4.3347v-.0026c-.0507-1.1147-.7547-1.4787-.252-1.9681.348-.34 1.4653-.1 1.628-.0866 2.3586.172 4.1693-2.3214 4.1693-4.5627v-.0054c0-3.1226-2.8093-4.8679-5.5453-4.4626-1.416.212-2.4547 1.08-3.3027 2.1253-.7973.984-.9933.3494-.8839-.2946.508-2.98 1.8652-4.6707 4.3932-5.4627.2494-.0827 1.3121-.3227.3414-.3227h-5.0093z" fill="#46464e"/><path d="m57.2761 35.9119c0-3.124 2.8054-4.872 5.5454-4.4653 1.412.2133 2.456 1.08 3.2986 2.1266.7987.984.9987.3494.8881-.2959-.508-2.9787-1.8654-4.668-4.392-5.4613-.2547-.0827-1.3174-.3214-.3467-.3214h10.0667c.9706 0-.092.2387-.3427.3214-2.5267.7933-3.8853 2.4826-4.3933 5.4613-.1094.6453.0866 1.2799.8853.2959.8467-1.0466 1.8853-1.9133 3.3027-2.1266 2.736-.404 5.544 1.3413 5.544 4.4653v.0027c0 2.244-1.8094 4.736-4.1694 4.5653-.1613-.0146-1.2786-.2546-1.6266.084-.5027.4907.2.8547.252 1.9694v.0039c.0746 2.656-1.7507 4.0774-3.7893 4.3334v-.0027c0 .0027-.4428.0574-.6401.0574-.3653.004-.6533-.0507-.752-.0574v.0027c-2.0373-.256-3.864-1.68-3.7853-4.3334v-.0039c.0507-1.1147.7507-1.4787.2507-1.9694-.3467-.3386-1.4694-.0946-1.6254-.084-2.36.1707-4.1707-2.3213-4.1707-4.5653z" fill="#302f36"/><path d="m67.3268 46.9253c.0107 0 .0213.0013.032 0 .1973 0 .6401-.0547.6401-.0574v.0027c2.0386-.256 3.8639-1.676 3.7893-4.3334v-.0039c-.052-1.1147-.7547-1.4787-.252-1.9694.348-.3386 1.4653-.0973 1.6266-.084 2.36.172 4.1694-2.3213 4.1694-4.5653v-.0027c0-3.124-2.808-4.8693-5.544-4.4653-1.4174.2133-2.456 1.0813-3.3027 2.1266-.7987.984-.9947.3494-.8853-.2959.508-2.9787 1.8666-4.668 4.3933-5.4613.2507-.0827 1.3133-.3214.3427-.3214h-5.0094z" fill="#46464e"/></svg>