<svg fill="none" height="140" viewBox="0 0 93 140" width="93" xmlns="http://www.w3.org/2000/svg"><path d="m.416163 4.21599c0-2.00533 1.622447-3.628025 3.622847-3.628025h84.75429c2.0004 0 3.6229 1.622695 3.6229 3.628025v130.98901c0 2.004-1.6225 3.628-3.6229 3.628h-84.75429c-2.0004 0-3.622847-1.624-3.622847-3.628z" fill="#fff"/><path d="m57.3188 107.369c0-3.124 2.8067-4.872 5.5453-4.465 1.4134.212 2.4561 1.081 3.2987 2.127.8.984.9987.35.888-.296-.5067-2.979-1.864-4.67-4.392-5.4604-.2533-.084-1.316-.324-.3467-.324h10.0667c.972 0-.0907.24-.3427.324-2.5266.7904-3.884 2.4814-4.3933 5.4604-.108.646.088 1.28.8853.296.848-1.046 1.888-1.915 3.3027-2.127 2.7373-.404 5.544 1.341 5.544 4.465v.004c0 2.242-1.8093 4.736-4.1693 4.564-.1614-.013-1.2787-.254-1.6253.086-.5027.489.1999.853.2506 1.968v.004c.076 2.656-1.748 4.076-3.7893 4.333v-.003c0 .003-.4427.059-.6401.059-.364.003-.6519-.052-.7519-.059v.003c-2.036-.257-3.864-1.68-3.7854-4.333v-.004c.052-1.115.752-1.479.2507-1.968-.3467-.34-1.468-.096-1.6253-.086-2.3587.172-4.1707-2.322-4.1707-4.564z" fill="#302f36"/><path d="m67.3695 118.384h.0319c.1974 0 .6401-.056.6401-.059v.003c2.0413-.257 3.8653-1.676 3.7893-4.333v-.004c-.0507-1.115-.7533-1.479-.2506-1.968.3466-.34 1.4639-.099 1.6253-.086 2.36.172 4.1693-2.322 4.1693-4.564v-.004c0-3.124-2.8067-4.869-5.544-4.465-1.4147.212-2.4547 1.081-3.3027 2.127-.7973.984-.9933.35-.8853-.296.5093-2.979 1.8667-4.67 4.3933-5.4604.252-.084 1.3147-.324.3427-.324h-5.0093z" fill="#46464e"/><path d="m15.3775 107.369c0-3.124 2.8054-4.872 5.544-4.465 1.4147.212 2.456 1.081 3.3 2.127.7987.984.9973.35.888-.296-.508-2.979-1.8653-4.67-4.3933-5.4604-.252-.084-1.316-.324-.3467-.324h10.068c.9706 0-.092.24-.3427.324-2.5266.7904-3.8853 2.4814-4.3933 5.4604-.1094.646.0867 1.28.8853.296.8467-1.046 1.8854-1.915 3.3027-2.127 2.7373-.404 5.544 1.341 5.544 4.465v.004c0 2.242-1.8093 4.736-4.1693 4.564-.1627-.013-1.2787-.254-1.6254.086-.504.489.1987.853.2507 1.968v.004c.076 2.656-1.7507 4.076-3.7893 4.333v-.003c0 .003-.4427.059-.6414.059-.3626.003-.652-.052-.7506-.059v.003c-2.036-.257-3.864-1.68-3.7867-4.333v-.004c.052-1.115.752-1.479.2507-1.968-.3454-.34-1.4667-.096-1.6254-.086-2.3573.172-4.1693-2.322-4.1693-4.564z" fill="#302f36"/><path d="m25.4269 118.384h.0319c.1987 0 .6414-.056.6414-.059v.003c2.0386-.257 3.8653-1.676 3.7893-4.333v-.004c-.052-1.115-.7547-1.479-.2507-1.968.3467-.34 1.4627-.099 1.6254-.086 2.36.172 4.1693-2.322 4.1693-4.564v-.004c0-3.124-2.8067-4.869-5.544-4.465-1.4173.212-2.456 1.081-3.3027 2.127-.7986.984-.9947.35-.8853-.296.508-2.979 1.8667-4.67 4.3933-5.4604.2507-.084 1.3133-.324.3427-.324h-5.0106z" fill="#46464e"/><path d="m15.3108 22.9347c0 1.62-1.452 2.524-2.8707 2.3133-.732-.1093-1.2719-.56-1.7079-1.1027-.4147-.5066-.5188-.1786-.4614.1547.2626 1.544.9667 2.4187 2.2747 2.8307.132.0413.6826.1666.18.1666h-5.21468c-.50133 0 .04798-.1253.17865-.1666 1.308-.412 2.01067-1.2867 2.27467-2.8307.05736-.3333-.04532-.6613-.45866-.1547-.43866.5427-.97597.9934-1.70931 1.1027-1.41866.2107-2.87337-.6933-2.87337-2.3133 0-1.1614.93869-2.4534 2.16003-2.364.084.008.66397.1293.84264-.044.26133-.256-.10396-.444-.1293-1.0214-.04-1.3773.90533-2.112 1.96133-2.2453 0 0 .2293-.028.332-.028.1893-.0027.3373.0253.3893.028 1.0547.1333 2.0013.8707 1.9613 2.2453-.0266.5774-.3893.7654-.1306 1.0214.18.1733.7613.0493.8413.044 1.2227-.0894 2.16 1.2026 2.16 2.364z" fill="#302f36"/><path d="m10.1055 17.232c-.0053 0-.0107 0-.016 0-.10268 0-.33198.028-.33198.028-1.056.1333-2.00133.868-1.96133 2.2453.02533.5773.39063.7653.1293 1.0213-.17867.1734-.75865.052-.84265.044-1.22133-.0893-2.16002 1.2027-2.16002 2.364 0 1.62 1.4547 2.5241 2.87337 2.3134.73333-.1093 1.27064-.56 1.70931-1.1027.41333-.5066.516-.1787.45866.1547-.264 1.544-.96668 2.4186-2.27468 2.8306-.13066.0414-.67998.1667-.17864.1667h2.59466z" fill="#46464e"/><path d="m77.3562 116.485c0-1.617 1.452-2.524 2.872-2.313.7306.111 1.2706.56 1.708 1.103.4146.508.5173.18.46-.154-.2627-1.544-.9667-2.418-2.2747-2.829-.132-.043-.6827-.168-.18-.168h5.2147c.5026 0-.048.125-.1787.168-1.308.411-2.0107 1.285-2.2747 2.829-.0573.334.0454.662.4587.154.4387-.543.9773-.992 1.7107-1.103 1.4173-.209 2.872.696 2.872 2.313v.002c0 1.162-.9387 2.453-2.1601 2.364-.084-.008-.6626-.131-.8413.044-.2627.254.1027.442.1294 1.02v.002c.04 1.375-.9054 2.111-1.9627 2.246v-.003c0 .003-.2293.031-.332.031-.188.001-.3373-.027-.388-.031v.003c-1.056-.135-2.0027-.872-1.9613-2.246v-.002c.0253-.578.388-.766.1293-1.02-.1786-.175-.7613-.05-.8413-.044-1.2227.089-2.16-1.202-2.16-2.364z" fill="#302f36"/><path d="m82.5615 122.191h.016c.1027 0 .332-.028.332-.031v.003c1.0573-.135 2.0027-.871 1.9627-2.246v-.002c-.0267-.578-.3921-.766-.1294-1.02.1787-.175.7573-.052.8413-.044 1.2214.089 2.1601-1.202 2.1601-2.364v-.002c0-1.617-1.4547-2.522-2.872-2.313-.7334.111-1.272.56-1.7107 1.103-.4133.508-.516.18-.4587-.154.264-1.544.9667-2.418 2.2747-2.829.1307-.043.6813-.168.1787-.168h-2.5947z" fill="#46464e"/><g fill="#302f36"><path d="m80.378 130.616c.274-.326.6024-.588.9851-.786.378-.199.7937-.298 1.2473-.298.5953 0 1.115.147 1.5591.44.4394.292.7796.703 1.0206 1.233.2409.534.3614 1.122.3614 1.764 0 .69-.1299 1.311-.3898 1.864-.2646.553-.6378.976-1.1197 1.269s-1.0442.439-1.6867.439c-1.0206 0-1.8237-.383-2.4096-1.148-.5906-.761-.8859-1.8-.8859-3.118v-.383c0-2.008.3969-3.475 1.1906-4.401.7938-.921 1.9915-1.394 3.5931-1.417h.2552v1.105h-.2764c-1.082.019-1.9135.3-2.4946.844-.5812.548-.8977 1.412-.9497 2.593zm2.0198 0c-.4394 0-.8434.135-1.2119.404-.3732.27-.6449.603-.815 1v.524c0 .86.1866 1.559.5599 2.098.3732.538.8457.808 1.4174.808.5764 0 1.0394-.222 1.389-.666.3497-.44.5245-1.021.5245-1.744 0-.704-.1678-1.285-.5032-1.743-.3402-.454-.7938-.681-1.3607-.681z"/><path d="m12.289 8.80484c-.274.326-.6024.58822-.9851.78665-.3779.19844-.7937.29766-1.2473.29766-.59528 0-1.11499-.14647-1.55911-.4394-.43939-.29293-.77957-.70397-1.02053-1.23313-.24095-.53389-.36143-1.12211-.36143-1.76466 0-.6898.12993-1.31109.38978-1.86387.26458-.55279.63783-.97565 1.11974-1.26857.48192-.29293 1.04415-.4394 1.68675-.4394 1.0205 0 1.8237.3827 2.4095 1.14809.5906.76067.8859 1.8001.8859 3.11827v.3827c0 2.00798-.3969 3.47502-1.1906 4.40102-.7938.9213-1.9915 1.3938-3.59311 1.4174h-.25513v-1.1056h.27639c1.08195-.0189 1.91345-.3 2.49465-.8433.5811-.5481.8977-1.4127.9496-2.59386zm-2.0198 0c.4394 0 .8434-.13465 1.2119-.40396.3733-.26931.6449-.60239.815-.99926v-.52444c0-.85989-.1866-1.55914-.5599-2.09775-.3732-.53861-.8457-.80791-1.4174-.80791-.57637 0-1.03938.22206-1.38901.66617-.34962.4394-.52443 1.02053-.52443 1.7434 0 .70397.16772 1.28511.50317 1.7434.34018.45356.79374.68035 1.36067.68035z"/><path d="m36.3055 68.4133c0-3.124 2.8053-4.872 5.5453-4.4653 1.412.2133 2.4547 1.08 3.2987 2.1266.7987.984.9973.3507.8867-.2959-.5067-2.9787-1.864-4.6694-4.392-5.4614-.2534-.0827-1.316-.3227-.3453-.3227h10.0666c.9707 0-.092.24-.3413.3227-2.528.792-3.8854 2.4827-4.3934 5.4614-.1093.6466.0853 1.2799.884.2959.8467-1.0466 1.8867-1.9133 3.3014-2.1266 2.7373-.404 5.5453 1.3413 5.5453 4.4653v.0027c0 2.244-1.8093 4.736-4.168 4.5653-.164-.0146-1.28-.2547-1.6267.0853-.504.4894.1987.8534.2494 1.968v.004c.0773 2.656-1.7481 4.0747-3.7881 4.3334v-.0027c0 .0027-.444.0587-.6413.0587-.3627.0026-.6506-.052-.7506-.0587v.0027c-2.0374-.2587-3.8641-1.68-3.7854-4.3334v-.004c.052-1.1146.7507-1.4786.2494-1.968-.3454-.34-1.4667-.0959-1.6254-.0853-2.3586.1707-4.1693-2.3213-4.1693-4.5653z"/></g><path d="m46.3561 79.428h.0307c.1973 0 .6413-.056.6413-.0587v.0027c2.04-.2587 3.8654-1.676 3.7881-4.3334v-.004c-.0507-1.1146-.7534-1.4786-.2494-1.968.3467-.34 1.4627-.0999 1.6267-.0853 2.3587.1707 4.168-2.3213 4.168-4.5653v-.0027c0-3.124-2.808-4.8693-5.5453-4.4653-1.4147.2133-2.4547 1.0813-3.3014 2.1266-.7987.984-.9933.3507-.884-.2959.508-2.9787 1.8654-4.6694 4.3934-5.4614.2493-.0827 1.312-.3227.3413-.3227h-5.0094z" fill="#46464e"/><path d="m57.3188 81.7693c0-3.124 2.8067-4.8734 5.5453-4.4654 1.4134.212 2.4561 1.0801 3.2987 2.1267.8.984.9987.3493.888-.296-.5067-2.9787-1.864-4.6706-4.392-5.4626-.2533-.0814-1.316-.3214-.3467-.3214h10.0667c.972 0-.0907.24-.3427.3214-2.5266.792-3.884 2.4839-4.3933 5.4626-.108.6453.088 1.28.8853.296.848-1.0466 1.888-1.9147 3.3027-2.1267 2.7373-.4053 5.544 1.3414 5.544 4.4654v.0027c0 2.2426-1.8093 4.7346-4.1693 4.564-.1614-.0134-1.2787-.2534-1.6253.0866-.5027.4894.1999.8534.2506 1.9667v.004c.076 2.6574-1.748 4.076-3.7893 4.3334v-.0027c0 .0027-.4427.0573-.6401.0573-.364.004-.6519-.0506-.7519-.0573v.0027c-2.036-.2574-3.864-1.6787-3.7854-4.3334v-.004c.052-1.1133.752-1.4773.2507-1.9667-.3467-.34-1.468-.096-1.6253-.0866-2.3587.1706-4.1707-2.3214-4.1707-4.564z" fill="#302f36"/><path d="m67.3695 92.7813h.0319c.1974 0 .6401-.0546.6401-.0573v.0027c2.0413-.2574 3.8653-1.6747 3.7893-4.3334v-.004c-.0507-1.1133-.7533-1.4773-.2506-1.9667.3466-.34 1.4639-.1 1.6253-.0866 2.36.1706 4.1693-2.3214 4.1693-4.564v-.0027c0-3.124-2.8067-4.8707-5.544-4.4654-1.4147.212-2.4547 1.0814-3.3027 2.1267-.7973.984-.9933.3493-.8853-.296.5093-2.9787 1.8667-4.6706 4.3933-5.4626.252-.0814 1.3147-.3214.3427-.3214h-5.0093z" fill="#46464e"/><path d="m15.3775 81.7693c0-3.124 2.8054-4.8734 5.544-4.4654 1.4147.212 2.456 1.0801 3.3 2.1267.7987.984.9973.3493.888-.296-.508-2.9787-1.8653-4.6706-4.3933-5.4626-.252-.0814-1.316-.3214-.3467-.3214h10.068c.9706 0-.092.24-.3427.3214-2.5266.792-3.8853 2.4839-4.3933 5.4626-.1094.6453.0867 1.28.8853.296.8467-1.0466 1.8854-1.9147 3.3027-2.1267 2.7373-.4053 5.544 1.3414 5.544 4.4654v.0027c0 2.2426-1.8093 4.7346-4.1693 4.564-.1627-.0134-1.2787-.2534-1.6254.0866-.504.4894.1987.8534.2507 1.9667v.004c.076 2.6574-1.7507 4.076-3.7893 4.3334v-.0027c0 .0027-.4427.0573-.6414.0573-.3626.004-.652-.0506-.7506-.0573v.0027c-2.036-.2574-3.864-1.6787-3.7867-4.3334v-.004c.052-1.1133.752-1.4773.2507-1.9667-.3454-.34-1.4667-.096-1.6254-.0866-2.3573.1706-4.1693-2.3214-4.1693-4.564z" fill="#302f36"/><path d="m25.4269 92.7813h.0319c.1987 0 .6414-.0546.6414-.0573v.0027c2.0386-.2574 3.8653-1.6747 3.7893-4.3334v-.004c-.052-1.1133-.7547-1.4773-.2507-1.9667.3467-.34 1.4627-.1 1.6254-.0866 2.36.1706 4.1693-2.3214 4.1693-4.564v-.0027c0-3.124-2.8067-4.8707-5.544-4.4654-1.4173.212-2.456 1.0814-3.3027 2.1267-.7986.984-.9947.3493-.8853-.296.508-2.9787 1.8667-4.6706 4.3933-5.4626.2507-.0814 1.3133-.3214.3427-.3214h-5.0106z" fill="#46464e"/><path d="m57.3188 56.1693c0-3.1253 2.8067-4.872 5.5453-4.4667 1.4134.2134 2.4561 1.0814 3.2987 2.128.8.984.9987.3494.888-.2973-.5067-2.9787-1.864-4.6693-4.392-5.46-.2533-.084-1.316-.324-.3467-.324h10.0667c.972 0-.0907.24-.3427.324-2.5266.7907-3.884 2.4813-4.3933 5.46-.108.6467.088 1.2813.8853.2973.848-1.0466 1.888-1.9146 3.3027-2.128 2.7373-.4026 5.544 1.3414 5.544 4.4667v.0027c0 2.2426-1.8093 4.7346-4.1693 4.5653-.1614-.016-1.2787-.256-1.6253.0827-.5027.492.1999.8546.2506 1.9693v.0053c.076 2.6547-1.748 4.0747-3.7893 4.332v-.0026c0 .0026-.4427.0573-.6401.0573-.364.004-.6519-.0507-.7519-.0573v.0026c-2.036-.2573-3.864-1.68-3.7854-4.332v-.0053c.052-1.1147.752-1.4773.2507-1.9693-.3467-.3387-1.468-.096-1.6253-.0827-2.3587.1693-4.1707-2.3227-4.1707-4.5653z" fill="#302f36"/><path d="m67.3695 67.1813h.0319c.1974 0 .6401-.0547.6401-.0573v.0026c2.0413-.2573 3.8653-1.676 3.7893-4.332v-.0053c-.0507-1.1147-.7533-1.4773-.2506-1.9693.3466-.3387 1.4639-.0987 1.6253-.0827 2.36.1693 4.1693-2.3227 4.1693-4.5653v-.0027c0-3.1253-2.8067-4.8693-5.544-4.4667-1.4147.2134-2.4547 1.0814-3.3027 2.128-.7973.984-.9933.3494-.8853-.2973.5093-2.9787 1.8667-4.6693 4.3933-5.46.252-.084 1.3147-.324.3427-.324h-5.0093z" fill="#46464e"/><path d="m15.3775 56.1693c0-3.1253 2.8054-4.872 5.544-4.4667 1.4147.2134 2.456 1.0814 3.3 2.128.7987.984.9973.3494.888-.2973-.508-2.9787-1.8653-4.6693-4.3933-5.46-.252-.084-1.316-.324-.3467-.324h10.068c.9706 0-.092.24-.3427.324-2.5266.7907-3.8853 2.4813-4.3933 5.46-.1094.6467.0867 1.2813.8853.2973.8467-1.0466 1.8854-1.9146 3.3027-2.128 2.7373-.4026 5.544 1.3414 5.544 4.4667v.0027c0 2.2426-1.8093 4.7346-4.1693 4.5653-.1627-.016-1.2787-.256-1.6254.0827-.504.492.1987.8546.2507 1.9693v.0053c.076 2.6547-1.7507 4.0747-3.7893 4.332v-.0026c0 .0026-.4427.0573-.6414.0573-.3626.004-.652-.0507-.7506-.0573v.0026c-2.036-.2573-3.864-1.68-3.7867-4.332v-.0053c.052-1.1147.752-1.4773.2507-1.9693-.3454-.3387-1.4667-.096-1.6254-.0827-2.3573.1693-4.1693-2.3227-4.1693-4.5653z" fill="#302f36"/><path d="m25.4269 67.1813h.0319c.1987 0 .6414-.0547.6414-.0573v.0026c2.0386-.2573 3.8653-1.676 3.7893-4.332v-.0053c-.052-1.1147-.7547-1.4773-.2507-1.9693.3467-.3387 1.4627-.0987 1.6254-.0827 2.36.1693 4.1693-2.3227 4.1693-4.5653v-.0027c0-3.1253-2.8067-4.8693-5.544-4.4667-1.4173.2134-2.456 1.0814-3.3027 2.128-.7986.984-.9947.3494-.8853-.2973.508-2.9787 1.8667-4.6693 4.3933-5.46.2507-.084 1.3133-.324.3427-.324h-5.0106z" fill="#46464e"/><path d="m57.3188 30.568c0-3.1254 2.8067-4.8734 5.5453-4.4667 1.4134.2133 2.4561 1.0813 3.2987 2.128.8.984.9987.3493.888-.2947-.5067-2.9813-1.864-4.672-4.392-5.4626-.2533-.084-1.316-.324-.3467-.324h10.0667c.972 0-.0907.24-.3427.324-2.5266.7906-3.884 2.4813-4.3933 5.4626-.108.644.088 1.2787.8853.2947.848-1.0467 1.888-1.9147 3.3027-2.128 2.7373-.404 5.544 1.3413 5.544 4.4667v.0026c0 2.2414-1.8093 4.736-4.1693 4.5654-.1614-.0134-1.2787-.256-1.6253.0853-.5027.4893.1999.852.2506 1.9667v.0053c.076 2.656-1.748 4.0747-3.7893 4.3333v-.0026c0 .0026-.4427.0573-.6401.0573-.364.0014-.6519-.0507-.7519-.0573v.0026c-2.036-.2586-3.864-1.68-3.7854-4.3333v-.0053c.052-1.1147.752-1.4774.2507-1.9667-.3467-.3413-1.468-.096-1.6253-.0853-2.3587.1706-4.1707-2.324-4.1707-4.5654z" fill="#302f36"/><path d="m67.3695 41.5813h.0319c.1974 0 .6401-.0547.6401-.0573v.0026c2.0413-.2586 3.8653-1.6773 3.7893-4.3333v-.0053c-.0507-1.1147-.7533-1.4774-.2506-1.9667.3466-.3413 1.4639-.0987 1.6253-.0853 2.36.1706 4.1693-2.324 4.1693-4.5654v-.0026c0-3.1254-2.8067-4.8707-5.544-4.4667-1.4147.2133-2.4547 1.0813-3.3027 2.128-.7973.984-.9933.3493-.8853-.2947.5093-2.9813 1.8667-4.672 4.3933-5.4626.252-.084 1.3147-.324.3427-.324h-5.0093z" fill="#46464e"/><path d="m15.3775 30.568c0-3.1254 2.8054-4.8734 5.544-4.4667 1.4147.2133 2.456 1.0813 3.3 2.128.7987.984.9973.3493.888-.2947-.508-2.9813-1.8653-4.672-4.3933-5.4626-.252-.084-1.316-.324-.3467-.324h10.068c.9706 0-.092.24-.3427.324-2.5266.7906-3.8853 2.4813-4.3933 5.4626-.1094.644.0867 1.2787.8853.2947.8467-1.0467 1.8854-1.9147 3.3027-2.128 2.7373-.404 5.544 1.3413 5.544 4.4667v.0026c0 2.2414-1.8093 4.736-4.1693 4.5654-.1627-.0134-1.2787-.256-1.6254.0853-.504.4893.1987.852.2507 1.9667v.0053c.076 2.656-1.7507 4.0747-3.7893 4.3333v-.0026c0 .0026-.4427.0573-.6414.0573-.3626.0014-.652-.0507-.7506-.0573v.0026c-2.036-.2586-3.864-1.68-3.7867-4.3333v-.0053c.052-1.1147.752-1.4774.2507-1.9667-.3454-.3413-1.4667-.096-1.6254-.0853-2.3573.1706-4.1693-2.324-4.1693-4.5654z" fill="#302f36"/><path d="m25.4269 41.5813h.0319c.1987 0 .6414-.0547.6414-.0573v.0026c2.0386-.2586 3.8653-1.6773 3.7893-4.3333v-.0053c-.052-1.1147-.7547-1.4774-.2507-1.9667.3467-.3413 1.4627-.0987 1.6254-.0853 2.36.1706 4.1693-2.324 4.1693-4.5654v-.0026c0-3.1254-2.8067-4.8707-5.544-4.4667-1.4173.2133-2.456 1.0813-3.3027 2.128-.7986.984-.9947.3493-.8853-.2947.508-2.9813 1.8667-4.672 4.3933-5.4626.2507-.084 1.3133-.324.3427-.324h-5.0106z" fill="#46464e"/></svg>