<svg fill="none" height="140" viewBox="0 0 93 140" width="93" xmlns="http://www.w3.org/2000/svg"><path d="m.118833 4.53993c0-2.004 1.622437-3.629301 3.621537-3.629301h84.75553c2.0005 0 3.6229 1.625301 3.6229 3.629301v130.98807c0 2.004-1.6224 3.629-3.6229 3.629h-84.75553c-1.9991 0-3.621537-1.625-3.621537-3.629z" fill="#fff"/><path d="m67.0281 93.1746 7.028 9.5574-7.028 9.557-7.0266-9.557z" fill="#73242f"/><path d="m67.0508 112.26 7.0053-9.528-7.0053-9.5267z" fill="#8c2a38"/><path d="m25.0855 93.1746 7.028 9.5574-7.028 9.557-7.0253-9.557z" fill="#73242f"/><path d="m25.1082 112.26 7.0053-9.528-7.0053-9.5267z" fill="#8c2a38"/><path d="m67.0281 27.7773 7.028 9.5573-7.028 9.5573-7.0266-9.5573z" fill="#73242f"/><path d="m67.0508 46.8626 7.0053-9.528-7.0053-9.5266z" fill="#8c2a38"/><path d="m25.0855 27.7773 7.028 9.5573-7.028 9.5573-7.0253-9.5573z" fill="#73242f"/><path d="m25.1082 46.8626 7.0053-9.528-7.0053-9.5266z" fill="#8c2a38"/><g fill="#73242f"><path d="m84.5042 131.577-.5244 5.145h-5.2869v-1.212h4.1742l.3119-2.813c-.5056.297-1.0796.446-1.7222.446-.9402 0-1.6867-.312-2.2395-.935-.5527-.619-.8291-1.458-.8291-2.516 0-1.063.2882-1.902.8646-2.516.5717-.61 1.3725-.914 2.4025-.914.9118 0 1.6559.252 2.2324.758.5764.506.9047 1.205.985 2.098h-1.2402c-.0803-.591-.2905-1.037-.6307-1.34-.3402-.297-.789-.446-1.3465-.446-.6095 0-1.0867.208-1.4316.623-.3496.416-.5244.99-.5244 1.723 0 .689.1889 1.242.5669 1.658.3733.42.8717.631 1.4954.631.5716 0 1.0205-.126 1.3465-.376l.3473-.283z"/><path d="m7.57076 8.48961.52443-5.14515h5.28691v1.21188h-4.17425l-.31183 2.81353c.50554-.29765 1.07959-.44648 1.72218-.44648.9402 0 1.6867.31183 2.2394.93548.5528.61893.8292 1.45756.8292 2.51583 0 1.0631-.2882 1.9017-.8646 2.5159-.5717.6095-1.3725.9142-2.4025.9142-.91183 0-1.65597-.2527-2.23238-.7583-.5764-.5055-.90477-1.2047-.98509-2.0977h1.24023c.08031.5906.29056 1.0371.63074 1.3394.34017.2977.78901.4465 1.3465.4465.6095 0 1.0867-.2079 1.4316-.6236.3496-.4158.5244-.9899.5244-1.7222 0-.68978-.189-1.24256-.5669-1.65833-.3733-.4205-.8717-.63074-1.4954-.63074-.57166 0-1.02051.1252-1.34651.37561l-.34726.28348z"/><path d="m9.8322 27.7786-3.72005-5.0573 3.72005-5.06 3.72 5.06z"/></g><path d="m9.82013 17.6773-3.70801 5.044 3.70801 5.0427z" fill="#8c2a38"/><path d="m82.2415 112.528 3.72 5.06-3.72 5.059-3.7187-5.059z" fill="#73242f"/><path d="m82.2522 122.631 3.7093-5.043-3.7093-5.044z" fill="#8c2a38"/><path d="m46.0361 60.4759 7.0267 9.5574-7.0267 9.5573-7.0266-9.5573z" fill="#73242f"/><path d="m46.0575 79.56 7.0053-9.5267-7.0053-9.5267z" fill="#8c2a38"/></svg>