<svg fill="none" height="141" viewBox="0 0 93 141" width="93" xmlns="http://www.w3.org/2000/svg"><path d="m.117462 5.15599c0-2.00534 1.622458-3.62933 3.621588-3.62933h84.75685c2.0004 0 3.6216 1.62399 3.6216 3.62933v130.98701c0 2.005-1.6212 3.63-3.6216 3.63h-84.75685c-1.99913 0-3.621588-1.625-3.621588-3.63z" fill="#fff"/><path d="m9.88948 28.2627-3.71868-5.06 3.71868-5.06 3.72002 5.06z" fill="#73242f"/><path d="m9.87878 18.1587-3.708 5.044 3.708 5.0453z" fill="#8c2a38"/><path d="m79.4047 137.338h-1.3678v-7.307c0-.987.2977-1.76.893-2.317.5906-.558 1.3796-.836 2.367-.836 1.0253 0 1.8238.262 2.3954.786.5717.525.8576 1.259.8576 2.204h-1.3607c0-.59-.1607-1.051-.4819-1.382-.326-.33-.7962-.496-1.4104-.496-.5622 0-1.0158.178-1.3607.532-.3496.354-.5268.85-.5315 1.488z" fill="#73242f"/><path d="m12.6675 3.96055h1.3678v7.30665c0 .9875-.2976 1.76-.8929 2.3175-.5906.5575-1.3796.8362-2.3671.8362-1.02523 0-1.82369-.2622-2.39538-.7866-.57168-.5245-.85752-1.2591-.85752-2.2041h1.3607c0 .5906.16064 1.0513.48191 1.382.326.3307.79609.4961 1.41029.4961.5623 0 1.0158-.1772 1.3607-.5315.3496-.3544.5268-.8505.5315-1.4883z" fill="#73242f"/><path d="m82.3001 113.011 3.7187 5.06-3.7187 5.06-3.7199-5.06z" fill="#73242f"/><path d="m82.3108 123.115 3.708-5.044-3.708-5.044z" fill="#8c2a38"/><path d="m66.7588 41.76s4.9667 1.7973 9.5893 6.816v6.1453h-9.5893z" fill="#a22735"/><path d="m62.8175 117.528 5.144 6.675s-10.0347 6.661-12.0574 6.776c-2.024.117-24.8959-6.958-24.8959-6.958l5.1626-8.253z" fill="#a22735"/><path d="m36.1708 125.599s2.8347-9.071 3.568-9.675c.7334-.601 4.464 1.115 4.464 1.115s-2.8773 2.846-4.296 9.68z" fill="#35346f"/><path d="m76.3481 57.776v34.492s-4.3359 5.5293-13.0373 6.3467c0 0-.1627-34.9374 13.0373-40.8387z" fill="#a22735"/><path d="m50.8922 96.7186h-4.4374v-8.1453h4.4374z" fill="#181419"/><path d="m59.7895 99.5307h-4.4373v-8.1427h4.4373z" fill="#181419"/><path d="m46.4215 99.956h-4.4374v-8.1467h4.4374z" fill="#a22735"/><path d="m55.3295 97.3h-4.4374v-8.1467h4.4374z" fill="#a22735"/><path d="m42.1255 102.409h-4.4373v-8.1437h4.4373z" fill="#181419"/><path d="m37.6548 102.573h-4.4386v-5.0703h4.4386z" fill="#a22735"/><path d="m59.7508 102.427-1.0147-3.6297 3.4107-.1826z" fill="#a05e33"/><path d="m64.4988 98.484s-1.5533-22.82 11.8493-40.708c-.016-1.576-.0239-2.3747-.0239-2.3747s-7.8881 3.708-12.3761 19.3414c-4.488 15.6346-2.4546 23.7413-2.4546 23.7413z" fill="#181419"/><path d="m62.4495 97.9733s-.412-15.0146 3.2947-24.012c3.7066-8.9973 6.2839-15.1333 10.6039-18.5213v-6.864s-12.1759 11.7733-16.1679 25.0333c-3.992 13.2627-3.2467 24.8627-3.2467 24.8627z" fill="#35346f"/><g fill="#a22735"><path d="m62.6748 98.372c0-.5627-1.144-1.02-2.552-1.02-1.4106 0-2.552.4573-2.552 1.02s1.1414 1.0186 2.552 1.0186c1.408 0 2.552-.4559 2.552-1.0186z"/><path d="m62.4855 96.128c.0293-.5493-1.0654-1.0547-2.4427-1.128-1.3787-.0733-2.52.3147-2.548.864-.0293.552 1.064 1.0573 2.4427 1.1307 1.3773.0733 2.52-.3147 2.548-.8667z"/><path d="m62.4482 93.5467c.0573-.536-.988-1.0907-2.336-1.2374-1.348-.1453-2.4867.1747-2.5454.712-.0573.5387.988 1.0933 2.336 1.2387 1.3467.1466 2.4854-.1747 2.5454-.7133z"/><path d="m62.5642 90.6827c.0866-.5267-.9094-1.1281-2.2267-1.3467-1.316-.2187-2.4546.0306-2.5413.5573-.0867.5253.9093 1.1307 2.228 1.3494 1.3147.216 2.452-.0347 2.54-.56z"/><path d="m62.8454 87.588c.116-.5147-.8332-1.1667-2.1186-1.4574-1.2853-.2893-2.4213-.1093-2.5373.4054-.116.5133.832 1.164 2.116 1.456 1.2866.2893 2.4239.1093 2.5399-.404z"/><path d="m63.2962 84.3147c.1453-.5027-.7547-1.2027-2.0107-1.5654-1.2547-.364-2.3894-.252-2.5347.2507-.144.5.756 1.2027 2.0094 1.5653 1.256.364 2.3893.2494 2.536-.2506z"/><path d="m63.9242 80.916c.1746-.4893-.676-1.236-1.9-1.6733-1.224-.436-2.3574-.3907-2.5307.096-.1747.4893.676 1.24 1.9 1.6746 1.224.4374 2.3573.3934 2.5307-.0973z"/><path d="m64.7388 77.448c.2027-.476-.6-1.276-1.7933-1.784-1.192-.508-2.324-.5333-2.528-.0573-.2027.476.6 1.276 1.7933 1.784 1.1934.508 2.3254.5333 2.528.0573z"/><path d="m65.7442 73.9613c.2306-.464-.5227-1.3133-1.684-1.8933-1.1627-.5813-2.2921-.6747-2.5254-.2107-.2307.4627.5227 1.312 1.6853 1.892 1.1614.5814 2.2921.6747 2.5241.212z"/><path d="m66.9482 70.508c.2613-.4507-.444-1.3493-1.576-2-1.1307-.6533-2.2587-.8173-2.52-.3653-.2627.4507.4453 1.3467 1.5747 2 1.132.6547 2.2599.8186 2.5213.3653z"/><path d="m68.3588 67.1427c.2894-.44-.3666-1.3854-1.4666-2.1094-1.1014-.7267-2.2281-.9573-2.5187-.5173-.2907.44.368 1.3826 1.468 2.1093s2.2267.9574 2.5173.5174z"/><path d="m69.9814 63.9213c.32-.4293-.288-1.4213-1.3586-2.2213-1.0694-.7987-2.1947-1.0987-2.5147-.672-.3186.428.2906 1.4227 1.36 2.22 1.068.7987 2.1947 1.1013 2.5133.6733z"/><path d="m71.8241 60.8907c.3494-.4147-.2107-1.456-1.248-2.328-1.04-.872-2.1627-1.2427-2.512-.8254-.348.4134.212 1.456 1.2507 2.328 1.0386.872 2.1613 1.24 2.5093.8254z"/><path d="m73.8962 58.1093c.376-.404-.1347-1.4946-1.1427-2.4373-1.0054-.9453-2.1294-1.3827-2.5054-.9814-.3786.4027.1334 1.4947 1.1401 2.4401 1.008.9426 2.1306 1.3826 2.508.9786z"/><path d="m76.2001 55.628c.4067-.3907-.056-1.532-1.032-2.5467-.976-1.016-2.0973-1.524-2.504-1.1333-.4066.388.0561 1.528 1.0321 2.5466.9773 1.016 2.0986 1.524 2.5039 1.1334z"/></g><path d="m50.5921 78.516h-7.0533v7.804h7.0533z" fill="#3e4ca8"/><path d="m43.8442 78.8467h6.7479v-7.0787z" fill="#ae8f42"/><path d="m43.6001 79.448h7.112v5.792h-7.112z" fill="#ae8f42"/><path d="m43.6001 85.7493h6.992v1.8907l-6.992 4.232z" fill="#ae8f42"/><path d="m51.9561 71.0933-.2706 16.4227 5.7867 3.2706s1.1386-13.6013 2.5119-16.0439c1.376-2.44-8.028-3.6494-8.028-3.6494z" fill="#a22735"/><path d="m52.0561 71.044-1.7187.852v16.8067h1.7187z" fill="#dee4f5"/><path d="m52.6108 70.4013-1.7187.8507v16.808h1.7187z" fill="#181419"/><path d="m63.8561 64.7c-.584 1.472-1.5719 2.836-2.3013 4.24-1.188 2.2893-2.0347 4.7133-2.424 7.2373-.036 0-.0707.0027-.1053.0027-3.5574 0-6.6-2.204-7.84-5.316.2627-.2987.5187-.6067.8467-.8827.592-.4973 1.2879-.8907 1.9039-1.3613 1.496-1.148 2.6401-2.7293 4.3134-3.628 1.2613-.68 2.6026-1.148 3.9453-1.6347.576-.212 1.1614-.42 1.76-.56.1827.028.3614.0547.544.08-.2213.6147-.412 1.2427-.6427 1.8227z" fill="#181419"/><path d="m63.8561 64.7c-.584 1.472-1.5719 2.836-2.3013 4.24-1.0826 2.088-1.8826 4.2893-2.3106 6.5733-.0734 0-.1467.0053-.2187.0053-3.3934 0-6.2787-2.1746-7.34-5.2066.1093-.1147.2227-.224.3467-.3307.592-.4973 1.2879-.8907 1.9039-1.3613 1.496-1.148 2.6401-2.7293 4.3134-3.628 1.2613-.68 2.6026-1.148 3.9453-1.6347.576-.212 1.1614-.42 1.76-.56.1827.028.3627.0547.544.08-.2213.6147-.412 1.2427-.6427 1.8227z" fill="#ae8f42"/><path d="m61.5548 68.94c-.4746.92-.896 1.86-1.2547 2.8173-.4026.128-.8306.1987-1.2746.1987-2.284 0-4.1387-1.82-4.208-4.0867 1.104-1.0146 2.1-2.1613 3.432-2.8773.8013-.432 1.636-.7787 2.4827-1.0987 1.0733.476 1.9066 1.3854 2.2853 2.508-.4854.8507-1.0213 1.6894-1.4627 2.5387z" fill="#3e4ca8"/><path d="m35.2242 84.3546 6.9053-3.9853.3493 12.8573-7.2546 3.9947z" fill="#a22735"/><path d="m43.8441 79.636h-1.7186v13.0093h1.7186z" fill="#dee4f5"/><path d="m28.6535 101.133s2.972 1.67 6.036 2.096l.3693-18.641s-4.7013 1.7426-6.8133 1.664z" fill="#bcc7ea"/><path d="m28.6535 101.133-1.0707-.406v-14.347h1.0707z" fill="#675155"/><path d="m27.5828 100.727s-1.584-.659-2.2707-1.1883v-12.96h2.2707z" fill="#181419"/><path d="m25.3121 99.5387s-4.9653-1.7961-9.5879-6.8147v-6.1453h9.5879z" fill="#a22735"/><path d="m43.2055 80.216h-1.72v13.0106h1.72z" fill="#181419"/><path d="m35.7588 103.229h-1.0693v-18.2863h1.0693z" fill="#675155"/><path d="m63.1001 62.568c-.644 0-1.4853.1267-2.5399.5253-3.496 1.3254-7.7707 4.9747-12.7054 10.8414-5.944 7.068-11.7866 9.8746-15.6413 10.9866-4.1693 1.204-8.908.98-8.9374.9774l-.2039 1.148c.1226.024 4.9786.2786 9.388-.9787 4.0293-1.1493 10.1266-4.0547 16.2879-11.38 11.0854-13.1827 15.312-10.784 15.3533-10.7587l.6601-.9626c-.084-.06-.6134-.3987-1.6614-.3987z" fill="#9c6c3e"/><path d="m35.7588 97.9613s14.2867-9.3186 15.636-9.3186 5.3973 2.836 5.3973 2.836v-1.6454s-4.8813-3.2546-5.516-3.2546c-.636 0-15.5173 9.6426-15.5173 9.6426z" fill="#dee4f5"/><path d="m37.3561 102.427s12.0734-8.875 13.7867-8.875c1.7147 0 6.684 4.4373 6.684 4.4373z" fill="#ae8f42"/><path d="m35.7588 99.0933s14.2867-9.476 15.636-9.476 5.3973 3.1947 5.3973 3.1947v-1.5987s-4.8813-3.1533-5.516-3.1533c-.636 0-15.5173 9.3467-15.5173 9.3467z" fill="#ae8f42"/><path d="m56.4028 97.3333s-.0347-15.076 3.492-25.0186c3.5253-9.9454 12.4027-23.9267 15.012-25.1974l1.4413 1.4587s-6.2466 5.148-15.184 24.4707c-2.3266 9.5653-2.4066 5.4266-3.5306 24.9146-1.124 19.4897-1.2307-.628-1.2307-.628z" fill="#9c6c3e"/><path d="m45.2935 99.0933s4.9386-3.632 5.9879-3.632c1.0507 0 3.2894 2.044 3.2894 2.044s-6.836 4.5577-8.7147 3.9137c-1.8786-.643-.5626-2.3257-.5626-2.3257z" fill="#d1d7ec"/><path d="m59.0455 116.907s2.3307-2.326 1.7374-8.366c-.596-6.038-1.0988-12.0877 3.3186-10.241 4.4186 1.845.5986 6.552-2.0667 4.067 0 0 .0147 2.977.4 6.896.3867 3.92.104 7.672-3.3893 7.644z" fill="#c57135"/><path d="m61.3802 115.924s.648-3.629 0-4.372c-.648-.74-.0454-1.888 0-2.773.0466-.886.9747-8.344-4.1227-11.031-5.096-2.688-4.6773 1.0253-10.9333 3.385 0 0-.9707 14.544 3.2893 15.747 0 0 8.4773.732 11.7667-.956z" fill="#dee4f5"/><path d="m40.5655 114.992s-1.6534-1.353-1.6534-5.292c0-3.94-2.0426-8.057-4.7786-6.585-2.736 1.476.0293 4.27 1.5933 2.497 0 0 .1814 1.924.1814 4.481 0 2.555 1.4293 5.538 4.6573 4.899z" fill="#9b5b32"/><path d="m42.1375 115.909s-1.9147-1.568-1.9147-6.125-1.028-9.344-4.1933-7.639c-3.1667 1.707.0346 4.943 1.844 2.888 0 0 .2093 2.23.2093 5.186 0 2.958 1.444 5.969 4.0547 5.69z" fill="#a05e33"/><path d="m44.2028 116.404s-1.8146-3.204-1.8146-8.107c0-4.904-1.368-8.513-4.7747-6.68-3.4067 1.836.0373 5.318 1.9827 3.11 0 0 .2253 2.393.2253 5.576 0 3.181 1.5747 6.4 4.3813 6.101z" fill="#a66133"/><path d="m45.8561 116.648s-1.292-2.175-1.292-7.643c0-5.469-1.0866-10.6383-4.8853-8.59-3.7987 2.044.0427 5.924 2.212 3.462 0 0 .2507 2.672.2507 6.219s.584 6.885 3.7146 6.552z" fill="#aa6534"/><path d="m48.0455 116.888s-2.4493-2.005-2.4493-7.839c0-5.836-.088-11.669-4.1414-9.4864-4.0533 2.1824.044 6.3254 2.3587 3.6944 0 0 .2693 2.852.2693 6.639 0 3.784.6227 7.347 3.9627 6.992z" fill="#af6734"/><path d="m49.6135 116.88s-2.5467-2.083-2.5467-8.153c0-6.068-.0933-12.139-4.3093-9.867-4.216 2.271.0466 6.577 2.4546 3.843 0 0 .2787 2.966.2787 6.904 0 3.937.648 7.642 4.1227 7.273z" fill="#c57135"/><path d="m36.7695 113.369s9.568 5.279 25.128 1.918l.92 2.241s-12.06 4.727-26.6467-1.76z" fill="#302f36"/><path d="m57.4962 112.04s.2533.051.636.081c.1893.019.4119.027.6493.03.2373.017.4853-.018.7333-.035.2453-.025.4733-.119.6946-.152.2054-.073.4014-.124.5827-.165.292-.167.5694-.263.5694-.263l.0373.032s-.1187.235-.424.553c-.1773.098-.3933.228-.644.314-.2547.028-.5293.072-.7973.053-1.0774-.011-2.0507-.404-2.0507-.404z" fill="#c57135"/><path d="m53.2348 112.084s-.9747.393-2.0507.404c-.268.019-.5426-.025-.7986-.053-.248-.086-.4654-.216-.644-.314-.3054-.318-.424-.553-.424-.553l.0373-.032s.2774.096.5694.263c.1813.041.3786.092.5826.165.2213.033.4493.127.696.152.248.017.496.052.7333.035.2374-.003.4601-.011.6494-.03.3827-.03.636-.081.636-.081z" fill="#c57135"/><path d="m54.5548 110.319s-.252-.216-.696-.415c-.1066-.057-.2373-.085-.3666-.133-.1307-.042-.2627-.102-.4134-.118-.296-.056-.6067-.114-.9253-.085-.316-.015-.6253.052-.912.119-.2933.033-.5694.06-.7987.138-.468.107-.8186.128-.8186.128l-.0214-.041s.2667-.207.7267-.44c.2254-.129.5094-.227.8334-.267.32-.056.6639-.068 1.0079-.01.3453.006.676.105.9814.198.3053.088.5653.246.784.367.428.271.6493.525.6493.525z" fill="#333558"/><path d="m57.6135 110.285c0-.001.1587-.185.464-.388.1493-.102.3386-.206.5533-.296.22-.068.452-.172.704-.186.248-.052.5027-.082.7387-.042.236.028.4507.087.6147.187.3346.181.5146.352.5146.352l-.0173.041s-.268.016-.6027-.037c-.1653-.049-.364-.036-.5666-.059-.204-.052-.4227-.076-.6467-.07-.2267-.023-.444.041-.656.073-.2027.055-.3987.112-.5574.18-.324.133-.5119.279-.5119.279z" fill="#333558"/><path d="m56.7255 111.047s-.0947-.683-.076-1.715c.0093-.517.056-1.12.18-1.761.0627-.32.176-.643.2667-.976.1453-.306.2919-.619.4386-.93.148-.317.1067-.51-.0853-.72-.196-.181-.4733-.298-.7547-.361-.2813-.063-.568-.08-.8373-.06-.268.015-.5267.064-.7307.168-.2106.089-.4013.203-.516.349-.1453.131-.1947.294-.2733.416-.0854.27-.1133.444-.1133.444h-.0467s-.016-.17.0053-.485c.0427-.152.0694-.357.2161-.537.1146-.196.3146-.388.5599-.518.24-.149.536-.234.848-.284.316-.058.6547-.029.9987.032.3373.092.6946.239.9706.543.06.087.1214.175.1734.264l.076.32c-.008.227-.0627.463-.152.587-.16.298-.3213.597-.4787.892-.1.312-.224.61-.3013.917-.1467.613-.236 1.2-.2814 1.708-.088 1.019-.0399 1.701-.0399 1.701z" fill="#333558"/><path d="m52.8575 102.404s1.3906-.103 2.78-.164c.6946-.06 1.3893-.079 1.9106.003.5214.06.8681.161.8681.161v.047s-.3467.101-.8681.161c-.5213.081-1.216.063-1.9106.003-1.3894-.062-2.78-.164-2.78-.164z" fill="#333558"/><path d="m54.9415 101.109s.4986-.102.9959-.164c.2494-.06.4974-.078.6854.003.1853.06.3107.161.3107.161v.047s-.1254.101-.3107.161c-.188.082-.436.063-.6854.003-.4973-.061-.9959-.164-.9959-.164z" fill="#333558"/><path d="m29.2535 23.768-5.1427-6.6747s10.0333-6.6586 12.0573-6.776c2.024-.1173 24.896 6.9614 24.896 6.9614l-5.1639 8.252z" fill="#a22735"/><path d="m55.9001 15.7s-2.8333 9.0707-3.5666 9.6747c-.7347.6013-4.4654-1.1147-4.4654-1.1147s2.8774-2.848 4.2974-9.6787z" fill="#35346f"/><path d="m15.7242 83.5213v-34.4933s4.336-5.5254 13.036-6.3427c0 0 .1613 34.9373-13.036 40.836z" fill="#a22735"/><path d="m41.1801 44.5813h4.436v8.1427h-4.436z" fill="#181419"/><path d="m32.2828 41.7653h4.4373v8.1467h-4.4373z" fill="#181419"/><path d="m45.6495 41.344h4.4373v8.1453h-4.4373z" fill="#a22735"/><path d="m36.7415 44h4.4386v8.1453h-4.4386z" fill="#a22735"/><path d="m49.9468 38.888h4.4373v8.1453h-4.4373z" fill="#181419"/><path d="m54.4162 38.7267h4.4399v5.0706h-4.4399z" fill="#a22735"/><path d="m32.3201 38.872 1.0161 3.628-3.412.1853z" fill="#a05e33"/><path d="m27.5734 42.8147s1.5534 22.8213-11.8492 40.7066c.016 1.5773.0239 2.3774.0239 2.3774s7.8894-3.7081 12.3774-19.3441c4.4866-15.6333 2.4533-23.7399 2.4533-23.7399z" fill="#181419"/><path d="m29.6228 43.3253s.4107 15.016-3.2946 24.0134c-3.7054 8.9973-6.2853 15.1333-10.604 18.5213v6.864s6.6627-1.3547 16.1667-25.0334c3.9933-13.264 3.2479-24.8626 3.2479-24.8626z" fill="#35346f"/><path d="m29.3975 42.9266c0 .5627 1.1427 1.0214 2.552 1.0214 1.4107 0 2.552-.4587 2.552-1.0214 0-.5626-1.1413-1.0199-2.552-1.0199-1.4093 0-2.552.4573-2.552 1.0199z" fill="#a22735"/><path d="m29.5855 45.172c-.028.5493 1.064 1.0547 2.4426 1.128 1.38.072 2.52-.316 2.5507-.8653.028-.552-1.0654-1.0574-2.444-1.1294-1.3787-.0733-2.52.3147-2.5493.8667z" fill="#a22735"/><path d="m29.6242 47.7493c-.0573.54.9893 1.0947 2.336 1.24 1.3467.1467 2.4866-.1746 2.5453-.7133.0573-.536-.988-1.0907-2.336-1.2373-1.3467-.1454-2.4853.1746-2.5453.7106z" fill="#a22735"/><path d="m29.5068 50.6147c-.0867.528.9093 1.1306 2.2279 1.3493 1.316.2187 2.4547-.0347 2.5414-.56.0853-.5267-.9106-1.128-2.2266-1.3467-1.3174-.2186-2.4561.0307-2.5427.5574z" fill="#a22735"/><path d="m29.2282 53.7107c-.1174.516.8306 1.1666 2.1173 1.456 1.2853.292 2.4213.1093 2.5373-.404.116-.5134-.8319-1.1667-2.1173-1.456-1.2866-.2907-2.4227-.1094-2.5373.404z" fill="#a22735"/><path d="m28.7761 56.984c-.1453.5026.7534 1.204 2.0094 1.5653 1.2546.3627 2.3906.2507 2.5346-.2493.1453-.5027-.7546-1.204-2.0093-1.5653-1.2547-.3654-2.3907-.2534-2.5347.2493z" fill="#a22735"/><path d="m28.1468 60.3827c-.1746.4893.6773 1.2373 1.9013 1.6746 1.224.4347 2.3574.3907 2.5307-.096.1733-.4893-.676-1.24-1.9-1.6773-1.224-.4347-2.3586-.3907-2.532.0987z" fill="#a22735"/><path d="m27.3335 63.852c-.2027.476.5987 1.2733 1.7934 1.784 1.1906.5067 2.3239.5306 2.5266.0573.204-.48-.6-1.2773-1.792-1.784-1.1933-.508-2.3267-.5347-2.528-.0573z" fill="#a22735"/><path d="m26.3282 67.3387c-.2333.464.5213 1.312 1.684 1.8906 1.1626.5827 2.292.6774 2.524.2107.232-.464-.5213-1.3093-1.684-1.8907-1.1613-.58-2.292-.6746-2.524-.2106z" fill="#a22735"/><path d="m25.1242 70.792c-.2627.4506.444 1.3466 1.5746 2 1.132.6533 2.26.8173 2.5213.364.26-.4507-.4453-1.3467-1.576-2-1.1306-.6534-2.2599-.8174-2.5199-.364z" fill="#a22735"/><path d="m23.7121 74.156c-.2893.44.368 1.3827 1.4694 2.1093 1.0986.7267 2.2267.9587 2.5147.5187.292-.44-.3654-1.3827-1.4654-2.1093-1.1-.7267-2.2267-.9587-2.5187-.5187z" fill="#a22735"/><path d="m22.0895 77.3773c-.3187.4294.2894 1.4227 1.36 2.2213 1.0694.8 2.1934 1.0987 2.5134.672.32-.4266-.2894-1.4213-1.3588-2.2213-1.0693-.7973-2.1946-1.0986-2.5146-.672z" fill="#a22735"/><path d="m20.2468 80.4093c-.348.4134.212 1.4547 1.2494 2.328 1.0386.8694 2.1626 1.2387 2.5106.8254.3493-.4147-.2107-1.4587-1.2507-2.328-1.0373-.8734-2.1613-1.2427-2.5093-.8254z" fill="#a22735"/><path d="m18.1761 83.1906c-.3773.4027.1333 1.4947 1.1413 2.4374 1.0067.9426 2.1294 1.3827 2.5068.9787.3773-.4014-.1334-1.492-1.1401-2.4374-1.008-.9426-2.1307-1.3827-2.508-.9787z" fill="#a22735"/><path d="m15.8708 85.672c-.4054.3907.056 1.5306 1.0333 2.5466.976 1.016 2.0974 1.524 2.504 1.1334.4054-.3907-.0573-1.532-1.0333-2.5467-.976-1.016-2.0974-1.524-2.504-1.1333z" fill="#a22735"/><path d="m41.4788 62.7813h7.0534v-7.8026h-7.0534z" fill="#3e4ca8"/><path d="m48.2281 62.4533h-6.7493v7.0774z" fill="#ae8f42"/><path d="m48.4721 61.852h-7.1133v-5.792h7.1133z" fill="#ae8f42"/><path d="m48.4721 55.5493h-6.9933v-1.8907l6.9933-4.2319z" fill="#ae8f42"/><path d="m40.1162 70.2053.2706-16.4213-5.7879-3.2707s-1.1361 13.6013-2.5121 16.0413c-1.3747 2.4427 8.0294 3.6507 8.0294 3.6507z" fill="#a22735"/><path d="m40.0148 70.2546 1.72-.8506v-16.808h-1.72z" fill="#dee4f5"/><path d="m39.4602 70.8987 1.7199-.852v-16.8067h-1.7199z" fill="#181419"/><path d="m28.2162 76.596c.584-1.468 1.5719-2.8333 2.3013-4.2387 1.1866-2.2893 2.0347-4.7147 2.424-7.2347.0347 0 .0693-.0026.1053-.0026 3.5574 0 6.5973 2.2 7.84 5.3147-.2627.3-.5213.6066-.8493.8826-.5894.4973-1.2867.8907-1.9013 1.3627-1.4974 1.1453-2.6401 2.7267-4.3134 3.6267-1.2613.6773-2.6027 1.1493-3.9467 1.636-.5746.2106-1.16.4186-1.7586.56-.1827-.0294-.364-.0547-.544-.0814.22-.6147.4107-1.2413.6427-1.8253z" fill="#181419"/><path d="m28.2162 76.596c.584-1.468 1.5719-2.8333 2.3013-4.2387 1.0826-2.0866 1.8827-4.2867 2.3093-6.5707.0734-.0026.1467-.0053.22-.0053 3.3947 0 6.2773 2.1747 7.34 5.2053-.1093.1147-.2227.224-.3493.3307-.5894.4973-1.2867.8907-1.9013 1.3627-1.4974 1.1453-2.6401 2.7267-4.3134 3.6267-1.2613.6773-2.6027 1.1493-3.9467 1.636-.5746.2106-1.16.4186-1.7586.56-.1827-.0294-.364-.0547-.544-.0814.22-.6147.4107-1.2413.6427-1.8253z" fill="#ae8f42"/><path d="m30.5175 72.3573c.476-.9173.896-1.8573 1.2547-2.816.4026-.1266.8306-.1973 1.2746-.1973 2.284 0 4.1387 1.82 4.2054 4.0853-1.1027 1.016-2.0987 2.1614-3.4294 2.8774-.8027.4333-1.6373.7786-2.484 1.1-1.072-.4774-1.9066-1.3854-2.284-2.508.4854-.8547 1.02-1.6907 1.4627-2.5414z" fill="#3e4ca8"/><path d="m56.8481 56.9453-6.9053 3.984-.3507-12.856 7.256-3.9946z" fill="#a22735"/><path d="m48.2282 61.664h1.7186v-13.0107h-1.7186z" fill="#dee4f5"/><path d="m63.4175 40.1667s-2.9707-1.6694-6.0347-2.096l-.3707 18.64s4.7014-1.744 6.8147-1.664z" fill="#bcc7ea"/><path d="m63.4175 40.1667 1.0707.4066v14.3453h-1.0707z" fill="#675155"/><path d="m64.4882 40.5733s1.5853.6587 2.2706 1.1867v12.9613h-2.2706z" fill="#181419"/><path d="m48.8668 61.0827h1.7173v-13.0094h-1.7173z" fill="#181419"/><path d="m56.3121 38.0707h1.0707v18.2839h-1.0707z" fill="#675155"/><path d="m28.9722 78.732c.644 0 1.4853-.128 2.5399-.5293 3.4974-1.3227 7.7707-4.9707 12.7067-10.8387 5.9427-7.0667 11.7854-9.8773 15.64-10.9893 4.1694-1.2027 8.7014-.6454 8.7294-.64l.2053-1.152c-.1226-.0227-4.772-.6094-9.1827.6493-4.028 1.148-10.1266 4.0547-16.2866 11.38-11.0854 13.1827-15.3121 10.7813-15.3534 10.7573l-.6613.964c.0853.06.6133.3987 1.6627.3987z" fill="#9c6c3e"/><path d="m56.3121 43.3387s-14.2853 9.3173-15.6346 9.3173-5.3973-2.836-5.3973-2.836v1.6493s4.8813 3.252 5.516 3.252 15.5159-9.6426 15.5159-9.6426z" fill="#dee4f5"/><path d="m54.7148 38.872s-12.0733 8.876-13.7867 8.876c-1.7133 0-6.6827-4.4387-6.6827-4.4387z" fill="#ae8f42"/><path d="m56.3121 42.2053s-14.2853 9.4774-15.6346 9.4774-5.3973-3.1961-5.3973-3.1961v1.5987s4.8813 3.1547 5.516 3.1547 15.5159-9.3467 15.5159-9.3467z" fill="#ae8f42"/><path d="m35.6695 43.9667s.0333 15.0746-3.492 25.0173c-3.528 9.9426-11.5907 23.776-15.208 25.0107l-1.2453-1.2707c3.1253-1.5813 13.2853-16.956 15.184-24.472 2.3266-9.564 2.4053-5.4267 3.5293-24.9133 1.1253-19.4894 1.232.628 1.232.628z" fill="#9c6c3e"/><path d="m46.7788 42.2053s-4.9387 3.6334-5.9893 3.6334c-1.0494 0-3.2893-2.0441-3.2893-2.0441s6.8373-4.5573 8.7146-3.9146c1.8787.644.564 2.3253.564 2.3253z" fill="#d1d7ec"/><path d="m33.0269 24.3933s-2.3321 2.3254-1.7374 8.364c.596 6.04 1.0987 12.0894-3.32 10.2427s-.5987-6.552 2.0653-4.068c0 0-.012-2.976-.3973-6.896-.388-3.9187-.1053-7.672 3.3894-7.6427z" fill="#c57135"/><path d="m30.6908 25.3747s-.6493 3.6306 0 4.3706c.648.7414.0467 1.8907 0 2.776-.0466.8853-.9733 8.3427 4.1227 11.0307 5.0973 2.688 4.6786-1.0253 10.9346-3.3853 0 0 .972-14.5441-3.2893-15.7481 0 0-8.48-.7306-11.768.9561z" fill="#dee4f5"/><path d="m51.5055 26.3067s1.6533 1.352 1.6533 5.292 2.0427 8.0573 4.78 6.584c2.736-1.4747-.0307-4.2707-1.5933-2.4947 0 0-.1826-1.9253-.1826-4.4827 0-2.5546-1.4281-5.536-4.6574-4.8986z" fill="#9b5b32"/><path d="m49.9348 25.3906s1.9147 1.5681 1.9147 6.1254 1.0266 9.3413 4.1933 7.6373c3.1653-1.7053-.0347-4.9426-1.8453-2.888 0 0-.208-2.2266-.208-5.184 0-2.9586-1.4441-5.9693-4.0547-5.6907z" fill="#a05e33"/><path d="m47.8681 24.896s1.816 3.2027 1.816 8.1067 1.3681 8.5133 4.7747 6.6773c3.4054-1.8333-.0386-5.316-1.984-3.1067 0 0-.2253-2.3933-.2253-5.576 0-3.1826-1.5734-6.4013-4.3814-6.1013z" fill="#a66133"/><path d="m46.2148 24.648s1.2933 2.1773 1.2933 7.6467c0 5.468 1.0854 10.6373 4.8854 8.5906 3.7986-2.044-.0414-5.9266-2.2121-3.464 0 0-.2519-2.672-.2519-6.2186 0-3.5467-.5841-6.888-3.7147-6.5547z" fill="#aa6534"/><path d="m44.0268 24.412s2.448 2.004 2.448 7.8373c0 5.836.0893 11.6694 4.1426 9.488 4.0534-2.1826-.044-6.3253-2.3613-3.696 0 0-.2667-2.8506-.2667-6.6373 0-3.784-.6239-7.3493-3.9626-6.992z" fill="#af6734"/><path d="m42.4588 24.4186s2.5467 2.0841 2.5467 8.1547c0 6.0667.0933 12.1374 4.308 9.8667 4.216-2.2707-.0453-6.5787-2.4533-3.8467 0 0-.2787-2.9627-.2787-6.9 0-3.9413-.6493-7.6467-4.1227-7.2747z" fill="#c57135"/><path d="m55.3028 27.9293s-9.568-5.2786-25.128-1.916l-.9213-2.2453s12.06-4.724 26.6466 1.7627z" fill="#302f36"/><path d="m34.5761 29.2587s-.2546-.0507-.636-.08c-.1906-.02-.4119-.028-.6493-.0307-.2373-.0173-.4853.0186-.7333.036-.248.0226-.4747.1173-.696.1507-.204.0733-.4014.124-.5827.1653-.2933.1653-.5706.26-.5706.26l-.0361-.0307s.1187-.2346.4241-.552c.1786-.0973.3946-.2293.6453-.3146.2547-.0267.5293-.0694.7959-.0534 1.0787.012 2.0508.4054 2.0508.4054z" fill="#c57135"/><path d="m38.8375 29.2147s.972-.3934 2.0507-.4054c.2666-.016.5413.0267.7973.0534.2493.0853.4654.2173.644.3146.3067.3174.424.552.424.552l-.036.0307s-.2774-.0947-.572-.26c-.1787-.0413-.3773-.092-.58-.1653-.2226-.0334-.4494-.1281-.6974-.1507-.2466-.0174-.4959-.0533-.7319-.036-.2374.0027-.46.0107-.6507.0307-.3813.0293-.6347.08-.6347.08z" fill="#c57135"/><path d="m37.5162 30.98s.2519.2147.6959.4147c.1067.0573.2387.0853.3681.1333.1306.0413.2626.1027.4133.116.2947.056.6053.1147.924.0867.3173.0146.6253-.0507.9133-.1187.292-.032.5694-.06.7987-.1387.4667-.1066.8186-.1266.8186-.1266l.0214.0413s-.268.2053-.7267.4387c-.2253.1293-.5093.2266-.8333.2653-.3214.0573-.6641.0693-1.0081.012-.3466-.008-.6759-.1053-.9826-.1987-.3053-.088-.5653-.2466-.7827-.3666-.4306-.2707-.652-.524-.652-.524z" fill="#333558"/><path d="m34.4588 31.0147c0 .0013-.1587.184-.464.388-.1493.1026-.34.2066-.5533.2946-.22.068-.4534.172-.7041.188-.2493.0507-.5026.0814-.7386.04-.2373-.0266-.4507-.0866-.6147-.1853-.3346-.1813-.516-.352-.5173-.352l.0214-.0413c-.0014 0 .2653-.016.6.036.1653.0493.3653.036.5679.06.2027.052.42.076.6453.0706.2267.0214.4441-.0413.6574-.0733.2027-.0547.3974-.1133.5574-.1813.324-.132.5106-.2787.5106-.2787z" fill="#333558"/><path d="m35.3468 30.252s.0947.6827.0747 1.716c-.008.516-.0561 1.1187-.1787 1.76-.0627.32-.176.6413-.2667.9747-.1453.308-.292.6186-.44.932-.1466.3173-.1067.508.0867.7186.1946.18.472.2974.7533.3614.2827.0626.5693.08.8387.0613.2666-.0173.5266-.0653.7306-.1693.2094-.088.4014-.2014.5161-.3494.1453-.1293.1946-.2933.2733-.4146.084-.2694.1133-.444.1133-.444h.0467s.016.1706-.0054.4853c-.0426.1506-.0706.356-.216.536-.1146.1973-.3146.3867-.5599.5173-.2414.1494-.536.2347-.8507.284-.3133.0587-.652.028-.996-.032-.3387-.092-.6946-.2386-.9706-.5426-.06-.0867-.1214-.1747-.1734-.2654l-.076-.3186c.008-.2267.0627-.464.1507-.5867.1613-.2987.3226-.5974.48-.892.1-.3107.224-.612.3-.916.148-.6133.2373-1.2.2813-1.7093.0893-1.0174.0413-1.7014.0413-1.7014z" fill="#333558"/><path d="m39.2148 38.896s-1.3894.1027-2.78.164c-.6947.06-1.3906.0787-1.9106-.0027-.5214-.06-.8694-.1613-.8694-.1613v-.0467s.348-.1013.8694-.1613c.52-.0813 1.2159-.0627 1.9106-.0027 1.3906.0614 2.78.164 2.78.164z" fill="#333558"/><path d="m37.1308 40.1907s-.4974.1026-.996.164c-.2494.06-.4987.0773-.6853-.0027-.1867-.06-.3107-.1613-.3107-.1613v-.048s.124-.1014.3107-.1614c.1866-.08.4359-.0626.6853-.0026.4986.0613.996.164.996.164z" fill="#333558"/></svg>