<svg fill="none" height="140" viewBox="0 0 93 140" width="93" xmlns="http://www.w3.org/2000/svg"><path d="m.118833 4.41327c0-2.004 1.621107-3.629365 3.621537-3.629365h84.75553c1.9991 0 3.6229 1.625365 3.6229 3.629365v130.98773c0 2.006-1.6238 3.63-3.6229 3.63h-84.75553c-2.00043 0-3.621537-1.624-3.621537-3.63z" fill="#fff"/><path d="m46.0135 60.3506 7.0266 9.5573-7.0266 9.5574-7.0267-9.5574z" fill="#73242f"/><path d="m46.0348 79.4359 7.0053-9.528-7.0053-9.5266z" fill="#8c2a38"/><path d="m25.0655 93.0493 7.0266 9.5577-7.0266 9.557-7.0281-9.557z" fill="#73242f"/><path d="m25.0855 112.133 7.0066-9.526-7.0066-9.5284z" fill="#8c2a38"/><path d="m67.0281 27.6519 7.0267 9.5573-7.0267 9.5587-7.0266-9.5587z" fill="#73242f"/><path d="m67.0495 46.7372 7.0053-9.528-7.0053-9.5266z" fill="#8c2a38"/><g fill="#73242f"><path d="m83.2002 132.074h-.9851c-.6189.009-1.1055.172-1.4599.489-.3543.316-.5315.744-.5315 1.283 0 1.209.6024 1.814 1.8072 1.814.5669 0 1.0205-.163 1.3607-.489.3354-.321.5031-.749.5031-1.283h1.3111c0 .817-.2976 1.495-.8929 2.034-.6001.543-1.3607.815-2.282.815-.9733 0-1.7363-.257-2.2891-.772s-.8292-1.231-.8292-2.148c0-.449.1465-.883.4394-1.304.2882-.42.6827-.734 1.1835-.942-.5669-.18-1.004-.478-1.3111-.893-.3118-.416-.4677-.924-.4677-1.524 0-.926.3024-1.661.9071-2.204.6048-.543 1.3914-.815 2.36-.815.9685 0 1.7576.262 2.367.787.6048.524.9072 1.216.9072 2.076h-1.3182c0-.543-.1772-.978-.5315-1.304-.3544-.326-.8292-.489-1.4245-.489-.6331 0-1.1174.165-1.4528.496-.3355.331-.5032.806-.5032 1.425 0 .6.1842 1.06.5528 1.382.3685.321.9.486 1.5945.496h.9851z"/><path d="m8.87208 7.73931h.98509c.61893-.00945 1.10553-.17245 1.45993-.489.3543-.31655.5315-.74414.5315-1.28275 0-1.20951-.6024-1.81426-1.8072-1.81426-.56693 0-1.0205.163-1.36067.489-.33545.32128-.50318.74886-.50318 1.28274h-1.31109c0-.81736.29765-1.49535.89296-2.03396.60003-.54334 1.3607-.815 2.28198-.815.9733 0 1.7363.25749 2.2891.77248.5528.51498.8292 1.23077.8292 2.14735 0 .44884-.1465.88351-.4394 1.30401-.2882.42049-.6827.73468-1.1835.94256.5669.17954 1.004.47719 1.3111.89296.3118.41577.4677.92366.4677 1.52366 0 .9261-.3024 1.6608-.9071 2.2041-.6048.5433-1.3914.815-2.36.815-.96854 0-1.75756-.2622-2.36704-.7867-.60475-.5244-.90713-1.2166-.90713-2.0764h1.31818c0 .5433.17717.978.53152 1.304s.82918.489 1.42447.489c.6331 0 1.1174-.1654 1.4528-.4961.3355-.3308.5032-.8056.5032-1.4245 0-.6-.1842-1.06069-.5528-1.38197-.3685-.32128-.9-.48664-1.59453-.49609h-.98509z"/><path d="m9.80815 27.5346-3.71868-5.06 3.71868-5.0586 3.71995 5.0586z"/></g><path d="m9.79886 17.432-3.70938 5.0426 3.70938 5.044z" fill="#8c2a38"/><path d="m82.2188 112.284 3.7187 5.057-3.7187 5.06-3.72-5.06z" fill="#73242f"/><path d="m82.2308 122.385 3.7067-5.044-3.7067-5.042z" fill="#8c2a38"/></svg>