<svg fill="none" height="140" viewBox="0 0 93 140" width="93" xmlns="http://www.w3.org/2000/svg"><path d="m.416138 4.21599c0-2.00533 1.622442-3.628025 3.622852-3.628025h84.75431c2.0004 0 3.6228 1.622695 3.6228 3.628025v130.98901c0 2.004-1.6224 3.628-3.6228 3.628h-84.75431c-2.00041 0-3.622852-1.624-3.622852-3.628z" fill="#fff"/><path d="m67.3255 92.852 7.028 9.557-7.028 9.558-7.0254-9.558z" fill="#73242f"/><path d="m67.3481 111.937 7.0054-9.528-7.0054-9.5264z" fill="#8c2a38"/><path d="m25.3841 92.852 7.0281 9.557-7.0281 9.558-7.0266-9.558z" fill="#73242f"/><path d="m25.4068 111.937 7.0054-9.528-7.0054-9.5264z" fill="#8c2a38"/><path d="m67.3255 60.1533 7.028 9.5587-7.028 9.5573-7.0254-9.5573z" fill="#73242f"/><path d="m67.3481 79.2373 7.0054-9.5253-7.0054-9.5293z" fill="#8c2a38"/><path d="m25.3841 60.1533 7.0281 9.5587-7.0281 9.5573-7.0266-9.5573z" fill="#73242f"/><path d="m25.4068 79.2373 7.0054-9.5253-7.0054-9.5293z" fill="#8c2a38"/><path d="m67.3255 27.4533 7.028 9.56-7.028 9.5573-7.0254-9.5573z" fill="#73242f"/><path d="m67.3481 46.5386 7.0054-9.5253-7.0054-9.5293z" fill="#8c2a38"/><path d="m25.3841 27.4533 7.0281 9.56-7.0281 9.5573-7.0266-9.5573z" fill="#73242f"/><path d="m25.4068 46.5386 7.0054-9.5253-7.0054-9.5293z" fill="#8c2a38"/><g fill="#73242f"><path d="m79.1448 133.706c0-.515.137-.973.4111-1.375.2693-.401.6354-.715 1.0984-.942-.5386-.232-.9638-.569-1.2756-1.014-.3166-.444-.4748-.947-.4748-1.509 0-.893.3023-1.604.9071-2.133.6-.529 1.3914-.794 2.3741-.794.9922 0 1.7883.265 2.3883.794.5954.534.893 1.245.893 2.133 0 .557-.1512 1.061-.4536 1.509-.3071.449-.7299.789-1.2685 1.021.4583.227.8197.541 1.0843.943.2646.401.3968.857.3968 1.367 0 .87-.2787 1.559-.8362 2.07-.5575.51-1.2922.765-2.2041.765-.9071 0-1.6394-.255-2.1969-.765-.5623-.511-.8434-1.2-.8434-2.07zm1.0702-4.812c0 .577.1842 1.047.5527 1.411.3638.363.841.545 1.4316.545s1.0654-.179 1.4245-.538c.3543-.359.5315-.832.5315-1.418s-.1724-1.046-.5173-1.382c-.3497-.335-.8339-.503-1.4529-.503-.6142 0-1.0961.168-1.4457.503-.3496.341-.5244.801-.5244 1.382zm1.9701 6.57c.515 0 .9332-.161 1.2544-.482.3166-.317.4749-.749.4749-1.297 0-.524-.156-.95-.4678-1.276-.3165-.321-.737-.481-1.2615-.481-.5244 0-.9425.16-1.2544.481-.3165.326-.4748.752-.4748 1.276 0 .525.163.952.489 1.283s.7394.496 1.2402.496z"/><path d="m13.5235 5.71491c0 .51499-.1371.97328-.4111 1.37488-.2693.40159-.6354.71578-1.0985.94257.5386.23151.9639.56932 1.2757 1.01344.3165.44411.4748.94729.4748 1.5095 0 .893-.3024 1.604-.9071 2.1332-.6.5292-1.3914.7937-2.3742.7937-.99213 0-1.78823-.2645-2.38826-.7937-.59531-.5339-.89296-1.2449-.89296-2.1332 0-.55749.15118-1.06066.45356-1.5095.30711-.44885.72996-.78902 1.26857-1.02053-.45829-.22678-.81973-.54097-1.08431-.94257-.26458-.40159-.39687-.85752-.39687-1.36779 0-.86933.27876-1.55913.83627-2.06939.55751-.51027 1.29219-.7654 2.204-.7654.9072 0 1.6395.25513 2.197.7654.5622.51026.8434 1.20006.8434 2.06939zm-1.0702 4.81209c0-.57643-.1842-1.04654-.5528-1.41034-.3638-.36379-.8409-.54569-1.4315-.54569-.59061 0-1.06544.17953-1.42451.53861-.35435.35907-.53152.83154-.53152 1.41742 0 .5858.17245 1.0465.51735 1.3819.34962.3355.8339.5032 1.45278.5032.6143 0 1.0962-.1677 1.4458-.5032.3496-.3401.5244-.8008.5244-1.3819zm-1.9702-6.56966c-.51494 0-.93307.16064-1.25435.48192-.31655.31655-.47483.74886-.47483 1.29692 0 .52443.15592.94965.46775 1.27565.31655.32128.73704.48192 1.26143.48192.5245 0 .9426-.16064 1.2544-.48192.3166-.326.4749-.75122.4749-1.27565 0-.52444-.163-.95202-.489-1.28275-.326-.33072-.7394-.49609-1.2403-.49609z"/><path d="m10.1295 27.456-3.71868-5.06 3.71868-5.0574 3.72 5.0574z"/></g><path d="m10.1188 17.3546-3.70798 5.0414 3.70798 5.044z" fill="#8c2a38"/><path d="m82.5388 112.205 3.7187 5.06-3.7187 5.059-3.72-5.059z" fill="#73242f"/><path d="m82.5508 122.308 3.7067-5.043-3.7067-5.044z" fill="#8c2a38"/><path d="m46.3335 78.0613 7.028 9.5574-7.028 9.5572-7.028-9.5572z" fill="#73242f"/><path d="m46.3548 97.1467 7.0067-9.528-7.0067-9.5267z" fill="#8c2a38"/><path d="m46.3335 43.352 7.028 9.5573-7.028 9.5573-7.028-9.5573z" fill="#73242f"/><path d="m46.3548 62.4373 7.0067-9.528-7.0067-9.5266z" fill="#8c2a38"/></svg>