<svg fill="none" height="140" viewBox="0 0 93 140" width="93" xmlns="http://www.w3.org/2000/svg"><path d="m.118833 4.66528c0-2.004 1.622437-3.62806 3.621537-3.62806h84.75553c1.9991 0 3.6229 1.62406 3.6229 3.62806v130.98972c0 2.004-1.6238 3.626-3.6229 3.626h-84.75553c-1.9991 0-3.621537-1.622-3.621537-3.626z" fill="#fff"/><path d="m67.0281 93.2999 7.028 9.5571-7.028 9.558-7.0266-9.558z" fill="#73242f"/><path d="m67.0508 112.385 7.0053-9.528-7.0053-9.5264z" fill="#8c2a38"/><path d="m25.0855 93.2999 7.028 9.5571-7.028 9.558-7.0253-9.558z" fill="#73242f"/><path d="m25.1082 112.385 7.0053-9.528-7.0053-9.5264z" fill="#8c2a38"/><path d="m67.0281 60.6026 7.028 9.5573-7.028 9.5573-7.0266-9.5573z" fill="#73242f"/><path d="m67.0508 79.6866 7.0053-9.5267-7.0053-9.528z" fill="#8c2a38"/><path d="m25.0855 60.6026 7.028 9.5573-7.028 9.5573-7.0253-9.5573z" fill="#73242f"/><path d="m25.1082 79.6866 7.0053-9.5267-7.0053-9.528z" fill="#8c2a38"/><path d="m67.0281 27.9026 7.028 9.5573-7.028 9.5587-7.0266-9.5587z" fill="#73242f"/><path d="m67.0508 46.9879 7.0053-9.528-7.0053-9.5267z" fill="#8c2a38"/><path d="m25.0855 27.9026 7.028 9.5573-7.028 9.5587-7.0253-9.5587z" fill="#73242f"/><path d="m25.1082 46.9879 7.0053-9.528-7.0053-9.5267z" fill="#8c2a38"/><g fill="#73242f"><path d="m78.4449 136.112 4.2734-9.582h1.3749l-4.2593 9.241h5.5845v1.078h-6.9735z"/><path d="m13.6274 4.20816-4.27341 9.58164h-1.37487l4.25928-9.24147h-5.58455v-1.07722h6.97355z"/><path d="m9.8322 27.9052-3.72005-5.06 3.72005-5.0586 3.72 5.0586z"/></g><path d="m9.82013 17.8026-3.70801 5.0426 3.70801 5.044z" fill="#8c2a38"/><path d="m82.2415 112.655 3.72 5.06-3.72 5.058-3.7187-5.058z" fill="#73242f"/><path d="m82.2522 122.757 3.7093-5.042-3.7093-5.046z" fill="#8c2a38"/><path d="m46.0361 78.5106 7.0267 9.5573-7.0267 9.5573-7.0266-9.5573z" fill="#73242f"/><path d="m46.0575 97.5959 7.0053-9.528-7.0053-9.5267z" fill="#8c2a38"/></svg>