<svg fill="none" height="140" viewBox="0 0 93 140" width="93" xmlns="http://www.w3.org/2000/svg"><path d="m.118833 4.21599c0-2.00533 1.622437-3.628025 3.621537-3.628025h84.75553c1.9991 0 3.6229 1.622695 3.6229 3.628025v130.98901c0 2.004-1.6238 3.628-3.6229 3.628h-84.75553c-1.9991 0-3.621537-1.624-3.621537-3.628z" fill="#fff"/><path d="m67.0281 99.2679 7.028 9.5591-7.028 9.557-7.0266-9.557z" fill="#73242f"/><path d="m67.0508 118.353 7.0053-9.526-7.0053-9.5297z" fill="#8c2a38"/><path d="m25.0855 99.2679 7.028 9.5591-7.028 9.557-7.0253-9.557z" fill="#73242f"/><path d="m25.1082 118.353 7.0053-9.526-7.0053-9.5297z" fill="#8c2a38"/><path d="m67.0281 73.2306 7.028 9.5574-7.028 9.5573-7.0266-9.5573z" fill="#73242f"/><path d="m67.0508 92.316 7.0053-9.528-7.0053-9.5267z" fill="#8c2a38"/><path d="m25.0855 73.2306 7.028 9.5574-7.028 9.5573-7.0253-9.5573z" fill="#73242f"/><path d="m25.1082 92.316 7.0053-9.528-7.0053-9.5267z" fill="#8c2a38"/><path d="m67.0281 47.1933 7.028 9.5587-7.028 9.5573-7.0266-9.5573z" fill="#73242f"/><path d="m67.0508 66.2773 7.0053-9.5253-7.0053-9.528z" fill="#8c2a38"/><path d="m25.0855 47.1933 7.028 9.5587-7.028 9.5573-7.0253-9.5573z" fill="#73242f"/><path d="m25.1082 66.2773 7.0053-9.5253-7.0053-9.528z" fill="#8c2a38"/><path d="m67.0281 21.156 7.028 9.5573-7.028 9.5573-7.0266-9.5573z" fill="#73242f"/><path d="m67.0508 40.2427 7.0053-9.5294-7.0053-9.5253z" fill="#8c2a38"/><path d="m25.0855 21.156 7.028 9.5573-7.028 9.5573-7.0253-9.5573z" fill="#73242f"/><path d="m25.1082 40.2427 7.0053-9.5294-7.0053-9.5253z" fill="#8c2a38"/><g fill="#73242f"><path d="m80.0819 130.616c.2741-.326.6024-.588.9851-.786.378-.199.7938-.298 1.2473-.298.5954 0 1.1151.147 1.5592.44.4394.292.7796.703 1.0205 1.233.241.534.3614 1.122.3614 1.764 0 .69-.1299 1.311-.3897 1.864-.2646.553-.6379.976-1.1198 1.269s-1.0441.439-1.6867.439c-1.0205 0-1.8237-.383-2.4096-1.148-.5905-.761-.8858-1.8-.8858-3.118v-.383c0-2.008.3968-3.475 1.1906-4.401.7937-.921 1.9914-1.394 3.5931-1.417h.2551v1.105h-.2764c-1.0819.019-1.9135.3-2.4946.844-.5811.548-.8977 1.412-.9497 2.593zm2.0198 0c-.4394 0-.8433.135-1.2118.404-.3733.27-.645.603-.815 1v.524c0 .86.1866 1.559.5598 2.098.3733.538.8457.808 1.4174.808.5764 0 1.0395-.222 1.3891-.666.3496-.44.5244-1.021.5244-1.744 0-.704-.1677-1.285-.5032-1.743-.3401-.454-.7937-.681-1.3607-.681z"/><path d="m11.9903 8.80484c-.274.326-.6023.58822-.985.78665-.378.19844-.7938.29766-1.24735.29766-.59531 0-1.11502-.14647-1.55914-.4394-.43939-.29293-.77956-.70397-1.02052-1.23313-.24096-.53389-.36144-1.12211-.36144-1.76466 0-.6898.12993-1.31109.38979-1.86387.26458-.55279.63782-.97565 1.11974-1.26857.48191-.29293 1.04415-.4394 1.68672-.4394 1.0205 0 1.8237.3827 2.4096 1.14809.5905.76067.8858 1.8001.8858 3.11827v.3827c0 2.00798-.3968 3.47502-1.1906 4.40102-.7937.9213-1.9914 1.3938-3.59309 1.4174h-.25513v-1.1056h.2764c1.08194-.0189 1.91352-.3 2.49462-.8433.5811-.5481.8977-1.4127.9496-2.59386zm-2.01974 0c.43944 0 .84334-.13465 1.21184-.40396.3733-.26931.6449-.60239.815-.99926v-.52444c0-.85989-.1866-1.55914-.5598-2.09775-.3733-.53861-.8458-.80791-1.4174-.80791-.57644 0-1.03946.22206-1.38908.66617-.34963.4394-.52444 1.02053-.52444 1.7434 0 .70397.16773 1.28511.50318 1.7434.34017.45356.79374.68035 1.3607.68035z"/><path d="m9.8322 27.456-3.72005-5.06 3.72005-5.0574 3.72 5.0574z"/></g><path d="m9.82013 17.3546-3.70801 5.0414 3.70801 5.044z" fill="#8c2a38"/><path d="m82.2415 112.205 3.72 5.06-3.72 5.059-3.7187-5.059z" fill="#73242f"/><path d="m82.2522 122.308 3.7093-5.043-3.7093-5.044z" fill="#8c2a38"/><path d="m46.0361 60.1533 7.0267 9.5587-7.0267 9.5573-7.0266-9.5573z" fill="#73242f"/><path d="m46.0575 79.2373 7.0053-9.5253-7.0053-9.5267z" fill="#8c2a38"/></svg>