<svg fill="none" height="140" viewBox="0 0 92 140" width="92" xmlns="http://www.w3.org/2000/svg"><path d="m-.00000287 3.67668c0-2.03075 1.62243287-3.67668 3.62154287-3.67668h84.75556c2.0004 0 3.6229 1.64593 3.6229 3.67668v132.64632c0 2.031-1.6225 3.677-3.6229 3.677h-84.75556c-1.99911 0-3.62154287-1.646-3.62154287-3.677z" fill="#fff"/><path d="m9.88948 27.6773-3.71868-5.06 3.71868-5.06 3.72002 5.06z" fill="#73242f"/><path d="m9.87881 17.5733-3.708 5.044 3.708 5.044z" fill="#8c2a38"/><path d="m82.3536 131.232 1.2615-1.311v-3.487h1.3607v10.319h-1.3607v-5.103l-4.5853 5.103h-1.6442l4.0608-4.557-4.3797-5.762h1.63z" fill="#73242f"/><path d="m9.71869 8.89595-1.26149 1.31105v3.4868h-1.3607v-10.3186h1.3607v5.10262l4.5853-5.10262h1.6442l-4.0609 4.55692 4.3798 5.76168h-1.63z" fill="#73242f"/><path d="m82.3001 112.424 3.7187 5.06-3.7187 5.06-3.7199-5.06z" fill="#73242f"/><path d="m82.3108 122.528 3.708-5.044-3.708-5.044z" fill="#8c2a38"/><path d="m23.4815 38.6426s-5.4027 1.956-10.436 7.4174v6.6893h10.436z" fill="#a22735"/><path d="m13.0455 56.076v37.5387s4.72 6.0159 14.1907 6.9063c0 0 .176-38.0237-14.1907-44.445z" fill="#a22735"/><path d="m40.7495 98.4586h4.8307v-8.8653h-4.8307z" fill="#181419"/><path d="m31.0681 101.519h4.8294v-8.8657h-4.8294z" fill="#181419"/><path d="m45.6162 101.979h4.828v-8.8643h-4.828z" fill="#a22735"/><path d="m35.9202 99.088h4.8293v-8.864h-4.8293z" fill="#a22735"/><path d="m50.2935 104.651h4.8293v-8.8644h-4.8293z" fill="#181419"/><path d="m55.1575 104.828h4.8307v-5.5187h-4.8307z" fill="#a22735"/><path d="m25.9415 100.377s1.6906-24.833-12.896-44.301c.0186-1.716.028-2.5867.028-2.5867s8.584 4.0374 13.468 21.052c4.8853 17.0134 2.6706 25.8357 2.6706 25.8357z" fill="#181419"/><path d="m28.1735 99.8226s.4466-16.3413-3.5867-26.1346c-4.0333-9.792-6.84-16.4694-11.5413-20.1574v-7.4706s13.252 12.812 17.5973 27.2453c4.344 14.4347 3.5333 27.0557 3.5333 27.0557z" fill="#edebea"/><g fill="#a22735"><path d="m27.9269 100.255c0-.6124 1.2439-1.1097 2.7772-1.1097 1.536 0 2.7787.4973 2.7787 1.1097 0 .614-1.2427 1.112-2.7787 1.112-1.5333 0-2.7772-.498-2.7772-1.112z"/><path d="m28.1335 97.8147c-.032-.6014 1.1587-1.1507 2.6587-1.2294 1.5013-.08 2.7413.344 2.7733.9427.032.6-1.1587 1.1493-2.66 1.2293-1.4987.0787-2.7413-.3426-2.772-.9426z"/><path d="m28.1748 95.0053c-.0626-.5867 1.0747-1.1907 2.5427-1.3467 1.4667-.1586 2.7054.188 2.768.7734.064.5893-1.0733 1.1907-2.54 1.3493-1.4667.156-2.7067-.1907-2.7707-.776z"/><path d="m28.0468 91.888c-.0947-.5734.9907-1.2294 2.4253-1.4667 1.432-.236 2.6693.0347 2.7653.6067.0947.5733-.9893 1.2293-2.4253 1.4666-1.4307.2374-2.6706-.0333-2.7653-.6066z"/><path d="m27.7428 88.5187c-.1267-.56.9054-1.2694 2.3041-1.584 1.4-.3147 2.6373-.12 2.7613.44.128.5573-.904 1.268-2.3027 1.584-1.4.3173-2.6374.12-2.7627-.44z"/><path d="m27.2508 84.956c-.1573-.544.8214-1.308 2.1881-1.704 1.3653-.392 2.6013-.2733 2.7573.2747.16.5466-.8213 1.3066-2.1853 1.7026-1.3667.396-2.6001.2734-2.7601-.2733z"/><path d="m26.5681 81.2573c-.1906-.5306.7361-1.3453 2.0681-1.82 1.332-.4733 2.5639-.4266 2.7533.104.1906.5347-.736 1.3494-2.068 1.8227-1.332.4747-2.5654.428-2.7534-.1067z"/><path d="m25.6815 77.484c-.22-.5173.652-1.388 1.9507-1.94 1.2973-.5547 2.5307-.5827 2.7507-.0627.2213.5187-.652 1.3854-1.9507 1.94-1.2973.552-2.5307.5814-2.7507.0627z"/><path d="m24.5868 73.688c-.252-.5053.568-1.428 1.8334-2.0574 1.2653-.6333 2.4946-.7373 2.7466-.232.252.5054-.568 1.4267-1.8333 2.06-1.264.632-2.4933.7347-2.7467.2294z"/><path d="m23.2761 69.932c-.284-.492.4841-1.468 1.7148-2.18 1.232-.7107 2.4599-.888 2.7439-.3947.284.4893-.4839 1.4653-1.7133 2.176-1.232.712-2.46.888-2.7454.3987z"/><path d="m21.7415 66.268c-.316-.476.3973-1.5053 1.5959-2.296 1.1974-.7893 2.4241-1.0427 2.7401-.5627.316.476-.3987 1.5054-1.596 2.296-1.1974.7894-2.424 1.0427-2.74.5627z"/><path d="m19.9748 62.76c-.3466-.4627.316-1.5467 1.48-2.4134 1.1627-.8706 2.388-1.1986 2.736-.7346.3467.4666-.316 1.5493-1.48 2.416-1.1626.8706-2.3893 1.1986-2.736.732z"/><path d="m17.9695 59.464c-.3787-.4507.228-1.5867 1.3586-2.5347 1.132-.948 2.356-1.3507 2.7334-.8987.3786.4507-.2307 1.5867-1.3613 2.5347-1.1294.948-2.352 1.3507-2.7307.8987z"/><path d="m15.7148 56.4373c-.4093-.4373.1467-1.628 1.244-2.6533 1.0947-1.0294 2.3174-1.5054 2.728-1.068.4094.4373-.1466 1.628-1.2426 2.6533-1.096 1.0267-2.3187 1.5053-2.7294 1.068z"/><path d="m13.2068 53.7373c-.4427-.4253.06-1.6666 1.124-2.7733 1.0627-1.1067 2.2827-1.6587 2.7253-1.2347.4414.424-.0626 1.6667-1.1253 2.7734-1.0627 1.1066-2.2827 1.6586-2.724 1.2346z"/></g><path d="m41.0775 78.6453h7.6747v8.4947h-7.6747z" fill="#3e4ca8"/><path d="m48.4215 79.0053h-7.344v-7.7026z" fill="#ae8f42"/><path d="m48.6882 79.6586h-7.7414v6.3054h7.7414z" fill="#ae8f42"/><path d="m48.6882 86.5187h-7.6107v2.06l7.6107 4.604z" fill="#ae8f42"/><path d="m39.5922 70.568.296 17.872-6.3 3.56s-1.2373-14.8027-2.7333-17.4587c-1.496-2.6613 8.7373-3.9733 8.7373-3.9733z" fill="#a22735"/><path d="m39.4828 70.5133 1.8733.9267v18.292h-1.8733z" fill="#dee4f5"/><path d="m38.8802 69.812 1.8693.9306v18.288h-1.8693z" fill="#181419"/><path d="m26.6415 63.612c.636 1.5987 1.7106 3.0827 2.504 4.612 1.2946 2.492 2.216 5.1307 2.6386 7.8773.0387 0 .0774.0027.1161.0027 3.8706 0 7.1813-2.3987 8.532-5.7867-.2867-.3253-.5667-.6586-.9227-.96-.644-.5426-1.4014-.9693-2.072-1.4826-1.628-1.2467-2.872-2.968-4.6933-3.948-1.3734-.7387-2.832-1.2494-4.2947-1.7814-.628-.2266-1.2627-.4546-1.916-.6066-.196.032-.3947.0573-.592.0866.2413.6694.4493 1.3507.7 1.9867z" fill="#181419"/><path d="m26.6415 63.612c.636 1.5987 1.7106 3.0827 2.504 4.612 1.1786 2.2733 2.0493 4.6667 2.516 7.1533.08.0027.1587.0054.2387.0054 3.692 0 6.8333-2.3667 7.988-5.6667-.1187-.1227-.2427-.2427-.3787-.3587-.644-.5426-1.4014-.9693-2.072-1.4826-1.628-1.2467-2.872-2.968-4.6933-3.948-1.3734-.7387-2.832-1.2494-4.2947-1.7814-.628-.2266-1.2627-.4546-1.916-.6066-.196.032-.3947.0573-.592.0866.2413.6694.4493 1.3507.7 1.9867z" fill="#ae8f42"/><path d="m29.1455 68.224c.5186 1 .976 2.024 1.3666 3.0653.4374.14.9041.216 1.3881.216 2.4853 0 4.504-1.9787 4.5773-4.4453-1.2013-1.1067-2.284-2.3547-3.7333-3.1334-.8734-.468-1.7801-.8453-2.7041-1.1946-1.1666.5173-2.0732 1.508-2.4852 2.7293.528.9267 1.1106 1.8387 1.5906 2.7627z" fill="#3e4ca8"/><path d="m57.8028 85-7.5146-4.336-.3814 13.992 7.896 4.3493z" fill="#a22735"/><path d="m48.4215 79.864h1.872v14.1626h-1.872z" fill="#dee4f5"/><path d="m64.9535 103.26s-3.2333 1.816-6.568 2.284l-.4027-20.2893s5.116 1.8986 7.4173 1.8106z" fill="#bcc7ea"/><path d="m64.9535 103.26 1.1653-.443v-15.6117h-1.1653z" fill="#675155"/><path d="m66.1188 102.817s1.724-.718 2.4707-1.29v-14.1084h-2.4707z" fill="#181419"/><path d="m68.5895 101.527s5.4053-1.9563 10.4373-7.4177v-6.6907h-10.4373z" fill="#a22735"/><path d="m49.1162 80.4946h1.8706v14.1614h-1.8706z" fill="#181419"/><path d="m57.2201 105.544h1.1654v-19.904h-1.1654z" fill="#675155"/><path d="m27.4655 61.2893c.7013 0 1.616.1373 2.764.572 3.8053 1.444 8.4573 5.412 13.828 11.8 6.4693 7.6907 12.8267 10.748 17.0227 11.9587 4.5373 1.3093 9.6946 1.0653 9.7253 1.06l.2226 1.252c-.1333.024-5.4186.3026-10.2173-1.068-4.3866-1.2494-11.0213-4.4134-17.7267-12.3854-12.064-14.3453-16.6653-11.7359-16.7106-11.7079l-.7187-1.0467c.0947-.0653.668-.4347 1.8107-.4347z" fill="#9c6c3e"/><path d="m57.2202 99.8093s-15.548-10.14-17.0174-10.14c-1.4666 0-5.8733 3.0853-5.8733 3.0853v-1.7933s5.312-3.5427 6.004-3.5427 16.8867 10.4961 16.8867 10.4961z" fill="#dee4f5"/><path d="m55.4828 104.669s-13.1413-9.661-15.0053-9.661c-1.8653 0-7.2734 4.8307-7.2734 4.8307z" fill="#ae8f42"/><path d="m57.2202 101.041s-15.548-10.3143-17.0174-10.3143c-1.4666 0-5.8733 3.476-5.8733 3.476v-1.736s5.312-3.436 6.004-3.436 16.8867 10.1746 16.8867 10.1746z" fill="#ae8f42"/><path d="m34.7535 99.1253s.0373-16.4067-3.8-27.2293c-3.8374-10.82-13.4974-26.0387-16.3387-27.4227l-1.5693 1.5867s6.7987 5.604 16.5267 26.6333c2.532 10.408 2.6186 5.908 3.8426 27.116 1.224 21.2097 1.3387-.684 1.3387-.684z" fill="#9c6c3e"/><path d="m79.0268 84.0933v-37.5386s-4.72-6.0161-14.1893-6.9067c0 0-.176 38.024 14.1893 44.4453z" fill="#a22735"/><path d="m51.3215 41.7106h-4.8294v8.8654h4.8294z" fill="#181419"/><path d="m61.0041 38.6507h-4.8293v8.8653h4.8293z" fill="#181419"/><path d="m46.4561 38.1907h-4.8279v8.864h4.8279z" fill="#a22735"/><path d="m56.1508 41.0813h-4.8293v8.864h4.8293z" fill="#a22735"/><path d="m41.7802 35.5186h-4.8307v8.864h4.8307z" fill="#181419"/><path d="m36.9148 35.3413h-4.8307v5.52h4.8307z" fill="#a22735"/><path d="m66.1308 39.792s-1.6906 24.836 12.896 44.3013c-.0173 1.716-.0267 2.5867-.0267 2.5867s-8.5853-4.0373-13.4706-21.0493c-4.884-17.016-2.6693-25.8387-2.6693-25.8387z" fill="#181419"/><path d="m63.9001 40.3467s-.448 16.3413 3.584 26.132c4.0347 9.7946 6.8414 16.472 11.5427 20.16v7.4706s-7.252-1.4733-17.5973-27.248c-4.3453-14.432-3.532-27.0546-3.532-27.0546z" fill="#edebea"/><path d="m64.1442 39.9147c0 .612-1.2427 1.1093-2.7774 1.1093-1.5346 0-2.7773-.4973-2.7773-1.1093 0-.6147 1.2427-1.1094 2.7773-1.1094 1.5347 0 2.7774.4947 2.7774 1.1094z" fill="#a22735"/><path d="m63.9389 42.3547c.032.6013-1.1587 1.1506-2.6587 1.228-1.5.0786-2.7427-.3427-2.7734-.9427-.0333-.5987 1.1587-1.148 2.6587-1.2253 1.5-.0814 2.7427.34 2.7734.94z" fill="#a22735"/><path d="m63.8975 45.164c.064.5853-1.0761 1.188-2.5414 1.3466-1.4667.1587-2.708-.188-2.7706-.7733-.0627-.5867 1.0747-1.1907 2.5413-1.3493 1.4667-.1587 2.7067.1906 2.7707.776z" fill="#a22735"/><path d="m64.0255 48.2813c.0933.5734-.992 1.2294-2.4254 1.4667-1.432.236-2.6707-.0347-2.7653-.608-.0934-.572.9894-1.228 2.4227-1.4653 1.4347-.2374 2.672.0333 2.768.6066z" fill="#a22735"/><path d="m64.3295 51.6507c.1267.56-.9067 1.268-2.304 1.584-1.4.3173-2.6373.1199-2.7627-.4401-.1253-.56.904-1.268 2.304-1.584 1.4013-.3173 2.636-.1199 2.7627.4401z" fill="#a22735"/><path d="m64.8201 55.2133c.1587.544-.82 1.308-2.1853 1.7027-1.3667.3933-2.6026.272-2.76-.2734-.1573-.5466.8213-1.3066 2.1867-1.7026 1.3653-.396 2.6013-.2733 2.7586.2733z" fill="#a22735"/><path d="m65.5055 58.9093c.1893.5333-.7373 1.348-2.0693 1.8227-1.332.4733-2.5654.4266-2.7534-.104-.1906-.5347.7347-1.3493 2.0667-1.8227 1.3333-.4746 2.5653-.428 2.756.104z" fill="#a22735"/><path d="m66.3909 62.6853c.22.5174-.6521 1.388-1.9507 1.9427-1.2987.552-2.5307.5773-2.7507.0627-.2213-.5214.6534-1.388 1.9494-1.9427 1.2986-.5533 2.532-.5813 2.752-.0627z" fill="#a22735"/><path d="m67.4842 66.4787c.2546.508-.568 1.4306-1.832 2.0626-1.2653.6307-2.4947.7347-2.7467.2294-.2533-.5054.5667-1.4294 1.8334-2.06 1.264-.632 2.4933-.7347 2.7453-.232z" fill="#a22735"/><path d="m68.7962 70.24c.284.4893-.4854 1.4653-1.7147 2.176-1.2307.712-2.46.8893-2.744.396-.284-.492.484-1.4653 1.7147-2.176 1.2306-.712 2.46-.8907 2.744-.396z" fill="#a22735"/><path d="m70.3308 73.8986c.3147.4787-.4 1.508-1.5973 2.2987-1.1974.7893-2.424 1.0427-2.7387.5627-.316-.4787.3987-1.5054 1.596-2.296 1.1974-.7894 2.424-1.0427 2.74-.5654z" fill="#a22735"/><path d="m72.0975 77.4093c.3467.4627-.3147 1.5467-1.48 2.416-1.1627.868-2.3866 1.196-2.7346.7294-.348-.464.3146-1.544 1.4786-2.4147 1.164-.8693 2.388-1.1974 2.736-.7307z" fill="#a22735"/><path d="m74.1028 80.7053c.3787.4507-.2293 1.5867-1.3587 2.5347-1.132.948-2.3546 1.3507-2.7333.8987-.3787-.4507.2306-1.5867 1.36-2.5347 1.1306-.948 2.3547-1.352 2.732-.8987z" fill="#a22735"/><path d="m76.3575 83.732c.4094.44-.1467 1.628-1.2427 2.6533-1.096 1.0294-2.3173 1.5053-2.728 1.068-.4106-.44.1454-1.628 1.2414-2.6533 1.0973-1.0267 2.3187-1.5054 2.7293-1.068z" fill="#a22735"/><path d="m78.8642 86.432c.4426.428-.0587 1.6667-1.1227 2.7733-1.0627 1.1067-2.2814 1.6587-2.724 1.2347-.4427-.424.0613-1.6667 1.1226-2.7734 1.0627-1.104 2.2827-1.656 2.7241-1.2346z" fill="#a22735"/><path d="m50.9948 61.524h-7.676v-8.496h7.676z" fill="#3e4ca8"/><path d="m43.6495 61.164h7.3453v7.7027z" fill="#ae8f42"/><path d="m43.3841 60.5106h7.7427v-6.3053h-7.7427z" fill="#ae8f42"/><path d="m43.3841 53.6507h7.6107v-2.0574l-7.6107-4.6066z" fill="#ae8f42"/><path d="m52.4788 69.6013-.2947-17.872 6.2987-3.56s1.2373 14.8027 2.7347 17.4613c1.496 2.656-8.7387 3.9707-8.7387 3.9707z" fill="#a22735"/><path d="m52.5882 69.656-1.8707-.9267v-18.292h1.8707z" fill="#dee4f5"/><path d="m53.1935 70.3573-1.872-.928v-18.2933h1.872z" fill="#181419"/><path d="m65.4295 76.5573c-.6346-1.5986-1.7093-3.084-2.504-4.6147-1.292-2.4893-2.216-5.1279-2.6373-7.8746-.0387 0-.0774-.0027-.116-.0027-3.8707 0-7.1814 2.396-8.5334 5.7867.2867.3253.5667.6587.9241.96.6426.5427 1.4012.9693 2.0719 1.4827 1.6267 1.2466 2.8734 2.9679 4.6934 3.9479 1.3733.736 2.8333 1.2494 4.2946 1.7814.6267.2253 1.2627.4547 1.9147.6067.1986-.032.3947-.06.5933-.0867-.24-.6693-.4479-1.3507-.7013-1.9867z" fill="#181419"/><path d="m65.4295 76.5573c-.6346-1.5986-1.7093-3.084-2.504-4.6147-1.1773-2.2706-2.0493-4.664-2.5147-7.1506-.0786-.0027-.1586-.0053-.2386-.0053-3.6947 0-6.8321 2.3666-7.988 5.6666.12.1227.2413.2413.3787.3587.6426.5426 1.4012.9693 2.0719 1.4826 1.6267 1.2467 2.8734 2.968 4.6934 3.948 1.3733.736 2.8333 1.2494 4.2946 1.7814.6267.2253 1.2627.4546 1.9147.6066.1986-.032.3947-.06.5933-.0866-.24-.6694-.4479-1.3507-.7013-1.9867z" fill="#ae8f42"/><path d="m62.9255 71.9426c-.5174-.9973-.9747-2.0213-1.3653-3.0626-.4387-.1373-.9041-.216-1.3881-.216-2.4853 0-4.504 1.9787-4.5773 4.448 1.2027 1.104 2.2853 2.352 3.7333 3.1306.8734.468 1.7814.8454 2.7027 1.1974 1.1653-.5213 2.076-1.5107 2.4867-2.732-.528-.9267-1.1107-1.8387-1.592-2.7654z" fill="#3e4ca8"/><path d="m34.2695 55.1693 7.5146 4.336.3801-13.992-7.8947-4.3493z" fill="#a22735"/><path d="m43.6495 60.3053h-1.8693v-14.1627h1.8693z" fill="#dee4f5"/><path d="m27.1188 36.9093s3.2333-1.816 6.568-2.2813l.4027 20.2867s-5.1174-1.896-7.416-1.8107z" fill="#bcc7ea"/><path d="m27.1188 36.9093-1.164.44v15.6173h1.164z" fill="#675155"/><path d="m25.9548 37.3493s-1.7253.7187-2.4733 1.2933v14.1067h2.4733z" fill="#181419"/><path d="m42.9548 59.6746h-1.8707v-14.1613h1.8707z" fill="#181419"/><path d="m34.8522 34.628h-1.1654v19.9h1.1654z" fill="#675155"/><path d="m64.6082 78.88c-.7014 0-1.6174-.1373-2.7654-.5733-3.8067-1.4427-8.4573-5.4107-13.828-11.796-6.4693-7.6934-12.8267-10.7507-17.0227-11.9614-4.5373-1.3093-9.4693-.7053-9.5013-.6973l-.2227-1.2533c.1347-.0227 5.1934-.6614 9.9934.7066 4.3853 1.2494 11.0213 4.4107 17.7267 12.3854 12.0653 14.3453 16.664 11.7333 16.7093 11.708l.7187 1.0466c-.092.0654-.6667.4347-1.808.4347z" fill="#9c6c3e"/><path d="m34.8522 40.36s15.5479 10.14 17.0159 10.14 5.8747-3.0853 5.8747-3.0853v1.7933s-5.3133 3.5413-6.004 3.5413c-.692 0-16.8866-10.4946-16.8866-10.4946z" fill="#dee4f5"/><path d="m36.5895 35.5s13.1413 9.6587 15.0053 9.6587c1.8654 0 7.2733-4.828 7.2733-4.828z" fill="#ae8f42"/><path d="m34.8522 39.128s15.5479 10.312 17.0159 10.312 5.8747-3.4733 5.8747-3.4733v1.736s-5.3133 3.4333-6.004 3.4333c-.692 0-16.8866-10.172-16.8866-10.172z" fill="#ae8f42"/><path d="m57.3175 41.044s-.036 16.4067 3.8013 27.2293c3.8387 10.82 12.6134 25.8773 16.5534 27.216l1.3546-1.38c-3.4026-1.7213-14.46-18.4533-16.5267-26.6333-2.5306-10.408-2.6186-5.908-3.8413-27.116-1.2253-21.2094-1.3413.684-1.3413.684z" fill="#9c6c3e"/><path d="m32.8522 121.869s.8346-7.778 0-9.374c-.836-1.594-2.4307-5.123-2.4307-5.123s3.4547 1.253 3.5307-2.315-2.8467-3.377-3.9094-3.377c-1.064 0-4.1373 1.249-2.1266 6.184 2.012 4.936 2.3719 2.961 2.6852 6.529.3147 3.568 0 7.25 0 7.25z" fill="#dfdcda"/><path d="m31.7508 124.156s.8334-7.781 0-9.375c-.8346-1.593-2.4293-5.122-2.4293-5.122s3.4547 1.25 3.5307-2.318c.0747-3.568-2.8467-3.377-3.9094-3.377-1.064 0-4.1373 1.252-2.1266 6.187 2.012 4.934 2.372 2.961 2.684 6.529.3147 3.568 0 7.249 0 7.249z" fill="#edebea"/><path d="m30.2935 112.959s-5.968-22.719 7.576-22.719c13.5467 0 11.936 17.336 7.7053 23.44-4.2333 6.104-15.2813-.721-15.2813-.721z" fill="#dfdcda"/><path d="m30.5855 122.427s-.9973-3.782-.392-4.99c.604-1.208-.0107-3.284.1-4.478.1093-1.196 1.7373-3.243 5.2826-.826 0 0 9.1387-4.885 9.2187 1.416.0773 6.306-.3693 9.664-.3693 9.664s-11.0293 1.235-13.84-.786z" fill="#dee4f5"/><path d="m55.3695 125.219s-.836-7.782 0-9.375c.8346-1.595 2.4293-5.123 2.4293-5.123s-3.4547 1.251-3.5307-2.317c-.0747-3.568 2.848-3.377 3.9107-3.377 1.0626 0 4.136 1.252 2.1253 6.186-2.012 4.935-2.3707 2.962-2.684 6.53-.3147 3.566 0 7.249 0 7.249z" fill="#5c5e65"/><path d="m54.3068 124.156s-.8347-7.781 0-9.375c.8346-1.593 2.4293-5.122 2.4293-5.122s-3.4546 1.25-3.5306-2.318 2.8466-3.377 3.9106-3.377c1.0627 0 4.136 1.252 2.1254 6.187-2.012 4.934-2.3707 2.961-2.6854 6.529-.3133 3.568 0 7.249 0 7.249z" fill="#747b7e"/><path d="m52.7508 123.055s-.8347-7.779 0-9.375c.8333-1.595 2.4294-5.123 2.4294-5.123s-3.4547 1.252-3.5307-2.314c-.0747-3.568 2.8466-3.379 3.9093-3.379 1.064 0 4.1374 1.251 2.1267 6.185-2.012 4.935-2.3707 2.962-2.6854 6.53-.3133 3.566 0 7.249 0 7.249z" fill="#8c9294"/><path d="m50.4868 122.713s-.8347-7.781 0-9.374c.8347-1.594 2.4294-5.126 2.4294-5.126s-3.4534 1.256-3.5307-2.314c-.076-3.568 2.848-3.378 3.9107-3.378 1.0626 0 4.1359 1.252 2.1239 6.187-2.0106 4.935-2.3693 2.961-2.6826 6.529-.3147 3.568 0 7.25 0 7.25z" fill="#a7aaa9"/><path d="m48.2855 123.055s-.8346-7.779 0-9.375c.836-1.595 2.4293-5.123 2.4293-5.123s-3.4546 1.252-3.5293-2.314c-.0773-3.568 2.8454-3.379 3.908-3.379 1.064 0 4.1387 1.251 2.1267 6.185-2.012 4.935-2.3707 2.962-2.6854 6.53-.3133 3.566 0 7.249 0 7.249z" fill="#c2c2bf"/><path d="m46.0455 123.36s-.8347-7.781 0-9.376c.836-1.593 2.4293-5.124 2.4293-5.124s-3.4533 1.252-3.5293-2.316c-.0774-3.568 2.8466-3.377 3.9106-3.377 1.0614 0 4.1361 1.252 2.1241 6.188-2.0107 4.932-2.3694 2.96-2.684 6.528-.3147 3.568 0 7.248 0 7.248z" fill="#dfdcda"/><path d="m44.0348 123.776s-.836-7.779 0-9.375c.8333-1.594 2.4293-5.122 2.4293-5.122s-3.4546 1.252-3.5306-2.315c-.0747-3.571 2.8466-3.381 3.9106-3.381 1.0627 0 4.136 1.253 2.1254 6.188-2.012 4.934-2.3707 2.961-2.6854 6.529-.3133 3.567 0 7.249 0 7.249z" fill="#edebea"/><path d="m35.5761 112.133s-3.656-.321-4.9746-2.548c0 0 1.9373-1.869 4.7613-.476 0 0 3.2-1.224 6.1267-.372 0 0-2.0254 3.08-5.9134 3.396z" fill="#edebea"/><path d="m59.6428 133.052-4.448.927-.9-4.328c-1.1227.264-2.3066.477-3.5253.652l.5053 4.124-4.72.578-.5173-4.218c-1.3427.09-2.6814.145-3.9814.177v4.328h-4.8173v-4.323c-1.4613-.029-2.7787-.081-3.8773-.136l-.7293 4.342-5.1841-.872 1.7507-10.415.964.161.012-.464 25.9134-.997.0466.409 1.36-.284z" fill="#ae8f42"/><path d="m29.5002 122.125s13.3386 2.036 27.9826-1.422l.1373 2.352s-18.3572 4.286-28.4932 1.101z" fill="#181419"/><path d="m34.1108 118.888s-.8853.359-1.8653.368c-.2427.015-.496-.02-.724-.059-.2293-.065-.428-.186-.5907-.277-.2773-.289-.384-.503-.384-.503l.032-.028s.2534.087.5201.239c.164.037.344.08.528.16.204.017.4093.108.6346.128.4493.051.9134.039 1.26.004.3467-.025.5787-.073.5787-.073z" fill="#747b7e"/><path d="m37.9908 118.847s.232.048.58.073c.3453.035.8094.047 1.2587-.004.2253-.02.4307-.111.636-.128.1827-.08.3626-.123.5266-.16.2667-.152.5214-.239.5214-.239l.0307.028s-.1067.214-.384.503c-.1627.091-.3601.212-.5894.277-.2293.039-.4826.074-.724.059-.9813-.009-1.8666-.368-1.8666-.368z" fill="#747b7e"/><path d="m36.7481 117.249s.2013-.229.592-.477c.1973-.109.4347-.253.7134-.333.2786-.086.58-.176.8933-.183.3134-.052.628-.045.916.021.2974.023.556.114.7614.231.4186.212.6613.4.6613.4l-.0187.039s-.32-.02-.7453-.116c-.2107-.072-.4613-.094-.7253-.136-.2654-.047-.5454-.112-.8334-.099-.2906-.025-.5733.028-.8413.08-.2667.049-.5053.151-.7107.228-.4053.18-.6347.377-.6347.377z" fill="#333558"/><path d="m33.9642 117.281s-.1707-.133-.4653-.253c-.2947-.115-.6947-.247-1.1054-.233-.2053-.007-.4027.021-.5894.054-.184.034-.3652.019-.5159.064-.3053.048-.5467.034-.5467.034l-.0187-.039s.1654-.156.4707-.32c.1494-.091.3427-.147.56-.16.2147-.051.4454-.016.6707.028.2293.015.4413.109.6426.171.1934.08.3667.176.504.269.2773.187.4214.353.4214.353z" fill="#333558"/><path d="m34.7588 117.939s.0441-.624-.0373-1.551c-.04-.463-.1226-.996-.256-1.555-.0693-.278-.1827-.552-.2733-.836-.1454-.266-.2907-.538-.4387-.81-.0787-.112-.1293-.33-.1346-.536.0213-.203.0986-.384.2253-.531.2507-.279.58-.405.8866-.483.3107-.06.62-.096.9067-.041.284.045.5534.124.7734.26.2226.117.4053.291.508.471.1346.164.1599.352.1986.488.0187.288.004.442.004.442h-.0413s-.028-.158-.1053-.402c-.0694-.112-.1147-.262-.248-.38-.104-.134-.2787-.236-.4694-.319-.1866-.093-.4226-.137-.6666-.153-.2427-.016-.5054-.008-.7654.046-.256.063-.5053.176-.684.339-.1746.191-.212.364-.0773.653.1333.284.2666.568.4.848.0813.304.184.598.2413.888.112.584.156 1.134.164 1.603.0173.941-.068 1.561-.068 1.561z" fill="#333558"/><path d="m59.2215 18.2547s-.836 7.7813 0 9.3786c.8347 1.5934 2.428 5.1214 2.428 5.1214s-3.4533-1.252-3.5293 2.3186c-.076 3.5654 2.8467 3.3774 3.9093 3.3774 1.0627 0 4.1374-1.2534 2.1254-6.188-2.012-4.9347-2.3694-2.96-2.6827-6.528-.316-3.568 0-7.2507 0-7.2507z" fill="#dfdcda"/><path d="m60.3215 15.972s-.8346 7.78 0 9.3746c.8347 1.5934 2.428 5.1254 2.428 5.1254s-3.452-1.2534-3.5293 2.3146c-.076 3.568 2.8466 3.3774 3.9106 3.3774 1.0627 0 4.1361-1.252 2.1241-6.188-2.0107-4.9347-2.3694-2.96-2.6827-6.528-.3147-3.568 0-7.2507 0-7.2507z" fill="#edebea"/><path d="m61.7788 27.1693s5.968 22.7187-7.5773 22.7187c-13.544 0-11.9359-17.336-7.7026-23.44 4.232-6.104 15.2799.7213 15.2799.7213z" fill="#dfdcda"/><path d="m61.4855 17.7s.9973 3.784.3933 4.9907c-.604 1.208.0107 3.2826-.1 4.4786-.1093 1.192-1.7373 3.2427-5.2826.8253 0 0-9.1387 4.8854-9.2187-1.4159-.0787-6.3027.368-9.664.368-9.664s11.0307-1.2347 13.84.7853z" fill="#dee4f5"/><path d="m36.7029 14.9093s.8346 7.7813 0 9.3747c-.836 1.5933-2.4294 5.1226-2.4294 5.1226s3.4547-1.2533 3.5307 2.3174c.0746 3.568-2.8466 3.3773-3.9106 3.3773-1.0627 0-4.1374-1.252-2.1254-6.1867 2.012-4.936 2.3706-2.9613 2.6853-6.5293.3133-3.568 0-7.2493 0-7.2493z" fill="#5c5e65"/><path d="m37.7655 15.972s.8347 7.78 0 9.3746c-.836 1.5934-2.4294 5.1254-2.4294 5.1254s3.4547-1.2534 3.5294 2.3146c.0773 3.568-2.8453 3.3774-3.908 3.3774-1.064 0-4.1387-1.252-2.1267-6.188 2.012-4.9347 2.3707-2.96 2.6853-6.528.3134-3.568 0-7.2507 0-7.2507z" fill="#747b7e"/><path d="m39.3215 17.0733s.8347 7.7814 0 9.3747-2.4294 5.1227-2.4294 5.1227 3.4547-1.2534 3.5294 2.3146c.0773 3.568-2.8453 3.38-3.908 3.38s-4.1387-1.252-2.1253-6.1866c2.0106-4.936 2.3693-2.9614 2.6839-6.5294.3134-3.568 0-7.2493 0-7.2493z" fill="#8c9294"/><path d="m41.5842 17.4146s.836 7.78 0 9.3747c-.8347 1.5933-2.428 5.1253-2.428 5.1253s3.4546-1.256 3.5306 2.3147c.0747 3.568-2.8466 3.3773-3.9106 3.3773-1.0627 0-4.1374-1.252-2.1254-6.188 2.012-4.9346 2.372-2.9599 2.684-6.5279.3147-3.568 0-7.2507 0-7.2507z" fill="#a7aaa9"/><path d="m43.7868 17.0733s.8347 7.7814 0 9.3747-2.428 5.1227-2.428 5.1227 3.452-1.2534 3.5294 2.3146c.076 3.568-2.848 3.38-3.9107 3.38-1.0613 0-4.136-1.252-2.124-6.1866 2.0106-4.936 2.3693-2.9614 2.6839-6.5294.3134-3.568 0-7.2493 0-7.2493z" fill="#c2c2bf"/><path d="m46.0268 16.768s.8347 7.7813 0 9.3746c-.8347 1.5947-2.4307 5.1254-2.4307 5.1254s3.4547-1.252 3.5307 2.3146c.076 3.568-2.8467 3.3787-3.9094 3.3787-1.0626 0-4.1373-1.2533-2.1266-6.188 2.012-4.932 2.372-2.9613 2.6853-6.528.3133-3.568 0-7.248 0-7.248z" fill="#dfdcda"/><path d="m48.0374 16.352s.8347 7.7813 0 9.3746c-.8346 1.5934-2.4293 5.1227-2.4293 5.1227s3.4547-1.2506 3.5307 2.3147c.076 3.568-2.8466 3.3773-3.9093 3.3773-1.064 0-4.1387-1.2493-2.1267-6.184 2.012-4.936 2.3707-2.9613 2.6854-6.5293.3133-3.568 0-7.2494 0-7.2494z" fill="#edebea"/><path d="m56.4962 27.9947s3.6546.32 4.976 2.5466c0 0-1.94 1.8707-4.764.4774 0 0-3.1987 1.224-6.1254.372 0 0 2.0254-3.0814 5.9134-3.396z" fill="#edebea"/><path d="m32.4281 7.07599 4.4494-.92533.9 4.32534c1.1227-.2627 2.3053-.47601 3.5253-.65068l-.5039-4.12532 4.7186-.57733.516 4.21867c1.344-.092 2.6826-.14668 3.984-.17735v-4.32799h4.816v4.32265c1.4613.02934 2.7787.08134 3.8773.13601l.7307-4.34133 5.1827.87199-1.7507 10.41468-.964-.164-.012.4627-25.9147 1-.0453-.408-1.36.284z" fill="#ae8f42"/><path d="m62.5722 18.0027s-13.3374-2.036-27.9827 1.4186l-.136-2.348s18.356-4.2866 28.492-1.1013z" fill="#181419"/><path d="m57.9629 21.24s.8853-.3587 1.8653-.3693c.2426-.0134.4946.0213.724.0586.2293.0667.4266.188.5893.2774.2773.2906.3854.5026.3854.5026l-.0321.0294s-.2533-.0881-.5213-.2387c-.164-.0374-.3427-.0813-.5267-.16-.204-.0173-.4106-.108-.636-.1294-.4493-.0493-.912-.0373-1.2586-.0039-.348.0266-.58.0746-.58.0746z" fill="#747b7e"/><path d="m54.0815 21.2813s-.232-.048-.58-.0746c-.3467-.0334-.8094-.0454-1.2587.0039-.2253.0214-.4307.1121-.636.1294-.184.0787-.3626.1226-.5266.16-.268.1506-.5214.2387-.5214.2387l-.0306-.0294s.1066-.212.3839-.5026c.1627-.0894.36-.2107.5894-.2774.2293-.0373.4813-.072.724-.0586.98.0106 1.8654.3693 1.8654.3693z" fill="#747b7e"/><path d="m55.3242 22.8773s-.2013.2307-.592.4787c-.1987.1093-.4347.2533-.7134.3333-.2786.0854-.58.1747-.8933.1814-.3147.052-.628.0453-.9173-.02-.296-.0227-.5561-.1134-.7601-.2307-.42-.212-.6613-.4-.6613-.4l.0187-.0387s.32.0187.7453.116c.2093.0707.4613.0934.7253.1347.264.0467.544.1133.8334.0986.2906.0267.5733-.0266.8413-.0786.2667-.0493.5054-.1507.7107-.228.4053-.1813.6347-.3774.6347-.3774z" fill="#333558"/><path d="m58.1081 22.8466s.1707.1321.4653.2534c.2934.1147.6947.2467 1.1054.2333.2053.0054.4026-.0227.5893-.0547.184-.0333.3654-.0199.516-.0639.304-.048.5467-.0334.5467-.0334l.0187.0387s-.1654.1547-.4707.3187c-.1493.092-.344.148-.5613.16-.2134.0506-.4453.0173-.6707-.0267-.2293-.0147-.4413-.1093-.6413-.1707-.1947-.0813-.3667-.176-.5041-.2693-.2773-.1867-.4212-.3547-.4212-.3547z" fill="#333558"/><path d="m57.3121 22.1893s-.0426.6227.0387 1.5493c.04.4614.1213.9974.256 1.556.0693.2774.1827.5507.2734.8347.144.268.2906.54.436.8107.0813.112.1306.328.1386.5346-.024.204-.1.3854-.2267.532-.2506.28-.58.4054-.8853.4827-.312.06-.62.0947-.9067.04-.284-.0453-.5533-.1213-.7733-.2587-.2226-.1186-.4053-.292-.5093-.4693-.132-.1653-.1587-.352-.196-.4893-.02-.2867-.0053-.4427-.0053-.4427h.0413s.028.1587.104.404c.0706.112.1173.26.2493.3773.104.1347.2787.2387.4694.32.1866.0947.4226.1387.6653.1534.244.0146.5053.008.7666-.0454.256-.0626.5041-.1773.6814-.34.176-.1906.2133-.3653.0787-.6546-.1347-.2827-.268-.5667-.4-.8467-.0814-.304-.1854-.5973-.2427-.888-.112-.584-.1561-1.1333-.1641-1.6027-.016-.9413.0694-1.56.0694-1.56z" fill="#333558"/></svg>