<svg fill="none" height="140" viewBox="0 0 92 140" width="92" xmlns="http://www.w3.org/2000/svg"><path d="m-.00000265 3.67668c0-2.03075 1.62244265-3.67668 3.62285265-3.67668h84.75435c2.0004 0 3.6228 1.64593 3.6228 3.67668v132.64632c0 2.031-1.6224 3.677-3.6228 3.677h-84.75435c-2.00041 0-3.62285265-1.646-3.62285265-3.677z" fill="#fff"/><path d="m10.1881 27.6773-3.71996-5.06 3.71996-5.06 3.72 5.06z" fill="#73242f"/><path d="m10.1762 17.5733-3.70805 5.044 3.70805 5.044z" fill="#8c2a38"/><g fill="#73242f"><path d="m78.459 131.259c0-.997.1583-1.857.4749-2.58.3165-.718.7606-1.28 1.3323-1.686l-1.8426-1.446.9284-.858 2.1757 1.73c.3402-.085.6993-.128 1.0772-.128.8127 0 1.5332.198 2.1616.595.6283.402 1.1173.971 1.467 1.708.3449.742.522 1.6.5315 2.573v.744c0 .992-.1725 1.869-.5174 2.629-.3449.761-.8315 1.342-1.4599 1.744-.6331.406-1.356.609-2.1686.609-.8315 0-1.5615-.201-2.1899-.602-.6331-.402-1.1197-.981-1.4599-1.737-.3402-.751-.5103-1.63-.5103-2.636zm1.3607.666c0 1.214.2434 2.15.73 2.807.4819.661 1.1717.992 2.0694.992.8552 0 1.5308-.329 2.0269-.985.4913-.652.7441-1.559.7583-2.722v-.758c0-1.181-.2457-2.112-.7371-2.792-.4961-.681-1.1835-1.021-2.0623-1.021s-1.5591.319-2.041.957c-.4819.643-.73 1.561-.7442 2.757z"/><path d="m14.2092 8.86629c0 .9969-.1582 1.85681-.4748 2.57971-.3165.7181-.7607 1.2803-1.3323 1.6867l1.8426 1.4457-.9284.8575-2.1757-1.7292c-.3402.085-.6993.1276-1.0772.1276-.81269 0-1.5332-.1985-2.16158-.5953-.62838-.4016-1.11738-.971-1.467-1.708-.3449-.7418-.52208-1.5993-.53153-2.57258v-.74413c0-.99218.17245-1.8686.51735-2.62927s.83154-1.3418 1.45992-1.7434c.6331-.40632 1.35598-.60948 2.16864-.60948.8315 0 1.5615.2008 2.1899.6024.6331.40159 1.1197.98036 1.4599 1.73631.3401.75122.5102 1.63.5102 2.63635zm-1.3607-.66617c0-1.21424-.2433-2.14972-.7299-2.80645-.4819-.66145-1.1717-.99217-2.0694-.99217-.85519 0-1.53081.32836-2.0269.98509-.49136.652-.74413 1.55913-.75831 2.7214v.7583c0 1.18121.24569 2.11191.73705 2.79231.49609.6803 1.18353 1.0205 2.06236 1.0205.8787 0 1.5591-.3189 2.041-.9568.4819-.6425.73-1.5615.7441-2.75679z"/><path d="m82.5961 112.424 3.72 5.06-3.72 5.06-3.7186-5.06z"/></g><path d="m82.6082 122.528 3.7079-5.044-3.7079-5.044z" fill="#8c2a38"/><path d="m45.5615 78.0466h-5.4174v1.836h5.4174z" fill="#35346f"/><path d="m46.0321 79.8826h-5.416v1.8334h5.416z" fill="#a22735"/><path d="m46.8335 81.716h-5.4174v1.8333h5.4174z" fill="#35346f"/><path d="m47.3055 83.5493h-5.4174v1.8333h5.4174z" fill="#a22735"/><path d="m48.1055 85.3826h-5.4173v1.836h5.4173z" fill="#35346f"/><path d="m48.5775 87.2186h-5.4187v1.8334h5.4187z" fill="#a22735"/><path d="m49.3761 89.052h-5.416v1.8333h5.416z" fill="#35346f"/><path d="m46.0321 77.972 3.9654 10.2707 10.2786.7239-5.8853-11.7666z" fill="#a22735"/><path d="m33.2441 78.628-1.4386 11.3586 10.472-.4759.1706-4.1854-3.604-7.4507z" fill="#a22735"/><path d="m45.1775 90.2026-4.6494-12.0279-3.4119.4533s4.7773 6.2866 4.0306 8.6746c-.7453 2.388-6.2693.9401-6.2693.9401l-2.3667 4.2333z" fill="#181419"/><path d="m44.4295 77.8746 4.544 12.2014 11.6026.8666-1.5333-3.4693s-6.316 1.1933-8.1493-.2987c-1.8347-1.492-3.584-9.128-3.584-9.128z" fill="#181419"/><path d="m55.6241 73.56c-9.472-.412-23.1133.8227-23.1133.8227v4.2453s13.6413-1.232 23.1133-.8213" fill="#181419"/><path d="m32.5108 78.628s13.6413-1.232 23.1133-.8214" stroke="#9c6c3e" stroke-miterlimit="10" stroke-width="7.6771"/><path d="m32.5108 74.3827s13.6413-1.2347 23.1133-.8227" stroke="#9c6c3e" stroke-miterlimit="10" stroke-width="7.6771"/><path d="m25.0015 87.1533 6.5239 5.9894s5.148-2.6614 4.5294-7.952c-.6187-5.2947-3.472-7.1441-3.472-7.1441z" fill="#d1d7ec"/><path d="m25.0015 87.148 5.8026 5.328s4.5787-2.3667 4.028-7.072c-.5506-4.7093-3.0893-6.3547-3.0893-6.3547z" fill="#181419"/><path d="m25.0015 87.14 4.844 4.448s3.82-1.976 3.36-5.9027c-.4587-3.9307-2.5774-5.3027-2.5774-5.3027z" fill="#35346f"/><path d="m47.1055 62.0813h5.4173v-1.8333h-5.4173z" fill="#35346f"/><path d="m46.6348 60.248h5.416v-1.836h-5.416z" fill="#a22735"/><path d="m45.8335 58.412h5.416v-1.8334h-5.416z" fill="#35346f"/><path d="m45.3615 56.5786h5.4173v-1.8333h-5.4173z" fill="#a22735"/><path d="m44.5615 54.7453h5.416v-1.8333h-5.416z" fill="#35346f"/><path d="m44.0895 52.912h5.4173v-1.8334h-5.4173z" fill="#a22735"/><path d="m43.2908 51.0786h5.416v-1.836h-5.416z" fill="#35346f"/><path d="m46.6348 62.156-3.9653-10.268-10.2787-.7267 5.8854 11.7653z" fill="#a22735"/><path d="m59.4228 61.5 1.4387-11.36-10.472.48-.1707 4.1826 3.604 7.4494z" fill="#a22735"/><path d="m47.4895 49.924 4.6493 12.0293 3.412-.4533s-4.7773-6.2867-4.0307-8.6747c.7454-2.388 6.2694-.9373 6.2694-.9373l2.3666-4.2347z" fill="#181419"/><path d="m48.2375 62.252-4.5427-12.1973-11.6027-.8694 1.532 3.468s6.316-1.192 8.1494.3c1.8346 1.492 3.584 9.128 3.584 9.128z" fill="#181419"/><path d="m37.0428 66.568c9.472.4106 23.1133-.8227 23.1133-.8227v-4.2453s-13.6413 1.2346-23.1133.8226" fill="#181419"/><path d="m60.1561 61.5s-13.6413 1.2346-23.1133.8226" stroke="#9c6c3e" stroke-miterlimit="10" stroke-width="7.6771"/><path d="m60.1561 65.7453s-13.6413 1.2333-23.1133.8227" stroke="#9c6c3e" stroke-miterlimit="10" stroke-width="7.6771"/><path d="m12.6255 44.328c1.872-.604 3.852-.9293 5.9026-.9293 11.5107 0 20.8414 10.2079 20.8414 22.7986 0 12.592-9.3307 22.8-20.8414 22.8-2.0506 0-4.0306-.3253-5.9026-.9293z" fill="#dee4f5"/><path d="m12.6255 45.3227c1.8653-.6294 3.848-.9707 5.9026-.9707 11.0307 0 19.9707 9.7813 19.9707 21.8453 0 12.0653-8.94 21.8467-19.9707 21.8467-2.0546 0-4.0373-.3413-5.9026-.9707z" fill="#d1d7ec"/><path d="m12.6255 50.068c1.8266-.8027 3.816-1.2453 5.9026-1.2453 8.7734 0 15.8854 7.7786 15.8854 17.3746 0 9.5974-7.112 17.376-15.8854 17.376-2.0866 0-4.076-.4427-5.9026-1.2453z" fill="#9c6c3e"/><path d="m12.6255 51.904c1.8-.8933 3.7973-1.3933 5.9026-1.3933 7.92 0 14.34 7.0226 14.34 15.6866s-6.42 15.688-14.34 15.688c-2.1053 0-4.1026-.5-5.9026-1.3933z" fill="#ae8f42"/><path d="m12.6255 57.2266c1.6613-1.3106 3.6986-2.0866 5.9026-2.0866 5.5827 0 10.1094 4.9506 10.1094 11.0573 0 6.108-4.5267 11.0573-10.1094 11.0573-2.204 0-4.2413-.776-5.9026-2.0853z" fill="#dee4f5"/><path d="m12.6255 57.9293c1.6266-1.3933 3.6773-2.2266 5.9026-2.2266 5.2987 0 9.5934 4.7013 9.5934 10.4946 0 5.7947-4.2947 10.496-9.5934 10.496-2.2253 0-4.276-.8333-5.9026-2.2267z" fill="#a22735"/><path d="m12.6255 64.5986c.3346-.2186.6627-.4453.984-.6826.3253-.2414.6453-.492.9586-.7494l.0014-.0026c.3106-.2574.6133-.524.908-.8.0027-.0027.0053-.0027.008-.004.2906-.2747.5746-.5534.8506-.8414.0067-.0053.0134-.0133.02-.0186.036.2973.0787.5933.1294.888.0093.052.02.104.0293.1533.0427.2373.0854.472.1347.704.0013.0067.004.0147.0053.02.0173.0867.04.1693.0587.256.0413.1787.0853.3613.1307.5387.0093.036.0173.0706.0266.1066.0227.0827.0467.1667.0707.252.0467.1694.0946.3414.1466.5107.0094.0347.0214.068.032.0987.0254.0866.0547.1693.0827.256.0547.172.1107.344.1707.5133.04.1093.0826.2187.124.328.06.164.1226.3253.1866.4867.0454.112.0934.224.14.3333.0667.156.1347.312.204.4667.0507.1146.1054.224.1574.336.0706.148.1426.2986.2186.4466.056.112.1147.2214.1747.332.064.1267.132.252.2014.3747.0133.0253.0253.052.0413.0747.0573.1066.1186.2093.1786.3133.064.1093.128.216.1934.3227.036.06.072.1226.1106.18.0494.08.1.1613.1494.2386.0746.1174.1493.2294.2253.344.0547.0814.1094.1614.164.2427.0307.044.0627.0907.0933.1347.0907.128.1814.256.2734.3813.0893.1213.1787.2413.2707.3587.0853.1146.172.224.2613.336.0413.052.084.1013.1253.156.076.092.1533.1826.228.2733.0653.0787.132.1573.1987.232.0653.076.1293.1493.1946.224.1067.12.2161.2373.3254.3547.0187.02.0386.0413.0573.0626.0867.0907.172.1814.2613.2707.1334.1373.2707.2733.408.408.0734.068.144.1413.2174.2093.0546.052.112.1014.168.156.1253.1147.2506.2267.3786.3414.0307.0253.0614.0546.0934.0826.0906.0787.184.156.276.232.1426.1227.288.24.4333.3574.108.0853.2173.172.3267.2546.1026.0787.2067.1587.312.2347.1267.0933.2573.1867.388.276.1053.0747.2106.1507.3173.2213.132.0907.268.1774.404.2654.1067.068.2147.1386.3227.2026.1373.0867.2786.1694.4186.2507.108.0653.2174.1307.3267.1893.1453.0814.2907.16.4387.2374.1093.0573.2173.1146.328.172.1506.0786.3053.148.4573.224.108.0493.2147.104.3253.1533.1627.0733.328.144.492.2133.1027.0454.2027.0894.3067.1307.1827.076.368.144.5533.2107.088.0346.1734.0706.2614.1.2373.0853.48.164.72.2413.0373.0107.0733.024.1107.0373.2813.0854.5653.1667.8506.2414.0427.0106.0867.0213.1293.032.2427.0626.484.1186.7307.1733.088.0187.1787.0347.268.0533.2.0387.4013.08.604.1134.104.0186.212.032.3187.0506.5026.0747 1.0093.1374 1.5226.176-3.792 5.672-9.9173 9.3547-16.8306 9.3547-2.0427 0-4.0174-.3227-5.884-.924z" fill="#9c6c3e"/><path d="m12.6255 66.172c.2146-.6934.5066-1.2267.9066-1.5214.7494-.8093 1.7654-1.4266 2.54-2.236 1.1 8.8614 8.628 17.3254 17.552 18.0094-4.996 7.4693-20.4106 13.224-20.9986 1.1253z" fill="#ae8f42"/><path d="m50.8548 24.3333s6.9027 15.2574 5.836 20.1747c-1.0693 4.9133-10.896-9-10.896-9z" fill="#181419"/><path d="m44.9215 10.3613s10.9693 2.628 16.0013 17.8134c5.0347 15.1826 2.7307 21.0106 2.7307 21.0106l-7.6453-5.3493s.6999-7.1747-4.5454-19.5867c-5.2453-12.4106-6.5413-11.2773-6.5413-11.2773z" fill="#a22735"/><path d="m38.6375 11.6933s10.968 2.6267 16.0013 17.812c5.032 15.1827 2.616 17.924 2.616 17.924l-2.2173-.4893s2.8-4.9373-2.4467-17.352c-5.2453-12.4107-13.9533-15.2853-13.9533-15.2853z" fill="#ae8f42"/><path d="m12.6255 65.4867v-14.8747l7.6586-7.0907 7.7987 4.4507z" fill="#35346f"/><path d="m29.7575 48.3253s-16.7254 19.256-17.132 19.4693v-2.98l14.008-16.8426z" fill="#181419"/><path d="m55.4655 42.552 6.824 5.2026s-19.7893 7.204-42.9067-1.664l5.5334-6.8226z" fill="#9c6c3e"/><path d="m54.1001 41.4787 6.8227 5.2066s-18.4226 6.812-41.54-2.052l5.5334-6.8266z" fill="#ae8f42"/><path d="m49.2641 35.576c0 .1347 1.2534 3.7733 4.836 5.9027 0 0-18.0226 3.2506-29.1839-2.2134 0 0 1.7173-11.0653 7.092-8.776 5.372 2.2894 17.2559 5.0867 17.2559 5.0867z" fill="#d1d7ec"/><path d="m51.2655 21.4453s.4533 4.036 0 4.636c-.4534.596-.5387 1.064-.368 2.0493.172.9814.172 5.7214-.5974 6.7467-.7693 1.024-4.0146 7.216-6.236 7.2614-2.22.0413-11.5733-3.8027-11.7026-8.8 0 0-.6813.8986-1.5787.3853-.8973-.5133-1.0253-4.2267-1.0253-4.2267s7.652-16.7 15.164-15.9733c0 0 6.3706 4.5666 6.344 7.9213z" fill="#dee4f5"/><path d="m44.9215 10.3613s-7.9454-2.12933-14.1347 4.464c-6.1893 6.5933-12.9867 22.4227-18.1613 24.1467v6.536s12.58-6.432 15.624-16.3774c3.0453-9.9426 16.672-18.7693 16.672-18.7693z" fill="#181419"/><path d="m44.9215 13.8547s-2.0347 8.952-10.76 9.2573c-2.4347-2.3333 5.576-9.2573 5.576-9.2573s1.652-1.3134 5.184-.8827z" fill="#c57135"/><path d="m44.9215 12.972s-8.44 2.1667-15.4374 19.388c-11.8853 19.2-16.8586 18.252-16.8586 18.252v-5.104s8.624-6.94 13.9-16.48c5.276-9.536 8.7906-18.6667 18.396-18.6667z" fill="#a22735"/><path d="m44.9215 10.3613s10.9693 2.628 16.0013 17.8134c5.0347 15.1826 2.7307 21.0106 2.7307 21.0106l-2.0147-1.2133s2.484-7.3-2.7627-19.7147c-5.2453-12.4106-13.9546-15.2853-13.9546-15.2853z" fill="#ae8f42"/><path d="m44.9215 13.8547s1.3493 5.7653 6.5546 7.6719c0 0 1.628-9.3906-6.5546-8.5546z" fill="#af6734"/><path d="m67.6641 52.976-6.524-5.992s-5.1466 2.6613-4.528 7.9533c.6187 5.2947 3.472 7.144 3.472 7.144z" fill="#d1d7ec"/><path d="m67.6641 52.9786-5.8026-5.3253s-4.5774 2.3653-4.0267 7.0733c.5507 4.7054 3.088 6.352 3.088 6.352z" fill="#181419"/><path d="m67.6641 52.9866-4.8426-4.4453s-3.82 1.9747-3.36 5.9013c.4586 3.9294 2.5773 5.3027 2.5773 5.3027z" fill="#35346f"/><path d="m51.2895 25.4786c-.0014 0-1.0254-.2707-2.0534-.232-.256.016-.5093.0267-.744.0653-.2333.0254-.4613-.0173-.6506.0081-.3827.012-.6694-.0427-.6694-.0427l-.0133-.0494s.228-.1599.6173-.3093c.3854-.1533.9467-.18 1.4814-.0813.5386.064 1.0626.192 1.4373.3347.3773.1346.612.26.612.26z" fill="#c57135"/><path d="m38.6281 25.212s.316-.1307.812-.272c.4934-.148 1.1707-.28 1.86-.348.344-.032.692-.0867 1.0187-.064.3253.0253.628.06.88.1453.5053.16.8133.3347.8133.3347l-.012.0573s-.36.068-.86.068c-.248-.0227-.5426.0253-.8493.0013-.3067-.0413-.6387-.0546-.972-.076-1.3347-.048-2.6733.2094-2.6733.2094z" fill="#c57135"/><path d="m43.2242 26.7653s-.2241.1507-.6067.2867c-.1934.056-.42.1347-.6707.168-.2507.0267-.5186.0707-.7893.0613-.5413-.0053-1.0787-.112-1.456-.252-.376-.1493-.6147-.264-.6147-.264s.272.024.6587.084c.188.0507.42.04.66.0694.2386.0386.496.04.7533.0333.5147.028 1.0267-.0387 1.416-.08.388-.0467.6494-.1067.6494-.1067z" fill="#333558"/><path d="m47.6215 26.7653s.204.0654.5093.116c.3053.0467.7067.116 1.1107.0894.2026.0066.404.0013.592-.036.188-.028.3706-.0241.5173-.0747.3027-.064.5187-.0947.5187-.0947s-.1787.108-.4707.252c-.2907.1334-.72.24-1.1547.244-.2173.012-.4333-.0333-.6333-.0586-.2-.036-.3787-.1094-.528-.1654-.2973-.1306-.4613-.272-.4613-.272z" fill="#333558"/><path d="m45.2242 36.8253s-.8934.5547-2.1587 0z" fill="#dee4f5"/><path d="m45.2242 36.8253s-.1027.104-.2987.204c-.1.0387-.2174.0987-.3534.12-.1346.0227-.28.0494-.4266.044-.2934-.0053-.5813-.084-.772-.184-.192-.1026-.308-.184-.308-.184s.148.012.3506.0454c.2014.0306.4694.08.7334.0666.2653.024.5293-.0213.732-.044.2026-.0293.3427-.068.3427-.068z" fill="#333558"/><path d="m46.7135 35.2786s-1.284.1374-2.5694.128c-1.284.0094-2.568-.128-2.568-.128s1.284-.1386 2.568-.128c1.2854-.0106 2.5694.128 2.5694.128z" fill="#333558"/><path d="m46.1121 32.3666s-.008.048-.044.1254c-.0346.0786-.0946.1933-.2026.296-.1067.108-.2427.22-.416.2946-.1627.1027-.3614.124-.5494.1907-.1933.0387-.3893.0333-.5706.052-.1827.024-.3507-.0267-.4947-.0373-.2867-.0467-.472-.0934-.472-.0934s.1947-.0293.476-.052c.14-.008.3053-.0066.476-.0386.1707-.0267.3587-.0347.5347-.08.1706-.052.364-.06.5106-.1427.1587-.0587.3027-.1213.4134-.2027.2293-.1453.3386-.312.3386-.312z" fill="#333558"/><path d="m80.0415 95.8c-1.872.604-3.852.9293-5.9027.9293-11.5106 0-20.8413-10.208-20.8413-22.8 0-12.5907 9.3307-22.7987 20.8413-22.7987 2.0507 0 4.0307.3254 5.9027.9294z" fill="#dee4f5"/><path d="m80.0415 94.8053c-1.8653.632-3.848.9707-5.9027.9707-11.0306 0-19.972-9.7814-19.972-21.8467 0-12.0654 8.9414-21.8467 19.972-21.8467 2.0547 0 4.0374.3413 5.9027.972z" fill="#d1d7ec"/><path d="m80.0415 90.06c-1.8267.8013-3.816 1.2466-5.9027 1.2466-8.7733 0-15.884-7.78-15.884-17.3773 0-9.596 7.1107-17.3747 15.884-17.3747 2.0867 0 4.076.4454 5.9027 1.2454z" fill="#9c6c3e"/><path d="m80.0415 88.224c-1.8013.8933-3.7973 1.3933-5.9027 1.3933-7.92 0-14.34-7.024-14.34-15.688s6.42-15.6867 14.34-15.6867c2.1054 0 4.1014.5027 5.9027 1.3934z" fill="#ae8f42"/><path d="m80.0415 82.9013c-1.6613 1.3093-3.6987 2.0853-5.9027 2.0853-5.5826 0-10.1093-4.9506-10.1093-11.0573s4.5267-11.0547 10.1093-11.0547c2.204 0 4.2414.7734 5.9027 2.084z" fill="#dee4f5"/><path d="m80.0415 82.1973c-1.6267 1.3933-3.6773 2.2267-5.9027 2.2267-5.2986 0-9.5933-4.6974-9.5933-10.4947 0-5.7933 4.2947-10.492 9.5933-10.492 2.2254 0 4.276.8307 5.9027 2.224z" fill="#a22735"/><path d="m80.0415 75.528c-.3347.22-.6627.4453-.984.6826-.3253.2427-.6454.492-.9587.7507l-.0013.0027c-.3107.2573-.6133.5226-.908.7986-.0027.0027-.0054.0054-.008.0081-.2907.2706-.5747.5519-.8507.8386-.0067.008-.0133.0133-.02.0187-.036-.2974-.0787-.5947-.1293-.888-.0094-.052-.02-.104-.0294-.1547-.0426-.2333-.0853-.4707-.1346-.7027-.0027-.008-.004-.0133-.0054-.0213-.0186-.0853-.0399-.168-.0586-.252-.0413-.1827-.0853-.3613-.1307-.5413-.0093-.0374-.0173-.0707-.0267-.1067-.0226-.084-.0466-.1667-.0706-.2507-.0467-.172-.0947-.344-.1467-.5133-.0107-.0307-.0213-.064-.032-.0987-.0253-.0853-.0547-.1693-.0827-.2546-.0546-.172-.1106-.3414-.1706-.5134-.04-.1093-.0827-.2186-.124-.328-.06-.1613-.1227-.3253-.1867-.4866-.0453-.112-.0933-.2214-.14-.3334-.0667-.156-.1346-.3133-.204-.4666-.0506-.112-.1053-.224-.1573-.3334-.072-.1506-.1427-.3013-.2187-.4506-.056-.112-.116-.2214-.1746-.3307-.0654-.1253-.132-.252-.2014-.3747-.0133-.0266-.0253-.052-.0413-.076-.0574-.104-.1187-.2079-.1787-.3119-.064-.1094-.128-.2161-.1933-.3227-.036-.06-.072-.12-.1107-.18-.0493-.0814-.1-.1587-.1493-.24-.0747-.1147-.1493-.2294-.2253-.344-.0547-.08-.1094-.1614-.164-.2387-.0307-.0467-.0627-.092-.0934-.1386-.0907-.1267-.1813-.2547-.2733-.3801-.0893-.1226-.1787-.2426-.2707-.3586-.0853-.112-.172-.224-.2613-.3334-.0414-.0546-.084-.1053-.1254-.1573-.076-.0933-.1533-.184-.2279-.276-.0667-.0773-.132-.156-.1987-.2306-.0653-.076-.1294-.1494-.1947-.2227-.1067-.1187-.216-.2387-.3253-.356-.0187-.0214-.0387-.0414-.0574-.0627-.0866-.0907-.172-.1827-.2613-.2707-.1333-.1386-.2707-.2733-.408-.4066-.0733-.0707-.1453-.14-.2173-.2107-.0547-.052-.112-.1013-.168-.1533-.1253-.1173-.2507-.2294-.3787-.3414-.0307-.0293-.0613-.0573-.0933-.084-.0907-.08-.184-.156-.276-.2333-.1427-.1227-.288-.24-.4334-.3573-.108-.0853-.2173-.1694-.3266-.2547-.1027-.0787-.2067-.1573-.312-.2347-.1267-.0933-.2574-.1853-.388-.2759-.1054-.076-.2107-.148-.3174-.2214-.1333-.092-.268-.1773-.404-.2626-.1066-.0707-.2146-.1414-.3226-.2067-.1373-.0854-.2787-.1667-.4187-.2494-.1093-.0626-.2173-.128-.3267-.1906-.1453-.08-.2906-.1587-.4386-.2347-.1093-.06-.2174-.116-.328-.1733-.1507-.076-.3053-.1494-.4573-.2214-.108-.0533-.2147-.1079-.3254-.1573-.1627-.072-.328-.1427-.492-.2133-.1026-.0414-.204-.088-.3067-.1294-.184-.0733-.368-.1439-.5533-.2119-.0893-.0334-.1733-.0667-.2613-.0987-.2374-.0853-.48-.164-.72-.2427-.0374-.0093-.0734-.0227-.112-.036-.28-.0853-.564-.1667-.8507-.2427-.0413-.0093-.0853-.0173-.128-.0306-.2426-.06-.4853-.12-.7306-.1747-.088-.0173-.1787-.0333-.268-.052-.2-.0387-.4014-.08-.6027-.1147-.1053-.0173-.2134-.0306-.32-.0466-.5027-.0787-1.0094-.14-1.5227-.18 3.792-5.6694 9.9174-9.3534 16.8307-9.3534 2.0427 0 4.0173.3254 5.884.9241z" fill="#9c6c3e"/><path d="m80.0415 73.956c-.2133.692-.5067 1.2267-.9067 1.52-.7493.8107-1.7653 1.428-2.54 2.2373-1.1-8.8613-8.628-17.3253-17.552-18.008 4.996-7.4706 20.4107-13.2266 20.9987-1.1266z" fill="#ae8f42"/><path d="m80.0415 74.64v14.8786l-7.6587 7.0907-7.8-4.4533z" fill="#35346f"/><path d="m62.9095 91.8026s16.7253-19.2533 17.132-19.4693v2.9813l-14.008 16.8414z" fill="#181419"/><path d="m41.8121 115.797s-6.9026-15.261-5.8359-20.1744c1.0693-4.9173 10.8959 8.9974 10.8959 8.9974z" fill="#181419"/><path d="m47.7455 129.768s-10.9707-2.629-16.0027-17.812c-5.0333-15.1854-2.7293-21.0133-2.7293-21.0133l7.6453 5.3493s-.7 7.175 4.544 19.585c5.2467 12.415 6.5427 11.279 6.5427 11.279z" fill="#a22735"/><path d="m54.0295 128.437s-10.968-2.63-16.0014-17.812c-5.0333-15.185-2.6159-17.9277-2.6159-17.9277l2.2173.4907s-2.8 4.94 2.4467 17.351c5.2453 12.412 13.9533 15.286 13.9533 15.286z" fill="#ae8f42"/><path d="m37.2015 97.576-6.824-5.204s19.7893-7.2027 42.9066 1.664l-5.5333 6.824z" fill="#9c6c3e"/><path d="m38.5668 98.648-6.824-5.2027s18.424-6.8146 41.5413 2.052l-5.5333 6.8227z" fill="#ae8f42"/><path d="m43.4028 104.552c0-.136-1.2533-3.771-4.836-5.904 0 0 18.0227-3.2494 29.184 2.213 0 0-1.7173 11.066-7.092 8.778-5.372-2.29-17.256-5.087-17.256-5.087z" fill="#d1d7ec"/><path d="m41.4015 118.685s-.4534-4.04 0-4.636c.4533-.598.5373-1.068.368-2.052-.172-.981-.172-5.721.5973-6.748.7693-1.022 4.0147-7.2157 6.2347-7.2597 2.2213-.0413 11.5746 3.8027 11.704 8.7997 0 0 .6813-.898 1.5786-.385.8974.512 1.0254 4.229 1.0254 4.229s-7.652 16.698-15.164 15.971c0 0-6.372-4.565-6.344-7.919z" fill="#dee4f5"/><path d="m47.7455 129.768s7.9453 2.131 14.1346-4.465c6.1894-6.595 12.9867-22.423 18.1614-24.147v-6.536s-12.58 6.435-15.6254 16.377c-3.044 9.943-16.6706 18.771-16.6706 18.771z" fill="#181419"/><path d="m47.7455 126.273s2.0347-8.953 10.76-9.257c2.4347 2.333-5.576 9.257-5.576 9.257s-1.652 1.312-5.184.883z" fill="#c57135"/><path d="m47.7455 127.156s8.44-2.167 15.4373-19.388c11.8853-19.2 16.8587-18.2494 16.8587-18.2494v5.1014s-8.624 6.943-13.9 16.479c-5.276 9.537-8.7907 18.669-18.396 18.669z" fill="#a22735"/><path d="m47.7455 129.768s-10.9707-2.629-16.0027-17.812c-5.0333-15.1854-2.7293-21.0133-2.7293-21.0133l2.016 1.2133s-2.4867 7.3027 2.76 19.713c5.2453 12.412 13.956 15.287 13.956 15.287z" fill="#ae8f42"/><path d="m47.7455 126.273s-1.3494-5.762-6.556-7.669c0 0-1.6267 9.391 6.556 8.552z" fill="#af6734"/><path d="m41.3775 114.648s1.0253.271 2.0533.233c.256-.017.5093-.026.744-.066.2333-.024.4613.018.6507-.008.3826-.011.6693.044.6693.044l.0133.049s-.228.16-.6173.308c-.3853.153-.9467.181-1.4813.083-.5387-.064-1.0627-.194-1.4374-.335-.3773-.136-.612-.261-.612-.261z" fill="#c57135"/><path d="m54.0388 114.916s-.316.131-.812.272c-.4933.148-1.1707.28-1.86.347-.344.033-.692.088-1.0187.065-.3253-.025-.628-.061-.88-.145-.5053-.16-.8133-.335-.8133-.335l.012-.057s.36-.068.86-.068c.248.022.5427-.026.8493-.002.3067.04.6387.055.972.076 1.3347.048 2.6734-.209 2.6734-.208z" fill="#c57135"/><path d="m49.4428 113.361s.224-.149.6067-.285c.1933-.056.42-.135.6706-.168.2507-.027.5187-.071.7894-.061.5413.005 1.0786.112 1.456.25.376.151.6146.264.6146.264s-.272-.022-.6586-.082c-.188-.051-.42-.04-.66-.071-.2387-.037-.496-.039-.7533-.032-.5147-.029-1.0267.039-1.4161.079-.388.048-.6493.106-.6493.106z" fill="#333558"/><path d="m45.0455 113.361s-.204-.064-.5094-.114c-.3053-.048-.7066-.116-1.1106-.09-.2027-.008-.404-.002-.592.036-.188.028-.3707.024-.5174.075-.3026.064-.5186.093-.5186.093s.1786-.108.4706-.25c.2907-.135.72-.242 1.1547-.246.2173-.01.4333.035.6333.059.2.037.3787.109.528.165.2974.132.4614.272.4614.272z" fill="#333558"/><path d="m47.4428 103.305s.8933-.557 2.1587 0z" fill="#dee4f5"/><path d="m47.4428 103.305s.1013-.105.2987-.205c.1-.039.2173-.099.352-.121.136-.02.2813-.05.428-.043.2933.005.5813.085.772.184.192.104.308.185.308.185s-.148-.012-.3507-.048c-.2013-.029-.4693-.078-.7333-.065-.2654-.024-.5294.021-.732.045-.2027.028-.3427.068-.3427.068z" fill="#333558"/><path d="m45.9535 104.849s1.284-.138 2.5693-.128c1.284-.01 2.568.128 2.568.128s-1.284.138-2.568.127c-1.2853.011-2.5693-.127-2.5693-.127z" fill="#333558"/><path d="m46.5548 107.76s.008-.047.044-.124c.0347-.079.0947-.193.2027-.296.1066-.108.2426-.22.416-.296.1626-.101.3613-.124.5493-.189.1933-.04.3893-.035.5707-.052.1826-.024.3506.026.4946.037.2867.047.472.092.472.092s-.1946.031-.476.052c-.14.009-.3053.008-.476.04-.1706.027-.3586.035-.5346.08-.1707.051-.364.06-.5107.143-.1587.058-.3027.12-.4133.202-.2294.144-.3387.311-.3387.311z" fill="#333558"/></svg>