<svg fill="none" height="140" viewBox="0 0 93 140" width="93" xmlns="http://www.w3.org/2000/svg"><path d="m.416138 4.41327c0-2.004 1.622442-3.629365 3.622852-3.629365h84.75431c2.0004 0 3.6228 1.625365 3.6228 3.629365v130.98773c0 2.006-1.6224 3.63-3.6228 3.63h-84.75431c-2.00041 0-3.622852-1.624-3.622852-3.63z" fill="#fff"/><path d="m46.3562 84.7346 7.0266 9.5573-7.0266 9.5571-7.0281-9.5571z" fill="#73242f"/><path d="m46.3761 103.82 7.0067-9.5281-7.0067-9.5266z" fill="#8c2a38"/><path d="m46.3562 35.9666 7.0266 9.5574-7.0266 9.5573-7.0281-9.5573z" fill="#73242f"/><path d="m46.3761 55.0519 7.0067-9.528-7.0067-9.5266z" fill="#8c2a38"/><g fill="#73242f"><path d="m78.6416 126.278h6.761v.943l-3.5718 3.968c-.5292.6-.893 1.087-1.0914 1.46-.2032.378-.3047.768-.3047 1.17 0 .538.163.98.489 1.325s.7606.517 1.304.517c.652 0 1.1599-.186 1.5237-.56.359-.368.5386-.883.5386-1.545h1.3111c0 .95-.3048 1.718-.9143 2.304-.6142.586-1.4339.878-2.4591.878-.9591 0-1.7175-.252-2.275-.758-.5575-.501-.8362-1.169-.8362-2.005 0-1.016.6472-2.226 1.9418-3.629l2.7639-2.998h-5.1806z"/><path d="m14.0266 13.5365h-6.76094v-.9426l3.57184-3.96872c.5292-.60003.893-1.08667 1.0914-1.45992.2032-.37797.3047-.76775.3047-1.16935 0-.53861-.163-.98036-.489-1.32526s-.7606-.51735-1.304-.51735c-.65198 0-1.15988.18662-1.52368.55987-.35907.36852-.53861.88351-.53861 1.54496h-1.31109c0-.94965.30474-1.71741.91422-2.30327.61421-.58585 1.43394-.87878 2.45916-.87878.9591 0 1.7174.25277 2.2749.7583.5576.50082.8363 1.16936.8363 2.00562 0 1.0158-.6473 2.22531-1.9418 3.62853l-2.76394 2.99777h5.18054z"/><path d="m10.1295 27.7706-3.72001-5.06 3.72001-5.0587 3.72 5.0587z"/></g><path d="m10.1175 17.6666-3.70801 5.044 3.70801 5.044z" fill="#8c2a38"/><path d="m82.5375 112.519 3.72 5.06-3.72 5.058-3.72-5.058z" fill="#73242f"/><path d="m82.5495 122.621 3.708-5.042-3.708-5.044z" fill="#8c2a38"/></svg>