<svg fill="none" height="141" viewBox="0 0 93 141" width="93" xmlns="http://www.w3.org/2000/svg"><path d="m.416138 5.10794c0-2.004 1.622442-3.62799 3.622852-3.62799h84.75431c2.0004 0 3.6228 1.62399 3.6228 3.62799v130.98906c0 2.003-1.6224 3.627-3.6228 3.627h-84.75431c-2.00041 0-3.622852-1.624-3.622852-3.627z" fill="#fff"/><path d="m67.3255 93.7426 7.028 9.5574-7.028 9.557-7.0254-9.557z" fill="#73242f"/><path d="m67.3481 112.828 7.0054-9.528-7.0054-9.5268z" fill="#8c2a38"/><path d="m25.3841 93.7426 7.0281 9.5574-7.0281 9.557-7.0266-9.557z" fill="#73242f"/><path d="m25.4068 112.828 7.0054-9.528-7.0054-9.5268z" fill="#8c2a38"/><path d="m67.3255 28.3452 7.028 9.5574-7.028 9.5574-7.0254-9.5574z" fill="#73242f"/><path d="m67.3481 47.4306 7.0054-9.528-7.0054-9.5267z" fill="#8c2a38"/><path d="m25.3841 28.3452 7.0281 9.5574-7.0281 9.5574-7.0266-9.5574z" fill="#73242f"/><path d="m25.4068 47.4306 7.0054-9.528-7.0054-9.5267z" fill="#8c2a38"/><g fill="#73242f"><path d="m79.8677 130.438h-1.4316v-1.07h1.4316v-2.395h1.3182v2.395h4.6986v.773l-4.6207 7.15h-1.3961zm4.5286 0h-3.2104v5.06l.1559-.283z"/><path d="m12.8006 10.7683h1.4316v1.0701h-1.4316v2.3954h-1.3182v-2.3954h-4.69866v-.7725l4.62076-7.15076h1.3961zm-4.52859 0h3.21039v-5.06015l-.1559.28348z"/><path d="m10.1295 28.3466-3.71868-5.0587 3.71868-5.0586 3.72 5.0586z"/></g><path d="m10.1188 18.2452-3.70798 5.0427 3.70798 5.0441z" fill="#8c2a38"/><path d="m82.5388 113.097 3.7187 5.059-3.7187 5.06-3.72-5.06z" fill="#73242f"/><path d="m82.5508 123.199 3.7067-5.043-3.7067-5.044z" fill="#8c2a38"/></svg>