<svg fill="none" height="140" viewBox="0 0 92 140" width="92" xmlns="http://www.w3.org/2000/svg"><path d="m-.0000031 3.67681c0-2.03061 1.6211031-3.67681 3.6215431-3.67681h84.75556c2.0005 0 3.6229 1.6462 3.6229 3.67681v132.64619c0 2.031-1.6224 3.677-3.6229 3.677h-84.75556c-2.00044 0-3.6215431-1.646-3.6215431-3.677z" fill="#fff"/><path d="m46.1628 44.4427 18.8786 25.6802-18.8786 25.6771-18.8787-25.6771z" fill="#73242f"/><path d="m46.2214 95.7188 18.82-25.5959-18.82-25.5989z" fill="#8c2a38"/><path d="m10.0174 27.7349-3.71863-5.0604 3.71863-5.06 3.72 5.06z" fill="#73242f"/><path d="m10.0054 17.6306-3.70663 5.0439 3.70663 5.0443z" fill="#8c2a38"/><g fill="#73242f"><path d="m79.9125 129.186h4.323l.9709-2.693h1.4033l-3.9404 10.318h-1.1906l-3.9474-10.318h1.3961zm3.912 1.12h-3.5081l1.7576 4.826z"/><path d="m12.4131 11.0579h-4.32309l-.97092 2.693h-1.40322l3.94036-10.31861h1.19057l3.9475 10.31861h-1.3961zm-3.91205-1.11976h3.50805l-1.7576-4.82623z"/><path d="m82.4254 112.481 3.72 5.06-3.72 5.06-3.72-5.06z"/></g><path d="m82.4374 122.585 3.708-5.044-3.708-5.044z" fill="#8c2a38"/></svg>