<svg fill="none" height="140" viewBox="0 0 93 140" width="93" xmlns="http://www.w3.org/2000/svg"><path d="m.416138 4.66528c0-2.004 1.622442-3.62806 3.622852-3.62806h84.75431c2.0004 0 3.6228 1.62406 3.6228 3.62806v130.98972c0 2.004-1.6224 3.626-3.6228 3.626h-84.75431c-2.00041 0-3.622852-1.622-3.622852-3.626z" fill="#fff"/><path d="m67.3255 93.2999 7.028 9.5571-7.028 9.558-7.0254-9.558z" fill="#73242f"/><path d="m67.3481 112.385 7.0054-9.528-7.0054-9.5264z" fill="#8c2a38"/><path d="m25.3841 93.2999 7.0281 9.5571-7.0281 9.558-7.0266-9.558z" fill="#73242f"/><path d="m25.4068 112.385 7.0054-9.528-7.0054-9.5264z" fill="#8c2a38"/><path d="m67.3255 60.6026 7.028 9.5573-7.028 9.5573-7.0254-9.5573z" fill="#73242f"/><path d="m67.3481 79.6866 7.0054-9.5267-7.0054-9.528z" fill="#8c2a38"/><path d="m25.3841 60.6026 7.0281 9.5573-7.0281 9.5573-7.0266-9.5573z" fill="#73242f"/><path d="m25.4068 79.6866 7.0054-9.5267-7.0054-9.528z" fill="#8c2a38"/><path d="m67.3255 27.9026 7.028 9.5573-7.028 9.5587-7.0254-9.5587z" fill="#73242f"/><path d="m67.3481 46.9879 7.0054-9.528-7.0054-9.5267z" fill="#8c2a38"/><path d="m25.3841 27.9026 7.0281 9.5573-7.0281 9.5587-7.0266-9.5587z" fill="#73242f"/><path d="m25.4068 46.9879 7.0054-9.528-7.0054-9.5267z" fill="#8c2a38"/><g fill="#73242f"><path d="m80.2575 136.856v-1.113h.2409c1.0206-.019 1.8332-.321 2.438-.907.6047-.586.9543-1.41 1.0488-2.473-.5433.623-1.2851.935-2.2253.935-.8977 0-1.6135-.317-2.1473-.95-.5386-.633-.808-1.45-.808-2.452 0-1.063.2906-1.913.8717-2.551.5765-.638 1.3513-.957 2.3246-.957.9874 0 1.7883.378 2.4025 1.134.6142.761.9213 1.739.9213 2.934v.503c0 1.9-.404 3.35-1.2119 4.352-.8126 1.006-2.0198 1.521-3.6215 1.545zm1.7221-4.649c.4489 0 .8623-.135 1.2402-.404.378-.27.6402-.607.7867-1.014v-.482c0-.85-.1914-1.535-.5741-2.055s-.8598-.779-1.4315-.779c-.5906 0-1.0536.217-1.3891.652-.3401.434-.5102 1.004-.5102 1.708 0 .708.1724 1.28.5173 1.715.3402.439.7938.659 1.3607.659z"/><path d="m12.4108 3.46403v1.11265h-.241c-1.0205.0189-1.8331.32128-2.43787.90713-.60476.58586-.95438 1.41031-1.04888 2.47336.54334-.62365 1.28511-.93548 2.22535-.93548.8976 0 1.6134.31655 2.1473.94965.5386.63311.8079 1.45047.8079 2.45206 0 1.0631-.2905 1.9135-.8717 2.5514-.5764.6378-1.3512.9567-2.3245.9567-.98744 0-1.78827-.378-2.40248-1.1339-.6142-.7607-.9213-1.7387-.9213-2.93403v-.50318c0-1.89931.40395-3.34978 1.21187-4.3514.81264-1.00635 2.01981-1.52134 3.62141-1.54496zm-1.7221 4.64905c-.4489 0-.86228.13466-1.24025.40396-.37797.26931-.64019.60712-.78666 1.01344v.48192c0 .8504.19135 1.5355.57405 2.0552s.85986.7796 1.43156.7796c.5906 0 1.0536-.2173 1.3891-.652.3401-.4347.5102-1.004.5102-1.708 0-.70868-.1724-1.28036-.5173-1.71503-.3402-.43939-.7938-.65909-1.3607-.65909z"/><path d="m10.1295 27.9052-3.71868-5.06 3.71868-5.0586 3.72 5.0586z"/></g><path d="m10.1188 17.8026-3.70798 5.0426 3.70798 5.044z" fill="#8c2a38"/><path d="m82.5388 112.655 3.7187 5.06-3.7187 5.058-3.72-5.058z" fill="#73242f"/><path d="m82.5508 122.757 3.7067-5.042-3.7067-5.046z" fill="#8c2a38"/></svg>