<svg fill="none" height="139" viewBox="0 0 93 139" width="93" xmlns="http://www.w3.org/2000/svg"><path d="m.416138 3.97332c0-2.004 1.622442-3.629326 3.622852-3.629326h84.75431c2.0004 0 3.6228 1.625326 3.6228 3.629326v130.99068c0 2.003-1.6224 3.627-3.6228 3.627h-84.75431c-2.00041 0-3.622852-1.624-3.622852-3.627z" fill="#fff"/><path d="m67.3255 99.0266 7.028 9.5564-7.028 9.557-7.0254-9.557z" fill="#73242f"/><path d="m67.3481 118.109 7.0054-9.526-7.0054-9.5284z" fill="#8c2a38"/><path d="m25.3841 99.0266 7.0281 9.5564-7.0281 9.557-7.0266-9.557z" fill="#73242f"/><path d="m25.4068 118.109 7.0054-9.526-7.0054-9.5284z" fill="#8c2a38"/><path d="m67.3255 72.9893 7.028 9.5574-7.028 9.5573-7.0254-9.5573z" fill="#73242f"/><path d="m67.3481 92.0733 7.0054-9.5266-7.0054-9.5281z" fill="#8c2a38"/><path d="m25.3841 72.9893 7.0281 9.5574-7.0281 9.5573-7.0266-9.5573z" fill="#73242f"/><path d="m25.4068 92.0733 7.0054-9.5266-7.0054-9.5281z" fill="#8c2a38"/><path d="m67.3255 46.9506 7.028 9.5574-7.028 9.5573-7.0254-9.5573z" fill="#73242f"/><path d="m67.3481 66.036 7.0054-9.528-7.0054-9.5267z" fill="#8c2a38"/><path d="m25.3841 46.9506 7.0281 9.5574-7.0281 9.5573-7.0266-9.5573z" fill="#73242f"/><path d="m25.4068 66.036 7.0054-9.528-7.0054-9.5267z" fill="#8c2a38"/><path d="m67.3255 20.9147 7.028 9.5573-7.028 9.556-7.0254-9.556z" fill="#73242f"/><path d="m67.3481 39.9973 7.0054-9.5253-7.0054-9.5293z" fill="#8c2a38"/><path d="m25.3841 20.9147 7.0281 9.5573-7.0281 9.556-7.0266-9.556z" fill="#73242f"/><path d="m25.4068 39.9973 7.0054-9.5253-7.0054-9.5293z" fill="#8c2a38"/><g fill="#73242f"><path d="m84.3042 127.558h1.0216v6.772l2.0486-.753v.923l-2.9109 1.093h-.1593zm-7.9914 3.411c0-1.19.2032-2.075.6096-2.653.4065-.579 1.0417-.868 1.9059-.868.8531 0 1.4848.282 1.8949.846.4101.567.6224 1.413.6371 2.537v1.357c0 1.175-.2032 2.049-.6097 2.62-.4064.571-1.0435.857-1.9113.857-.8605 0-1.494-.277-1.9004-.83-.4064-.549-.6152-1.399-.6261-2.548zm1.0161 1.389c0 .861.1208 1.487.3625 1.879.2416.395.6243.593 1.1479.593.5199 0 .8989-.196 1.1369-.588s.3607-.994.368-1.807v-1.626c0-.864-.1245-1.503-.3735-1.917-.2527-.41-.6335-.615-1.1424-.615-.5017 0-.8733.194-1.115.582-.2453.389-.3735 1-.3844 1.835z"/><path d="m8.36543 11.3796h-1.02159v-6.77215l-2.04866.75246v-.92273l2.91097-1.09298h.15928zm7.99147-3.41081c0 1.19002-.2033 2.07431-.6097 2.65281-.4064.5786-1.0417.8678-1.9059.8678-.8531 0-1.4847-.2819-1.8948-.8458-.4101-.5676-.6225-1.41339-.6371-2.5375v-1.35662c0-1.17537.2032-2.04866.6096-2.61987s1.0436-.85681 1.9114-.85681c.8604 0 1.4939.27645 1.9003.82935.4065.54924.6152 1.39873.6262 2.54847zm-1.0161-1.38957c0-.86048-.1209-1.48661-.3625-1.8784-.2417-.39545-.6243-.59318-1.1479-.59318-.52 0-.899.1959-1.137.58769s-.3606.99412-.368 1.80699v1.62575c0 .86414.1245 1.50309.3735 1.91683.2527.4101.6335.6152 1.1424.6152.5017 0 .8733-.1941 1.115-.5822.2453-.38816.3735-.99964.3845-1.83449z"/><path d="m10.1295 27.2133-3.71868-5.06 3.71868-5.06 3.72 5.06z"/></g><path d="m10.1188 17.112-3.70798 5.0413 3.70798 5.044z" fill="#8c2a38"/><path d="m82.5388 111.964 3.7187 5.057-3.7187 5.06-3.72-5.06z" fill="#73242f"/><path d="m82.5508 122.065 3.7067-5.044-3.7067-5.042z" fill="#8c2a38"/><path d="m46.3335 85.388 7.028 9.5573-7.028 9.5577-7.028-9.5577z" fill="#73242f"/><path d="m46.3548 104.472 7.0067-9.5267-7.0067-9.5293z" fill="#8c2a38"/><path d="m46.3335 34.2266 7.028 9.5574-7.028 9.5573-7.028-9.5573z" fill="#73242f"/><path d="m46.3548 53.3093 7.0067-9.5253-7.0067-9.5294z" fill="#8c2a38"/></svg>