<svg fill="none" height="141" viewBox="0 0 92 141" width="92" xmlns="http://www.w3.org/2000/svg"><path d="m-.00000473 4.67274c0-2.0308 1.62243473-3.67274 3.62287473-3.67274h84.75593c2.0001 0 3.6212 1.64194 3.6212 3.67274v132.65326c0 2.028-1.6211 3.674-3.6212 3.674h-84.75593c-2.00044 0-3.62287473-1.646-3.62287473-3.674z" fill="#fff"/><path d="m82.2881 113.323.7693.768c2.8578 2.529 4.7266 4.232 4.7266 6.324 0 1.7-1.3203 3.02-3.0208 3.02-.9386 0-1.8724-.998-2.4751-1.714-.604.716-1.5387 1.714-2.476 1.714-1.7 0-3.02-1.32-3.02-3.02 0-2.092 1.8667-3.795 4.7253-6.324z" fill="#73242f"/><path d="m82.3001 121.729c.6036.714 1.5297 1.7 2.4631 1.7 1.7005 0 3.0208-1.32 3.0208-3.02 0-2.092-1.8688-3.794-4.7266-6.324l-.7573-.754z" fill="#8c2a38"/><path d="m9.90145 28.3093-.76934-.768c-2.85866-2.528-4.72666-4.232-4.72666-6.3226 0-1.7 1.31999-3.0214 3.01999-3.0214.93867 0 1.87334 1 2.47601 1.7147.60395-.7147 1.53865-1.7147 2.47465-1.7147 1.7013 0 3.0213 1.3214 3.0213 3.0214 0 2.0906-1.8679 3.7946-4.7253 6.3226z" fill="#73242f"/><path d="m9.88945 19.904c-.604-.7133-1.52935-1.7013-2.46401-1.7013-1.7 0-3.01999 1.3213-3.01999 3.0213 0 2.0907 1.86799 3.7973 4.72666 6.3227l.75734.7586z" fill="#8c2a38"/><path d="m78.1618 131.898c0-.997.1583-1.857.4748-2.58.3166-.718.7607-1.28 1.3324-1.687l-1.8426-1.445.9284-.858 2.1757 1.729c.3402-.085.6992-.127 1.0772-.127.8126 0 1.5331.198 2.1615.595.6284.402 1.1174.971 1.467 1.708.3449.742.5221 1.599.5316 2.573v.744c0 .992-.1725 1.868-.5174 2.629s-.8315 1.342-1.4599 1.743c-.6331.407-1.356.61-2.1686.61-.8316 0-1.5615-.201-2.1899-.603-.6331-.401-1.1197-.98-1.4599-1.736-.3402-.751-.5103-1.63-.5103-2.636zm1.3607.666c0 1.214.2433 2.15.73 2.806.4819.662 1.1717.993 2.0694.993.8551 0 1.5308-.329 2.0268-.986.4914-.652.7442-1.559.7584-2.721v-.758c0-1.181-.2457-2.112-.7371-2.793-.4961-.68-1.1835-1.02-2.0623-1.02s-1.5591.319-2.0411.957c-.4819.642-.7299 1.561-.7441 2.756z" fill="#73242f"/><path d="m13.9105 9.50365c0 .99695-.1583 1.85675-.4748 2.57965-.3166.7182-.7607 1.2804-1.3324 1.6867l1.8426 1.4458-.9283.8575-2.1757-1.7292c-.3402.085-.6993.1275-1.07727.1275-.81264 0-1.53315-.1984-2.16153-.5953-.62838-.4016-1.11738-.9709-1.467-1.7079-.3449-.7418-.52208-1.5993-.53153-2.57262v-.74413c0-.99218.17245-1.8686.51735-2.62927s.83154-1.3418 1.45992-1.7434c.6331-.40632 1.35598-.60948 2.16862-.60948.83154 0 1.56154.2008 2.18984.6024.6331.40159 1.1198.98036 1.4599 1.73631.3402.75122.5103 1.63.5103 2.63635zm-1.3607-.66617c0-1.21424-.2433-2.14972-.7299-2.80645-.482-.66145-1.1718-.99218-2.06944-.99218-.85517 0-1.53079.32837-2.02688.98509-.49136.65201-.74413 1.55914-.75831 2.7214v.75831c0 1.18115.24568 2.11195.73705 2.79225.49609.6804 1.18352 1.0205 2.06231 1.0205.87877 0 1.55917-.3189 2.04107-.9567.4819-.6425.7299-1.5615.7441-2.75683z" fill="#73242f"/><path d="m45.2641 62.716h-5.416v-1.8334h5.416z" fill="#35346f"/><path d="m45.7361 60.8826h-5.4187v-1.8333h5.4187z" fill="#a22735"/><path d="m46.5361 59.0493h-5.4173v-1.8333h5.4173z" fill="#35346f"/><path d="m47.0068 57.216h-5.4174v-1.836h5.4174z" fill="#a22735"/><path d="m47.8068 55.38h-5.416v-1.8333h5.416z" fill="#35346f"/><path d="m48.2788 53.5467h-5.4174v-1.8334h5.4174z" fill="#a22735"/><path d="m49.0788 51.7133h-5.416v-1.8333h5.416z" fill="#35346f"/><path d="m45.7361 62.7946 3.9627-10.2706 10.2786-.724-5.8853 11.7653z" fill="#a22735"/><path d="m32.9468 62.136-1.4387-11.36 10.472.4786.1693 4.1854-3.6026 7.4507z" fill="#a22735"/><g fill="#181419"><path d="m44.8801 50.5627-4.648 12.0253-3.4133-.452s4.7773-6.2867 4.0306-8.6747c-.7466-2.388-6.2693-.9373-6.2693-.9373l-2.368-4.2347z"/><path d="m44.1334 62.8906 4.5427-12.2 11.6013-.8706-1.532 3.472s-6.316-1.196-8.1506.2986c-1.8347 1.492-3.5814 9.1254-3.5814 9.1254z"/><path d="m55.3254 67.2027c-9.4693.412-23.1133-.8227-23.1133-.8227v-4.244s13.644 1.2333 23.1133.8226"/></g><path d="m32.2121 62.136s13.644 1.2333 23.1133.8226" stroke="#9c6c3e" stroke-miterlimit="10" stroke-width="7.6771"/><path d="m32.2121 66.38s13.644 1.2346 23.1133.8226" stroke="#9c6c3e" stroke-miterlimit="10" stroke-width="7.6771"/><path d="m24.7041 53.612 6.524-5.9893s5.148 2.6586 4.528 7.9533c-.6173 5.2906-3.472 7.14-3.472 7.14z" fill="#d1d7ec"/><path d="m24.7041 53.6173 5.8027-5.328s4.5773 2.3667 4.0266 7.072c-.5506 4.7067-3.0893 6.352-3.0893 6.352z" fill="#181419"/><path d="m24.7041 53.6227 4.8427-4.4454s3.8213 1.9733 3.3613 5.904c-.4586 3.9267-2.5787 5.2987-2.5787 5.2987z" fill="#35346f"/><path d="m46.8068 78.6853h5.4173v1.8334h-5.4173z" fill="#35346f"/><path d="m46.3361 80.5186h5.416v1.8334h-5.416z" fill="#a22735"/><path d="m45.5348 82.352h5.4173v1.8333h-5.4173z" fill="#35346f"/><path d="m45.0641 84.1853h5.416v1.836h-5.416z" fill="#a22735"/><path d="m44.2628 86.0213h5.4173v1.8333h-5.4173z" fill="#35346f"/><path d="m43.7921 87.8546h5.4173v1.8334h-5.4173z" fill="#a22735"/><path d="m42.9921 89.688h5.4173v1.8333h-5.4173z" fill="#35346f"/><path d="m46.3361 78.6067-3.964 10.2706-10.28.724 5.8867-11.7653z" fill="#a22735"/><path d="m59.1254 79.2653 1.4387 11.3573-10.4733-.4773-.1707-4.184 3.6053-7.4507z" fill="#a22735"/><path d="m47.1921 90.8387 4.648-12.0267 3.412.4533s-4.7773 6.284-4.0307 8.6747c.748 2.388 6.2694.9373 6.2694.9373l2.368 4.2347z" fill="#181419"/><path d="m47.9388 78.5106-4.5427 12.2001-11.6013.8706 1.532-3.472s6.3146 1.196 8.1493-.3c1.8333-1.492 3.5827-9.124 3.5827-9.124z" fill="#181419"/><path d="m36.7454 74.1973c9.4707-.4106 23.1134.8214 23.1134.8214v4.2466s-13.6427-1.2347-23.1134-.8227" fill="#181419"/><path d="m59.8588 79.2653s-13.6427-1.2347-23.1134-.8227" stroke="#9c6c3e" stroke-miterlimit="10" stroke-width="7.6771"/><path d="m59.8588 75.0187s-13.6427-1.232-23.1134-.8214" stroke="#9c6c3e" stroke-miterlimit="10" stroke-width="7.6771"/><path d="m12.3281 96.4373c1.872.6013 3.8533.9267 5.9027.9267 11.5106 0 20.8413-10.2054 20.8413-22.796 0-12.5947-9.3307-22.8-20.8413-22.8-2.0494 0-4.0307.3253-5.9027.9293z" fill="#dee4f5"/><path d="m12.3281 95.44c1.8667.6333 3.848.9747 5.9027.9747 11.0293 0 19.9693-9.7814 19.9693-21.8467 0-12.068-8.94-21.8493-19.9693-21.8493-2.0547 0-4.036.3413-5.9027.972z" fill="#d1d7ec"/><path d="m12.3281 90.6946c1.8253.8027 3.8147 1.2481 5.9027 1.2481 8.7733 0 15.884-7.7787 15.884-17.3747s-7.1107-17.3773-15.884-17.3773c-2.088 0-4.0774.4453-5.9027 1.244z" fill="#9c6c3e"/><path d="m12.3281 88.8613c1.8013.8907 3.7973 1.3907 5.9027 1.3907 7.92 0 14.34-7.0227 14.34-15.684 0-8.664-6.42-15.688-14.34-15.688-2.1054 0-4.1014.5-5.9027 1.3933z" fill="#ae8f42"/><path d="m12.3281 83.5386c1.6613 1.3107 3.6987 2.084 5.9027 2.084 5.5813 0 10.108-4.9506 10.108-11.0546 0-6.1067-4.5267-11.0574-10.108-11.0574-2.204 0-4.2414.7734-5.9027 2.0854z" fill="#dee4f5"/><path d="m12.3281 82.8333c1.628 1.3933 3.676 2.2267 5.9027 2.2267 5.2973 0 9.592-4.6987 9.592-10.492 0-5.7974-4.2947-10.4947-9.592-10.4947-2.2267 0-4.2747.8333-5.9027 2.2267z" fill="#a22735"/><path d="m12.3281 76.164c.3333.2186.6613.448.9827.6853.328.2387.648.4893.9586.7493h.0014c.312.2587.6146.5267.9093.8.0027.0027.0053.0054.008.008.2907.2707.5733.552.8507.8387.0066.0067.012.012.0186.02.036-.2987.0814-.596.1307-.8907.008-.052.0187-.1013.028-.1533.0427-.2347.088-.4693.136-.7027.0027-.0053.004-.0133.0053-.0213.0174-.0827.04-.1693.0587-.252.0427-.1827.084-.3627.1293-.5427.0094-.0333.0187-.0693.028-.104.0214-.0853.0467-.1693.0694-.252.0493-.172.096-.344.148-.5106.0093-.0334.02-.068.0306-.1014.0267-.0866.056-.1693.084-.2533.056-.172.1107-.3427.172-.512.0387-.112.08-.22.1214-.3293.0613-.164.1226-.328.188-.4894.0453-.112.092-.2213.1413-.3333.0653-.156.132-.312.2013-.4653.0507-.112.1054-.2214.1587-.3334.0707-.152.1427-.3026.2173-.4506.0574-.1094.1147-.2214.1747-.3307.0667-.1253.1333-.2507.2013-.376.0134-.0253.028-.0493.0427-.0747.0587-.104.1173-.208.1773-.3106.064-.1094.128-.216.1934-.3254.036-.06.0733-.12.1106-.1786.0494-.0814.1-.16.1507-.2374.0747-.1173.1493-.232.224-.3466.0547-.0814.1107-.1587.1653-.24.032-.044.0614-.0907.0934-.1347.0893-.128.18-.256.2733-.3827.088-.12.1787-.24.2707-.36.0853-.112.172-.224.26-.3333.0413-.052.0853-.104.1266-.156.0747-.0933.152-.1853.228-.2733.0654-.0787.1307-.156.1974-.2347.0653-.076.1306-.148.1973-.2213.1067-.12.2147-.2374.324-.3547.0187-.02.0373-.044.0573-.0613.0867-.0947.1734-.1827.26-.2747.1347-.1373.2707-.2733.4094-.4053.072-.0707.1426-.1414.2173-.208.0547-.0547.112-.1054.168-.1574.124-.1146.2493-.2293.3773-.3413.0307-.028.0627-.0547.0934-.0827.092-.0813.184-.156.276-.2346.1453-.12.288-.2387.4333-.356.108-.0867.2187-.1694.328-.2534.104-.08.2067-.1586.3107-.2373.128-.0933.2573-.184.388-.276.1053-.0747.2106-.148.3173-.2213.1347-.088.268-.176.404-.2627.108-.068.2147-.1373.3227-.2053.1386-.0867.2786-.1667.42-.2507.1093-.0627.2173-.1267.328-.1893.144-.0814.2893-.156.436-.2347.1093-.0573.2186-.1173.328-.172.152-.0787.3053-.1507.46-.224.108-.052.2146-.104.3226-.1533.1627-.076.328-.144.492-.2134.104-.044.204-.0893.3067-.1333.1827-.0733.3693-.1427.5547-.2107.088-.032.172-.068.2613-.0986.2387-.084.4787-.164.7213-.24.036-.0134.0734-.0267.1094-.036.2813-.0894.5653-.1694.8506-.2427.0427-.0133.0867-.0213.128-.0307.2427-.0626.4854-.1226.7307-.1746.0893-.0187.18-.0347.2693-.052.2014-.0427.4014-.0814.6027-.1174.1053-.016.2133-.032.32-.0466.504-.0787 1.0093-.1414 1.5213-.18-3.792-5.6694-9.916-9.352-16.8293-9.352-2.0427 0-4.0173.3226-5.884.9226z" fill="#9c6c3e"/><path d="m12.3281 74.5907c.2133.696.5067 1.2266.908 1.524.7467.8066 1.7627 1.424 2.5387 2.2346 1.0986-8.8626 8.628-17.3253 17.552-18.008-4.9974-7.472-20.4107-13.224-20.9987-1.1253z" fill="#ae8f42"/><path d="m50.5575 116.432s6.9026-15.257 5.8346-20.1747c-1.0693-4.916-10.896 8.9977-10.896 8.9977z" fill="#181419"/><path d="m44.6241 130.404s10.9693-2.628 16.0027-17.813c5.032-15.1844 2.7293-21.0097 2.7293-21.0097l-7.6467 5.3453s.7027 7.1774-4.544 19.5894c-5.2466 12.411-6.5413 11.279-6.5413 11.279z" fill="#a22735"/><path d="m38.3388 129.073s10.9693-2.63 16.0013-17.813c5.0333-15.1814 2.6187-17.9267 2.6187-17.9267l-2.2174.492s2.7974 4.9374-2.448 17.3497c-5.2453 12.41-13.9546 15.289-13.9546 15.289z" fill="#ae8f42"/><path d="m12.3281 75.276v14.8773l7.6573 7.092 7.8-4.4533z" fill="#35346f"/><path d="m29.4601 92.4373s-16.724-19.252-17.132-19.468v2.9813l14.0067 16.8414z" fill="#181419"/><path d="m55.1668 98.2133 6.824-5.2053s-19.7894-7.2027-42.9067 1.664l5.5333 6.825z" fill="#9c6c3e"/><path d="m53.8028 99.284 6.824-5.2027s-18.4254-6.816-41.5427 2.052l5.5333 6.8257z" fill="#ae8f42"/><path d="m48.9668 105.191c0-.139 1.2533-3.775 4.836-5.907 0 0-18.0227-3.248-29.1854 2.213 0 0 1.7174 11.068 7.092 8.776 5.3734-2.289 17.2574-5.082 17.2574-5.082z" fill="#d1d7ec"/><path d="m50.9694 119.32s.452-4.036 0-4.635c-.4546-.6-.54-1.068-.3693-2.049.1707-.983.1707-5.724-.5987-6.748-.768-1.027-4.0146-7.2187-6.2346-7.26-2.22-.0454-11.5734 3.799-11.7014 8.796 0 0-.684-.896-1.5813-.385-.8973.513-1.024 4.229-1.024 4.229s7.6507 16.701 15.164 15.975c0 0 6.3707-4.568 6.3453-7.923z" fill="#dee4f5"/><path d="m44.6241 130.404s-7.9453 2.129-14.136-4.464c-6.188-6.596-12.9853-22.424-18.16-24.148v-6.5374s12.5813 6.4364 15.624 16.3784c3.044 9.943 16.672 18.771 16.672 18.771z" fill="#181419"/><path d="m44.6241 126.912s-2.036-8.956-10.7613-9.261c-2.4347 2.333 5.576 9.261 5.576 9.261s1.6533 1.312 5.1853.883z" fill="#c57135"/><path d="m44.6241 127.795s-8.44-2.17-15.4373-19.388c-11.8854-19.2043-16.8587-18.2537-16.8587-18.2537v5.1013s8.624 6.9424 13.9 16.4804c5.276 9.536 8.7907 18.669 18.396 18.669z" fill="#a22735"/><path d="m44.6241 130.404s10.9693-2.628 16.0027-17.813c5.032-15.1844 2.7293-21.0097 2.7293-21.0097l-2.016 1.2107s2.484 7.301-2.76 19.713c-5.2467 12.414-13.956 15.29-13.956 15.29z" fill="#ae8f42"/><path d="m44.6241 126.912s1.348-5.767 6.5547-7.672c0 0 1.6266 9.391-6.5547 8.555z" fill="#af6734"/><path d="m67.3654 87.7893-6.5226 5.9894s-5.148-2.6614-4.5294-7.9534c.62-5.292 3.4747-7.14 3.4747-7.14z" fill="#d1d7ec"/><path d="m67.3654 87.784-5.8 5.328s-4.5786-2.3667-4.0279-7.0733c.5493-4.708 3.0893-6.3507 3.0893-6.3507z" fill="#181419"/><path d="m67.3654 87.7786-4.84 4.4454s-3.8226-1.976-3.3626-5.904c.46-3.9267 2.5787-5.3014 2.5787-5.3014z" fill="#35346f"/><path d="m51.0094 115.331s-.2346.126-.612.26c-.376.144-.8986.273-1.4373.336-.536.101-1.096.073-1.4827-.08-.3893-.15-.6173-.31-.6173-.31l.0147-.049s.2866-.055.6693-.043c.188.027.416-.018.6507.008.2333.039.4866.048.744.066 1.0266.037 2.052-.235 2.052-.235z" fill="#c57135"/><path d="m38.3468 115.496c0-.001 1.3386.257 2.6746.209.3334-.02.664-.034.9707-.074.308-.027.6027.022.8493 0 .5 0 .8614.066.8614.066l.012.058s-.3094.174-.8134.334c-.252.086-.5546.12-.88.148-.3266.022-.6746-.033-1.02-.065-.688-.068-1.3653-.2-1.86-.349-.4946-.14-.8106-.271-.8106-.272z" fill="#c57135"/><path d="m42.9254 113.997s-.2613-.06-.6493-.106c-.388-.04-.9013-.108-1.4147-.08-.2573-.006-.5146-.006-.7546.033-.24.029-.4707.019-.66.071-.3867.058-.6574.082-.6574.082s.2374-.114.6147-.264c.376-.14.9133-.246 1.4547-.252.2706-.009.5386.036.7906.062.2507.034.4774.112.6694.168.3826.137.6066.286.6066.286z" fill="#333558"/><path d="m47.3228 113.997s.164-.14.4613-.272c.1507-.056.328-.129.528-.165.2013-.025.416-.071.6347-.059.4346.004.864.111 1.1546.246.292.142.472.25.472.25s-.216-.029-.5186-.093c-.1467-.051-.332-.047-.5187-.076-.188-.037-.3907-.043-.592-.035-.404-.028-.8053.042-1.1107.088-.3053.051-.5106.116-.5106.116z" fill="#333558"/><path d="m44.9268 103.94s-.8934-.555-2.16 0z" fill="#dee4f5"/><path d="m44.9268 103.94s-.14-.039-.3427-.068c-.2027-.021-.4667-.067-.732-.044-.2653-.013-.532.036-.7347.067-.2026.033-.3506.045-.3506.045s.116-.08.3093-.184c.1907-.099.4787-.177.772-.183.1467-.006.292.02.428.043.1347.023.252.081.352.12.1973.1.2987.204.2987.204z" fill="#333558"/><path d="m46.4161 105.484s-1.284.139-2.568.128c-1.2853.011-2.5693-.128-2.5693-.128s1.284-.137 2.5693-.127c1.284-.01 2.568.127 2.568.127z" fill="#333558"/><path d="m45.8148 108.396s-.1093-.167-.34-.312c-.1093-.081-.2534-.143-.4134-.201-.1466-.082-.3386-.09-.5106-.142-.176-.046-.3627-.052-.5334-.08-.1706-.03-.3359-.029-.4759-.038-.2827-.023-.4761-.052-.4761-.052s.184-.046.472-.094c.2854-.061.676-.04 1.0654.014.1866.066.3853.089.5493.19.172.075.3093.187.416.294.108.104.168.218.2027.296.036.078.044.125.044.125z" fill="#333558"/><path d="m79.7441 44.964c-1.8733-.604-3.8533-.928-5.904-.928-11.5107 0-20.8413 10.2066-20.8413 22.7973 0 12.5933 9.3306 22.8 20.8413 22.8 2.0507 0 4.0307-.3267 5.904-.9307z" fill="#dee4f5"/><path d="m79.7441 45.9587c-1.8667-.6307-3.848-.972-5.904-.972-11.0307 0-19.9707 9.7813-19.9707 21.8466 0 12.0654 8.94 21.8494 19.9707 21.8494 2.056 0 4.0373-.3414 5.904-.9747z" fill="#d1d7ec"/><path d="m79.7441 50.7027c-1.8267-.7987-3.8173-1.2441-5.904-1.2441-8.772 0-15.8827 7.7787-15.8827 17.3747s7.1107 17.3773 15.8827 17.3773c2.0867 0 4.0773-.4453 5.904-1.2466z" fill="#9c6c3e"/><path d="m79.7441 52.5387c-1.8013-.8907-3.7987-1.3934-5.904-1.3934-7.92 0-14.34 7.0267-14.34 15.688 0 8.664 6.42 15.688 14.34 15.688 2.1053 0 4.1027-.5 5.904-1.3933z" fill="#ae8f42"/><path d="m79.7441 57.8613c-1.6613-1.3093-3.7-2.0826-5.904-2.0826-5.5827 0-10.1067 4.9506-10.1067 11.0546 0 6.1067 4.524 11.0574 10.1067 11.0574 2.204 0 4.2427-.7734 5.904-2.0854z" fill="#dee4f5"/><path d="m79.7441 58.568c-1.628-1.396-3.6773-2.2267-5.904-2.2267-5.2987 0-9.592 4.6973-9.592 10.492 0 5.7973 4.2933 10.4947 9.592 10.4947 2.2267 0 4.276-.8334 5.904-2.2267z" fill="#a22735"/><path d="m79.7441 65.2373c-.3347-.2186-.6627-.448-.984-.6853-.3267-.24-.6467-.4893-.9587-.7493h-.0013c-.3107-.2587-.6133-.5267-.9093-.8-.0027-.0027-.004-.0054-.0067-.0081-.292-.2706-.576-.5519-.852-.8386-.0053-.008-.012-.0133-.0187-.02-.0373.2987-.08.596-.1306.8906-.008.052-.02.1014-.028.1534-.0427.2346-.0867.468-.136.7026-.0014.0054-.0027.0134-.0054.0187-.0186.0854-.0386.1694-.0586.2547-.0414.1827-.0827.3626-.128.5413-.0107.0347-.0187.0707-.0294.1054-.0213.0853-.0466.1693-.0706.252-.0467.172-.0947.3413-.1454.5106-.012.0333-.0226.068-.032.1014-.0266.0826-.0546.1693-.0826.252-.056.172-.112.3439-.172.5133-.0387.112-.0814.2186-.124.328-.06.164-.1214.328-.1854.4893-.0466.112-.0946.2227-.1413.332-.0667.1587-.132.312-.2027.468-.0506.112-.1053.2213-.1573.3333-.072.1507-.144.3027-.2173.4507-.0574.1093-.116.2213-.1747.3307-.0667.1253-.1347.2507-.2027.3747-.0133.0266-.0266.0493-.0413.0759-.0587.104-.12.2081-.18.3094-.0627.1093-.1267.216-.1907.324-.0373.0613-.0746.1213-.112.1813-.0493.0813-.0986.1587-.1493.2373-.0747.1174-.1507.232-.2253.3467-.0534.08-.1094.1587-.164.2387-.032.0453-.0614.092-.0947.136-.0893.128-.18.2547-.272.3827-.0893.12-.18.2399-.2707.3599-.0853.112-.172.224-.26.3334-.0426.052-.0853.104-.128.156-.076.0907-.1506.1853-.228.2733-.0653.0787-.1306.156-.1973.2347-.064.072-.1307.148-.196.2213-.1067.12-.216.236-.324.3534-.02.0213-.0387.0426-.0587.0626-.0853.092-.172.1827-.26.2734-.1346.1386-.2693.2733-.4093.4066-.072.0707-.1427.14-.216.208-.056.052-.1133.104-.1693.156-.124.1147-.2494.2294-.3774.3414-.032.0266-.0613.0546-.0933.084-.0907.0773-.184.156-.2773.2346-.1427.1187-.2854.2387-.4334.356-.1066.0867-.216.1693-.3253.2533-.104.08-.2067.1587-.312.2334-.128.0973-.2587.188-.388.2787-.104.0733-.2107.1493-.3187.2213-.132.0893-.268.1746-.4026.264-.1067.0666-.2134.1373-.3227.2053-.1387.0853-.2787.1667-.42.2467-.1093.0653-.216.1307-.3267.1933-.144.0814-.2906.156-.4373.2347-.108.0573-.2173.1173-.328.172-.152.0773-.3053.1507-.4587.224-.108.052-.2146.104-.3226.1533-.164.076-.328.1427-.4934.2134-.1026.044-.204.0879-.3066.1306-.1827.0747-.368.1427-.5547.2133-.0867.0307-.1733.068-.26.0987-.2387.084-.4787.164-.7213.24-.036.0107-.0734.0254-.1094.036-.2826.0867-.5653.1693-.852.2427-.0426.0133-.0853.02-.128.0306-.2413.0627-.4853.1227-.7306.1747-.0894.0187-.1787.0334-.2694.052-.2.0414-.4.0814-.6026.1147-.1054.0187-.2134.0333-.3187.0493-.504.0787-1.0107.1413-1.524.18 3.792 5.6693 9.9173 9.352 16.832 9.352 2.0427 0 4.016-.324 5.884-.9253z" fill="#9c6c3e"/><path d="m79.7441 66.8067c-.2147-.692-.5067-1.224-.908-1.52-.7493-.808-1.764-1.4254-2.5387-2.2347-1.1 8.8627-8.6293 17.3253-17.552 18.008 4.996 7.4706 20.4094 13.224 20.9987 1.1253z" fill="#ae8f42"/><path d="m79.7441 66.1253v-14.8773l-7.66-7.092-7.7973 4.4507z" fill="#35346f"/><path d="m62.6121 48.9613s16.724 19.2547 17.132 19.468v-2.9786l-14.008-16.844z" fill="#181419"/><path d="m41.5148 24.9693s-6.904 15.2574-5.8347 20.1734c1.068 4.9173 10.896-8.9974 10.896-8.9974z" fill="#181419"/><path d="m47.4468 10.9973s-10.9707 2.628-16.0027 17.812c-5.032 15.1853-2.7293 21.0107-2.7293 21.0107l7.6466-5.3467s-.7013-7.176 4.5454-19.588c5.2453-12.412 6.54-11.2786 6.54-11.2786z" fill="#a22735"/><path d="m53.7321 12.328s-10.9693 2.628-16.0027 17.812c-5.0333 15.1826-2.616 17.928-2.616 17.928l2.2174-.492s-2.7987-4.9374 2.4466-17.3494c5.2467-12.4146 13.9547-15.2893 13.9547-15.2893z" fill="#ae8f42"/><path d="m36.9055 43.188-6.8254 5.2027s19.7894 7.2026 42.9067-1.6614l-5.532-6.8253z" fill="#9c6c3e"/><path d="m38.2681 42.1173-6.824 5.2027s18.4254 6.816 41.5427-2.052l-5.532-6.8253z" fill="#ae8f42"/><path d="m43.1041 36.2106c0 .136-1.252 3.7734-4.836 5.9067 0 0 18.024 3.2467 29.1867-2.216 0 0-1.7187-11.0653-7.0934-8.7733-5.3733 2.288-17.2573 5.0826-17.2573 5.0826z" fill="#d1d7ec"/><path d="m41.1028 22.0813s-.4534 4.036 0 4.6347c.4533.596.5386 1.068.3693 2.0493-.1707.9827-.1707 5.724.5973 6.748.768 1.0253 4.0134 7.2187 6.236 7.26 2.22.044 11.5734-3.8 11.7014-8.7973 0 0 .684.896 1.5786.3853.8987-.512 1.0267-4.228 1.0267-4.228s-7.652-16.7013-15.1653-15.9747c0 0-6.3707 4.568-6.344 7.9227z" fill="#dee4f5"/><path d="m47.4468 10.9973s7.9466-2.13066 14.136 4.464c6.188 6.596 12.9866 22.4213 18.1613 24.148v6.5333s-12.5813-6.432-15.6253-16.3746c-3.044-9.9454-16.672-18.7707-16.672-18.7707z" fill="#181419"/><path d="m47.4468 14.4893s2.0346 8.956 10.76 9.26c2.436-2.3333-5.5747-9.26-5.5747-9.26s-1.6533-1.312-5.1853-.8826z" fill="#c57135"/><path d="m47.4468 13.6067s8.44 2.1666 15.4386 19.3879c11.8854 19.2027 16.8587 18.2534 16.8587 18.2534v-5.1054s-8.624-6.94-13.9-16.476c-5.276-9.5386-8.7907-18.6693-18.3973-18.6693z" fill="#a22735"/><path d="m47.4468 10.9973s-10.9707 2.628-16.0027 17.812c-5.032 15.1853-2.7293 21.0107-2.7293 21.0107l2.0173-1.2133s-2.4853-7.3001 2.76-19.7107c5.2453-12.4147 13.9547-15.2893 13.9547-15.2893z" fill="#ae8f42"/><path d="m47.4468 14.4893s-1.3494 5.7654-6.5547 7.672c0 0-1.6267-9.3906 6.5547-8.5546z" fill="#af6734"/><path d="m41.0628 26.0707s.2346-.1267.612-.2614c.376-.1426.8986-.2733 1.436-.336.536-.1 1.0973-.072 1.484.0814.3893.148.6173.308.6173.308l-.0147.0506s-.2866.0547-.6693.0427c-.1893-.0267-.4173.0173-.6507-.008-.2346-.0387-.488-.048-.744-.0653-1.0266-.0374-2.052.2346-2.052.2346z" fill="#c57135"/><path d="m53.7228 25.9053c0 .0014-1.3374-.2586-2.6734-.2106-.3333.02-.664.0346-.972.0746-.3066.0254-.6013-.0226-.8493-.0013-.5 0-.86-.068-.86-.068l-.012-.0573s.3093-.1734.8133-.3347c.252-.084.5547-.1173.8814-.1453.3266-.0227.6733.032 1.0173.0666.6893.068 1.3667.2 1.86.3494.496.14.812.2706.812.272z" fill="#c57135"/><path d="m49.1441 27.4013s.2627.0613.6507.108c.388.04.9013.1067 1.416.0787.2573.0066.5133.004.7533-.0334.24-.028.472-.02.6613-.0693.3854-.0613.6574-.084.6574-.084s-.2374.116-.6147.264c-.3773.14-.9147.248-1.456.2507-.2707.0106-.54-.0334-.7907-.0587-.2506-.0347-.4773-.1133-.6706-.168-.3814-.1387-.6067-.288-.6067-.288z" fill="#333558"/><path d="m44.7494 27.4013s-.1653.14-.4626.2733c-.1494.0547-.328.1294-.528.164-.2014.0254-.416.072-.6334.06-.4346-.004-.8653-.1106-1.156-.2466-.2906-.1427-.4706-.2507-.4706-.2507s.216.0293.5186.0933c.1467.0507.3307.048.5187.0774.1867.0373.3893.0413.592.0346.404.0267.8053-.0426 1.1107-.088.3053-.052.5106-.1173.5106-.1173z" fill="#333558"/><path d="m47.1441 37.4613s.8934.5547 2.1614 0z" fill="#dee4f5"/><path d="m47.1441 37.4613s.14.0387.3427.0667c.204.0226.468.068.7333.0453.264.012.532-.0373.7333-.0667.204-.0346.3521-.0453.3521-.0453s-.1161.08-.3094.1827c-.1907.1-.4786.1786-.772.184-.1466.0066-.292-.0214-.428-.0427-.1347-.0227-.252-.0827-.352-.12-.1973-.1-.3-.204-.3-.204z" fill="#333558"/><path d="m45.6548 35.916s1.2853-.1373 2.5693-.1267c1.284-.0106 2.5693.1267 2.5693.1267s-1.2853.1386-2.5693.128c-1.284.0106-2.5693-.128-2.5693-.128z" fill="#333558"/><path d="m46.2561 33.0053s.1093.1667.34.3107c.1107.0826.2547.144.4147.2026.1466.0814.3386.0907.5106.1414.1747.0453.3627.052.5334.08.1706.0306.3346.0293.476.0386.2813.0227.476.052.476.052s-.1854.0454-.472.092c-.2854.0627-.676.0414-1.0654-.012-.188-.0666-.3866-.0893-.5493-.1906-.1733-.0747-.3093-.188-.4173-.2947-.108-.1027-.1667-.2173-.2014-.2947-.0373-.0786-.0453-.1253-.0453-.1253z" fill="#333558"/></svg>