<svg fill="none" height="139" viewBox="0 0 93 139" width="93" xmlns="http://www.w3.org/2000/svg"><path d="m.117305 3.97332c0-2.004 1.622435-3.629326 3.622875-3.629326h84.75602c1.9989 0 3.6211 1.625326 3.6211 3.629326v130.99068c0 2.003-1.6222 3.627-3.6211 3.627h-84.75602c-2.00044 0-3.622875-1.624-3.622875-3.627z" fill="#fff"/><path d="m25.0654 99.2427 1.4387 1.4343c5.3427 4.724 8.8333 7.908 8.8333 11.815 0 3.18-2.4693 5.648-5.6466 5.648-1.7533 0-3.4974-1.869-4.6254-3.203-1.1306 1.334-2.8746 3.203-4.6253 3.203-3.18 0-5.648-2.468-5.648-5.648 0-3.907 3.4907-7.091 8.8333-11.815z" fill="#73242f"/><path d="m25.0854 114.953c1.1307 1.331 2.8641 3.175 4.6054 3.175 3.1773 0 5.6466-2.467 5.6466-5.647 0-3.908-3.4906-7.09-8.8333-11.817l-1.4187-1.412z" fill="#8c2a38"/><path d="m67.0068 99.2427 1.4386 1.4343c5.344 4.724 8.8347 7.908 8.8347 11.815 0 3.18-2.4693 5.648-5.6467 5.648-1.7546 0-3.4973-1.869-4.6266-3.203-1.1294 1.334-2.8734 3.203-4.6254 3.203-3.18 0-5.648-2.468-5.648-5.648 0-3.907 3.492-7.091 8.8334-11.815z" fill="#73242f"/><path d="m67.0281 114.953c1.1307 1.331 2.8627 3.175 4.6053 3.175 3.1774 0 5.6467-2.467 5.6467-5.647 0-3.908-3.4907-7.09-8.8347-11.817l-1.4173-1.412z" fill="#8c2a38"/><path d="m25.0654 73.096 1.4387 1.4346c5.3427 4.724 8.8333 7.9094 8.8333 11.8187 0 3.1774-2.4693 5.6453-5.6466 5.6453-1.7533 0-3.4974-1.8666-4.6254-3.2-1.1306 1.3334-2.8746 3.2-4.6253 3.2-3.18 0-5.648-2.4679-5.648-5.6453 0-3.9093 3.4907-7.0947 8.8333-11.8187z" fill="#73242f"/><path d="m25.0854 88.8067c1.1307 1.3333 2.8641 3.1773 4.6054 3.1773 3.1773 0 5.6466-2.468 5.6466-5.648 0-3.9067-3.4906-7.0907-8.8333-11.8147l-1.4187-1.4146z" fill="#8c2a38"/><path d="m67.0068 73.096 1.4386 1.4346c5.344 4.724 8.8347 7.9094 8.8347 11.8187 0 3.1774-2.4693 5.6453-5.6467 5.6453-1.7546 0-3.4973-1.8666-4.6266-3.2-1.1294 1.3334-2.8734 3.2-4.6254 3.2-3.18 0-5.648-2.4679-5.648-5.6453 0-3.9093 3.492-7.0947 8.8334-11.8187z" fill="#73242f"/><path d="m67.0281 88.8067c1.1307 1.3333 2.8627 3.1773 4.6053 3.1773 3.1774 0 5.6467-2.468 5.6467-5.648 0-3.9067-3.4907-7.0907-8.8347-11.8147l-1.4173-1.4146z" fill="#8c2a38"/><path d="m67.0068 46.9506 1.4386 1.4347c5.344 4.724 8.8347 7.9093 8.8347 11.8173 0 3.1774-2.4693 5.6467-5.6467 5.6467-1.7546 0-3.4973-1.868-4.6266-3.2013-1.1294 1.3333-2.8734 3.2013-4.6254 3.2013-3.18 0-5.648-2.4693-5.648-5.6467 0-3.908 3.492-7.0933 8.8334-11.8173z" fill="#73242f"/><path d="m67.0281 62.6613c1.1307 1.3333 2.8627 3.1774 4.6053 3.1774 3.1774 0 5.6467-2.4694 5.6467-5.6454 0-3.9093-3.4907-7.0946-8.8347-11.8186l-1.4173-1.4134z" fill="#8c2a38"/><path d="m25.0654 46.9506 1.4387 1.4347c5.3427 4.724 8.8333 7.9093 8.8333 11.8173 0 3.1774-2.4693 5.6467-5.6466 5.6467-1.7533 0-3.4974-1.868-4.6254-3.2013-1.1306 1.3333-2.8746 3.2013-4.6253 3.2013-3.18 0-5.648-2.4693-5.648-5.6467 0-3.908 3.4907-7.0933 8.8333-11.8173z" fill="#73242f"/><path d="m25.0854 62.6613c1.1307 1.3333 2.8641 3.1774 4.6054 3.1774 3.1773 0 5.6466-2.4694 5.6466-5.6454 0-3.9093-3.4906-7.0946-8.8333-11.8186l-1.4187-1.4134z" fill="#8c2a38"/><path d="m67.0068 20.7946 1.4386 1.4347c5.344 4.724 8.8347 7.9094 8.8347 11.8174 0 3.18-2.4693 5.6466-5.6467 5.6466-1.7546 0-3.4973-1.868-4.6266-3.2013-1.1294 1.3333-2.8734 3.2013-4.6254 3.2013-3.18 0-5.648-2.4666-5.648-5.6466 0-3.908 3.492-7.0934 8.8334-11.8174z" fill="#73242f"/><path d="m67.0281 36.508c1.1307 1.3307 2.8627 3.1747 4.6053 3.1747 3.1774 0 5.6467-2.4694 5.6467-5.6467 0-3.908-3.4907-7.0934-8.8347-11.8174l-1.4173-1.4133z" fill="#8c2a38"/><path d="m25.0654 20.7946 1.4387 1.4347c5.3427 4.724 8.8333 7.9094 8.8333 11.8174 0 3.18-2.4693 5.6466-5.6466 5.6466-1.7533 0-3.4974-1.868-4.6254-3.2013-1.1306 1.3333-2.8746 3.2013-4.6253 3.2013-3.18 0-5.648-2.4666-5.648-5.6466 0-3.908 3.4907-7.0934 8.8333-11.8174z" fill="#73242f"/><path d="m25.0854 36.508c1.1307 1.3307 2.8641 3.1747 4.6054 3.1747 3.1773 0 5.6466-2.4694 5.6466-5.6467 0-3.908-3.4906-7.0934-8.8333-11.8174l-1.4187-1.4133z" fill="#8c2a38"/><g fill="#73242f"><path d="m84.0065 127.558h1.0216v6.772l2.0487-.753v.923l-2.911 1.093h-.1593zm-7.9914 3.411c0-1.19.2032-2.075.6097-2.653.4064-.579 1.0417-.868 1.9058-.868.8532 0 1.4848.282 1.8949.846.4101.567.6225 1.413.6371 2.537v1.357c0 1.175-.2032 2.049-.6096 2.62-.4065.571-1.0436.857-1.9114.857-.8605 0-1.4939-.277-1.9004-.83-.4064-.549-.6151-1.399-.6261-2.548zm1.0161 1.389c0 .861.1208 1.487.3625 1.879.2417.395.6243.593 1.1479.593.52 0 .8989-.196 1.1369-.588s.3607-.994.368-1.807v-1.626c0-.864-.1245-1.503-.3735-1.917-.2526-.41-.6334-.615-1.1424-.615-.5016 0-.8733.194-1.1149.582-.2454.389-.3735 1-.3845 1.835z"/><path d="m8.06672 11.3796h-1.02159v-6.77215l-2.04866.75246v-.92273l2.91097-1.09298h.15928zm7.99148-3.41081c0 1.19002-.2033 2.07431-.6097 2.65281-.4064.5786-1.0417.8678-1.9059.8678-.8531 0-1.4847-.2819-1.8948-.8458-.4101-.5676-.6225-1.41339-.6372-2.5375v-1.35662c0-1.17537.2033-2.04866.6097-2.61987s1.0436-.85681 1.9113-.85681c.8605 0 1.494.27645 1.9004.82935.4065.54924.6152 1.39873.6262 2.54847zm-1.0161-1.38957c0-.86048-.1209-1.48661-.3625-1.8784-.2417-.39545-.6243-.59318-1.148-.59318-.5199 0-.8989.1959-1.1369.58769s-.3606.99412-.368 1.80699v1.62575c0 .86414.1245 1.50309.3735 1.91683.2527.4101.6335.6152 1.1424.6152.5017 0 .8733-.1941 1.115-.5822.2453-.38816.3735-.99964.3845-1.83449z"/><path d="m82.2281 111.973.7704.77c2.8584 2.528 4.7265 4.23 4.7265 6.322 0 1.7-1.3202 3.02-3.0218 3.02-.9375 0-1.8714-.997-2.4751-1.71-.604.713-1.5373 1.71-2.476 1.71-1.7 0-3.02-1.32-3.02-3.02 0-2.092 1.8667-3.794 4.7267-6.322z"/></g><path d="m82.2401 120.383c.6053.71 1.5308 1.698 2.4631 1.698 1.7016 0 3.0218-1.321 3.0218-3.021 0-2.091-1.8681-3.795-4.7265-6.323l-.7584-.756z" fill="#8c2a38"/><path d="m9.84276 26.9613-.76932-.768c-2.85866-2.5293-4.72667-4.232-4.72667-6.324 0-1.7 1.32-3.02 3.02-3.02.93867 0 1.87333 1 2.47599 1.7133.60404-.7133 1.53734-1.7133 2.47464-1.7133 1.7014 0 3.0214 1.32 3.0214 3.02 0 2.092-1.8667 3.7947-4.7267 6.324z" fill="#73242f"/><path d="m9.83078 18.5546c-.604-.7133-1.53066-1.7-2.464-1.7-1.7 0-3.02 1.3201-3.02 3.0201 0 2.092 1.86801 3.7973 4.72668 6.3226l.75732.7587z" fill="#8c2a38"/><path d="m46.0361 85.4946 1.4373 1.4347c5.344 4.724 8.8347 7.9094 8.8347 11.8187 0 3.179-2.468 5.645-5.6467 5.645-1.752 0-3.4973-1.866-4.6253-3.2-1.1293 1.334-2.8747 3.2-4.624 3.2-3.1813 0-5.6493-2.466-5.6493-5.645 0-3.9093 3.4906-7.0947 8.8333-11.8187z" fill="#73242f"/><path d="m46.0574 101.208c1.1307 1.331 2.8614 3.175 4.604 3.175 3.1787 0 5.6467-2.468 5.6467-5.6457 0-3.9093-3.4907-7.0947-8.8347-11.8187l-1.416-1.4133z" fill="#8c2a38"/><path d="m46.0361 34.3333 1.4373 1.4347c5.344 4.724 8.8347 7.9093 8.8347 11.8173 0 3.1773-2.468 5.6467-5.6467 5.6467-1.752 0-3.4973-1.868-4.6253-3.2014-1.1293 1.3334-2.8747 3.2014-4.624 3.2014-3.1813 0-5.6493-2.4694-5.6493-5.6467 0-3.908 3.4906-7.0933 8.8333-11.8173z" fill="#73242f"/><path d="m46.0574 50.044c1.1307 1.3333 2.8614 3.1773 4.604 3.1773 3.1787 0 5.6467-2.4693 5.6467-5.648 0-3.9066-3.4907-7.092-8.8347-11.816l-1.416-1.4133z" fill="#8c2a38"/></svg>