<svg fill="none" height="140" viewBox="0 0 93 140" width="93" xmlns="http://www.w3.org/2000/svg"><path d="m.820127 4.79198c0-2.00267 1.622433-3.62799 3.621543-3.62799h84.75693c1.9991 0 3.6215 1.62532 3.6215 3.62799v130.98902c0 2.003-1.6224 3.628-3.6215 3.628h-84.75693c-1.99911 0-3.621543-1.625-3.621543-3.628z" fill="#fff"/><path d="m82.9895 112.909.7693.768c2.8587 2.528 4.7267 4.232 4.7267 6.323 0 1.7-1.32 3.021-3.02 3.021-.9387 0-1.8734-1-2.476-1.714-.604.714-1.5374 1.714-2.4747 1.714-1.7013 0-3.0213-1.321-3.0213-3.021 0-2.091 1.868-3.795 4.7266-6.323z" fill="#73242f"/><path d="m83.0014 121.315c.604.713 1.5308 1.701 2.4641 1.701 1.7 0 3.02-1.321 3.02-3.021 0-2.091-1.868-3.798-4.7267-6.323l-.7574-.757z" fill="#8c2a38"/><path d="m10.6041 27.896-.77062-.768c-2.85867-2.5293-4.7267-4.232-4.7267-6.3227 0-1.7013 1.32006-3.0213 3.02273-3.0213.93733 0 1.87059.9973 2.47459 1.7107.6027-.7134 1.5374-1.7107 2.4747-1.7107 1.7013 0 3.0213 1.32 3.0213 3.0213 0 2.0907-1.8666 3.7934-4.7266 6.3227z" fill="#73242f"/><path d="m10.5921 19.4867c-.6053-.7107-1.5306-1.6974-2.4626-1.6974-1.70266 0-3.02272 1.32-3.02272 3.02 0 2.092 1.86803 3.7947 4.72669 6.324l.75863.7547z" fill="#8c2a38"/><path d="m80.1074 136.974h-1.3678v-7.307c0-.987.2977-1.759.893-2.317.5905-.558 1.3796-.836 2.367-.836 1.0253 0 1.8237.262 2.3954.786.5717.525.8575 1.26.8575 2.204h-1.3607c0-.59-.1606-1.051-.4819-1.382-.326-.33-.7961-.496-1.4103-.496-.5622 0-1.0158.178-1.3607.532-.3496.354-.5268.85-.5315 1.488z" fill="#73242f"/><path d="m13.3702 3.59923h1.3678v7.30667c0 .9875-.2977 1.7599-.893 2.3174-.5905.5576-1.3796.8363-2.367.8363-1.0253 0-1.82373-.2622-2.39541-.7866-.57168-.5245-.85752-1.2592-.85752-2.2041h1.3607c0 .5906.16063 1.0512.48193 1.382.326.3307.7961.4961 1.4103.4961.5622 0 1.0158-.1772 1.3607-.5316.3496-.3543.5268-.8504.5315-1.4882z" fill="#73242f"/><path d="m26.0148 41.396s-4.9667 1.7973-9.5893 6.8147v6.1493h9.5893z" fill="#a22735"/><path d="m29.9561 117.167-5.144 6.674s10.0347 6.659 12.0574 6.776c2.024.118 24.896-6.958 24.896-6.958l-5.1627-8.252z" fill="#a22735"/><path d="m56.6028 125.235s-2.8347-9.071-3.568-9.672c-.7334-.604-4.464 1.112-4.464 1.112s2.8773 2.849 4.296 9.68z" fill="#35346f"/><path d="m16.4254 57.4147v34.492s4.336 5.5253 13.0387 6.3426c0 0 .1613-34.9346-13.0387-40.8346z" fill="#a22735"/><path d="m41.8815 96.3573h4.4373v-8.1466h-4.4373z" fill="#181419"/><path d="m32.9841 99.1693h4.4374v-8.1453h-4.4374z" fill="#181419"/><path d="m46.3522 99.5906h4.4373v-8.1426h-4.4373z" fill="#a22735"/><path d="m37.4442 96.9347h4.4373v-8.1454h-4.4373z" fill="#a22735"/><path d="m50.6481 102.047h4.4387v-8.1457h-4.4387z" fill="#181419"/><path d="m55.1201 102.208h4.4374v-5.0693h-4.4374z" fill="#a22735"/><path d="m33.0228 102.063 1.0146-3.6283-3.4106-.1854z" fill="#a05e33"/><path d="m28.2748 98.12s1.5534-22.8173-11.8493-40.7053c.016-1.576.0253-2.376.0253-2.376s7.8867 3.7066 12.3747 19.3413c4.488 15.6333 2.4547 23.74 2.4547 23.74z" fill="#181419"/><path d="m30.3241 97.612s.4121-15.0187-3.2946-24.016c-3.7053-8.9973-6.2841-15.1293-10.6041-18.5173v-6.868s12.1761 11.7733 16.1681 25.0346c3.992 13.2627 3.2466 24.8614 3.2466 24.8614z" fill="#35346f"/><g fill="#a22735"><path d="m30.0988 98.008c0-.5627 1.144-1.0187 2.552-1.0187 1.4107 0 2.552.456 2.552 1.0187 0 .5653-1.1413 1.02-2.552 1.02-1.408 0-2.552-.4547-2.552-1.02z"/><path d="m30.2882 95.7653c-.0294-.552 1.0653-1.0573 2.4426-1.1293 1.3787-.0733 2.52.3147 2.548.8667.0293.5493-1.064 1.0546-2.4426 1.128-1.3774.072-2.52-.316-2.548-.8654z"/><path d="m30.3268 93.1853c-.0586-.54.9867-1.0946 2.3347-1.24 1.348-.1426 2.4866.1747 2.5453.7133.0587.5387-.988 1.0907-2.3346 1.2374-1.3467.1453-2.4867-.172-2.5454-.7107z"/><path d="m30.2095 90.32c-.0867-.5254.9107-1.1293 2.2267-1.348 1.316-.2173 2.4546.0333 2.5413.5586.088.5267-.9094 1.1281-2.2267 1.3467-1.316.2187-2.4533-.0307-2.5413-.5573z"/><path d="m29.9282 87.224c-.116-.5133.8333-1.1667 2.1187-1.456 1.2853-.292 2.4226-.1093 2.5373.404.116.5133-.8321 1.1667-2.1161 1.456-1.2866.2907-2.4239.1093-2.5399-.404z"/><path d="m29.4775 83.9506c-.1454-.5.7547-1.2026 2.0107-1.5653 1.2546-.3613 2.3893-.2493 2.5346.2507.1453.5027-.756 1.2027-2.0093 1.564-1.256.3653-2.3894.2533-2.536-.2494z"/><path d="m28.8495 80.5546c-.1747-.4893.6773-1.2399 1.9-1.6746 1.224-.4347 2.3573-.3933 2.5319.096.1734.4907-.6773 1.2373-1.9013 1.6746-1.224.4347-2.356.3907-2.5306-.096z"/><path d="m28.0348 77.0853c-.2027-.4787.6-1.276 1.7934-1.7827 1.192-.5106 2.3239-.5346 2.5279-.0573.2027.476-.5999 1.2733-1.7932 1.7813-1.1934.5094-2.3241.5334-2.5281.0587z"/><path d="m27.0295 73.596c-.2306-.4627.5227-1.3093 1.684-1.8907 1.1627-.58 2.292-.6773 2.5253-.2107.232.464-.5226 1.3107-1.6853 1.8907-1.1613.5813-2.292.6773-2.524.2107z"/><path d="m25.8255 70.1427c-.2614-.4494.4453-1.3454 1.576-2 1.1306-.6534 2.2587-.8174 2.52-.364.2627.4506-.4453 1.3493-1.5747 2.0026-1.132.6507-2.26.8147-2.5213.3614z"/><path d="m24.4161 66.7814c-.2906-.44.3653-1.3854 1.4653-2.1121 1.1014-.7266 2.2281-.9586 2.5187-.5186.2907.44-.368 1.3853-1.4666 2.112-1.1014.724-2.228.956-2.5174.5187z"/><path d="m22.7922 63.5573c-.32-.4267.2893-1.4213 1.3586-2.2213 1.0694-.7974 2.1947-1.0987 2.5147-.672.3187.4266-.2906 1.4213-1.36 2.2213-1.068.7973-2.1947 1.0987-2.5133.672z"/><path d="m20.9495 60.528c-.3494-.416.2106-1.4573 1.248-2.3307 1.04-.8693 2.1639-1.2386 2.5119-.8253.348.4147-.212 1.4587-1.2506 2.328-1.0387.8733-2.1613 1.2426-2.5093.828z"/><path d="m18.8775 57.7453c-.376-.4013.1346-1.4933 1.1426-2.4386 1.008-.9427 2.1294-1.3827 2.5068-.9787.3773.4013-.1347 1.4947-1.1414 2.4373-1.008.9453-2.1307 1.3827-2.508.98z"/><path d="m16.5734 55.2627c-.4066-.388.0561-1.528 1.0321-2.5467.9773-1.016 2.0973-1.5227 2.504-1.1333.4066.3906-.056 1.532-1.032 2.548-.9773 1.0146-2.0987 1.5226-2.5041 1.132z"/></g><path d="m42.1815 78.1533h7.0533v7.8027h-7.0533z" fill="#3e4ca8"/><path d="m48.9295 78.4813h-6.748v-7.0746z" fill="#ae8f42"/><path d="m49.1748 79.0827h-7.1133v5.792h7.1133z" fill="#ae8f42"/><path d="m49.1748 85.3853h-6.9933v1.8907l6.9933 4.232z" fill="#ae8f42"/><path d="m40.8175 70.7293.2707 16.4213-5.7868 3.2707s-1.1386-13.5986-2.5119-16.0413c-1.3747-2.4427 8.028-3.6507 8.028-3.6507z" fill="#a22735"/><path d="m40.7175 70.68 1.7186.8507v16.808h-1.7186z" fill="#dee4f5"/><path d="m40.1628 70.036 1.7187.852v16.8067h-1.7187z" fill="#181419"/><path d="m28.9175 64.3387c.584 1.4706 1.572 2.8333 2.3013 4.24 1.1894 2.288 2.0347 4.7133 2.424 7.236.036 0 .0707.0026.1067.0026 3.556 0 6.5987-2.2026 7.8387-5.3173-.2627-.3-.5187-.6067-.8467-.8827-.592-.4973-1.2881-.8907-1.9041-1.3627-1.496-1.1453-2.6399-2.7266-4.3119-3.6266-1.2627-.6773-2.604-1.1493-3.9467-1.636-.576-.208-1.1613-.4187-1.76-.5573-.1813.0266-.3613.052-.544.0786.2214.6147.412 1.2414.6427 1.8254z" fill="#181419"/><path d="m28.9175 64.3387c.584 1.4706 1.572 2.8333 2.3013 4.24 1.0827 2.0853 1.8827 4.2853 2.3107 6.5693.0733.0027.1467.0053.22.0053 3.392 0 6.2787-2.1746 7.3387-5.2053-.1094-.112-.2214-.224-.3467-.3307-.592-.4973-1.2881-.8907-1.9041-1.3627-1.496-1.1453-2.6399-2.7266-4.3119-3.6266-1.2627-.6773-2.604-1.1493-3.9467-1.636-.576-.208-1.1613-.4187-1.76-.5573-.1813.0266-.3626.052-.544.0786.2214.6147.412 1.2414.6427 1.8254z" fill="#ae8f42"/><path d="m31.2188 68.5787c.476.916.896 1.8559 1.2546 2.8146.4027.128.8321.1973 1.2761.1973 2.2827 0 4.1373-1.8173 4.2066-4.0853-1.104-1.016-2.1-2.1613-3.4306-2.8773-.8027-.4307-1.6374-.7787-2.484-1.1-1.072.4773-1.9067 1.388-2.2854 2.508.4854.8547 1.0214 1.6907 1.4627 2.5427z" fill="#3e4ca8"/><path d="m57.5495 83.992-6.9053-3.9867-.3494 12.856 7.2547 3.9987z" fill="#a22735"/><path d="m48.9295 79.2733h1.7186v13.0107h-1.7186z" fill="#dee4f5"/><path d="m64.1201 100.768s-2.972 1.669-6.036 2.099l-.3693-18.643s4.7014 1.7453 6.8147 1.664z" fill="#bcc7ea"/><path d="m64.1201 100.768 1.0707-.407v-14.345h-1.0707z" fill="#675155"/><path d="m65.1908 100.361s1.584-.6583 2.2707-1.1863v-12.9614h-2.2707z" fill="#181419"/><path d="m67.4615 99.1747s4.9653-1.7947 9.588-6.8147v-6.1467h-9.588z" fill="#a22735"/><path d="m49.5681 79.852h1.7201v13.0093h-1.7201z" fill="#181419"/><path d="m57.0148 102.867h1.0693v-18.2857h-1.0693z" fill="#675155"/><path d="m29.6735 62.2027c.6453 0 1.4853.128 2.54.5293 3.496 1.3253 7.772 4.9707 12.7053 10.8387 5.944 7.068 11.7867 9.8773 15.6427 10.9893 4.1693 1.2026 8.908.9787 8.936.9733l.2039 1.152c-.1226.02-4.9786.276-9.3879-.98-4.0293-1.1506-10.1267-4.0573-16.2867-11.3827-11.0866-13.1826-15.3133-10.7813-15.3546-10.7546l-.6601-.964c.084-.0627.6134-.4013 1.6614-.4013z" fill="#9c6c3e"/><path d="m57.0148 97.5987s-14.2867-9.3174-15.636-9.3174-5.3973 2.836-5.3973 2.836v-1.648s4.8813-3.256 5.5173-3.256c.6347 0 15.516 9.644 15.516 9.644z" fill="#dee4f5"/><path d="m55.4175 102.063s-12.0734-8.875-13.7867-8.875c-1.7147 0-6.684 4.4373-6.684 4.4373z" fill="#ae8f42"/><path d="m57.0148 98.7293s-14.2867-9.4773-15.636-9.4773-5.3973 3.196-5.3973 3.196v-1.596s4.8813-3.1574 5.5173-3.1574c.6347 0 15.516 9.3494 15.516 9.3494z" fill="#ae8f42"/><path d="m36.3708 96.9693s.0347-15.0733-3.492-25.0187c-3.5253-9.9426-12.4027-23.9266-15.012-25.196l-1.4413 1.4561s6.2466 5.1506 15.1839 24.472c2.3267 9.5653 2.4067 5.4293 3.5307 24.916 1.124 19.4863 1.2307-.6294 1.2307-.6294z" fill="#9c6c3e"/><path d="m47.4802 98.7293s-4.9387-3.6333-5.9881-3.6333c-1.0493 0-3.2893 2.044-3.2893 2.044s6.836 4.557 8.7147 3.915c1.8786-.64.5627-2.3257.5627-2.3257z" fill="#d1d7ec"/><path d="m33.7281 116.541s-2.3306-2.322-1.736-8.361c.5947-6.041 1.0974-12.092-3.32-10.2453-4.4186 1.8466-.5986 6.5523 2.0667 4.0683 0 0-.0147 2.978-.4 6.896-.3867 3.918-.104 7.672 3.3893 7.642z" fill="#c57135"/><path d="m31.3935 115.563s-.648-3.634 0-4.372c.648-.743.0453-1.891 0-2.776-.0467-.887-.9747-8.344 4.1226-11.0323 5.096-2.688 4.6787 1.0266 10.9334 3.3853 0 0 .972 14.544-3.2893 15.748 0 0-8.4774.732-11.7667-.953z" fill="#dee4f5"/><path d="m52.2081 114.628s1.6534-1.352 1.6534-5.292c0-3.937 2.0426-8.057 4.7786-6.584 2.7373 1.475-.0293 4.272-1.5933 2.496 0 0-.1813 1.924-.1813 4.481 0 2.555-1.4294 5.536-4.6574 4.899z" fill="#9b5b32"/><path d="m50.6388 115.544s1.912-1.565 1.912-6.125c0-4.558 1.028-9.34 4.1947-7.635 3.1653 1.703-.036 4.94-1.8454 2.888 0 0-.208 2.227-.208 5.185 0 2.955-1.444 5.966-4.0533 5.687z" fill="#a05e33"/><path d="m48.5708 116.039s1.8147-3.203 1.8147-8.107c0-4.901 1.368-8.5107 4.7747-6.677 3.4066 1.833-.0374 5.316-1.9827 3.106 0 0-.2254 2.396-.2254 5.576 0 3.183-1.5747 6.402-4.3813 6.102z" fill="#a66133"/><path d="m46.9175 116.287s1.292-2.178 1.292-7.647c0-5.465 1.0867-10.6347 4.8853-8.591 3.7987 2.044-.0426 5.927-2.212 3.464 0 0-.2506 2.672-.2506 6.219 0 3.549-.5841 6.888-3.7147 6.555z" fill="#aa6534"/><path d="m44.7282 116.524s2.4493-2.005 2.4493-7.839c0-5.833.088-11.669 4.1414-9.4877 4.0533 2.1827-.044 6.3267-2.3587 3.6987 0 0-.268 2.849-.268 6.635s-.624 7.349-3.964 6.993z" fill="#af6734"/><path d="m43.1602 116.516s2.548-2.084 2.548-8.155c0-6.066.092-12.137 4.308-9.8664 4.216 2.2704-.0454 6.5784-2.4547 3.8464 0 0-.2787 2.964-.2787 6.902 0 3.94-.648 7.645-4.1226 7.273z" fill="#c57135"/><path d="m56.0041 113.005s-9.568 5.279-25.128 1.916l-.92 2.246s12.06 4.724 26.6467-1.76z" fill="#302f36"/><path d="m35.2908 111.72s-.9733.393-2.0493.405c-.268.016-.5427-.026-.7987-.053-.248-.085-.4653-.216-.6427-.315-.3066-.318-.4253-.552-.4253-.552l.0373-.03s.2774.094.5694.26c.1813.041.3786.093.5826.165.2214.035.4494.128.6961.151.2466.017.4959.054.7319.036.2374-.003.4601-.011.6494-.031.3827-.029.636-.08.636-.08z" fill="#c57135"/><path d="m39.5535 111.676s.2533.051.636.08c.1893.02.412.028.6493.031.236.018.4853-.019.732-.036.2466-.023.4747-.116.696-.151.2053-.072.4014-.124.5827-.165.292-.166.5693-.26.5693-.26l.0373.03s-.1186.234-.4253.552c-.1773.099-.3933.23-.6426.315-.256.027-.5307.069-.7987.053-1.076-.012-2.0494-.405-2.0494-.405z" fill="#c57135"/><path d="m38.1882 109.92s.2212-.253.6492-.524c.2187-.12.4787-.279.7854-.367.304-.093.6347-.19.98-.198.344-.059.688-.044 1.008.012.324.038.608.136.8333.265.46.233.7267.439.7267.439l-.0213.041s-.3507-.02-.8187-.127c-.2293-.078-.5053-.105-.7986-.138-.2867-.068-.5961-.132-.9121-.119-.3186-.028-.6293.031-.9239.087-.152.014-.2827.074-.4147.117-.128.047-.26.075-.3653.132-.444.2-.6974.415-.6974.415z" fill="#333558"/><path d="m35.1308 109.955s-.1893-.147-.512-.279c-.1586-.068-.3546-.127-.5586-.181-.2107-.031-.4281-.095-.6561-.074-.224-.005-.4426.019-.6466.071-.2027.024-.4013.011-.5667.06-.3346.052-.6026.036-.6026.036l-.0174-.041s.18-.171.5147-.352c.164-.1.3786-.159.6146-.186.2374-.04.4907-.009.7387.04.252.016.484.12.704.188.2147.088.404.192.5547.295.3053.204.464.387.464.388z" fill="#333558"/><path d="m36.0028 110.677s.0467-.684-.04-1.701c-.0453-.508-.136-1.095-.2814-1.709-.0773-.304-.2013-.604-.3013-.916-.1573-.295-.3187-.594-.4787-.892-.0893-.123-.1439-.36-.1519-.587l.0759-.319c.052-.09.112-.178.172-.264.2774-.305.6347-.452.972-.542.3427-.062.6814-.092.9974-.034.312.05.608.135.848.284.2453.131.4453.32.56.518.1467.18.1733.385.216.536.0213.314.0053.485.0053.485h-.0466s-.0281-.175-.1134-.444c-.0773-.12-.128-.285-.2733-.413-.1147-.15-.3053-.263-.516-.351-.204-.104-.4627-.152-.7307-.169-.268-.019-.5547-.002-.8373.061-.2814.064-.5587.181-.7534.363-.192.209-.2346.4-.0853.718.1467.312.2933.623.4387.931.0906.333.2026.655.2666.975.1227.641.1707 1.244.18 1.761.0174 1.032-.0759 1.715-.0759 1.715z" fill="#333558"/><path d="m39.9162 102.085s-1.3894.104-2.7787.164c-.696.06-1.3894.079-1.912-.001-.5214-.06-.868-.163-.868-.163v-.046s.3466-.102.868-.162c.5226-.08 1.216-.062 1.912-.002 1.3893.061 2.7787.164 2.7787.164z" fill="#333558"/><path d="m37.8322 100.792s-.4987.103-.996.164c-.2494.06-.4974.077-.6854-.003-.1853-.06-.3107-.161-.3107-.161v-.047s.1254-.102.3107-.162c.188-.08.436-.062.6854-.002.4973.06.996.164.996.164z" fill="#333558"/><path d="m63.5201 23.4067 5.1427-6.6747s-10.0333-6.6587-12.0573-6.776c-2.0227-.11733-24.896 6.9587-24.896 6.9587l5.164 8.252z" fill="#a22735"/><path d="m36.8735 15.3387s2.8333 9.0706 3.5666 9.672c.7347.6013 4.4654-1.1147 4.4654-1.1147s-2.8773-2.8467-4.2973-9.68z" fill="#35346f"/><path d="m77.0495 83.1586v-34.4919s-4.336-5.5281-13.036-6.3467c0 0-.1613 34.9373 13.036 40.8386z" fill="#a22735"/><path d="m51.5935 44.216h-4.436v8.1453h4.436z" fill="#181419"/><path d="m60.4908 41.404h-4.4373v8.1453h4.4373z" fill="#181419"/><path d="m47.1242 40.9787h-4.4374v8.1466h4.4374z" fill="#a22735"/><path d="m56.0322 43.636h-4.4387v8.1453h4.4387z" fill="#a22735"/><path d="m42.8268 38.5267h-4.4373v8.1426h4.4373z" fill="#181419"/><path d="m38.3575 38.3613h-4.44v5.0734h4.44z" fill="#a22735"/><path d="m60.4535 38.508-1.0161 3.6307 3.4121.1813z" fill="#a05e33"/><path d="m65.2002 42.4506s-1.5534 22.8201 11.8493 40.7081c-.016 1.576-.0227 2.3746-.0227 2.3746s-7.8893-3.708-12.3787-19.34c-4.4866-15.6333-2.4533-23.7427-2.4533-23.7427z" fill="#181419"/><path d="m63.1508 42.9613s-.4107 15.0147 3.2947 24.012c3.7053 8.9987 6.2853 15.1334 10.604 18.5214v6.8653s-6.6627-1.352-16.1667-25.0347c-3.9933-13.26-3.2466-24.8586-3.2466-24.8586z" fill="#35346f"/><path d="m63.3761 42.5627c0 .5653-1.1413 1.02-2.5519 1.02-1.4094 0-2.5521-.4547-2.5521-1.02 0-.5627 1.1427-1.0187 2.5521-1.0187 1.4106 0 2.5519.456 2.5519 1.0187z" fill="#a22735"/><path d="m63.1882 44.8067c.0293.5506-1.0641 1.0546-2.4427 1.1279-1.38.0734-2.52-.3146-2.5507-.8639-.028-.552 1.0654-1.0574 2.444-1.1307 1.38-.0707 2.52.3147 2.5494.8667z" fill="#a22735"/><path d="m63.1495 47.388c.0574.5386-.9893 1.0906-2.336 1.2373-1.3466.1453-2.4867-.172-2.5453-.7106-.0574-.54.988-1.0947 2.336-1.2374 1.3466-.1466 2.4867.172 2.5453.7107z" fill="#a22735"/><path d="m63.2668 50.252c.0867.5266-.9093 1.1307-2.228 1.3467-1.316.2186-2.4546-.0307-2.5413-.5574-.0853-.5253.9107-1.1293 2.2267-1.3466 1.3173-.2187 2.456.0319 2.5426.5573z" fill="#a22735"/><path d="m63.5469 53.3467c.116.5146-.8321 1.1666-2.1187 1.4586-1.2854.288-2.4213.1094-2.5373-.4066-.116-.5134.8319-1.164 2.1186-1.456 1.2853-.2894 2.4214-.1094 2.5374.404z" fill="#a22735"/><path d="m63.9975 56.62c.1453.5027-.7533 1.2027-2.0093 1.5653-1.2547.364-2.3907.252-2.5347-.2506-.1453-.5.7547-1.2027 2.0094-1.5654 1.2546-.3613 2.3906-.2493 2.5346.2507z" fill="#a22735"/><path d="m64.6268 60.0186c.1747.4894-.6773 1.2387-1.9013 1.6747-1.224.4347-2.3574.392-2.5307-.0973-.1733-.4894.676-1.2387 1.9-1.6747 1.224-.4347 2.3587-.3933 2.532.0973z" fill="#a22735"/><path d="m65.4401 63.4866c.2027.4774-.5986 1.2761-1.7933 1.7841-1.1907.508-2.324.5346-2.5253.0573-.2054-.476.5986-1.276 1.792-1.784 1.192-.508 2.3253-.5334 2.5266-.0574z" fill="#a22735"/><path d="m66.4454 66.9733c.2334.4667-.5213 1.3134-1.6839 1.8934-1.1627.5813-2.2907.6746-2.5241.212-.232-.464.5214-1.3134 1.6841-1.8934 1.1613-.5813 2.2919-.6746 2.5239-.212z" fill="#a22735"/><path d="m67.6495 70.4267c.2627.4533-.444 1.3493-1.5747 2.0026-1.132.652-2.26.816-2.52.3654-.2613-.4534.444-1.3494 1.5747-2.0027s2.26-.8187 2.52-.3653z" fill="#a22735"/><path d="m69.0614 73.792c.2894.44-.3666 1.3853-1.4693 2.1093-1.0987.7267-2.2266.96-2.5146.52-.292-.44.3653-1.3853 1.4653-2.112 1.1-.7266 2.2266-.9573 2.5186-.5173z" fill="#a22735"/><path d="m70.6841 77.016c.3187.4267-.2893 1.4213-1.3599 2.2187-1.0694.7986-2.1934 1.1013-2.5134.672-.3187-.428.2893-1.42 1.3587-2.2187 1.0693-.8 2.1946-1.1 2.5146-.672z" fill="#a22735"/><path d="m72.5282 80.044c.3466.4147-.2133 1.4587-1.2507 2.328-1.0386.8733-2.1627 1.2427-2.5107.828-.3493-.416.2107-1.4573 1.2507-2.3307 1.0373-.8693 2.1613-1.2386 2.5107-.8253z" fill="#a22735"/><path d="m74.5975 82.8253c.3773.404-.1334 1.4947-1.1414 2.4374-1.0066.9453-2.1293 1.3826-2.5066.9826-.376-.404.1333-1.496 1.14-2.4386 1.008-.9454 2.1306-1.3827 2.508-.9814z" fill="#a22735"/><path d="m76.9028 85.3067c.4053.3906-.056 1.5319-1.0333 2.5479-.976 1.0147-2.0973 1.5227-2.504 1.132-.4053-.388.0573-1.5279 1.0333-2.5439.976-1.0187 2.0973-1.5267 2.504-1.136z" fill="#a22735"/><path d="m51.2948 62.4186h-7.0533v-7.8039h7.0533z" fill="#3e4ca8"/><path d="m44.5455 62.088h6.7493v7.0787z" fill="#ae8f42"/><path d="m44.3028 61.4893h7.1134v-5.7946h-7.1134z" fill="#ae8f42"/><path d="m44.3028 55.1853h6.992v-1.8906l-6.992-4.232z" fill="#ae8f42"/><path d="m52.6575 69.844-.2707-16.4227 5.7893-3.2707s1.1347 13.5987 2.5107 16.0427c1.3746 2.4427-8.0293 3.6507-8.0293 3.6507z" fill="#a22735"/><path d="m52.7588 69.8933-1.72-.8546v-16.804h1.72z" fill="#dee4f5"/><path d="m53.3135 70.5333-1.72-.8506v-16.808h1.72z" fill="#181419"/><path d="m64.5575 76.2347c-.584-1.472-1.5707-2.8334-2.3014-4.24-1.1866-2.2894-2.0346-4.7134-2.4226-7.2374-.036 0-.0707-.0027-.1067-.0027-3.5573 0-6.5973 2.2041-7.84 5.3187.264.296.5214.604.8494.88.5893.5 1.2866.8907 1.9026 1.3614 1.496 1.1493 2.6387 2.7293 4.312 3.6306 1.2613.6774 2.604 1.148 3.9467 1.6334.5746.2106 1.1613.4186 1.7586.56.1827-.0294.364-.0561.544-.0814-.22-.6147-.4106-1.2426-.6426-1.8226z" fill="#181419"/><path d="m64.5575 76.2347c-.584-1.472-1.5707-2.8334-2.3014-4.24-1.0826-2.088-1.8826-4.2867-2.3093-6.5734-.0733 0-.1453-.0053-.22-.0053-3.3946 0-6.2773 2.1746-7.34 5.2066.1093.1147.2227.2267.3494.3307.5893.5 1.2866.8907 1.9026 1.3614 1.496 1.1493 2.6387 2.7293 4.312 3.6306 1.2613.6774 2.604 1.148 3.9467 1.6334.5746.2106 1.1613.4186 1.7586.56.1827-.0294.364-.056.544-.0787-.22-.6147-.4106-1.2427-.6426-1.8253z" fill="#ae8f42"/><path d="m62.2561 71.9947c-.476-.916-.8947-1.856-1.2547-2.8147-.4026-.128-.8306-.1987-1.2746-.1987-2.284 0-4.1386 1.8187-4.2053 4.0867 1.104 1.0133 2.0986 2.1613 3.4293 2.8773.8027.4294 1.6373.776 2.484 1.096 1.072-.4733 1.9067-1.3853 2.284-2.508-.484-.8506-1.02-1.6866-1.4627-2.5386z" fill="#3e4ca8"/><path d="m35.9255 56.5813 6.9053 3.984.3507-12.8573-7.256-3.9947z" fill="#a22735"/><path d="m44.5455 61.3h-1.7187v-13.0107h1.7187z" fill="#dee4f5"/><path d="m29.3561 39.8027s2.9707-1.6667 6.0347-2.0974l.3707 18.6414s-4.7013-1.7427-6.8147-1.664z" fill="#bcc7ea"/><path d="m29.3561 39.8027-1.0693.4053v14.3466h1.0693z" fill="#675155"/><path d="m28.2868 40.208s-1.5853.6613-2.272 1.188v12.964h2.272z" fill="#181419"/><path d="m43.9082 60.7213h-1.7187v-13.0133h1.7187z" fill="#181419"/><path d="m36.4615 37.7053h-1.0707v18.2867h1.0707z" fill="#675155"/><path d="m63.8028 78.3693c-.6453 0-1.4867-.1293-2.5413-.528-3.4974-1.3253-7.7707-4.972-12.7067-10.8413-5.9426-7.068-11.7853-9.8747-15.6386-10.9867-4.1694-1.204-8.7027-.6493-8.7307-.644l-.2053-1.1507c.1226-.0213 4.772-.6066 9.1826.6481 4.0294 1.1493 10.1267 4.0546 16.2867 11.3826 11.0853 13.18 15.3133 10.7814 15.3546 10.756l.66.964c-.0853.0587-.612.4-1.6613.4z" fill="#9c6c3e"/><path d="m36.4615 42.9733s14.2867 9.3187 15.6347 9.3187c1.3493 0 5.3973-2.836 5.3973-2.836v1.648s-4.8813 3.256-5.516 3.256-15.516-9.6467-15.516-9.6467z" fill="#dee4f5"/><path d="m38.0588 38.508s12.0734 8.8773 13.788 8.8773c1.7134 0 6.6813-4.4373 6.6813-4.4373z" fill="#ae8f42"/><path d="m36.4615 41.8413s14.2867 9.476 15.6347 9.476c1.3493 0 5.3973-3.192 5.3973-3.192v1.596s-4.8813 3.1534-5.516 3.1534-15.516-9.3467-15.516-9.3467z" fill="#ae8f42"/><path d="m57.1041 43.6013s-.0319 15.076 3.4921 25.0187c3.528 9.9453 11.5906 23.7787 15.2093 25.0106l1.244-1.2706c-3.1253-1.5787-13.2853-16.956-15.184-24.472-2.3267-9.5627-2.4053-5.4267-3.5293-24.9147-1.1254-19.4866-1.2321.628-1.2321.628z" fill="#9c6c3e"/><path d="m45.9962 41.8413s4.9373 3.6347 5.9879 3.6347c1.0494 0 3.2894-2.0467 3.2894-2.0467s-6.8374-4.5546-8.7147-3.9133c-1.8787.6427-.5626 2.3253-.5626 2.3253z" fill="#d1d7ec"/><path d="m59.7481 24.028s2.3307 2.3267 1.736 8.3653c-.5947 6.0387-1.0987 12.088 3.3213 10.2427 4.4174-1.8467.5987-6.5533-2.0666-4.068 0 0 .012-2.9773.4-6.896.3853-3.92.104-7.672-3.3907-7.644z" fill="#c57135"/><path d="m62.0828 25.0107s.6494 3.6293 0 4.372c-.648.74-.0466 1.8906 0 2.776.0467.8826.9733 8.3413-4.1213 11.0293-5.0987 2.6867-4.68-1.0266-10.9347-3.3853 0 0-.9733-14.5427 3.288-15.748 0 0 8.48-.7293 11.768.956z" fill="#dee4f5"/><path d="m41.2681 25.9427s-1.6533 1.3546-1.6533 5.292c0 3.94-2.0427 8.0573-4.78 6.5853-2.736-1.4733.0307-4.2707 1.5933-2.4973 0 0 .1827-1.924.1827-4.4787 0-2.5573 1.428-5.5387 4.6573-4.9013z" fill="#9b5b32"/><path d="m42.8388 25.028s-1.9146 1.5653-1.9146 6.1227c0 4.5573-1.0254 9.344-4.1934 7.6386-3.1653-1.7066.0347-4.94 1.8453-2.888 0 0 .208-2.2266.208-5.1853 0-2.9586 1.4441-5.9667 4.0547-5.688z" fill="#a05e33"/><path d="m44.9055 24.5306s-1.816 3.2067-1.816 8.108c0 4.9027-1.3667 8.512-4.7747 6.6787-3.4053-1.836.0387-5.3146 1.9853-3.1066 0 0 .2241-2.3961.2241-5.5774 0-3.18 1.5746-6.4013 4.3813-6.1027z" fill="#a66133"/><path d="m46.5588 24.2867s-1.2933 2.1773-1.2933 7.6426c0 5.4694-1.0853 10.6387-4.8853 8.5947-3.7974-2.048.0413-5.928 2.2119-3.4667 0 0 .2521-2.6693.2521-6.2186 0-3.5467.5839-6.8854 3.7146-6.552z" fill="#aa6534"/><path d="m48.7495 24.0494s-2.4507 2.0026-2.4507 7.8386c0 5.8333-.0893 11.6693-4.1427 9.484-4.0533-2.1787.044-6.3226 2.3614-3.6946 0 0 .2666-2.8521.2666-6.6361 0-3.7866.6241-7.3479 3.9654-6.9919z" fill="#af6734"/><path d="m50.3148 24.0546s-2.5467 2.0854-2.5467 8.1534-.0933 12.1387-4.3079 9.868c-4.216-2.2707.0453-6.5787 2.4546-3.844 0 0 .2787-2.9667.2787-6.904 0-3.9374.648-7.6427 4.1213-7.2734z" fill="#c57135"/><path d="m37.4721 27.5653s9.5667-5.2759 25.1267-1.9173l.9213-2.2413s-12.06-4.724-26.6467 1.76z" fill="#302f36"/><path d="m58.1855 28.8506s.9733-.3933 2.0506-.4039c.2667-.0187.5414.0253.7974.0533.2493.0853.4653.216.6453.3133.304.32.4226.5533.4226.5533l-.0359.032s-.2774-.0946-.5707-.2613c-.1813-.0426-.3786-.0933-.5813-.1653-.2213-.0347-.4493-.128-.6973-.1534-.2467-.016-.496-.052-.7334-.0346-.236.0026-.4587.0107-.6493.0293-.3814.0307-.636.0813-.636.0813z" fill="#c57135"/><path d="m53.9228 28.8946s-.2533-.0506-.6346-.0813c-.1907-.0186-.4134-.0267-.6494-.0293-.2373-.0174-.4867.0186-.7333.0346-.248.0254-.476.1187-.6974.1534-.2026.072-.4013.1227-.5813.1653-.2933.1667-.5707.2613-.5707.2613l-.036-.032s.1187-.2333.4227-.5533c.18-.0973.396-.228.644-.3133.2573-.028.532-.072.7987-.0533 1.0773.0106 2.0506.4039 2.0506.4039z" fill="#c57135"/><path d="m55.2895 30.6493s-.2213.2547-.6507.5254c-.2186.1213-.4786.2786-.784.3666-.3053.0947-.636.192-.9826.2-.344.0574-.6867.044-1.0081-.012-.324-.0386-.608-.1373-.8333-.2653-.4587-.2347-.7253-.44-.7253-.44l.02-.0427s.352.0214.8187.128c.2293.08.5066.1054.7986.14.288.0654.596.132.9133.1174.32.0293.6294-.0294.9241-.0854.1506-.016.2839-.076.4146-.1173.128-.048.2613-.076.3667-.1333.444-.1987.696-.4147.696-.4147z" fill="#333558"/><path d="m58.3468 30.616s.1867.1453.512.2787c.1587.068.3534.1266.5574.1813.212.0307.4293.0947.6559.072.2254.0053.444-.0173.6454-.0693.204-.024.404-.0107.568-.0601.336-.052.6027-.0373.6027-.0373l.0186.0427s-.1813.1707-.516.3507c-.164.0986-.3773.1586-.6147.1866-.2373.04-.4893.0107-.7387-.04-.2506-.016-.4839-.12-.7039-.188-.2134-.0866-.4054-.1933-.5547-.296-.3053-.2026-.464-.3866-.464-.388z" fill="#333558"/><path d="m57.4735 29.8933s-.048.684.0413 1.7014c.044.508.1334 1.096.2814 1.7093.076.3053.2.6053.3.916.1573.2947.3199.5933.4799.892.088.124.1427.36.1507.5867l-.076.3199c-.052.0894-.1133.1774-.1733.2641-.276.304-.632.4506-.9707.5426-.344.0614-.6827.0907-.9973.0334-.3134-.0507-.608-.136-.8493-.284-.244-.1307-.4454-.3227-.5601-.5187-.1453-.18-.1733-.3853-.216-.536-.0213-.316-.0053-.4867-.0053-.4867h.0467s.0293.1747.1133.444c.0787.1227.128.2854.2733.416.1147.1467.3067.26.516.3507.204.1027.464.152.7307.168.2693.0187.556.0026.84-.0614.28-.0626.5573-.1799.752-.3613.1933-.2093.2333-.4026.0866-.72-.148-.3106-.2946-.624-.4399-.9293-.0907-.3333-.204-.656-.2667-.976-.1227-.6413-.1693-1.244-.1786-1.7613-.02-1.032.0746-1.7147.0746-1.7147z" fill="#333558"/><path d="m53.5588 38.484s1.3894-.1027 2.78-.164c.6947-.06 1.3907-.0773 1.9107.0027.5213.06.8693.1613.8693.1613v.0467s-.348.1026-.8693.1626c-.52.08-1.216.0614-1.9107.0014-1.3906-.06-2.78-.164-2.78-.164z" fill="#333558"/><path d="m55.6428 39.7787s.4974-.1027.996-.164c.2494-.06.5-.0787.6854.0026.1866.06.312.1614.312.1614v.0466s-.1254.1013-.312.1613c-.1854.0814-.436.0627-.6854.0027-.4986-.0613-.996-.164-.996-.164z" fill="#333558"/></svg>