<svg fill="none" height="140" viewBox="0 0 92 140" width="92" xmlns="http://www.w3.org/2000/svg"><path d="m-.00000473 3.6726c0-2.02811 1.62243473-3.6726 3.62287473-3.6726h84.75593c2.0001 0 3.6212 1.64449 3.6212 3.6726v132.6534c0 2.028-1.6211 3.674-3.6212 3.674h-84.75593c-2.00044 0-3.62287473-1.646-3.62287473-3.674z" fill="#fff"/><path d="m46.0361 46.4505 3.5493 3.5391c13.1774 11.6531 21.7867 19.5077 21.7867 29.1489 0 7.8375-6.0853 13.9271-13.9267 13.9271-4.3226 0-8.6253-4.6068-11.4093-7.8989-2.7853 3.2921-7.0893 7.8989-11.4067 7.8989-7.8426 0-13.9306-6.0896-13.9306-13.9271 0-9.6412 8.6093-17.4958 21.7866-29.1489z" fill="#73242f"/><path d="m46.0908 85.2026c2.7853 3.287 7.0586 7.8359 11.3546 7.8359 7.8414 0 13.9267-6.088 13.9267-13.9292 0-9.6375-8.6093-17.4948-21.7867-29.1453l-3.4946-3.488z" fill="#8c2a38"/><path d="m82.2881 112.38.7693.768c2.8578 2.529 4.7266 4.232 4.7266 6.324 0 1.7-1.3203 3.02-3.0208 3.02-.9386 0-1.8724-1-2.4751-1.713-.604.713-1.5387 1.713-2.476 1.713-1.7 0-3.02-1.32-3.02-3.02 0-2.092 1.8667-3.795 4.7253-6.324z" fill="#73242f"/><path d="m82.3001 120.787c.6036.713 1.5297 1.7 2.4631 1.7 1.7005 0 3.0208-1.32 3.0208-3.02 0-2.092-1.8688-3.795-4.7266-6.324l-.7573-.755z" fill="#8c2a38"/><path d="m9.90145 27.3667-.76934-.7683c-2.85866-2.5276-4.72666-4.2317-4.72666-6.3224 0-1.7 1.31999-3.0213 3.01999-3.0213.93867 0 1.87334 1 2.47601 1.7146.60395-.7146 1.53865-1.7146 2.47465-1.7146 1.7013 0 3.0213 1.3213 3.0213 3.0213 0 2.0907-1.8679 3.7948-4.7253 6.3224z" fill="#73242f"/><path d="m9.88945 18.9615c-.604-.7136-1.52935-1.7016-2.46401-1.7016-1.7 0-3.01999 1.3213-3.01999 3.0213 0 2.0907 1.86799 3.7975 4.72666 6.3229l.75734.7574z" fill="#8c2a38"/><g fill="#73242f"><path d="m79.7851 128.822h4.3231l.9709-2.693h1.4032l-3.9403 10.318h-1.1907l-3.9474-10.318h1.3961zm3.912 1.12h-3.508l1.7576 4.826z"/><path d="m12.2877 10.6955h-4.32302l-.97092 2.693h-1.40322l3.94036-10.3186h1.1906l3.9475 10.3186h-1.3962zm-3.91198-1.11976h3.50808l-1.7576-4.82623z"/></g></svg>