<svg fill="none" height="140" viewBox="0 0 93 140" width="93" xmlns="http://www.w3.org/2000/svg"><path d="m.820127 4.53993c0-2.004 1.622473-3.629301 3.622903-3.629301h84.75557c1.9991 0 3.6215 1.625301 3.6215 3.629301v130.98807c0 2.004-1.6224 3.629-3.6215 3.629h-84.75557c-2.00043 0-3.622903-1.625-3.622903-3.629z" fill="#fff"/><path d="m25.7895 93.2826 1.4386 1.4347c5.344 4.724 8.8347 7.9077 8.8347 11.8177 0 3.178-2.4693 5.646-5.6466 5.646-1.7547 0-3.4987-1.868-4.6267-3.201-1.1294 1.333-2.8734 3.201-4.6254 3.201-3.18 0-5.6479-2.468-5.6479-5.646 0-3.91 3.492-7.0937 8.8333-11.8177z" fill="#73242f"/><path d="m25.8108 108.995c1.1307 1.332 2.8627 3.174 4.6054 3.174 3.1773 0 5.6466-2.466 5.6466-5.646 0-3.908-3.4907-7.0911-8.8347-11.8164l-1.4173-1.4133z" fill="#8c2a38"/><path d="m67.7322 27.8866 1.4386 1.4347c5.3427 4.724 8.8333 7.9079 8.8333 11.8159 0 3.1787-2.4693 5.6467-5.6466 5.6467-1.7533 0-3.4973-1.8666-4.6253-3.2013-1.1307 1.3347-2.8747 3.2013-4.6254 3.2013-3.18 0-5.648-2.468-5.648-5.6467 0-3.908 3.4907-7.0919 8.8333-11.8159z" fill="#73242f"/><path d="m67.7522 43.5987c1.1306 1.3306 2.864 3.1759 4.6053 3.1759 3.1773 0 5.6466-2.4693 5.6466-5.6479 0-3.9067-3.4906-7.0921-8.8333-11.8174l-1.4186-1.4133z" fill="#8c2a38"/><path d="m67.7322 93.2826 1.4386 1.4347c5.3427 4.724 8.8333 7.9077 8.8333 11.8177 0 3.178-2.4693 5.646-5.6466 5.646-1.7533 0-3.4973-1.868-4.6253-3.201-1.1307 1.333-2.8747 3.201-4.6254 3.201-3.18 0-5.648-2.468-5.648-5.646 0-3.91 3.4907-7.0937 8.8333-11.8177z" fill="#73242f"/><path d="m67.7522 108.995c1.1306 1.332 2.864 3.174 4.6053 3.174 3.1773 0 5.6466-2.466 5.6466-5.646 0-3.908-3.4906-7.0911-8.8333-11.8164l-1.4186-1.4133z" fill="#8c2a38"/><path d="m25.7895 27.8866 1.4386 1.4347c5.344 4.724 8.8347 7.9079 8.8347 11.8159 0 3.1787-2.4693 5.6467-5.6466 5.6467-1.7547 0-3.4987-1.8666-4.6267-3.2013-1.1294 1.3347-2.8734 3.2013-4.6254 3.2013-3.18 0-5.6479-2.468-5.6479-5.6467 0-3.908 3.492-7.0919 8.8333-11.8159z" fill="#73242f"/><path d="m25.8108 43.5987c1.1307 1.3306 2.8627 3.1759 4.6054 3.1759 3.1773 0 5.6466-2.4693 5.6466-5.6479 0-3.9067-3.4907-7.0921-8.8347-11.8174l-1.4173-1.4133z" fill="#8c2a38"/><g fill="#73242f"><path d="m85.2069 131.577-.5244 5.145h-5.2869v-1.212h4.1742l.3118-2.813c-.5055.297-1.0796.446-1.7221.446-.9402 0-1.6867-.312-2.2395-.935-.5528-.619-.8292-1.458-.8292-2.516 0-1.063.2882-1.902.8646-2.516.5717-.61 1.3726-.914 2.4025-.914.9119 0 1.656.252 2.2324.758s.9048 1.205.9851 2.098h-1.2402c-.0803-.591-.2906-1.037-.6307-1.34-.3402-.297-.7891-.446-1.3466-.446-.6095 0-1.0866.208-1.4315.623-.3497.416-.5245.99-.5245 1.723 0 .689.189 1.242.567 1.658.3732.42.8717.631 1.4953.631.5717 0 1.0206-.126 1.3466-.376l.3472-.283z"/><path d="m8.27074 8.48961.52444-5.14515h5.28692v1.21188h-4.17427l-.31183 2.81353c.5055-.29765 1.0796-.44648 1.7221-.44648.9402 0 1.6867.31183 2.2395.93548.5528.61893.8292 1.45756.8292 2.51583 0 1.0631-.2882 1.9017-.8646 2.5159-.5717.6095-1.3725.9142-2.4025.9142-.9119 0-1.65599-.2527-2.23239-.7583-.57641-.5055-.90477-1.2047-.98509-2.0977h1.24022c.08032.5906.29056 1.0371.63074 1.3394.34022.2977.78902.4465 1.34652.4465.6095 0 1.0867-.2079 1.4316-.6236.3496-.4158.5244-.9899.5244-1.7222 0-.68978-.189-1.24256-.5669-1.65833-.3733-.4205-.8717-.63074-1.4954-.63074-.5717 0-1.02052.1252-1.34653.37561l-.34726.28348z"/><path d="m82.9308 112.541.7706.768c2.8587 2.527 4.7254 4.232 4.7254 6.322 0 1.702-1.32 3.022-3.02 3.022-.9387 0-1.872-1-2.476-1.713-.604.713-1.5373 1.713-2.4747 1.713-1.7013 0-3.0213-1.32-3.0213-3.022 0-2.09 1.868-3.795 4.7267-6.322z"/></g><path d="m82.9428 120.947c.604.714 1.5306 1.7 2.464 1.7 1.7 0 3.02-1.32 3.02-3.022 0-2.09-1.8667-3.794-4.7254-6.322l-.7586-.756z" fill="#8c2a38"/><path d="m10.5455 27.5267-.77068-.7667c-2.85866-2.5293-4.72669-4.232-4.72669-6.324 0-1.7014 1.31999-3.0214 3.02266-3.0214.93733 0 1.87067 1 2.47471 1.7134.604-.7134 1.5373-1.7134 2.4746-1.7134 1.7014 0 3.0214 1.32 3.0214 3.0214 0 2.092-1.8667 3.7947-4.7267 6.324z" fill="#73242f"/><path d="m10.5335 19.1199c-.60536-.7133-1.53072-1.6986-2.46272-1.6986-1.70266 0-3.02265 1.32-3.02265 3.0213 0 2.0907 1.86802 3.7947 4.72669 6.3227l.75868.756z" fill="#8c2a38"/><path d="m46.7388 60.9466 1.4387 1.436c5.3427 4.724 8.8346 7.908 8.8346 11.8173 0 3.1787-2.4693 5.6454-5.648 5.6454-1.7533 0-3.4973-1.8667-4.6253-3.2013-1.1293 1.3346-2.8746 3.2013-4.6253 3.2013-3.18 0-5.6467-2.4667-5.6467-5.6454 0-3.9093 3.4894-7.0933 8.8321-11.8173z" fill="#73242f"/><path d="m46.7602 76.66c1.1306 1.3306 2.8626 3.1746 4.6039 3.1746 3.1787 0 5.648-2.4666 5.648-5.6466 0-3.908-3.4919-7.092-8.8346-11.816l-1.4173-1.4147z" fill="#8c2a38"/></svg>