<svg fill="none" height="140" viewBox="0 0 93 140" width="93" xmlns="http://www.w3.org/2000/svg"><path d="m.117305 4.21599c0-2.00533 1.622435-3.628025 3.622875-3.628025h84.75602c1.9989 0 3.6211 1.622695 3.6211 3.628025v130.98901c0 2.004-1.6222 3.628-3.6211 3.628h-84.75602c-2.00044 0-3.622875-1.624-3.622875-3.628z" fill="#fff"/><path d="m25.0854 92.9586 1.4414 1.4347c5.3413 4.724 8.8333 7.9097 8.8333 11.8187 0 3.177-2.4693 5.647-5.648 5.647-1.7533 0-3.4973-1.868-4.6267-3.202-1.1279 1.334-2.8733 3.202-4.6226 3.202-3.18 0-5.6494-2.47-5.6494-5.647 0-3.909 3.492-7.0947 8.8334-11.8187z" fill="#73242f"/><path d="m25.1081 108.671c1.1307 1.332 2.8627 3.176 4.604 3.176 3.1787 0 5.648-2.467 5.648-5.647 0-3.908-3.492-7.0907-8.8333-11.8161l-1.4187-1.4133z" fill="#8c2a38"/><path d="m67.0281 27.5626 1.44 1.4347c5.3414 4.724 8.8334 7.9094 8.8334 11.8174 0 3.1773-2.468 5.6466-5.648 5.6466-1.752 0-3.4961-1.868-4.6254-3.2013-1.128 1.3333-2.8733 3.2013-4.624 3.2013-3.18 0-5.6493-2.4693-5.6493-5.6466 0-3.908 3.492-7.0934 8.8333-11.8174z" fill="#73242f"/><path d="m67.0508 43.2733c1.1293 1.3333 2.8627 3.1773 4.6027 3.1773 3.18 0 5.648-2.4693 5.648-5.648 0-3.9066-3.492-7.092-8.8334-11.816l-1.4173-1.4133z" fill="#8c2a38"/><path d="m67.0281 92.9586 1.44 1.4347c5.3414 4.724 8.8334 7.9097 8.8334 11.8187 0 3.177-2.468 5.647-5.648 5.647-1.752 0-3.4961-1.868-4.6254-3.202-1.128 1.334-2.8733 3.202-4.624 3.202-3.18 0-5.6493-2.47-5.6493-5.647 0-3.909 3.492-7.0947 8.8333-11.8187z" fill="#73242f"/><path d="m67.0508 108.671c1.1293 1.332 2.8627 3.176 4.6027 3.176 3.18 0 5.648-2.467 5.648-5.647 0-3.908-3.492-7.0907-8.8334-11.8161l-1.4173-1.4133z" fill="#8c2a38"/><path d="m25.0854 60.26 1.4414 1.4346c5.3413 4.7254 8.8333 7.9107 8.8333 11.8187 0 3.1787-2.4693 5.648-5.648 5.648-1.7533 0-3.4973-1.8693-4.6267-3.2027-1.1279 1.3334-2.8733 3.2027-4.6226 3.2027-3.18 0-5.6494-2.4693-5.6494-5.648 0-3.908 3.492-7.0933 8.8334-11.8187z" fill="#73242f"/><path d="m25.1081 75.9733c1.1307 1.332 2.8627 3.176 4.604 3.176 3.1787 0 5.648-2.468 5.648-5.648 0-3.9067-3.492-7.092-8.8333-11.816l-1.4187-1.4147z" fill="#8c2a38"/><path d="m67.0281 60.26 1.44 1.4346c5.3414 4.7254 8.8334 7.9107 8.8334 11.8187 0 3.1787-2.468 5.648-5.648 5.648-1.752 0-3.4961-1.8693-4.6254-3.2027-1.128 1.3334-2.8733 3.2027-4.624 3.2027-3.18 0-5.6493-2.4693-5.6493-5.648 0-3.908 3.492-7.0933 8.8333-11.8187z" fill="#73242f"/><path d="m67.0508 75.9733c1.1293 1.332 2.8627 3.176 4.6027 3.176 3.18 0 5.648-2.468 5.648-5.648 0-3.9067-3.492-7.092-8.8334-11.816l-1.4173-1.4147z" fill="#8c2a38"/><path d="m25.0854 27.5626 1.4414 1.4347c5.3413 4.724 8.8333 7.9094 8.8333 11.8174 0 3.1773-2.4693 5.6466-5.648 5.6466-1.7533 0-3.4973-1.868-4.6267-3.2013-1.1279 1.3333-2.8733 3.2013-4.6226 3.2013-3.18 0-5.6494-2.4693-5.6494-5.6466 0-3.908 3.492-7.0934 8.8334-11.8174z" fill="#73242f"/><path d="m25.1081 43.2733c1.1307 1.3333 2.8627 3.1773 4.604 3.1773 3.1787 0 5.648-2.4693 5.648-5.648 0-3.9066-3.492-7.092-8.8333-11.816l-1.4187-1.4133z" fill="#8c2a38"/><g fill="#73242f"><path d="m78.8478 133.706c0-.515.1371-.973.4111-1.375.2693-.401.6354-.715 1.0985-.942-.5386-.232-.9639-.569-1.2757-1.014-.3165-.444-.4748-.947-.4748-1.509 0-.893.3024-1.604.9071-2.133.6-.529 1.3914-.794 2.3742-.794.9921 0 1.7882.265 2.3883.794.5953.534.8929 1.245.8929 2.133 0 .557-.1512 1.061-.4535 1.509-.3071.449-.73.789-1.2686 1.021.4583.227.8197.541 1.0843.943.2646.401.3969.857.3969 1.367 0 .87-.2788 1.559-.8363 2.07-.5575.51-1.2922.765-2.204.765-.9072 0-1.6395-.255-2.197-.765-.5622-.511-.8434-1.2-.8434-2.07zm1.0702-4.812c0 .577.1842 1.047.5528 1.411.3638.363.8409.545 1.4315.545s1.0654-.179 1.4245-.538c.3544-.359.5315-.832.5315-1.418s-.1724-1.046-.5173-1.382c-.3496-.335-.8339-.503-1.4528-.503-.6143 0-1.0962.168-1.4458.503-.3496.341-.5244.801-.5244 1.382zm1.9702 6.57c.5149 0 .9331-.161 1.2543-.482.3166-.317.4749-.749.4749-1.297 0-.524-.1559-.95-.4678-1.276-.3165-.321-.737-.481-1.2614-.481-.5245 0-.9426.16-1.2544.481-.3166.326-.4749.752-.4749 1.276 0 .525.163.952.489 1.283s.7394.496 1.2403.496z"/><path d="m13.2261 5.71491c0 .51499-.137.97328-.4111 1.37488-.2693.40159-.6354.71578-1.0984.94257.5386.23151.9638.56932 1.2756 1.01344.3166.44411.4748.94729.4748 1.5095 0 .893-.3023 1.604-.9071 2.1332-.6.5292-1.3914.7937-2.3741.7937-.9922 0-1.7883-.2645-2.38834-.7937-.5953-.5339-.89295-1.2449-.89295-2.1332 0-.55749.15118-1.06066.45356-1.5095.3071-.44885.72996-.78902 1.26857-1.02053-.45829-.22678-.81973-.54097-1.08431-.94257-.26458-.40159-.39687-.85752-.39687-1.36779 0-.86933.27876-1.55913.83627-2.06939.5575-.51027 1.29219-.7654 2.20407-.7654.9071 0 1.6394.25513 2.1969.7654.5623.51026.8434 1.20006.8434 2.06939zm-1.0701 4.81209c0-.57643-.1843-1.04654-.5528-1.41034-.3638-.36379-.841-.54569-1.4316-.54569-.59058 0-1.06541.17953-1.42448.53861-.35435.35907-.53152.83154-.53152 1.41742 0 .5858.17245 1.0465.51735 1.3819.34962.3355.8339.5032 1.45285.5032.6142 0 1.0961-.1677 1.4457-.5032.3496-.3401.5245-.8008.5245-1.3819zm-1.9702-6.56966c-.51501 0-.93314.16064-1.25442.48192-.31655.31655-.47483.74886-.47483 1.29692 0 .52443.15592.94965.46774 1.27565.31656.32128.73705.48192 1.26151.48192.5244 0 .9425-.16064 1.2544-.48192.3165-.326.4748-.75122.4748-1.27565 0-.52444-.163-.95202-.489-1.28275-.326-.33072-.7394-.49609-1.2402-.49609z"/><path d="m82.2281 112.219.7704.768c2.8584 2.526 4.7265 4.232 4.7265 6.321 0 1.7-1.3202 3.023-3.0218 3.023-.9375 0-1.8714-1-2.4751-1.715-.604.715-1.5373 1.715-2.476 1.715-1.7 0-3.02-1.323-3.02-3.023 0-2.089 1.8667-3.795 4.7267-6.321z"/></g><path d="m82.2401 120.624c.6053.712 1.5308 1.7 2.4631 1.7 1.7016 0 3.0218-1.321 3.0218-3.021 0-2.091-1.8681-3.796-4.7265-6.323l-.7584-.757z" fill="#8c2a38"/><path d="m9.84276 27.2026-.76932-.768c-2.85866-2.5253-4.72667-4.2319-4.72667-6.3226 0-1.7 1.32-3.0214 3.02-3.0214.93867 0 1.87333 1 2.47599 1.7147.60404-.7147 1.53734-1.7147 2.47464-1.7147 1.7014 0 3.0214 1.3214 3.0214 3.0214 0 2.0907-1.8667 3.7973-4.7267 6.3226z" fill="#73242f"/><path d="m9.83078 18.7973c-.604-.7147-1.53066-1.7013-2.464-1.7013-1.7 0-3.02 1.3226-3.02 3.024 0 2.0906 1.86801 3.7947 4.72668 6.3227l.75732.7546z" fill="#8c2a38"/><path d="m46.0348 78.1693 1.4386 1.4346c5.344 4.724 8.8347 7.9081 8.8347 11.8174 0 3.1787-2.468 5.6466-5.6467 5.6466-1.7533 0-3.4973-1.8679-4.6266-3.2013-1.128 1.3334-2.8734 3.2013-4.6227 3.2013-3.1813 0-5.6493-2.4679-5.6493-5.6466 0-3.9093 3.4906-7.0934 8.8333-11.8174z" fill="#73242f"/><path d="m46.0574 93.8813c1.1307 1.332 2.8614 3.1747 4.604 3.1747 3.1787 0 5.6467-2.4667 5.6467-5.6467 0-3.908-3.4907-7.0906-8.8347-11.816l-1.416-1.4133z" fill="#8c2a38"/><path d="m46.0348 43.4613 1.4386 1.4347c5.344 4.724 8.8347 7.9093 8.8347 11.8147 0 3.18-2.468 5.6493-5.6467 5.6493-1.7533 0-3.4973-1.8707-4.6266-3.204-1.128 1.3333-2.8734 3.204-4.6227 3.204-3.1813 0-5.6493-2.4693-5.6493-5.6493 0-3.9054 3.4906-7.0907 8.8333-11.8147z" fill="#73242f"/><path d="m46.0574 59.172c1.1307 1.3306 2.8614 3.1747 4.604 3.1747 3.1787 0 5.6467-2.4667 5.6467-5.6467 0-3.9054-3.4907-7.0907-8.8347-11.8173l-1.416-1.4107z" fill="#8c2a38"/></svg>