<svg fill="none" height="141" viewBox="0 0 92 141" width="92" xmlns="http://www.w3.org/2000/svg"><path d="m-.00000287 4.67274c0-2.0308 1.62247287-3.67274 3.62290287-3.67274h84.7556c1.9991 0 3.6215 1.64194 3.6215 3.67274v132.65326c0 2.028-1.6224 3.674-3.6215 3.674h-84.7556c-2.00043 0-3.62290287-1.646-3.62290287-3.674z" fill="#fff"/><path d="m81.9895 113.323.7693.768c2.86 2.529 4.7267 4.232 4.7267 6.324 0 1.7-1.32 3.02-3.02 3.02-.9387 0-1.872-.998-2.476-1.714-.604.716-1.5374 1.714-2.4747 1.714-1.7013 0-3.0213-1.32-3.0213-3.02 0-2.092 1.868-3.795 4.7266-6.324z" fill="#73242f"/><path d="m82.0014 121.729c.604.714 1.5308 1.7 2.4641 1.7 1.7 0 3.02-1.32 3.02-3.02 0-2.092-1.8667-3.794-4.7267-6.324l-.7574-.754z" fill="#8c2a38"/><path d="m9.60412 28.3093-.77064-.768c-2.85867-2.528-4.72533-4.232-4.72533-6.3226 0-1.7 1.32002-3.0214 3.02136-3.0214.93733 0 1.87061 1 2.47461 1.7147.60398-.7147 1.53738-1.7147 2.47608-1.7147 1.7 0 3.0199 1.3214 3.0199 3.0214 0 2.0906-1.8666 3.7946-4.7266 6.3226z" fill="#73242f"/><path d="m9.59213 19.904c-.604-.7133-1.53063-1.7013-2.46263-1.7013-1.70133 0-3.02135 1.3213-3.02135 3.0213 0 2.0907 1.86666 3.7973 4.72532 6.3227l.75866.7586z" fill="#8c2a38"/><path d="m82.0563 131.868 1.2615-1.311v-3.487h1.3607v10.319h-1.3607v-5.103l-4.5853 5.103h-1.6442l4.0609-4.557-4.3798-5.762h1.63z" fill="#73242f"/><path d="m9.42137 9.532-1.26148 1.3111v3.4868h-1.3607v-10.31866h1.3607v5.10263l4.58531-5.10263h1.6441l-4.0608 4.55693 4.3798 5.76173h-1.6301z" fill="#73242f"/><path d="m68.2921 39.2813s5.404 1.9533 10.436 7.416v6.688h-10.436z" fill="#a22735"/><path d="m78.7281 56.7106v37.5387s-4.7186 6.0157-14.1893 6.9067c0 0-.176-38.0227 14.1893-44.4454z" fill="#a22735"/><path d="m51.0242 99.0933h-4.8294v-8.864h4.8294z" fill="#181419"/><path d="m60.7068 102.156h-4.8307v-8.864h4.8307z" fill="#181419"/><path d="m46.1575 102.617h-4.828v-8.865h4.828z" fill="#a22735"/><path d="m55.8535 99.724h-4.8293v-8.864h4.8293z" fill="#a22735"/><path d="m41.4815 105.287h-4.8293v-8.8657h4.8293z" fill="#181419"/><path d="m36.6162 105.467h-4.8294v-5.5217h4.8294z" fill="#a22735"/><path d="m65.8322 101.016s-1.6907-24.836 12.8959-44.3053c-.0173-1.716-.0267-2.5827-.0267-2.5827s-8.5839 4.0333-13.4692 21.0493c-4.884 17.0134-2.6707 25.8387-2.6707 25.8387z" fill="#181419"/><path d="m63.6014 100.459s-.4479-16.3417 3.5854-26.1337c4.0347-9.7946 6.8413-16.468 11.5413-20.156v-7.472s-13.2519 12.8134-17.5959 27.2454c-4.3454 14.432-3.5334 27.0573-3.5334 27.0573z" fill="#edebea"/><g fill="#a22735"><path d="m63.8468 100.893c0-.614-1.244-1.109-2.7773-1.109-1.5347 0-2.7774.495-2.7774 1.109 0 .612 1.2427 1.11 2.7774 1.11 1.5333 0 2.7773-.498 2.7773-1.11z"/><path d="m63.6415 98.4506c.032-.5986-1.1587-1.1479-2.6587-1.2293-1.5013-.0786-2.7427.344-2.7733.9427-.0334.5987 1.1573 1.1507 2.6586 1.2293 1.4987.0787 2.7414-.344 2.7734-.9427z"/><path d="m63.5988 95.64c.064-.5854-1.0747-1.1867-2.5413-1.3454-1.4667-.1586-2.7067.1894-2.7694.776-.064.5854 1.0734 1.1894 2.5414 1.3454 1.4666.16 2.7053-.1867 2.7693-.776z"/><path d="m63.7268 92.524c.0947-.5734-.9907-1.2294-2.424-1.4667-1.432-.2373-2.6707.036-2.7667.6093-.0933.5707.992 1.2294 2.4253 1.4667 1.432.236 2.6707-.0373 2.7654-.6093z"/><path d="m64.0322 89.156c.1253-.56-.9053-1.2707-2.3053-1.5853-1.4-.316-2.6374-.1201-2.7614.4399-.1266.56.9053 1.268 2.304 1.5854 1.4.316 2.6374.1173 2.7627-.44z"/><path d="m64.5242 85.5933c.1573-.5467-.8227-1.3093-2.188-1.7027-1.3654-.396-2.6014-.2733-2.7587.2734-.1587.544.8214 1.308 2.1854 1.7026 1.3666.3934 2.6013.272 2.7613-.2733z"/><path d="m65.2068 81.896c.1907-.5347-.736-1.3494-2.068-1.8227-1.3333-.4747-2.5653-.428-2.7547.1067-.1893.5306.7374 1.3466 2.0681 1.82 1.3333.4733 2.5666.4266 2.7546-.104z"/><path d="m66.0935 78.12c.22-.5187-.6533-1.388-1.952-1.94-1.296-.5547-2.5294-.5813-2.7494-.0627-.2226.5187.6507 1.388 1.9507 1.94 1.2973.5547 2.5294.5814 2.7507.0627z"/><path d="m67.1868 74.3253c.2533-.5053-.568-1.4293-1.832-2.06-1.2666-.632-2.4947-.7346-2.748-.2293-.252.5053.568 1.428 1.8333 2.06 1.264.6307 2.4947.7346 2.7467.2293z"/><path d="m68.4975 70.568c.284-.492-.4827-1.4667-1.7147-2.18-1.2306-.7107-2.4586-.888-2.744-.396-.284.492.4853 1.4667 1.7147 2.18 1.232.708 2.46.888 2.744.396z"/><path d="m70.0322 66.9067c.3173-.48-.3974-1.5081-1.596-2.2974-1.1974-.792-2.424-1.044-2.74-.5653-.316.48.3987 1.508 1.5973 2.2973 1.196.7894 2.4227 1.0414 2.7387.5654z"/><path d="m71.8002 63.3987c.3453-.4667-.316-1.5467-1.48-2.4174-1.164-.8693-2.388-1.1973-2.736-.732-.3467.4667.316 1.548 1.4787 2.4174 1.164.8666 2.3893 1.1946 2.7373.732z"/><path d="m73.8055 60.1013c.3786-.4533-.2294-1.5853-1.3601-2.5333-1.1306-.9507-2.3546-1.352-2.7333-.9013-.3787.4533.2307 1.5853 1.3613 2.5333 1.1294.948 2.3534 1.352 2.7321.9013z"/><path d="m76.0601 57.0733c.4094-.4373-.1466-1.6253-1.244-2.6547-1.096-1.0253-2.3173-1.504-2.728-1.064-.4093.4374.1467 1.6241 1.2427 2.6534 1.096 1.0253 2.3173 1.5026 2.7293 1.0653z"/><path d="m78.5681 54.372c.4413-.424-.0613-1.6667-1.124-2.7734-1.064-1.104-2.284-1.656-2.7253-1.232-.4427.4254.0613 1.6641 1.124 2.7721 1.064 1.1066 2.2826 1.6586 2.7253 1.2333z"/></g><path d="m50.6962 79.284h-7.6747v8.492h7.6747z" fill="#3e4ca8"/><path d="m43.3522 79.6426h7.344v-7.7053z" fill="#ae8f42"/><path d="m43.0868 80.2973h7.7413v6.304h-7.7413z" fill="#ae8f42"/><path d="m43.0868 87.156h7.6094v2.0573l-7.6094 4.6067z" fill="#ae8f42"/><path d="m52.1814 71.2027-.2946 17.8733 6.3 3.56s1.236-14.8 2.732-17.4587c1.4974-2.6587-8.7374-3.9746-8.7374-3.9746z" fill="#a22735"/><path d="m52.2908 71.148-1.872.9306v18.288h1.872z" fill="#dee4f5"/><path d="m52.8948 70.4507-1.8706.9266v18.292h1.8706z" fill="#181419"/><path d="m65.1322 64.248c-.6347 1.6013-1.7094 3.0853-2.5041 4.6133-1.2933 2.4933-2.2146 5.1307-2.6386 7.876-.0387 0-.0747.0027-.1161.0027-3.8706 0-7.18-2.396-8.5306-5.7867.2866-.3227.5654-.6587.9227-.9613.6427-.5387 1.4-.968 2.0706-1.4814 1.6294-1.248 2.8734-2.9693 4.6934-3.948 1.3747-.7373 2.8333-1.2506 4.2947-1.7813.628-.2267 1.2639-.4533 1.9173-.6066.196.0306.3933.0599.5907.0853-.24.672-.448 1.3546-.7 1.988z" fill="#181419"/><path d="m65.1322 64.248c-.6347 1.6013-1.7094 3.0853-2.5041 4.6133-1.1786 2.272-2.0493 4.6667-2.5146 7.152-.08.0027-.1587.0053-.2401.0053-3.692 0-6.8319-2.3653-7.9866-5.664.1187-.1253.2414-.2453.3787-.3626.6427-.5387 1.4-.968 2.0706-1.4814 1.6294-1.248 2.8734-2.9693 4.6934-3.948 1.3747-.7373 2.8333-1.2506 4.2947-1.7813.628-.2267 1.2639-.4533 1.9173-.6066.196.0306.3947.0599.5907.0853-.24.6693-.448 1.3546-.7 1.988z" fill="#ae8f42"/><path d="m62.6281 68.8613c-.5186.9987-.976 2.0213-1.3666 3.0653-.436.1387-.9027.2134-1.3881.2134-2.484 0-4.5039-1.9787-4.5759-4.4454 1.2-1.1066 2.2853-2.3533 3.732-3.132.8747-.4693 1.7813-.8466 2.704-1.1959 1.1666.5186 2.0747 1.5106 2.4853 2.7293-.5253.9306-1.1093 1.8386-1.5907 2.7653z" fill="#3e4ca8"/><path d="m33.9721 85.636 7.5134-4.336.3813 13.992-7.8947 4.348z" fill="#a22735"/><path d="m43.3522 80.5h-1.8707v14.1613h1.8707z" fill="#dee4f5"/><path d="m26.8215 103.899s3.2333 1.814 6.568 2.281l.4026-20.2893s-5.1173 1.8986-7.4173 1.812z" fill="#bcc7ea"/><path d="m26.8215 103.899-1.1654-.443v-15.6147h1.1654z" fill="#675155"/><path d="m25.6561 103.456s-1.7253-.719-2.472-1.295v-14.1063h2.472z" fill="#181419"/><path d="m23.1841 102.161s-5.4039-1.953-10.4346-7.4157v-6.6906h10.4346z" fill="#a22735"/><path d="m42.6575 81.1333h-1.8707v14.1587h1.8707z" fill="#181419"/><path d="m34.5535 106.18h-1.164v-19.9014h1.164z" fill="#675155"/><path d="m64.3095 61.924c-.7014 0-1.616.1413-2.7653.576-3.804 1.44-8.4574 5.4093-13.828 11.7973-6.468 7.6894-12.8267 10.7467-17.0214 11.9574-4.5387 1.3106-9.696 1.0653-9.7253 1.06l-.2227 1.2533c.1334.0227 5.4174.3013 10.2174-1.0653 4.3853-1.2507 11.02-4.4147 17.7266-12.388 12.064-14.3467 16.6654-11.7347 16.7094-11.7054l.7186-1.0493c-.092-.0654-.6667-.436-1.8093-.436z" fill="#9c6c3e"/><path d="m34.5535 100.445s15.5493-10.1397 17.0173-10.1397c1.4666 0 5.8734 3.0853 5.8734 3.0853v-1.7919s-5.3121-3.544-6.0041-3.544c-.6906 0-16.8866 10.4973-16.8866 10.4973z" fill="#dee4f5"/><path d="m36.2921 105.305s13.14-9.6597 15.0054-9.6597c1.8653 0 7.2733 4.8277 7.2733 4.8277z" fill="#ae8f42"/><path d="m34.5535 101.677s15.5493-10.313 17.0173-10.313c1.4666 0 5.8734 3.4773 5.8734 3.4773v-1.74s-5.3121-3.432-6.0041-3.432c-.6906 0-16.8866 10.172-16.8866 10.172z" fill="#ae8f42"/><path d="m57.0215 99.76s-.0387-16.4054 3.8-27.2267c3.8373-10.8227 13.4973-26.0413 16.3373-27.4213l1.5693 1.5853s-6.7973 5.6053-16.5253 26.6333c-2.532 10.4094-2.6187 5.9067-3.8413 27.1144-1.224 21.208-1.34-.685-1.34-.685z" fill="#9c6c3e"/><path d="m12.7495 84.732v-37.5413s4.7187-6.016 14.1867-6.904c0 0 .1773 38.0199-14.1867 44.4453z" fill="#a22735"/><path d="m40.4535 42.3493h4.828v8.864h-4.828z" fill="#181419"/><path d="m30.7695 39.2867h4.8306v8.8639h-4.8306z" fill="#181419"/><path d="m45.3175 38.8253h4.8293v8.8654h-4.8293z" fill="#a22735"/><path d="m35.6228 41.716h4.8307v8.8666h-4.8307z" fill="#a22735"/><path d="m49.9948 36.1533h4.8294v8.868h-4.8294z" fill="#181419"/><path d="m54.8602 35.976h4.8306v5.5213h-4.8306z" fill="#a22735"/><path d="m25.6428 40.4266s1.692 24.836-12.8933 44.3054c.016 1.7133.0253 2.5826.0253 2.5826s8.5866-4.0333 13.4706-21.0493c4.884-17.0133 2.6707-25.8387 2.6707-25.8387z" fill="#181419"/><path d="m27.8748 40.9813s.448 16.344-3.5854 26.136c-4.0333 9.792-6.8399 16.468-11.5399 20.156v7.472s7.2506-1.472 17.5946-27.2453c4.3467-14.4347 3.5334-27.0573 3.5334-27.0573z" fill="#edebea"/><path d="m27.6308 40.5493c0 .612 1.2414 1.1094 2.7774 1.1094 1.5333 0 2.7773-.4974 2.7773-1.1094s-1.244-1.1093-2.7773-1.1093c-1.536 0-2.7774.4973-2.7774 1.1093z" fill="#a22735"/><path d="m27.8348 42.992c-.0307.5987 1.1587 1.148 2.6587 1.2293 1.5013.0787 2.7426-.344 2.7746-.9426.0333-.6014-1.1586-1.1507-2.66-1.2294-1.5-.0773-2.7427.3414-2.7733.9427z" fill="#a22735"/><path d="m27.8761 45.8c-.064.5853 1.076 1.1893 2.5414 1.348 1.468.1573 2.708-.1893 2.772-.776.0626-.5853-1.076-1.1893-2.5427-1.3453-1.4653-.16-2.7067.1866-2.7707.7733z" fill="#a22735"/><path d="m27.7495 48.916c-.0933.5733.9906 1.2293 2.424 1.4666 1.432.24 2.672-.0333 2.7666-.6066.092-.5734-.9906-1.2294-2.4239-1.4667-1.4334-.236-2.672.0373-2.7667.6067z" fill="#a22735"/><path d="m27.4442 52.2867c-.1253.56.9067 1.268 2.3053 1.5853 1.3987.316 2.636.1173 2.7627-.44.1266-.56-.9054-1.2707-2.3054-1.5853-1.4-.316-2.6359-.12-2.7626.44z" fill="#a22735"/><path d="m26.9535 55.8493c-.1574.544.8213 1.3067 2.1866 1.7027 1.3667.396 2.6027.2733 2.76-.2733.1574-.544-.8213-1.3067-2.188-1.7027-1.3653-.396-2.6-.2707-2.7586.2733z" fill="#a22735"/><path d="m26.2695 59.5466c-.1894.532.7373 1.3467 2.0679 1.8227 1.3334.4747 2.5667.4253 2.7547-.1067.1893-.5306-.736-1.3479-2.0667-1.8226-1.3333-.4707-2.5666-.4267-2.7559.1066z" fill="#a22735"/><path d="m25.3828 63.3227c-.22.5186.652 1.3879 1.952 1.9399 1.2973.552 2.5293.5814 2.7493.0627.2227-.5187-.652-1.388-1.9493-1.94-1.2987-.5546-2.5306-.58-2.752-.0626z" fill="#a22735"/><path d="m24.2895 67.1173c-.2534.5053.5693 1.4267 1.8333 2.06 1.264.6293 2.4934.7347 2.7467.2294.252-.5054-.568-1.4281-1.8333-2.0601-1.264-.6306-2.4947-.7346-2.7467-.2293z" fill="#a22735"/><path d="m22.9788 70.8747c-.284.492.484 1.4666 1.716 2.1773 1.2293.7133 2.4573.8906 2.7413.3986.2854-.492-.484-1.4693-1.7133-2.18-1.232-.7106-2.46-.8879-2.744-.3959z" fill="#a22735"/><path d="m21.4428 74.536c-.3147.48.4 1.508 1.5973 2.2973 1.1987.7894 2.424 1.0414 2.74.5654.3147-.48-.3987-1.508-1.596-2.2974-1.1987-.792-2.4253-1.044-2.7413-.5653z" fill="#a22735"/><path d="m19.6775 78.044c-.348.4666.3147 1.5466 1.4787 2.4173 1.1626.8693 2.388 1.1947 2.736.732.3466-.4667-.3147-1.548-1.4774-2.4173-1.1653-.8694-2.3893-1.1974-2.7373-.732z" fill="#a22735"/><path d="m17.6708 81.3413c-.3787.4534.2307 1.5854 1.3587 2.5334 1.132.9506 2.3547 1.352 2.7333.8986.3787-.4506-.2307-1.5853-1.36-2.5333s-2.3534-1.3493-2.732-.8987z" fill="#a22735"/><path d="m15.4162 84.3693c-.4094.4373.1466 1.6253 1.244 2.652 1.0946 1.028 2.316 1.5053 2.728 1.0667.4106-.4374-.1454-1.624-1.2428-2.6534-1.096-1.0253-2.3186-1.5026-2.7292-1.0653z" fill="#a22735"/><path d="m12.9095 87.0706c-.4414.424.0614 1.6641 1.1227 2.7707 1.064 1.1067 2.2827 1.6587 2.7253 1.2347.4414-.4253-.0627-1.664-1.1227-2.7734-1.064-1.1053-2.2827-1.6573-2.7253-1.232z" fill="#a22735"/><path d="m40.7788 62.1586h7.6773v-8.4919h-7.6773z" fill="#3e4ca8"/><path d="m48.1242 61.8h-7.3454v7.7027z" fill="#ae8f42"/><path d="m48.3895 61.1453h-7.7427v-6.304h7.7427z" fill="#ae8f42"/><path d="m48.3895 54.2866h-7.6107v-2.0573l7.6107-4.6066z" fill="#ae8f42"/><path d="m39.2962 70.24.2933-17.8733-6.2987-3.56s-1.2373 14.8-2.7333 17.4586c-1.496 2.6587 8.7387 3.9747 8.7387 3.9747z" fill="#a22735"/><path d="m39.1868 70.292 1.8707-.928v-18.2907h-1.8707z" fill="#dee4f5"/><path d="m38.5828 70.992 1.8707-.9267v-18.292h-1.8707z" fill="#181419"/><path d="m26.3442 77.1933c.6346-1.6 1.7093-3.084 2.5053-4.612 1.2907-2.4933 2.2147-5.1306 2.636-7.876.04 0 .0773-.0026.1159-.0026 3.8707 0 7.1814 2.396 8.5334 5.784-.2867.3253-.5666.6613-.924.9613-.6413.5413-1.4013.968-2.072 1.4813-1.6266 1.248-2.872 2.9693-4.6933 3.9507-1.372.7373-2.832 1.2506-4.2947 1.7786-.6267.2294-1.2627.456-1.9147.6067-.1973-.028-.3933-.0573-.5933-.0853.2413-.6694.448-1.352.7014-1.9867z" fill="#181419"/><path d="m26.3442 77.1933c.6346-1.6 1.7093-3.084 2.5053-4.612 1.1787-2.272 2.048-4.6666 2.5133-7.152.08-.0026.16-.008.2386-.008 3.6947 0 6.8334 2.368 7.9881 5.6667-.1174.1227-.2414.2453-.3787.36-.6413.5413-1.4013.968-2.072 1.4813-1.6267 1.248-2.872 2.9694-4.6933 3.9507-1.372.7373-2.832 1.2506-4.2947 1.7786-.6267.2294-1.2627.4561-1.9147.6067-.1973-.028-.3947-.0573-.5933-.0853.2413-.6693.448-1.352.7014-1.9867z" fill="#ae8f42"/><path d="m28.8495 72.5813c.5173-1 .9733-2.0213 1.3653-3.0653.4373-.1387.904-.2133 1.3866-.2133 2.4854 0 4.5041 1.976 4.5788 4.4453-1.2027 1.1067-2.2854 2.3533-3.7347 3.132-.872.4693-1.7813.8466-2.7013 1.196-1.1667-.5187-2.076-1.5107-2.4867-2.732.5267-.928 1.1093-1.836 1.592-2.7627z" fill="#3e4ca8"/><path d="m57.5055 55.8066-7.516 4.3334-.3801-13.9894 7.8961-4.348z" fill="#a22735"/><path d="m48.1242 60.94h1.8706v-14.1587h-1.8706z" fill="#dee4f5"/><path d="m64.6548 37.544s-3.2333-1.8147-6.568-2.2814l-.4027 20.2894s5.1187-1.8987 7.4173-1.812z" fill="#bcc7ea"/><path d="m64.6548 37.544 1.1653.4427v15.6146h-1.1653z" fill="#675155"/><path d="m65.8201 37.9867s1.724.7186 2.472 1.2946v14.104h-2.472z" fill="#181419"/><path d="m48.8188 60.3093h1.872v-14.1586h-1.872z" fill="#181419"/><path d="m56.9228 35.2626h1.164v19.9014h-1.164z" fill="#675155"/><path d="m27.1668 79.5187c.7 0 1.616-.1414 2.764-.576 3.8067-1.44 8.4574-5.412 13.8294-11.7974 6.468-7.692 12.8266-10.7493 17.0226-11.9573 4.536-1.3107 9.4694-.7067 9.5-.7013l.2227-1.252c-.1334-.024-5.1933-.6614-9.992.7053-4.3853 1.2507-11.0227 4.4147-17.7267 12.388-12.0653 14.344-16.6653 11.7347-16.7093 11.7053l-.7187 1.0494c.092.0653.6667.436 1.808.436z" fill="#9c6c3e"/><path d="m56.9228 40.9973s-15.5493 10.1414-17.016 10.1414c-1.468 0-5.8746-3.0894-5.8746-3.0894v1.7947s5.3133 3.5413 6.0026 3.5413c.692 0 16.888-10.4946 16.888-10.4946z" fill="#dee4f5"/><path d="m55.1855 36.1387s-13.1414 9.6586-15.0067 9.6586-7.272-4.8306-7.272-4.8306z" fill="#ae8f42"/><path d="m56.9228 39.7626s-15.5493 10.316-17.016 10.316c-1.468 0-5.8746-3.4773-5.8746-3.4773v1.74s5.3133 3.432 6.0026 3.432c.692 0 16.888-10.1747 16.888-10.1747z" fill="#ae8f42"/><path d="m34.4561 41.68s.0361 16.408-3.8013 27.2293c-3.8386 10.8227-12.6133 25.8773-16.552 27.2187l-1.3533-1.3827c3.4-1.7186 14.4573-18.4533 16.5239-26.6333 2.532-10.4094 2.6187-5.9067 3.8414-27.1147 1.2253-21.2107 1.3413.6827 1.3413.6827z" fill="#9c6c3e"/><path d="m58.9228 122.508s-.836-7.781 0-9.375c.8347-1.594 2.4293-5.125 2.4293-5.125s-3.4533 1.252-3.5306-2.315c-.0747-3.568 2.8467-3.378 3.9107-3.378 1.0626 0 4.136 1.253 2.1253 6.185-2.012 4.935-2.3707 2.961-2.6841 6.531-.3146 3.568 0 7.248 0 7.248z" fill="#dfdcda"/><path d="m60.0242 124.792s-.8347-7.779 0-9.373c.8347-1.596 2.428-5.124 2.428-5.124s-3.4534 1.252-3.5294-2.316c-.076-3.567 2.8467-3.378 3.9094-3.378s4.1373 1.251 2.1253 6.186c-2.0106 4.934-2.3707 2.961-2.684 6.528-.3134 3.568 0 7.25 0 7.25z" fill="#edebea"/><path d="m61.4815 113.596s5.9666-22.7187-7.5774-22.7187c-13.5439 0-11.9359 17.3357-7.7039 23.4377 4.2333 6.104 15.2813-.719 15.2813-.719z" fill="#dfdcda"/><path d="m61.1882 123.063s.9986-3.782.3946-4.99c-.6053-1.209.008-3.284-.1013-4.477-.1107-1.195-1.7374-3.244-5.284-.828 0 0-9.1387-4.885-9.2173 1.42-.0787 6.301.3679 9.664.3679 9.664s11.0294 1.233 13.8401-.789z" fill="#dee4f5"/><path d="m36.4055 125.857s.8347-7.781 0-9.378c-.8347-1.594-2.4307-5.122-2.4307-5.122s3.4547 1.252 3.5307-2.316c.0773-3.568-2.8467-3.377-3.9093-3.377-1.064 0-4.1374 1.252-2.1254 6.185 2.0106 4.935 2.3694 2.96 2.684 6.528.3147 3.568 0 7.251 0 7.251z" fill="#5c5e65"/><path d="m37.4681 124.792s.8347-7.779 0-9.373c-.8346-1.596-2.4306-5.124-2.4306-5.124s3.4547 1.252 3.532-2.316c.0747-3.567-2.848-3.378-3.9107-3.378-1.0626 0-4.136 1.251-2.1253 6.186 2.012 4.934 2.3707 2.961 2.684 6.528.3147 3.568 0 7.25 0 7.25z" fill="#747b7e"/><path d="m39.0241 123.693s.8347-7.781 0-9.376c-.8346-1.593-2.4293-5.124-2.4293-5.124s3.4533 1.252 3.5293-2.316-2.8467-3.377-3.9093-3.377c-1.0627 0-4.136 1.252-2.1254 6.185 2.012 4.935 2.3707 2.96 2.684 6.528.3134 3.571 0 7.251 0 7.251z" fill="#8c9294"/><path d="m41.2881 123.352s.8347-7.781 0-9.379c-.836-1.593-2.4293-5.121-2.4293-5.121s3.4533 1.252 3.5293-2.316c.076-3.567-2.8466-3.377-3.9106-3.377-1.0614 0-4.1361 1.253-2.1241 6.185 2.0107 4.935 2.3707 2.961 2.684 6.528.3147 3.568 0 7.251 0 7.251z" fill="#a7aaa9"/><path d="m43.4881 123.693s.836-7.781 0-9.376c-.8346-1.593-2.428-5.124-2.428-5.124s3.4533 1.252 3.5293-2.316-2.8453-3.377-3.908-3.377c-1.064 0-4.1386 1.252-2.1266 6.185 2.012 4.935 2.3693 2.96 2.6853 6.528.3133 3.571 0 7.251 0 7.251z" fill="#c2c2bf"/><path d="m45.7281 123.995s.8347-7.782 0-9.375-2.4293-5.123-2.4293-5.123 3.4533 1.252 3.5307-2.317c.076-3.568-2.848-3.377-3.9107-3.377-1.0613 0-4.136 1.252-2.124 6.186 2.0106 4.935 2.3693 2.962 2.6827 6.53.3146 3.566 0 7.249 0 7.249z" fill="#dfdcda"/><path d="m47.7401 124.415s.8347-7.782 0-9.376-2.4307-5.124-2.4307-5.124 3.4547 1.252 3.5307-2.316-2.8466-3.378-3.9093-3.378-4.136 1.252-2.1253 6.186c2.012 4.934 2.3706 2.96 2.6839 6.528.3147 3.568 0 7.25 0 7.25z" fill="#edebea"/><path d="m56.1975 112.768s3.6559-.32 4.9759-2.544c0 0-1.9386-1.872-4.7626-.476 0 0-3.2-1.227-6.1267-.376 0 0 2.0267 3.084 5.9134 3.396z" fill="#edebea"/><path d="m32.1322 133.691 4.4493.924.8973-4.326c1.1227.26 2.308.476 3.5253.648l-.504 4.128 4.72.575.516-4.219c1.344.092 2.6827.15 3.9827.178v4.33h4.816v-4.325c1.4626-.028 2.7787-.08 3.8787-.135l.7293 4.34 5.1827-.869-1.7507-10.413-.964.161-.012-.464-25.9133-1-.0467.409-1.3586-.281z" fill="#ae8f42"/><path d="m62.2734 122.76s-13.3386 2.037-27.9813-1.419l-.1373 2.352s18.3574 4.283 28.492 1.099z" fill="#181419"/><path d="m57.6748 119.484s.232.047.5787.073c.3466.034.812.046 1.26-.005.2253-.021.4293-.112.6346-.129.184-.078.364-.122.528-.16.2667-.151.5201-.238.5201-.238l.0319.028s-.1066.212-.384.503c-.1626.089-.36.211-.5906.277-.2267.039-.48.074-.7227.059-.9813-.009-1.8667-.365-1.8667-.365z" fill="#747b7e"/><path d="m53.7948 119.527s-.8853.356-1.868.365c-.2413.016-.4947-.02-.7227-.059-.2307-.065-.4266-.188-.5893-.276-.2773-.292-.384-.504-.384-.504l.0307-.028s.2547.087.5213.238c.164.038.344.082.5266.16.2054.017.4107.108.6361.129.448.051.9133.039 1.2586.005.348-.026.58-.073.58-.073z" fill="#747b7e"/><path d="m54.9975 117.916s-.2293-.196-.6347-.377c-.2053-.076-.444-.178-.7106-.228-.268-.052-.5507-.106-.8414-.079-.288-.015-.5667.052-.832.099-.2653.041-.5147.064-.7253.136-.4254.096-.7453.116-.7453.116l-.0187-.04s.2426-.187.6613-.4c.2053-.116.464-.208.7613-.23.288-.066.6027-.073.9147-.021.3147.007.616.096.8933.183.2787.078.516.224.7134.333.3906.247.5933.477.5933.477z" fill="#333558"/><path d="m57.7815 117.885s.144-.168.4213-.354c.1373-.094.3107-.188.504-.27.2013-.061.4134-.156.6427-.17.2253-.044.456-.078.6706-.027.2174.013.4107.069.5614.16.304.164.4693.319.4693.319l-.0186.04s-.2414.013-.5467-.035c-.1493-.044-.332-.029-.5147-.064-.188-.032-.3853-.06-.5906-.055-.4094-.013-.8107.119-1.1054.234-.2946.121-.4653.253-.4653.253z" fill="#333558"/><path d="m56.9721 118.577s-.0853-.62-.068-1.56c.008-.47.052-1.02.164-1.602.0573-.292.16-.586.2413-.888.132-.28.2667-.564.4-.848.136-.29.0974-.464-.0772-.654-.1774-.164-.4267-.277-.6827-.34-.26-.053-.5227-.061-.7654-.046-.244.014-.4799.058-.6653.154-.192.08-.3667.184-.4707.319-.132.117-.1786.265-.248.377-.0786.246-.1053.404-.1053.404h-.0413s-.0147-.154.0053-.442c.0373-.138.064-.323.1973-.488.104-.179.2854-.352.508-.471.22-.136.4907-.213.7747-.259.2853-.054.5947-.02.9053.04.3067.079.6361.203.8854.483.1267.148.204.328.2266.532-.008.207-.0573.423-.1373.535-.1466.27-.292.542-.436.812-.092.282-.2053.557-.2747.834-.1333.559-.2159 1.094-.2559 1.556-.08.926-.0374 1.55-.0374 1.55z" fill="#333558"/><path d="m32.5534 18.8933s.8347 7.7814 0 9.3747c-.836 1.5933-2.4293 5.1253-2.4293 5.1253s3.4547-1.2533 3.5293 2.3147c.076 3.568-2.8466 3.3773-3.908 3.3773-1.064 0-4.1386-1.252-2.1266-6.1867 2.012-4.932 2.3706-2.9613 2.6853-6.5293.3133-3.5666 0-7.2493 0-7.2493z" fill="#dfdcda"/><path d="m31.4535 16.6067s.8346 7.7813 0 9.3746c-.8347 1.5973-2.4293 5.1254-2.4293 5.1254s3.4533-1.252 3.5293 2.3146c.0773 3.568-2.8467 3.3787-3.9094 3.3787-1.0626 0-4.1373-1.2533-2.1253-6.1854 2.0107-4.9346 2.3693-2.9613 2.684-6.5293.3147-3.5666 0-7.2493 0-7.2493z" fill="#edebea"/><path d="m29.9948 27.8053s-5.9667 22.7187 7.5773 22.7187c13.5454 0 11.936-17.336 7.704-23.4413-4.2333-6.1014-15.2813.7226-15.2813.7226z" fill="#dfdcda"/><path d="m30.2895 18.3386s-.9987 3.7814-.3947 4.9894-.0107 3.284.1 4.4773c.1093 1.1947 1.7386 3.244 5.284.828 0 0 9.1374 4.8827 9.2174-1.42.0786-6.3013-.3667-9.664-.3667-9.664s-11.0307-1.2347-13.84.7893z" fill="#dee4f5"/><path d="m55.0721 15.544s-.8346 7.7813 0 9.3746c.8347 1.5947 2.4293 5.1254 2.4293 5.1254s-3.4546-1.252-3.5293 2.316c-.0773 3.5666 2.8454 3.3773 3.908 3.3773 1.0627 0 4.1387-1.2533 2.1254-6.1853-2.012-4.9347-2.3694-2.9613-2.684-6.5307-.3134-3.568 0-7.248 0-7.248z" fill="#5c5e65"/><path d="m54.0095 16.6067s-.836 7.7813 0 9.3746c.8346 1.5973 2.428 5.1254 2.428 5.1254s-3.4533-1.252-3.5293 2.3146c-.076 3.568 2.8453 3.3787 3.9093 3.3787 1.0626 0 4.1373-1.2533 2.1253-6.1854-2.012-4.9346-2.3693-2.9613-2.6853-6.5293-.3133-3.5666 0-7.2493 0-7.2493z" fill="#747b7e"/><path d="m52.4522 17.708s-.8333 7.7813 0 9.3747c.836 1.5946 2.4293 5.1253 2.4293 5.1253s-3.4533-1.252-3.5293 2.316c-.076 3.5667 2.8453 3.3773 3.908 3.3773 1.064 0 4.1386-1.2533 2.1266-6.188-2.012-4.932-2.3693-2.9613-2.6853-6.528-.3134-3.568 0-7.2506 0-7.2506z" fill="#8c9294"/><path d="m50.1895 18.0493s-.8347 7.7814 0 9.3747c.8346 1.5947 2.4293 5.1253 2.4293 5.1253s-3.4547-1.252-3.532 2.3147c-.0747 3.568 2.848 3.3786 3.9107 3.3786 1.0626 0 4.1387-1.2533 2.1267-6.1879-2.012-4.932-2.372-2.9587-2.6854-6.5281-.3146-3.568 0-7.248 0-7.248z" fill="#a7aaa9"/><path d="m47.9868 17.708s-.8347 7.7813 0 9.3747c.836 1.5946 2.4293 5.1253 2.4293 5.1253s-3.4533-1.252-3.5293 2.316c-.0774 3.5667 2.8467 3.3773 3.9093 3.3773 1.064 0 4.1374-1.2533 2.1254-6.188-2.0107-4.932-2.3707-2.9613-2.6841-6.528-.3146-3.568 0-7.2506 0-7.2506z" fill="#c2c2bf"/><path d="m45.7495 17.404s-.836 7.7813 0 9.3773c.8333 1.5934 2.428 5.1227 2.428 5.1227s-3.4547-1.2533-3.5307 2.3147c-.0746 3.568 2.8467 3.3773 3.9107 3.3773 1.0627 0 4.1373-1.2494 2.1253-6.184-2.012-4.936-2.372-2.9613-2.6853-6.5293-.3134-3.568 0-7.2494 0-7.2494z" fill="#dfdcda"/><path d="m43.7375 16.9867s-.836 7.7813 0 9.3746c.8346 1.5947 2.428 5.1254 2.428 5.1254s-3.4533-1.252-3.5293 2.316c-.076 3.5666 2.8453 3.3773 3.9093 3.3773 1.0626 0 4.1373-1.2533 2.1253-6.188s-2.3693-2.9613-2.684-6.528c-.3147-3.568 0-7.2507 0-7.2507z" fill="#edebea"/><path d="m35.2788 28.6333s-3.6547.32-4.9747 2.544c0 0 1.9374 1.872 4.7627.476 0 0 3.1973 1.2267 6.1253.3747 0 0-2.0266-3.0827-5.9133-3.3947z" fill="#edebea"/><path d="m59.3455 7.71064-4.4493-.92399-.8987 4.32535c-1.1227-.26-2.3067-.476-3.5253-.6507l.5039-4.12532-4.72-.57866-.5146 4.22132c-1.344-.09067-2.684-.14799-3.984-.17599v-4.33067h-4.816v4.32533c-1.4627.028-2.78.07733-3.8787.13467l-.7293-4.34133-5.184.87066 1.752 10.41339.964-.1614.012.464 25.9133.9974.0453-.4067 1.3601.2813z" fill="#ae8f42"/><path d="m29.2028 18.64s13.3374-2.036 27.9827 1.42l.136-2.352s-18.356-4.284-28.4934-1.1013z" fill="#181419"/><path d="m33.8028 21.916s-.232-.048-.58-.0734c-.3467-.0346-.8093-.0453-1.2587.004-.2253.02-.4306.112-.636.128-.184.08-.3627.1227-.5267.1614-.268.1506-.5212.2373-.5212.2373l-.0307-.028s.1066-.212.384-.5027c.1626-.0906.36-.2106.5893-.2773.2293-.0373.4814-.0733.724-.0587.98.0107 1.8653.368 1.8653.368z" fill="#747b7e"/><path d="m37.6828 21.8746s.8853-.3573 1.8653-.368c.244-.0146.4947.0214.7241.0587.2293.0667.4266.1867.5893.2773.2773.2907.3853.5027.3853.5027l-.032.028s-.2533-.0867-.52-.2373c-.1653-.0387-.344-.0814-.528-.1614-.204-.016-.4107-.108-.636-.128-.448-.0493-.912-.0386-1.2586-.004-.348.0254-.5787.0734-.5787.0734z" fill="#747b7e"/><path d="m36.4788 23.484s.2294.1973.6347.3773c.2053.0773.444.1787.7107.228.268.0507.5506.1053.8413.0787.2893.0146.568-.0507.8333-.0987.264-.0413.5147-.064.724-.136.4253-.0973.7467-.1173.7467-.1173l.0173.04s-.2413.1866-.6613.3986c-.204.1174-.464.2094-.76.232-.288.0667-.6027.0734-.916.0214-.3133-.0067-.6147-.0947-.8934-.1814-.2786-.0786-.5146-.224-.7133-.3333-.3907-.2467-.592-.4773-.592-.4773z" fill="#333558"/><path d="m33.6948 23.516s-.144.168-.4213.352c-.1374.0946-.3107.1893-.5054.2706-.2.06-.4119.1561-.6413.1694-.2253.0453-.4573.0773-.6707.0266-.2173-.0133-.4119-.0693-.5599-.1599-.3067-.164-.472-.3187-.472-.3187l.0186-.04s.2427-.0134.5467.0346c.1506.044.332.0307.5173.0654.1867.0306.384.0586.588.0533.4107.0133.8133-.1173 1.1053-.2307.2947-.1213.4667-.2546.4667-.2546z" fill="#333558"/><path d="m34.5028 22.824s.0866.62.0706 1.56c-.0093.4707-.052 1.02-.164 1.6027-.0573.292-.1599.5853-.2439.888-.132.2786-.2653.5626-.4.8466-.132.2894-.0974.4654.0799.6547.1787.1627.4267.276.6827.3387.2614.0533.5214.0613.7667.0453.2427-.0147.4787-.06.6654-.1547.1906-.08.364-.184.4693-.3186.132-.1174.1773-.2667.248-.3774.076-.2453.1039-.404.1039-.404h.0414s.0147.1547-.004.4427c-.0387.136-.064.324-.1973.488-.1027.1787-.2854.3533-.5094.472-.2187.1347-.488.2133-.772.2587-.2867.0546-.5946.02-.9066-.04-.3054-.0787-.6347-.204-.8867-.484-.1267-.1467-.2027-.3267-.2267-.5294.0067-.2053.056-.4226.1374-.5346.1466-.2734.292-.5454.4373-.812.0907-.284.2026-.5574.2733-.8347.1347-.5587.216-1.0933.256-1.556.08-.9253.0374-1.5493.0374-1.5493z" fill="#333558"/></svg>