<svg fill="none" height="141" viewBox="0 0 93 141" width="93" xmlns="http://www.w3.org/2000/svg"><path d="m.117305 5.10794c0-2.004 1.622435-3.62799 3.622875-3.62799h84.75602c1.9989 0 3.6211 1.62399 3.6211 3.62799v130.98906c0 2.003-1.6222 3.627-3.6211 3.627h-84.75602c-2.00044 0-3.622875-1.624-3.622875-3.627z" fill="#fff"/><path d="m25.0854 93.8506 1.4414 1.4347c5.3413 4.7237 8.8333 7.9097 8.8333 11.8177 0 3.178-2.4693 5.646-5.648 5.646-1.7533 0-3.4973-1.866-4.6267-3.201-1.1279 1.335-2.8733 3.201-4.6226 3.201-3.18 0-5.6494-2.468-5.6494-5.646 0-3.908 3.492-7.094 8.8334-11.8177z" fill="#73242f"/><path d="m25.1081 109.563c1.1307 1.33 2.8627 3.176 4.604 3.176 3.1787 0 5.648-2.468 5.648-5.647 0-3.908-3.492-7.0921-8.8333-11.8174l-1.4187-1.4133z" fill="#8c2a38"/><path d="m67.0281 28.4532 1.44 1.436c5.3414 4.7227 8.8334 7.908 8.8334 11.8174 0 3.1786-2.468 5.6466-5.648 5.6466-1.752 0-3.4961-1.8679-4.6254-3.2013-1.128 1.3334-2.8733 3.2013-4.624 3.2013-3.18 0-5.6493-2.468-5.6493-5.6466 0-3.9094 3.492-7.0947 8.8333-11.8174z" fill="#73242f"/><path d="m67.0508 44.1666c1.1293 1.332 2.8627 3.1747 4.6027 3.1747 3.18 0 5.648-2.4667 5.648-5.6467 0-3.908-3.492-7.0907-8.8334-11.816l-1.4173-1.4133z" fill="#8c2a38"/><path d="m67.0281 93.8506 1.44 1.4347c5.3414 4.7237 8.8334 7.9097 8.8334 11.8177 0 3.178-2.468 5.646-5.648 5.646-1.752 0-3.4961-1.866-4.6254-3.201-1.128 1.335-2.8733 3.201-4.624 3.201-3.18 0-5.6493-2.468-5.6493-5.646 0-3.908 3.492-7.094 8.8333-11.8177z" fill="#73242f"/><path d="m67.0508 109.563c1.1293 1.33 2.8627 3.176 4.6027 3.176 3.18 0 5.648-2.468 5.648-5.647 0-3.908-3.492-7.0921-8.8334-11.8174l-1.4173-1.4133z" fill="#8c2a38"/><path d="m25.0854 28.4532 1.4414 1.436c5.3413 4.7227 8.8333 7.908 8.8333 11.8174 0 3.1786-2.4693 5.6466-5.648 5.6466-1.7533 0-3.4973-1.8679-4.6267-3.2013-1.1279 1.3334-2.8733 3.2013-4.6226 3.2013-3.18 0-5.6494-2.468-5.6494-5.6466 0-3.9094 3.492-7.0947 8.8334-11.8174z" fill="#73242f"/><path d="m25.1081 44.1666c1.1307 1.332 2.8627 3.1747 4.604 3.1747 3.1787 0 5.648-2.4667 5.648-5.6467 0-3.908-3.492-7.0907-8.8333-11.816l-1.4187-1.4133z" fill="#8c2a38"/><g fill="#73242f"><path d="m79.5707 130.438h-1.4316v-1.07h1.4316v-2.395h1.3182v2.395h4.6987v.773l-4.6208 7.15h-1.3961zm4.5286 0h-3.2104v5.06l.1559-.283z"/><path d="m12.5032 10.7683h1.4316v1.0701h-1.4316v2.3954h-1.3182v-2.3954h-4.69863v-.7725l4.62073-7.15076h1.3961zm-4.52856 0h3.21036v-5.06015l-.1559.28348z"/><path d="m82.2281 113.109.7704.768c2.8584 2.527 4.7265 4.232 4.7265 6.323 0 1.7-1.3202 3.021-3.0218 3.021-.9375 0-1.8714-.998-2.4751-1.713-.604.715-1.5373 1.713-2.476 1.713-1.7 0-3.02-1.321-3.02-3.021 0-2.091 1.8667-3.796 4.7267-6.323z"/></g><path d="m82.2401 121.516c.6053.712 1.5308 1.7 2.4631 1.7 1.7016 0 3.0218-1.321 3.0218-3.023 0-2.09-1.8681-3.794-4.7265-6.322l-.7584-.756z" fill="#8c2a38"/><path d="m9.84276 28.0946-.76932-.7667c-2.85866-2.5293-4.72667-4.232-4.72667-6.324 0-1.7013 1.32-3.0213 3.02-3.0213.93867 0 1.87333 1 2.47599 1.7134.60404-.7134 1.53734-1.7134 2.47464-1.7134 1.7014 0 3.0214 1.32 3.0214 3.0213 0 2.092-1.8667 3.7947-4.7267 6.324z" fill="#73242f"/><path d="m9.83078 19.688c-.604-.7134-1.53066-1.6987-2.464-1.6987-1.7 0-3.02 1.3199-3.02 3.0199 0 2.092 1.86801 3.7961 4.72668 6.3241l.75732.756z" fill="#8c2a38"/></svg>