<svg fill="none" height="140" viewBox="0 0 93 140" width="93" xmlns="http://www.w3.org/2000/svg"><path d="m.117305 4.41327c0-2.004 1.622435-3.629365 3.622875-3.629365h84.75602c2 0 3.6211 1.625365 3.6211 3.629365v130.98773c0 2.006-1.6211 3.63-3.6211 3.63h-84.75602c-2.00044 0-3.622875-1.624-3.622875-3.63z" fill="#fff"/><path d="m46.0361 84.8426 1.4387 1.4333c5.3426 4.7267 8.8333 7.9107 8.8333 11.8187 0 3.1784-2.4667 5.6464-5.6467 5.6464-1.752 0-3.496-1.868-4.6253-3.201-1.128 1.333-2.8733 3.201-4.624 3.201-3.18 0-5.6493-2.468-5.6493-5.6464 0-3.908 3.4906-7.092 8.8333-11.8187z" fill="#73242f"/><path d="m46.0574 100.555c1.1307 1.33 2.8614 3.174 4.604 3.174 3.18 0 5.6467-2.466 5.6467-5.6451 0-3.9093-3.4907-7.092-8.8333-11.8173l-1.4174-1.4134z" fill="#8c2a38"/><path d="m46.0361 36.0746 1.4387 1.4333c5.3426 4.7254 8.8333 7.9107 8.8333 11.8187 0 3.1787-2.4667 5.6466-5.6467 5.6466-1.752 0-3.496-1.8679-4.6253-3.2013-1.128 1.3334-2.8733 3.2013-4.624 3.2013-3.18 0-5.6493-2.4679-5.6493-5.6466 0-3.908 3.4906-7.0933 8.8333-11.8187z" fill="#73242f"/><path d="m46.0574 51.7866c1.1307 1.3307 2.8614 3.1747 4.604 3.1747 3.18 0 5.6467-2.4667 5.6467-5.6453 0-3.9094-3.4907-7.092-8.8333-11.8174l-1.4174-1.4133z" fill="#8c2a38"/><path d="m82.2881 112.532.7693.768c2.8578 2.527 4.7266 4.231 4.7266 6.321 0 1.702-1.3203 3.023-3.0208 3.023-.9386 0-1.8724-1-2.4751-1.713-.604.713-1.5387 1.713-2.476 1.713-1.7 0-3.02-1.321-3.02-3.023 0-2.09 1.8667-3.794 4.7253-6.321z" fill="#73242f"/><path d="m82.3001 120.939c.6036.712 1.5297 1.698 2.4631 1.698 1.7005 0 3.0208-1.32 3.0208-3.02 0-2.092-1.8688-3.796-4.7266-6.324l-.7573-.756z" fill="#8c2a38"/><path d="m9.90145 27.5159-.76934-.7666c-2.85866-2.5267-4.72666-4.232-4.72666-6.3227 0-1.7013 1.31999-3.0213 3.01999-3.0213.93867 0 1.87334.9986 2.47601 1.712.60395-.7134 1.53865-1.712 2.47465-1.712 1.7013 0 3.0213 1.32 3.0213 3.0213 0 2.0907-1.8679 3.796-4.7253 6.3227z" fill="#73242f"/><path d="m9.88945 19.1106c-.604-.7133-1.52935-1.7-2.46401-1.7-1.7 0-3.01999 1.3214-3.01999 3.0214 0 2.0906 1.86799 3.7946 4.72666 6.3226l.75734.756z" fill="#8c2a38"/><g fill="#73242f"><path d="m78.3447 126.278h6.7609v.943l-3.5718 3.968c-.5292.6-.893 1.087-1.0914 1.46-.2032.378-.3047.768-.3047 1.17 0 .538.163.98.489 1.325s.7606.517 1.304.517c.652 0 1.1599-.186 1.5237-.56.359-.368.5386-.883.5386-1.545h1.3111c0 .95-.3048 1.718-.9142 2.304-.6142.586-1.434.878-2.4592.878-.9591 0-1.7174-.252-2.2749-.758-.5576-.501-.8363-1.169-.8363-2.005 0-1.016.6473-2.226 1.9418-3.629l2.7639-2.998h-5.1805z"/><path d="m13.7293 13.5365h-6.76101v-.9426l3.57181-3.96872c.5292-.60003.893-1.08667 1.0914-1.45992.2032-.37797.3048-.76775.3048-1.16935 0-.53861-.163-.98036-.489-1.32526s-.7607-.51735-1.304-.51735c-.65205 0-1.15995.18662-1.52375.55987-.35907.36852-.53861.88351-.53861 1.54496h-1.31109c0-.94965.30474-1.71741.91422-2.30327.61421-.58585 1.43393-.87878 2.45923-.87878.9591 0 1.7174.25277 2.2749.7583.5575.50082.8362 1.16936.8362 2.00562 0 1.0158-.6472 2.22531-1.9418 3.62853l-2.76392 2.99777h5.18062z"/></g></svg>