<svg fill="none" height="140" viewBox="0 0 93 140" width="93" xmlns="http://www.w3.org/2000/svg"><path d="m.117305 4.66528c0-2.004 1.622435-3.62806 3.622875-3.62806h84.75602c1.9989 0 3.6211 1.62406 3.6211 3.62806v130.98972c0 2.004-1.6222 3.626-3.6211 3.626h-84.75602c-2.00044 0-3.622875-1.622-3.622875-3.626z" fill="#fff"/><path d="m25.0854 93.4079 1.4414 1.4346c5.3413 4.724 8.8333 7.9095 8.8333 11.8185 0 3.178-2.4693 5.647-5.648 5.647-1.7533 0-3.4973-1.868-4.6267-3.203-1.1279 1.335-2.8733 3.203-4.6226 3.203-3.18 0-5.6494-2.469-5.6494-5.647 0-3.909 3.492-7.0945 8.8334-11.8185z" fill="#73242f"/><path d="m25.1081 109.12c1.1307 1.332 2.8627 3.176 4.604 3.176 3.1787 0 5.648-2.467 5.648-5.647 0-3.908-3.492-7.0931-8.8333-11.8158l-1.4187-1.4146z" fill="#8c2a38"/><path d="m67.0281 28.0119 1.44 1.4333c5.3414 4.724 8.8334 7.9094 8.8334 11.8187 0 3.1787-2.468 5.6467-5.648 5.6467-1.752 0-3.4961-1.8681-4.6254-3.2014-1.128 1.3333-2.8733 3.2014-4.624 3.2014-3.18 0-5.6493-2.468-5.6493-5.6467 0-3.9093 3.492-7.0947 8.8333-11.8187z" fill="#73242f"/><path d="m67.0508 43.7226c1.1293 1.3333 2.8627 3.176 4.6027 3.176 3.18 0 5.648-2.4667 5.648-5.6467 0-3.908-3.492-7.0907-8.8334-11.816l-1.4173-1.4133z" fill="#8c2a38"/><path d="m67.0281 93.4079 1.44 1.4346c5.3414 4.724 8.8334 7.9095 8.8334 11.8185 0 3.178-2.468 5.647-5.648 5.647-1.752 0-3.4961-1.868-4.6254-3.203-1.128 1.335-2.8733 3.203-4.624 3.203-3.18 0-5.6493-2.469-5.6493-5.647 0-3.909 3.492-7.0945 8.8333-11.8185z" fill="#73242f"/><path d="m67.0508 109.12c1.1293 1.332 2.8627 3.176 4.6027 3.176 3.18 0 5.648-2.467 5.648-5.647 0-3.908-3.492-7.0931-8.8334-11.8158l-1.4173-1.4146z" fill="#8c2a38"/><path d="m25.0854 60.7106 1.4414 1.4346c5.3413 4.724 8.8333 7.9094 8.8333 11.816 0 3.18-2.4693 5.648-5.648 5.648-1.7533 0-3.4973-1.868-4.6267-3.2027-1.1279 1.3347-2.8733 3.2027-4.6226 3.2027-3.18 0-5.6494-2.468-5.6494-5.648 0-3.9066 3.492-7.092 8.8334-11.816z" fill="#73242f"/><path d="m25.1081 76.4226c1.1307 1.3306 2.8627 3.176 4.604 3.176 3.1787 0 5.648-2.4694 5.648-5.648 0-3.9067-3.492-7.092-8.8333-11.8174l-1.4187-1.4119z" fill="#8c2a38"/><path d="m67.0281 60.7106 1.44 1.4346c5.3414 4.724 8.8334 7.9094 8.8334 11.816 0 3.18-2.468 5.648-5.648 5.648-1.752 0-3.4961-1.868-4.6254-3.2027-1.128 1.3347-2.8733 3.2027-4.624 3.2027-3.18 0-5.6493-2.468-5.6493-5.648 0-3.9066 3.492-7.092 8.8333-11.816z" fill="#73242f"/><path d="m67.0508 76.4226c1.1293 1.3306 2.8627 3.176 4.6027 3.176 3.18 0 5.648-2.4694 5.648-5.648 0-3.9067-3.492-7.092-8.8334-11.8174l-1.4173-1.4119z" fill="#8c2a38"/><path d="m25.0854 28.0119 1.4414 1.4333c5.3413 4.724 8.8333 7.9094 8.8333 11.8187 0 3.1787-2.4693 5.6467-5.648 5.6467-1.7533 0-3.4973-1.8681-4.6267-3.2014-1.1279 1.3333-2.8733 3.2014-4.6226 3.2014-3.18 0-5.6494-2.468-5.6494-5.6467 0-3.9093 3.492-7.0947 8.8334-11.8187z" fill="#73242f"/><path d="m25.1081 43.7226c1.1307 1.3333 2.8627 3.176 4.604 3.176 3.1787 0 5.648-2.4667 5.648-5.6467 0-3.908-3.492-7.0907-8.8333-11.816l-1.4187-1.4133z" fill="#8c2a38"/><g fill="#73242f"><path d="m79.9605 136.856v-1.113h.241c1.0205-.019 1.8331-.321 2.4379-.907.6047-.586.9544-1.41 1.0488-2.473-.5433.623-1.2851.935-2.2253.935-.8977 0-1.6134-.317-2.1473-.95-.5386-.633-.8079-1.45-.8079-2.452 0-1.063.2905-1.913.8717-2.551.5764-.638 1.3512-.957 2.3245-.957.9874 0 1.7883.378 2.4025 1.134.6142.761.9213 1.739.9213 2.934v.503c0 1.9-.404 3.35-1.2119 4.352-.8126 1.006-2.0198 1.521-3.6214 1.545zm1.7221-4.649c.4489 0 .8623-.135 1.2403-.404.3779-.27.6401-.607.7866-1.014v-.482c0-.85-.1913-1.535-.574-2.055s-.8599-.779-1.4316-.779c-.5906 0-1.0536.217-1.3891.652-.3401.434-.5102 1.004-.5102 1.708 0 .708.1724 1.28.5173 1.715.3402.439.7938.659 1.3607.659z"/><path d="m12.1134 3.46403v1.11265h-.2409c-1.0205.0189-1.8332.32128-2.43794.90713-.60476.58586-.95438 1.41031-1.04888 2.47336.54334-.62365 1.28511-.93548 2.22532-.93548.8977 0 1.6135.31655 2.1473.94965.5387.63311.808 1.45047.808 2.45206 0 1.0631-.2906 1.9135-.8717 2.5514-.5764.6378-1.3513.9567-2.3246.9567-.98741 0-1.78824-.378-2.40245-1.1339-.6142-.7607-.92131-1.7387-.92131-2.93403v-.50318c0-1.89931.40396-3.34978 1.21188-4.3514.81264-1.00635 2.01978-1.52134 3.62148-1.54496zm-1.7221 4.64905c-.44884 0-.86225.13466-1.24022.40396-.37797.26931-.64019.60712-.78666 1.01344v.48192c0 .8504.19135 1.5355.57405 2.0552.38269.5197.85988.7796 1.43153.7796.5906 0 1.0536-.2173 1.3891-.652.3402-.4347.5102-1.004.5102-1.708 0-.70868-.1724-1.28036-.5173-1.71503-.3402-.43939-.7937-.65909-1.3607-.65909z"/><path d="m82.2281 112.667.7704.768c2.8584 2.526 4.7265 4.232 4.7265 6.322 0 1.7-1.3202 3.022-3.0218 3.022-.9375 0-1.8714-1-2.4751-1.714-.604.714-1.5373 1.714-2.476 1.714-1.7 0-3.02-1.322-3.02-3.022 0-2.09 1.8667-3.796 4.7267-6.322z"/></g><path d="m82.2401 121.073c.6053.712 1.5308 1.7 2.4631 1.7 1.7016 0 3.0218-1.321 3.0218-3.021 0-2.091-1.8681-3.796-4.7265-6.323l-.7584-.757z" fill="#8c2a38"/><path d="m9.84276 27.6519-.76932-.7666c-2.85866-2.5294-4.72667-4.2321-4.72667-6.3241 0-1.7 1.32-3.02 3.02-3.02.93867 0 1.87333.9987 2.47599 1.712.60404-.7133 1.53734-1.712 2.47464-1.712 1.7014 0 3.0214 1.32 3.0214 3.02 0 2.092-1.8667 3.7947-4.7267 6.3241z" fill="#73242f"/><path d="m9.83078 19.2452c-.604-.712-1.53066-1.6986-2.464-1.6986-1.7 0-3.02 1.32-3.02 3.02 0 2.092 1.86801 3.796 4.72668 6.3226l.75732.7574z" fill="#8c2a38"/></svg>