<svg fill="none" height="140" viewBox="0 0 93 140" width="93" xmlns="http://www.w3.org/2000/svg"><path d="m.820127 4.21599c0-2.00533 1.622473-3.628025 3.622903-3.628025h84.75557c1.9991 0 3.6215 1.622695 3.6215 3.628025v130.98901c0 2.004-1.6224 3.628-3.6215 3.628h-84.75557c-2.00043 0-3.622903-1.624-3.622903-3.628z" fill="#fff"/><path d="m25.7668 99.4839 1.4387 1.4351c5.344 4.724 8.8346 7.909 8.8346 11.817 0 3.179-2.4679 5.648-5.6466 5.648-1.7547 0-3.4974-1.869-4.6267-3.203-1.128 1.334-2.8733 3.203-4.6253 3.203-3.1787 0-5.6467-2.469-5.6467-5.648 0-3.908 3.4907-7.093 8.832-11.817z" fill="#73242f"/><path d="m25.7895 115.196c1.1293 1.332 2.8613 3.176 4.604 3.176 3.1787 0 5.6466-2.468 5.6466-5.648 0-3.907-3.4906-7.091-8.8346-11.816l-1.416-1.412z" fill="#8c2a38"/><path d="m67.7095 99.4839 1.4386 1.4351c5.3427 4.724 8.8334 7.909 8.8334 11.817 0 3.179-2.4667 5.648-5.6467 5.648-1.752 0-3.4973-1.869-4.6253-3.203-1.1294 1.334-2.8747 3.203-4.6254 3.203-3.1786 0-5.648-2.469-5.648-5.648 0-3.908 3.4907-7.093 8.8334-11.817z" fill="#73242f"/><path d="m67.7308 115.196c1.1307 1.332 2.8626 3.176 4.604 3.176 3.18 0 5.6467-2.468 5.6467-5.648 0-3.907-3.4907-7.091-8.8334-11.816l-1.4173-1.412z" fill="#8c2a38"/><path d="m25.7668 73.3386 1.4387 1.436c5.344 4.724 8.8346 7.9081 8.8346 11.8161 0 3.1786-2.4679 5.6466-5.6466 5.6466-1.7547 0-3.4974-1.868-4.6267-3.2013-1.128 1.3333-2.8733 3.2013-4.6253 3.2013-3.1787 0-5.6467-2.468-5.6467-5.6466 0-3.908 3.4907-7.0921 8.832-11.8161z" fill="#73242f"/><path d="m25.7895 89.0506c1.1293 1.332 2.8613 3.1747 4.604 3.1747 3.1787 0 5.6466-2.4666 5.6466-5.6453 0-3.908-3.4906-7.092-8.8346-11.8174l-1.416-1.4133z" fill="#8c2a38"/><path d="m67.7095 73.3386 1.4386 1.436c5.3427 4.724 8.8334 7.9081 8.8334 11.8161 0 3.1786-2.4667 5.6466-5.6467 5.6466-1.752 0-3.4973-1.868-4.6253-3.2013-1.1294 1.3333-2.8747 3.2013-4.6254 3.2013-3.1786 0-5.648-2.468-5.648-5.6466 0-3.908 3.4907-7.0921 8.8334-11.8161z" fill="#73242f"/><path d="m67.7308 89.0506c1.1307 1.332 2.8626 3.1747 4.604 3.1747 3.18 0 5.6467-2.4666 5.6467-5.6453 0-3.908-3.4907-7.092-8.8334-11.8174l-1.4173-1.4133z" fill="#8c2a38"/><path d="m67.7095 47.1933 1.4386 1.4347c5.3427 4.724 8.8334 7.908 8.8334 11.8173 0 3.1787-2.4667 5.648-5.6467 5.648-1.752 0-3.4973-1.8693-4.6253-3.2027-1.1294 1.3334-2.8747 3.2027-4.6254 3.2027-3.1786 0-5.648-2.4693-5.648-5.648 0-3.9093 3.4907-7.0933 8.8334-11.8173z" fill="#73242f"/><path d="m67.7308 62.9066c1.1307 1.3307 2.8626 3.1747 4.604 3.1747 3.18 0 5.6467-2.468 5.6467-5.6467 0-3.908-3.4907-7.0906-8.8334-11.8173l-1.4173-1.412z" fill="#8c2a38"/><path d="m25.7668 47.1933 1.4387 1.4347c5.344 4.724 8.8346 7.908 8.8346 11.8173 0 3.1787-2.4679 5.648-5.6466 5.648-1.7547 0-3.4974-1.8693-4.6267-3.2027-1.128 1.3334-2.8733 3.2027-4.6253 3.2027-3.1787 0-5.6467-2.4693-5.6467-5.648 0-3.9093 3.4907-7.0933 8.832-11.8173z" fill="#73242f"/><path d="m25.7895 62.9066c1.1293 1.3307 2.8613 3.1747 4.604 3.1747 3.1787 0 5.6466-2.468 5.6466-5.6467 0-3.908-3.4906-7.0906-8.8346-11.8173l-1.416-1.412z" fill="#8c2a38"/><path d="m67.7095 21.0386 1.4386 1.4334c5.3427 4.7253 8.8334 7.9106 8.8334 11.8173 0 3.18-2.4667 5.648-5.6467 5.648-1.752 0-3.4973-1.8693-4.6253-3.2027-1.1294 1.3334-2.8747 3.2027-4.6254 3.2027-3.1786 0-5.648-2.468-5.648-5.648 0-3.9067 3.4907-7.092 8.8334-11.8173z" fill="#73242f"/><path d="m67.7308 36.7493c1.1307 1.332 2.8626 3.1747 4.604 3.1747 3.18 0 5.6467-2.4653 5.6467-5.6453 0-3.9094-3.4907-7.0907-8.8334-11.8174l-1.4173-1.412z" fill="#8c2a38"/><path d="m25.7668 21.0386 1.4387 1.4334c5.344 4.7253 8.8346 7.9106 8.8346 11.8173 0 3.18-2.4679 5.648-5.6466 5.648-1.7547 0-3.4974-1.8693-4.6267-3.2027-1.128 1.3334-2.8733 3.2027-4.6253 3.2027-3.1787 0-5.6467-2.468-5.6467-5.648 0-3.9067 3.4907-7.092 8.832-11.8173z" fill="#73242f"/><path d="m25.7895 36.7493c1.1293 1.332 2.8613 3.1747 4.604 3.1747 3.1787 0 5.6466-2.4653 5.6466-5.6453 0-3.9094-3.4906-7.0907-8.8346-11.8174l-1.416-1.412z" fill="#8c2a38"/><g fill="#73242f"><path d="m80.7846 130.616c.274-.326.6024-.588.9851-.786.378-.199.7937-.298 1.2473-.298.5953 0 1.115.147 1.5592.44.4393.292.7795.703 1.0205 1.233.2409.534.3614 1.122.3614 1.764 0 .69-.1299 1.311-.3898 1.864-.2646.553-.6378.976-1.1197 1.269s-1.0442.439-1.6867.439c-1.0205 0-1.8237-.383-2.4096-1.148-.5906-.761-.8859-1.8-.8859-3.118v-.383c0-2.008.3969-3.475 1.1907-4.401.7937-.921 1.9914-1.394 3.593-1.417h.2552v1.105h-.2764c-1.082.019-1.9135.3-2.4946.844-.5812.548-.8977 1.412-.9497 2.593zm2.0198 0c-.4394 0-.8433.135-1.2119.404-.3732.27-.6449.603-.815 1v.524c0 .86.1867 1.559.5599 2.098.3732.538.8457.808 1.4174.808.5764 0 1.0394-.222 1.389-.666.3497-.44.5245-1.021.5245-1.744 0-.704-.1677-1.285-.5032-1.743-.3402-.454-.7937-.681-1.3607-.681z"/><path d="m12.693 8.80484c-.274.326-.6024.58822-.9851.78665-.3779.19844-.7937.29766-1.2473.29766-.59529 0-1.115-.14647-1.55912-.4394-.43939-.29293-.77957-.70397-1.02052-1.23313-.24096-.53389-.36144-1.12211-.36144-1.76466 0-.6898.12993-1.31109.38978-1.86387.26458-.55279.63783-.97565 1.11975-1.26857.48191-.29293 1.04415-.4394 1.68665-.4394 1.0206 0 1.8238.3827 2.4096 1.14809.5906.76067.8859 1.8001.8859 3.11827v.3827c0 2.00798-.3969 3.47502-1.1906 4.40102-.7938.9213-1.9915 1.3938-3.59312 1.4174h-.25513v-1.1056h.27639c1.08196-.0189 1.91346-.3 2.49466-.8433.5811-.5481.8976-1.4127.9496-2.59386zm-2.0198 0c.4394 0 .8434-.13465 1.2119-.40396.3732-.26931.6449-.60239.815-.99926v-.52444c0-.85989-.1866-1.55914-.5599-2.09775-.3732-.53861-.8457-.80791-1.4174-.80791-.5764 0-1.03939.22206-1.38901.66617-.34963.4394-.52444 1.02053-.52444 1.7434 0 .70397.16772 1.28511.50318 1.7434.34017.45356.79377.68035 1.36067.68035z"/><path d="m82.9308 112.219.7693.768c2.8587 2.526 4.7267 4.232 4.7267 6.321 0 1.7-1.32 3.023-3.02 3.023-.9387 0-1.8733-1-2.476-1.715-.604.715-1.5373 1.715-2.4747 1.715-1.7013 0-3.0213-1.323-3.0213-3.023 0-2.089 1.868-3.795 4.7267-6.321z"/></g><path d="m82.9428 120.624c.604.712 1.5306 1.7 2.464 1.7 1.7 0 3.02-1.321 3.02-3.021 0-2.091-1.868-3.796-4.7267-6.323l-.7573-.757z" fill="#8c2a38"/><path d="m10.5455 27.2026-.77068-.768c-2.85866-2.5253-4.72669-4.2319-4.72669-6.3226 0-1.7 1.31999-3.0214 3.02266-3.0214.93733 0 1.87067 1 2.47471 1.7147.604-.7147 1.5373-1.7147 2.4746-1.7147 1.7014 0 3.0214 1.3214 3.0214 3.0214 0 2.0907-1.8667 3.7973-4.7267 6.3226z" fill="#73242f"/><path d="m10.5335 18.7973c-.60536-.7147-1.53072-1.7013-2.46272-1.7013-1.70266 0-3.02265 1.32-3.02265 3.0213 0 2.0907 1.86802 3.7973 4.72669 6.3227l.75868.7573z" fill="#8c2a38"/><path d="m46.7388 60.26 1.4387 1.4346c5.3427 4.7254 8.8346 7.9107 8.8346 11.8187 0 3.1787-2.4693 5.648-5.648 5.648-1.7533 0-3.4973-1.8693-4.6253-3.2027-1.1293 1.3334-2.8746 3.2027-4.6253 3.2027-3.18 0-5.648-2.4693-5.648-5.648 0-3.908 3.4907-7.0933 8.8334-11.8187z" fill="#73242f"/><path d="m46.7588 75.9733c1.132 1.332 2.864 3.176 4.6053 3.176 3.1787 0 5.648-2.468 5.648-5.648 0-3.9067-3.4919-7.0907-8.8346-11.816l-1.4187-1.412z" fill="#8c2a38"/></svg>