<svg fill="none" height="140" viewBox="0 0 93 140" width="93" xmlns="http://www.w3.org/2000/svg"><path d="m.820127 4.66528c0-2.004 1.622473-3.62806 3.622903-3.62806h84.75557c1.9991 0 3.6215 1.62406 3.6215 3.62806v130.98972c0 2.004-1.6224 3.626-3.6215 3.626h-84.75557c-2.00043 0-3.622903-1.622-3.622903-3.626z" fill="#fff"/><path d="m25.7895 93.4079 1.4386 1.4346c5.3427 4.724 8.8334 7.9095 8.8334 11.8185 0 3.178-2.468 5.647-5.6453 5.647-1.7547 0-3.4987-1.868-4.6267-3.203-1.1294 1.335-2.8734 3.203-4.6254 3.203-3.18 0-5.6479-2.469-5.6479-5.647 0-3.909 3.4906-7.0945 8.8333-11.8185z" fill="#73242f"/><path d="m25.8108 109.12c1.1307 1.332 2.8627 3.176 4.6054 3.176 3.1773 0 5.6453-2.467 5.6453-5.647 0-3.908-3.4907-7.0931-8.8334-11.8158l-1.4173-1.4146z" fill="#8c2a38"/><path d="m67.7322 28.0119 1.4386 1.4333c5.3427 4.724 8.8333 7.9094 8.8333 11.8187 0 3.1787-2.4693 5.6467-5.6466 5.6467-1.7547 0-3.4973-1.8681-4.6253-3.2014-1.1307 1.3333-2.8747 3.2014-4.6254 3.2014-3.18 0-5.648-2.468-5.648-5.6467 0-3.9093 3.4907-7.0947 8.8333-11.8187z" fill="#73242f"/><path d="m67.7522 43.7226c1.1306 1.3333 2.8626 3.176 4.6053 3.176 3.1773 0 5.6466-2.4667 5.6466-5.6467 0-3.908-3.4906-7.0907-8.8333-11.816l-1.4186-1.4133z" fill="#8c2a38"/><path d="m67.7322 93.4079 1.4386 1.4346c5.3427 4.724 8.8333 7.9095 8.8333 11.8185 0 3.178-2.4693 5.647-5.6466 5.647-1.7547 0-3.4973-1.868-4.6253-3.203-1.1307 1.335-2.8747 3.203-4.6254 3.203-3.18 0-5.648-2.469-5.648-5.647 0-3.909 3.4907-7.0945 8.8333-11.8185z" fill="#73242f"/><path d="m67.7522 109.12c1.1306 1.332 2.8626 3.176 4.6053 3.176 3.1773 0 5.6466-2.467 5.6466-5.647 0-3.908-3.4906-7.0931-8.8333-11.8158l-1.4186-1.4146z" fill="#8c2a38"/><path d="m25.7895 60.7106 1.4386 1.4346c5.3427 4.724 8.8334 7.9094 8.8334 11.816 0 3.18-2.468 5.648-5.6453 5.648-1.7547 0-3.4987-1.868-4.6267-3.2027-1.1294 1.3347-2.8734 3.2027-4.6254 3.2027-3.18 0-5.6479-2.468-5.6479-5.648 0-3.9066 3.4906-7.092 8.8333-11.816z" fill="#73242f"/><path d="m25.8108 76.4226c1.1307 1.3306 2.8627 3.176 4.6054 3.176 3.1773 0 5.6453-2.4694 5.6453-5.648 0-3.9067-3.4907-7.092-8.8334-11.8174l-1.4173-1.4119z" fill="#8c2a38"/><path d="m67.7322 60.7106 1.4386 1.4346c5.3427 4.724 8.8333 7.9094 8.8333 11.816 0 3.18-2.4693 5.648-5.6466 5.648-1.7547 0-3.4973-1.868-4.6253-3.2027-1.1307 1.3347-2.8747 3.2027-4.6254 3.2027-3.18 0-5.648-2.468-5.648-5.648 0-3.9066 3.4907-7.092 8.8333-11.816z" fill="#73242f"/><path d="m67.7522 76.4226c1.1306 1.3306 2.8626 3.176 4.6053 3.176 3.1773 0 5.6466-2.4694 5.6466-5.648 0-3.9067-3.4906-7.092-8.8333-11.8174l-1.4186-1.4119z" fill="#8c2a38"/><path d="m25.7895 28.0119 1.4386 1.4333c5.3427 4.724 8.8334 7.9094 8.8334 11.8187 0 3.1787-2.468 5.6467-5.6453 5.6467-1.7547 0-3.4987-1.8681-4.6267-3.2014-1.1294 1.3333-2.8734 3.2014-4.6254 3.2014-3.18 0-5.6479-2.468-5.6479-5.6467 0-3.9093 3.4906-7.0947 8.8333-11.8187z" fill="#73242f"/><path d="m25.8108 43.7226c1.1307 1.3333 2.8627 3.176 4.6054 3.176 3.1773 0 5.6453-2.4667 5.6453-5.6467 0-3.908-3.4907-7.0907-8.8334-11.816l-1.4173-1.4133z" fill="#8c2a38"/><g fill="#73242f"><path d="m79.1475 136.112 4.2735-9.582h1.3748l-4.2592 9.241h5.5845v1.078h-6.9736z"/><path d="m14.3301 4.20816-4.2734 9.58164h-1.37492l4.25932-9.24147h-5.58458v-1.07722h6.97358z"/><path d="m82.9308 112.667.7693.768c2.8587 2.526 4.7267 4.232 4.7267 6.322 0 1.7-1.32 3.022-3.02 3.022-.9387 0-1.8733-1-2.476-1.714-.604.714-1.5373 1.714-2.4747 1.714-1.7013 0-3.0213-1.322-3.0213-3.022 0-2.09 1.868-3.796 4.7267-6.322z"/></g><path d="m82.9428 121.073c.604.712 1.5306 1.7 2.464 1.7 1.7 0 3.02-1.321 3.02-3.021 0-2.091-1.868-3.796-4.7267-6.323l-.7573-.757z" fill="#8c2a38"/><path d="m10.5455 27.6519-.77068-.7666c-2.85866-2.5294-4.72669-4.2321-4.72669-6.3241 0-1.7 1.31999-3.02 3.02266-3.02.93733 0 1.87067.9987 2.47471 1.712.604-.7133 1.5373-1.712 2.4746-1.712 1.7014 0 3.0214 1.32 3.0214 3.02 0 2.092-1.8667 3.7947-4.7267 6.3241z" fill="#73242f"/><path d="m10.5335 19.2452c-.60536-.712-1.53072-1.6986-2.46272-1.6986-1.70266 0-3.02265 1.32-3.02265 3.02 0 2.092 1.86802 3.796 4.72669 6.3226l.75868.7574z" fill="#8c2a38"/><path d="m46.7388 78.6186 1.4387 1.4346c5.3427 4.724 8.8333 7.908 8.8333 11.8173 0 3.1787-2.468 5.6467-5.648 5.6467-1.752 0-3.496-1.8679-4.624-3.2013-1.1293 1.3334-2.8746 3.2013-4.6253 3.2013-3.18 0-5.648-2.468-5.648-5.6467 0-3.9093 3.4907-7.0933 8.8333-11.8173z" fill="#73242f"/><path d="m46.7588 94.3306c1.1307 1.332 2.864 3.1746 4.604 3.1746 3.18 0 5.648-2.4666 5.648-5.6466 0-3.908-3.4906-7.0907-8.8333-11.816l-1.4187-1.4133z" fill="#8c2a38"/></svg>