<svg fill="none" height="140" viewBox="0 0 93 140" width="93" xmlns="http://www.w3.org/2000/svg"><path d="m.820127 4.41327c0-2.004 1.622473-3.629365 3.622903-3.629365h84.75557c1.9991 0 3.6215 1.625365 3.6215 3.629365v130.98773c0 2.006-1.6224 3.63-3.6215 3.63h-84.75557c-2.00043 0-3.622903-1.624-3.622903-3.63z" fill="#fff"/><path d="m46.7388 60.4586 1.4387 1.4347c5.3427 4.724 8.8346 7.9093 8.8346 11.8173 0 3.1773-2.4693 5.6467-5.648 5.6467-1.7533 0-3.4973-1.868-4.6253-3.2014-1.1293 1.3334-2.8746 3.2014-4.6253 3.2014-3.18 0-5.6467-2.4694-5.6467-5.6467 0-3.908 3.4894-7.0933 8.8321-11.8173z" fill="#73242f"/><path d="m46.7602 76.1693c1.1306 1.3333 2.8626 3.1759 4.6039 3.1759 3.1787 0 5.648-2.4666 5.648-5.6453 0-3.908-3.4919-7.0933-8.8346-11.8173l-1.4173-1.4133z" fill="#8c2a38"/><path d="m25.7895 93.1573 1.4386 1.4346c5.344 4.724 8.8347 7.9081 8.8347 11.8171 0 3.179-2.4693 5.646-5.6466 5.646-1.7547 0-3.4987-1.867-4.6267-3.202-1.1294 1.335-2.8734 3.202-4.6254 3.202-3.18 0-5.6479-2.467-5.6479-5.646 0-3.909 3.492-7.0931 8.8333-11.8171z" fill="#73242f"/><path d="m25.8108 108.869c1.1307 1.331 2.8627 3.176 4.6054 3.176 3.1773 0 5.6466-2.469 5.6466-5.648 0-3.906-3.4907-7.0918-8.8347-11.8158l-1.4173-1.4146z" fill="#8c2a38"/><path d="m67.7322 27.7599 1.4386 1.4347c5.3427 4.724 8.8333 7.9093 8.8333 11.8173 0 3.1787-2.4693 5.648-5.6466 5.648-1.7533 0-3.4973-1.8693-4.6253-3.2026-1.1307 1.3333-2.8747 3.2026-4.6254 3.2026-3.18 0-5.648-2.4693-5.648-5.648 0-3.908 3.4907-7.0933 8.8333-11.8173z" fill="#73242f"/><path d="m67.7522 43.4719c1.1306 1.332 2.864 3.176 4.6053 3.176 3.1773 0 5.6466-2.468 5.6466-5.648 0-3.9066-3.4906-7.0906-8.8333-11.816l-1.4186-1.412z" fill="#8c2a38"/><g fill="#73242f"><path d="m83.9029 132.074h-.9851c-.6189.009-1.1056.172-1.4599.489-.3544.316-.5315.744-.5315 1.283 0 1.209.6023 1.814 1.8071 1.814.567 0 1.0206-.163 1.3607-.489.3355-.321.5032-.749.5032-1.283h1.3111c0 .817-.2977 1.495-.893 2.034-.6.543-1.3607.815-2.282.815-.9732 0-1.7363-.257-2.2891-.772-.5527-.515-.8291-1.231-.8291-2.148 0-.449.1464-.883.4394-1.304.2882-.42.6827-.734 1.1835-.942-.567-.18-1.004-.478-1.3111-.893-.3118-.416-.4677-.924-.4677-1.524 0-.926.3023-1.661.9071-2.204.6047-.543 1.3914-.815 2.3599-.815.9686 0 1.7576.262 2.3671.787.6048.524.9071 1.216.9071 2.076h-1.3181c0-.543-.1772-.978-.5316-1.304-.3543-.326-.8291-.489-1.4245-.489-.6331 0-1.1173.165-1.4528.496-.3354.331-.5032.806-.5032 1.425 0 .6.1843 1.06.5528 1.382.3685.321.9001.486 1.5946.496h.9851z"/><path d="m9.57474 7.73931h.98506c.619-.00945 1.1056-.17245 1.46-.489.3543-.31655.5315-.74414.5315-1.28275 0-1.20951-.6024-1.81426-1.8072-1.81426-.567 0-1.02053.163-1.36071.489-.33545.32128-.50317.74886-.50317 1.28274h-1.31109c0-.81736.29765-1.49535.89296-2.03396.60003-.54334 1.3607-.815 2.28201-.815.9733 0 1.7363.25749 2.2891.77248.5528.51498.8292 1.23077.8292 2.14735 0 .44884-.1465.88351-.4394 1.30401-.2882.42049-.6827.73468-1.1836.94256.567.17954 1.004.47719 1.3111.89296.3119.41577.4678.92366.4678 1.52366 0 .9261-.3024 1.6608-.9072 2.2041-.6047.5433-1.3914.815-2.3599.815-.96857 0-1.75759-.2622-2.36707-.7867-.60475-.5244-.90713-1.2166-.90713-2.0764h1.31818c0 .5433.17717.978.53152 1.304s.8292.489 1.4245.489c.6331 0 1.1174-.1654 1.4528-.4961.3355-.3308.5032-.8056.5032-1.4245 0-.6-.1843-1.06069-.5528-1.38197s-.9-.48664-1.5946-.49609h-.98506z"/><path d="m82.9308 112.415.7706.768c2.8587 2.528 4.7254 4.232 4.7254 6.322 0 1.702-1.32 3.022-3.02 3.022-.9387 0-1.872-.999-2.476-1.712-.604.713-1.5373 1.712-2.4747 1.712-1.7013 0-3.0213-1.32-3.0213-3.022 0-2.09 1.868-3.794 4.7267-6.322z"/></g><path d="m82.9428 120.821c.604.714 1.5306 1.7 2.464 1.7 1.7 0 3.02-1.32 3.02-3.021 0-2.091-1.8667-3.795-4.7254-6.324l-.7586-.755z" fill="#8c2a38"/><path d="m10.5455 27.3999-.77068-.7666c-2.85866-2.528-4.72669-4.232-4.72669-6.3227 0-1.7013 1.31999-3.0226 3.02266-3.0226.93733 0 1.87067.9999 2.47471 1.7132.604-.7133 1.5373-1.7132 2.4746-1.7132 1.7014 0 3.0214 1.3213 3.0214 3.0226 0 2.0907-1.8667 3.7947-4.7267 6.3227z" fill="#73242f"/><path d="m10.5335 18.9946c-.60536-.7147-1.53072-1.7-2.46272-1.7-1.70266 0-3.02265 1.32-3.02265 3.0213 0 2.0907 1.86802 3.7947 4.72669 6.3227l.75868.756z" fill="#8c2a38"/></svg>