<svg fill="none" height="141" viewBox="0 0 92 141" width="92" xmlns="http://www.w3.org/2000/svg"><path d="m-.00000287 4.67274c0-2.0281 1.62240287-3.67274 3.62284287-3.67274h84.75426c2.0004 0 3.6229 1.64464 3.6229 3.67274v132.65326c0 2.028-1.6225 3.674-3.6229 3.674h-84.75426c-2.00044 0-3.62284287-1.646-3.62284287-3.674z" fill="#fff"/><path d="m79.7935 121.456c.6027.497 1.228 1.008 1.7066 1.575.0814.097.1987.149.3214.149h.0253c.1253 0 .244-.052.3253-.149.4774-.567 1.104-1.078 1.7067-1.575 1.2786-1.044 2.5973-2.128 2.5973-3.805 0-1.518-1.0599-2.58-2.5853-2.58-.736 0-1.376.432-1.812.828.208-.894.6-1.954 1.3373-2.784h-3.16c.7387.833 1.1307 1.893 1.3387 2.789-.4347-.399-1.0773-.833-1.8147-.833-1.5226 0-2.5853 1.062-2.5853 2.58 0 1.674 1.3214 2.758 2.5987 3.805z" fill="#302f36"/><path d="m81.8468 113.115v10.065c.1253 0 .244-.052.3253-.149.4774-.567 1.104-1.078 1.7067-1.575 1.2786-1.044 2.5973-2.128 2.5973-3.805 0-1.518-1.0599-2.58-2.5853-2.58-.736 0-1.376.432-1.812.828.208-.894.6-1.954 1.3373-2.784z" fill="#46464e"/><path d="m81.9482 131.869 1.2615-1.311v-3.487h1.3607v10.319h-1.3607v-5.103l-4.5853 5.103h-1.6442l4.0609-4.557-4.3798-5.762h1.63z" fill="#302f36"/><path d="m11.4708 19.9453c-.6027-.4973-1.2293-1.008-1.70798-1.576-.07867-.096-.19869-.148-.32136-.148h-.02532c-.124 0-.24269.052-.32403.148-.47866.568-1.10534 1.0787-1.708 1.576-1.27734 1.044-2.59733 2.128-2.59733 3.804 0 1.5213 1.06135 2.5813 2.58535 2.5813.736 0 1.37731-.432 1.81465-.828-.212.896-.60264 1.9534-1.33998 2.784h3.16c-.7387-.8306-1.12938-1.8933-1.33871-2.7893.43471.3987 1.07871.8333 1.81471.8333 1.5227 0 2.5867-1.06 2.5867-2.5813 0-1.6733-1.3214-2.7573-2.5987-3.804z" fill="#302f36"/><path d="m9.41614 28.2866v-10.0653c-.124 0-.24269.052-.32403.148-.47866.568-1.10534 1.0787-1.708 1.576-1.27734 1.044-2.59733 2.128-2.59733 3.804 0 1.5213 1.06135 2.5813 2.58535 2.5813.736 0 1.37731-.432 1.81465-.828-.212.896-.60264 1.9534-1.33998 2.784z" fill="#46464e"/><path d="m9.31469 9.532-1.26148 1.3111v3.4868h-1.3607v-10.31866h1.3607v5.10263l4.58529-5.10263h1.6442l-4.0609 4.55693 4.3798 5.76173h-1.63z" fill="#302f36"/><path d="m68.1855 39.2813s5.404 1.9533 10.436 7.416v6.6907h-10.436z" fill="#302f36"/><path d="m78.6215 56.7106v37.5387s-4.7187 6.0157-14.1893 6.9067c0 0-.176-38.0227 14.1893-44.4454z" fill="#302f36"/><path d="m50.9161 99.0933h-4.828v-8.864h4.828z" fill="#181419"/><path d="m60.6001 102.156h-4.8306v-8.864h4.8306z" fill="#181419"/><path d="m46.0508 102.617h-4.828v-8.865h4.828z" fill="#a22735"/><path d="m55.7481 99.7266h-4.832v-8.8666h4.832z" fill="#a22735"/><path d="m41.3748 105.289h-4.8294v-8.8677h4.8294z" fill="#181419"/><path d="m36.5108 105.467h-4.8307v-5.5217h4.8307z" fill="#a22735"/><path d="m65.7268 101.016s-1.692-24.836 12.8947-44.3053c-.0173-1.7134-.0267-2.5827-.0267-2.5827s-8.584 4.0333-13.468 21.0493c-4.8853 17.0134-2.672 25.8387-2.672 25.8387z" fill="#181419"/><path d="m63.4948 100.459s-.448-16.3417 3.5867-26.1337c4.0333-9.792 6.8387-16.468 11.54-20.156v-7.472s-13.252 12.8134-17.596 27.2454c-4.3454 14.432-3.5334 27.0573-3.5334 27.0573z" fill="#edebea"/><g fill="#a22735"><path d="m63.7415 100.893c0-.612-1.2454-1.109-2.7787-1.109-1.5347 0-2.7773.497-2.7773 1.109s1.2426 1.11 2.7773 1.11c1.5333 0 2.7787-.498 2.7787-1.11z"/><path d="m63.5348 98.4506c.032-.5986-1.1587-1.1479-2.6587-1.2293-1.5013-.0786-2.7426.344-2.7733.9427-.0333.6013 1.1573 1.1507 2.6587 1.2293 1.4986.0787 2.7413-.344 2.7733-.9427z"/><path d="m63.4921 95.6426c.064-.5853-1.076-1.1893-2.5413-1.348-1.4667-.1586-2.7067.1894-2.7694.776-.064.5854 1.0734 1.1894 2.5414 1.3454 1.4666.16 2.7066-.1867 2.7693-.7734z"/><path d="m63.6215 92.5266c.0933-.576-.9907-1.232-2.4254-1.4666-1.432-.24-2.6706.0333-2.7666.6066-.0934.5734.9906 1.2294 2.4253 1.4667 1.432.236 2.6707-.0373 2.7667-.6067z"/><path d="m63.9255 89.156c.1253-.56-.9054-1.268-2.3054-1.5853-1.3986-.316-2.6373-.1174-2.7613.4399-.1267.56.9054 1.268 2.304 1.5854 1.4.316 2.6373.12 2.7627-.44z"/><path d="m64.4162 85.5933c.1586-.5467-.8214-1.3067-2.1867-1.7027-1.3667-.396-2.6014-.2733-2.7587.2734-.1587.544.8213 1.308 2.1853 1.7026 1.368.3934 2.6014.2734 2.7601-.2733z"/><path d="m65.1001 81.896c.1907-.532-.7373-1.3494-2.068-1.8227-1.3333-.4747-2.564-.428-2.7547.1067-.1906.5306.7373 1.3466 2.068 1.82 1.3333.4733 2.5667.4266 2.7547-.104z"/><path d="m65.9868 78.12c.22-.5187-.652-1.3854-1.952-1.94-1.296-.552-2.5293-.5814-2.7493-.0627-.2227.5187.6506 1.388 1.9506 1.94 1.2974.5547 2.5294.5827 2.7507.0627z"/><path d="m67.0814 74.3253c.252-.5053-.5693-1.4266-1.8333-2.06-1.2653-.632-2.496-.7346-2.748-.2293s.5694 1.428 1.8334 2.06c1.264.6307 2.4946.7346 2.7479.2293z"/><path d="m68.3908 70.568c.284-.492-.4827-1.4667-1.7147-2.1773-1.2307-.7134-2.4586-.8907-2.7439-.3987-.284.492.4839 1.4667 1.7146 2.18 1.232.7107 2.46.888 2.744.396z"/><path d="m69.9268 66.9067c.316-.48-.3987-1.5081-1.5973-2.2974-1.1974-.792-2.4241-1.044-2.7401-.5653-.316.48.3987 1.508 1.5974 2.2973 1.1973.792 2.4227 1.044 2.74.5654z"/><path d="m71.6935 63.3986c.3467-.4666-.316-1.5466-1.48-2.4173-1.164-.8693-2.388-1.1947-2.736-.732-.3467.4667.316 1.548 1.4786 2.4173 1.164.8667 2.3894 1.1947 2.7374.732z"/><path d="m73.6988 60.1013c.3787-.4533-.2294-1.5853-1.36-2.5333-1.1307-.9507-2.3547-1.352-2.7321-.9013-.38.4533.2294 1.5853 1.3614 2.536 1.128.9453 2.352 1.3493 2.7307.8986z"/><path d="m75.9535 57.0733c.4093-.4373-.1481-1.6253-1.2441-2.6547-1.096-1.0253-2.3173-1.504-2.728-1.064-.4093.4374.1468 1.6241 1.2428 2.6534 1.096 1.0253 2.3173 1.5053 2.7293 1.0653z"/><path d="m78.4615 54.372c.4413-.424-.0614-1.6667-1.1241-2.7707-1.0626-1.1067-2.284-1.6587-2.7253-1.2347-.4413.4254.0613 1.6667 1.1253 2.7721 1.0627 1.1066 2.2814 1.6586 2.7241 1.2333z"/></g><path d="m50.5894 79.284h-7.6746v8.492h7.6746z" fill="#3e4ca8"/><path d="m43.2468 79.6426h7.3426v-7.7026z" fill="#ae8f42"/><path d="m42.9801 80.2973h7.7414v6.304h-7.7414z" fill="#ae8f42"/><path d="m42.9801 87.156h7.6093v2.0573l-7.6093 4.6067z" fill="#ae8f42"/><path d="m52.0748 71.2027-.2947 17.8733 6.3 3.5627s1.2373-14.8027 2.732-17.4614c1.496-2.6587-8.7373-3.9746-8.7373-3.9746z" fill="#302f36"/><path d="m52.1855 71.1507-1.8734.9279v18.288h1.8734z" fill="#dee4f5"/><path d="m52.7881 70.4507-1.872.9266v18.292h1.872z" fill="#181419"/><path d="m65.0254 64.2493c-.6346 1.6-1.7093 3.084-2.5039 4.612-1.2934 2.4933-2.2161 5.1307-2.6374 7.876-.0387 0-.0773.0053-.1173.0053-3.8694 0-7.1813-2.3986-8.5307-5.7893.2867-.3227.5653-.6587.9227-.9587.6426-.5413 1.4-.968 2.0707-1.4813 1.6293-1.2507 2.8733-2.972 4.6946-3.9507 1.3734-.7373 2.832-1.2506 4.2933-1.7786.628-.2294 1.264-.456 1.9173-.6067.196.028.3934.0573.5921.0853-.2413.6694-.4494 1.352-.7014 1.9867z" fill="#181419"/><path d="m65.0254 64.2493c-.6346 1.6-1.7093 3.084-2.5039 4.612-1.1787 2.272-2.0494 4.6667-2.5147 7.152-.08.0027-.1587.008-.24.008-3.692 0-6.832-2.368-7.9867-5.6666.1187-.1227.2413-.2454.3787-.3601.6426-.5413 1.4-.968 2.0707-1.4813 1.6293-1.2507 2.8733-2.972 4.6946-3.9507 1.3734-.7373 2.832-1.2506 4.2933-1.7786.628-.2294 1.264-.456 1.9173-.6067.196.028.3934.0573.5921.0827-.2413.672-.4494 1.3546-.7014 1.9893z" fill="#ae8f42"/><path d="m62.5215 68.8613c-.5174 1-.976 2.0213-1.3667 3.0653-.436.1387-.904.2134-1.388.2134-2.484 0-4.504-1.976-4.576-4.4454 1.2-1.1066 2.284-2.3533 3.7333-3.132.8734-.4693 1.78-.8466 2.7027-1.1959 1.1667.5186 2.0746 1.5106 2.4853 2.732-.5267.928-1.1093 1.8359-1.5906 2.7626z" fill="#3e4ca8"/><path d="m33.8655 85.6387 7.5133-4.3387.3814 13.992-7.8947 4.348z" fill="#302f36"/><path d="m43.2468 80.5027h-1.872v14.1586h1.872z" fill="#dee4f5"/><path d="m26.7148 103.899s3.2334 1.814 6.568 2.281l.4027-20.2893s-5.1174 1.8986-7.4174 1.812z" fill="#bcc7ea"/><path d="m26.7148 103.899-1.1653-.443v-15.6147h1.1653z" fill="#675155"/><path d="m25.5495 103.456s-1.724-.719-2.472-1.295v-14.1063h2.472z" fill="#181419"/><path d="m23.0775 102.161s-5.404-1.953-10.436-7.4157v-6.6906h10.436z" fill="#302f36"/><path d="m42.5522 81.1333h-1.8721v14.1587h1.8721z" fill="#181419"/><path d="m34.4468 106.18h-1.164v-19.9014h1.164z" fill="#675155"/><path d="m64.2028 61.924c-.7013 0-1.616.1413-2.7654.576-3.804 1.44-8.4573 5.412-13.828 11.7973-6.468 7.6894-12.8266 10.7467-17.0226 11.9574-4.5373 1.3106-9.6947 1.0653-9.7253 1.06l-.2227 1.2533c.1333.0227 5.4187.3013 10.2173-1.0653 4.3867-1.2507 11.0214-4.4147 17.7267-12.388 12.0654-14.3467 16.6667-11.7347 16.7107-11.7054l.7186-1.0493c-.0933-.0654-.6666-.436-1.8093-.436z" fill="#9c6c3e"/><path d="m34.4468 100.445s15.5493-10.1397 17.0173-10.1397c1.4667 0 5.8733 3.0853 5.8733 3.0853v-1.7919s-5.3119-3.544-6.0039-3.544c-.6907 0-16.8867 10.4973-16.8867 10.4973z" fill="#dee4f5"/><path d="m36.1855 105.305s13.1413-9.6597 15.0053-9.6597c1.8653 0 7.2733 4.8307 7.2733 4.8307z" fill="#ae8f42"/><path d="m34.4468 101.68s15.5493-10.316 17.0173-10.316c1.4667 0 5.8733 3.4773 5.8733 3.4773v-1.74s-5.3119-3.432-6.0039-3.432c-.6907 0-16.8867 10.172-16.8867 10.172z" fill="#ae8f42"/><path d="m56.9135 99.7626s-.0374-16.4053 3.8013-27.2293c3.8373-10.8227 13.4974-26.0413 16.3374-27.4213l1.5693 1.5853s-6.7973 5.6053-16.5253 26.6333c-2.532 10.4094-2.6187 5.9067-3.8427 27.1144-1.224 21.211-1.34-.6824-1.34-.6824z" fill="#9c6c3e"/><path d="m12.6415 84.732v-37.5387s4.72-6.016 14.188-6.9066c0 0 .1773 38.0226-14.188 44.4453z" fill="#302f36"/><path d="m40.3468 42.3493h4.8293v8.864h-4.8293z" fill="#181419"/><path d="m30.6628 39.2867h4.8307v8.8639h-4.8307z" fill="#181419"/><path d="m45.2108 38.8253h4.8293v8.8654h-4.8293z" fill="#a22735"/><path d="m35.5174 41.7187h4.8294v8.864h-4.8294z" fill="#a22735"/><path d="m49.8881 36.156h4.8293v8.8653h-4.8293z" fill="#181419"/><path d="m54.7534 35.9786h4.8294v5.5187h-4.8294z" fill="#a22735"/><path d="m25.5374 40.4266s1.6907 24.836-12.8959 44.3054c.0173 1.7133.0266 2.5826.0266 2.5826s8.5854-4.0333 13.4707-21.0493c4.884-17.0133 2.6693-25.8387 2.6693-25.8387z" fill="#181419"/><path d="m27.7681 40.984s.4467 16.3413-3.584 26.1333c-4.0347 9.7947-6.8413 16.468-11.5427 20.156v7.472s7.252-1.472 17.596-27.2453c4.3453-14.4347 3.5333-27.0573 3.5333-27.0573z" fill="#edebea"/><path d="m27.5241 40.5493c0 .6147 1.2413 1.1094 2.7773 1.1094 1.5334 0 2.7774-.4947 2.7774-1.1094 0-.612-1.244-1.1093-2.7774-1.1093-1.536 0-2.7773.4973-2.7773 1.1093z" fill="#a22735"/><path d="m27.7295 42.992c-.0334.5986 1.1573 1.148 2.6573 1.2293 1.5013.0787 2.7426-.344 2.7746-.9427.0334-.5986-1.1587-1.148-2.66-1.2293-1.5-.0773-2.7426.344-2.7719.9427z" fill="#a22735"/><path d="m27.7694 45.8c-.0626.588 1.076 1.1893 2.5414 1.348 1.468.1573 2.708-.1893 2.772-.776.0613-.5853-1.0761-1.1893-2.5427-1.3453-1.4654-.16-2.7053.1866-2.7707.7733z" fill="#a22735"/><path d="m27.6428 48.9186c-.0933.5707.992 1.2267 2.424 1.4667 1.432.2373 2.672-.036 2.7667-.6093.092-.5734-.9907-1.2294-2.4227-1.4667-1.436-.236-2.6733.0373-2.768.6093z" fill="#a22735"/><path d="m27.3388 52.2867c-.1267.56.9053 1.268 2.304 1.5853 1.3987.316 2.636.12 2.7627-.44.1253-.56-.9054-1.2707-2.3054-1.5853-1.4-.316-2.6346-.1174-2.7613.44z" fill="#a22735"/><path d="m26.8481 55.8493c-.1587.5467.82 1.3067 2.1854 1.7027 1.3666.396 2.6027.2733 2.76-.2707.1573-.5466-.8214-1.3093-2.188-1.7053-1.364-.3933-2.6001-.2707-2.7574.2733z" fill="#a22735"/><path d="m26.1628 59.5466c-.1907.5347.7373 1.3467 2.068 1.8227 1.3333.4747 2.5666.428 2.7546-.1067.1894-.5306-.736-1.3466-2.068-1.82-1.3333-.4733-2.5653-.4293-2.7546.104z" fill="#a22735"/><path d="m25.2761 63.3227c-.22.5186.6534 1.3879 1.952 1.9399 1.2974.552 2.5294.5814 2.7494.0627.2213-.5187-.652-1.388-1.9494-1.94-1.2986-.5546-2.5306-.58-2.752-.0626z" fill="#a22735"/><path d="m24.1841 67.1173c-.2547.5053.5667 1.4267 1.832 2.06 1.264.632 2.4934.7347 2.7467.2294.252-.5054-.568-1.4281-1.8333-2.0601-1.264-.6306-2.4947-.7346-2.7454-.2293z" fill="#a22735"/><path d="m22.8721 70.8747c-.2853.492.484 1.4666 1.7146 2.1799 1.2307.7107 2.4588.888 2.7428.396.2853-.492-.4841-1.4666-1.7134-2.18-1.2307-.7106-2.46-.8879-2.744-.3959z" fill="#a22735"/><path d="m21.3361 74.536c-.3133.48.4 1.508 1.5974 2.2973 1.1986.792 2.424 1.044 2.74.5654.3146-.48-.3987-1.508-1.596-2.2974-1.1987-.792-2.4254-1.044-2.7414-.5653z" fill="#a22735"/><path d="m19.5708 78.044c-.3467.4666.3147 1.5466 1.4787 2.4173 1.1627.8693 2.388 1.1973 2.736.732.3467-.4667-.3147-1.548-1.4787-2.4173-1.164-.8667-2.3894-1.1947-2.736-.732z" fill="#a22735"/><path d="m17.5641 81.3413c-.3787.4534.2307 1.5853 1.3587 2.536 1.132.948 2.356 1.3493 2.7333.8987.3787-.4534-.2307-1.5854-1.3587-2.5334-1.1306-.9506-2.3546-1.3519-2.7333-.9013z" fill="#a22735"/><path d="m15.3094 84.3693c-.4093.4373.1467 1.6254 1.244 2.6547 1.0947 1.0253 2.3173 1.5026 2.728 1.064.4107-.4374-.1453-1.624-1.2426-2.6534-1.096-1.0253-2.3187-1.5026-2.7294-1.0653z" fill="#a22735"/><path d="m12.8028 87.0706c-.4413.424.06 1.6667 1.1227 2.7707 1.064 1.1067 2.2826 1.6587 2.7253 1.2347.4426-.4253-.0613-1.664-1.1227-2.7707-1.064-1.108-2.2826-1.66-2.7253-1.2347z" fill="#a22735"/><path d="m40.6721 62.1586h7.6774v-8.4919h-7.6774z" fill="#3e4ca8"/><path d="m48.0175 61.8h-7.3454v7.7027z" fill="#ae8f42"/><path d="m48.2828 61.1453h-7.7413v-6.3013h7.7413z" fill="#ae8f42"/><path d="m48.2828 54.2866h-7.6107v-2.0573l7.6107-4.6066z" fill="#ae8f42"/><path d="m39.1895 70.24.2933-17.8733-6.2987-3.56s-1.2373 14.8026-2.7333 17.4586c-1.496 2.6587 8.7387 3.9747 8.7387 3.9747z" fill="#302f36"/><path d="m39.0801 70.2947 1.8707-.928v-18.2934h-1.8707z" fill="#dee4f5"/><path d="m38.4748 70.992 1.872-.9267v-18.292h-1.872z" fill="#181419"/><path d="m26.2374 77.1946c.6347-1.6013 1.7094-3.0826 2.5054-4.6133 1.292-2.4933 2.2147-5.1306 2.6373-7.876.0387 0 .0773-.0026.1147-.0026 3.8706 0 7.1813 2.396 8.5333 5.7866-.2867.3227-.5667.6587-.924.9587-.6413.5413-1.4013.968-2.072 1.4813-1.6266 1.2507-2.872 2.9693-4.692 3.9507-1.3733.7373-2.8333 1.2506-4.296 1.7786-.6266.2294-1.2626.456-1.9146.6094-.1974-.0307-.3934-.06-.5921-.088.24-.6694.4467-1.352.7-1.9854z" fill="#181419"/><path d="m26.2374 77.1946c.6347-1.6013 1.7094-3.0826 2.5054-4.6133 1.1773-2.272 2.048-4.6653 2.5133-7.152.08-.0026.16-.008.2387-.008 3.6947 0 6.8334 2.368 7.988 5.6667-.1186.1227-.2414.2453-.3787.36-.6413.5413-1.4013.968-2.0719 1.4813-1.6267 1.2507-2.8721 2.9694-4.6921 3.9507-1.3733.7373-2.8333 1.2506-4.296 1.7786-.6266.2294-1.2626.4561-1.9146.6094-.1973-.0307-.3947-.06-.5921-.088.24-.6693.4467-1.352.7-1.9854z" fill="#ae8f42"/><path d="m28.7428 72.5813c.5173-.9986.9733-2.0213 1.3653-3.0653.4387-.1387.904-.2133 1.3867-.2133 2.4853 0 4.504 1.9786 4.5786 4.4453-1.2026 1.1067-2.2853 2.3533-3.7333 3.132-.8733.4693-1.7827.8466-2.7027 1.196-1.1666-.5187-2.076-1.5107-2.4866-2.7293.5266-.9307 1.1093-1.8387 1.592-2.7654z" fill="#3e4ca8"/><path d="m57.3988 55.8066-7.516 4.336-.3787-13.992 7.8947-4.348z" fill="#302f36"/><path d="m48.0175 60.94h1.8707v-14.1587h-1.8707z" fill="#dee4f5"/><path d="m64.5495 37.5466s-3.2347-1.8173-6.5694-2.284l-.4026 20.2894s5.1173-1.8987 7.4173-1.812z" fill="#bcc7ea"/><path d="m64.5495 37.5467 1.164.44v15.6146h-1.164z" fill="#675155"/><path d="m65.7135 37.9867s1.7253.7186 2.472 1.2946v14.1067h-2.472z" fill="#181419"/><path d="m48.7121 60.3093h1.8707v-14.1586h-1.8707z" fill="#181419"/><path d="m56.8161 35.2626h1.164v19.9014h-1.164z" fill="#675155"/><path d="m27.0602 79.5186c.7013 0 1.616-.1413 2.764-.576 3.8066-1.44 8.4573-5.4093 13.8293-11.7973 6.4693-7.692 12.8266-10.7493 17.0226-11.9573 4.5373-1.3107 9.4694-.7067 9.5014-.7014l.2213-1.252c-.1333-.024-5.1934-.6613-9.992.708-4.3854 1.248-11.0213 4.412-17.7266 12.3854-12.0654 14.3466-16.6654 11.7346-16.7094 11.7053l-.72 1.0493c.092.0654.6667.436 1.8094.436z" fill="#9c6c3e"/><path d="m56.8161 40.9973s-15.5493 10.1414-17.016 10.1414c-1.468 0-5.8747-3.0867-5.8747-3.0867v1.792s5.3134 3.544 6.0027 3.544c.692 0 16.888-10.4973 16.888-10.4973z" fill="#dee4f5"/><path d="m55.0788 36.1387s-13.1413 9.6586-15.0067 9.6586c-1.8653 0-7.272-4.8306-7.272-4.8306z" fill="#ae8f42"/><path d="m56.8161 39.7626s-15.5493 10.316-17.016 10.316c-1.468 0-5.8747-3.4773-5.8747-3.4773v1.74s5.3134 3.432 6.0027 3.432c.692 0 16.888-10.1747 16.888-10.1747z" fill="#ae8f42"/><path d="m34.3495 41.6827s.0373 16.4053-3.8014 27.2266c-3.8387 10.8227-12.6133 25.8773-16.5519 27.2187l-1.3547-1.3827c3.4013-1.7186 14.4586-18.4533 16.5266-26.6333 2.5307-10.4094 2.6187-5.9067 3.84-27.1147 1.2254-21.2106 1.3414.6854 1.3414.6854z" fill="#9c6c3e"/><path d="m58.8162 122.508s-.8347-7.781 0-9.375c.8346-1.594 2.4306-5.125 2.4306-5.125s-3.4547 1.252-3.532-2.315c-.076-3.568 2.8467-3.378 3.9107-3.378 1.0626 0 4.136 1.253 2.124 6.188-2.0107 4.932-2.3693 2.961-2.684 6.528-.3147 3.568 0 7.248 0 7.248z" fill="#dfdcda"/><path d="m59.9161 124.795s-.8333-7.782 0-9.376c.8347-1.596 2.4293-5.124 2.4293-5.124s-3.4533 1.252-3.5293-2.316c-.076-3.567 2.8467-3.378 3.9094-3.378 1.0626 0 4.1373 1.254 2.1253 6.186-2.0107 4.934-2.3707 2.961-2.684 6.528-.3133 3.568 0 7.25 0 7.25z" fill="#edebea"/><path d="m61.3748 113.596s5.9667-22.7187-7.5773-22.7187c-13.5454 0-11.936 17.3357-7.704 23.4397 4.232 6.102 15.2813-.721 15.2813-.721z" fill="#dfdcda"/><path d="m61.0814 123.063s.9987-3.782.3934-4.99c-.604-1.206.0093-3.284-.1-4.477-.1107-1.195-1.7373-3.241-5.284-.828 0 0-9.1374-4.885-9.2174 1.42-.0787 6.301.368 9.664.368 9.664s11.0294 1.233 13.84-.789z" fill="#dee4f5"/><path d="m36.2988 125.857s.8347-7.781 0-9.376c-.8347-1.596-2.4307-5.124-2.4307-5.124s3.4547 1.252 3.5307-2.316-2.8467-3.377-3.9107-3.377c-1.0613 0-4.1347 1.252-2.124 6.188 2.0107 4.932 2.3693 2.957 2.684 6.528.3133 3.565 0 7.248 0 7.248z" fill="#5c5e65"/><path d="m37.3615 124.795s.8347-7.782 0-9.376c-.8347-1.596-2.4293-5.124-2.4293-5.124s3.4533 1.252 3.5307-2.316c.0746-3.567-2.8481-3.378-3.9107-3.378-1.064 0-4.136 1.254-2.1253 6.186 2.012 4.934 2.3706 2.961 2.6839 6.528.3134 3.568 0 7.25 0 7.25z" fill="#747b7e"/><path d="m38.9161 123.693s.8347-7.781 0-9.376c-.8333-1.593-2.428-5.124-2.428-5.124s3.4533 1.252 3.5293-2.316-2.8453-3.377-3.9093-3.377c-1.0626 0-4.136 1.252-2.1253 6.188 2.012 4.935 2.3706 2.957 2.6853 6.528.3133 3.568 0 7.248 0 7.248z" fill="#8c9294"/><path d="m41.1814 123.352s.8347-7.781 0-9.376c-.836-1.596-2.4306-5.124-2.4306-5.124s3.4546 1.252 3.5306-2.316c.0774-3.567-2.8466-3.377-3.9093-3.377-1.064 0-4.136 1.253-2.1253 6.188 2.012 4.932 2.3707 2.958 2.6827 6.528.316 3.565 0 7.248 0 7.248z" fill="#a7aaa9"/><path d="m43.3828 123.693s.8347-7.781 0-9.376c-.836-1.593-2.4294-5.124-2.4294-5.124s3.4547 1.252 3.5294-2.316c.076-3.568-2.8453-3.377-3.908-3.377-1.064 0-4.1387 1.252-2.1267 6.188 2.012 4.935 2.3694 2.957 2.684 6.528.3147 3.568 0 7.248 0 7.248z" fill="#c2c2bf"/><path d="m45.6215 123.995s.836-7.779 0-9.372c-.8347-1.596-2.428-5.126-2.428-5.126s3.4533 1.252 3.5293-2.314c.076-3.568-2.8481-3.378-3.9107-3.378-1.0627 0-4.136 1.252-2.124 6.184 2.0107 4.935 2.3693 2.962 2.6826 6.53.3147 3.566 0 7.249 0 7.249z" fill="#dfdcda"/><path d="m47.6334 124.415s.8347-7.782 0-9.376c-.8346-1.594-2.4306-5.124-2.4306-5.124s3.4546 1.252 3.5306-2.316-2.8466-3.378-3.9093-3.378c-1.0626 0-4.136 1.252-2.1253 6.186 2.012 4.934 2.3707 2.96 2.684 6.53.3133 3.568 0 7.248 0 7.248z" fill="#edebea"/><path d="m56.0908 112.768s3.656-.32 4.9747-2.544c0 0-1.9374-1.872-4.7614-.476 0 0-3.1987-1.227-6.1253-.376 0 0 2.0253 3.084 5.912 3.396z" fill="#edebea"/><path d="m32.0242 133.691 4.4492.924.8987-4.326c1.1227.26 2.308.476 3.5254.651l-.504 4.125 4.72.578.516-4.219c1.3427.089 2.6826.147 3.9826.175v4.33h4.816v-4.325c1.4627-.028 2.7787-.08 3.8774-.135l.7306 4.34 5.184-.869-1.752-10.413-.964.161-.012-.464-25.9119-1-.048.409-1.3588-.281z" fill="#ae8f42"/><path d="m62.1668 122.76s-13.3386 2.037-27.9813-1.419l-.1374 2.352s18.3574 4.283 28.4934 1.102z" fill="#181419"/><path d="m57.5681 119.484s.232.047.5787.073c.3467.034.8107.046 1.2587-.004.2266-.021.4306-.112.636-.129.184-.077.364-.121.528-.16.2666-.149.52-.236.52-.236l.032.028s-.1067.212-.3854.503c-.1626.088-.36.21-.5893.276-.2293.038-.4813.073-.724.058-.98-.01-1.8653-.366-1.8653-.366z" fill="#747b7e"/><path d="m53.6881 119.527s-.8853.356-1.8666.366c-.2414.015-.4947-.02-.724-.058-.2294-.066-.4254-.188-.5881-.276-.2786-.291-.3853-.503-.3853-.503l.0307-.028s.2546.087.5213.237c.164.038.344.082.5267.159.2067.017.4106.108.6373.129.448.05.9107.038 1.2574.004.348-.026.58-.073.58-.073z" fill="#747b7e"/><path d="m54.8908 117.916s-.2293-.196-.6347-.377c-.2053-.076-.444-.178-.7106-.228-.268-.051-.5507-.106-.8414-.078-.288-.014-.5667.051-.8333.099-.264.041-.5133.064-.724.136-.4253.097-.7454.116-.7454.116l-.0186-.039s.2427-.186.6613-.4c.2054-.117.464-.208.7614-.23.2866-.067.6026-.074.9146-.022.3134.007.6147.095.8934.182.2787.078.516.224.7133.333.3907.247.592.477.592.477z" fill="#333558"/><path d="m57.6748 117.885s.144-.168.4213-.353c.1374-.093.3106-.188.5053-.269.2-.062.4134-.156.6414-.171.2266-.044.4573-.076.6707-.025.2173.013.4119.069.5599.16.3054.164.4707.318.4707.318l-.0187.039s-.2413.015-.5466-.033c-.1494-.044-.3307-.031-.516-.066-.1867-.03-.384-.06-.5894-.053-.4093-.015-.8107.117-1.1053.231-.2934.121-.4653.253-.4653.253z" fill="#333558"/><path d="m56.8655 118.577s-.0854-.62-.068-1.56c.008-.47.0519-1.02.1639-1.602.0574-.292.1601-.586.2414-.888.132-.28.2667-.564.4-.848.136-.29.0973-.464-.0774-.654-.1773-.164-.4266-.277-.6826-.34-.26-.053-.5227-.061-.7653-.046-.244.014-.4801.058-.6654.154-.192.08-.3666.184-.4706.319-.132.117-.1787.265-.248.377-.0787.246-.1054.404-.1054.404h-.0413s-.0147-.154.0053-.442c.0374-.138.064-.323.1974-.488.104-.179.2853-.352.508-.471.22-.136.4906-.213.7733-.259.2867-.054.596-.02.9066.04.3067.079.636.203.8854.483.1266.148.204.328.2267.532-.008.207-.0574.423-.1374.535-.1467.27-.292.542-.4373.812-.0907.282-.204.557-.2734.834-.1333.559-.216 1.094-.256 1.556-.0813.926-.0373 1.55-.0373 1.55z" fill="#333558"/><path d="m32.4468 18.8933s.8347 7.7814 0 9.3747-2.4294 5.1253-2.4294 5.1253 3.4547-1.2533 3.5294 2.3147c.076 3.568-2.8467 3.3773-3.908 3.3773-1.064 0-4.1387-1.252-2.1253-6.1867 2.0106-4.932 2.3693-2.9613 2.6826-6.5293.3147-3.5666 0-7.2493 0-7.2493z" fill="#dfdcda"/><path d="m31.3468 16.6067s.8347 7.7813 0 9.3773c-.8347 1.5947-2.4307 5.1227-2.4307 5.1227s3.4547-1.252 3.5307 2.3146c.0773 3.568-2.8467 3.3787-3.9094 3.3787-1.064 0-4.136-1.2533-2.1253-6.1854 2.0107-4.9346 2.3694-2.9613 2.684-6.5293.3147-3.5666 0-7.2493 0-7.2493z" fill="#edebea"/><path d="m29.8881 27.8067s-5.9666 22.72 7.5774 22.72c13.5453 0 11.9373-17.3387 7.7039-23.4414-4.2333-6.104-15.2813.7214-15.2813.7214z" fill="#dfdcda"/><path d="m30.1828 18.3386s-.9987 3.7814-.3947 4.9894-.0093 3.284.1 4.4786c.1094 1.1934 1.7387 3.2427 5.284.8267 0 0 9.1387 4.8827 9.2173-1.42.0787-6.3013-.3666-9.664-.3666-9.664s-11.0307-1.2347-13.84.7893z" fill="#dee4f5"/><path d="m54.9655 15.544s-.8347 7.7813 0 9.3746c.8347 1.5947 2.4293 5.1254 2.4293 5.1254s-3.4546-1.252-3.532 2.316c-.0746 3.5666 2.848 3.3773 3.9106 3.3773 1.0627 0 4.1387-1.2533 2.1267-6.1853-2.0133-4.9347-2.372-2.9613-2.6853-6.528-.3133-3.568 0-7.2507 0-7.2507z" fill="#5c5e65"/><path d="m53.9028 16.6067s-.8347 7.7813 0 9.3773c.8347 1.5947 2.4294 5.1227 2.4294 5.1227s-3.4548-1.252-3.5308 2.3146c-.076 3.568 2.8454 3.3787 3.9094 3.3787 1.0627 0 4.1373-1.2533 2.1253-6.1854-2.012-4.9346-2.3706-2.9613-2.6853-6.5293-.3133-3.5666 0-7.2493 0-7.2493z" fill="#747b7e"/><path d="m52.3468 17.708s-.8347 7.7813 0 9.3747c.8347 1.5946 2.428 5.1253 2.428 5.1253s-3.4534-1.252-3.5294 2.316c-.076 3.5667 2.8454 3.3773 3.9094 3.3773 1.0627 0 4.1373-1.2533 2.1253-6.188-2.012-4.932-2.3693-2.9613-2.6839-6.528-.3147-3.568 0-7.2506 0-7.2506z" fill="#8c9294"/><path d="m50.0828 18.0493s-.8347 7.7814 0 9.3747c.8333 1.5947 2.4293 5.1253 2.4293 5.1253s-3.4546-1.252-3.532 2.3147c-.0733 3.568 2.848 3.3786 3.9107 3.3786 1.064 0 4.1373-1.2533 2.1266-6.1853-2.012-4.9346-2.3719-2.9613-2.6853-6.5293-.3133-3.5667 0-7.2494 0-7.2494z" fill="#a7aaa9"/><path d="m47.8814 17.708s-.836 7.7813 0 9.3747c.8347 1.5946 2.428 5.1253 2.428 5.1253s-3.4533-1.252-3.5293 2.316c-.076 3.5667 2.8467 3.3773 3.9093 3.3773 1.0627 0 4.1374-1.2533 2.1254-6.188-2.0107-4.932-2.3707-2.9613-2.684-6.528-.3147-3.568 0-7.2506 0-7.2506z" fill="#c2c2bf"/><path d="m45.6414 17.4066s-.8346 7.7787 0 9.3747c.8347 1.5933 2.4307 5.1227 2.4307 5.1227s-3.4547-1.2534-3.532 2.3146c-.0747 3.568 2.8466 3.3774 3.9106 3.3774 1.0627 0 4.136-1.2494 2.1254-6.184-2.012-4.936-2.372-2.9614-2.6853-6.5294-.3134-3.568 0-7.2493 0-7.2493z" fill="#dfdcda"/><path d="m43.6308 16.9867s-.836 7.7813 0 9.3746c.8347 1.5974 2.428 5.1254 2.428 5.1254s-3.4533-1.252-3.5307 2.316c-.0746 3.5666 2.8467 3.3773 3.9107 3.3773 1.0627 0 4.1373-1.2533 2.1253-6.188-2.012-4.932-2.3693-2.9587-2.684-6.528-.3146-3.568 0-7.248 0-7.248z" fill="#edebea"/><path d="m35.1721 28.6333s-3.6546.32-4.9759 2.544c0 0 1.9386 1.872 4.7639.476 0 0 3.1987 1.2267 6.124.3747 0 0-2.0253-3.0827-5.912-3.3947z" fill="#edebea"/><path d="m59.2388 7.71064-4.4493-.92399-.8987 4.32535c-1.124-.26-2.308-.476-3.5267-.648l.5054-4.12802-4.72-.57601-.5147 4.21867c-1.344-.09067-2.684-.14799-3.984-.17599v-4.33067h-4.816v4.32533c-1.4627.028-2.78.08-3.8787.13467l-.7293-4.34133-5.184.87066 1.752 10.41339.964-.1614.012.464 25.9147 1 .0453-.4093 1.3587.2813z" fill="#ae8f42"/><path d="m29.0962 18.64s13.3372-2.036 27.9826 1.42l.136-2.352s-18.356-4.284-28.4933-1.1013z" fill="#181419"/><path d="m33.6948 21.916s-.2306-.0467-.5786-.072c-.3467-.0347-.8107-.0454-1.2574.004-.2267.02-.432.112-.6373.128-.184.0786-.3627.1226-.5267.1613-.268.1493-.5214.236-.5214.236l-.0319-.028s.108-.212.3866-.5027c.1627-.0893.3587-.2106.5881-.276.2293-.0386.4812-.0733.7239-.0586.98.0107 1.8654.3667 1.8654.3667z" fill="#747b7e"/><path d="m37.5761 21.8747s.8854-.356 1.8654-.3667c.2426-.0147.4947.02.724.0586.2293.0654.4253.1867.5879.276.2787.2907.3854.5027.3854.5027l-.0307.028s-.2533-.0867-.5213-.2373c-.164-.0374-.3427-.0814-.5267-.16-.2053-.016-.4107-.108-.6373-.128-.448-.0494-.9106-.0387-1.2573-.004-.348.0253-.58.072-.58.072z" fill="#747b7e"/><path d="m36.3721 23.484s.2293.1973.6347.3773c.2053.0773.444.1787.7106.228.268.052.5507.1053.8414.08.288.0147.568-.052.832-.0987.2653-.0426.516-.064.7253-.136.4254-.096.7453-.116.7453-.116l.0187.04s-.2413.1867-.6613.3987c-.204.1174-.464.2093-.76.2307-.2894.0666-.6027.0733-.916.0213-.3147-.0067-.616-.096-.8933-.1827-.2787-.0786-.5147-.224-.7134-.3333-.3906-.2467-.592-.4773-.592-.4773z" fill="#333558"/><path d="m33.5881 23.516s-.144.168-.4213.352c-.1374.0946-.3094.1893-.5054.2706-.2.06-.4119.1561-.6399.1694-.2267.0453-.4587.0786-.672.028-.216-.0134-.4121-.068-.5601-.1587-.3066-.164-.472-.3187-.472-.3187l.0187-.04s.2427-.0133.5467.0347c.1507.0427.332.0293.5173.0627.1853.032.384.06.588.0546.4107.012.8133-.1173 1.1067-.232.2933-.1213.4653-.2546.4653-.2546z" fill="#333558"/><path d="m34.3962 22.824s.0866.62.0706 1.56c-.0093.4707-.052 1.02-.164 1.6027-.0573.292-.1613.5853-.2426.888-.132.2786-.2654.5626-.4.8466-.1347.2907-.0974.4654.0773.6547.1786.1627.4266.276.6826.3387.2614.0546.5214.0613.7667.0453.2427-.0133.4787-.0587.6654-.152.1906-.0813.3653-.1853.4693-.3187.132-.1173.1786-.2666.2493-.3773.0773-.2453.104-.404.104-.404h.0414s.0146.1547-.0054.4427c-.0373.136-.064.3226-.196.488-.104.1786-.2866.352-.5093.4706-.22.1347-.4893.2134-.7733.2574-.2867.0546-.5947.02-.9067-.0387-.3054-.08-.6347-.2053-.8867-.4853-.1266-.1467-.2013-.328-.2253-.5307.0067-.2067.0573-.4213.1387-.5333.1453-.2734.2906-.5454.436-.812.0906-.284.2039-.5574.2733-.8347.1333-.5587.216-1.0933.256-1.556.08-.9253.0373-1.5493.0373-1.5493z" fill="#333558"/></svg>