<svg fill="none" height="140" viewBox="0 0 93 140" width="93" xmlns="http://www.w3.org/2000/svg"><path d="m.0108032 4.41327c0-2.004 1.6211268-3.629365 3.6202568-3.629365h84.75684c2.0018 0 3.6229 1.625365 3.6229 3.629365v130.98773c0 2.006-1.6211 3.63-3.6229 3.63h-84.75684c-1.99913 0-3.6202568-1.624-3.6202568-3.63z" fill="#fff"/><path d="m42.0081 100.82c1.164.956 2.372 1.944 3.296 3.039.1547.185.3854.288.6214.288h.0466c.2414 0 .4707-.103.6267-.288.9253-1.095 2.1333-2.083 3.2973-3.039 2.468-2.0201 5.0174-4.1108 5.0174-7.3468 0-2.9346-2.0521-4.9853-4.9947-4.9853-1.4187 0-2.6587.8373-3.5 1.6013.404-1.7266 1.16-3.772 2.5853-5.3746h-6.1013c1.4267 1.6053 2.18 3.6533 2.5853 5.3827-.84-.7667-2.0813-1.6094-3.5066-1.6094-2.9374 0-4.992 2.0507-4.992 4.9853 0 3.232 2.5533 5.3227 5.0186 7.3468z" fill="#302f36"/><path d="m45.9721 84.7146v19.4324c.2414 0 .4707-.103.6267-.288.9253-1.095 2.1333-2.083 3.2973-3.039 2.468-2.0201 5.0174-4.1108 5.0174-7.3468 0-2.9346-2.0521-4.9853-4.9947-4.9853-1.4187 0-2.6587.8373-3.5 1.6013.404-1.7266 1.16-3.772 2.5853-5.3746z" fill="#46464e"/><path d="m42.0081 51.7732c1.164.956 2.372 1.9454 3.296 3.0401.1547.1867.3854.2893.6214.2893h.0466c.2414 0 .4707-.1026.6267-.2893.9253-1.0947 2.1333-2.0841 3.2973-3.0401 2.468-2.0173 5.0174-4.1092 5.0174-7.3439 0-2.9347-2.0521-4.9854-4.9947-4.9854-1.4187 0-2.6587.836-3.5 1.6014.404-1.728 1.16-3.7734 2.5853-5.3774h-6.1013c1.4267 1.608 2.18 3.6561 2.5853 5.3841-.84-.768-2.0813-1.6081-3.5066-1.6081-2.9374 0-4.992 2.0507-4.992 4.9854 0 3.2307 2.5533 5.3213 5.0186 7.3439z" fill="#302f36"/><path d="m45.9721 35.6679v19.4347c.2414 0 .4707-.1026.6267-.2893.9253-1.0947 2.1333-2.0841 3.2973-3.0401 2.468-2.0173 5.0174-4.1092 5.0174-7.3439 0-2.9347-2.0521-4.9854-4.9947-4.9854-1.4187 0-2.6587.836-3.5 1.6014.404-1.728 1.16-3.7734 2.5853-5.3774z" fill="#46464e"/><path d="m80.1121 120.664c.6027.496 1.2293 1.008 1.7067 1.573.0813.096.2.151.3227.151h.0253c.124 0 .244-.055.324-.151.4787-.565 1.104-1.077 1.7067-1.573 1.2786-1.045 2.6-2.129 2.6-3.804 0-1.521-1.0627-2.584-2.5867-2.584-.736 0-1.3773.435-1.8133.831.2093-.895.6-1.954 1.3386-2.784h-3.16c.7387.832 1.1294 1.892 1.34 2.786-.4373-.396-1.0786-.833-1.816-.833-1.5213 0-2.5866 1.063-2.5866 2.584 0 1.673 1.3226 2.757 2.5986 3.804z" fill="#302f36"/><path d="m82.1668 112.323v10.065c.124 0 .244-.055.324-.151.4787-.565 1.104-1.077 1.7067-1.573 1.2786-1.045 2.6-2.129 2.6-3.804 0-1.521-1.0627-2.584-2.5867-2.584-.736 0-1.3773.435-1.8133.831.2093-.895.6-1.954 1.3386-2.784z" fill="#46464e"/><path d="m11.7908 19.1519c-.6027-.4946-1.2293-1.0067-1.708-1.5733-.08-.0974-.20001-.1493-.32268-.1493h-.02399c-.12533 0-.24399.0519-.32399.1493-.47867.5666-1.10534 1.0787-1.70801 1.5733-1.27867 1.0454-2.59866 2.128-2.59866 3.804 0 1.5214 1.06265 2.5827 2.58665 2.5827.73467 0 1.37735-.432 1.81335-.828-.20934.8947-.60001 1.9534-1.33868 2.7827h3.16001c-.74-.8307-1.1307-1.8921-1.34002-2.7867.43602.3973 1.07872.832 1.81602.832 1.5213 0 2.5867-1.0613 2.5867-2.5827 0-1.6733-1.3227-2.756-2.5987-3.804z" fill="#302f36"/><path d="m9.73614 27.4933v-10.064c-.12534 0-.24399.0519-.32399.1493-.47867.5666-1.10534 1.0787-1.70801 1.5733-1.27867 1.0454-2.59867 2.128-2.59867 3.804 0 1.5214 1.06266 2.5827 2.58666 2.5827.73466 0 1.37734-.432 1.81334-.828-.20933.8947-.6 1.9534-1.33867 2.7827z" fill="#46464e"/><g fill="#302f36"><path d="m78.2376 126.278h6.761v.943l-3.5718 3.968c-.5292.6-.893 1.087-1.0914 1.46-.2032.378-.3048.768-.3048 1.17 0 .538.163.98.489 1.325s.7607.517 1.304.517c.652 0 1.1599-.186 1.5237-.56.3591-.368.5386-.883.5386-1.545h1.3111c0 .95-.3047 1.718-.9142 2.304-.6142.586-1.4339.878-2.4592.878-.9591 0-1.7174-.252-2.2749-.758-.5575-.501-.8363-1.169-.8363-2.005 0-1.016.6473-2.226 1.9419-3.629l2.7639-2.998h-5.1806z"/><path d="m13.6213 13.5365h-6.76097v-.9426l3.57187-3.96872c.5291-.60003.8929-1.08667 1.0914-1.45992.2031-.37797.3047-.76775.3047-1.16935 0-.53861-.163-.98036-.489-1.32526s-.7607-.51735-1.304-.51735c-.652 0-1.1599.18662-1.5237.55987-.35908.36852-.53861.88351-.53861 1.54496h-1.31109c0-.94965.30474-1.71741.91422-2.30327.6142-.58585 1.43393-.87878 2.45918-.87878.9591 0 1.7174.25277 2.2749.7583.5575.50082.8363 1.16936.8363 2.00562 0 1.0158-.6473 2.22531-1.9418 3.62853l-2.76397 2.99777h5.18057z"/></g></svg>