<svg fill="none" height="141" viewBox="0 0 92 141" width="92" xmlns="http://www.w3.org/2000/svg"><path d="m-.00000265 4.67274c0-2.0281 1.62113265-3.67274 3.62026265-3.67274h84.75684c2.0018 0 3.6229 1.64464 3.6229 3.67274v132.65326c0 2.028-1.6211 3.674-3.6229 3.674h-84.75684c-1.99913 0-3.62026265-1.646-3.62026265-3.674z" fill="#fff"/><path d="m80.0894 121.456c.604.497 1.2294 1.008 1.7081 1.575.08.097.1999.149.3226.149h.024c.124 0 .244-.052.3254-.149.4773-.567 1.104-1.078 1.7066-1.575 1.2787-1.044 2.5987-2.128 2.5987-3.805 0-1.518-1.0627-2.58-2.5854-2.58-.736 0-1.3786.432-1.8146.828.2093-.894.6-1.954 1.3387-2.784h-3.1601c.74.833 1.1307 1.893 1.3401 2.789-.436-.399-1.0787-.833-1.8147-.833-1.5227 0-2.588 1.062-2.588 2.58 0 1.674 1.3226 2.758 2.5986 3.805z" fill="#302f36"/><path d="m82.1441 113.115v10.065c.124 0 .244-.052.3254-.149.4773-.567 1.104-1.078 1.7066-1.575 1.2787-1.044 2.5987-2.128 2.5987-3.805 0-1.518-1.0627-2.58-2.5854-2.58-.736 0-1.3786.432-1.8146.828.2093-.894.6-1.954 1.3387-2.784z" fill="#46464e"/><path d="m78.055 131.898c0-.997.1583-1.857.4749-2.58.3165-.718.7606-1.28 1.3323-1.687l-1.8426-1.445.9284-.858 2.1757 1.729c.3402-.085.6993-.127 1.0772-.127.8127 0 1.5332.198 2.1616.595.6283.402 1.1173.971 1.467 1.708.3449.742.522 1.599.5315 2.573v.744c0 .992-.1725 1.868-.5174 2.629s-.8315 1.342-1.4599 1.743c-.6331.407-1.356.61-2.1686.61-.8315 0-1.5615-.201-2.1899-.603-.6331-.401-1.1197-.98-1.4599-1.736-.3402-.751-.5103-1.63-.5103-2.636zm1.3607.666c0 1.214.2434 2.15.73 2.806.4819.662 1.1717.992 2.0694.992.8552 0 1.5308-.328 2.0269-.985.4913-.652.7441-1.559.7583-2.721v-.758c0-1.181-.2457-2.112-.7371-2.793-.4961-.68-1.1835-1.02-2.0623-1.02s-1.5591.319-2.041.957c-.4819.642-.73 1.561-.7442 2.756z" fill="#302f36"/><path d="m11.7681 19.9453c-.6026-.4973-1.2293-1.008-1.7066-1.576-.08137-.096-.20003-.148-.3227-.148h-.02532c-.124 0-.24269.052-.32403.148-.47733.568-1.10397 1.0787-1.70664 1.576-1.27866 1.044-2.6 2.128-2.6 3.804 0 1.5213 1.06266 2.5813 2.58666 2.5813.736 0 1.37734-.432 1.81334-.828-.20933.896-.6 1.9534-1.33867 2.784h3.16136c-.74-.8306-1.1307-1.8933-1.34004-2.7893.43604.3987 1.07734.8333 1.81464.8333 1.5227 0 2.5867-1.06 2.5867-2.5813 0-1.6733-1.3227-2.7573-2.5987-3.804z" fill="#302f36"/><path d="m9.71348 28.2866v-10.0653c-.124 0-.24269.052-.32403.148-.47733.568-1.10397 1.0787-1.70664 1.576-1.27866 1.044-2.6 2.128-2.6 3.804 0 1.5213 1.06266 2.5813 2.58666 2.5813.736 0 1.37734-.432 1.81334-.828-.20933.896-.6 1.9534-1.33867 2.784z" fill="#46464e"/><path d="m13.8039 9.50365c0 .99695-.1583 1.85675-.4748 2.57965-.3166.7182-.7607 1.2804-1.3324 1.6867l1.8426 1.4458-.9284.8575-2.1757-1.7292c-.3402.085-.6992.1275-1.0772.1275-.81264 0-1.53315-.1984-2.16153-.5953-.62838-.4016-1.11738-.9709-1.467-1.7079-.3449-.7418-.52208-1.5993-.53153-2.57262v-.74413c0-.99218.17245-1.8686.51735-2.62927s.83154-1.3418 1.45992-1.7434c.63311-.40632 1.35598-.60948 2.16862-.60948.83157 0 1.56147.2008 2.18987.6024.6331.40159 1.1197.98036 1.4599 1.73631.3402.75122.5103 1.63.5103 2.63635zm-1.3607-.66617c0-1.21424-.2433-2.14972-.73-2.80645-.4819-.66145-1.1717-.99218-2.06937-.99218-.85516 0-1.53079.32837-2.02688.98509-.49136.65201-.74413 1.55914-.75831 2.7214v.75831c0 1.18115.24569 2.11195.73705 2.79225.49609.6804 1.18353 1.0205 2.06231 1.0205.8788 0 1.5591-.3189 2.0411-.9567.4819-.6425.7299-1.5615.7441-2.75683z" fill="#302f36"/><path d="m46.7001 78.6853h5.4173v1.8334h-5.4173z" fill="#35346f"/><path d="m46.2294 80.5186h5.416v1.8334h-5.416z" fill="#a22735"/><path d="m45.4281 82.352h5.4173v1.836h-5.4173z" fill="#35346f"/><path d="m44.9574 84.188h5.416v1.8333h-5.416z" fill="#a22735"/><path d="m44.1561 86.0213h5.4187v1.8333h-5.4187z" fill="#35346f"/><path d="m43.6854 87.8546h5.4174v1.8334h-5.4174z" fill="#a22735"/><path d="m42.8854 89.688h5.4174v1.836h-5.4174z" fill="#35346f"/><path d="m46.2294 78.6067-3.964 10.2706-10.28.7267 5.8867-11.7653z" fill="#302f36"/><path d="m59.0187 79.2653 1.4387 11.36-10.4733-.48-.1707-4.1813 3.604-7.4534z" fill="#302f36"/><g fill="#181419"><path d="m47.0841 90.8387 4.6494-12.0267 3.412.4533s-4.7774 6.2867-4.0307 8.6747 6.2693.9373 6.2693.9373l2.3667 4.2347z"/><path d="m47.8321 78.5106-4.5427 12.2001-11.6013.8706 1.5307-3.472s6.316 1.196 8.1506-.2973c1.8334-1.4947 3.5827-9.1267 3.5827-9.1267z"/><path d="m36.6388 74.1973c9.4707-.4107 23.112.824 23.112.824v4.244s-13.6413-1.2347-23.112-.8227"/></g><path d="m59.7508 79.2653s-13.6413-1.2347-23.112-.8227" stroke="#9c6c3e" stroke-miterlimit="10" stroke-width="7.6771"/><path d="m59.7508 75.0213s-13.6413-1.2347-23.112-.824" stroke="#9c6c3e" stroke-miterlimit="10" stroke-width="7.6771"/><path d="m67.2601 87.7893-6.5227 5.9894s-5.1493-2.6587-4.5306-7.9534c.62-5.292 3.4746-7.14 3.4746-7.14z" fill="#d1d7ec"/><path d="m67.2601 87.7867-5.8013 5.3253s-4.5787-2.364-4.028-7.0733c.5493-4.7054 3.0893-6.3507 3.0893-6.3507z" fill="#181419"/><path d="m67.2601 87.7786-4.8427 4.4454s-3.8213-1.9747-3.3613-5.904c.46-3.9267 2.5787-5.2987 2.5787-5.2987z" fill="#35346f"/><path d="m45.1574 62.716h-5.416v-1.8334h5.416z" fill="#35346f"/><path d="m45.6294 60.8826h-5.4186v-1.8333h5.4186z" fill="#a22735"/><path d="m46.4294 59.0493h-5.4173v-1.8333h5.4173z" fill="#35346f"/><path d="m46.9001 57.216h-5.4173v-1.8333h5.4173z" fill="#a22735"/><path d="m47.7001 55.3827h-5.416v-1.836h5.416z" fill="#35346f"/><path d="m48.1721 53.5467h-5.4173v-1.8334h5.4173z" fill="#a22735"/><path d="m48.9721 51.7133h-5.416v-1.8333h5.416z" fill="#35346f"/><path d="m45.6294 62.7946 3.9627-10.2706 10.2787-.724-5.8854 11.7653z" fill="#302f36"/><path d="m32.8401 62.136-1.4387-11.36 10.472.4786.1694 4.1854-3.6027 7.4507z" fill="#302f36"/><path d="m44.7734 50.5627-4.648 12.0253-3.4133-.452s4.7773-6.284 4.0307-8.672c-.7467-2.3907-6.2707-.94-6.2707-.94l-2.3667-4.2347z" fill="#181419"/><path d="m44.0268 62.8907 4.5426-12.2 11.6014-.868-1.532 3.4693s-6.316-1.196-8.1507.2987c-1.8347 1.492-3.5813 9.1253-3.5813 9.1253z" fill="#181419"/><path d="m55.2188 67.2027c-9.4707.412-23.1134-.8227-23.1134-.8227v-4.244s13.6427 1.2333 23.1134.8226" fill="#181419"/><path d="m32.1054 62.136s13.6427 1.2333 23.1134.8226" stroke="#9c6c3e" stroke-miterlimit="10" stroke-width="7.6771"/><path d="m32.1054 66.38s13.6427 1.2346 23.1134.8226" stroke="#9c6c3e" stroke-miterlimit="10" stroke-width="7.6771"/><path d="m79.6374 44.9666c-1.8733-.6053-3.8533-.9306-5.904-.9306-11.5106 0-20.8413 10.2066-20.8413 22.8 0 12.5906 9.3307 22.7973 20.8413 22.7973 2.0507 0 4.0307-.3267 5.904-.928z" fill="#dee4f5"/><path d="m79.6374 45.9586c-1.8666-.6306-3.848-.9693-5.904-.9693-11.0306 0-19.9706 9.7787-19.9706 21.8467 0 12.0653 8.94 21.8467 19.9706 21.8467 2.056 0 4.0374-.3414 5.904-.9721z" fill="#d1d7ec"/><path d="m79.6374 50.7027c-1.8266-.7987-3.8173-1.2441-5.904-1.2441-8.772 0-15.8827 7.7814-15.8827 17.3774s7.1107 17.3746 15.8827 17.3746c2.0867 0 4.0774-.4453 5.904-1.2439z" fill="#9c6c3e"/><path d="m79.6374 52.5413c-1.8013-.8933-3.7986-1.3933-5.904-1.3933-7.92 0-14.3386 7.024-14.3386 15.688 0 8.6613 6.4186 15.6853 14.3386 15.6853 2.1054 0 4.1027-.5 5.904-1.3907z" fill="#ae8f42"/><path d="m79.6374 57.864c-1.6626-1.312-3.7-2.0853-5.904-2.0853-5.5826 0-10.1066 4.9506-10.1066 11.0573 0 6.104 4.524 11.0547 10.1066 11.0547 2.204 0 4.2414-.7734 5.904-2.084z" fill="#dee4f5"/><path d="m79.6374 58.568c-1.628-1.3933-3.6773-2.2267-5.904-2.2267-5.2986 0-9.5933 4.6974-9.5933 10.4947 0 5.7947 4.2947 10.492 9.5933 10.492 2.2267 0 4.276-.8334 5.904-2.2267z" fill="#302f36"/><path d="m79.6374 65.2373c-.3346-.2186-.664-.448-.984-.6826-.3267-.2427-.6466-.492-.9586-.752h-.0014c-.312-.2587-.6133-.5267-.9093-.8-.0027-.0027-.004-.0054-.0067-.0081-.292-.2706-.576-.5519-.852-.8386-.0066-.008-.012-.0133-.0186-.02-.0374.2987-.08.596-.1307.8906-.008.052-.02.1014-.028.1534-.0427.2346-.0867.4706-.136.7026-.0013.008-.0027.0134-.0053.0214-.0174.0827-.0387.1693-.0587.252-.0413.1827-.0827.3626-.1294.5413-.0093.0347-.0186.0707-.0279.1054-.0214.0853-.0467.1693-.0707.252-.0467.172-.0947.3413-.1467.5106-.0093.0333-.0213.068-.0306.1014-.0267.0853-.056.1693-.0827.252-.056.172-.112.344-.172.516-.0387.1093-.0827.2186-.124.3279-.06.1614-.1213.3254-.1853.4867-.0467.112-.0947.2227-.1414.3333-.0666.1574-.132.3134-.2026.4667-.0507.112-.1054.2213-.1574.3333-.072.1507-.144.3027-.2173.4507-.0573.1093-.116.2213-.1747.3307-.0667.1253-.1346.2507-.2026.3747-.0134.0266-.0267.0519-.0414.0759-.0586.104-.12.208-.18.312-.064.1067-.1266.216-.1906.3227-.0374.06-.0747.12-.112.18-.0494.0813-.0987.1587-.1507.24-.0733.1147-.1493.2293-.2253.344-.0534.08-.1094.1614-.1641.2387-.0306.0453-.0599.092-.0933.136-.0893.1307-.18.2573-.2733.3827-.088.1226-.1787.2399-.2693.3599-.0867.112-.172.224-.26.3334-.0427.052-.0854.104-.128.156-.076.0907-.1507.1853-.228.276-.0654.0773-.1307.1533-.1974.232-.0653.072-.1306.148-.196.2213-.1066.12-.216.236-.324.3534-.02.024-.0386.0453-.0586.0653-.0854.092-.172.1827-.26.2707-.1347.1386-.2707.2733-.4094.4066-.072.0707-.1426.14-.216.208-.056.052-.1133.104-.1693.156-.124.1147-.2507.2294-.3773.3414-.032.0293-.0627.0573-.0934.084-.0906.08-.184.156-.2773.2346-.1427.1187-.2854.2387-.4334.356-.1066.0867-.2159.1693-.3253.2533-.104.08-.2067.1587-.312.236-.128.0947-.2586.1854-.388.2761-.104.0733-.212.1493-.3186.2213-.132.0893-.268.1773-.4014.264-.108.0666-.2147.1373-.3253.2053-.1374.0853-.2787.1667-.4187.2493-.108.0627-.216.1281-.3266.1907-.144.0814-.2907.156-.4374.2347-.108.0573-.2173.1173-.328.1746-.152.0747-.3053.1481-.4586.2214-.108.052-.2147.104-.3227.1533-.164.076-.328.1427-.4933.2134-.104.044-.204.0906-.3067.1333-.184.072-.368.14-.5547.2106-.0866.0334-.1733.068-.26.0987-.2386.0867-.48.164-.7213.24-.0373.0134-.0733.0254-.1093.036-.2827.0894-.5654.1693-.852.2453-.0427.0107-.0854.0174-.128.028-.2414.0627-.4854.1227-.7307.1747-.0893.0214-.18.0334-.2693.052-.2.0414-.4.0814-.6027.1174-.1053.0186-.2133.0306-.3187.0466-.504.0787-1.0106.1413-1.524.18 3.792 5.6693 9.9173 9.352 16.8307 9.352 2.044 0 4.0173-.324 5.8853-.9226z" fill="#9c6c3e"/><path d="m79.6374 66.8093c-.2146-.6947-.5066-1.2266-.908-1.5226-.7493-.808-1.764-1.4254-2.5386-2.2347-1.1 8.8627-8.6294 17.3253-17.552 18.008 4.996 7.4706 20.4093 13.224 20.9986 1.128z" fill="#ae8f42"/><path d="m41.4081 24.9693s-6.904 15.2574-5.8347 20.1734c1.0667 4.9173 10.8947-8.9974 10.8947-8.9974z" fill="#181419"/><path d="m47.3401 10.9973s-10.9693 2.6307-16.0013 17.812c-5.0334 15.1853-2.7307 21.0134-2.7307 21.0134l7.6453-5.3494s-.7-7.1733 4.5467-19.588c5.2453-12.412 6.54-11.276 6.54-11.276z" fill="#302f36"/><path d="m53.6255 12.328s-10.9694 2.6307-16.0014 17.812c-5.0333 15.1853-2.6173 17.928-2.6173 17.928l2.2173-.492s-2.7986-4.9374 2.4467-17.3494 13.9547-15.2893 13.9547-15.2893z" fill="#ae8f42"/><path d="m79.6374 66.1253v-14.8773l-7.66-7.092-7.7973 4.4507z" fill="#35346f"/><path d="m62.5054 48.964s16.724 19.252 17.132 19.4653v-2.9786l-14.008-16.844z" fill="#181419"/><path d="m36.7988 43.188-6.8267 5.2027s19.7907 7.2053 42.908-1.6614l-5.532-6.8253z" fill="#9c6c3e"/><path d="m38.1615 42.1173-6.8227 5.2027s18.424 6.816 41.5413-2.052l-5.532-6.8253z" fill="#ae8f42"/><path d="m42.9974 36.2106c0 .136-1.252 3.7734-4.836 5.9067 0 0 18.024 3.2467 29.1867-2.2133 0 0-1.7187-11.068-7.0933-8.776-5.3734 2.288-17.2574 5.0826-17.2574 5.0826z" fill="#d1d7ec"/><path d="m40.9961 22.0813s-.4533 4.0387 0 4.6347c.4534.5987.5387 1.068.368 2.0493-.1693.984-.1693 5.724.5987 6.748.768 1.0254 4.0133 7.2187 6.2347 7.26 2.22.044 11.5746-3.8 11.7026-8.7973 0 0 .6827.896 1.5787.3853.8987-.512 1.0267-4.228 1.0267-4.228s-7.652-16.6986-15.1654-15.972c0 0-6.3693 4.5654-6.344 7.92z" fill="#dee4f5"/><path d="m47.3401 10.9973s7.9467-2.13066 14.1347 4.464c6.1893 6.596 12.988 22.424 18.1626 24.148v6.5333s-12.5813-6.432-15.6253-16.3746c-3.044-9.9427-16.672-18.7707-16.672-18.7707z" fill="#181419"/><path d="m47.3401 14.492s2.0347 8.9533 10.76 9.2573c2.4347-2.3333-5.5747-9.2573-5.5747-9.2573s-1.6533-1.3147-5.1853-.8827z" fill="#c57135"/><path d="m47.3401 13.6093s8.44 2.1667 15.4387 19.3853c11.8853 19.2027 16.8586 18.2534 16.8586 18.2534v-5.1054s-8.624-6.94-13.9-16.476c-5.276-9.5386-8.7906-18.6693-18.3973-18.6693z" fill="#302f36"/><path d="m47.3401 10.9973s-10.9693 2.6307-16.0013 17.812c-5.0334 15.1853-2.7307 21.0134-2.7307 21.0134l2.0173-1.216s-2.4867-7.3001 2.76-19.7107c5.2467-12.412 13.9547-15.2867 13.9547-15.2867z" fill="#ae8f42"/><path d="m47.3401 14.492s-1.3494 5.7626-6.5547 7.6693c0 0-1.6266-9.3907 6.5547-8.552z" fill="#af6734"/><path d="m24.5975 53.612 6.524-5.9893s5.148 2.6613 4.528 7.9533c-.6187 5.2906-3.472 7.14-3.472 7.14z" fill="#d1d7ec"/><path d="m24.5974 53.6173 5.8027-5.328s4.5773 2.3667 4.0266 7.072c-.5506 4.7094-3.0879 6.352-3.0879 6.352z" fill="#181419"/><path d="m24.5975 53.6227 4.8426-4.4454s3.8214 1.9733 3.3614 5.904c-.4587 3.9293-2.5787 5.3013-2.5787 5.3013z" fill="#35346f"/><path d="m40.9561 26.0707s.2347-.1267.612-.2614c.3747-.1426.8987-.2733 1.436-.336.536-.1 1.0973-.072 1.484.0814.3893.148.616.308.616.308l-.0133.0506s-.2867.0547-.6694.0427c-.1893-.0267-.4173.0173-.6506-.008-.2347-.0387-.488-.048-.744-.0653-1.0267-.0374-2.052.2346-2.0534.2346z" fill="#c57135"/><path d="m53.6161 25.9053c0 .0014-1.3386-.2573-2.6733-.2093-.3333.0213-.664.036-.972.076-.3067.0253-.6014-.0227-.8494-.0013-.5 0-.8599-.068-.8599-.068l-.012-.0574s.308-.1733.8133-.3347c.252-.084.5547-.1186.88-.1453.3267-.0226.6747.032 1.0187.0654.6893.068 1.3666.1986 1.8599.348.496.14.8121.2706.8121.272z" fill="#c57135"/><path d="m49.0375 27.404s.2626.06.6506.1066c.388.04.9.1067 1.4147.0787.2573.0067.5147.0054.7547-.032.2386-.0293.4706-.02.6599-.0706.3867-.06.6574-.0827.6574-.0827s-.2373.1147-.6147.264c-.3773.1387-.9146.2467-1.4546.2507-.272.0093-.54-.0347-.7907-.0601-.2507-.0346-.4773-.1119-.6707-.1679-.3813-.1374-.6066-.2867-.6066-.2867z" fill="#333558"/><path d="m44.6415 27.404s-.164.14-.4614.272c-.1506.056-.328.1293-.528.1653-.2013.024-.416.0707-.6333.0587-.4347-.004-.8653-.1107-1.156-.2453-.2907-.1427-.4707-.2507-.4707-.2507s.216.0293.5187.0933c.1467.0507.3307.0467.5187.076.1866.0374.3893.0427.592.0347.4026.028.8053-.0413 1.1106-.088.3054-.0507.5094-.116.5094-.116z" fill="#333558"/><path d="m47.0375 37.4613s.8933.5547 2.16 0z" fill="#dee4f5"/><path d="m47.0375 37.4613s.14.0387.3426.0667c.204.0226.468.068.7334.0453.264.012.532-.0373.7333-.0667.204-.0346.3507-.0453.3507-.0453s-.1147.08-.308.1827c-.192.1-.4787.1786-.7721.184-.1466.0066-.2919-.0214-.4279-.0427-.1347-.0227-.252-.0827-.3534-.12-.196-.1-.2986-.204-.2986-.204z" fill="#333558"/><path d="m45.5481 35.916s1.2853-.1373 2.5693-.1267c1.284-.0106 2.5694.1267 2.5694.1267s-1.2854.1386-2.5694.128c-1.284.0106-2.5693-.128-2.5693-.128z" fill="#333558"/><path d="m46.1495 33.0053s.1093.1667.34.3107c.1106.0826.2546.144.4146.2026.1467.0814.3387.0907.5107.1414.1747.0453.3627.052.5333.08.1707.0306.336.0293.476.0386.2814.0227.476.052.476.052s-.1853.0454-.472.092c-.2853.0627-.6773.0414-1.0653-.012-.188-.0666-.3867-.0893-.5493-.1906-.1734-.0747-.3107-.188-.4174-.2947-.108-.1027-.1666-.2173-.2013-.2947-.0373-.0786-.0453-.1253-.0453-.1253z" fill="#333558"/><path d="m12.2201 96.4373c1.872.6013 3.8547.9293 5.904.9293 11.5107 0 20.8413-10.208 20.8413-22.7986 0-12.5947-9.3306-22.8-20.8413-22.8-2.0493 0-4.032.3253-5.904.9293z" fill="#dee4f5"/><path d="m12.2201 95.4426c1.8667.6307 3.8494.9721 5.904.9721 11.0294 0 19.9707-9.7814 19.9707-21.8467 0-12.068-8.9413-21.8467-19.9707-21.8467-2.0546 0-4.0373.3413-5.904.972z" fill="#d1d7ec"/><path d="m12.2201 90.6973c1.8267.8 3.816 1.2454 5.904 1.2454 8.7734 0 15.884-7.7787 15.884-17.3747s-7.1106-17.3747-15.884-17.3747c-2.088 0-4.0773.4427-5.904 1.244z" fill="#9c6c3e"/><path d="m12.2201 88.8613c1.8027.8907 3.7987 1.3907 5.904 1.3907 7.92 0 14.3413-7.0227 14.3413-15.684 0-8.664-6.4213-15.688-14.3413-15.688-2.1053 0-4.1013.5-5.904 1.3933z" fill="#ae8f42"/><path d="m12.2201 83.5386c1.6627 1.3107 3.6987 2.0867 5.904 2.0867 5.5813 0 10.108-4.9507 10.108-11.0573 0-6.1067-4.5267-11.0574-10.108-11.0574-2.2053 0-4.2413.7734-5.904 2.0854z" fill="#dee4f5"/><path d="m12.2201 82.8333c1.6294 1.396 3.6774 2.2267 5.904 2.2267 5.2987 0 9.592-4.6987 9.592-10.492 0-5.7974-4.2933-10.4947-9.592-10.4947-2.2266 0-4.2746.8333-5.904 2.2267z" fill="#302f36"/><path d="m12.2201 76.1666c.3347.216.6627.4454.984.6827.3267.2387.648.4893.9587.7493h.0013c.3107.2587.6147.5267.9093.8.0027.0027.0054.0054.008.008.2907.2734.5734.552.8507.8414.0067.004.012.0093.0186.0173.036-.2987.0801-.596.1307-.8907.008-.052.0187-.1013.028-.1506.0427-.2374.0867-.472.136-.7027.0027-.008.004-.016.004-.0213.0187-.0854.0414-.1694.0587-.2547.044-.18.0853-.3627.1307-.54.0093-.036.0186-.072.028-.1067.0213-.0853.0466-.1693.0693-.252.048-.172.096-.3413.148-.5106.0106-.0334.02-.068.0307-.1014.0266-.084.0546-.1693.084-.2533.056-.172.1106-.3427.172-.512.0386-.112.08-.22.1213-.3293.0613-.164.1227-.328.188-.4894.0453-.112.092-.2213.14-.3306.0653-.156.1333-.3147.2027-.468.0506-.112.1053-.2214.1586-.3334.072-.152.1427-.3.2174-.4506.0573-.1094.116-.2187.1746-.3307.0667-.1253.132-.2507.2014-.376.0133-.0227.028-.0493.0413-.0747.0573-.104.1187-.208.1787-.3106.064-.1094.128-.216.1933-.3227.036-.0627.0733-.1227.1107-.1813.0493-.0787.1-.16.1506-.2374.0734-.1146.148-.232.224-.344.0547-.0813.1107-.1613.1654-.2426.032-.044.0613-.0907.0933-.1347.0893-.128.18-.256.2733-.3827.088-.12.1787-.24.2707-.36.0853-.112.172-.224.26-.3333.0413-.052.084-.104.1267-.156.0746-.0907.152-.1827.2293-.2733.064-.0787.1293-.156.196-.232.0653-.076.1306-.1507.196-.224.108-.12.216-.2374.3253-.3547.0187-.02.0374-.0413.0574-.0613.0866-.092.172-.1827.26-.272.1346-.1374.2706-.2734.4093-.408.072-.0707.144-.1414.2173-.208.0547-.0534.112-.1054.168-.1574.124-.1146.2494-.2293.3774-.3413.0306-.028.0626-.0547.0933-.0827.0907-.0786.1853-.156.276-.2346.1453-.12.288-.2387.4333-.3534.108-.0866.2174-.172.3267-.256.1053-.0773.208-.1586.312-.2373.128-.0933.2573-.184.388-.276.1053-.072.2107-.148.3173-.2213.1347-.088.268-.1734.4053-.2627.1067-.068.2134-.1373.3214-.2053.1387-.084.2787-.1667.42-.2507.1093-.0627.2173-.1267.328-.1867.144-.0813.2893-.1586.4373-.2373.108-.0573.216-.1173.3267-.172.152-.0787.3053-.1507.46-.224.108-.052.2147-.104.3227-.1533.1626-.076.328-.144.492-.2134.1026-.044.204-.0893.3066-.1306.184-.076.3693-.1427.5533-.2134.0894-.032.1734-.0653.2627-.0986.2374-.084.4787-.164.7214-.24.036-.0107.0706-.0267.1093-.036.2813-.0867.5653-.1694.8507-.2427.0426-.0133.0866-.0213.128-.0307.2426-.0626.4853-.12.7306-.1746.0894-.0187.18-.0347.2694-.052.2013-.0427.4-.0814.6026-.1147.1054-.0187.212-.0347.32-.0493.5027-.0787 1.0094-.1414 1.5214-.18-3.792-5.6694-9.916-9.352-16.8294-9.352-2.044 0-4.0186.3226-5.8853.9226z" fill="#9c6c3e"/><path d="m12.2201 74.5933c.2147.6934.508 1.224.9093 1.5214.7467.8066 1.7627 1.424 2.5387 2.2346 1.0987-8.8626 8.628-17.3253 17.5507-18.008-4.996-7.472-20.4107-13.224-20.9987-1.1253z" fill="#ae8f42"/><path d="m12.2201 75.2786v14.8747l7.6587 7.092 7.8-4.4507z" fill="#35346f"/><path d="m29.3535 92.44s-16.724-19.2547-17.1334-19.468v2.9786l14.008 16.844z" fill="#181419"/><path d="m50.4508 116.432s6.9026-15.257 5.8346-20.1747c-1.0693-4.916-10.896 8.9977-10.896 8.9977z" fill="#181419"/><path d="m44.5174 130.404s10.9694-2.628 16.0027-17.813c5.032-15.1817 2.7293-21.0097 2.7293-21.0097l-7.6466 5.3453s.7026 7.1774-4.544 19.5894c-5.2467 12.411-6.5414 11.279-6.5414 11.279z" fill="#302f36"/><path d="m38.2321 129.073s10.968-2.628 16.0026-17.813c5.032-15.1814 2.6174-17.9267 2.6174-17.9267l-2.2174.492s2.7974 4.9374-2.448 17.3497c-5.2453 12.413-13.9546 15.289-13.9546 15.289z" fill="#ae8f42"/><path d="m55.0601 98.2133 6.824-5.2027s-19.7893-7.204-42.9066 1.6614l5.5333 6.825z" fill="#9c6c3e"/><path d="m53.6948 99.284 6.8253-5.2027s-18.4253-6.816-41.5426 2.052l5.5333 6.8257z" fill="#ae8f42"/><path d="m48.8601 105.191c0-.136 1.2534-3.775 4.8347-5.907 0 0-18.0227-3.248-29.184 2.216 0 0 1.7173 11.065 7.092 8.776 5.3733-2.292 17.2573-5.085 17.2573-5.085z" fill="#d1d7ec"/><path d="m50.8615 119.32s.4533-4.036 0-4.635c-.4534-.597-.5387-1.068-.368-2.049.1706-.983.1706-5.724-.5987-6.748-.768-1.027-4.0147-7.2187-6.2347-7.26-2.22-.0454-11.5746 3.799-11.7013 8.796 0 0-.684-.896-1.5813-.383-.8973.511-1.024 4.227-1.024 4.227s7.6506 16.701 15.164 15.975c0 0 6.3706-4.568 6.344-7.923z" fill="#dee4f5"/><path d="m44.5174 130.404s-7.9453 2.129-14.1359-4.464c-6.188-6.596-12.9854-22.424-18.1614-24.148v-6.5347s12.5827 6.4337 15.6254 16.3757c3.044 9.946 16.6719 18.771 16.6719 18.771z" fill="#181419"/><path d="m44.5174 126.912s-2.0359-8.956-10.7613-9.261c-2.4346 2.333 5.576 9.261 5.576 9.261s1.6533 1.312 5.1853.883z" fill="#c57135"/><path d="m44.5174 127.795s-8.4399-2.167-15.4373-19.388c-11.8853-19.2043-16.86-18.2537-16.86-18.2537v5.104s8.6254 6.9397 13.9014 16.4777 8.7906 18.669 18.3959 18.669z" fill="#302f36"/><path d="m44.5174 130.404s10.9694-2.628 16.0027-17.813c5.032-15.1817 2.7293-21.0097 2.7293-21.0097l-2.016 1.2133s2.4854 7.2984-2.7613 19.7104c-5.2453 12.414-13.9547 15.29-13.9547 15.29z" fill="#ae8f42"/><path d="m44.5174 126.912s1.3481-5.767 6.5561-7.672c0 0 1.6253 9.391-6.5561 8.555z" fill="#af6734"/><path d="m50.9028 115.333s-.236.126-.6133.26c-.3747.143-.8987.271-1.4361.335-.536.1-1.0973.072-1.4826-.081-.3893-.15-.6174-.31-.6174-.31l.0147-.049s.2867-.055.6694-.043c.188.027.4159-.017.6493.008.2346.039.488.05.7453.067 1.0267.037 2.052-.233 2.052-.233z" fill="#c57135"/><path d="m38.2401 115.496c0-.001 1.3387.257 2.6747.209.3333-.018.664-.033.972-.073.3066-.025.6013.023.848.001.5 0 .8613.067.8613.067l.012.057s-.3093.175-.8146.335c-.2507.085-.5534.119-.88.147-.3267.021-.6734-.034-1.0187-.067-.6893-.068-1.3667-.2-1.86-.349-.4947-.14-.812-.271-.812-.272z" fill="#c57135"/><path d="m42.8187 114s-.2613-.06-.6493-.107c-.3893-.04-.9013-.108-1.416-.08-.256-.006-.5133-.005-.7533.034-.24.029-.472.018-.66.069-.3867.06-.6573.084-.6573.084s.2373-.115.6146-.264c.376-.14.9133-.247 1.4547-.252.2706-.009.5387.036.7907.061.2506.035.4773.112.6693.168.3827.138.6066.287.6066.287z" fill="#333558"/><path d="m47.2161 114s.164-.14.4614-.272c.1506-.056.328-.129.528-.165.2013-.026.416-.071.6346-.059.4347.004.864.111 1.1547.245.292.143.472.251.472.251s-.2173-.029-.52-.093c-.1453-.051-.3307-.047-.5173-.076-.188-.038-.3907-.043-.592-.035-.404-.028-.8067.041-1.112.088-.304.051-.5094.116-.5094.116z" fill="#333558"/><path d="m44.8201 103.94s-.8933-.555-2.16 0z" fill="#dee4f5"/><path d="m44.8201 103.94s-.14-.039-.3426-.068c-.2027-.021-.4667-.067-.732-.044-.2654-.013-.532.036-.7347.067-.2027.033-.3507.045-.3507.045s.116-.08.3094-.184c.1906-.099.4786-.177.772-.183.1466-.006.292.02.4266.043.136.023.2533.081.3533.12.1974.1.2987.204.2987.204z" fill="#333558"/><path d="m46.3094 105.484s-1.284.139-2.568.128c-1.2853.011-2.5693-.128-2.5693-.128s1.284-.137 2.5693-.127c1.284-.01 2.568.127 2.568.127z" fill="#333558"/><path d="m45.7081 108.396s-.1093-.167-.34-.312c-.1093-.081-.2546-.143-.4133-.201-.1467-.082-.34-.09-.5107-.142-.176-.046-.3626-.052-.5333-.08-.1707-.03-.336-.029-.476-.038-.2827-.023-.476-.052-.476-.052s.184-.046.472-.094c.2853-.061.676-.04 1.0653.014.1867.066.3854.089.5494.19.172.075.3093.187.416.294.108.104.168.218.2026.296.036.078.044.125.044.125z" fill="#333558"/></svg>