<svg fill="none" height="140" viewBox="0 0 93 140" width="93" xmlns="http://www.w3.org/2000/svg"><path d="m.0108032 4.66528c0-2.004 1.6211268-3.62806 3.6202568-3.62806h84.75684c2.0004 0 3.6229 1.62406 3.6229 3.62806v130.98972c0 2.004-1.6225 3.626-3.6229 3.626h-84.75684c-1.99913 0-3.6202568-1.622-3.6202568-3.626z" fill="#fff"/><path d="m62.9988 109.247c1.164.956 2.372 1.944 3.296 3.038.156.187.3867.288.6213.288h.0494c.24 0 .4693-.101.6253-.288.924-1.094 2.1333-2.082 3.2973-3.038 2.4693-2.019 5.0174-4.111 5.0174-7.346 0-2.9358-2.0507-4.9851-4.9934-4.9851-1.4213 0-2.66.836-3.5 1.6013.4027-1.728 1.1587-3.7733 2.584-5.3759h-6.1013c1.4253 1.6066 2.1813 3.6533 2.5853 5.3826-.8413-.7666-2.0813-1.608-3.5066-1.608-2.9374 0-4.992 2.0493-4.992 4.9851 0 3.231 2.552 5.322 5.0173 7.346z" fill="#302f36"/><path d="m66.9655 93.1413v19.4317c.24 0 .4693-.101.6253-.288.924-1.094 2.1333-2.082 3.2973-3.038 2.4693-2.019 5.0174-4.111 5.0174-7.346 0-2.9358-2.0507-4.9851-4.9934-4.9851-1.4213 0-2.66.836-3.5 1.6013.4027-1.728 1.1587-3.7733 2.584-5.3759z" fill="#46464e"/><path d="m80.0894 120.916c.604.495 1.2294 1.007 1.7081 1.573.08.096.1999.15.3226.15h.024c.124 0 .2427-.054.324-.15.4787-.566 1.1054-1.078 1.708-1.573 1.2787-1.045 2.5987-2.129 2.5987-3.805 0-1.52-1.0627-2.582-2.5867-2.582-.736 0-1.3773.432-1.8133.83.2093-.896.6-1.955 1.3387-2.786h-3.1601c.74.832 1.1307 1.894 1.3401 2.79-.436-.399-1.0787-.834-1.816-.834-1.5214 0-2.5867 1.062-2.5867 2.582 0 1.673 1.3226 2.757 2.5986 3.805z" fill="#302f36"/><path d="m82.1428 112.573v10.066h.0013c.124 0 .2427-.054.324-.15.4787-.566 1.1054-1.078 1.708-1.573 1.2787-1.045 2.5987-2.129 2.5987-3.805 0-1.52-1.0627-2.582-2.5867-2.582-.736 0-1.3773.432-1.8133.83.2093-.896.6-1.955 1.3387-2.786z" fill="#46464e"/><path d="m11.7668 19.4026c-.6027-.4947-1.228-1.0067-1.7067-1.5733-.08131-.0974-.19863-.1494-.3213-.1494h-.02532c-.12533 0-.24269.052-.32403.1494-.47866.5666-1.10397 1.0786-1.70797 1.5733-1.27733 1.0453-2.59867 2.1293-2.59867 3.8053 0 1.52 1.06266 2.5813 2.58666 2.5813.736 0 1.37734-.4333 1.81201-.8293-.208.896-.60001 1.9546-1.33867 2.7853h3.16129c-.7386-.832-1.1293-1.8933-1.33864-2.7893.43464.3987 1.07604.8333 1.81464.8333 1.5227 0 2.5867-1.0613 2.5867-2.5813 0-1.6733-1.3227-2.7573-2.6-3.8053z" fill="#302f36"/><path d="m9.71348 27.7452v-10.0653c-.12534 0-.24269.052-.32403.1494-.47866.5666-1.10397 1.0786-1.70797 1.5733-1.27733 1.0453-2.59867 2.1293-2.59867 3.8053 0 1.52 1.06266 2.5813 2.58666 2.5813.736 0 1.37734-.4333 1.81201-.8293-.208.896-.60001 1.9546-1.33867 2.7853z" fill="#46464e"/><path d="m21.0574 109.247c1.164.956 2.372 1.944 3.296 3.038.1547.187.3854.288.6214.288h.0493c.2387 0 .468-.101.624-.288.9253-1.094 2.1333-2.082 3.2973-3.038 2.4694-2.019 5.0174-4.111 5.0174-7.346 0-2.9358-2.0507-4.9851-4.992-4.9851-1.4214 0-2.66.836-3.5014 1.6013.4027-1.728 1.1587-3.7733 2.584-5.3759h-6.1c1.4254 1.6066 2.1814 3.6533 2.584 5.3826-.84-.7666-2.08-1.608-3.5053-1.608-2.9373 0-4.9933 2.0493-4.9933 4.9851 0 3.231 2.5533 5.322 5.0186 7.346z" fill="#302f36"/><path d="m25.0228 93.1413v19.4317h.0013c.2387 0 .468-.101.624-.288.9253-1.094 2.1333-2.082 3.2973-3.038 2.4694-2.019 5.0174-4.111 5.0174-7.346 0-2.9358-2.0507-4.9851-4.992-4.9851-1.4214 0-2.66.836-3.5014 1.6013.4027-1.728 1.1587-3.7733 2.584-5.3759z" fill="#46464e"/><path d="m62.9988 76.5493c1.164.9546 2.372 1.944 3.296 3.0386.156.1854.3867.288.6213.288h.0494c.24 0 .4693-.1026.6253-.288.924-1.0946 2.1333-2.084 3.2973-3.0386 2.4693-2.0187 5.0174-4.1107 5.0174-7.3454 0-2.936-2.0507-4.9867-4.9934-4.9867-1.4213 0-2.66.8374-3.5 1.6027.4027-1.728 1.1587-3.7733 2.584-5.376h-6.1013c1.4253 1.6067 2.1813 3.6534 2.5853 5.3827-.8413-.768-2.0813-1.6094-3.5066-1.6094-2.9374 0-4.992 2.0507-4.992 4.9867 0 3.2307 2.552 5.3214 5.0173 7.3454z" fill="#302f36"/><path d="m66.9655 60.4439v19.432c.24 0 .4693-.1026.6253-.288.924-1.0946 2.1333-2.084 3.2973-3.0386 2.4693-2.0187 5.0174-4.1107 5.0174-7.3454 0-2.936-2.0507-4.9867-4.9934-4.9867-1.4213 0-2.66.8374-3.5 1.6027.4027-1.728 1.1587-3.7733 2.584-5.376z" fill="#46464e"/><path d="m21.0574 76.5493c1.164.9546 2.372 1.944 3.296 3.0386.1547.1854.3854.288.6214.288h.0493c.2387 0 .468-.1026.624-.288.9253-1.0946 2.1333-2.084 3.2973-3.0386 2.4694-2.0187 5.0174-4.1107 5.0174-7.3454 0-2.936-2.0507-4.9867-4.992-4.9867-1.4214 0-2.66.8374-3.5014 1.6027.4027-1.728 1.1587-3.7733 2.584-5.376h-6.1c1.4254 1.6067 2.1814 3.6534 2.584 5.3827-.84-.768-2.08-1.6094-3.5053-1.6094-2.9373 0-4.9933 2.0507-4.9933 4.9867 0 3.2307 2.5533 5.3214 5.0186 7.3454z" fill="#302f36"/><path d="m25.0228 60.4439v19.432h.0013c.2387 0 .468-.1026.624-.288.9253-1.0946 2.1333-2.084 3.2973-3.0386 2.4694-2.0187 5.0174-4.1107 5.0174-7.3454 0-2.936-2.0507-4.9867-4.992-4.9867-1.4214 0-2.66.8374-3.5014 1.6027.4027-1.728 1.1587-3.7733 2.584-5.376z" fill="#46464e"/><path d="m62.9988 43.8492c1.164.956 2.372 1.944 3.296 3.04.156.1854.3867.288.6213.288h.0494c.24 0 .4693-.1026.6253-.288.924-1.096 2.1333-2.084 3.2973-3.04 2.4693-2.0173 5.0174-4.1093 5.0174-7.3453 0-2.9347-2.0507-4.9853-4.9934-4.9853-1.4213 0-2.66.8373-3.5 1.6013.4027-1.728 1.1587-3.7733 2.584-5.376h-6.1013c1.4253 1.6067 2.1813 3.6547 2.5853 5.384-.8413-.768-2.0813-1.6093-3.5066-1.6093-2.9374 0-4.992 2.0506-4.992 4.9853 0 3.2306 2.552 5.3227 5.0173 7.3453z" fill="#302f36"/><path d="m66.9655 27.7439v19.4333c.24 0 .4693-.1026.6253-.288.924-1.096 2.1333-2.084 3.2973-3.04 2.4693-2.0173 5.0174-4.1093 5.0174-7.3453 0-2.9347-2.0507-4.9853-4.9934-4.9853-1.4213 0-2.66.8373-3.5 1.6013.4027-1.728 1.1587-3.7733 2.584-5.376z" fill="#46464e"/><path d="m21.0574 43.8492c1.164.956 2.372 1.944 3.296 3.04.1547.1854.3854.288.6214.288h.0493c.2387 0 .468-.1026.624-.288.9253-1.096 2.1333-2.084 3.2973-3.04 2.4694-2.0173 5.0174-4.1093 5.0174-7.3453 0-2.9347-2.0507-4.9853-4.992-4.9853-1.4214 0-2.66.8373-3.5014 1.6013.4027-1.728 1.1587-3.7733 2.584-5.376h-6.1c1.4254 1.6067 2.1814 3.6547 2.584 5.384-.84-.768-2.08-1.6093-3.5053-1.6093-2.9373 0-4.9933 2.0506-4.9933 4.9853 0 3.2306 2.5533 5.3227 5.0186 7.3453z" fill="#302f36"/><path d="m25.0228 27.7439v19.4333h.0013c.2387 0 .468-.1026.624-.288.9253-1.096 2.1333-2.084 3.2973-3.04 2.4694-2.0173 5.0174-4.1093 5.0174-7.3453 0-2.9347-2.0507-4.9853-4.992-4.9853-1.4214 0-2.66.8373-3.5014 1.6013.4027-1.728 1.1587-3.7733 2.584-5.376z" fill="#46464e"/><g fill="#302f36"><path d="m79.8534 136.856v-1.113h.241c1.0205-.019 1.8332-.321 2.4379-.907.6048-.586.9544-1.41 1.0489-2.473-.5433.623-1.2851.935-2.2253.935-.8977 0-1.6135-.317-2.1474-.95-.5386-.633-.8079-1.45-.8079-2.452 0-1.063.2906-1.913.8717-2.551.5764-.638 1.3513-.957 2.3245-.957.9875 0 1.7883.378 2.4025 1.134.6142.761.9213 1.739.9213 2.934v.503c0 1.9-.4039 3.35-1.2118 4.352-.8127 1.006-2.0198 1.521-3.6215 1.545zm1.7222-4.649c.4488 0 .8622-.135 1.2402-.404.378-.27.6402-.607.7867-1.014v-.482c0-.85-.1914-1.535-.5741-2.055s-.8599-.779-1.4316-.779c-.5905 0-1.0536.217-1.389.652-.3402.434-.5103 1.004-.5103 1.708 0 .708.1725 1.28.5174 1.715.3402.439.7937.659 1.3607.659z"/><path d="m12.0055 3.46403v1.11265h-.241c-1.0205.0189-1.83314.32128-2.4379.90713-.60475.58586-.95438 1.41031-1.04887 2.47336.54333-.62365 1.2851-.93548 2.22527-.93548.8977 0 1.6135.31655 2.1474.94965.5386.63311.8079 1.45047.8079 2.45206 0 1.0631-.2906 1.9135-.8717 2.5514-.5764.6378-1.3512.9567-2.3245.9567-.98747 0-1.7883-.378-2.4025-1.1339-.61421-.7607-.92131-1.7387-.92131-2.93403v-.50318c0-1.89931.40396-3.34978 1.21187-4.3514.81264-1.00635 2.01984-1.52134 3.62144-1.54496zm-1.7222 4.64905c-.4488 0-.86221.13466-1.24018.40396-.37797.26931-.64019.60712-.78665 1.01344v.48192c0 .8504.19135 1.5355.57404 2.0552.3827.5197.85989.7796 1.43159.7796.5906 0 1.0536-.2173 1.389-.652.3402-.4347.5103-1.004.5103-1.708 0-.70868-.1725-1.28036-.5174-1.71503-.3401-.43939-.7937-.65909-1.3607-.65909z"/></g></svg>