<svg fill="none" height="140" viewBox="0 0 92 140" width="92" xmlns="http://www.w3.org/2000/svg"><path d="m-.00000045 3.6726c0-2.02811 1.62246045-3.6726 3.62159045-3.6726h84.75681c2.0005 0 3.6216 1.64449 3.6216 3.6726v132.6534c0 2.028-1.6211 3.674-3.6216 3.674h-84.75681c-1.99913 0-3.62159045-1.646-3.62159045-3.674z" fill="#fff"/><path d="m35.4122 86.4068c3.032 2.4891 6.1813 5.0625 8.588 7.9186.4067.4814 1.0053.7506 1.6213.7506h.1254c.624 0 1.224-.2692 1.6306-.7506 2.408-2.8561 5.5574-5.4295 8.592-7.9186 6.4294-5.2615 13.0707-10.712 13.0707-19.1418 0-7.6478-5.344-12.9915-13.0107-12.9915-3.6999 0-6.928 2.1801-9.12 4.1718 1.0533-4.5 3.0187-9.8281 6.7333-14.0052h-15.8959c3.716 4.1854 5.6813 9.5214 6.736 14.0266-2.1907-2-5.4241-4.1932-9.1347-4.1932-7.6534 0-13.012 5.3437-13.012 12.9915 0 8.4204 6.652 13.871 13.076 19.1418z" fill="#302f36"/><path d="m45.7455 44.4401v50.6359h.0014c.624 0 1.224-.2692 1.6306-.7506 2.408-2.8561 5.5574-5.4295 8.592-7.9186 6.4294-5.2615 13.0707-10.712 13.0707-19.1418 0-7.6478-5.344-12.9915-13.0107-12.9915-3.6999 0-6.928 2.1801-9.12 4.1718 1.0533-4.5 3.0187-9.8281 6.7333-14.0052z" fill="#46464e"/><path d="m79.7922 120.516c.6026.495 1.2294 1.005 1.7067 1.572.0813.097.2.149.3226.149h.0254c.1253 0 .2426-.052.3239-.149.4787-.567 1.1041-1.077 1.7067-1.572 1.2787-1.047 2.5987-2.131 2.5987-3.808 0-1.517-1.0613-2.58-2.5853-2.58-.736 0-1.3774.432-1.8134.828.2094-.893.6-1.953 1.3387-2.784h-3.16c.7386.833 1.1293 1.893 1.3387 2.789-.4347-.398-1.0774-.833-1.8147-.833-1.5227 0-2.5867 1.063-2.5867 2.58 0 1.675 1.3227 2.759 2.5987 3.808z" fill="#302f36"/><path d="m81.8469 112.172v10.065c.1253 0 .2426-.052.3239-.149.4787-.567 1.1041-1.077 1.7067-1.572 1.2787-1.047 2.5987-2.131 2.5987-3.808 0-1.517-1.0613-2.58-2.5853-2.58-.736 0-1.3774.432-1.8134.828.2094-.893.6-1.953 1.3387-2.784z" fill="#46464e"/><path d="m79.3805 128.822h4.3231l.9709-2.693h1.4032l-3.9403 10.318h-1.1907l-3.9474-10.318h1.3961zm3.912 1.12h-3.508l1.7576 4.826z" fill="#302f36"/><path d="m11.4708 19.0027c-.604-.4948-1.2293-1.0079-1.70792-1.5762-.08-.0958-.19869-.1478-.32136-.1478h-.02532c-.124 0-.24399.052-.32533.1478-.47733.5683-1.10404 1.0814-1.7067 1.5762-1.27867 1.0442-2.59863 2.128-2.59863 3.8041 0 1.5213 1.06262 2.5812 2.58528 2.5812.736 0 1.37871-.4317 1.81471-.8281-.21066.8964-.60133 1.9537-1.33867 2.7844h3.15994c-.74-.8307-1.13062-1.8938-1.33995-2.7896.43605.3989 1.08005.8333 1.81605.8333 1.5213 0 2.5866-1.0599 2.5866-2.5812 0-1.6735-1.3213-2.7573-2.5987-3.8041z" fill="#302f36"/><path d="m9.4162 27.3443v-10.0656c-.124 0-.24399.052-.32533.1478-.47733.5683-1.10404 1.0814-1.7067 1.5762-1.27867 1.0442-2.59864 2.128-2.59864 3.8041 0 1.5213 1.06262 2.5812 2.58529 2.5812.736 0 1.37871-.4317 1.81471-.8281-.21066.8964-.60133 1.9537-1.33867 2.7844z" fill="#46464e"/><path d="m11.8824 10.6955h-4.32301l-.97092 2.693h-1.40322l3.94036-10.3186h1.19059l3.9475 10.3186h-1.3962zm-3.91197-1.11976h3.50807l-1.75758-4.82623z" fill="#302f36"/></svg>