<svg fill="none" height="140" viewBox="0 0 93 140" width="93" xmlns="http://www.w3.org/2000/svg"><path d="m.713468 4.21599c0-2.00533 1.621072-3.628025 3.622842-3.628025h84.75429c2.0004 0 3.6229 1.622695 3.6229 3.628025v130.98901c0 2.004-1.6225 3.628-3.6229 3.628h-84.75429c-2.00177 0-3.622842-1.624-3.622842-3.628z" fill="#fff"/><path d="m80.7935 120.467c.6027.494 1.228 1.006 1.7066 1.574.0814.096.1987.15.3214.15h.0253c.1253 0 .2426-.054.324-.15.4786-.568 1.1053-1.08 1.708-1.574 1.2786-1.046 2.5973-2.13 2.5973-3.804 0-1.522-1.0599-2.583-2.5853-2.583-.736 0-1.376.433-1.812.829.208-.896.6-1.954 1.3373-2.785h-3.16c.7387.832 1.1307 1.893 1.3387 2.789-.4347-.397-1.0773-.833-1.8147-.833-1.5226 0-2.5853 1.061-2.5853 2.583 0 1.672 1.3214 2.756 2.5987 3.804z" fill="#302f36"/><path d="m82.8468 112.124v10.067c.1253 0 .2426-.054.324-.15.4786-.568 1.1053-1.08 1.708-1.574 1.2786-1.046 2.5973-2.13 2.5973-3.804 0-1.522-1.0599-2.583-2.5853-2.583-.736 0-1.376.433-1.812.829.208-.896.6-1.954 1.3373-2.785z" fill="#46464e"/><path d="m12.4708 18.9533c-.604-.4947-1.2293-1.0053-1.708-1.5733-.08-.096-.1987-.148-.3213-.148h-.0254c-.124 0-.244.052-.3253.148-.47732.568-1.10403 1.0786-1.70669 1.5733-1.27867 1.0467-2.59864 2.1293-2.59864 3.804 0 1.5213 1.06262 2.584 2.58529 2.584.736 0 1.37871-.432 1.81474-.8306-.21069.896-.60136 1.9559-1.3387 2.7866h3.16c-.74-.8333-1.1307-1.8933-1.34-2.7893.436.3987 1.0787.8333 1.816.8333 1.5213 0 2.5867-1.0627 2.5867-2.584 0-1.672-1.3227-2.7547-2.5987-3.804z" fill="#302f36"/><path d="m10.4161 27.2973v-10.0653c-.124 0-.244.052-.3253.148-.47732.568-1.10403 1.0786-1.70669 1.5733-1.27867 1.0467-2.59864 2.1293-2.59864 3.804 0 1.5213 1.06262 2.584 2.58529 2.584.736 0 1.37871-.432 1.81474-.8306-.21069.896-.60136 1.9559-1.3387 2.7866z" fill="#46464e"/><path d="m63.7014 115.056c1.164.955 2.3734 1.944 3.296 3.039.156.185.3854.289.6227.289h.048c.24 0 .4707-.104.6267-.289.9226-1.095 2.1307-2.084 3.296-3.039 2.468-2.019 5.016-4.112 5.016-7.345 0-2.935-2.0507-4.987-4.992-4.987-1.42 0-2.6587.837-3.5013 1.603.4053-1.728 1.1586-3.774 2.5839-5.3777h-6.1c1.4267 1.6067 2.1814 3.6557 2.5854 5.3837-.84-.768-2.0813-1.609-3.5053-1.609-2.9374 0-4.9934 2.052-4.9934 4.987 0 3.23 2.5533 5.321 5.0173 7.345z" fill="#302f36"/><path d="m67.6668 98.9493v19.4347h.0013c.24 0 .4707-.104.6267-.289.9226-1.095 2.1307-2.084 3.296-3.039 2.468-2.019 5.016-4.112 5.016-7.345 0-2.935-2.0507-4.987-4.992-4.987-1.42 0-2.6587.837-3.5013 1.603.4053-1.728 1.1586-3.774 2.5839-5.3777z" fill="#46464e"/><path d="m21.7588 115.056c1.164.955 2.3733 1.944 3.2973 3.039.1547.185.3854.289.6214.289h.048c.2413 0 .4693-.104.6267-.289.9226-1.095 2.1319-2.084 3.2959-3.039 2.4693-2.019 5.0174-4.112 5.0174-7.345 0-2.935-2.0507-4.987-4.9934-4.987-1.4213 0-2.6586.837-3.5 1.603.404-1.728 1.1587-3.774 2.584-5.3777h-6.1013c1.428 1.6067 2.1813 3.6557 2.5867 5.3837-.8414-.768-2.0827-1.609-3.5067-1.609-2.9374 0-4.992 2.052-4.992 4.987 0 3.23 2.552 5.321 5.016 7.345z" fill="#302f36"/><path d="m25.7255 98.9493v19.4347c.2413 0 .4693-.104.6267-.289.9226-1.095 2.1319-2.084 3.2959-3.039 2.4693-2.019 5.0174-4.112 5.0174-7.345 0-2.935-2.0507-4.987-4.9934-4.987-1.4213 0-2.6586.837-3.5 1.603.404-1.728 1.1587-3.774 2.584-5.3777z" fill="#46464e"/><path d="m63.7014 89.4547c1.164.956 2.3734 1.9439 3.296 3.0399.156.1854.3854.2867.6227.2867h.048c.24 0 .4707-.1013.6267-.2867.9226-1.096 2.1307-2.0839 3.296-3.0399 2.468-2.0174 5.016-4.1107 5.016-7.344 0-2.9374-2.0507-4.9867-4.992-4.9867-1.42 0-2.6587.836-3.5013 1.6013.4053-1.7267 1.1586-3.7733 2.5839-5.376h-6.1c1.4267 1.6067 2.1814 3.6534 2.5854 5.3827-.84-.7667-2.0813-1.608-3.5053-1.608-2.9374 0-4.9934 2.0493-4.9934 4.9867 0 3.2293 2.5533 5.3213 5.0173 7.344z" fill="#302f36"/><path d="m67.6668 73.3493v19.432h.0013c.24 0 .4707-.1013.6267-.2867.9226-1.096 2.1307-2.0839 3.296-3.0399 2.468-2.0174 5.016-4.1107 5.016-7.344 0-2.9374-2.0507-4.9867-4.992-4.9867-1.42 0-2.6587.836-3.5013 1.6013.4053-1.7267 1.1586-3.7733 2.5839-5.376z" fill="#46464e"/><path d="m21.7588 89.4547c1.164.956 2.3733 1.9439 3.2973 3.0399.1547.1854.3854.2867.6214.2867h.048c.2413 0 .4693-.1013.6267-.2867.9226-1.096 2.1319-2.0839 3.2959-3.0399 2.4693-2.0174 5.0174-4.1107 5.0174-7.344 0-2.9374-2.0507-4.9867-4.9934-4.9867-1.4213 0-2.6586.836-3.5 1.6013.404-1.7267 1.1587-3.7733 2.584-5.376h-6.1013c1.428 1.6067 2.1813 3.6534 2.5867 5.3827-.8414-.7667-2.0827-1.608-3.5067-1.608-2.9374 0-4.992 2.0493-4.992 4.9867 0 3.2293 2.552 5.3213 5.016 7.344z" fill="#302f36"/><path d="m25.7255 73.3493v19.432c.2413 0 .4693-.1013.6267-.2867.9226-1.096 2.1319-2.0839 3.2959-3.0399 2.4693-2.0174 5.0174-4.1107 5.0174-7.344 0-2.9374-2.0507-4.9867-4.9934-4.9867-1.4213 0-2.6586.836-3.5 1.6013.404-1.7267 1.1587-3.7733 2.584-5.376z" fill="#46464e"/><path d="m63.7014 63.8546c1.164.956 2.3734 1.9427 3.296 3.0387.156.1853.3854.288.6227.288h.048c.24 0 .4707-.1027.6267-.288.9226-1.096 2.1307-2.0827 3.296-3.0387 2.468-2.0186 5.016-4.1093 5.016-7.3466 0-2.9347-2.0507-4.984-4.992-4.984-1.42 0-2.6587.836-3.5013 1.6013.4053-1.7267 1.1586-3.7733 2.5839-5.376h-6.1c1.4267 1.6054 2.1814 3.6547 2.5854 5.384-.84-.7693-2.0813-1.6093-3.5053-1.6093-2.9374 0-4.9934 2.0493-4.9934 4.984 0 3.232 2.5533 5.3226 5.0173 7.3466z" fill="#302f36"/><path d="m67.6668 47.7493v19.432h.0013c.24 0 .4707-.1027.6267-.288.9226-1.096 2.1307-2.0827 3.296-3.0387 2.468-2.0186 5.016-4.1093 5.016-7.3466 0-2.9347-2.0507-4.984-4.992-4.984-1.42 0-2.6587.836-3.5013 1.6013.4053-1.7267 1.1586-3.7733 2.5839-5.376z" fill="#46464e"/><path d="m21.7588 63.8546c1.164.956 2.3733 1.9427 3.2973 3.0387.1547.1853.3854.288.6214.288h.048c.2413 0 .4693-.1027.6267-.288.9226-1.096 2.1319-2.0827 3.2959-3.0387 2.4693-2.0186 5.0174-4.1093 5.0174-7.3466 0-2.9347-2.0507-4.984-4.9934-4.984-1.4213 0-2.6586.836-3.5 1.6013.404-1.7267 1.1587-3.7733 2.584-5.376h-6.1013c1.428 1.6054 2.1813 3.6547 2.5867 5.384-.8414-.7693-2.0827-1.6093-3.5067-1.6093-2.9374 0-4.992 2.0493-4.992 4.984 0 3.232 2.552 5.3226 5.016 7.3466z" fill="#302f36"/><path d="m25.7255 47.7493v19.432c.2413 0 .4693-.1027.6267-.288.9226-1.096 2.1319-2.0827 3.2959-3.0387 2.4693-2.0186 5.0174-4.1093 5.0174-7.3466 0-2.9347-2.0507-4.984-4.9934-4.984-1.4213 0-2.6586.836-3.5 1.6013.404-1.7267 1.1587-3.7733 2.584-5.376z" fill="#46464e"/><path d="m63.7014 38.252c1.164.9586 2.3734 1.9453 3.296 3.04.156.1866.3854.2893.6227.2893h.048c.24 0 .4707-.1027.6267-.2893.9226-1.0947 2.1307-2.0814 3.296-3.04 2.468-2.0174 5.016-4.1093 5.016-7.3427 0-2.936-2.0507-4.988-4.992-4.988-1.42 0-2.6587.8387-3.5013 1.6027.4053-1.7267 1.1586-3.772 2.5839-5.376h-6.1c1.4267 1.6067 2.1814 3.6546 2.5854 5.3826-.84-.7653-2.0813-1.6093-3.5053-1.6093-2.9374 0-4.9934 2.052-4.9934 4.988 0 3.2294 2.5533 5.32 5.0173 7.3427z" fill="#302f36"/><path d="m67.6668 22.148v19.4333h.0013c.24 0 .4707-.1027.6267-.2893.9226-1.0947 2.1307-2.0814 3.296-3.04 2.468-2.0174 5.016-4.1093 5.016-7.3427 0-2.936-2.0507-4.988-4.992-4.988-1.42 0-2.6587.8387-3.5013 1.6027.4053-1.7267 1.1586-3.772 2.5839-5.376z" fill="#46464e"/><path d="m21.7588 38.252c1.164.9586 2.3733 1.9453 3.2973 3.04.1547.1866.3854.2893.6214.2893h.048c.2413 0 .4693-.1027.6267-.2893.9226-1.0947 2.1319-2.0814 3.2959-3.04 2.4693-2.0174 5.0174-4.1093 5.0174-7.3427 0-2.936-2.0507-4.988-4.9934-4.988-1.4213 0-2.6586.8387-3.5 1.6027.404-1.7267 1.1587-3.772 2.584-5.376h-6.1013c1.428 1.6067 2.1813 3.6546 2.5867 5.3826-.8414-.7653-2.0827-1.6093-3.5067-1.6093-2.9374 0-4.992 2.052-4.992 4.988 0 3.2294 2.552 5.32 5.016 7.3427z" fill="#302f36"/><path d="m25.7255 22.148v19.4333c.2413 0 .4693-.1027.6267-.2893.9226-1.0947 2.1319-2.0814 3.2959-3.04 2.4693-2.0174 5.0174-4.1093 5.0174-7.3427 0-2.936-2.0507-4.988-4.9934-4.988-1.4213 0-2.6586.8387-3.5 1.6027.404-1.7267 1.1587-3.772 2.584-5.376z" fill="#46464e"/><g fill="#302f36"><path d="m80.6753 130.616c.274-.326.6024-.588.9851-.786.378-.199.7937-.298 1.2473-.298.5953 0 1.115.147 1.5591.44.4394.292.7796.703 1.0206 1.233.2409.534.3614 1.122.3614 1.764 0 .69-.1299 1.311-.3898 1.864-.2646.553-.6378.976-1.1197 1.269s-1.0442.439-1.6867.439c-1.0206 0-1.8237-.383-2.4096-1.148-.5906-.761-.8859-1.8-.8859-3.118v-.383c0-2.008.3969-3.475 1.1906-4.401.7938-.921 1.9915-1.394 3.5931-1.417h.2552v1.105h-.2764c-1.082.019-1.9135.3-2.4946.844-.5812.548-.8977 1.412-.9497 2.593zm2.0198 0c-.4394 0-.8434.135-1.2119.404-.3732.27-.6449.603-.815 1v.524c0 .86.1866 1.559.5599 2.098.3732.538.8457.808 1.4174.808.5764 0 1.0394-.222 1.389-.666.3497-.44.5245-1.021.5245-1.744 0-.704-.1678-1.285-.5032-1.743-.3402-.454-.7938-.681-1.3607-.681z"/><path d="m12.5864 8.80484c-.2741.326-.6024.58822-.9851.78665-.378.19844-.7938.29766-1.2473.29766-.59535 0-1.11506-.14647-1.55918-.4394-.43939-.29293-.77957-.70397-1.02052-1.23313-.24096-.53389-.36144-1.12211-.36144-1.76466 0-.6898.12993-1.31109.38978-1.86387.26458-.55279.63783-.97565 1.11975-1.26857.48191-.29293 1.04415-.4394 1.68671-.4394 1.0205 0 1.8237.3827 2.4096 1.14809.5905.76067.8858 1.8001.8858 3.11827v.3827c0 2.00798-.3968 3.47502-1.1906 4.40102-.7937.9213-1.9914 1.3938-3.59308 1.4174h-.25513v-1.1056h.27639c1.08192-.0189 1.91352-.3 2.49462-.8433.5811-.5481.8977-1.4127.9497-2.59386zm-2.0198 0c.4394 0 .8433-.13465 1.2118-.40396.3733-.26931.645-.60239.815-.99926v-.52444c0-.85989-.1866-1.55914-.5598-2.09775-.3733-.53861-.8457-.80791-1.4174-.80791-.5764 0-1.03945.22206-1.38907.66617-.34963.4394-.52444 1.02053-.52444 1.7434 0 .70397.16773 1.28511.50318 1.7434.34017.45356.79374.68035 1.36073.68035z"/><path d="m42.6881 76.1013c1.164.9547 2.372 1.9427 3.2947 3.0373.156.1867.3853.2894.6227.2894h.0479c.2414 0 .4707-.1027.6267-.2894.9227-1.0946 2.132-2.0826 3.2974-3.0373 2.4666-2.02 5.016-4.1107 5.016-7.3467 0-2.9346-2.0521-4.9853-4.9934-4.9853-1.42 0-2.6586.8373-3.5013 1.6013.4053-1.728 1.1586-3.7746 2.5853-5.376h-6.1013c1.4267 1.6067 2.1813 3.6547 2.5853 5.3841-.84-.768-2.0813-1.6094-3.5053-1.6094-2.9373 0-4.9933 2.0507-4.9933 4.9853 0 3.232 2.5533 5.3227 5.0186 7.3467z"/></g><path d="m46.6521 59.9946v19.4334h.0013c.2414 0 .4707-.1027.6267-.2894.9227-1.0946 2.132-2.0826 3.2974-3.0373 2.4666-2.02 5.016-4.1107 5.016-7.3467 0-2.9346-2.0521-4.9853-4.9934-4.9853-1.42 0-2.6586.8373-3.5013 1.6013.4053-1.728 1.1586-3.7746 2.5853-5.376z" fill="#46464e"/></svg>