<svg fill="none" height="140" viewBox="0 0 93 140" width="93" xmlns="http://www.w3.org/2000/svg"><path d="m.0108032 4.47059c0-2.004 1.6211268-3.629297 3.6202568-3.629297h84.75684c2.0004 0 3.6229 1.625297 3.6229 3.629297v130.98841c0 2.004-1.6225 3.629-3.6229 3.629h-84.75684c-1.99913 0-3.6202568-1.625-3.6202568-3.629z" fill="#fff"/><path d="m62.9988 109.053c1.164.955 2.372 1.943 3.296 3.039.156.185.3867.288.6213.288h.0494c.24 0 .4693-.103.6253-.288.924-1.096 2.1333-2.084 3.2973-3.039 2.4693-2.02 5.0174-4.11 5.0174-7.346 0-2.9351-2.0507-4.9857-4.9934-4.9857-1.4213 0-2.66.836-3.5 1.6013.4027-1.728 1.1587-3.772 2.584-5.376h-6.1013c1.4253 1.6067 2.1813 3.6547 2.5853 5.384-.8413-.768-2.0813-1.6093-3.5066-1.6093-2.9374 0-4.992 2.0506-4.992 4.9857 0 3.232 2.552 5.322 5.0173 7.346z" fill="#302f36"/><path d="m66.9655 92.9466v19.4334c.24 0 .4693-.103.6253-.288.924-1.096 2.1333-2.084 3.2973-3.039 2.4693-2.02 5.0174-4.11 5.0174-7.346 0-2.9351-2.0507-4.9857-4.9934-4.9857-1.4213 0-2.66.836-3.5 1.6013.4027-1.728 1.1587-3.772 2.584-5.376z" fill="#46464e"/><path d="m80.0894 120.723c.604.494 1.2294 1.004 1.7081 1.572.08.096.1999.149.3226.149h.024c.124 0 .2427-.053.324-.149.4787-.568 1.1054-1.078 1.708-1.572 1.2787-1.047 2.5987-2.131 2.5987-3.807 0-1.52-1.0627-2.583-2.5867-2.583-.736 0-1.3773.435-1.8133.831.2093-.895.6-1.953 1.3387-2.784h-3.1601c.74.832 1.1307 1.892 1.3401 2.787-.436-.396-1.0787-.834-1.816-.834-1.5214 0-2.5867 1.063-2.5867 2.583 0 1.675 1.3226 2.757 2.5986 3.807z" fill="#302f36"/><path d="m82.1428 112.38v10.064h.0013c.124 0 .2427-.053.324-.149.4787-.568 1.1054-1.078 1.708-1.572 1.2787-1.047 2.5987-2.131 2.5987-3.807 0-1.52-1.0627-2.583-2.5867-2.583-.736 0-1.3773.435-1.8133.831.2093-.895.6-1.953 1.3387-2.784z" fill="#46464e"/><path d="m11.7668 19.2092c-.6027-.4946-1.228-1.0066-1.7067-1.5746-.08131-.096-.19863-.1493-.3213-.1493h-.02532c-.12533 0-.24269.0533-.32403.1493-.47866.568-1.10397 1.08-1.70797 1.5746-1.27733 1.0454-2.59867 2.1281-2.59867 3.8041 0 1.52 1.06266 2.5827 2.58666 2.5827.736 0 1.37734-.4334 1.81201-.8294-.208.8947-.60001 1.9547-1.33867 2.784h3.16129c-.7386-.832-1.1293-1.892-1.33864-2.788.43464.3974 1.07604.8334 1.81464.8334 1.5227 0 2.5867-1.0627 2.5867-2.5827 0-1.6733-1.3227-2.7561-2.6-3.8041z" fill="#302f36"/><path d="m9.71348 27.5506v-10.0653c-.12534 0-.24269.0533-.32403.1493-.47866.568-1.10397 1.08-1.70797 1.5746-1.27733 1.0454-2.59867 2.1281-2.59867 3.8041 0 1.52 1.06266 2.5827 2.58666 2.5827.736 0 1.37734-.4334 1.81201-.8294-.208.8947-.60001 1.9547-1.33867 2.784z" fill="#46464e"/><path d="m21.0574 109.053c1.164.955 2.372 1.943 3.296 3.039.1547.185.3854.288.6214.288h.0493c.2387 0 .468-.103.624-.288.9253-1.096 2.1333-2.084 3.2973-3.039 2.4694-2.02 5.0174-4.11 5.0174-7.346 0-2.9351-2.0507-4.9857-4.992-4.9857-1.4214 0-2.66.836-3.5014 1.6013.4027-1.728 1.1587-3.772 2.584-5.376h-6.1c1.4254 1.6067 2.1814 3.6547 2.584 5.384-.84-.768-2.08-1.6093-3.5053-1.6093-2.9373 0-4.9933 2.0506-4.9933 4.9857 0 3.232 2.5533 5.322 5.0186 7.346z" fill="#302f36"/><path d="m25.0228 92.9466v19.4334h.0013c.2387 0 .468-.103.624-.288.9253-1.096 2.1333-2.084 3.2973-3.039 2.4694-2.02 5.0174-4.11 5.0174-7.346 0-2.9351-2.0507-4.9857-4.992-4.9857-1.4214 0-2.66.836-3.5014 1.6013.4027-1.728 1.1587-3.772 2.584-5.376z" fill="#46464e"/><path d="m62.9988 43.6559c1.164.9547 2.372 1.944 3.296 3.0387.156.1867.3867.288.6213.288h.0494c.24 0 .4693-.1013.6253-.288.924-1.0947 2.1333-2.084 3.2973-3.0387 2.4693-2.0186 5.0174-4.1106 5.0174-7.3453 0-2.9346-2.0507-4.9853-4.9934-4.9853-1.4213 0-2.66.8373-3.5 1.6013.4027-1.728 1.1587-3.7733 2.584-5.376h-6.1013c1.4253 1.6067 2.1813 3.6533 2.5853 5.3827-.8413-.7667-2.0813-1.608-3.5066-1.608-2.9374 0-4.992 2.0507-4.992 4.9853 0 3.2307 2.552 5.3213 5.0173 7.3453z" fill="#302f36"/><path d="m66.9655 27.5506v19.432c.24 0 .4693-.1013.6253-.288.924-1.0947 2.1333-2.084 3.2973-3.0387 2.4693-2.0186 5.0174-4.1106 5.0174-7.3453 0-2.9346-2.0507-4.9853-4.9934-4.9853-1.4213 0-2.66.8373-3.5 1.6013.4027-1.728 1.1587-3.7733 2.584-5.376z" fill="#46464e"/><path d="m21.0574 43.6559c1.164.9547 2.372 1.944 3.296 3.0387.1547.1867.3854.288.6214.288h.0493c.2387 0 .468-.1013.624-.288.9253-1.0947 2.1333-2.084 3.2973-3.0387 2.4694-2.0186 5.0174-4.1106 5.0174-7.3453 0-2.9346-2.0507-4.9853-4.992-4.9853-1.4214 0-2.66.8373-3.5014 1.6013.4027-1.728 1.1587-3.7733 2.584-5.376h-6.1c1.4254 1.6067 2.1814 3.6533 2.584 5.3827-.84-.7667-2.08-1.608-3.5053-1.608-2.9373 0-4.9933 2.0507-4.9933 4.9853 0 3.2307 2.5533 5.3213 5.0186 7.3453z" fill="#302f36"/><path d="m25.0228 27.5506v19.432h.0013c.2387 0 .468-.1013.624-.288.9253-1.0947 2.1333-2.084 3.2973-3.0387 2.4694-2.0186 5.0174-4.1106 5.0174-7.3453 0-2.9346-2.0507-4.9853-4.992-4.9853-1.4214 0-2.66.8373-3.5014 1.6013.4027-1.728 1.1587-3.7733 2.584-5.376z" fill="#46464e"/><g fill="#302f36"><path d="m79.4637 129.8h-1.4316v-1.071h1.4316v-2.395h1.3181v2.395h4.6987v.773l-4.6207 7.151h-1.3961zm4.5285 0h-3.2104v5.06l.156-.284z"/><path d="m12.3953 10.1282h1.4315v1.0702h-1.4315v2.3954h-1.3182v-2.3954h-4.69868v-.7725l4.62068-7.15077h1.3962zm-4.52862 0h3.21042v-5.06007l-.1559.28348z"/></g></svg>