<svg fill="none" height="139" viewBox="0 0 93 139" width="93" xmlns="http://www.w3.org/2000/svg"><path d="m.0108032 3.97332c0-2.004 1.6211268-3.629326 3.6202568-3.629326h84.75684c2.0004 0 3.6229 1.625326 3.6229 3.629326v130.99068c0 2.003-1.6225 3.627-3.6229 3.627h-84.75684c-1.99913 0-3.6202568-1.624-3.6202568-3.627z" fill="#fff"/><path d="m80.0894 120.224c.604.495 1.2294 1.008 1.7081 1.573.08.096.1999.151.3226.151h.024c.124 0 .2427-.055.324-.151.4787-.565 1.1054-1.078 1.708-1.573 1.2787-1.044 2.5987-2.131 2.5987-3.805 0-1.52-1.0627-2.583-2.5867-2.583-.736 0-1.3773.435-1.8133.831.2093-.896.6-1.954 1.3387-2.784h-3.1601c.74.83 1.1307 1.89 1.3401 2.786-.436-.396-1.0787-.833-1.816-.833-1.5214 0-2.5867 1.063-2.5867 2.583 0 1.674 1.3226 2.758 2.5986 3.805z" fill="#302f36"/><path d="m82.1428 111.883v10.065h.0013c.124 0 .2427-.055.324-.151.4787-.565 1.1054-1.078 1.708-1.573 1.2787-1.044 2.5987-2.131 2.5987-3.805 0-1.52-1.0627-2.583-2.5867-2.583-.736 0-1.3773.435-1.8133.831.2093-.896.6-1.954 1.3387-2.784z" fill="#46464e"/><path d="m11.7668 18.7107c-.6027-.4947-1.228-1.0054-1.7067-1.572-.08131-.0974-.19863-.1521-.3213-.1521h-.02532c-.12533 0-.24269.0547-.32403.1521-.47866.5666-1.10397 1.0773-1.70797 1.572-1.27733 1.0466-2.59867 2.1306-2.59867 3.8053 0 1.52 1.06266 2.5826 2.58666 2.5826.736 0 1.37734-.4346 1.81201-.8306-.208.896-.60001 1.956-1.33867 2.7866h3.16129c-.7386-.8333-1.1293-1.8933-1.33864-2.7893.43464.396 1.07604.8333 1.81464.8333 1.5227 0 2.5867-1.0626 2.5867-2.5826 0-1.672-1.3227-2.756-2.6-3.8053z" fill="#302f36"/><path d="m9.71348 27.0546v-10.068c-.12534 0-.24269.0547-.32403.1521-.47866.5666-1.10397 1.0773-1.70797 1.572-1.27733 1.0466-2.59867 2.1306-2.59867 3.8053 0 1.52 1.06266 2.5826 2.58666 2.5826.736 0 1.37734-.4346 1.81201-.8306-.208.896-.60001 1.956-1.33867 2.7866z" fill="#46464e"/><path d="m62.9988 114.812c1.164.956 2.372 1.945 3.296 3.04.156.184.3867.288.6213.288h.0494c.24 0 .4693-.104.6253-.288.924-1.095 2.1333-2.084 3.2973-3.04 2.4693-2.017 5.0174-4.109 5.0174-7.345 0-2.936-2.0507-4.986-4.9934-4.986-1.4213 0-2.66.836-3.5 1.602.4027-1.728 1.1587-3.774 2.584-5.375h-6.1013c1.4253 1.604 2.1813 3.653 2.5853 5.383-.8413-.768-2.0813-1.61-3.5066-1.61-2.9374 0-4.992 2.05-4.992 4.986 0 3.23 2.552 5.322 5.0173 7.345z" fill="#302f36"/><path d="m66.9655 98.708v19.432c.24 0 .4693-.104.6253-.288.924-1.095 2.1333-2.084 3.2973-3.04 2.4693-2.017 5.0174-4.109 5.0174-7.345 0-2.936-2.0507-4.986-4.9934-4.986-1.4213 0-2.66.836-3.5 1.602.4027-1.728 1.1587-3.774 2.584-5.375z" fill="#46464e"/><path d="m21.0574 114.812c1.164.956 2.372 1.945 3.296 3.04.1547.184.3854.288.6214.288h.0493c.2387 0 .468-.104.624-.288.9253-1.095 2.1333-2.084 3.2973-3.04 2.4694-2.017 5.0174-4.109 5.0174-7.345 0-2.936-2.0507-4.986-4.992-4.986-1.4214 0-2.66.836-3.5014 1.602.4027-1.728 1.1587-3.774 2.584-5.375h-6.1c1.4254 1.604 2.1814 3.653 2.584 5.383-.84-.768-2.08-1.61-3.5053-1.61-2.9373 0-4.9933 2.05-4.9933 4.986 0 3.23 2.5533 5.322 5.0186 7.345z" fill="#302f36"/><path d="m25.0228 98.708v19.432h.0013c.2387 0 .468-.104.624-.288.9253-1.095 2.1333-2.084 3.2973-3.04 2.4694-2.017 5.0174-4.109 5.0174-7.345 0-2.936-2.0507-4.986-4.992-4.986-1.4214 0-2.66.836-3.5014 1.602.4027-1.728 1.1587-3.774 2.584-5.375z" fill="#46464e"/><path d="m62.9988 89.2133c1.164.9534 2.372 1.9427 3.296 3.0387.156.1853.3867.2866.6213.2866h.0494c.24 0 .4693-.1013.6253-.2866.924-1.096 2.1333-2.0853 3.2973-3.0387 2.4693-2.02 5.0174-4.112 5.0174-7.3467 0-2.9346-2.0507-4.9866-4.9934-4.9866-1.4213 0-2.66.8387-3.5 1.6013.4027-1.7266 1.1587-3.7706 2.584-5.3746h-6.1013c1.4253 1.6066 2.1813 3.6533 2.5853 5.3826-.8413-.7653-2.0813-1.6093-3.5066-1.6093-2.9374 0-4.992 2.052-4.992 4.9866 0 3.232 2.552 5.3241 5.0173 7.3467z" fill="#302f36"/><path d="m66.9655 73.1067v19.4319c.24 0 .4693-.1013.6253-.2866.924-1.096 2.1333-2.0853 3.2973-3.0387 2.4693-2.02 5.0174-4.112 5.0174-7.3467 0-2.9346-2.0507-4.9866-4.9934-4.9866-1.4213 0-2.66.8387-3.5 1.6013.4027-1.7266 1.1587-3.7706 2.584-5.3746z" fill="#46464e"/><path d="m21.0574 89.2133c1.164.9534 2.372 1.9427 3.296 3.0387.1547.1853.3854.2866.6214.2866h.0493c.2387 0 .468-.1013.624-.2866.9253-1.096 2.1333-2.0853 3.2973-3.0387 2.4694-2.02 5.0174-4.112 5.0174-7.3467 0-2.9346-2.0507-4.9866-4.992-4.9866-1.4214 0-2.66.8387-3.5014 1.6013.4027-1.7266 1.1587-3.7706 2.584-5.3746h-6.1c1.4254 1.6066 2.1814 3.6533 2.584 5.3826-.84-.7653-2.08-1.6093-3.5053-1.6093-2.9373 0-4.9933 2.052-4.9933 4.9866 0 3.232 2.5533 5.3241 5.0186 7.3467z" fill="#302f36"/><path d="m25.0228 73.1067v19.4319h.0013c.2387 0 .468-.1013.624-.2866.9253-1.096 2.1333-2.0853 3.2973-3.0387 2.4694-2.02 5.0174-4.112 5.0174-7.3467 0-2.9346-2.0507-4.9866-4.992-4.9866-1.4214 0-2.66.8387-3.5014 1.6013.4027-1.7266 1.1587-3.7706 2.584-5.3746z" fill="#46464e"/><path d="m62.9988 63.612c1.164.956 2.372 1.9426 3.296 3.0386.156.1854.3867.2894.6213.2894h.0494c.24 0 .4693-.104.6253-.2894.924-1.096 2.1333-2.0826 3.2973-3.0386 2.4693-2.0187 5.0174-4.112 5.0174-7.3467 0-2.9347-2.0507-4.984-4.9934-4.984-1.4213 0-2.66.836-3.5 1.6014.4027-1.7294 1.1587-3.7734 2.584-5.3747h-6.1013c1.4253 1.604 2.1813 3.6533 2.5853 5.3826-.8413-.768-2.0813-1.6093-3.5066-1.6093-2.9374 0-4.992 2.0493-4.992 4.984 0 3.232 2.552 5.3227 5.0173 7.3467z" fill="#302f36"/><path d="m66.9655 47.508v19.432c.24 0 .4693-.104.6253-.2894.924-1.096 2.1333-2.0826 3.2973-3.0386 2.4693-2.0187 5.0174-4.112 5.0174-7.3467 0-2.9347-2.0507-4.984-4.9934-4.984-1.4213 0-2.66.836-3.5 1.6014.4027-1.7294 1.1587-3.7734 2.584-5.3747z" fill="#46464e"/><path d="m21.0574 63.612c1.164.956 2.372 1.9426 3.296 3.0386.1547.1854.3854.2894.6214.2894h.0493c.2387 0 .468-.104.624-.2894.9253-1.096 2.1333-2.0826 3.2973-3.0386 2.4694-2.0187 5.0174-4.112 5.0174-7.3467 0-2.9347-2.0507-4.984-4.992-4.984-1.4214 0-2.66.836-3.5014 1.6014.4027-1.7294 1.1587-3.7734 2.584-5.3747h-6.1c1.4254 1.604 2.1814 3.6533 2.584 5.3826-.84-.768-2.08-1.6093-3.5053-1.6093-2.9373 0-4.9933 2.0493-4.9933 4.984 0 3.232 2.5533 5.3227 5.0186 7.3467z" fill="#302f36"/><path d="m25.0228 47.508v19.432h.0013c.2387 0 .468-.104.624-.2894.9253-1.096 2.1333-2.0826 3.2973-3.0386 2.4694-2.0187 5.0174-4.112 5.0174-7.3467 0-2.9347-2.0507-4.984-4.992-4.984-1.4214 0-2.66.836-3.5014 1.6014.4027-1.7294 1.1587-3.7734 2.584-5.3747z" fill="#46464e"/><path d="m62.9988 38.0107c1.164.956 2.372 1.9453 3.296 3.0386.156.188.3867.2894.6213.2894h.0494c.24 0 .4693-.1014.6253-.2894.924-1.0933 2.1333-2.0826 3.2973-3.0386 2.4693-2.0187 5.0174-4.1094 5.0174-7.344 0-2.9374-2.0507-4.9867-4.9934-4.9867-1.4213 0-2.66.8387-3.5 1.6013.4027-1.7266 1.1587-3.7733 2.584-5.3746h-6.1013c1.4253 1.6066 2.1813 3.6533 2.5853 5.3826-.8413-.768-2.0813-1.6093-3.5066-1.6093-2.9374 0-4.992 2.0493-4.992 4.9867 0 3.2293 2.552 5.32 5.0173 7.344z" fill="#302f36"/><path d="m66.9655 21.9067v19.432c.24 0 .4693-.1014.6253-.2894.924-1.0933 2.1333-2.0826 3.2973-3.0386 2.4693-2.0187 5.0174-4.1094 5.0174-7.344 0-2.9374-2.0507-4.9867-4.9934-4.9867-1.4213 0-2.66.8387-3.5 1.6013.4027-1.7266 1.1587-3.7733 2.584-5.3746z" fill="#46464e"/><path d="m21.0574 38.0107c1.164.956 2.372 1.9453 3.296 3.0386.1547.188.3854.2894.6214.2894h.0493c.2387 0 .468-.1014.624-.2894.9253-1.0933 2.1333-2.0826 3.2973-3.0386 2.4694-2.0187 5.0174-4.1094 5.0174-7.344 0-2.9374-2.0507-4.9867-4.992-4.9867-1.4214 0-2.66.8387-3.5014 1.6013.4027-1.7266 1.1587-3.7733 2.584-5.3746h-6.1c1.4254 1.6066 2.1814 3.6533 2.584 5.3826-.84-.768-2.08-1.6093-3.5053-1.6093-2.9373 0-4.9933 2.0493-4.9933 4.9867 0 3.2293 2.5533 5.32 5.0186 7.344z" fill="#302f36"/><path d="m25.0228 21.9067v19.432h.0013c.2387 0 .468-.1014.624-.2894.9253-1.0933 2.1333-2.0826 3.2973-3.0386 2.4694-2.0187 5.0174-4.1094 5.0174-7.344 0-2.9374-2.0507-4.9867-4.992-4.9867-1.4214 0-2.66.8387-3.5014 1.6013.4027-1.7266 1.1587-3.7733 2.584-5.3746z" fill="#46464e"/><g fill="#302f36"><path d="m83.9001 127.558h1.0216v6.772l2.0487-.753v.923l-2.911 1.093h-.1593zm-7.9914 3.411c0-1.19.2032-2.075.6097-2.653.4064-.579 1.0417-.868 1.9058-.868.8532 0 1.4848.282 1.8949.846.4101.567.6225 1.413.6371 2.537v1.357c0 1.175-.2032 2.049-.6096 2.62-.4065.571-1.0436.857-1.9114.857-.8605 0-1.4939-.277-1.9004-.83-.4064-.549-.6151-1.399-.6261-2.548zm1.0161 1.389c0 .861.1208 1.487.3625 1.879.2417.395.6243.593 1.1479.593.52 0 .8989-.196 1.1369-.588s.3607-.994.368-1.807v-1.626c0-.864-.1245-1.503-.3735-1.917-.2526-.41-.6334-.615-1.1424-.615-.5016 0-.8733.194-1.1149.582-.2454.389-.3735 1-.3845 1.835z"/><path d="m7.96006 11.3796h-1.02158v-6.77215l-2.04866.75246v-.92273l2.91097-1.09298h.15927zm7.99144-3.41081c0 1.19002-.2032 2.07431-.6097 2.65281-.4064.5786-1.0417.8678-1.9058.8678-.8532 0-1.4848-.2819-1.8949-.8458-.4101-.5676-.6225-1.41339-.6371-2.5375v-1.35662c0-1.17537.2032-2.04866.6096-2.61987.4065-.57121 1.0436-.85681 1.9114-.85681.8605 0 1.4939.27645 1.9004.82935.4064.54924.6151 1.39873.6261 2.54847zm-1.0161-1.38957c0-.86048-.1208-1.48661-.3625-1.8784-.2417-.39545-.6243-.59318-1.1479-.59318-.5199 0-.8989.1959-1.1369.58769s-.3607.99412-.368 1.80699v1.62575c0 .86414.1245 1.50309.3735 1.91683.2526.4101.6334.6152 1.1424.6152.5016 0 .8733-.1941 1.1149-.5822.2454-.38816.3735-.99964.3845-1.83449z"/><path d="m41.9841 101.336c1.164.953 2.3733 1.943 3.2973 3.039.1547.185.3854.286.6214.286h.0479c.2414 0 .4694-.101.6267-.286.924-1.096 2.132-2.086 3.296-3.039 2.4694-2.0214 5.0174-4.112 5.0174-7.3467 0-2.9347-2.0507-4.9867-4.992-4.9867-1.4227 0-2.66.8387-3.5014 1.6014.404-1.7267 1.1587-3.7707 2.584-5.3747h-6.1013c1.4267 1.6067 2.1813 3.6534 2.5867 5.3827-.8414-.7653-2.0814-1.6094-3.5054-1.6094-2.9373 0-4.9933 2.052-4.9933 4.9867 0 3.232 2.5533 5.3227 5.016 7.3467z"/></g><path d="m45.9507 85.2293v19.4317c.2414 0 .4694-.101.6267-.286.924-1.096 2.132-2.086 3.296-3.039 2.4694-2.0214 5.0174-4.112 5.0174-7.3467 0-2.9347-2.0507-4.9867-4.992-4.9867-1.4227 0-2.66.8387-3.5014 1.6014.404-1.7267 1.1587-3.7707 2.584-5.3747z" fill="#46464e"/><path d="m41.9841 50.172c1.164.956 2.3733 1.9427 3.2973 3.0387.1547.188.3854.2893.6214.2893h.0479c.2414 0 .4694-.1013.6267-.2893.924-1.096 2.132-2.0827 3.296-3.0387 2.4694-2.0187 5.0174-4.1094 5.0174-7.344 0-2.9374-2.0507-4.9867-4.992-4.9867-1.4227 0-2.66.836-3.5014 1.6014.404-1.7267 1.1587-3.7734 2.584-5.3747h-6.1013c1.4267 1.6066 2.1813 3.6533 2.5867 5.3826-.8414-.768-2.0814-1.6093-3.5054-1.6093-2.9373 0-4.9933 2.0493-4.9933 4.9867 0 3.2293 2.5533 5.32 5.016 7.344z" fill="#302f36"/><path d="m45.9507 34.068v19.432c.2414 0 .4694-.1013.6267-.2893.924-1.096 2.132-2.0827 3.296-3.0387 2.4694-2.0187 5.0174-4.1094 5.0174-7.344 0-2.9374-2.0507-4.9867-4.992-4.9867-1.4227 0-2.66.836-3.5014 1.6014.404-1.7267 1.1587-3.7734 2.584-5.3747z" fill="#46464e"/></svg>