<svg fill="none" height="140" viewBox="0 0 93 140" width="93" xmlns="http://www.w3.org/2000/svg"><path d="m.713468 4.53993c0-2.004 1.621072-3.629301 3.622842-3.629301h84.75429c2.0004 0 3.6229 1.625301 3.6229 3.629301v130.98807c0 2.004-1.6225 3.629-3.6229 3.629h-84.75429c-2.00177 0-3.622842-1.625-3.622842-3.629z" fill="#fff"/><path d="m63.7014 109.12c1.164.956 2.3734 1.944 3.296 3.04.156.185.3854.288.6227.288h.048c.24 0 .4707-.103.6267-.288.9226-1.096 2.1307-2.084 3.296-3.04 2.468-2.017 5.0173-4.109 5.0173-7.344 0-2.9361-2.052-4.9867-4.9933-4.9867-1.42 0-2.6587.8373-3.5013 1.6013.4053-1.7266 1.1586-3.772 2.5839-5.376h-6.1c1.4267 1.6067 2.1814 3.6547 2.5854 5.384-.84-.7666-2.0813-1.6093-3.5053-1.6093-2.9374 0-4.9934 2.0506-4.9934 4.9867 0 3.229 2.5533 5.323 5.0173 7.344z" fill="#302f36"/><path d="m67.6668 93.0146v19.4334h.0013c.24 0 .4707-.103.6267-.288.9226-1.096 2.1307-2.084 3.296-3.04 2.468-2.017 5.0173-4.109 5.0173-7.344 0-2.9361-2.052-4.9867-4.9933-4.9867-1.42 0-2.6587.8373-3.5013 1.6013.4053-1.7266 1.1586-3.772 2.5839-5.376z" fill="#46464e"/><path d="m80.7935 120.789c.6027.495 1.228 1.007 1.7066 1.575.0814.096.1987.149.3214.149h.0253c.1253 0 .2426-.053.324-.149.4786-.568 1.1053-1.08 1.708-1.575 1.2786-1.045 2.5973-2.128 2.5973-3.804 0-1.52-1.0599-2.582-2.5853-2.582-.736 0-1.376.433-1.812.829.208-.895.6-1.955 1.3373-2.784h-3.16c.7387.832 1.1307 1.892 1.3387 2.788-.4347-.397-1.0773-.833-1.8147-.833-1.5226 0-2.5853 1.062-2.5853 2.582 0 1.674 1.3214 2.756 2.5987 3.804z" fill="#302f36"/><path d="m82.8468 112.448v10.065c.1253 0 .2426-.053.324-.149.4786-.568 1.1053-1.08 1.708-1.575 1.2786-1.045 2.5973-2.128 2.5973-3.804 0-1.52-1.0599-2.582-2.5853-2.582-.736 0-1.376.433-1.812.829.208-.895.6-1.955 1.3373-2.784z" fill="#46464e"/><path d="m12.4708 19.2773c-.604-.496-1.2293-1.0067-1.708-1.5734-.08-.096-.1987-.1493-.3213-.1493h-.0254c-.124 0-.2426.0533-.3253.1493-.47732.5667-1.10403 1.0774-1.70669 1.5734-1.27867 1.0453-2.59864 2.1293-2.59864 3.804 0 1.5213 1.06262 2.584 2.58529 2.584.73733 0 1.37871-.4347 1.81474-.832-.21069.896-.60136 1.9547-1.3387 2.7853h3.16c-.7387-.832-1.1307-1.892-1.34-2.7866.436.396 1.0787.8333 1.816.8333 1.5213 0 2.5867-1.0627 2.5867-2.584 0-1.6734-1.3227-2.756-2.5987-3.804z" fill="#302f36"/><path d="m10.4161 27.6186v-10.064c-.124 0-.2426.0533-.3253.1493-.47732.5667-1.10403 1.0774-1.70669 1.5734-1.27867 1.0453-2.59864 2.1293-2.59864 3.804 0 1.5213 1.06262 2.584 2.58529 2.584.73733 0 1.37871-.4347 1.81474-.832-.21069.896-.60136 1.9547-1.3387 2.7853z" fill="#46464e"/><path d="m21.7588 109.12c1.164.956 2.3733 1.944 3.2973 3.04.1547.185.3854.288.6214.288h.048c.2413 0 .4693-.103.6267-.288.924-1.096 2.1319-2.084 3.2959-3.04 2.4693-2.017 5.0174-4.109 5.0174-7.344 0-2.9361-2.0507-4.9867-4.9921-4.9867-1.4226 0-2.6599.8373-3.5013 1.6013.404-1.7266 1.1587-3.772 2.584-5.376h-6.1013c1.428 1.6067 2.1813 3.6547 2.5867 5.384-.8414-.7666-2.0814-1.6093-3.5054-1.6093-2.9373 0-4.9933 2.0506-4.9933 4.9867 0 3.229 2.5533 5.323 5.016 7.344z" fill="#302f36"/><path d="m25.7255 93.0146v19.4334c.2413 0 .4693-.103.6267-.288.924-1.096 2.1319-2.084 3.2959-3.04 2.4693-2.017 5.0174-4.109 5.0174-7.344 0-2.9361-2.0507-4.9867-4.9921-4.9867-1.4226 0-2.6599.8373-3.5013 1.6013.404-1.7266 1.1587-3.772 2.584-5.376z" fill="#46464e"/><path d="m63.7014 43.724c1.164.956 2.3734 1.9427 3.296 3.0387.156.1853.3854.2893.6227.2893h.048c.24 0 .4707-.104.6267-.2893.9226-1.096 2.1307-2.0827 3.296-3.0387 2.468-2.0187 5.0173-4.1107 5.0173-7.3454 0-2.9347-2.052-4.9866-4.9933-4.9866-1.42 0-2.6587.8373-3.5013 1.6026.4053-1.728 1.1586-3.7719 2.5839-5.3759h-6.1c1.4267 1.6053 2.1814 3.6546 2.5854 5.3826-.84-.7667-2.0813-1.6093-3.5053-1.6093-2.9374 0-4.9934 2.0519-4.9934 4.9866 0 3.2307 2.5533 5.3227 5.0173 7.3454z" fill="#302f36"/><path d="m67.6668 27.6187v19.4333h.0013c.24 0 .4707-.104.6267-.2893.9226-1.096 2.1307-2.0827 3.296-3.0387 2.468-2.0187 5.0173-4.1107 5.0173-7.3454 0-2.9347-2.052-4.9866-4.9933-4.9866-1.42 0-2.6587.8373-3.5013 1.6026.4053-1.728 1.1586-3.7719 2.5839-5.3759z" fill="#46464e"/><path d="m21.7588 43.724c1.164.956 2.3733 1.9427 3.2973 3.0387.1547.1853.3854.2893.6214.2893h.048c.2413 0 .4693-.104.6267-.2893.924-1.096 2.1319-2.0827 3.2959-3.0387 2.4693-2.0187 5.0174-4.1107 5.0174-7.3454 0-2.9347-2.0507-4.9866-4.9921-4.9866-1.4226 0-2.6599.8373-3.5013 1.6026.404-1.728 1.1587-3.7719 2.584-5.3759h-6.1013c1.428 1.6053 2.1813 3.6546 2.5867 5.3826-.8414-.7667-2.0814-1.6093-3.5054-1.6093-2.9373 0-4.9933 2.0519-4.9933 4.9866 0 3.2307 2.5533 5.3227 5.016 7.3454z" fill="#302f36"/><path d="m25.7255 27.6187v19.4333c.2413 0 .4693-.104.6267-.2893.924-1.096 2.1319-2.0827 3.2959-3.0387 2.4693-2.0187 5.0174-4.1107 5.0174-7.3454 0-2.9347-2.0507-4.9866-4.9921-4.9866-1.4226 0-2.6599.8373-3.5013 1.6026.404-1.728 1.1587-3.7719 2.584-5.3759z" fill="#46464e"/><g fill="#302f36"><path d="m85.0976 131.577-.5245 5.145h-5.2868v-1.212h4.1742l.3118-2.813c-.5055.297-1.0796.446-1.7221.446-.9402 0-1.6867-.312-2.2395-.935-.5528-.619-.8292-1.458-.8292-2.516 0-1.063.2882-1.902.8646-2.516.5717-.61 1.3725-.914 2.4025-.914.9119 0 1.656.252 2.2324.758s.9048 1.205.9851 2.098h-1.2402c-.0803-.591-.2906-1.037-.6308-1.34-.3401-.297-.789-.446-1.3465-.446-.6095 0-1.0867.208-1.4316.623-.3496.416-.5244.99-.5244 1.723 0 .689.189 1.242.567 1.658.3732.42.8717.631 1.4953.631.5717 0 1.0205-.126 1.3465-.376l.3473-.283z"/><path d="m8.16268 8.48961.52443-5.14515h5.28689v1.21188h-4.17423l-.31183 2.81353c.50554-.29765 1.07956-.44648 1.72216-.44648.9402 0 1.6867.31183 2.2395.93548.5527.61893.8291 1.45756.8291 2.51583 0 1.0631-.2882 1.9017-.8646 2.5159-.5717.6095-1.3725.9142-2.4025.9142-.9118 0-1.65595-.2527-2.23236-.7583-.5764-.5055-.90477-1.2047-.98509-2.0977h1.24022c.08032.5906.29057 1.0371.63075 1.3394.34018.2977.78898.4465 1.34648.4465.6095 0 1.0867-.2079 1.4316-.6236.3496-.4158.5244-.9899.5244-1.7222 0-.68978-.1889-1.24256-.5669-1.65833-.3733-.4205-.8717-.63074-1.4954-.63074-.5716 0-1.02049.1252-1.34649.37561l-.34726.28348z"/><path d="m42.6881 76.0586c1.164.956 2.372 1.9441 3.2947 3.0401.156.1853.3853.2879.6227.2879h.0479c.2414 0 .4707-.1026.6267-.2879.9227-1.096 2.132-2.0841 3.2974-3.0401 2.4666-2.0173 5.016-4.1107 5.016-7.344 0-2.936-2.0521-4.9866-4.9934-4.9866-1.42 0-2.6586.836-3.5013 1.6026.4053-1.728 1.1586-3.7747 2.5853-5.3773h-6.1013c1.4267 1.6066 2.1813 3.6547 2.5853 5.3827-.84-.7667-2.0813-1.608-3.5053-1.608-2.9373 0-4.9933 2.0506-4.9933 4.9866 0 3.2293 2.5533 5.3213 5.0186 7.344z"/></g><path d="m46.6521 59.9533v19.4333h.0013c.2414 0 .4707-.1026.6267-.2879.9227-1.096 2.132-2.0841 3.2974-3.0401 2.4666-2.0173 5.016-4.1107 5.016-7.344 0-2.936-2.0521-4.9866-4.9934-4.9866-1.42 0-2.6586.836-3.5013 1.6026.4053-1.728 1.1586-3.7747 2.5853-5.3773z" fill="#46464e"/></svg>