<svg fill="none" height="140" viewBox="0 0 93 140" width="93" xmlns="http://www.w3.org/2000/svg"><path d="m.713468 4.66528c0-2.004 1.621072-3.62806 3.622842-3.62806h84.75429c2.0004 0 3.6229 1.62406 3.6229 3.62806v130.98972c0 2.004-1.6225 3.626-3.6229 3.626h-84.75429c-2.00177 0-3.622842-1.622-3.622842-3.626z" fill="#fff"/><path d="m63.7014 109.247c1.164.956 2.3734 1.944 3.296 3.038.156.187.3854.288.6227.288h.048c.24 0 .4707-.101.6267-.288.9226-1.094 2.1307-2.082 3.296-3.038 2.468-2.019 5.016-4.111 5.016-7.346 0-2.9358-2.0507-4.9851-4.992-4.9851-1.42 0-2.6587.836-3.5013 1.6013.4053-1.728 1.1586-3.7733 2.5839-5.3759h-6.1c1.4267 1.6066 2.1814 3.6533 2.5854 5.3826-.84-.7666-2.0813-1.608-3.5053-1.608-2.9374 0-4.9934 2.0493-4.9934 4.9851 0 3.231 2.5533 5.322 5.0173 7.346z" fill="#302f36"/><path d="m67.6668 93.1413v19.4317h.0013c.24 0 .4707-.101.6267-.288.9226-1.094 2.1307-2.082 3.296-3.038 2.468-2.019 5.016-4.111 5.016-7.346 0-2.9358-2.0507-4.9851-4.992-4.9851-1.42 0-2.6587.836-3.5013 1.6013.4053-1.728 1.1586-3.7733 2.5839-5.3759z" fill="#46464e"/><path d="m80.7935 120.916c.6027.495 1.228 1.007 1.7066 1.573.0814.096.1987.15.3214.15h.0253c.1253 0 .2426-.054.324-.15.4786-.566 1.1053-1.078 1.708-1.573 1.2786-1.045 2.5973-2.129 2.5973-3.805 0-1.52-1.0599-2.582-2.5853-2.582-.736 0-1.376.432-1.812.83.208-.896.6-1.955 1.3373-2.786h-3.16c.7387.832 1.1307 1.894 1.3387 2.79-.4347-.399-1.0773-.834-1.8147-.834-1.5226 0-2.5853 1.062-2.5853 2.582 0 1.673 1.3214 2.757 2.5987 3.805z" fill="#302f36"/><path d="m82.8468 112.573v10.066c.1253 0 .2426-.054.324-.15.4786-.566 1.1053-1.078 1.708-1.573 1.2786-1.045 2.5973-2.129 2.5973-3.805 0-1.52-1.0599-2.582-2.5853-2.582-.736 0-1.376.432-1.812.83.208-.896.6-1.955 1.3373-2.786z" fill="#46464e"/><path d="m12.4708 19.4026c-.604-.4947-1.2293-1.0067-1.708-1.5733-.08-.0974-.1987-.1494-.3213-.1494h-.0254c-.124 0-.244.052-.3253.1494-.47732.5666-1.10403 1.0786-1.70669 1.5733-1.27867 1.0453-2.59864 2.1293-2.59864 3.8053 0 1.52 1.06262 2.5813 2.58529 2.5813.736 0 1.37871-.4333 1.81474-.8293-.21069.896-.60136 1.9546-1.3387 2.7853h3.16c-.74-.832-1.1307-1.8933-1.34-2.7893.436.3987 1.0787.8333 1.816.8333 1.5213 0 2.5867-1.0613 2.5867-2.5813 0-1.6733-1.3227-2.7573-2.5987-3.8053z" fill="#302f36"/><path d="m10.4161 27.7452v-10.0653c-.124 0-.244.052-.3253.1494-.47732.5666-1.10403 1.0786-1.70669 1.5733-1.27867 1.0453-2.59864 2.1293-2.59864 3.8053 0 1.52 1.06262 2.5813 2.58529 2.5813.736 0 1.37871-.4333 1.81474-.8293-.21069.896-.60136 1.9546-1.3387 2.7853z" fill="#46464e"/><path d="m21.7588 109.247c1.164.956 2.3733 1.944 3.2973 3.038.1547.187.3854.288.6214.288h.048c.2413 0 .4693-.101.6267-.288.9226-1.094 2.1319-2.082 3.2959-3.038 2.4693-2.019 5.0174-4.111 5.0174-7.346 0-2.9358-2.0507-4.9851-4.9934-4.9851-1.4213 0-2.6586.836-3.5 1.6013.404-1.728 1.1587-3.7733 2.584-5.3759h-6.1013c1.428 1.6066 2.1813 3.6533 2.5867 5.3826-.8414-.7666-2.0827-1.608-3.5067-1.608-2.9374 0-4.992 2.0493-4.992 4.9851 0 3.231 2.552 5.322 5.016 7.346z" fill="#302f36"/><path d="m25.7255 93.1413v19.4317c.2413 0 .4693-.101.6267-.288.9226-1.094 2.1319-2.082 3.2959-3.038 2.4693-2.019 5.0174-4.111 5.0174-7.346 0-2.9358-2.0507-4.9851-4.9934-4.9851-1.4213 0-2.6586.836-3.5 1.6013.404-1.728 1.1587-3.7733 2.584-5.3759z" fill="#46464e"/><path d="m63.7014 76.5493c1.164.9546 2.3734 1.944 3.296 3.0386.156.1854.3854.288.6227.288h.048c.24 0 .4707-.1026.6267-.288.9226-1.0946 2.1307-2.084 3.296-3.0386 2.468-2.0187 5.016-4.1107 5.016-7.3467 0-2.9334-2.0507-4.9854-4.992-4.9854-1.42 0-2.6587.8374-3.5013 1.6014.4053-1.7267 1.1586-3.772 2.5839-5.3747h-6.1c1.4267 1.6054 2.1814 3.6534 2.5854 5.3827-.84-.768-2.0813-1.6094-3.5053-1.6094-2.9374 0-4.9934 2.052-4.9934 4.9854 0 3.232 2.5533 5.3227 5.0173 7.3467z" fill="#302f36"/><path d="m67.6668 60.4439v19.432h.0013c.24 0 .4707-.1026.6267-.288.9226-1.0946 2.1307-2.084 3.296-3.0386 2.468-2.0187 5.016-4.1107 5.016-7.3467 0-2.9334-2.0507-4.9854-4.992-4.9854-1.42 0-2.6587.8374-3.5013 1.6014.4053-1.7267 1.1586-3.772 2.5839-5.3747z" fill="#46464e"/><path d="m21.7588 76.5493c1.164.9546 2.3733 1.944 3.2973 3.0386.1547.1854.3854.288.6214.288h.048c.2413 0 .4693-.1026.6267-.288.9226-1.0946 2.1319-2.084 3.2959-3.0386 2.4693-2.0187 5.0174-4.1107 5.0174-7.3467 0-2.9334-2.0507-4.9854-4.9934-4.9854-1.4213 0-2.6586.8374-3.5 1.6014.404-1.7267 1.1587-3.772 2.584-5.3747h-6.1013c1.428 1.6054 2.1813 3.6534 2.5867 5.3827-.8414-.768-2.0827-1.6094-3.5067-1.6094-2.9374 0-4.992 2.052-4.992 4.9854 0 3.232 2.552 5.3227 5.016 7.3467z" fill="#302f36"/><path d="m25.7255 60.4439v19.432c.2413 0 .4693-.1026.6267-.288.9226-1.0946 2.1319-2.084 3.2959-3.0386 2.4693-2.0187 5.0174-4.1107 5.0174-7.3467 0-2.9334-2.0507-4.9854-4.9934-4.9854-1.4213 0-2.6586.8374-3.5 1.6014.404-1.7267 1.1587-3.772 2.584-5.3747z" fill="#46464e"/><path d="m63.7014 43.8492c1.164.956 2.3734 1.944 3.296 3.04.156.1854.3854.288.6227.288h.048c.24 0 .4707-.1026.6267-.288.9226-1.096 2.1307-2.084 3.296-3.04 2.468-2.0173 5.016-4.1093 5.016-7.3453 0-2.9347-2.0507-4.9853-4.992-4.9853-1.42 0-2.6587.8373-3.5013 1.6013.4053-1.728 1.1586-3.7733 2.5839-5.376h-6.1c1.4267 1.6067 2.1814 3.6547 2.5854 5.384-.84-.768-2.0813-1.6093-3.5053-1.6093-2.9374 0-4.9934 2.0506-4.9934 4.9853 0 3.2306 2.5533 5.3227 5.0173 7.3453z" fill="#302f36"/><path d="m67.6668 27.7439v19.4333h.0013c.24 0 .4707-.1026.6267-.288.9226-1.096 2.1307-2.084 3.296-3.04 2.468-2.0173 5.016-4.1093 5.016-7.3453 0-2.9347-2.0507-4.9853-4.992-4.9853-1.42 0-2.6587.8373-3.5013 1.6013.4053-1.728 1.1586-3.7733 2.5839-5.376z" fill="#46464e"/><path d="m21.7588 43.8492c1.164.956 2.3733 1.944 3.2973 3.04.1547.1854.3854.288.6214.288h.048c.2413 0 .4693-.1026.6267-.288.9226-1.096 2.1319-2.084 3.2959-3.04 2.4693-2.0173 5.0174-4.1093 5.0174-7.3453 0-2.9347-2.0507-4.9853-4.9934-4.9853-1.4213 0-2.6586.8373-3.5 1.6013.404-1.728 1.1587-3.7733 2.584-5.376h-6.1013c1.428 1.6067 2.1813 3.6547 2.5867 5.384-.8414-.768-2.0827-1.6093-3.5067-1.6093-2.9374 0-4.992 2.0506-4.992 4.9853 0 3.2306 2.552 5.3227 5.016 7.3453z" fill="#302f36"/><path d="m25.7255 27.7439v19.4333c.2413 0 .4693-.1026.6267-.288.9226-1.096 2.1319-2.084 3.2959-3.04 2.4693-2.0173 5.0174-4.1093 5.0174-7.3453 0-2.9347-2.0507-4.9853-4.9934-4.9853-1.4213 0-2.6586.8373-3.5 1.6013.404-1.728 1.1587-3.7733 2.584-5.376z" fill="#46464e"/><g fill="#302f36"><path d="m79.0382 136.112 4.2735-9.582h1.3748l-4.2592 9.241h5.5845v1.078h-6.9736z"/><path d="m14.2234 4.20816-4.2734 9.58164h-1.37487l4.25927-9.24147h-5.58454v-1.07722h6.97354z"/><path d="m42.6881 94.4559c1.164.956 2.372 1.944 3.2947 3.04.156.1854.3853.288.6227.288h.0479c.2414 0 .4707-.1026.6267-.288.9227-1.096 2.132-2.084 3.2974-3.04 2.4666-2.0173 5.016-4.1093 5.016-7.3453 0-2.9347-2.0521-4.9854-4.9934-4.9854-1.42 0-2.6586.8374-3.5013 1.6014.4053-1.7267 1.1586-3.7734 2.5853-5.376h-6.1013c1.4267 1.6066 2.1813 3.6546 2.5853 5.3839-.84-.768-2.0813-1.6093-3.5053-1.6093-2.9373 0-4.9933 2.0507-4.9933 4.9854 0 3.2306 2.5533 5.3226 5.0186 7.3453z"/></g><path d="m46.6521 78.3506v19.4333h.0013c.2414 0 .4707-.1026.6267-.288.9227-1.096 2.132-2.084 3.2974-3.04 2.4666-2.0173 5.016-4.1093 5.016-7.3453 0-2.9347-2.0521-4.9854-4.9934-4.9854-1.42 0-2.6586.8374-3.5013 1.6014.4053-1.7267 1.1586-3.7734 2.5853-5.376z" fill="#46464e"/></svg>