<svg fill="none" height="140" viewBox="0 0 93 140" width="93" xmlns="http://www.w3.org/2000/svg"><path d="m.713468 4.79198c0-2.00267 1.622402-3.62799 3.622842-3.62799h84.75429c2.0004 0 3.6229 1.62532 3.6229 3.62799v130.98902c0 2.003-1.6225 3.628-3.6229 3.628h-84.75429c-2.00044 0-3.622842-1.625-3.622842-3.628z" fill="#fff"/><path d="m80.7935 121.044c.6027.492 1.2293 1.005 1.7066 1.573.0814.096.1987.148.3214.148h.0253c.1253 0 .244-.052.3253-.148.4774-.568 1.104-1.081 1.7067-1.573 1.2786-1.047 2.5987-2.129 2.5987-3.807 0-1.518-1.0614-2.581-2.5854-2.581-.736 0-1.3773.432-1.8133.828.2093-.893.6-1.953 1.3374-2.784h-3.1601c.74.831 1.1307 1.893 1.3401 2.789-.436-.398-1.0787-.833-1.8161-.833-1.5213 0-2.5853 1.063-2.5853 2.581 0 1.675 1.3214 2.758 2.5987 3.807z" fill="#302f36"/><path d="m82.8468 112.7v10.065c.1253 0 .244-.052.3253-.148.4774-.568 1.104-1.081 1.7067-1.573 1.2786-1.047 2.5987-2.129 2.5987-3.807 0-1.518-1.0614-2.581-2.5854-2.581-.736 0-1.3773.432-1.8133.828.2093-.893.6-1.953 1.3374-2.784z" fill="#46464e"/><path d="m80.0007 136.975h-1.3678v-7.306c0-.988.2977-1.76.893-2.318.5906-.557 1.3796-.836 2.3671-.836 1.0252 0 1.8237.262 2.3954.787.5716.524.8575 1.259.8575 2.204h-1.3607c0-.591-.1607-1.051-.4819-1.382-.326-.331-.7961-.496-1.4103-.496-.5623 0-1.0158.177-1.3607.531-.3497.355-.5268.851-.5316 1.489z" fill="#302f36"/><path d="m12.4721 19.5307c-.604-.4947-1.2306-1.0067-1.708-1.5747-.08-.096-.2-.1493-.3226-.1493h-.0254c-.124 0-.2426.0533-.324.1493-.47864.568-1.10398 1.08-1.70798 1.5747-1.27734 1.0453-2.59733 2.128-2.59733 3.8053 0 1.5187 1.06135 2.58 2.58535 2.58.736 0 1.37731-.432 1.81466-.828-.21201.8933-.60265 1.9533-1.33999 2.784h3.15999c-.7387-.8307-1.1294-1.8933-1.3387-2.7893.4347.3986 1.0787.8333 1.8147.8333 1.5227 0 2.588-1.0613 2.588-2.58 0-1.6747-1.3227-2.7573-2.5987-3.8053z" fill="#302f36"/><path d="m10.4161 27.872v-10.0653c-.124 0-.2427.0533-.324.1493-.47865.568-1.10399 1.08-1.70799 1.5747-1.27734 1.0453-2.59733 2.128-2.59733 3.8053 0 1.5187 1.06135 2.58 2.58535 2.58.736 0 1.37731-.432 1.81467-.828-.21202.8933-.60266 1.9533-1.34 2.784z" fill="#46464e"/><path d="m13.2636 3.59923h1.3678v7.30667c0 .9875-.2977 1.7599-.893 2.3174-.5905.5576-1.3796.8363-2.367.8363-1.0253 0-1.82372-.2622-2.39541-.7866-.57168-.5245-.85752-1.2592-.85752-2.2041h1.3607c0 .5906.16064 1.0512.48191 1.382.32602.3307.79612.4961 1.41032.4961.5622 0 1.0158-.1772 1.3607-.5316.3496-.3543.5268-.8504.5315-1.4882z" fill="#302f36"/><path d="m25.9081 41.3987s-4.9653 1.7946-9.5893 6.8146v6.1467h9.5893z" fill="#302f36"/><path d="m29.8508 117.167-5.1453 6.674s10.0347 6.659 12.0573 6.776c2.0254.118 24.8974-6.958 24.8974-6.958l-5.164-8.252z" fill="#302f36"/><path d="m56.4962 125.235s-2.8347-9.071-3.5681-9.672c-.7333-.602-4.464 1.112-4.464 1.112s2.8774 2.849 4.2974 9.68z" fill="#a22735"/><path d="m16.3188 57.4147v34.492s4.336 5.5253 13.0387 6.3453c0 0 .1613-34.9373-13.0387-40.8373z" fill="#302f36"/><path d="m41.7748 96.3573h4.4373v-8.1466h-4.4373z" fill="#181419"/><path d="m32.8775 99.1693h4.4386v-8.1453h-4.4386z" fill="#181419"/><path d="m46.2468 99.5933h4.436v-8.1453h-4.436z" fill="#a22735"/><path d="m37.3374 96.9347h4.4374v-8.1454h-4.4374z" fill="#a22735"/><path d="m50.5428 102.047h4.4373v-8.1457h-4.4373z" fill="#181419"/><path d="m55.0135 102.211h4.4373v-5.0723h-4.4373z" fill="#a22735"/><path d="m32.9161 102.063 1.0147-3.6283-3.4107-.1827z" fill="#a05e33"/><path d="m28.1681 98.12s1.5534-22.8173-11.8493-40.7053c.016-1.576.0253-2.376.0253-2.376s7.888 3.7093 12.376 19.3413c4.4867 15.6333 2.4533 23.74 2.4533 23.74z" fill="#181419"/><path d="m30.2174 97.612s.412-15.016-3.2946-24.0133c-3.7054-8.9974-6.284-15.132-10.604-18.52v-6.8654s12.176 11.7707 16.168 25.0347c3.992 13.26 3.2466 24.8587 3.2466 24.8587z" fill="#35346f"/><g fill="#a22735"><path d="m29.9935 98.008c0-.5627 1.1426-1.0187 2.552-1.0187 1.4093 0 2.552.456 2.552 1.0187 0 .5653-1.1427 1.02-2.552 1.02-1.4094 0-2.552-.4547-2.552-1.02z"/><path d="m30.1814 95.7653c-.0293-.552 1.0654-1.0573 2.4428-1.1293 1.38-.0707 2.5199.3146 2.5492.8666.0294.5494-1.0652 1.0547-2.4439 1.128-1.3773.072-2.5187-.316-2.5481-.8653z"/><path d="m30.2201 93.1853c-.0573-.54.9867-1.0946 2.336-1.2373 1.3467-.1453 2.4867.172 2.544.7106.0587.5387-.9866 1.0907-2.3346 1.2374-1.348.1453-2.4867-.172-2.5454-.7107z"/><path d="m30.1028 90.32c-.0867-.5254.9106-1.1293 2.228-1.348 1.3146-.2173 2.4533.0333 2.5399.5586.088.5267-.9079 1.1307-2.2266 1.3467-1.316.2187-2.4533-.0307-2.5413-.5573z"/><path d="m29.8215 87.224c-.1147-.5133.8333-1.164 2.1186-1.456 1.2867-.292 2.4227-.1093 2.5374.404.1173.5133-.832 1.1667-2.116 1.456-1.2867.2907-2.4227.1093-2.54-.404z"/><path d="m29.3708 83.9506c-.144-.5.7546-1.2013 2.0106-1.5653 1.2547-.3613 2.3894-.2493 2.5347.2507.1454.5027-.756 1.2027-2.0093 1.5667-1.256.3626-2.3894.2506-2.536-.2521z"/><path d="m28.7441 80.5546c-.1746-.4893.6747-1.2399 1.8987-1.6746s2.3587-.3933 2.532.096c.1747.4907-.6774 1.24-1.9014 1.6746-1.224.4347-2.3573.3907-2.5293-.096z"/><path d="m27.9281 77.0853c-.2026-.476.6001-1.276 1.7934-1.7826 1.1933-.508 2.324-.5347 2.528-.0574.2027.476-.6 1.276-1.792 1.7827-1.1933.508-2.3254.5346-2.5294.0573z"/><path d="m26.9228 73.5986c-.2307-.4653.5227-1.3119 1.6854-1.8933 1.1613-.58 2.292-.6773 2.524-.2107.2306.464-.5227 1.312-1.6854 1.8934-1.1613.5786-2.292.6746-2.524.2106z"/><path d="m25.7201 70.1453c-.2613-.452.4441-1.348 1.5761-2.0026 1.1293-.6534 2.2586-.8174 2.52-.364.2613.4533-.4454 1.3493-1.5747 2.0026-1.1333.6507-2.2614.8147-2.5214.364z"/><path d="m24.3081 66.7814c-.2893-.44.3667-1.3854 1.468-2.1121 1.1-.724 2.2267-.9586 2.5174-.5186.2893.44-.368 1.3853-1.4667 2.112-1.1013.724-2.228.9587-2.5187.5187z"/><path d="m22.6868 63.5573c-.32-.4266.288-1.4213 1.3574-2.2186 1.0693-.8 2.1946-1.1014 2.5146-.6747.3187.4267-.2906 1.4213-1.3586 2.2213-1.0694.7973-2.1961 1.0987-2.5134.672z"/><path d="m20.8427 60.528c-.348-.416.2107-1.4573 1.2481-2.328 1.04-.872 2.164-1.2413 2.512-.828.348.4173-.2107 1.4587-1.2494 2.328-1.04.8733-2.1627 1.2427-2.5107.828z"/><path d="m18.7721 57.7453c-.3773-.4013.1334-1.4933 1.1414-2.4386 1.0067-.9427 2.1293-1.38 2.5053-.9787.3787.404-.132 1.4947-1.14 2.4373-1.008.9454-2.1307 1.3827-2.5067.98z"/><path d="m16.4681 55.2653c-.4067-.3906.0547-1.5306 1.0307-2.5466.976-1.0187 2.0973-1.5254 2.504-1.136.4067.3906-.056 1.532-1.032 2.548-.9774 1.0146-2.0987 1.5226-2.5027 1.1346z"/></g><path d="m42.0748 78.1533h7.0533v7.8027h-7.0533z" fill="#3e4ca8"/><path d="m48.8242 78.484h-6.7494v-7.0773z" fill="#ae8f42"/><path d="m49.0681 79.0827h-7.1133v5.792h7.1133z" fill="#ae8f42"/><path d="m49.0681 85.3853h-6.9933v1.8907l6.9933 4.2347z" fill="#ae8f42"/><path d="m40.7108 70.7293.2706 16.4213-5.7866 3.2707s-1.1387-13.5986-2.512-16.0413c-1.376-2.4427 8.028-3.6507 8.028-3.6507z" fill="#302f36"/><path d="m40.6108 70.68 1.7187.8507v16.808h-1.7187z" fill="#dee4f5"/><path d="m40.0561 70.036 1.7187.852v16.8067h-1.7187z" fill="#181419"/><path d="m28.8108 64.3387c.584 1.4706 1.572 2.8333 2.3027 4.24 1.188 2.288 2.0346 4.7133 2.4226 7.236.036 0 .0707.0026.1067.0026 3.556 0 6.5986-2.2026 7.8386-5.3173-.2626-.2973-.5186-.604-.8466-.8827-.592-.4973-1.2867-.8907-1.904-1.3627-1.4947-1.1453-2.64-2.7266-4.3134-3.6266-1.2613-.6773-2.6026-1.1493-3.9453-1.636-.576-.208-1.1613-.4187-1.76-.5573-.1813.0266-.3613.0546-.544.0786.2213.6174.412 1.2414.6427 1.8254z" fill="#181419"/><path d="m28.8108 64.3387c.584 1.4706 1.572 2.8333 2.3027 4.24 1.0813 2.0853 1.8826 4.2853 2.3093 6.5693.0733.0027.1466.008.22.008 3.3933 0 6.2773-2.1773 7.3386-5.208-.1093-.112-.2213-.224-.3466-.3307-.592-.4973-1.2867-.8907-1.904-1.3627-1.4947-1.1453-2.64-2.7266-4.3134-3.6266-1.2613-.6773-2.6026-1.1493-3.9453-1.636-.576-.208-1.1613-.4187-1.76-.5573-.1813.0266-.3627.0546-.544.0786.2213.6147.412 1.2414.6427 1.8254z" fill="#ae8f42"/><path d="m31.1135 68.5787c.4747.916.896 1.8559 1.2533 2.8146.4027.128.8306.1973 1.276.1973 2.2826 0 4.1387-1.8173 4.2067-4.0853-1.104-1.016-2.1-2.1613-3.432-2.8773-.8014-.4307-1.6361-.7787-2.4827-1.1-1.0734.4773-1.9067 1.388-2.284 2.508.484.8547 1.02 1.6907 1.4627 2.5427z" fill="#3e4ca8"/><path d="m57.4428 83.992-6.9054-3.984-.3492 12.8533 7.2546 3.9987z" fill="#302f36"/><path d="m48.8241 79.2733h1.7187v13.0107h-1.7187z" fill="#dee4f5"/><path d="m64.0135 100.768s-2.9707 1.669-6.036 2.099l-.3694-18.643s4.7014 1.7453 6.8147 1.664z" fill="#bcc7ea"/><path d="m64.0135 100.768 1.0693-.404v-14.3454h-1.0693z" fill="#675155"/><path d="m65.0828 100.364s1.5854-.6613 2.272-1.1893v-12.9614h-2.272z" fill="#181419"/><path d="m67.3548 99.1747s4.9653-1.7947 9.5893-6.8134v-6.148h-9.5893z" fill="#302f36"/><path d="m49.4614 79.852h1.72v13.0093h-1.72z" fill="#181419"/><path d="m56.9081 102.867h1.0694v-18.2857h-1.0694z" fill="#675155"/><path d="m29.5668 62.2027c.6453 0 1.4853.128 2.5413.5293 3.496 1.3253 7.7707 4.9707 12.7054 10.8413 5.9426 7.0654 11.7853 9.8747 15.6413 10.9867 4.1693 1.2026 8.9067.9787 8.936.9733l.204 1.152c-.1227.02-4.9787.276-9.388-.98-4.0294-1.148-10.1253-4.0573-16.288-11.3827-11.0853-13.1826-15.312-10.7813-15.3533-10.7546l-.66-.964c.084-.06.6133-.4013 1.6613-.4013z" fill="#9c6c3e"/><path d="m56.9081 97.5987s-14.2866-9.3174-15.636-9.3174c-1.348 0-5.396 2.836-5.396 2.836v-1.648s4.88-3.256 5.516-3.256c.6347 0 15.516 9.6467 15.516 9.6467z" fill="#dee4f5"/><path d="m55.3108 102.063s-12.0733-8.875-13.7867-8.875c-1.7146 0-6.684 4.4373-6.684 4.4373z" fill="#ae8f42"/><path d="m56.9081 98.7293s-14.2866-9.4747-15.636-9.4747c-1.348 0-5.396 3.1934-5.396 3.1934v-1.596s4.88-3.1574 5.516-3.1574c.6347 0 15.516 9.3494 15.516 9.3494z" fill="#ae8f42"/><path d="m36.2641 96.9693s.036-15.0733-3.492-25.0187c-3.5253-9.9426-12.4013-23.9266-15.0107-25.196l-1.4426 1.4587s6.2467 5.148 15.184 24.472c2.3267 9.5627 2.4067 5.4267 3.5307 24.9134 1.124 19.4863 1.2306-.6294 1.2306-.6294z" fill="#9c6c3e"/><path d="m47.3734 98.7293s-4.9373-3.6333-5.988-3.6333c-1.0493 0-3.2893 2.044-3.2893 2.044s6.8373 4.557 8.7147 3.915c1.88-.64.5626-2.3257.5626-2.3257z" fill="#d1d7ec"/><path d="m33.6215 116.541s-2.3307-2.322-1.736-8.361c.5947-6.041 1.0973-12.0893-3.32-10.2453-4.4187 1.8466-.5987 6.5523 2.0667 4.0703 0 0-.0147 2.976-.4 6.896-.3867 3.919-.104 7.67 3.3893 7.64z" fill="#c57135"/><path d="m31.2868 115.563s-.648-3.634 0-4.372c.648-.743.0453-1.891 0-2.776-.0467-.887-.9734-8.344 4.1226-11.0323 5.096-2.6854 4.6787 1.0266 10.9333 3.3853 0 0 .9721 14.544-3.2893 15.751 0 0-8.4773.729-11.7666-.956z" fill="#dee4f5"/><path d="m52.1014 114.631s1.6534-1.355 1.6534-5.295c0-3.937 2.0427-8.057 4.7787-6.584 2.7373 1.475-.0294 4.272-1.5934 2.497 0 0-.1813 1.926-.1813 4.48 0 2.558-1.428 5.536-4.6574 4.902z" fill="#9b5b32"/><path d="m50.5308 115.544s1.9133-1.565 1.9133-6.125c0-4.558 1.028-9.34 4.1947-7.635 3.1666 1.705-.036 4.94-1.844 2.888 0 0-.2107 2.227-.2107 5.185 0 2.955-1.444 5.966-4.0533 5.687z" fill="#a05e33"/><path d="m48.4641 116.039s1.8146-3.203 1.8146-8.107c0-4.901 1.3681-8.5107 4.7747-6.677 3.4067 1.833-.036 5.316-1.9827 3.106 0 0-.2253 2.396-.2253 5.576 0 3.183-1.5746 6.404-4.3813 6.102z" fill="#a66133"/><path d="m46.8108 116.287s1.292-2.178 1.292-7.647c0-5.465 1.0867-10.6347 4.8853-8.591 3.7987 2.044-.0414 5.927-2.212 3.464 0 0-.2507 2.672-.2507 6.219 0 3.549-.584 6.888-3.7146 6.555z" fill="#aa6534"/><path d="m44.6215 116.524s2.4507-2.005 2.4507-7.839c0-5.833.0866-11.669 4.1399-9.4877 4.0534 2.1827-.044 6.3267-2.3586 3.6987 0 0-.2694 2.849-.2694 6.635s-.6226 7.349-3.9626 6.993z" fill="#af6734"/><path d="m43.0534 116.519s2.548-2.087 2.548-8.155c0-6.069.0933-12.1373 4.308-9.8693 4.216 2.2703-.0466 6.5813-2.4546 3.8463 0 0-.2774 2.964-.2774 6.904 0 3.938-.6493 7.643-4.124 7.274z" fill="#c57135"/><path d="m55.8975 113.005s-9.5681 5.279-25.1267 1.916l-.92 2.246s12.06 4.724 26.6454-1.76z" fill="#302f36"/><path d="m35.1855 111.723s-.9747.393-2.0507.404c-.268.017-.5427-.027-.7987-.054-.2493-.086-.4653-.216-.644-.314-.3053-.319-.424-.554-.424-.554l.0374-.03s.2773.094.5693.261c.1813.041.3774.092.5827.165.2213.035.4493.128.696.152.248.018.496.052.7333.036.2373-.002.46-.01.6493-.03.3814-.03.636-.08.636-.08z" fill="#c57135"/><path d="m39.4468 111.679s.2534.05.636.08c.1894.02.412.028.6494.03.2373.016.4853-.018.7333-.036.2453-.024.4733-.117.6947-.152.204-.073.4012-.124.5826-.165.292-.167.5693-.261.5693-.261l.0374.03s-.1187.235-.424.554c-.1774.098-.3947.228-.644.314-.2547.027-.5307.071-.7974.054-1.0773-.011-2.0506-.404-2.0506-.404z" fill="#c57135"/><path d="m38.0814 109.92s.2214-.253.6494-.524c.2187-.12.4787-.279.7853-.367.304-.093.6347-.19.98-.198.344-.059.688-.044 1.008.012.324.038.608.136.8333.265.46.233.7267.439.7267.439l-.0213.041s-.3507-.02-.8187-.127c-.2293-.078-.5053-.105-.7987-.138-.2866-.068-.5959-.132-.9119-.119-.3187-.028-.6294.031-.9241.087-.152.014-.2839.074-.4146.117-.128.047-.26.075-.3667.132-.444.2-.696.415-.696.415z" fill="#333558"/><path d="m35.0241 109.955s-.1893-.147-.512-.279c-.1587-.068-.3547-.127-.5587-.181-.2106-.031-.4279-.095-.6559-.074-.224-.005-.4427.019-.6467.071-.2027.024-.4013.011-.568.06-.3333.052-.6014.036-.6014.036l-.0173-.041s.18-.171.5147-.352c.164-.1.3787-.159.6147-.186.2373-.04.4893-.009.7387.04.2506.016.4839.12.7039.188.2134.088.404.192.5547.295.3053.204.464.387.464.388z" fill="#333558"/><path d="m35.8961 110.677s.048-.684-.04-1.701c-.0453-.507-.1347-1.095-.2813-1.708-.076-.305-.2014-.605-.3014-.916-.1573-.295-.3173-.595-.4786-.892-.0894-.124-.1441-.36-.1521-.587l.0761-.318c.052-.091.112-.179.172-.266.2773-.305.6346-.45.9706-.541.344-.063.6827-.092.9987-.035.312.051.608.136.848.284.2453.131.4453.32.56.518.1466.18.1747.385.2174.536.0213.314.0053.485.0053.485h-.0467s-.028-.175-.1146-.444c-.0774-.12-.128-.285-.272-.413-.1147-.148-.3068-.262-.5174-.351-.204-.103-.4627-.151-.7307-.168-.268-.02-.556-.001-.8373.061-.2813.064-.5586.18-.7533.362-.192.209-.2347.4-.0841.72.1467.31.2934.622.4387.929.0893.333.2027.656.2654.975.124.641.1707 1.245.18 1.761.0187 1.032-.0761 1.715-.0761 1.715z" fill="#333558"/><path d="m39.8108 102.085s-1.3894.104-2.78.164c-.6947.06-1.3907.079-1.9107-.001-.5213-.06-.8693-.163-.8693-.163v-.046s.348-.102.8693-.162c.52-.08 1.216-.062 1.9107-.002 1.3906.061 2.78.164 2.78.164z" fill="#333558"/><path d="m37.7255 100.792s-.4987.103-.996.164c-.2493.06-.4974.077-.6854-.003-.1853-.06-.3106-.161-.3106-.161v-.047s.1253-.102.3106-.162c.188-.08.4361-.062.6854-.002.4973.06.996.164.996.164z" fill="#333558"/><path d="m63.4135 23.4067 5.1426-6.6747s-10.032-6.6587-12.056-6.776c-2.0253-.11733-24.8973 6.9587-24.8973 6.9587l5.164 8.252z" fill="#302f36"/><path d="m36.7668 15.3387s2.8333 9.0706 3.568 9.672c.7333.6013 4.4653-1.112 4.4653-1.112s-2.8787-2.8494-4.2987-9.6827z" fill="#a22735"/><path d="m76.9441 83.1586v-34.4919s-4.336-5.5281-13.036-6.3441c0 0-.1626 34.9347 13.036 40.836z" fill="#302f36"/><path d="m51.4882 44.216h-4.4374v8.1453h4.4374z" fill="#181419"/><path d="m60.3841 41.404h-4.4373v8.1453h4.4373z" fill="#181419"/><path d="m47.0175 40.9787h-4.4373v8.1466h4.4373z" fill="#a22735"/><path d="m55.9254 43.6387h-4.4373v8.1426h4.4373z" fill="#a22735"/><path d="m42.7201 38.5267h-4.4373v8.1453h4.4373z" fill="#181419"/><path d="m38.2495 38.3613h-4.4374v5.0734h4.4374z" fill="#a22735"/><path d="m60.3468 38.508-1.0146 3.6307 3.4106.1839z" fill="#a05e33"/><path d="m65.0948 42.4533s-1.5533 22.8174 11.8493 40.7054c-.016 1.576-.0253 2.3746-.0253 2.3746s-7.888-3.708-12.376-19.34c-4.488-15.6333-2.4547-23.74-2.4547-23.74z" fill="#181419"/><path d="m63.0454 42.9613s-.4119 15.0147 3.2934 24.012c3.7067 9 6.2867 15.1334 10.6053 18.5214v6.8666s-6.664-1.3533-16.168-25.036c-3.9933-13.26-3.2466-24.8586-3.2466-24.8586z" fill="#35346f"/><path d="m63.2695 42.5627c0 .5653-1.1414 1.02-2.552 1.02-1.4094 0-2.552-.4547-2.552-1.02 0-.5627 1.1426-1.0187 2.552-1.0187 1.4106 0 2.552.456 2.552 1.0187z" fill="#a22735"/><path d="m63.0815 44.8067c.0293.5533-1.064 1.0573-2.4427 1.128-1.38.0733-2.52-.312-2.5493-.864-.0294-.5494 1.0653-1.0574 2.4427-1.128 1.38-.0734 2.5213.312 2.5493.864z" fill="#a22735"/><path d="m63.0428 47.388c.0586.5386-.988 1.0933-2.336 1.2373-1.3467.1453-2.4867-.172-2.544-.7106-.0587-.54.9866-1.0947 2.3346-1.2374 1.348-.1466 2.4867.172 2.5454.7107z" fill="#a22735"/><path d="m63.1602 50.252c.0867.5266-.9107 1.1307-2.2267 1.3467-1.3173.2186-2.456-.0307-2.5426-.5574-.0854-.5253.9106-1.1293 2.2279-1.3466 1.316-.2187 2.4547.0319 2.5414.5573z" fill="#a22735"/><path d="m63.4401 53.3493c.116.512-.8319 1.164-2.1186 1.456-1.2853.288-2.4214.1094-2.5374-.404-.116-.516.8321-1.1666 2.1187-1.4586 1.2867-.2894 2.4213-.1094 2.5373.4066z" fill="#a22735"/><path d="m63.8921 56.62c.144.5027-.7546 1.2027-2.0106 1.568-1.2534.3613-2.3894.2493-2.5334-.2533-.1466-.5.7534-1.2 2.0094-1.5654 1.2547-.3613 2.3893-.2493 2.5346.2507z" fill="#a22735"/><path d="m64.5201 60.0186c.1747.4894-.6773 1.2387-1.9013 1.6747-1.2226.4347-2.3573.392-2.5306-.0973-.1734-.4894.6773-1.2387 1.9-1.6747 1.2253-.4347 2.3586-.3933 2.5319.0973z" fill="#a22735"/><path d="m65.3348 63.4866c.2013.4774-.6 1.2761-1.7933 1.7841-1.192.508-2.3254.5346-2.5267.0573-.204-.476.5987-1.276 1.7907-1.784 1.1933-.508 2.3266-.5334 2.5293-.0574z" fill="#a22735"/><path d="m66.3388 66.9733c.2333.4667-.5214 1.3134-1.684 1.8934-1.1614.5813-2.292.6746-2.5227.212-.232-.464.5213-1.3134 1.6826-1.8934 1.1614-.5813 2.2934-.6746 2.5241-.212z" fill="#a22735"/><path d="m67.5428 70.4266c.2626.4534-.444 1.3494-1.5747 2.0027s-2.26.816-2.52.3653c-.2613-.4533.444-1.3493 1.5747-2.0026 1.1307-.6534 2.26-.816 2.52-.3654z" fill="#a22735"/><path d="m68.9548 73.792c.2893.44-.368 1.3853-1.468 2.112-1.1.724-2.228.9573-2.516.5173-.2907-.44.3653-1.3853 1.4666-2.112 1.0987-.7266 2.2267-.9573 2.5174-.5173z" fill="#a22735"/><path d="m70.5775 77.016c.3186.4267-.2894 1.4213-1.3601 2.2187-1.068.7986-2.1933 1.1013-2.5133.672-.3187-.428.2894-1.42 1.3587-2.2187 1.0693-.8 2.1947-1.1 2.5147-.672z" fill="#a22735"/><path d="m72.4201 80.044c.348.4147-.2107 1.4587-1.2494 2.3307-1.0386.8706-2.1626 1.24-2.5106.8253-.348-.416.212-1.4573 1.2507-2.3307 1.0373-.8693 2.1626-1.2386 2.5093-.8253z" fill="#a22735"/><path d="m74.4908 82.8253c.3774.404-.1333 1.4947-1.1413 2.44-1.0067.9427-2.1294 1.3827-2.5067.98-.376-.404.1333-1.496 1.1413-2.4386 1.008-.9454 2.1307-1.3827 2.5067-.9814z" fill="#a22735"/><path d="m76.7961 85.3067c.4054.3906-.056 1.5319-1.0333 2.5479-.976 1.0147-2.096 1.5254-2.504 1.1347-.4054-.3907.0573-1.5306 1.0333-2.5466.976-1.0187 2.0974-1.5267 2.504-1.136z" fill="#a22735"/><path d="m51.1881 62.4186h-7.052v-7.8039h7.052z" fill="#3e4ca8"/><path d="m44.4388 62.088h6.7493v7.0787z" fill="#ae8f42"/><path d="m44.1948 61.4893h7.1133v-5.7946h-7.1133z" fill="#ae8f42"/><path d="m44.1948 55.1853h6.9933v-1.8906l-6.9933-4.232z" fill="#ae8f42"/><path d="m52.5508 69.844-.2707-16.4227 5.7894-3.2707s1.136 13.5987 2.5119 16.0427c1.3747 2.4427-8.0306 3.6507-8.0306 3.6507z" fill="#302f36"/><path d="m52.6521 69.8933-1.72-.852v-16.8066h1.72z" fill="#dee4f5"/><path d="m53.2068 70.536-1.7187-.8507v-16.808h1.7187z" fill="#181419"/><path d="m64.4521 76.2347c-.584-1.472-1.572-2.8334-2.3026-4.24-1.1867-2.2894-2.0347-4.7134-2.4227-7.2374-.0346 0-.0707-.0027-.1067-.0027-3.5573 0-6.5973 2.2041-7.84 5.3187.264.2987.5214.604.8494.8827.5893.4973 1.2866.888 1.9013 1.3613 1.4973 1.1467 2.6413 2.7267 4.3146 3.628 1.26.6774 2.6027 1.148 3.9454 1.636.576.208 1.1613.416 1.76.5574.1813-.0267.3627-.056.544-.0787-.2213-.6147-.4107-1.2427-.6427-1.8253z" fill="#181419"/><path d="m64.4521 76.2347c-.584-1.472-1.572-2.8334-2.3026-4.24-1.0814-2.088-1.8827-4.2867-2.3094-6.5707-.0733-.0027-.1453-.008-.22-.008-3.3933 0-6.2773 2.1747-7.34 5.2093.1094.112.2227.224.3494.3307.5893.4973 1.2866.888 1.9013 1.3613 1.4973 1.1467 2.6413 2.7267 4.3146 3.628 1.26.6774 2.6027 1.148 3.9454 1.636.576.208 1.1613.416 1.76.5574.1813-.0267.3627-.056.544-.0787-.2213-.6147-.4107-1.2427-.6427-1.8253z" fill="#ae8f42"/><path d="m62.1495 71.9947c-.476-.916-.8961-1.856-1.2547-2.8147-.4027-.128-.8307-.1987-1.2747-.1987-2.2827 0-4.1387 1.8187-4.2053 4.0867 1.104 1.0147 2.1 2.1613 3.4306 2.8773.8014.4294 1.636.776 2.4827 1.0987 1.072-.476 1.908-1.388 2.284-2.5107-.484-.8506-1.02-1.6866-1.4626-2.5386z" fill="#3e4ca8"/><path d="m35.8201 56.5813 6.9053 3.984.3494-12.8573-7.2547-3.9947z" fill="#302f36"/><path d="m44.4388 61.3h-1.7187v-13.0107h1.7187z" fill="#dee4f5"/><path d="m29.2495 39.8027s2.9706-1.6667 6.036-2.0974l.3693 18.6414s-4.7014-1.7427-6.8147-1.664z" fill="#bcc7ea"/><path d="m29.2495 39.8027-1.0694.4053v14.3466h1.0694z" fill="#675155"/><path d="m28.1801 40.208s-1.5853.6613-2.272 1.1907v12.9613h2.272z" fill="#181419"/><path d="m43.8014 60.7213h-1.7186v-13.0133h1.7186z" fill="#181419"/><path d="m36.3561 37.7053h-1.0706v18.2867h1.0706z" fill="#675155"/><path d="m63.6948 78.3693c-.644 0-1.4853-.1293-2.54-.528-3.496-1.3253-7.7706-4.972-12.7053-10.8413-5.944-7.0653-11.7867-9.8747-15.6414-10.9867-4.1693-1.204-8.7013-.6493-8.7279-.644l-.2054-1.1507c.1227-.0213 4.7707-.6066 9.1813.6481 4.0294 1.1493 10.1267 4.0546 16.288 11.3826 11.0854 13.18 15.3121 10.7814 15.3521 10.756l.6626.964c-.0867.0587-.6133.4-1.664.4z" fill="#9c6c3e"/><path d="m36.3561 42.9733s14.2853 9.3187 15.6333 9.3187c1.3494 0 5.3974-2.836 5.3974-2.836v1.648s-4.88 3.256-5.516 3.256c-.6347 0-15.5147-9.6467-15.5147-9.6467z" fill="#dee4f5"/><path d="m37.9521 38.508s12.0747 8.8773 13.788 8.8773 6.6814-4.4373 6.6814-4.4373z" fill="#ae8f42"/><path d="m36.3561 41.8413s14.2853 9.476 15.6333 9.476c1.3494 0 5.3974-3.192 5.3974-3.192v1.596s-4.88 3.156-5.516 3.156c-.6347 0-15.5147-9.3493-15.5147-9.3493z" fill="#ae8f42"/><path d="m56.9974 43.604s-.0319 15.0733 3.4934 25.0187c3.5267 9.9426 11.5893 23.776 15.208 25.008l1.2453-1.2694c-3.1266-1.58-13.2867-16.9573-15.1853-24.4706-2.3267-9.5654-2.4053-5.4294-3.5293-24.9174-1.124-19.4866-1.2321.6307-1.2321.6307z" fill="#9c6c3e"/><path d="m45.8894 41.8413s4.9374 3.6347 5.9881 3.6347c1.0493 0 3.2893-2.044 3.2893-2.044s-6.8373-4.5573-8.7147-3.916c-1.8786.6427-.5627 2.3253-.5627 2.3253z" fill="#d1d7ec"/><path d="m59.6415 24.028s2.3306 2.3267 1.736 8.3653c-.5947 6.0414-1.0987 12.088 3.32 10.2454 4.4186-1.8467.6-6.5534-2.0653-4.068 0 0 .0133-2.98.3986-6.8987.3853-3.92.1053-7.6693-3.3893-7.644z" fill="#c57135"/><path d="m61.9761 25.0107s.6494 3.6293 0 4.372c-.648.7427-.0453 1.8906 0 2.776.0467.8826.9734 8.344-4.1213 11.0293-5.0986 2.6867-4.68-1.0266-10.9347-3.3853 0 0-.9733-14.5427 3.2894-15.748 0 0 8.4786-.7293 11.7666.956z" fill="#dee4f5"/><path d="m41.1615 25.9427s-1.6534 1.3546-1.6534 5.292c0 3.94-2.0426 8.06-4.78 6.5853-2.736-1.4733.0307-4.2707 1.5934-2.4973 0 0 .1826-1.924.1826-4.4787 0-2.5573 1.428-5.5387 4.6574-4.9013z" fill="#9b5b32"/><path d="m42.7321 25.028s-1.9147 1.5653-1.9147 6.1227c0 4.56-1.0253 9.344-4.1933 7.6386-3.1653-1.7066.036-4.94 1.8454-2.888 0 0 .2093-2.2266.2093-5.1853 0-2.9586 1.4427-5.9667 4.0533-5.688z" fill="#a05e33"/><path d="m44.8001 24.5306s-1.816 3.2067-1.816 8.1094c0 4.9013-1.368 8.5106-4.776 6.6773-3.404-1.8333.0387-5.3146 1.9854-3.1066 0 0 .2227-2.3961.2227-5.5774 0-3.18 1.5759-6.4013 4.3839-6.1027z" fill="#a66133"/><path d="m46.4521 24.2867s-1.2919 2.1773-1.2919 7.6426c0 5.4694-1.0868 10.6387-4.8868 8.5947-3.7973-2.048.0427-5.928 2.2134-3.464 0 0 .2506-2.672.2506-6.2213 0-3.5467.5841-6.8854 3.7147-6.552z" fill="#aa6534"/><path d="m48.6415 24.0494s-2.448 2.0026-2.448 7.8386c0 5.8333-.0907 11.6693-4.144 9.484-4.052-2.1787.0453-6.3226 2.3613-3.6946 0 0 .268-2.8521.268-6.6361 0-3.7866.6227-7.3479 3.9627-6.9919z" fill="#af6734"/><path d="m50.2094 24.0546s-2.5479 2.0854-2.5479 8.1534c0 6.0707-.092 12.1387-4.308 9.868-4.216-2.2693.0466-6.5787 2.4546-3.844 0 0 .2787-2.9667.2787-6.904 0-3.9374.6493-7.6427 4.1226-7.2734z" fill="#c57135"/><path d="m37.3655 27.5653s9.568-5.276 25.1266-1.9146l.9214-2.244s-12.06-4.724-26.6467 1.76z" fill="#302f36"/><path d="m58.0788 28.8506s.9733-.3933 2.0507-.4039c.2666-.0187.5413.0253.7973.0533.2493.0853.4653.216.6453.3133.304.32.4227.5533.4227.5533l-.036.032s-.2773-.0946-.5707-.2613c-.1813-.0426-.3773-.0933-.5826-.1653-.2214-.0347-.4481-.128-.6961-.1534-.248-.016-.496-.052-.7333-.0346-.2373.0026-.46.0107-.6493.0293-.3813.0307-.636.0813-.636.0813z" fill="#c57135"/><path d="m53.8162 28.8946s-.2534-.0506-.6347-.0813c-.1907-.0186-.4134-.0267-.6507-.0293-.236-.0174-.4853.0186-.732.0346-.248.0254-.476.1187-.6974.1534-.2026.072-.4013.1227-.5813.1653-.2933.1667-.5706.2613-.5706.2613l-.036-.032s.1173-.2333.4226-.5533c.18-.0973.396-.228.644-.3133.2574-.028.532-.072.7987-.0533 1.0786.0106 2.0507.4039 2.0507.4039z" fill="#c57135"/><path d="m55.1828 30.6493s-.2213.2547-.6507.5254c-.2186.1213-.4773.2786-.7826.3666-.3067.0947-.6374.1934-.9827.2-.344.0587-.6867.0454-1.008-.0106-.324-.0387-.608-.1374-.8334-.2654-.4586-.2333-.7266-.4386-.7266-.4386l.0213-.0427s.352.0213.8187.128c.2293.0787.5053.104.7986.1373.288.0667.5961.1334.9121.1174.32.0306.6306-.028.9253-.0854.1507-.0146.2827-.076.4133-.1173.1294-.048.2614-.076.3667-.1333.444-.1987.696-.4147.696-.4147z" fill="#333558"/><path d="m58.2401 30.616s.1867.1453.5107.28c.16.0667.3547.1267.5573.1813.2134.0307.4307.0947.6574.0733.2253.0054.4427-.0186.6453-.0693.204-.024.404-.0106.568-.06.336-.052.6027-.0373.6027-.0373l.0186.0427s-.1813.1693-.516.3506c-.164.1-.3773.1574-.616.1867-.236.04-.4893.0093-.7373-.04-.252-.0173-.4853-.1213-.7053-.1893-.2134-.088-.404-.1934-.5534-.296-.3053-.204-.464-.388-.464-.3894z" fill="#333558"/><path d="m57.3681 29.896s-.048.684.0413 1.7c.0427.5093.1334 1.096.2801 1.7093.076.3054.2.6054.3.9174.1586.2933.3186.592.4813.8906.0866.1227.1427.3614.1493.5867l-.0773.32-.172.264c-.2774.304-.6333.4507-.9707.5413-.344.0614-.684.0907-.9973.0334-.3133-.0507-.608-.136-.8493-.2854-.2467-.1306-.4453-.3213-.56-.5173-.1453-.1813-.1734-.3853-.216-.536-.0214-.316-.0054-.4867-.0054-.4867h.0467s.0294.1747.1134.444c.0786.1214.1279.2854.2733.416.1133.1467.3053.26.516.3494.204.104.464.1533.7306.1693.268.0187.5561.0027.8387-.06.28-.064.5586-.1813.752-.3627.1946-.208.2347-.4013.088-.7186-.148-.3107-.2947-.6227-.4387-.9294-.092-.3333-.2039-.656-.2679-.976-.1214-.64-.1708-1.2426-.1788-1.76-.0186-1.032.0761-1.7146.0761-1.7146z" fill="#333558"/><path d="m53.4522 38.484s1.3893-.1027 2.78-.164c.6946-.06 1.3906-.0773 1.9106.0027.5213.06.8693.1613.8693.1613v.0467s-.348.1026-.8693.1626c-.52.08-1.216.0614-1.9106.0014-1.3907-.06-2.78-.164-2.78-.164z" fill="#333558"/><path d="m55.5374 39.7787s.4987-.1027.9961-.164c.2493-.06.4973-.0787.6853.0026.1867.06.3107.1614.3107.1614v.0466s-.124.1013-.3107.1613c-.188.0814-.436.0627-.6853.0027-.4974-.0613-.9961-.164-.9961-.164z" fill="#333558"/></svg>