<svg fill="none" height="140" viewBox="0 0 93 140" width="93" xmlns="http://www.w3.org/2000/svg"><path d="m.0108032 4.21599c0-2.00533 1.6211268-3.628025 3.6202568-3.628025h84.75684c2.0004 0 3.6229 1.622695 3.6229 3.628025v130.98901c0 2.004-1.6225 3.628-3.6229 3.628h-84.75684c-1.99913 0-3.6202568-1.624-3.6202568-3.628z" fill="#fff"/><path d="m62.9988 108.797c1.164.956 2.372 1.944 3.296 3.039.156.187.3867.289.6213.289h.0494c.24 0 .4693-.102.6253-.289.924-1.095 2.1333-2.083 3.2973-3.039 2.4693-2.018 5.0174-4.109 5.0174-7.345 0-2.9347-2.0507-4.9854-4.9934-4.9854-1.4213 0-2.66.8373-3.5 1.6013.4027-1.728 1.1587-3.7733 2.584-5.376h-6.1013c1.4253 1.6067 2.1813 3.6547 2.5853 5.384-.8413-.768-2.0813-1.6093-3.5066-1.6093-2.9374 0-4.992 2.0507-4.992 4.9854 0 3.231 2.552 5.323 5.0173 7.345z" fill="#302f36"/><path d="m66.9655 92.6919v19.4331c.24 0 .4693-.102.6253-.289.924-1.095 2.1333-2.083 3.2973-3.039 2.4693-2.018 5.0174-4.109 5.0174-7.345 0-2.9347-2.0507-4.9854-4.9934-4.9854-1.4213 0-2.66.8373-3.5 1.6013.4027-1.728 1.1587-3.7733 2.584-5.376z" fill="#46464e"/><path d="m80.0894 120.467c.604.494 1.2294 1.006 1.7081 1.574.08.096.1999.15.3226.15h.024c.124 0 .2427-.054.324-.15.4787-.568 1.1054-1.08 1.708-1.574 1.2787-1.046 2.5987-2.13 2.5987-3.804 0-1.522-1.0627-2.583-2.5867-2.583-.736 0-1.3773.433-1.8133.829.2093-.896.6-1.954 1.3387-2.785h-3.1601c.74.832 1.1307 1.893 1.3401 2.789-.436-.397-1.0787-.833-1.816-.833-1.5214 0-2.5867 1.061-2.5867 2.583 0 1.672 1.3226 2.756 2.5986 3.804z" fill="#302f36"/><path d="m82.1428 112.124v10.067h.0013c.124 0 .2427-.054.324-.15.4787-.568 1.1054-1.08 1.708-1.574 1.2787-1.046 2.5987-2.13 2.5987-3.804 0-1.522-1.0627-2.583-2.5867-2.583-.736 0-1.3773.433-1.8133.829.2093-.896.6-1.954 1.3387-2.785z" fill="#46464e"/><path d="m11.7668 18.9533c-.6027-.4947-1.228-1.0053-1.7067-1.5733-.08131-.096-.19863-.148-.3213-.148h-.02532c-.12533 0-.24269.052-.32403.148-.47866.568-1.10397 1.0786-1.70797 1.5733-1.27733 1.0467-2.59867 2.1293-2.59867 3.8067 0 1.5186 1.06266 2.5813 2.58666 2.5813.736 0 1.37734-.432 1.81201-.828-.208.8934-.60001 1.9533-1.33867 2.784h3.16129c-.7386-.8333-1.1293-1.8933-1.33864-2.7893.43464.3987 1.07604.8333 1.81464.8333 1.5227 0 2.5867-1.0627 2.5867-2.5813 0-1.6747-1.3227-2.7574-2.6-3.8067z" fill="#302f36"/><path d="m9.71348 27.2973v-10.0653c-.12534 0-.24269.052-.32403.148-.47866.568-1.10397 1.0786-1.70797 1.5733-1.27733 1.0467-2.59867 2.1293-2.59867 3.8067 0 1.5186 1.06266 2.5813 2.58666 2.5813.736 0 1.37734-.432 1.81201-.828-.208.8934-.60001 1.9533-1.33867 2.784z" fill="#46464e"/><path d="m21.0574 108.797c1.164.956 2.372 1.944 3.296 3.039.1547.187.3854.289.6214.289h.0493c.2387 0 .468-.102.624-.289.9253-1.095 2.1333-2.083 3.2973-3.039 2.4694-2.018 5.0174-4.109 5.0174-7.345 0-2.9347-2.0507-4.9854-4.992-4.9854-1.4214 0-2.66.8373-3.5014 1.6013.4027-1.728 1.1587-3.7733 2.584-5.376h-6.1c1.4254 1.6067 2.1814 3.6547 2.584 5.384-.84-.768-2.08-1.6093-3.5053-1.6093-2.9373 0-4.9933 2.0507-4.9933 4.9854 0 3.231 2.5533 5.323 5.0186 7.345z" fill="#302f36"/><path d="m25.0228 92.6919v19.4331h.0013c.2387 0 .468-.102.624-.289.9253-1.095 2.1333-2.083 3.2973-3.039 2.4694-2.018 5.0174-4.109 5.0174-7.345 0-2.9347-2.0507-4.9854-4.992-4.9854-1.4214 0-2.66.8373-3.5014 1.6013.4027-1.728 1.1587-3.7733 2.584-5.376z" fill="#46464e"/><path d="m62.9988 76.1c1.164.956 2.372 1.944 3.296 3.0386.156.1867.3867.2894.6213.2894h.0494c.24 0 .4693-.1027.6253-.2894.924-1.0946 2.1333-2.0826 3.2973-3.0386 2.4693-2.0187 5.0174-4.1107 5.0174-7.3454 0-2.936-2.0507-4.9853-4.9934-4.9853-1.4213 0-2.66.8373-3.5 1.6013.4027-1.728 1.1587-3.7746 2.584-5.376h-6.1013c1.4253 1.6067 2.1813 3.6534 2.5853 5.3827-.8413-.7667-2.0813-1.608-3.5066-1.608-2.9374 0-4.992 2.0493-4.992 4.9853 0 3.2307 2.552 5.3214 5.0173 7.3454z" fill="#302f36"/><path d="m66.9655 59.9946v19.4334c.24 0 .4693-.1027.6253-.2894.924-1.0946 2.1333-2.0826 3.2973-3.0386 2.4693-2.0187 5.0174-4.1107 5.0174-7.3454 0-2.936-2.0507-4.9853-4.9934-4.9853-1.4213 0-2.66.8373-3.5 1.6013.4027-1.728 1.1587-3.7746 2.584-5.376z" fill="#46464e"/><path d="m21.0574 76.1c1.164.956 2.372 1.944 3.296 3.0386.1547.1867.3854.2894.6214.2894h.0493c.2387 0 .468-.1027.624-.2894.9253-1.0946 2.1333-2.0826 3.2973-3.0386 2.4694-2.0187 5.0174-4.1107 5.0174-7.3454 0-2.936-2.0507-4.9853-4.992-4.9853-1.4214 0-2.66.8373-3.5014 1.6013.4027-1.728 1.1587-3.7746 2.584-5.376h-6.1c1.4254 1.6067 2.1814 3.6534 2.584 5.3827-.84-.7667-2.08-1.608-3.5053-1.608-2.9373 0-4.9933 2.0493-4.9933 4.9853 0 3.2307 2.5533 5.3214 5.0186 7.3454z" fill="#302f36"/><path d="m25.0228 59.9946v19.4334h.0013c.2387 0 .468-.1027.624-.2894.9253-1.0946 2.1333-2.0826 3.2973-3.0386 2.4694-2.0187 5.0174-4.1107 5.0174-7.3454 0-2.936-2.0507-4.9853-4.992-4.9853-1.4214 0-2.66.8373-3.5014 1.6013.4027-1.728 1.1587-3.7746 2.584-5.376z" fill="#46464e"/><path d="m62.9988 43.4013c1.164.956 2.372 1.9427 3.296 3.0387.156.1853.3867.2893.6213.2893h.0494c.24 0 .4693-.104.6253-.2893.924-1.096 2.1333-2.0827 3.2973-3.0387 2.4693-2.0187 5.0174-4.1093 5.0174-7.3467 0-2.9346-2.0507-4.984-4.9934-4.984-1.4213 0-2.66.836-3.5 1.6014.4027-1.7294 1.1587-3.7734 2.584-5.3774h-6.1013c1.4253 1.6067 2.1813 3.6561 2.5853 5.3854-.8413-.768-2.0813-1.6094-3.5066-1.6094-2.9374 0-4.992 2.0494-4.992 4.984 0 3.232 2.552 5.3227 5.0173 7.3467z" fill="#302f36"/><path d="m66.9655 27.2946v19.4347c.24 0 .4693-.104.6253-.2893.924-1.096 2.1333-2.0827 3.2973-3.0387 2.4693-2.0187 5.0174-4.1093 5.0174-7.3467 0-2.9346-2.0507-4.984-4.9934-4.984-1.4213 0-2.66.836-3.5 1.6014.4027-1.7294 1.1587-3.7734 2.584-5.3774z" fill="#46464e"/><path d="m21.0574 43.4013c1.164.956 2.372 1.9427 3.296 3.0387.1547.1853.3854.2893.6214.2893h.0493c.2387 0 .468-.104.624-.2893.9253-1.096 2.1333-2.0827 3.2973-3.0387 2.4694-2.0187 5.0174-4.1093 5.0174-7.3467 0-2.9346-2.0507-4.984-4.992-4.984-1.4214 0-2.66.836-3.5014 1.6014.4027-1.7294 1.1587-3.7734 2.584-5.3774h-6.1c1.4254 1.6067 2.1814 3.6561 2.584 5.3854-.84-.768-2.08-1.6094-3.5053-1.6094-2.9373 0-4.9933 2.0494-4.9933 4.984 0 3.232 2.5533 5.3227 5.0186 7.3467z" fill="#302f36"/><path d="m25.0228 27.2946v19.4347h.0013c.2387 0 .468-.104.624-.2893.9253-1.096 2.1333-2.0827 3.2973-3.0387 2.4694-2.0187 5.0174-4.1093 5.0174-7.3467 0-2.9346-2.0507-4.984-4.992-4.984-1.4214 0-2.66.836-3.5014 1.6014.4027-1.7294 1.1587-3.7734 2.584-5.3774z" fill="#46464e"/><g fill="#302f36"><path d="m78.7408 133.706c0-.515.137-.973.411-1.375.2693-.401.6355-.715 1.0985-.942-.5386-.232-.9638-.569-1.2756-1.014-.3166-.444-.4749-.947-.4749-1.509 0-.893.3024-1.604.9072-2.133.6-.529 1.3914-.794 2.3741-.794.9922 0 1.7883.265 2.3883.794.5953.534.893 1.245.893 2.133 0 .557-.1512 1.061-.4536 1.509-.3071.449-.73.789-1.2686 1.021.4583.227.8198.541 1.0843.943.2646.401.3969.857.3969 1.367 0 .87-.2787 1.559-.8362 2.07-.5576.51-1.2922.765-2.2041.765-.9071 0-1.6395-.255-2.197-.765-.5622-.511-.8433-1.2-.8433-2.07zm1.0701-4.812c0 .577.1843 1.047.5528 1.411.3638.363.841.545 1.4316.545s1.0654-.179 1.4245-.538c.3543-.359.5315-.832.5315-1.418s-.1725-1.046-.5174-1.382c-.3496-.335-.8339-.503-1.4528-.503-.6142 0-1.0961.168-1.4457.503-.3497.341-.5245.801-.5245 1.382zm1.9702 6.57c.515 0 .9331-.161 1.2544-.482.3166-.317.4748-.749.4748-1.297 0-.524-.1559-.95-.4677-1.276-.3166-.321-.7371-.481-1.2615-.481s-.9426.16-1.2544.481c-.3165.326-.4748.752-.4748 1.276 0 .525.163.952.489 1.283s.7394.496 1.2402.496z"/><path d="m13.1181 5.71491c0 .51499-.137.97328-.411 1.37488-.2693.40159-.6355.71578-1.0985.94257.5386.23151.9638.56932 1.2757 1.01344.3165.44411.4748.94729.4748 1.5095 0 .893-.3024 1.604-.9071 2.1332-.6001.5292-1.3915.7937-2.3742.7937-.99216 0-1.78826-.2645-2.38829-.7937-.59531-.5339-.89296-1.2449-.89296-2.1332 0-.55749.15119-1.06066.45357-1.5095.3071-.44885.72995-.78902 1.26857-1.02053-.4583-.22678-.81973-.54097-1.08431-.94257-.26458-.40159-.39687-.85752-.39687-1.36779 0-.86933.27875-1.55913.83626-2.06939.55751-.51027 1.29219-.7654 2.20403-.7654.9072 0 1.6395.25513 2.197.7654.5622.51026.8433 1.20006.8433 2.06939zm-1.0701 4.81209c0-.57643-.1843-1.04654-.5528-1.41034-.3638-.36379-.841-.54569-1.4316-.54569-.59054 0-1.06536.17953-1.42444.53861-.35435.35907-.53152.83154-.53152 1.41742 0 .5858.17245 1.0465.51735 1.3819.34962.3355.8339.5032 1.45281.5032.6142 0 1.0961-.1677 1.4458-.5032.3496-.3401.5244-.8008.5244-1.3819zm-1.9702-6.56966c-.51497 0-.9331.16064-1.25437.48192-.31656.31655-.47483.74886-.47483 1.29692 0 .52443.15591.94965.46774 1.27565.31655.32128.73704.48192 1.26146.48192.5245 0 .9426-.16064 1.2544-.48192.3166-.326.4748-.75122.4748-1.27565 0-.52444-.163-.95202-.489-1.28275-.326-.33072-.7394-.49609-1.2402-.49609z"/><path d="m41.9841 94.008c1.164.9546 2.3733 1.9426 3.2973 3.04.1547.184.3854.2866.6214.2866h.0479c.2414 0 .4694-.1026.6267-.2866.924-1.0974 2.132-2.0854 3.296-3.04 2.4694-2.0187 5.0174-4.1107 5.0174-7.3453 0-2.936-2.0507-4.9868-4.992-4.9868-1.4227 0-2.66.8374-3.5014 1.6014.404-1.7266 1.1587-3.772 2.584-5.376h-6.1013c1.4267 1.6066 2.1813 3.6547 2.5867 5.384-.8414-.7666-2.0814-1.6094-3.5054-1.6094-2.9373 0-4.9933 2.0508-4.9933 4.9868 0 3.2306 2.5533 5.3226 5.016 7.3453z"/></g><path d="m45.9507 77.9013v19.4333c.2414 0 .4694-.1026.6267-.2866.924-1.0974 2.132-2.0854 3.296-3.04 2.4694-2.0187 5.0174-4.1107 5.0174-7.3453 0-2.936-2.0507-4.9868-4.992-4.9868-1.4227 0-2.66.8374-3.5014 1.6014.404-1.7266 1.1587-3.772 2.584-5.376z" fill="#46464e"/><path d="m41.9841 59.3c1.164.9546 2.3733 1.9426 3.2973 3.0386.1547.1854.3854.2867.6214.2867h.0479c.2414 0 .4694-.1013.6267-.2867.924-1.096 2.132-2.084 3.296-3.0386 2.4694-2.0214 5.0174-4.112 5.0174-7.3467 0-2.9347-2.0507-4.984-4.992-4.984-1.4227 0-2.66.836-3.5014 1.6013.404-1.7293 1.1587-3.7733 2.584-5.3773h-6.1013c1.4267 1.6067 2.1813 3.6534 2.5867 5.3827-.8414-.7667-2.0814-1.6067-3.5054-1.6067-2.9373 0-4.9933 2.0493-4.9933 4.984 0 3.232 2.5533 5.3227 5.016 7.3467z" fill="#302f36"/><path d="m45.9507 43.1933v19.432c.2414 0 .4694-.1013.6267-.2867.924-1.096 2.132-2.084 3.296-3.0386 2.4694-2.0214 5.0174-4.112 5.0174-7.3467 0-2.9347-2.0507-4.984-4.992-4.984-1.4227 0-2.66.836-3.5014 1.6013.404-1.7293 1.1587-3.7733 2.584-5.3773z" fill="#46464e"/></svg>