<svg fill="none" height="140" viewBox="0 0 93 140" width="93" xmlns="http://www.w3.org/2000/svg"><path d="m.713468 4.41327c0-2.004 1.622402-3.629365 3.622842-3.629365h84.75429c2.0004 0 3.6229 1.625365 3.6229 3.629365v130.98773c0 2.006-1.6225 3.63-3.6229 3.63h-84.75429c-2.00044 0-3.622842-1.624-3.622842-3.63z" fill="#fff"/><path d="m21.6948 108.995c1.1653.956 2.3733 1.945 3.2973 3.04.1547.184.3854.288.6214.288h.048c.2413 0 .4706-.104.6266-.288.9227-1.095 2.132-2.084 3.296-3.04 2.4693-2.018 5.016-4.11 5.016-7.346 0-2.9344-2.0493-4.9851-4.992-4.9851-1.42 0-2.6586.836-3.5 1.6027.404-1.728 1.1587-3.7733 2.5854-5.376h-6.1027c1.4267 1.604 2.1813 3.6533 2.5867 5.3826-.8414-.768-2.0827-1.6093-3.5067-1.6093-2.9374 0-4.992 2.0507-4.992 4.9851 0 3.232 2.552 5.323 5.016 7.346z" fill="#302f36"/><path d="m25.6615 92.8906v19.4324c.2413 0 .4706-.104.6266-.288.9227-1.095 2.132-2.084 3.296-3.04 2.4693-2.018 5.016-4.11 5.016-7.346 0-2.9344-2.0493-4.9851-4.992-4.9851-1.42 0-2.6586.836-3.5 1.6027.404-1.728 1.1587-3.7733 2.5854-5.376z" fill="#46464e"/><path d="m63.6814 43.5986c1.164.956 2.372 1.944 3.2947 3.0386.156.1867.3854.2894.6227.2894h.048c.2413 0 .4693-.1027.6266-.2894.9227-1.0946 2.132-2.0826 3.2974-3.0386 2.4666-2.0186 5.0147-4.1107 5.0147-7.3454 0-2.9346-2.0493-4.9853-4.992-4.9853-1.42 0-2.6587.8374-3.5014 1.6014.4054-1.728 1.1587-3.7733 2.5867-5.376h-6.1013c1.4253 1.6067 2.18 3.6533 2.584 5.384-.84-.768-2.08-1.6094-3.5054-1.6094-2.9373 0-4.9933 2.0507-4.9933 4.9853 0 3.2307 2.5533 5.3214 5.0186 7.3454z" fill="#302f36"/><path d="m67.6468 27.4933v19.4333c.2413 0 .4693-.1027.6266-.2894.9227-1.0946 2.132-2.0826 3.2974-3.0386 2.4666-2.0186 5.0147-4.1107 5.0147-7.3454 0-2.9346-2.0493-4.9853-4.992-4.9853-1.42 0-2.6587.8374-3.5014 1.6014.4054-1.728 1.1587-3.7733 2.5867-5.376z" fill="#46464e"/><path d="m42.6881 76.2973c1.164.956 2.372 1.9426 3.2947 3.0386.156.1854.3853.2881.6227.2881h.0479c.2414 0 .4707-.1027.6267-.2881.9227-1.096 2.132-2.0826 3.2974-3.0386 2.4666-2.0187 5.016-4.1107 5.016-7.3467 0-2.9347-2.0521-4.9853-4.9934-4.9853-1.42 0-2.6586.8373-3.5013 1.6013.4053-1.728 1.1586-3.772 2.5853-5.3747h-6.1013c1.4267 1.6054 2.1813 3.6534 2.5853 5.3827-.84-.7667-2.0813-1.6093-3.5053-1.6093-2.9373 0-4.9933 2.0506-4.9933 4.9853 0 3.232 2.5533 5.3227 5.0186 7.3467z" fill="#302f36"/><path d="m46.6521 60.1919v19.4321h.0013c.2414 0 .4707-.1027.6267-.2881.9227-1.096 2.132-2.0826 3.2974-3.0386 2.4666-2.0187 5.016-4.1107 5.016-7.3467 0-2.9347-2.0521-4.9853-4.9934-4.9853-1.42 0-2.6586.8373-3.5013 1.6013.4053-1.728 1.1586-3.772 2.5853-5.3747z" fill="#46464e"/><path d="m80.8135 120.664c.604.496 1.2293 1.008 1.7093 1.573.08.096.1987.151.3213.151h.024c.124 0 .244-.055.3267-.151.4773-.565 1.1039-1.077 1.7066-1.573 1.2773-1.045 2.5974-2.129 2.5974-3.804 0-1.521-1.0613-2.584-2.5853-2.584-.736 0-1.3787.435-1.8134.831.208-.895.6-1.954 1.3387-2.784h-3.16c.7386.832 1.1293 1.892 1.3386 2.786-.4346-.396-1.0786-.833-1.8146-.833-1.5227 0-2.588 1.063-2.588 2.584 0 1.673 1.3227 2.757 2.5987 3.804z" fill="#302f36"/><path d="m82.8681 112.323v10.065c.124 0 .244-.055.3267-.151.4773-.565 1.1039-1.077 1.7066-1.573 1.2773-1.045 2.5974-2.129 2.5974-3.804 0-1.521-1.0613-2.584-2.5853-2.584-.736 0-1.3787.435-1.8134.831.208-.895.6-1.954 1.3387-2.784z" fill="#46464e"/><path d="m12.4921 19.1519c-.6026-.4946-1.2293-1.0067-1.7066-1.5733-.0814-.0974-.2-.1493-.3214-.1493h-.0267c-.124 0-.2426.0519-.3226.1493-.47869.5666-1.10536 1.0787-1.70803 1.5733-1.27733 1.0454-2.59863 2.128-2.59863 3.804 0 1.5214 1.06132 2.5827 2.58665 2.5827.736 0 1.37598-.432 1.81201-.828-.20936.8947-.60003 1.9534-1.3387 2.7827h3.16c-.7373-.8307-1.128-1.8921-1.3386-2.7867.436.3973 1.0773.832 1.816.832 1.5226 0 2.5853-1.0613 2.5853-2.5827 0-1.6733-1.3213-2.756-2.5987-3.804z" fill="#302f36"/><path d="m10.4388 27.4933v-10.064h-.0014c-.124 0-.2426.0519-.3226.1493-.47871.5666-1.10538 1.0787-1.70805 1.5733-1.27733 1.0454-2.59863 2.128-2.59863 3.804 0 1.5214 1.06132 2.5827 2.58665 2.5827.736 0 1.37598-.432 1.81203-.828-.20938.8947-.60005 1.9534-1.33872 2.7827z" fill="#46464e"/><g fill="#302f36"><path d="m83.7936 132.074h-.9851c-.6189.009-1.1056.172-1.4599.489-.3544.316-.5316.744-.5316 1.283 0 1.209.6024 1.814 1.8072 1.814.567 0 1.0205-.163 1.3607-.489.3355-.321.5032-.749.5032-1.283h1.3111c0 .817-.2977 1.495-.893 2.034-.6.543-1.3607.815-2.282.815-.9733 0-1.7363-.257-2.2891-.772s-.8291-1.231-.8291-2.148c0-.449.1464-.883.4393-1.304.2882-.42.6828-.734 1.1836-.942-.567-.18-1.004-.478-1.3111-.893-.3118-.416-.4678-.924-.4678-1.524 0-.926.3024-1.661.9072-2.204.6047-.543 1.3914-.815 2.3599-.815.9686 0 1.7576.262 2.3671.787.6047.524.9071 1.216.9071 2.076h-1.3182c0-.543-.1771-.978-.5315-1.304-.3543-.326-.8292-.489-1.4245-.489-.6331 0-1.1173.165-1.4528.496-.3354.331-.5032.806-.5032 1.425 0 .6.1843 1.06.5528 1.382.3685.321.9001.486 1.5946.496h.9851z"/><path d="m9.46808 7.73931h.98512c.6189-.00945 1.1055-.17245 1.4599-.489.3543-.31655.5315-.74414.5315-1.28275 0-1.20951-.6024-1.81426-1.8072-1.81426-.5669 0-1.02049.163-1.36066.489-.33545.32128-.50318.74886-.50318 1.28274h-1.31109c0-.81736.29765-1.49535.89296-2.03396.60003-.54334 1.3607-.815 2.28197-.815.9733 0 1.7363.25749 2.2891.77248.5528.51498.8292 1.23077.8292 2.14735 0 .44884-.1465.88351-.4394 1.30401-.2882.42049-.6827.73468-1.1835.94256.5669.17954 1.004.47719 1.3111.89296.3118.41577.4677.92366.4677 1.52366 0 .9261-.3024 1.6608-.9071 2.2041-.6048.5433-1.3914.815-2.36.815-.96853 0-1.75755-.2622-2.36703-.7867-.60475-.5244-.90713-1.2166-.90713-2.0764h1.31818c0 .5433.17717.978.53152 1.304s.82916.489 1.42446.489c.6331 0 1.1174-.1654 1.4529-.4961.3354-.3308.5031-.8056.5031-1.4245 0-.6-.1842-1.06069-.5528-1.38197-.3685-.32128-.9-.48664-1.5945-.49609h-.98512z"/></g></svg>